<svg width="507" height="164" viewBox="0 0 507 164" fill="none" xmlns="http://www.w3.org/2000/svg">
<path d="M409.894 42.4339C405.55 18.6316 366.245 0 318.392 0C292.937 0 269.897 5.27135 253.252 13.7937C236.615 5.27135 213.575 0 188.12 0C144.487 0 107.96 15.4889 98.5618 36.2647C97.7799 36.257 96.998 36.2492 96.216 36.2492C43.0758 36.2492 0 60.0361 0 89.3807C0 118.725 43.0758 142.512 96.216 142.512C110.043 142.512 123.196 140.894 135.08 137.999C149.79 153.264 184.837 164.008 225.745 164.008C264.068 164.008 297.257 154.58 313.391 140.832C331.654 144.633 352.395 146.777 374.389 146.777C447.628 146.777 507 122.99 507 93.6457C507 69.2242 465.891 48.6574 409.894 42.4339Z" fill="white" fill-opacity="0.6"/>
</svg>
