<svg width="462" height="166" viewBox="0 0 462 166" fill="none" xmlns="http://www.w3.org/2000/svg">
<g clip-path="url(#clip0_111_699)">
<path d="M416.361 42.9514C411.95 18.8588 372.024 0 323.416 0C297.559 0 274.156 5.33563 257.248 13.962C240.349 5.33563 216.945 0 191.088 0C146.767 0 109.664 15.6778 100.117 36.7069C99.3228 36.6991 98.5285 36.6913 97.7342 36.6913C43.7555 36.6913 0 60.7682 0 90.4707C0 120.173 43.7555 144.25 97.7342 144.25C111.779 144.25 125.14 142.613 137.212 139.682C152.153 155.133 187.754 166.008 229.307 166.008C268.234 166.008 301.948 156.465 318.336 142.55C336.887 146.397 357.955 148.567 380.297 148.567C454.691 148.567 515 124.49 515 94.7878C515 70.0684 473.242 49.2508 416.361 42.9514Z" fill="white" fill-opacity="0.6"/>
</g>
<defs>
<clipPath id="clip0_111_699">
<rect width="515" height="166" fill="white"/>
</clipPath>
</defs>
</svg>
