<svg id="gen_2" data-name="gen 2" xmlns="http://www.w3.org/2000/svg" xmlns:xlink="http://www.w3.org/1999/xlink" viewBox="0 0 745.85 1216.22"><defs><style>.cls-1{fill:none;}.cls-2{fill:#cb862a;}.cls-3{fill:#7c433e;}.cls-4{fill:#9b6027;}.cls-5{clip-path:url(#clip-path);}.cls-6{fill:#603835;}.cls-7{clip-path:url(#clip-path-2);}.cls-8{clip-path:url(#clip-path-3);}.cls-9{fill:#307f4c;}.cls-10{fill:#6b9660;}.cls-11{fill:#cd872a;}.cls-12{fill:#592b29;}.cls-13{fill:#48a075;}.cls-14{fill:#356654;}.cls-15{clip-path:url(#clip-path-4);}.cls-16{clip-path:url(#clip-path-5);}.cls-17{clip-path:url(#clip-path-6);}</style><clipPath id="clip-path" transform="translate(-88.75 -76.68)"><path class="cls-1" d="M687.73,230.42h68.54v-22H672.33a1.15,1.15,0,0,0-.9,1.88Z"/></clipPath><clipPath id="clip-path-2" transform="translate(-88.75 -76.68)"><path class="cls-1" d="M687.73,587.28h68.54v-22H672.33a1.15,1.15,0,0,0-.9,1.87Z"/></clipPath><clipPath id="clip-path-3" transform="translate(-88.75 -76.68)"><path class="cls-1" d="M687.73,1053.92h68.54v-22H672.33a1.15,1.15,0,0,0-.9,1.88Z"/></clipPath><clipPath id="clip-path-4" transform="translate(-88.75 -76.68)"><path class="cls-1" d="M235.62,229.85H167.08v-22H251a1.15,1.15,0,0,1,.89,1.87Z"/></clipPath><clipPath id="clip-path-5" transform="translate(-88.75 -76.68)"><path class="cls-1" d="M235.62,586.72H167.08v-22H251a1.16,1.16,0,0,1,.89,1.88Z"/></clipPath><clipPath id="clip-path-6" transform="translate(-88.75 -76.68)"><path class="cls-1" d="M235.62,1053.35H167.08v-22H251a1.15,1.15,0,0,1,.89,1.87Z"/></clipPath></defs><path class="cls-2" d="M756.27,214H689.38V155.64c-1.92-16.29-9.24-22.67-9.24-22.67h9.24v-8.91h66.89Z" transform="translate(-88.75 -76.68)"/><path class="cls-3" d="M756.27,133.55H676.09s-23.18.55-13.78-20c6.8-14.87-.93-18.41-5.72-19.23a8.58,8.58,0,0,1-5.49,15.18,8.22,8.22,0,0,1-1-.06h0s-14.27-.66-12-18.21,20.5-13.61,20.5-13.61,15.91,1.1,17.22,15.72S730,109.44,730,109.44h26.27Z" transform="translate(-88.75 -76.68)"/><rect class="cls-2" x="689.3" y="229.92" width="66.98" height="239.48" transform="translate(1356.82 622.64) rotate(-180)"/><path class="cls-4" d="M687.73,230.42h68.54v-22H672.33a1.15,1.15,0,0,0-.9,1.88Z" transform="translate(-88.75 -76.68)"/><path class="cls-4" d="M683.68,229.92h67.95a4.65,4.65,0,0,1,4.65,4.65v0a4.65,4.65,0,0,1-4.65,4.65H683.68a0,0,0,0,1,0,0v-9.29A0,0,0,0,1,683.68,229.92Z" transform="translate(1351.21 392.45) rotate(-180)"/><g class="cls-5"><path class="cls-6" d="M834.6,230.4l-162.94,0V218.06a12.34,12.34,0,0,1,10.18,5.36,12.36,12.36,0,0,1,20.37,0,12.34,12.34,0,0,1,20.37,0,12.35,12.35,0,0,1,20.37,0,12.36,12.36,0,0,1,20.37,0c.19-.27.4-.53.61-.79a.27.27,0,0,0,.07-.08,10,10,0,0,1,.7-.76l.15-.17c.25-.24.51-.47.77-.7l.12-.08a12.35,12.35,0,0,1,4-2.18l.17-.05q.51-.15,1.05-.27l.2,0a12.91,12.91,0,0,1,2.35-.24,12.42,12.42,0,0,1,10.18,5.36,12.35,12.35,0,0,1,19.48-1.15,14.11,14.11,0,0,1,.89,1.15,12.35,12.35,0,0,1,20.37,0A12.31,12.31,0,0,1,834.6,218Z" transform="translate(-88.75 -76.68)"/></g><path class="cls-4" d="M712,276.1h44.26a0,0,0,0,1,0,0v89.59A44.26,44.26,0,0,1,712,409.95h0a0,0,0,0,1,0,0V276.1A0,0,0,0,1,712,276.1Z" transform="translate(1379.54 609.37) rotate(-180)"/><path class="cls-6" d="M719.08,282.28h37.19a0,0,0,0,1,0,0v81.33a37.19,37.19,0,0,1-37.19,37.19h0a0,0,0,0,1,0,0V282.28A0,0,0,0,1,719.08,282.28Z" transform="translate(1386.61 606.41) rotate(-180)"/><path class="cls-2" d="M756.27,565H689.38V506.72c-1.92-16.29-9.24-22.67-9.24-22.67h9.24v-8.91h66.89Z" transform="translate(-88.75 -76.68)"/><path class="cls-3" d="M756.27,485.19H676.09s-23.18.55-13.78-20c6.8-14.87-.93-18.41-5.72-19.23a8.58,8.58,0,0,1-5.49,15.18,8.22,8.22,0,0,1-1-.06h0s-14.27-.66-12-18.21,20.5-13.61,20.5-13.61,15.91,1.1,17.22,15.72S730,461.08,730,461.08h26.27Z" transform="translate(-88.75 -76.68)"/><rect class="cls-2" x="689.3" y="586.78" width="66.98" height="389.53" transform="translate(1356.82 1486.42) rotate(-180)"/><path class="cls-4" d="M687.73,587.28h68.54v-22H672.33a1.15,1.15,0,0,0-.9,1.87Z" transform="translate(-88.75 -76.68)"/><path class="cls-4" d="M683.68,586.78h67.95a4.65,4.65,0,0,1,4.65,4.65v0a4.65,4.65,0,0,1-4.65,4.65H683.68a0,0,0,0,1,0,0v-9.29a0,0,0,0,1,0,0Z" transform="translate(1351.21 1106.18) rotate(-180)"/><g class="cls-7"><path class="cls-6" d="M834.6,587.27H671.66V574.93a12.31,12.31,0,0,1,10.18,5.36,12.34,12.34,0,0,1,20.37,0,12.34,12.34,0,0,1,20.37,0,12.35,12.35,0,0,1,20.37,0,12.36,12.36,0,0,1,20.37,0c.19-.27.4-.53.61-.79a.27.27,0,0,0,.07-.08,10.13,10.13,0,0,1,.7-.77l.15-.16c.25-.24.51-.48.77-.7l.12-.09a12.52,12.52,0,0,1,4-2.17l.17,0a9,9,0,0,1,1.05-.27l.2,0a12.08,12.08,0,0,1,2.35-.25,12.35,12.35,0,0,1,9.29,4.22,14.11,14.11,0,0,1,.89,1.15,12.35,12.35,0,0,1,19.48-1.15,14,14,0,0,1,.89,1.14,12.36,12.36,0,0,1,20.37,0,12.31,12.31,0,0,1,10.18-5.36Z" transform="translate(-88.75 -76.68)"/></g><path class="cls-4" d="M712,633h44.26a0,0,0,0,1,0,0v89.59A44.26,44.26,0,0,1,712,766.82h0a0,0,0,0,1,0,0V633A0,0,0,0,1,712,633Z" transform="translate(1379.54 1323.11) rotate(-180)"/><path class="cls-6" d="M719.08,639.15h37.19a0,0,0,0,1,0,0v81.33a37.19,37.19,0,0,1-37.19,37.19h0a0,0,0,0,1,0,0V639.15A0,0,0,0,1,719.08,639.15Z" transform="translate(1386.61 1320.15) rotate(-180)"/><rect class="cls-2" x="689.3" y="1053.42" width="66.98" height="239.48" transform="translate(1356.82 2269.64) rotate(-180)"/><g class="cls-8"><path class="cls-6" d="M834.6,1053.9l-162.94,0v-12.36a12.31,12.31,0,0,1,10.18,5.36,12.36,12.36,0,0,1,20.37,0,12.34,12.34,0,0,1,20.37,0,12.35,12.35,0,0,1,20.37,0,12.36,12.36,0,0,1,20.37,0c.19-.27.4-.53.61-.79a.27.27,0,0,0,.07-.08c.22-.26.45-.52.7-.77l.15-.16c.25-.24.51-.47.77-.7l.12-.08a12.35,12.35,0,0,1,4-2.18l.17-.05q.51-.15,1.05-.27l.2,0a12.91,12.91,0,0,1,2.35-.24,12.42,12.42,0,0,1,10.18,5.36,12.35,12.35,0,0,1,19.48-1.15,12.57,12.57,0,0,1,.89,1.15,12.35,12.35,0,0,1,20.37,0,12.31,12.31,0,0,1,10.18-5.36Z" transform="translate(-88.75 -76.68)"/></g><path class="cls-4" d="M712,1099.6h44.26a0,0,0,0,1,0,0v89.59A44.26,44.26,0,0,1,712,1233.45h0a0,0,0,0,1,0,0V1099.6A0,0,0,0,1,712,1099.6Z" transform="translate(1379.54 2256.37) rotate(-180)"/><path class="cls-6" d="M719.08,1105.78h37.19a0,0,0,0,1,0,0v81.33a37.19,37.19,0,0,1-37.19,37.19h0a0,0,0,0,1,0,0V1105.78A0,0,0,0,1,719.08,1105.78Z" transform="translate(1386.61 2253.41) rotate(-180)"/><path class="cls-9" d="M688.1,167.11a9.64,9.64,0,0,1,.47-2.29c.42-1.21.62-.64.62-.64,6.19,7,16,11.23,27.15,13,3.57.56,7.18,1.06,10.81,1.4h0c11.22.9,26.57-3.47,34.19-5.95l.45-.24-.28.18c2.81-.91,4.52-1.56,4.52-1.56v4.28l1.42,13c-18.13,4.68-39.38-.71-39.38-.71l-.05,0a83.49,83.49,0,0,1-20-5.19c-3-1.21-5.88-2.59-8.69-4C693.3,175.16,687.68,172.53,688.1,167.11Z" transform="translate(-88.75 -76.68)"/><path class="cls-10" d="M704.27,174.91s12.58.26,5.68-18.52C710,156.39,694.24,168,704.27,174.91Z" transform="translate(-88.75 -76.68)"/><path class="cls-10" d="M690.07,174s1.06-12.55-18.12-6.86C672,167.13,682.52,183.55,690.07,174Z" transform="translate(-88.75 -76.68)"/><path class="cls-10" d="M720,184.35s-11.9-9.58-19.19,13.58C700.83,197.93,724.52,198.43,720,184.35Z" transform="translate(-88.75 -76.68)"/><path class="cls-10" d="M728.87,745s-13.28.9-4.48,20.63C724.39,765.62,740,751.56,728.87,745Z" transform="translate(-88.75 -76.68)"/><path class="cls-9" d="M669.06,752.59c3.26-.34,5.92-2.5,7.81-5.06a22.25,22.25,0,0,0,3.58-9.27c1-5.7.64-11.48.95-17.23a137.68,137.68,0,0,0,7.89,35.18,158,158,0,0,1,.77-41.08,63.66,63.66,0,0,0,10.4,12.38c6.53,6.09,15,10.7,22.8,15.82a210.26,210.26,0,0,1,23.08,17.47c1.65,1.45,3.27,2.93,4.83,4.45a30.45,30.45,0,0,1,1.23,4.32,19.79,19.79,0,0,1-2.85,15.28,15.33,15.33,0,0,1-6,4.93,17.14,17.14,0,0,1-8.37,1.81,8.46,8.46,0,0,1-7.39-10.31,8.63,8.63,0,0,1,4.33-5.93c1.66-.81,4.35-.6,5.11,1.41a1.49,1.49,0,0,0,1.8,1,1.48,1.48,0,0,0,1-1.8,6.52,6.52,0,0,0-8.54-3.54,11.3,11.3,0,0,0-6.6,8.29,11.52,11.52,0,0,0,1.78,9,11.25,11.25,0,0,0,8,4.74,19.59,19.59,0,0,0,10.49-2.22,18,18,0,0,0,7.17-6.29,22.55,22.55,0,0,0,3.06-16.19,32.28,32.28,0,0,1,5.89,9.69c2.9,8.09.64,16.35-2,24.14,5.33-2.88,8-7.8,9.25-12.71,3.31-12.64-1-26.74-11.7-37.84-14.13-14.71-37.41-23.52-52.23-37.79-7.09-6.84-9.56-13.15-10.74-17.94,3.54-12.51,9.19-25.38,18.14-36.82q3.06-3.91,6-7.26a18.54,18.54,0,0,0,1.75,7.83,8.64,8.64,0,0,0,3.3,3.89,5.31,5.31,0,0,0,4.9.32c2.88-1.25,5.39-4.8,4.17-8a3.47,3.47,0,0,0-3.85-2.43,2.77,2.77,0,0,0-1.73,3.87,1,1,0,0,0,1.35.36,1,1,0,0,0,.36-1.36.8.8,0,0,1,.33-.89c.42-.24,1,.07,1.26.39a3.16,3.16,0,0,1,.3,3.26c-.86,2.07-3.4,4-5.67,3s-3.43-4-4-6.37a15.59,15.59,0,0,1-.24-6.32c27.63-29.78,48.44-25,48.44-25V602.42c-1,.82-14.72,6.09-31.15,16.85l-1.48.23c-7.13,1-14.39.21-21.51-.92-10.2-1.63-19.3-6.42-25.35-14.79,0,0-.23-.69-.52.83a15.92,15.92,0,0,0-.27,2.87c0,6.76,5.25,9.75,10.94,13.33a81.71,81.71,0,0,0,8.1,4.58,59.91,59.91,0,0,0,15,4.93,137.05,137.05,0,0,0-23.27,24.15l-.69.32c-6.24,3-13.49,6.45-16.56,13.11-3,6.45-1.42,13.29.92,19.66a114.41,114.41,0,0,0-1.93,22.2,34.92,34.92,0,0,0-1.69,7.31c-.77,5.95-.23,12-.85,17.95-.54,5.28-2.25,12.12-7.63,14.51a5.24,5.24,0,0,1-5.83-.88,7.91,7.91,0,0,1-2.18-5.53,8,8,0,0,1,.58-3.2c.37-.92,1.12-2.13,2.22-2.23a2.25,2.25,0,0,1,2.12,1.63,4.64,4.64,0,0,1-.84,3.85c-.9,1.39,1.32,2.68,2.22,1.29a7.22,7.22,0,0,0,1.15-5.64,5,5,0,0,0-3.58-3.59c-3.87-.87-6,3.42-6.37,6.59C659.59,747.07,663.16,753.21,669.06,752.59ZM685.15,668a20.08,20.08,0,0,1,6.74-6.38c1.22-.78,2.48-1.48,3.76-2.16a103.87,103.87,0,0,0-11.5,23,27.43,27.43,0,0,1-.85-4.22A16.46,16.46,0,0,1,685.15,668Z" transform="translate(-88.75 -76.68)"/><path class="cls-10" d="M700,621.58s-12.07-12.71-23.9,12.52C676.08,634.1,703,638.28,700,621.58Z" transform="translate(-88.75 -76.68)"/><path class="cls-10" d="M716.08,620.1s16.38-6.26-2.36-26.88C713.72,593.22,699.53,616.42,716.08,620.1Z" transform="translate(-88.75 -76.68)"/><path class="cls-10" d="M681.57,702.2s-12.08-12.71-23.91,12.52C657.66,714.72,684.53,718.9,681.57,702.2Z" transform="translate(-88.75 -76.68)"/><path class="cls-10" d="M715.48,725.29s14.21,9.36,20.52-17.52C736,707.77,709.25,710,715.48,725.29Z" transform="translate(-88.75 -76.68)"/><path class="cls-10" d="M704.63,730.19s-10,2.59-.53,16.81C704.1,747,714,733.76,704.63,730.19Z" transform="translate(-88.75 -76.68)"/><path class="cls-9" d="M688.3,521.56a9.27,9.27,0,0,1,.48-2.28c.41-1.21.61-.65.61-.65,6.19,7,16,11.23,27.16,13,3.57.56,7.17,1.06,10.8,1.4h0c11.22.89,26.57-3.48,34.19-6l.45-.24-.28.19c2.81-.92,4.52-1.57,4.52-1.57v4.29l1.42,13c-18.13,4.67-39.38-.71-39.38-.71l0,0a83.62,83.62,0,0,1-20-5.2c-3-1.21-5.88-2.59-8.69-4C693.5,529.61,687.88,527,688.3,521.56Z" transform="translate(-88.75 -76.68)"/><path class="cls-10" d="M704.47,529.37s12.58.25,5.68-18.53C710.15,510.84,694.44,522.45,704.47,529.37Z" transform="translate(-88.75 -76.68)"/><path class="cls-10" d="M690.27,528.44s1.06-12.54-18.12-6.86C672.15,521.58,682.73,538,690.27,528.44Z" transform="translate(-88.75 -76.68)"/><path class="cls-10" d="M720.22,538.8s-11.9-9.57-19.19,13.59C701,552.39,724.72,552.88,720.22,538.8Z" transform="translate(-88.75 -76.68)"/><path class="cls-10" d="M729,903.58s-13.28.91-4.48,20.63C724.49,924.21,740.1,910.15,729,903.58Z" transform="translate(-88.75 -76.68)"/><path class="cls-9" d="M669.16,911.19c3.26-.34,5.92-2.5,7.81-5.06a22.26,22.26,0,0,0,3.59-9.27c1-5.7.63-11.49.94-17.24a137.84,137.84,0,0,0,7.89,35.19,158.07,158.07,0,0,1,.77-41.09,63.07,63.07,0,0,0,10.4,12.38c6.53,6.09,15,10.71,22.8,15.82a211.59,211.59,0,0,1,23.08,17.48c1.65,1.44,3.28,2.92,4.83,4.44a31,31,0,0,1,1.23,4.33,19.8,19.8,0,0,1-2.85,15.28,15.22,15.22,0,0,1-6,4.92,17,17,0,0,1-8.37,1.81,8.45,8.45,0,0,1-7.39-10.31,8.61,8.61,0,0,1,4.33-5.92c1.66-.81,4.35-.6,5.11,1.4a1.46,1.46,0,1,0,2.82-.78,6.52,6.52,0,0,0-8.54-3.53,11.29,11.29,0,0,0-6.6,8.28,11.59,11.59,0,0,0,1.78,9,11.23,11.23,0,0,0,8,4.73,19.58,19.58,0,0,0,10.49-2.21,18,18,0,0,0,7.17-6.3,22.52,22.52,0,0,0,3.06-16.18,32.16,32.16,0,0,1,5.89,9.68c2.9,8.1.65,16.36-2,24.15,5.33-2.88,8-7.8,9.25-12.72,3.32-12.63-1.05-26.74-11.7-37.83-14.13-14.72-37.41-23.53-52.22-37.8-7.1-6.83-9.57-13.14-10.75-17.93a106.5,106.5,0,0,1,18.14-36.83c2-2.61,4-5,6-7.26a18.58,18.58,0,0,0,1.75,7.84,8.75,8.75,0,0,0,3.3,3.89,5.34,5.34,0,0,0,4.9.32c2.88-1.25,5.39-4.81,4.17-8a3.45,3.45,0,0,0-3.85-2.43,2.76,2.76,0,0,0-1.73,3.87,1,1,0,0,0,1.35.35,1,1,0,0,0,.36-1.35.79.79,0,0,1,.34-.89c.41-.24,1,.06,1.25.38a3.18,3.18,0,0,1,.3,3.27c-.86,2.07-3.4,4-5.67,3s-3.43-4-4-6.37a15.72,15.72,0,0,1-.24-6.31c27.63-29.78,48.44-25,48.44-25V761c-1,.81-14.72,6.09-31.15,16.84-.49.09-1,.17-1.48.24-7.13,1-14.39.2-21.51-.93-10.2-1.62-19.3-6.41-25.35-14.78,0,0-.23-.7-.52.83a15.85,15.85,0,0,0-.27,2.86c0,6.77,5.25,9.76,10.94,13.34a87.21,87.21,0,0,0,8.1,4.58,59.89,59.89,0,0,0,15,4.92,137.4,137.4,0,0,0-23.27,24.15l-.69.33c-6.24,3-13.49,6.45-16.56,13.11-3,6.45-1.42,13.29.92,19.66A114.29,114.29,0,0,0,681,868.36a35.65,35.65,0,0,0-1.69,7.32c-.77,6-.23,12-.85,17.94-.54,5.29-2.25,12.13-7.63,14.52a5.25,5.25,0,0,1-5.82-.88,7.9,7.9,0,0,1-2.19-5.53,8.08,8.08,0,0,1,.58-3.21c.38-.91,1.12-2.12,2.22-2.23a2.26,2.26,0,0,1,2.12,1.64,4.62,4.62,0,0,1-.84,3.84c-.9,1.4,1.33,2.69,2.22,1.3a7.23,7.23,0,0,0,1.15-5.65,5,5,0,0,0-3.58-3.59c-3.87-.87-6,3.42-6.37,6.59C659.7,905.67,663.26,911.81,669.16,911.19Zm16.09-84.6A20.11,20.11,0,0,1,692,820.2c1.22-.77,2.48-1.48,3.76-2.15a103.44,103.44,0,0,0-11.5,23.05,27.67,27.67,0,0,1-.85-4.22A16.46,16.46,0,0,1,685.25,826.59Z" transform="translate(-88.75 -76.68)"/><path class="cls-10" d="M700.09,780.18S688,767.47,676.18,792.69C676.18,792.69,703.05,796.88,700.09,780.18Z" transform="translate(-88.75 -76.68)"/><path class="cls-10" d="M716.19,778.7s16.37-6.26-2.37-26.88C713.82,751.82,699.63,775,716.19,778.7Z" transform="translate(-88.75 -76.68)"/><path class="cls-10" d="M681.67,860.8s-12.08-12.71-23.91,12.51C657.76,873.31,684.63,877.5,681.67,860.8Z" transform="translate(-88.75 -76.68)"/><path class="cls-10" d="M715.58,883.89s14.21,9.36,20.52-17.52C736.1,866.37,709.35,868.6,715.58,883.89Z" transform="translate(-88.75 -76.68)"/><path class="cls-10" d="M704.73,888.78s-10,2.6-.53,16.81C704.2,905.59,714.08,892.35,704.73,888.78Z" transform="translate(-88.75 -76.68)"/><path class="cls-11" d="M756.27,986H690.61v6H638.17s48.63,5.26,52.69,29.51v24.39h65.41Z" transform="translate(-88.75 -76.68)"/><path class="cls-3" d="M553.57,949.69c2.36-17.54,21.08-13.61,21.08-13.61s16.35,1.1,17.7,15.72S648,967.89,648,967.89h26.44v0h81.4v0h57.39V992H592.57s-23.83.54-14.16-20c7-14.86-.95-18.4-5.88-19.22a8.47,8.47,0,0,1,3.18,6.6,8.7,8.7,0,0,1-8.82,8.58c-.35,0-.68,0-1-.06h0S551.21,967.24,553.57,949.69Z" transform="translate(-88.75 -76.68)"/><path class="cls-2" d="M609.24,1056.09h26.52l-6,28.32a4.29,4.29,0,0,1-4.2,3.4H602.28a4.29,4.29,0,0,1-4.2-3.4l-6-28.32Z" transform="translate(-88.75 -76.68)"/><polyline class="cls-6" points="505.7 990.53 503.36 977.98 520.49 977.98 529.89 977.98 547.02 977.98 544.67 990.53"/><path class="cls-12" d="M634.83,1047.65a1.53,1.53,0,0,0,.58-.11,1.67,1.67,0,0,0,1-2.14l-21.11-56.9a1.67,1.67,0,0,0-3.13,1.17l21.11,56.89A1.68,1.68,0,0,0,634.83,1047.65Z" transform="translate(-88.75 -76.68)"/><path class="cls-12" d="M592.6,1047.65a1.66,1.66,0,0,0,1.56-1.09l21.12-56.89a1.67,1.67,0,0,0-3.13-1.17L591,1045.4a1.66,1.66,0,0,0,1,2.14A1.49,1.49,0,0,0,592.6,1047.65Z" transform="translate(-88.75 -76.68)"/><path class="cls-2" d="M588.71,1045.11h50.45a7.38,7.38,0,0,1,7.38,7.38v10.27a1.17,1.17,0,0,1-1.17,1.17H582.5a1.17,1.17,0,0,1-1.17-1.17v-10.27a7.38,7.38,0,0,1,7.38-7.38Z" transform="translate(1139.12 2032.37) rotate(-180)"/><path class="cls-9" d="M598.56,1039.18a10.06,10.06,0,0,0-5.24-4.42,8.79,8.79,0,0,0-4.47,0,17.1,17.1,0,0,0-6.93,4,24,24,0,0,1-6.47,4.49c-.47.19-1,.36-1.45.52,3.25.78,6.41,1.93,9.66,2.71a20.73,20.73,0,0,0,9.67.41,11.5,11.5,0,0,0,3.31-1.44,5.8,5.8,0,0,0,3-3.94,2.44,2.44,0,0,0-1-2.35" transform="translate(-88.75 -76.68)"/><path class="cls-13" d="M582.11,1043.4a13.8,13.8,0,0,0,4.6-1.4l.95-.51a4.06,4.06,0,0,1-.84-.25c-.6-.26-1-.38-1.63-.62a5.57,5.57,0,0,0-1.87-.32c-.44,0-1.43.09-1.89.15a9.85,9.85,0,0,1,2-.44,6.2,6.2,0,0,1,2.94.61,11.6,11.6,0,0,0,1.9.59c.77-.39,1.5-.75,2.37-1.27a11.36,11.36,0,0,1,1.21-.6l-.46-.11a4.43,4.43,0,0,1-.87-.36c-.56-.32-1-.48-1.55-.79a5.79,5.79,0,0,0-1.83-.52c-.43,0-1.43,0-1.89,0a10.92,10.92,0,0,1,2-.23,6.34,6.34,0,0,1,2.87.92,7.85,7.85,0,0,0,2.35.91l.36-.12a11.52,11.52,0,0,1,2-.46,3.75,3.75,0,0,1-.62-.42c-.41-.36-.73-.56-1.15-.91a4.6,4.6,0,0,0-1.44-.74c-.35-.11-1.18-.29-1.56-.37a8.78,8.78,0,0,1,1.69.15,5.39,5.39,0,0,1,2.22,1.24,8.45,8.45,0,0,0,1.46,1,4.13,4.13,0,0,1,2.73.77l.27.24a2.49,2.49,0,0,0-1.7-.42c-.36,0-.72.06-1.08.11a6.93,6.93,0,0,0-1.38,2.65,6.25,6.25,0,0,1-1.44,2.64,10.5,10.5,0,0,1-1.6,1.21c.34-.32,1.06-1,1.34-1.35a5.47,5.47,0,0,0,1-1.64c.2-.61.39-1,.58-1.64a3.81,3.81,0,0,1,.38-.85,3.46,3.46,0,0,1,.72-.93,15.31,15.31,0,0,0-3.52,1.27,10.12,10.12,0,0,0-1.06,1.84,6.35,6.35,0,0,1-1.74,2.45,10.29,10.29,0,0,1-1.73,1c.38-.27,1.17-.88,1.49-1.18a5.41,5.41,0,0,0,1.15-1.51c.27-.59.51-1,.76-1.56a4.24,4.24,0,0,1,.39-.68l-1.39.73c-2.26,1.21-4.64,2.44-7.2,2.46a26.65,26.65,0,0,1-5-.49C578.49,1043.61,581,1043.54,582.11,1043.4Z" transform="translate(-88.75 -76.68)"/><path class="cls-14" d="M630.23,1045.93a10.09,10.09,0,0,1,5.7-3.81,8.81,8.81,0,0,1,4.44.51,16.94,16.94,0,0,1,6.45,4.76,24.19,24.19,0,0,0,5.93,5.18c.45.24.91.45,1.38.67-3.32.41-6.59,1.2-9.9,1.62s-6.79.43-9.65-.66a11.29,11.29,0,0,1-3.13-1.8,5.77,5.77,0,0,1-2.5-4.24,2.44,2.44,0,0,1,1.28-2.23" transform="translate(-88.75 -76.68)"/><path class="cls-13" d="M631.69,1044.73a4.19,4.19,0,0,1,2.2-.23c.41-.14.86-.28,1.12-.34a6.13,6.13,0,0,1,2.84.27,6.47,6.47,0,0,0,2.85.31.89.89,0,0,0,.58-.3l-.07.11a2.24,2.24,0,0,1-2,.57,3.7,3.7,0,0,1-.87-.16c-.59-.18-1-.24-1.6-.41a5.47,5.47,0,0,0-1.81-.11l-.71.12a10.57,10.57,0,0,1,2.71,1,11.89,11.89,0,0,1,1.94,1.2l.47.37a7.28,7.28,0,0,0,2.26.21,5.7,5.7,0,0,1,2.61.38,7.24,7.24,0,0,1,1.32.92c-.33-.18-1.07-.54-1.41-.67a4.69,4.69,0,0,0-1.63-.3c-.59,0-1,0-1.57,0a4.52,4.52,0,0,1-.83-.05l-.1,0c.73.52,1.44,1,2.27,1.61.11.09.23.16.35.24a9.35,9.35,0,0,0,1.85.11,5.64,5.64,0,0,1,2.6.38,7,7,0,0,1,1.33.92c-.34-.18-1.08-.54-1.42-.67a4.93,4.93,0,0,0-1.62-.3c-.59,0-1,0-1.57,0a3.89,3.89,0,0,1-.48,0,17,17,0,0,0,3.18,1.37c1,.33,3.49.88,4.63,1.11a31.25,31.25,0,0,1-5-.57,11.44,11.44,0,0,1-3.32-1.28c.26.38.5.67.78,1.09a5.26,5.26,0,0,0,1.31,1.25c.34.23,1.18.69,1.57.89a10,10,0,0,1-1.77-.69,6,6,0,0,1-2-2c-.23-.33-.47-.67-.73-1-.63-.39-1.24-.81-1.83-1.24h0l-.53-.39.13.2a4.52,4.52,0,0,1,.38.8c.19.59.38,1,.59,1.55a5.14,5.14,0,0,0,1,1.53c.27.31,1,1,1.3,1.25a10.44,10.44,0,0,1-1.55-1.11,6,6,0,0,1-1.43-2.47,6.53,6.53,0,0,0-1.34-2.44l-.46-.33a.52.52,0,0,0-.18,0h.13c-.52-.37-1.06-.72-1.61-1a4.31,4.31,0,0,1,.4,1,4.26,4.26,0,0,1,.16,1c0,.71.11,1.19.16,1.9a6,6,0,0,0,.56,2c.21.43.77,1.37,1,1.8a11.75,11.75,0,0,1-1.35-1.72,7,7,0,0,1-.79-3.2,7.69,7.69,0,0,0-.67-3.09,11.93,11.93,0,0,0-2.94-1.16,2.86,2.86,0,0,0-1.74,0Z" transform="translate(-88.75 -76.68)"/><path class="cls-14" d="M623.37,1043.56a10,10,0,0,1,6,.46,8.41,8.41,0,0,1,3,2.47,13,13,0,0,1,2.36,6,18,18,0,0,0,1.78,6c.21.36.44.72.67,1.08-2.61-1.37-5.36-2.48-8-3.83a20,20,0,0,1-6.69-5.09,9.28,9.28,0,0,1-1.39-2.6,3.91,3.91,0,0,1,.25-3.77,2,2,0,0,1,2-.72" transform="translate(-88.75 -76.68)"/><path class="cls-13" d="M625,1043.54a4.24,4.24,0,0,1,1.7.93c.37.11.76.25,1,.34a5.71,5.71,0,0,1,1.94,1.54,6.07,6.07,0,0,0,1.91,1.57,1,1,0,0,0,.57.1l-.11,0a2.26,2.26,0,0,1-1.69-.6,3.45,3.45,0,0,1-.56-.52c-.34-.39-.61-.64-1-1a5.28,5.28,0,0,0-1.26-1l-.57-.27a9.57,9.57,0,0,1,1.49,1.91,9.83,9.83,0,0,1,.82,1.66c.05.16.11.31.16.45a7.37,7.37,0,0,0,1.54,1.23,5.35,5.35,0,0,1,1.71,1.49,5.92,5.92,0,0,1,.51,1.2c-.16-.27-.51-.85-.7-1.09a4.64,4.64,0,0,0-1-1c-.44-.28-.71-.49-1.15-.76a4.36,4.36,0,0,1-.58-.43l-.06-.07c.28.68.56,1.3.86,2.08,0,.11.09.21.14.32a8.65,8.65,0,0,0,1.29,1,5.21,5.21,0,0,1,1.7,1.49,6.23,6.23,0,0,1,.52,1.2c-.16-.27-.52-.85-.7-1.09a4.71,4.71,0,0,0-1-1c-.43-.28-.7-.49-1.14-.76a2.54,2.54,0,0,1-.34-.23,14.52,14.52,0,0,0,1.63,2.37c.6.7,2.11,2.22,2.83,2.92a30.06,30.06,0,0,1-3.36-2.78,10.06,10.06,0,0,1-1.78-2.38c0,.35,0,.65,0,1a3.83,3.83,0,0,0,.33,1.38c.14.31.52,1,.71,1.3a9.54,9.54,0,0,1-1-1.27,4.38,4.38,0,0,1-.45-2.21c0-.31,0-.63-.05-1-.26-.54-.5-1.09-.72-1.64l0,0,0,0c-.07-.17-.14-.33-.2-.49a1.09,1.09,0,0,1,0,.18,3,3,0,0,1-.11.67c-.15.44-.2.76-.33,1.21a3.49,3.49,0,0,0,0,1.39c0,.32.24,1,.34,1.39a7.61,7.61,0,0,1-.59-1.42,4.09,4.09,0,0,1,.17-2.19,4.36,4.36,0,0,0,.22-2.12l-.17-.42-.12-.11.1.07c-.21-.48-.42-1-.67-1.42a2.9,2.9,0,0,1-.2.82,3.34,3.34,0,0,1-.38.69c-.33.43-.5.77-.81,1.22a3.86,3.86,0,0,0-.57,1.48c-.06.36-.11,1.2-.12,1.59a8.14,8.14,0,0,1-.15-1.7,4.67,4.67,0,0,1,1-2.31,5.06,5.06,0,0,0,1-2.19,10.17,10.17,0,0,0-1.57-2.13,2.64,2.64,0,0,0-1.27-.82Z" transform="translate(-88.75 -76.68)"/><path class="cls-9" d="M624.39,1040.54a11.73,11.73,0,0,1,5.14-6.22,10.22,10.22,0,0,1,5.19-.93c3.43.21,6.25,1.66,8.88,3.19s5.21,3.17,8.44,3.84c.58.12,1.18.21,1.78.3-3.6,1.58-7,3.58-10.62,5.16s-7.53,2.78-11.12,2.52a13.78,13.78,0,0,1-4.14-1c-2-.81-3.69-2.1-4.25-4a2.85,2.85,0,0,1,.7-2.94" transform="translate(-88.75 -76.68)"/><path class="cls-13" d="M626.41,1038.72a4.77,4.77,0,0,1,2.54-1l0,0,.05,0a9.4,9.4,0,0,1,1.19,0,9.5,9.5,0,0,0,2.35-1.32,7,7,0,0,1,2.94-1.42,8.81,8.81,0,0,1,2,0c-.46,0-1.48.18-1.92.29a5.85,5.85,0,0,0-1.87.83c-.59.42-1,.65-1.6,1.09a4.75,4.75,0,0,1-.89.53l-.08,0c.43,0,.86.11,1.27.19a13,13,0,0,1,2.47.72l.22.09a11.84,11.84,0,0,0,2.15-.93,6.93,6.93,0,0,1,3.09-1,9.18,9.18,0,0,1,2,.28c-.47,0-1.49,0-1.94,0a5.63,5.63,0,0,0-2,.58c-.64.34-1.1.52-1.73.88a5.19,5.19,0,0,1-1,.4h0c1.23.47,2.28.78,3.63,1.3a11.6,11.6,0,0,0,1.64.49,7.71,7.71,0,0,0,1.63-.7,5,5,0,0,1,2.26-.74,6.34,6.34,0,0,1,1.45.2c-.35,0-1.09,0-1.42,0a4.33,4.33,0,0,0-1.44.42c-.47.25-.8.39-1.27.65a3.2,3.2,0,0,1-.6.26,19.78,19.78,0,0,0,3,.32c1.21,0,4-.14,5.32-.25a33.08,33.08,0,0,1-5.54,1,17.51,17.51,0,0,1-7.31-1.4,5.78,5.78,0,0,1,.54.59c.49.65.89,1,1.39,1.66a7.06,7.06,0,0,0,1.85,1.5c.47.26,1.62.76,2.15,1a14.26,14.26,0,0,1-2.39-.71,8,8,0,0,1-2.84-2.46,11.37,11.37,0,0,0-2-2.06c-.52-.19-1.06-.39-1.6-.57h0c-.59-.2-1.19-.39-1.8-.55a4.83,4.83,0,0,1,.79,1,5.71,5.71,0,0,1,.5,1.06c.25.76.5,1.26.77,2a6.91,6.91,0,0,0,1.26,2c.36.4,1.28,1.25,1.71,1.64a13.21,13.21,0,0,1-2-1.46,7.84,7.84,0,0,1-1.88-3.25,8.84,8.84,0,0,0-1.75-3.2,14.15,14.15,0,0,0-2.83-.36,3.83,3.83,0,0,1,1.4,1.45,5.67,5.67,0,0,1,.49,1.06c.25.76.51,1.26.78,2a6.9,6.9,0,0,0,1.25,2c.37.4,1.28,1.25,1.72,1.64a13.8,13.8,0,0,1-2-1.46,7.82,7.82,0,0,1-1.87-3.25,8.61,8.61,0,0,0-1.83-3.28l-.26-.2H628a3,3,0,0,0-1.85.57Z" transform="translate(-88.75 -76.68)"/><path class="cls-9" d="M599.62,1044a7.46,7.46,0,0,0-4.89-1.51,6.57,6.57,0,0,0-3.08,1.31,12.74,12.74,0,0,0-3.6,4.78,17.83,17.83,0,0,1-3.14,5c-.27.27-.55.52-.84.78,2.46-.42,5-.55,7.43-1a15.48,15.48,0,0,0,6.77-2.53,8.8,8.8,0,0,0,1.86-2,4.33,4.33,0,0,0,.88-3.57,1.79,1.79,0,0,0-1.39-1.32" transform="translate(-88.75 -76.68)"/><path class="cls-13" d="M589.53,1051.74a10.38,10.38,0,0,0,2.76-2.3c.17-.23.34-.44.5-.63a3.59,3.59,0,0,1-.65.07c-.48,0-.82,0-1.3,0a4.18,4.18,0,0,0-1.38.32c-.3.13-1,.49-1.26.66a7.88,7.88,0,0,1,1.21-.87,4.61,4.61,0,0,1,2.21-.44,8,8,0,0,0,1.47-.15c.42-.49.82-1,1.27-1.56a6.59,6.59,0,0,1,.66-.77,2.25,2.25,0,0,1-.36.06,3.28,3.28,0,0,1-.7,0c-.48,0-.81,0-1.29-.08a4.07,4.07,0,0,0-1.41.17c-.31.1-1,.38-1.32.52a7.54,7.54,0,0,1,1.3-.74,4.66,4.66,0,0,1,2.23-.2,6.29,6.29,0,0,0,1.89-.06l.21-.19a8.44,8.44,0,0,1,1.28-.91,3.15,3.15,0,0,1-.55-.11c-.39-.13-.67-.18-1.06-.29a3.42,3.42,0,0,0-1.2-.1c-.28,0-.9.15-1.19.21a6.56,6.56,0,0,1,1.21-.39,3.84,3.84,0,0,1,1.89.21,7.3,7.3,0,0,0,1.3.26,3,3,0,0,1,2.1-.26l.26.09a1.78,1.78,0,0,0-1.29.2,8.06,8.06,0,0,0-.71.39,5.07,5.07,0,0,0-.18,2.23,4.66,4.66,0,0,1-.22,2.23,8.43,8.43,0,0,1-.75,1.3c.14-.32.43-1,.53-1.32a4.34,4.34,0,0,0,.19-1.41c0-.48,0-.81-.08-1.29a2.73,2.73,0,0,1,0-.7,2.87,2.87,0,0,1,.22-.86,11.92,11.92,0,0,0-2.05,1.91,8.12,8.12,0,0,0-.19,1.57,4.72,4.72,0,0,1-.48,2.2,8.67,8.67,0,0,1-.89,1.2c.18-.3.54-1,.67-1.25a3.88,3.88,0,0,0,.35-1.38c0-.48.07-.81.07-1.29a4,4,0,0,1,.07-.58l-.74.91a12.07,12.07,0,0,1-4.23,3.79,20.13,20.13,0,0,1-3.61,1.13C587.1,1052.94,588.82,1052.15,589.53,1051.74Z" transform="translate(-88.75 -76.68)"/><path class="cls-14" d="M606.72,1041.63c-2-1.1-6.14-1.67-8.3-.91a7.39,7.39,0,0,0-3.69,3c-1.7,2.57-2,5.61-2.1,8.57s-.1,6-1.3,8.74c-.21.5-.47,1-.72,1.47,3.38-1.38,7-2.34,10.41-3.72s6.59-3.27,8.35-6a10.05,10.05,0,0,0,1.43-3.62,7.26,7.26,0,0,0-1.11-5.87,3.86,3.86,0,0,0-3-1.65" transform="translate(-88.75 -76.68)"/><path class="cls-13" d="M598.37,1053.88a3.32,3.32,0,0,1-1,.45c-.49.12-.82.25-1.31.38a4.15,4.15,0,0,0-1.33.67c-.27.21-.85.73-1.12,1a8.8,8.8,0,0,1,1-1.19,5.15,5.15,0,0,1,2.14-1,6.08,6.08,0,0,0,1.95-.8,12.68,12.68,0,0,0,1-2.08c.08-.25.16-.48.24-.7l-.27.1a3.68,3.68,0,0,1-.86.19c-.6.06-1,.17-1.6.24a5.17,5.17,0,0,0-1.68.59c-.36.2-1.13.73-1.48,1a9.64,9.64,0,0,1,1.39-1.25,6,6,0,0,1,2.69-.85,8.77,8.77,0,0,0,2-.43c.35-.93.69-1.75,1-2.83a6.12,6.12,0,0,1,.3-.8,5.08,5.08,0,0,1-.83.36,4.6,4.6,0,0,1-.91.19c-.65.05-1.08.16-1.72.23a5.36,5.36,0,0,0-1.8.61,18.79,18.79,0,0,0-1.6,1,10.58,10.58,0,0,1,1.51-1.32,6.33,6.33,0,0,1,2.88-.86,7.52,7.52,0,0,0,2.66-.69c.14-.29.28-.58.43-.83a14,14,0,0,1,.92-1.44,5.11,5.11,0,0,1-.64.18,4.26,4.26,0,0,1-.94.07c-.64,0-1.09,0-1.74,0a5.43,5.43,0,0,0-1.86.38c-.4.16-1.3.61-1.71.83a11.5,11.5,0,0,1,1.66-1.12,6.22,6.22,0,0,1,3-.5,7.7,7.7,0,0,0,2.63-.32,4.94,4.94,0,0,1,2.63-1.75l.34,0a2.78,2.78,0,0,0-1.45,1,10,10,0,0,0-1,1.21l0,.14a6.61,6.61,0,0,0,1.52,2.6,6.44,6.44,0,0,1,1.48,2.61,10.39,10.39,0,0,1,.17,2c-.08-.46-.3-1.44-.43-1.85a5.56,5.56,0,0,0-.88-1.68c-.41-.5-.65-.88-1.08-1.36a4.12,4.12,0,0,1-.53-.78,3.14,3.14,0,0,1-.44-1.44,20,20,0,0,0-1.77,3.7,7.31,7.31,0,0,0,1.16,2.58,6.33,6.33,0,0,1,1.14,2.78,10.27,10.27,0,0,1-.08,2c0-.46-.12-1.46-.2-1.89a5.58,5.58,0,0,0-.66-1.78c-.35-.54-.54-.95-.9-1.48a4.44,4.44,0,0,1-.43-.84,4.53,4.53,0,0,1-.23-.82c-.1.29-.21.57-.31.86a33.51,33.51,0,0,1-1.28,3.21,9.41,9.41,0,0,0,.24,1.15,5.12,5.12,0,0,1,.18,2.39,8,8,0,0,1-.55,1.51c.09-.36.27-1.15.31-1.49a4.42,4.42,0,0,0-.06-1.52c-.13-.5-.18-.85-.32-1.35a1.05,1.05,0,0,1-.05-.19,11.49,11.49,0,0,1-2,2.8,30.6,30.6,0,0,1-3.82,3.28c.82-.83,2.54-2.67,3.21-3.52A17,17,0,0,0,598.37,1053.88Z" transform="translate(-88.75 -76.68)"/><path class="cls-9" d="M613.1,1040.65c2.77-.55,7.83.31,10.09,2a9.14,9.14,0,0,1,3.23,4.85c1.05,3.65.27,7.34-.69,10.85s-2.09,7.06-1.71,10.75c.07.67.19,1.33.3,2-3.46-2.88-7.38-5.35-10.85-8.22s-6.54-6.28-7.6-10.12a12.52,12.52,0,0,1-.34-4.78,8.92,8.92,0,0,1,3.47-6.48,4.79,4.79,0,0,1,4.1-.85" transform="translate(-88.75 -76.68)"/><path class="cls-13" d="M610.26,1049.55a8.8,8.8,0,0,1,2.44-3.41,9.38,9.38,0,0,0,2.5-3.38,1.94,1.94,0,0,0,.11-.43,3.17,3.17,0,0,0-1.24-1.43l.38.19a5.46,5.46,0,0,1,2.06,2.24,7.67,7.67,0,0,0,3,1,6.88,6.88,0,0,1,3,1.11,8.93,8.93,0,0,1,1.38,1.44c-.36-.3-1.17-.93-1.55-1.17a5.76,5.76,0,0,0-1.88-.75c-.72-.13-1.18-.27-1.9-.38a5.35,5.35,0,0,1-1-.27,4.37,4.37,0,0,1-.78-.39,14.19,14.19,0,0,1,.91,2.91c.08.4.15.85.21,1.3l.07.06a7.56,7.56,0,0,0,3.08,1.06,6.93,6.93,0,0,1,3,1.11,9.3,9.3,0,0,1,1.38,1.43c-.37-.29-1.17-.92-1.55-1.16a5.73,5.73,0,0,0-1.89-.76c-.71-.12-1.18-.27-1.89-.37a4.52,4.52,0,0,1-1-.28,3.27,3.27,0,0,1-1.21-.73c0,.39.06.77.06,1.12,0,1.2.06,2.16.13,3.19a11.05,11.05,0,0,0,2,1.14,6.9,6.9,0,0,1,2.64,1.87,9.32,9.32,0,0,1,1,1.75c-.27-.38-.88-1.2-1.18-1.53a5.87,5.87,0,0,0-1.62-1.23c-.66-.31-1.07-.57-1.73-.87a4.53,4.53,0,0,1-.88-.52l-.11-.08c0,.45.05.92.06,1.44a18.89,18.89,0,0,0,1.24,5.64c.48,1.25,1.82,4,2.47,5.32a37.88,37.88,0,0,1-3.27-5.26,13.21,13.21,0,0,1-.92-2.42h0c-.23.73-.31,1.24-.52,2a6.43,6.43,0,0,0-.16,2.22c0,.51.28,1.66.4,2.19a12.41,12.41,0,0,1-.74-2.23,7.38,7.38,0,0,1,.36-3.5,16.92,16.92,0,0,0,.41-1.74,20.39,20.39,0,0,1-.35-2.47h0c0-.48-.08-1-.11-1.43-.06.17-.12.34-.19.5a5.55,5.55,0,0,1-.56.94c-.46.6-.72,1.06-1.16,1.67a6.51,6.51,0,0,0-.9,2c-.12.49-.3,1.65-.36,2.19a12.22,12.22,0,0,1,0-2.34,7.35,7.35,0,0,1,1.52-3.17,8.19,8.19,0,0,0,1.55-3c0-.12,0-.24,0-.36s0-.35,0-.53l0-.07,0,0c0-1.07-.09-2.14-.21-3.21a6.14,6.14,0,0,1-.76,1.46,6.46,6.46,0,0,1-.93,1.09c-.73.67-1.16,1.2-1.87,1.89a8.3,8.3,0,0,0-1.62,2.43c-.27.61-.76,2.06-1,2.74a15.58,15.58,0,0,1,.6-3,9.76,9.76,0,0,1,2.68-3.74,10.37,10.37,0,0,0,2.75-3.71v0a15.42,15.42,0,0,0-1.18-4.23,4.09,4.09,0,0,1-.84,2.22,6.64,6.64,0,0,1-.85,1c-.66.61-1.06,1.09-1.7,1.72a7.84,7.84,0,0,0-1.48,2.21c-.24.55-.69,1.88-.88,2.5A14.31,14.31,0,0,1,610.26,1049.55Z" transform="translate(-88.75 -76.68)"/><path class="cls-14" d="M606.46,1039.77a11.31,11.31,0,0,0,3.25-6.65,6.55,6.55,0,0,0-1.37-4c-1.63-2.19-4.09-3.35-6.52-4.33s-5-1.88-6.9-3.7c-.35-.33-.68-.69-1-1,.14,3.24-.16,6.56,0,9.8s.74,6.48,2.48,8.76a9.06,9.06,0,0,0,2.59,2.28,6.47,6.47,0,0,0,5.23.84,3.46,3.46,0,0,0,2.27-2" transform="translate(-88.75 -76.68)"/><path class="cls-13" d="M598.75,1029.12l-.06-.34a3.53,3.53,0,0,1,0-.65c0-.45,0-.76.08-1.21a3.77,3.77,0,0,0-.16-1.31,12.59,12.59,0,0,0-.49-1.23,6.88,6.88,0,0,1,.69,1.21,4.41,4.41,0,0,1,.19,2.08,5.58,5.58,0,0,0,.08,1.87,10.45,10.45,0,0,0,1.45,1.45l.5.41v-.26a3.39,3.39,0,0,1,.1-.77c.13-.52.17-.89.28-1.41a4.68,4.68,0,0,0,0-1.58c-.06-.35-.27-1.15-.38-1.53a9.72,9.72,0,0,1,.62,1.54,5.26,5.26,0,0,1-.1,2.49,7.76,7.76,0,0,0-.23,1.78c.67.57,1.25,1.1,2,1.7.19.15.39.32.59.5a4.31,4.31,0,0,1-.06-.8,3.87,3.87,0,0,1,.12-.82c.15-.55.19-1,.32-1.5a4.86,4.86,0,0,0,0-1.69c-.06-.38-.27-1.24-.38-1.64a9.5,9.5,0,0,1,.64,1.66,5.6,5.6,0,0,1-.14,2.66,6.42,6.42,0,0,0-.23,2.42c.2.21.4.41.57.61a11.11,11.11,0,0,1,.91,1.2,5.63,5.63,0,0,1,0-.59,3.65,3.65,0,0,1,.22-.8c.22-.53.31-.92.51-1.46a4.87,4.87,0,0,0,.24-1.66c0-.39-.12-1.27-.18-1.68a9.44,9.44,0,0,1,.44,1.72,5.61,5.61,0,0,1-.47,2.63,6.59,6.59,0,0,0-.53,2.29,4.33,4.33,0,0,1,.67,2.71l-.06.3a2.49,2.49,0,0,0-.37-1.5,8.63,8.63,0,0,0-.72-1.16l-.12,0a6.18,6.18,0,0,0-2.63.49,5.66,5.66,0,0,1-2.62.45,9.29,9.29,0,0,1-1.72-.46c.41.07,1.29.18,1.67.2a4.93,4.93,0,0,0,1.67-.23c.54-.19.93-.28,1.46-.49a3.71,3.71,0,0,1,.81-.21,2.84,2.84,0,0,1,1.33.07,17.35,17.35,0,0,0-2.55-2.59,6.43,6.43,0,0,0-2.5.19,5.59,5.59,0,0,1-2.66.11,9,9,0,0,1-1.65-.66c.4.11,1.26.34,1.64.4a4.76,4.76,0,0,0,1.68,0c.56-.12,1-.16,1.51-.3a3.85,3.85,0,0,1,.82-.11,3.9,3.9,0,0,1,.76.06l-.62-.52a29.15,29.15,0,0,1-2.29-2c-.34-.07-.69-.11-1-.15a4.54,4.54,0,0,1-2.06-.57,6.68,6.68,0,0,1-1.08-.91c.27.19.87.57,1.14.71a3.85,3.85,0,0,0,1.28.4c.46,0,.77.11,1.23.14l.17,0a10.34,10.34,0,0,1-1.74-2.48,27.32,27.32,0,0,1-1.59-4.17c.45.94,1.47,2.92,2,3.74A15.23,15.23,0,0,0,598.75,1029.12Z" transform="translate(-88.75 -76.68)"/><path class="cls-9" d="M611.63,1040.92c-1.53-1.89-2.91-6.12-2.52-8.53a7.85,7.85,0,0,1,2.43-4.42c2.38-2.28,5.52-3.15,8.6-3.83s6.25-1.23,8.92-3c.49-.32,1-.68,1.41-1-.81,3.8-1.13,7.8-1.94,11.61s-2.19,7.54-4.71,9.89a10.87,10.87,0,0,1-3.53,2.18,7.7,7.7,0,0,1-6.37-.06,4.14,4.14,0,0,1-2.29-2.81" transform="translate(-88.75 -76.68)"/><path class="cls-13" d="M622.91,1029.86c.05-.13.1-.27.14-.4a4,4,0,0,0,.14-.77c0-.54.1-.91.14-1.45a4.61,4.61,0,0,1,.46-1.52c.16-.32.61-1,.82-1.36a8.85,8.85,0,0,0-1.06,1.3,5.33,5.33,0,0,0-.64,2.43,6.46,6.46,0,0,1-.48,2.19,12.07,12.07,0,0,1-2,1.43l-.68.39a2.87,2.87,0,0,0,0-.31,3.61,3.61,0,0,0,0-.93c-.05-.64,0-1.09-.05-1.73a5.32,5.32,0,0,1,.3-1.87c.14-.41.55-1.32.76-1.74a10.66,10.66,0,0,0-1.05,1.7,6.22,6.22,0,0,0-.38,3,9.73,9.73,0,0,1-.08,2.16c-.92.54-1.71,1.05-2.78,1.6-.25.13-.52.3-.79.47a5.06,5.06,0,0,0,.23-.93,4.78,4.78,0,0,0,0-1c-.07-.68,0-1.16-.09-1.85a6.06,6.06,0,0,1,.3-2c.15-.44.58-1.42.79-1.87a11.39,11.39,0,0,0-1.1,1.83,6.86,6.86,0,0,0-.37,3.19,7.72,7.72,0,0,1-.22,2.92c-.28.2-.55.4-.79.6a14,14,0,0,0-1.33,1.24,4.25,4.25,0,0,0,.06-.71,5.44,5.44,0,0,0-.09-1c-.15-.67-.19-1.15-.31-1.83a5.85,5.85,0,0,1,0-2c.09-.46.4-1.48.55-2a11.32,11.32,0,0,0-.86,2,6.67,6.67,0,0,0,0,3.2,8.46,8.46,0,0,1,.17,2.83,5.18,5.18,0,0,0-1.34,3.08v.36a2.85,2.85,0,0,1,.73-1.69,10.75,10.75,0,0,1,1.09-1.24h.15a7.27,7.27,0,0,1,3,1.1,6.73,6.73,0,0,0,3,1.06,10.82,10.82,0,0,0,2.13-.19c-.5,0-1.56,0-2-.11a5.89,5.89,0,0,1-1.94-.6c-.6-.34-1-.52-1.63-.88a4.68,4.68,0,0,0-.91-.41,3.34,3.34,0,0,0-1.59-.18,20.71,20.71,0,0,1,3.54-2.56,7.76,7.76,0,0,1,2.93.73,6.88,6.88,0,0,0,3.13.67,11.47,11.47,0,0,0,2.09-.46c-.5.06-1.56.15-2,.15a5.89,5.89,0,0,1-2-.36c-.63-.26-1.09-.39-1.72-.67a5.31,5.31,0,0,0-1-.29,5.4,5.4,0,0,0-.91-.09l.85-.48c1-.61,2.12-1.23,3.12-2,.42,0,.84,0,1.25,0a5.35,5.35,0,0,0,2.55-.26,8.31,8.31,0,0,0,1.47-.86,15.73,15.73,0,0,1-1.5.61,4.59,4.59,0,0,1-1.6.22c-.55,0-.93,0-1.48-.08l-.21,0a12.09,12.09,0,0,0,2.57-2.58,33.09,33.09,0,0,0,2.72-4.62c-.72,1-2.32,3.16-3.09,4A16.79,16.79,0,0,1,622.91,1029.86Z" transform="translate(-88.75 -76.68)"/><path class="cls-9" d="M610.42,1037a10.06,10.06,0,0,0-5.24-4.42,8.79,8.79,0,0,0-4.47,0,17.14,17.14,0,0,0-6.94,4,23.81,23.81,0,0,1-6.47,4.49c-.47.19-.95.36-1.44.52,3.25.78,6.41,1.93,9.66,2.71a20.72,20.72,0,0,0,9.67.41,11.32,11.32,0,0,0,3.3-1.44,5.78,5.78,0,0,0,3-3.94,2.44,2.44,0,0,0-1-2.35" transform="translate(-88.75 -76.68)"/><path class="cls-13" d="M594,1041.2a13.8,13.8,0,0,0,4.6-1.4c.33-.19.65-.35.95-.51a4.15,4.15,0,0,1-.85-.25c-.59-.26-1-.38-1.62-.62a5.57,5.57,0,0,0-1.87-.32c-.44,0-1.43.09-1.9.15a10.11,10.11,0,0,1,2-.44,6.22,6.22,0,0,1,2.94.61,11.8,11.8,0,0,0,1.89.59c.78-.39,1.51-.75,2.38-1.27a10.49,10.49,0,0,1,1.21-.6l-.47-.11a4.61,4.61,0,0,1-.86-.36c-.56-.32-1-.48-1.55-.79a5.79,5.79,0,0,0-1.83-.52c-.43,0-1.43,0-1.9,0a11.14,11.14,0,0,1,2-.23,6.34,6.34,0,0,1,2.86.92,8,8,0,0,0,2.36.91l.36-.12a11.52,11.52,0,0,1,2-.46,3.38,3.38,0,0,1-.62-.42c-.41-.36-.73-.56-1.16-.91a4.45,4.45,0,0,0-1.43-.74c-.35-.11-1.18-.29-1.57-.37a8.88,8.88,0,0,1,1.7.15,5.39,5.39,0,0,1,2.22,1.24,8.45,8.45,0,0,0,1.46,1,4.13,4.13,0,0,1,2.73.77l.27.24a2.5,2.5,0,0,0-1.7-.42c-.36,0-.72.06-1.08.11a6.93,6.93,0,0,0-1.38,2.65,6.25,6.25,0,0,1-1.44,2.64,10.5,10.5,0,0,1-1.6,1.21c.34-.32,1.06-1,1.34-1.35a5.47,5.47,0,0,0,1-1.64c.2-.61.39-1,.58-1.64a4.29,4.29,0,0,1,.37-.85,3.71,3.71,0,0,1,.73-.93,15.31,15.31,0,0,0-3.52,1.27,9.61,9.61,0,0,0-1.07,1.84,6.32,6.32,0,0,1-1.73,2.45,10.7,10.7,0,0,1-1.73,1c.38-.27,1.17-.88,1.49-1.18a5.81,5.81,0,0,0,1.15-1.51c.27-.59.51-1,.76-1.56a5.09,5.09,0,0,1,.38-.68l-1.39.73c-2.25,1.21-4.63,2.44-7.19,2.46a26.57,26.57,0,0,1-5-.49C590.35,1041.41,592.88,1041.34,594,1041.2Z" transform="translate(-88.75 -76.68)"/><path class="cls-14" d="M612.91,1038.49a7.69,7.69,0,0,1,4.93-1.79,6.69,6.69,0,0,1,3.21,1.2,13,13,0,0,1,3.92,4.71,18.26,18.26,0,0,0,3.46,4.94c.29.26.59.5.9.75-2.54-.3-5.11-.31-7.65-.61a15.9,15.9,0,0,1-7.06-2.26,9.06,9.06,0,0,1-2-1.91,4.41,4.41,0,0,1-1.08-3.61,1.85,1.85,0,0,1,1.36-1.42" transform="translate(-88.75 -76.68)"/><path class="cls-13" d="M623.61,1045.88a10.7,10.7,0,0,1-2.93-2.23l-.55-.61a3.77,3.77,0,0,0,.67,0c.5,0,.84,0,1.33,0a4.28,4.28,0,0,1,1.43.27,14,14,0,0,1,1.32.61,8.3,8.3,0,0,0-1.28-.84,4.88,4.88,0,0,0-2.28-.34,8.6,8.6,0,0,1-1.52-.07c-.45-.49-.88-.94-1.37-1.54a7.05,7.05,0,0,0-.71-.75l.37,0a3.38,3.38,0,0,0,.71,0c.49-.08.83-.09,1.32-.16a4.44,4.44,0,0,1,1.45.11c.33.09,1,.34,1.38.47a8.37,8.37,0,0,0-1.37-.69,4.79,4.79,0,0,0-2.29-.1,6,6,0,0,1-1.94,0l-.22-.18a8.2,8.2,0,0,0-1.35-.87,3.16,3.16,0,0,0,.55-.14c.39-.15.68-.21,1.07-.35a3.45,3.45,0,0,1,1.23-.15c.28,0,.92.1,1.22.15a6.8,6.8,0,0,0-1.25-.34,4.15,4.15,0,0,0-1.93.3,6.17,6.17,0,0,1-1.31.34,3.14,3.14,0,0,0-2.17-.17l-.26.1a2,2,0,0,1,1.34.15,7.29,7.29,0,0,1,.74.37,5.06,5.06,0,0,1,.29,2.26,4.86,4.86,0,0,0,.34,2.28,7.65,7.65,0,0,0,.83,1.29c-.16-.32-.49-1-.61-1.32a4.34,4.34,0,0,1-.26-1.43c0-.5,0-.84,0-1.34a3.4,3.4,0,0,0,0-.71,2.87,2.87,0,0,0-.27-.86,12,12,0,0,1,2.19,1.84,7.86,7.86,0,0,1,.28,1.61,4.83,4.83,0,0,0,.59,2.22,8.52,8.52,0,0,0,1,1.18c-.2-.3-.61-.94-.76-1.24a4.38,4.38,0,0,1-.42-1.39c0-.5-.11-.83-.14-1.33a4.09,4.09,0,0,0-.09-.58c.27.29.54.59.8.89a12.12,12.12,0,0,0,4.52,3.67,20.29,20.29,0,0,0,3.75,1C626.15,1047,624.35,1046.26,623.61,1045.88Z" transform="translate(-88.75 -76.68)"/><path class="cls-12" d="M613.94,989.84a1.66,1.66,0,0,0,1.56-1.1,44.69,44.69,0,0,0,3.07-12.43c.35-5-.8-9.67-3.15-12.84a1.67,1.67,0,0,0-2.69,2c1.89,2.55,2.8,6.42,2.51,10.63a42,42,0,0,1-2.87,11.51,1.69,1.69,0,0,0,1.57,2.25Z" transform="translate(-88.75 -76.68)"/><path class="cls-4" d="M687.73,1053.92h68.54v-22H672.33a1.15,1.15,0,0,0-.9,1.88Z" transform="translate(-88.75 -76.68)"/><path class="cls-4" d="M683.68,1053.42h67.95a4.65,4.65,0,0,1,4.65,4.65v0a4.65,4.65,0,0,1-4.65,4.65H683.68a0,0,0,0,1,0,0v-9.29a0,0,0,0,1,0,0Z" transform="translate(1351.21 2039.45) rotate(180)"/><path class="cls-10" d="M729,1211.62s-13.28.9-4.48,20.63C724.49,1232.25,740.1,1218.19,729,1211.62Z" transform="translate(-88.75 -76.68)"/><path class="cls-9" d="M669.16,1219.23c3.26-.35,5.92-2.51,7.81-5.07a22.22,22.22,0,0,0,3.59-9.26c1-5.7.63-11.49.94-17.24a137.68,137.68,0,0,0,7.89,35.18,158,158,0,0,1,.77-41.08,63.36,63.36,0,0,0,10.4,12.38c6.53,6.09,15,10.7,22.8,15.82a210.26,210.26,0,0,1,23.08,17.47c1.65,1.45,3.28,2.93,4.83,4.45a30.83,30.83,0,0,1,1.23,4.32,19.79,19.79,0,0,1-2.85,15.28,15.16,15.16,0,0,1-6,4.93,17.14,17.14,0,0,1-8.37,1.81,8.46,8.46,0,0,1-7.39-10.31,8.59,8.59,0,0,1,4.33-5.92c1.66-.82,4.35-.6,5.11,1.4a1.49,1.49,0,0,0,1.8,1,1.47,1.47,0,0,0,1-1.8,6.52,6.52,0,0,0-8.54-3.54,11.3,11.3,0,0,0-6.6,8.29,11.56,11.56,0,0,0,1.78,9,11.27,11.27,0,0,0,8,4.74,19.58,19.58,0,0,0,10.49-2.21,18.11,18.11,0,0,0,7.17-6.3,22.55,22.55,0,0,0,3.06-16.19,32.2,32.2,0,0,1,5.89,9.69c2.9,8.1.65,16.36-2,24.14,5.33-2.88,8-7.79,9.25-12.71,3.32-12.63-1.05-26.74-11.7-37.84-14.13-14.71-37.41-23.52-52.22-37.79-7.1-6.84-9.57-13.15-10.75-17.94,3.54-12.51,9.19-25.38,18.14-36.82,2-2.61,4-5,6-7.26a18.54,18.54,0,0,0,1.75,7.83,8.7,8.7,0,0,0,3.3,3.89,5.31,5.31,0,0,0,4.9.32c2.88-1.25,5.39-4.8,4.17-8a3.45,3.45,0,0,0-3.85-2.42,2.75,2.75,0,0,0-1.73,3.86,1,1,0,0,0,1.35.36,1,1,0,0,0,.36-1.35.8.8,0,0,1,.34-.9c.41-.24,1,.07,1.25.39a3.16,3.16,0,0,1,.3,3.26c-.86,2.07-3.4,4-5.67,3s-3.43-4-4-6.37a15.77,15.77,0,0,1-.24-6.32c27.63-29.78,48.44-25,48.44-25v-23.38c-1,.81-14.72,6.09-31.15,16.84l-1.48.23c-7.13,1-14.39.21-21.51-.92-10.2-1.63-19.3-6.41-25.35-14.79,0,0-.23-.69-.52.83a15.92,15.92,0,0,0-.27,2.87c0,6.76,5.25,9.75,10.94,13.33a82.86,82.86,0,0,0,8.1,4.58,59.51,59.51,0,0,0,15,4.93,137.05,137.05,0,0,0-23.27,24.15l-.69.33c-6.24,3-13.49,6.44-16.56,13.11-3,6.44-1.42,13.28.92,19.66A114.29,114.29,0,0,0,681,1176.4a35.56,35.56,0,0,0-1.69,7.31c-.77,6-.23,12-.85,18-.54,5.28-2.25,12.12-7.63,14.51a5.23,5.23,0,0,1-5.82-.88,7.86,7.86,0,0,1-2.19-5.52,8.08,8.08,0,0,1,.58-3.21c.38-.92,1.12-2.13,2.22-2.23a2.26,2.26,0,0,1,2.12,1.64,4.63,4.63,0,0,1-.84,3.84c-.9,1.39,1.33,2.68,2.22,1.3a7.24,7.24,0,0,0,1.15-5.65,5,5,0,0,0-3.58-3.59c-3.87-.87-6,3.42-6.37,6.59C659.7,1213.7,663.26,1219.84,669.16,1219.23Zm16.09-84.61a20.18,20.18,0,0,1,6.74-6.38c1.22-.77,2.48-1.48,3.76-2.16a103.73,103.73,0,0,0-11.5,23.06,27.8,27.8,0,0,1-.85-4.23A16.47,16.47,0,0,1,685.25,1134.62Z" transform="translate(-88.75 -76.68)"/><path class="cls-10" d="M700.09,1088.21s-12.08-12.7-23.91,12.52C676.18,1100.73,703.05,1104.92,700.09,1088.21Z" transform="translate(-88.75 -76.68)"/><path class="cls-10" d="M716.19,1086.73s16.37-6.26-2.37-26.88C713.82,1059.85,699.63,1083.05,716.19,1086.73Z" transform="translate(-88.75 -76.68)"/><path class="cls-10" d="M681.67,1168.83s-12.08-12.7-23.91,12.52C657.76,1181.35,684.63,1185.54,681.67,1168.83Z" transform="translate(-88.75 -76.68)"/><path class="cls-10" d="M715.58,1191.93s14.21,9.35,20.52-17.52C736.1,1174.41,709.35,1176.63,715.58,1191.93Z" transform="translate(-88.75 -76.68)"/><path class="cls-10" d="M704.73,1196.82s-10,2.59-.53,16.81C704.2,1213.63,714.08,1200.39,704.73,1196.82Z" transform="translate(-88.75 -76.68)"/><path class="cls-2" d="M167.08,213.38H234V155.07c1.92-16.29,9.24-22.66,9.24-22.66H234V123.5H167.08Z" transform="translate(-88.75 -76.68)"/><path class="cls-3" d="M167.08,133h80.18s23.18.55,13.78-20c-6.8-14.87.93-18.41,5.72-19.23a8.59,8.59,0,0,0,5.49,15.19c.33,0,.66,0,1-.06h0s14.27-.65,12-18.2-20.5-13.62-20.5-13.62-15.91,1.1-17.22,15.72-54.12,16.1-54.12,16.1H167.08Z" transform="translate(-88.75 -76.68)"/><rect class="cls-2" x="78.33" y="152.67" width="66.98" height="239.48"/><path class="cls-4" d="M235.62,229.85H167.08v-22H251a1.15,1.15,0,0,1,.89,1.87Z" transform="translate(-88.75 -76.68)"/><path class="cls-4" d="M78.33,152.67h67.95a4.65,4.65,0,0,1,4.65,4.65v0a4.65,4.65,0,0,1-4.65,4.65H78.33a0,0,0,0,1,0,0v-9.29a0,0,0,0,1,0,0Z"/><g class="cls-15"><path class="cls-6" d="M88.75,229.84H251.69V217.49a12.32,12.32,0,0,0-10.18,5.37,12.35,12.35,0,0,0-20.37,0,12.36,12.36,0,0,0-20.37,0,12.36,12.36,0,0,0-20.37,0,12.34,12.34,0,0,0-20.37,0c-.19-.28-.4-.53-.61-.79,0,0,0-.06-.07-.08-.22-.27-.45-.52-.69-.77l-.16-.16c-.25-.25-.51-.48-.77-.7l-.11-.09a12.19,12.19,0,0,0-4-2.17l-.17-.06c-.34-.1-.69-.19-1-.26l-.21,0a12.08,12.08,0,0,0-2.35-.25,12.32,12.32,0,0,0-9.29,4.22,14,14,0,0,0-.89,1.14,12.35,12.35,0,0,0-19.48-1.14,14.46,14.46,0,0,0-.89,1.14,12.34,12.34,0,0,0-20.37,0,12.32,12.32,0,0,0-10.18-5.37Z" transform="translate(-88.75 -76.68)"/></g><path class="cls-4" d="M78.33,198.86h0a44.26,44.26,0,0,1,44.26,44.26v89.59a0,0,0,0,1,0,0H78.33a0,0,0,0,1,0,0V198.86A0,0,0,0,1,78.33,198.86Z"/><path class="cls-6" d="M78.33,205h0a37.19,37.19,0,0,1,37.19,37.19v81.33a0,0,0,0,1,0,0H78.33a0,0,0,0,1,0,0V205A0,0,0,0,1,78.33,205Z"/><path class="cls-2" d="M167.08,564.46H234V506.15c1.92-16.29,9.24-22.66,9.24-22.66H234v-8.91H167.08Z" transform="translate(-88.75 -76.68)"/><path class="cls-3" d="M167.08,484.62h80.18s23.18.55,13.78-20c-6.8-14.87.93-18.41,5.72-19.23a8.59,8.59,0,0,0,5.49,15.19c.33,0,.66,0,1-.06h0s14.27-.65,12-18.2-20.5-13.61-20.5-13.61-15.91,1.09-17.22,15.72-54.12,16.09-54.12,16.09H167.08Z" transform="translate(-88.75 -76.68)"/><rect class="cls-2" x="78.33" y="509.54" width="66.98" height="389.53"/><path class="cls-4" d="M235.62,586.72H167.08v-22H251a1.16,1.16,0,0,1,.89,1.88Z" transform="translate(-88.75 -76.68)"/><path class="cls-4" d="M78.33,509.54h67.95a4.65,4.65,0,0,1,4.65,4.65v0a4.65,4.65,0,0,1-4.65,4.65H78.33a0,0,0,0,1,0,0v-9.29A0,0,0,0,1,78.33,509.54Z"/><g class="cls-16"><path class="cls-6" d="M88.75,586.71H251.69V574.36a12.32,12.32,0,0,0-10.18,5.37,12.35,12.35,0,0,0-20.37,0,12.36,12.36,0,0,0-20.37,0,12.34,12.34,0,0,0-20.37,0,12.35,12.35,0,0,0-20.37,0c-.19-.27-.4-.53-.61-.78,0,0,0-.06-.07-.08-.22-.27-.45-.52-.69-.77l-.16-.16c-.25-.25-.51-.48-.77-.7l-.11-.09a12.19,12.19,0,0,0-4-2.17l-.17-.06c-.34-.1-.69-.19-1-.27l-.21,0a12.08,12.08,0,0,0-2.35-.25,12.42,12.42,0,0,0-10.18,5.36,12.36,12.36,0,0,0-19.48-1.15c-.31.37-.61.75-.89,1.15a12.34,12.34,0,0,0-20.37,0,12.32,12.32,0,0,0-10.18-5.37Z" transform="translate(-88.75 -76.68)"/></g><path class="cls-4" d="M78.33,555.73h0A44.26,44.26,0,0,1,122.59,600v89.59a0,0,0,0,1,0,0H78.33a0,0,0,0,1,0,0V555.73A0,0,0,0,1,78.33,555.73Z"/><path class="cls-6" d="M78.33,561.91h0a37.19,37.19,0,0,1,37.19,37.19v81.33a0,0,0,0,1,0,0H78.33a0,0,0,0,1,0,0V561.91A0,0,0,0,1,78.33,561.91Z"/><rect class="cls-2" x="78.33" y="976.17" width="66.98" height="239.48"/><g class="cls-17"><path class="cls-6" d="M88.75,1053.34H251.69V1041a12.32,12.32,0,0,0-10.18,5.37,12.35,12.35,0,0,0-20.37,0,12.36,12.36,0,0,0-20.37,0,12.36,12.36,0,0,0-20.37,0,12.34,12.34,0,0,0-20.37,0c-.19-.28-.4-.53-.61-.79,0,0,0-.06-.07-.08-.22-.27-.45-.52-.69-.77l-.16-.16c-.25-.25-.51-.48-.77-.7l-.11-.09a12.19,12.19,0,0,0-4-2.17l-.17-.06c-.34-.1-.69-.19-1-.26l-.21,0a12.08,12.08,0,0,0-2.35-.25,12.42,12.42,0,0,0-10.18,5.36,12.35,12.35,0,0,0-19.48-1.14,14.46,14.46,0,0,0-.89,1.14,12.34,12.34,0,0,0-20.37,0A12.32,12.32,0,0,0,88.75,1041Z" transform="translate(-88.75 -76.68)"/></g><path class="cls-4" d="M78.33,1022.36h0a44.26,44.26,0,0,1,44.26,44.26v89.59a0,0,0,0,1,0,0H78.33a0,0,0,0,1,0,0V1022.36A0,0,0,0,1,78.33,1022.36Z"/><path class="cls-6" d="M78.33,1028.54h0a37.19,37.19,0,0,1,37.19,37.19v81.33a0,0,0,0,1,0,0H78.33a0,0,0,0,1,0,0V1028.54A0,0,0,0,1,78.33,1028.54Z"/><path class="cls-9" d="M235.25,166.54a9.52,9.52,0,0,0-.47-2.28c-.42-1.21-.62-.65-.62-.65-6.19,7-16,11.23-27.15,13-3.57.56-7.18,1.06-10.81,1.4h0c-11.22.89-26.57-3.48-34.19-6l-.45-.24.28.19c-2.81-.92-4.52-1.57-4.52-1.57v4.29l-1.42,13c18.13,4.67,39.38-.71,39.38-.71l0,0a83.5,83.5,0,0,0,20-5.2c3-1.21,5.88-2.59,8.69-4C230.05,174.59,235.68,172,235.25,166.54Z" transform="translate(-88.75 -76.68)"/><path class="cls-10" d="M219.08,174.35s-12.58.25-5.68-18.53C213.4,155.82,229.11,167.43,219.08,174.35Z" transform="translate(-88.75 -76.68)"/><path class="cls-10" d="M233.28,173.42s-1.06-12.54,18.13-6.86C251.41,166.56,240.83,183,233.28,173.42Z" transform="translate(-88.75 -76.68)"/><path class="cls-10" d="M203.33,183.78s11.9-9.57,19.19,13.59C222.52,197.37,198.83,197.86,203.33,183.78Z" transform="translate(-88.75 -76.68)"/><path class="cls-10" d="M194.48,744.42s13.28.9,4.48,20.63C199,765.05,183.36,751,194.48,744.42Z" transform="translate(-88.75 -76.68)"/><path class="cls-9" d="M263.16,741.26c-.36-3.17-2.5-7.46-6.37-6.59a5,5,0,0,0-3.58,3.59,7.23,7.23,0,0,0,1.15,5.65c.9,1.38,3.12.1,2.22-1.3a4.63,4.63,0,0,1-.84-3.84,2.26,2.26,0,0,1,2.12-1.64c1.1.11,1.85,1.32,2.22,2.23a8.44,8.44,0,0,1-1.6,8.74,5.28,5.28,0,0,1-5.83.88c-5.37-2.39-7.08-9.24-7.63-14.52-.62-6-.08-12-.85-18a35.07,35.07,0,0,0-1.69-7.31A114.29,114.29,0,0,0,240.55,687c2.35-6.37,3.89-13.22.92-19.66-3.07-6.66-10.32-10.09-16.56-13.11l-.69-.33A137,137,0,0,0,201,629.76a59.51,59.51,0,0,0,15-4.93,83.68,83.68,0,0,0,8.1-4.57c5.69-3.58,10.94-6.57,10.94-13.34a16,16,0,0,0-.27-2.87c-.29-1.52-.51-.83-.51-.83C228.14,611.6,219,616.39,208.84,618c-7.12,1.13-14.38,1.91-21.51.92-.49-.06-1-.14-1.48-.23-16.43-10.75-30.15-16-31.15-16.84v23.38s20.81-4.79,48.44,25a15.54,15.54,0,0,1-.24,6.31c-.59,2.37-1.62,5.29-4,6.37s-4.81-.93-5.67-3a3.2,3.2,0,0,1,.3-3.27c.29-.32.84-.63,1.26-.39a.81.81,0,0,1,.33.9,1,1,0,0,0,.36,1.35,1,1,0,0,0,1.35-.35,2.76,2.76,0,0,0-1.73-3.87,3.45,3.45,0,0,0-3.85,2.43c-1.22,3.19,1.29,6.74,4.17,8a5.32,5.32,0,0,0,4.9-.33,8.6,8.6,0,0,0,3.3-3.88,18.58,18.58,0,0,0,1.75-7.84c2,2.24,4,4.65,6,7.26a106.28,106.28,0,0,1,18.14,36.82c-1.18,4.79-3.64,11.1-10.74,17.94C204,729,180.68,737.77,166.56,752.48c-10.66,11.1-15,25.21-11.71,37.84,1.3,4.92,3.92,9.84,9.25,12.71-2.67-7.78-4.93-16-2-24.14a32.36,32.36,0,0,1,5.89-9.68A22.53,22.53,0,0,0,171,785.39a18,18,0,0,0,7.17,6.3,19.58,19.58,0,0,0,10.49,2.21,11.26,11.26,0,0,0,8-4.74,11.56,11.56,0,0,0,1.77-9,11.26,11.26,0,0,0-6.6-8.28,6.51,6.51,0,0,0-8.54,3.53,1.47,1.47,0,0,0,1,1.8,1.49,1.49,0,0,0,1.8-1c.76-2,3.45-2.21,5.11-1.4a8.56,8.56,0,0,1,4.33,5.92A8.45,8.45,0,0,1,188.15,791a17,17,0,0,1-8.36-1.81,15.18,15.18,0,0,1-6-4.92A19.81,19.81,0,0,1,171,769a29.35,29.35,0,0,1,1.24-4.33c1.55-1.52,3.17-3,4.82-4.44a210.33,210.33,0,0,1,23.08-17.48c7.81-5.12,16.27-9.73,22.8-15.82a63.07,63.07,0,0,0,10.4-12.38,158.09,158.09,0,0,1,.77,41.09A137.41,137.41,0,0,0,242,720.46c.31,5.75-.07,11.54,1,17.24a22,22,0,0,0,3.59,9.26c1.88,2.57,4.54,4.73,7.8,5.07C260.19,752.64,263.76,746.51,263.16,741.26Zm-23.11-63.54a26.74,26.74,0,0,1-.85,4.22,103,103,0,0,0-11.5-23.05c1.28.67,2.54,1.38,3.76,2.15a20.11,20.11,0,0,1,6.74,6.39A16.31,16.31,0,0,1,240.05,677.72Z" transform="translate(-88.75 -76.68)"/><path class="cls-10" d="M223.37,621s12.07-12.71,23.9,12.51C247.27,633.53,220.4,637.72,223.37,621Z" transform="translate(-88.75 -76.68)"/><path class="cls-10" d="M207.27,619.54s-16.38-6.26,2.36-26.88C209.63,592.66,223.82,615.85,207.27,619.54Z" transform="translate(-88.75 -76.68)"/><path class="cls-10" d="M241.78,701.64s12.08-12.71,23.91,12.51C265.69,714.15,238.82,718.34,241.78,701.64Z" transform="translate(-88.75 -76.68)"/><path class="cls-10" d="M207.87,724.73s-14.21,9.36-20.52-17.52C187.35,707.21,214.1,709.43,207.87,724.73Z" transform="translate(-88.75 -76.68)"/><path class="cls-10" d="M218.73,729.62s9.94,2.59.52,16.81C219.25,746.43,209.37,733.19,218.73,729.62Z" transform="translate(-88.75 -76.68)"/><path class="cls-9" d="M235.05,521a9.64,9.64,0,0,0-.47-2.29c-.42-1.21-.62-.64-.62-.64-6.19,7-16,11.23-27.16,13-3.57.56-7.17,1.06-10.8,1.4h0c-11.22.9-26.57-3.47-34.19-6l-.45-.24.28.18c-2.81-.92-4.52-1.56-4.52-1.56v4.28l-1.42,13c18.13,4.67,39.38-.71,39.38-.71l.05,0a83.61,83.61,0,0,0,20-5.19c3-1.21,5.88-2.59,8.69-4C229.85,529.05,235.47,526.42,235.05,521Z" transform="translate(-88.75 -76.68)"/><path class="cls-10" d="M218.88,528.8s-12.58.25-5.68-18.53C213.2,510.27,228.91,521.88,218.88,528.8Z" transform="translate(-88.75 -76.68)"/><path class="cls-10" d="M233.08,527.87S232,515.33,251.2,521C251.2,521,240.62,537.44,233.08,527.87Z" transform="translate(-88.75 -76.68)"/><path class="cls-10" d="M203.13,538.24s11.9-9.58,19.19,13.58C222.32,551.82,198.63,552.32,203.13,538.24Z" transform="translate(-88.75 -76.68)"/><path class="cls-10" d="M194.38,903s13.28.9,4.48,20.63C198.86,923.65,183.26,909.59,194.38,903Z" transform="translate(-88.75 -76.68)"/><path class="cls-9" d="M263.06,899.86c-.36-3.17-2.5-7.46-6.37-6.59a5,5,0,0,0-3.58,3.59,7.22,7.22,0,0,0,1.15,5.64c.9,1.39,3.12.1,2.22-1.29a4.64,4.64,0,0,1-.84-3.85,2.25,2.25,0,0,1,2.12-1.63c1.1.1,1.85,1.31,2.22,2.23a8,8,0,0,1,.58,3.2,7.91,7.91,0,0,1-2.18,5.53,5.24,5.24,0,0,1-5.83.88c-5.38-2.39-7.09-9.23-7.63-14.51-.62-6-.08-12-.85-17.95a34.92,34.92,0,0,0-1.69-7.31,114.41,114.41,0,0,0-1.93-22.2c2.34-6.37,3.89-13.21.92-19.66-3.07-6.66-10.32-10.09-16.56-13.11l-.69-.32a137.05,137.05,0,0,0-23.27-24.15,59.91,59.91,0,0,0,15-4.93,81.71,81.71,0,0,0,8.1-4.58c5.69-3.58,10.94-6.57,10.94-13.33a15.92,15.92,0,0,0-.27-2.87c-.29-1.52-.52-.83-.52-.83-6.05,8.37-15.15,13.16-25.35,14.79-7.12,1.13-14.38,1.91-21.51.92l-1.48-.23c-16.43-10.76-30.15-16-31.15-16.85v23.39s20.81-4.8,48.44,25a15.59,15.59,0,0,1-.24,6.32c-.59,2.36-1.62,5.29-4,6.37s-4.81-.93-5.67-3a3.16,3.16,0,0,1,.3-3.26c.29-.32.84-.63,1.26-.39a.8.8,0,0,1,.33.89,1,1,0,0,0,.36,1.36,1,1,0,0,0,1.35-.36,2.75,2.75,0,0,0-1.73-3.86,3.45,3.45,0,0,0-3.85,2.42c-1.22,3.2,1.29,6.75,4.17,8a5.31,5.31,0,0,0,4.9-.32,8.64,8.64,0,0,0,3.3-3.89,18.54,18.54,0,0,0,1.75-7.83q3,3.35,6,7.26c8.95,11.44,14.6,24.31,18.14,36.82-1.18,4.79-3.65,11.1-10.74,17.94-14.82,14.27-38.1,23.08-52.23,37.79-10.65,11.1-15,25.2-11.7,37.84,1.3,4.91,3.92,9.83,9.25,12.71-2.67-7.79-4.93-16-2-24.14a32.41,32.41,0,0,1,5.89-9.69A22.55,22.55,0,0,0,170.92,944a18.11,18.11,0,0,0,7.17,6.3,19.68,19.68,0,0,0,10.49,2.21,11.25,11.25,0,0,0,8-4.74,11.52,11.52,0,0,0,1.78-9,11.3,11.3,0,0,0-6.6-8.29,6.52,6.52,0,0,0-8.54,3.54,1.48,1.48,0,0,0,1,1.8,1.49,1.49,0,0,0,1.8-1c.76-2,3.45-2.22,5.11-1.4a8.59,8.59,0,0,1,4.33,5.92,8.45,8.45,0,0,1-7.39,10.31,17.14,17.14,0,0,1-8.37-1.81,15.33,15.33,0,0,1-6-4.93,19.79,19.79,0,0,1-2.85-15.28,29.57,29.57,0,0,1,1.24-4.32c1.55-1.52,3.17-3,4.82-4.45A210.26,210.26,0,0,1,200,901.36c7.81-5.12,16.27-9.73,22.8-15.82a63.66,63.66,0,0,0,10.4-12.38,158,158,0,0,1,.77,41.08,137.68,137.68,0,0,0,7.89-35.18c.31,5.75-.08,11.53,1,17.23a22.25,22.25,0,0,0,3.58,9.27c1.89,2.56,4.55,4.72,7.81,5.06C260.09,911.24,263.66,905.1,263.06,899.86ZM240,836.31a27.43,27.43,0,0,1-.85,4.22,103.87,103.87,0,0,0-11.5-23c1.28.68,2.54,1.39,3.76,2.16A20.08,20.08,0,0,1,238.1,826,16.47,16.47,0,0,1,240,836.31Z" transform="translate(-88.75 -76.68)"/><path class="cls-10" d="M223.27,779.61s12.07-12.71,23.9,12.52C247.17,792.13,220.3,796.31,223.27,779.61Z" transform="translate(-88.75 -76.68)"/><path class="cls-10" d="M207.17,778.13s-16.38-6.26,2.36-26.88C209.53,751.25,223.72,774.45,207.17,778.13Z" transform="translate(-88.75 -76.68)"/><path class="cls-10" d="M241.68,860.23s12.08-12.71,23.91,12.52C265.59,872.75,238.72,876.93,241.68,860.23Z" transform="translate(-88.75 -76.68)"/><path class="cls-10" d="M207.77,883.32s-14.21,9.36-20.52-17.52C187.25,865.8,214,868,207.77,883.32Z" transform="translate(-88.75 -76.68)"/><path class="cls-10" d="M218.62,888.22s9.95,2.59.53,16.81C219.15,905,209.27,891.79,218.62,888.22Z" transform="translate(-88.75 -76.68)"/><path class="cls-11" d="M167.08,985.39h65.66v6h52.44s-48.63,5.26-52.69,29.51v24.39H167.08Z" transform="translate(-88.75 -76.68)"/><path class="cls-3" d="M369.78,949.13c-2.36-17.55-21.07-13.61-21.07-13.61s-16.36,1.1-17.71,15.71-55.64,16.1-55.64,16.1H248.93v0H167.52v0H110.13v24.17H330.78s23.83.55,14.16-20c-7-14.87.95-18.41,5.88-19.23a8.5,8.5,0,0,0-3.18,6.6,8.7,8.7,0,0,0,8.82,8.58,8.6,8.6,0,0,0,1-.06h0S372.14,966.67,369.78,949.13Z" transform="translate(-88.75 -76.68)"/><path class="cls-2" d="M314.11,1055.52H287.59l6,28.32a4.29,4.29,0,0,0,4.2,3.41h23.31a4.29,4.29,0,0,0,4.2-3.41l6-28.32Z" transform="translate(-88.75 -76.68)"/><polyline class="cls-6" points="240.15 989.97 242.5 977.42 225.37 977.42 215.97 977.42 198.84 977.42 201.18 989.97"/><path class="cls-12" d="M288.53,1047.08a1.74,1.74,0,0,1-.59-.1,1.67,1.67,0,0,1-1-2.15l21.11-56.89a1.67,1.67,0,1,1,3.13,1.16L290.09,1046A1.66,1.66,0,0,1,288.53,1047.08Z" transform="translate(-88.75 -76.68)"/><path class="cls-12" d="M330.75,1047.08a1.65,1.65,0,0,1-1.56-1.09L308.07,989.1a1.67,1.67,0,1,1,3.13-1.16l21.12,56.89a1.66,1.66,0,0,1-1.57,2.25Z" transform="translate(-88.75 -76.68)"/><path class="cls-2" d="M189.23,967.87H252.1a1.17,1.17,0,0,1,1.17,1.17v10.27a7.38,7.38,0,0,1-7.38,7.38H195.44a7.38,7.38,0,0,1-7.38-7.38V969a1.17,1.17,0,0,1,1.17-1.17Z"/><path class="cls-9" d="M324.79,1038.61a10,10,0,0,1,5.24-4.41,8.68,8.68,0,0,1,4.47,0,17,17,0,0,1,6.93,4,23.86,23.86,0,0,0,6.48,4.49c.46.19.95.35,1.44.52-3.25.77-6.41,1.92-9.66,2.7s-6.71,1.18-9.67.42a11.59,11.59,0,0,1-3.3-1.44,5.8,5.8,0,0,1-3-3.94,2.44,2.44,0,0,1,1-2.36" transform="translate(-88.75 -76.68)"/><path class="cls-13" d="M341.24,1042.84a14.28,14.28,0,0,1-4.6-1.4c-.33-.19-.65-.36-.95-.51a4.81,4.81,0,0,0,.84-.26c.6-.26,1-.37,1.63-.62a5.57,5.57,0,0,1,1.87-.32c.44,0,1.43.1,1.89.15a10.61,10.61,0,0,0-1.95-.44,6.45,6.45,0,0,0-2.94.61,10.91,10.91,0,0,1-1.89.6c-.78-.39-1.51-.75-2.38-1.27a9.74,9.74,0,0,0-1.21-.6,3.45,3.45,0,0,0,.46-.12,3.89,3.89,0,0,0,.87-.36c.56-.32,1-.48,1.55-.78a5.31,5.31,0,0,1,1.83-.52c.43,0,1.43-.06,1.89,0a10.1,10.1,0,0,0-2-.23,6.37,6.37,0,0,0-2.87.91,8.15,8.15,0,0,1-2.35.92l-.36-.13a11.5,11.5,0,0,0-2-.45,4,4,0,0,0,.62-.42c.41-.37.73-.57,1.16-.92a4.45,4.45,0,0,1,1.43-.74c.35-.11,1.18-.29,1.56-.36a9.72,9.72,0,0,0-1.69.14,5.41,5.41,0,0,0-2.22,1.25,8.4,8.4,0,0,1-1.46,1,4.09,4.09,0,0,0-2.73.78l-.27.24a2.4,2.4,0,0,1,1.7-.42,7.91,7.91,0,0,1,1.08.11,6.86,6.86,0,0,1,1.38,2.65,6.28,6.28,0,0,0,1.44,2.63,9.89,9.89,0,0,0,1.6,1.21c-.34-.32-1.06-1-1.34-1.35a5.54,5.54,0,0,1-1-1.63c-.2-.62-.39-1-.58-1.64a4.38,4.38,0,0,0-.37-.86,4.11,4.11,0,0,0-.73-.93,15.31,15.31,0,0,1,3.52,1.27,10.12,10.12,0,0,1,1.06,1.84,6.46,6.46,0,0,0,1.74,2.46,10.7,10.7,0,0,0,1.73,1c-.38-.28-1.17-.89-1.49-1.19a5.45,5.45,0,0,1-1.15-1.51c-.27-.59-.51-1-.76-1.56a4.73,4.73,0,0,0-.39-.68c.47.24.93.49,1.39.74,2.26,1.21,4.64,2.43,7.2,2.45a26.64,26.64,0,0,0,5-.48C344.86,1043.05,342.33,1043,341.24,1042.84Z" transform="translate(-88.75 -76.68)"/><path class="cls-14" d="M293.12,1045.37a10,10,0,0,0-5.7-3.81,8.7,8.7,0,0,0-4.44.51,16.82,16.82,0,0,0-6.45,4.75,23.78,23.78,0,0,1-5.93,5.18c-.45.24-.91.46-1.38.68,3.32.41,6.59,1.2,9.9,1.61s6.8.43,9.65-.65a11.31,11.31,0,0,0,3.13-1.81,5.75,5.75,0,0,0,2.5-4.24,2.41,2.41,0,0,0-1.28-2.22" transform="translate(-88.75 -76.68)"/><path class="cls-13" d="M291.66,1044.16a4.19,4.19,0,0,0-2.2-.22,10.61,10.61,0,0,0-1.12-.34,6,6,0,0,0-2.84.26,6.33,6.33,0,0,1-2.85.31.89.89,0,0,1-.58-.3l.08.11a2.25,2.25,0,0,0,1.94.58,4.3,4.3,0,0,0,.87-.16c.59-.19,1-.25,1.6-.41a5.21,5.21,0,0,1,1.81-.11c.17,0,.43.06.71.12a10.94,10.94,0,0,0-2.71,1,11.69,11.69,0,0,0-1.94,1.21l-.46.36a7.34,7.34,0,0,1-2.27.21,5.57,5.57,0,0,0-2.61.39,7.24,7.24,0,0,0-1.32.92c.33-.18,1.07-.55,1.41-.68a4.75,4.75,0,0,1,1.63-.29c.59,0,1,0,1.57,0a4.51,4.51,0,0,0,.83-.06l.1,0c-.73.53-1.44,1-2.27,1.62l-.35.24a9.36,9.36,0,0,1-1.85.1,5.53,5.53,0,0,0-2.6.39,7,7,0,0,0-1.33.92c.34-.18,1.08-.55,1.42-.68a4.69,4.69,0,0,1,1.62-.29c.59,0,1,0,1.58,0H280a17.69,17.69,0,0,1-3.18,1.37c-1,.32-3.49.87-4.63,1.11a31.25,31.25,0,0,0,5-.57,12,12,0,0,0,3.32-1.28c-.26.37-.5.67-.78,1.09a5.26,5.26,0,0,1-1.31,1.25c-.34.23-1.18.68-1.57.88a9.28,9.28,0,0,0,1.77-.69,5.92,5.92,0,0,0,2-2,12,12,0,0,1,.73-1c.63-.39,1.24-.82,1.83-1.24h0l.53-.38a2.14,2.14,0,0,0-.13.19,4.61,4.61,0,0,0-.38.81c-.19.58-.38,1-.59,1.54a5.34,5.34,0,0,1-.95,1.53c-.28.31-1,1-1.31,1.25a11.16,11.16,0,0,0,1.55-1.1,6,6,0,0,0,1.43-2.48,6.69,6.69,0,0,1,1.34-2.44c.15-.11.3-.22.46-.32a.58.58,0,0,1,.18,0h-.13c.52-.36,1.06-.72,1.61-1a4.41,4.41,0,0,0-.4,1,4.94,4.94,0,0,0-.16,1c0,.71-.11,1.19-.16,1.9a5.89,5.89,0,0,1-.56,2c-.21.43-.77,1.37-1,1.8a10.78,10.78,0,0,0,1.35-1.72,7,7,0,0,0,.79-3.2,7.73,7.73,0,0,1,.67-3.09,11.68,11.68,0,0,1,2.94-1.15,2.72,2.72,0,0,1,1.74,0Z" transform="translate(-88.75 -76.68)"/><path class="cls-14" d="M300,1043a10,10,0,0,0-6,.47,8.28,8.28,0,0,0-3,2.46,13.13,13.13,0,0,0-2.36,6,17.65,17.65,0,0,1-1.78,6c-.21.37-.44.72-.67,1.08,2.61-1.36,5.36-2.47,8-3.83a20.08,20.08,0,0,0,6.69-5.08,9.33,9.33,0,0,0,1.39-2.61,3.91,3.91,0,0,0-.25-3.77,2.09,2.09,0,0,0-2-.72" transform="translate(-88.75 -76.68)"/><path class="cls-13" d="M298.33,1043a4.24,4.24,0,0,0-1.7.93c-.37.11-.76.25-1,.34a5.82,5.82,0,0,0-1.93,1.54,6.08,6.08,0,0,1-1.92,1.57.9.9,0,0,1-.57.1l.11,0a2.29,2.29,0,0,0,1.69-.59,4.66,4.66,0,0,0,.56-.52c.34-.4.61-.64,1-1a5,5,0,0,1,1.26-.94l.57-.28a9.86,9.86,0,0,0-1.49,1.91,9.56,9.56,0,0,0-.82,1.67c-.05.15-.1.3-.16.44a7.06,7.06,0,0,1-1.54,1.23,5.38,5.38,0,0,0-1.71,1.5,5.69,5.69,0,0,0-.51,1.2,12.12,12.12,0,0,1,.7-1.1,4.5,4.5,0,0,1,1-1c.43-.27.7-.49,1.14-.75a3.68,3.68,0,0,0,.58-.44l.06-.06c-.28.67-.56,1.29-.86,2.08l-.13.31a9.31,9.31,0,0,1-1.3,1,5.23,5.23,0,0,0-1.7,1.5,5.74,5.74,0,0,0-.52,1.2c.16-.27.52-.85.7-1.1a4.47,4.47,0,0,1,1-1c.43-.28.7-.49,1.14-.76a2.62,2.62,0,0,0,.34-.24,14.52,14.52,0,0,1-1.63,2.37c-.6.7-2.11,2.22-2.83,2.92a28.92,28.92,0,0,0,3.36-2.77,10.32,10.32,0,0,0,1.78-2.39c0,.36,0,.65,0,1a4.05,4.05,0,0,1-.34,1.39c-.14.3-.52,1-.71,1.3a9,9,0,0,0,.95-1.28,4.34,4.34,0,0,0,.45-2.2c0-.32,0-.64.05-1,.27-.54.5-1.09.72-1.63l0,0h0l.19-.49a1.09,1.09,0,0,0,0,.18,3,3,0,0,0,.11.67c.15.45.2.77.33,1.22a3.48,3.48,0,0,1,.05,1.39c-.05.32-.24,1-.34,1.38a7.52,7.52,0,0,0,.59-1.41,4.08,4.08,0,0,0-.17-2.19,4.39,4.39,0,0,1-.22-2.12c.06-.14.12-.28.17-.42a.63.63,0,0,1,.12-.11l-.1.06c.21-.47.42-1,.67-1.41a2.75,2.75,0,0,0,.2.81,3.1,3.1,0,0,0,.38.69c.33.44.5.77.81,1.22a3.92,3.92,0,0,1,.57,1.48c.06.36.11,1.2.12,1.59a8,8,0,0,0,.15-1.69,4.63,4.63,0,0,0-1-2.31,5.11,5.11,0,0,1-1-2.19,10.17,10.17,0,0,1,1.57-2.13,2.74,2.74,0,0,1,1.27-.83Z" transform="translate(-88.75 -76.68)"/><path class="cls-9" d="M299,1040a11.77,11.77,0,0,0-5.14-6.22,10.43,10.43,0,0,0-5.19-.93,20.18,20.18,0,0,0-8.88,3.19c-2.62,1.52-5.21,3.17-8.44,3.84-.58.12-1.18.21-1.78.3,3.6,1.58,7,3.58,10.62,5.17s7.53,2.77,11.12,2.52a13.43,13.43,0,0,0,4.14-1c2-.81,3.69-2.09,4.25-3.94a2.86,2.86,0,0,0-.7-3" transform="translate(-88.75 -76.68)"/><path class="cls-13" d="M296.94,1038.15a4.76,4.76,0,0,0-2.54-1l0,0-.05,0a7.84,7.84,0,0,0-1.19,0,9.54,9.54,0,0,1-2.35-1.33,6.89,6.89,0,0,0-2.94-1.41,9.44,9.44,0,0,0-2,0c.47,0,1.48.19,1.92.29a6,6,0,0,1,1.87.83c.59.42,1,.66,1.6,1.1a4.7,4.7,0,0,0,.89.52l.08,0c-.43,0-.86.11-1.27.18a13.75,13.75,0,0,0-2.47.72l-.22.09a11.18,11.18,0,0,1-2.15-.93,6.93,6.93,0,0,0-3.09-1,9.18,9.18,0,0,0-2,.28c.47,0,1.49,0,1.94,0a6.09,6.09,0,0,1,2,.58c.64.34,1.1.52,1.74.88a4.87,4.87,0,0,0,.94.41h0c-1.23.47-2.28.78-3.63,1.31a11.59,11.59,0,0,1-1.64.48,8.47,8.47,0,0,1-1.63-.69,5.09,5.09,0,0,0-2.26-.75,6.34,6.34,0,0,0-1.45.21,13.35,13.35,0,0,1,1.42,0,4.33,4.33,0,0,1,1.44.42c.47.25.8.38,1.27.64a3.24,3.24,0,0,0,.6.27,19.63,19.63,0,0,1-2.95.31c-1.21,0-4-.14-5.32-.24a34.13,34.13,0,0,0,5.54,1,17.66,17.66,0,0,0,7.31-1.4,4.24,4.24,0,0,0-.54.59c-.49.64-.89,1-1.39,1.66a6.81,6.81,0,0,1-1.85,1.49c-.47.26-1.62.77-2.15,1a12.61,12.61,0,0,0,2.39-.71,7.88,7.88,0,0,0,2.84-2.46,11.31,11.31,0,0,1,2-2l1.6-.58h0c.6-.2,1.19-.39,1.8-.55a5.41,5.41,0,0,0-.79,1,5.71,5.71,0,0,0-.5,1.06c-.25.77-.5,1.27-.77,2a6.65,6.65,0,0,1-1.26,2c-.36.41-1.28,1.26-1.71,1.64a13.15,13.15,0,0,0,2-1.45,7.9,7.9,0,0,0,1.88-3.25,8.68,8.68,0,0,1,1.75-3.2,14.16,14.16,0,0,1,2.83-.37,3.9,3.9,0,0,0-1.4,1.45,6,6,0,0,0-.49,1.06c-.25.77-.51,1.27-.78,2a6.84,6.84,0,0,1-1.25,2c-.37.41-1.28,1.26-1.72,1.64a13.24,13.24,0,0,0,2-1.45,7.89,7.89,0,0,0,1.87-3.25,8.58,8.58,0,0,1,1.83-3.29l.26-.2h.4a3,3,0,0,1,1.85.57Z" transform="translate(-88.75 -76.68)"/><path class="cls-9" d="M323.73,1043.47a7.51,7.51,0,0,1,4.89-1.51,6.57,6.57,0,0,1,3.08,1.31,12.77,12.77,0,0,1,3.6,4.79,17.78,17.78,0,0,0,3.14,5c.27.27.55.52.84.78-2.46-.41-5-.55-7.43-1a15.4,15.4,0,0,1-6.77-2.53,8.59,8.59,0,0,1-1.86-2,4.32,4.32,0,0,1-.88-3.57,1.79,1.79,0,0,1,1.39-1.32" transform="translate(-88.75 -76.68)"/><path class="cls-13" d="M333.82,1051.18a10.25,10.25,0,0,1-2.76-2.31c-.17-.23-.34-.43-.5-.63a2.4,2.4,0,0,0,.65.07c.49,0,.82,0,1.3,0a4.17,4.17,0,0,1,1.38.33c.3.12,1,.48,1.26.65a8.62,8.62,0,0,0-1.21-.87,4.86,4.86,0,0,0-2.21-.44,8,8,0,0,1-1.47-.14c-.42-.5-.82-1-1.27-1.57a5.69,5.69,0,0,0-.66-.76l.36,0a3.27,3.27,0,0,0,.7,0c.48-.06.81,0,1.29-.09a4,4,0,0,1,1.41.18c.31.09,1,.37,1.32.51a7.49,7.49,0,0,0-1.3-.73,4.66,4.66,0,0,0-2.23-.21,6,6,0,0,1-1.89-.06l-.21-.19a8.44,8.44,0,0,0-1.28-.91,2.44,2.44,0,0,0,.55-.11c.39-.13.67-.17,1.06-.29a3.41,3.41,0,0,1,1.2-.09,10.25,10.25,0,0,1,1.19.21,6.6,6.6,0,0,0-1.21-.4,4.1,4.1,0,0,0-1.89.21,6.53,6.53,0,0,1-1.3.27,3,3,0,0,0-2.1-.27l-.26.09a1.78,1.78,0,0,1,1.29.2,6.16,6.16,0,0,1,.71.4,5,5,0,0,1,.18,2.22,4.71,4.71,0,0,0,.22,2.24,7.89,7.89,0,0,0,.75,1.29c-.14-.32-.43-1-.53-1.32a4,4,0,0,1-.18-1.4c0-.49,0-.82.07-1.3a3.31,3.31,0,0,0-.23-1.55,11.86,11.86,0,0,1,2.05,1.9,6.9,6.9,0,0,1,.19,1.58,4.68,4.68,0,0,0,.48,2.19,8.11,8.11,0,0,0,.89,1.2c-.18-.3-.54-1-.67-1.25a3.88,3.88,0,0,1-.35-1.37c0-.49-.07-.82-.07-1.3a4,4,0,0,0-.07-.58l.74.91a12,12,0,0,0,4.23,3.79,20.17,20.17,0,0,0,3.61,1.14C336.25,1052.38,334.53,1051.59,333.82,1051.18Z" transform="translate(-88.75 -76.68)"/><path class="cls-14" d="M316.63,1041.06c2-1.1,6.14-1.67,8.3-.91a7.45,7.45,0,0,1,3.69,3c1.7,2.57,2,5.62,2.1,8.57s.1,6,1.3,8.75c.21.5.47,1,.72,1.47-3.38-1.39-7-2.34-10.41-3.72s-6.59-3.28-8.35-6a10.1,10.1,0,0,1-1.43-3.63,7.24,7.24,0,0,1,1.11-5.86,3.9,3.9,0,0,1,3-1.66" transform="translate(-88.75 -76.68)"/><path class="cls-13" d="M325,1053.32l.35.19a3.15,3.15,0,0,0,.69.25c.49.12.82.25,1.31.38a4.37,4.37,0,0,1,1.33.68c.27.2.86.73,1.12,1a7.72,7.72,0,0,0-1-1.19,4.91,4.91,0,0,0-2.14-1,6.08,6.08,0,0,1-1.95-.8,12.77,12.77,0,0,1-1-2.09l-.24-.7.27.11a4.27,4.27,0,0,0,.86.19c.6.06,1,.16,1.61.24a5,5,0,0,1,1.67.58c.36.2,1.13.73,1.48,1a10.33,10.33,0,0,0-1.39-1.25,6,6,0,0,0-2.69-.84,9.37,9.37,0,0,1-2-.44c-.35-.93-.69-1.75-1-2.82a8.3,8.3,0,0,0-.31-.81,4.34,4.34,0,0,0,.83.36,4,4,0,0,0,.91.19c.65.06,1.08.16,1.72.23a5.74,5.74,0,0,1,1.81.61c.38.21,1.21.77,1.59,1a10,10,0,0,0-1.51-1.32,6.34,6.34,0,0,0-2.88-.87,7.32,7.32,0,0,1-2.66-.69c-.14-.29-.28-.57-.42-.83a14,14,0,0,0-.93-1.43,4.73,4.73,0,0,0,1.58.25c.64,0,1.09,0,1.74,0a5.62,5.62,0,0,1,1.86.39c.4.15,1.3.6,1.71.82a11.5,11.5,0,0,0-1.66-1.12,6.47,6.47,0,0,0-3-.5,7.69,7.69,0,0,1-2.63-.31,4.89,4.89,0,0,0-2.63-1.75l-.34,0a2.76,2.76,0,0,1,1.45,1,10.09,10.09,0,0,1,1,1.22l0,.14a6.64,6.64,0,0,1-1.52,2.59,6.47,6.47,0,0,0-1.48,2.62,10.22,10.22,0,0,0-.17,2c.08-.45.3-1.43.43-1.85a5.68,5.68,0,0,1,.88-1.68c.41-.5.66-.87,1.08-1.36a4.4,4.4,0,0,0,.53-.77,3.18,3.18,0,0,0,.44-1.45,19.64,19.64,0,0,1,1.77,3.7,7.31,7.31,0,0,1-1.16,2.58,6.41,6.41,0,0,0-1.14,2.79,11.16,11.16,0,0,0,.08,2c0-.47.12-1.47.2-1.89a5.41,5.41,0,0,1,.66-1.78c.35-.55.54-1,.9-1.49a4.35,4.35,0,0,0,.43-.83,4.41,4.41,0,0,0,.23-.83c.11.29.21.58.31.86a32.5,32.5,0,0,0,1.28,3.21,9,9,0,0,1-.24,1.15,5.17,5.17,0,0,0-.18,2.4,8.18,8.18,0,0,0,.55,1.5c-.09-.36-.27-1.14-.31-1.48a4.41,4.41,0,0,1,.06-1.52c.13-.5.18-.86.32-1.35a1.33,1.33,0,0,0,.05-.19,11.68,11.68,0,0,0,2,2.8,31.34,31.34,0,0,0,3.82,3.28c-.82-.84-2.53-2.68-3.21-3.53C325.71,1054.39,325.34,1053.88,325,1053.32Z" transform="translate(-88.75 -76.68)"/><path class="cls-9" d="M310.25,1040.09c-2.77-.56-7.83.3-10.09,2a9.13,9.13,0,0,0-3.23,4.86c-1.05,3.65-.26,7.33.69,10.85s2.09,7.06,1.71,10.75c-.07.66-.18,1.33-.3,2,3.46-2.87,7.38-5.34,10.85-8.21s6.54-6.28,7.6-10.13a12.49,12.49,0,0,0,.34-4.78,8.94,8.94,0,0,0-3.47-6.48,4.74,4.74,0,0,0-4.1-.84" transform="translate(-88.75 -76.68)"/><path class="cls-13" d="M313.09,1049a8.8,8.8,0,0,0-2.44-3.41,9.43,9.43,0,0,1-2.5-3.37,1.67,1.67,0,0,1-.1-.43,3.12,3.12,0,0,1,1.23-1.44l-.38.19a5.52,5.52,0,0,0-2.06,2.24,7.85,7.85,0,0,1-3,1,6.92,6.92,0,0,0-3,1.1,9.36,9.36,0,0,0-1.38,1.44c.37-.3,1.17-.92,1.55-1.16a5.76,5.76,0,0,1,1.88-.76c.72-.13,1.18-.27,1.9-.38a5.14,5.14,0,0,0,1-.27,4.33,4.33,0,0,0,.78-.38,14.11,14.11,0,0,0-.91,2.9c-.08.4-.15.85-.21,1.3l-.07.06a7.42,7.42,0,0,1-3.08,1.06,6.93,6.93,0,0,0-3,1.11,8.46,8.46,0,0,0-1.37,1.44,18.25,18.25,0,0,1,1.54-1.16,5.6,5.6,0,0,1,1.89-.76c.71-.13,1.18-.27,1.89-.38a5.14,5.14,0,0,0,1-.27,3.29,3.29,0,0,0,1.21-.74c0,.39-.06.78-.06,1.13,0,1.19-.06,2.16-.13,3.18a11.05,11.05,0,0,1-2,1.14,6.82,6.82,0,0,0-2.64,1.88,8.47,8.47,0,0,0-.94,1.75,18.14,18.14,0,0,1,1.17-1.53,5.87,5.87,0,0,1,1.62-1.23c.66-.32,1.07-.58,1.73-.87a5.23,5.23,0,0,0,.89-.53l.1-.08c0,.46-.05.93-.06,1.45a18.52,18.52,0,0,1-1.24,5.63c-.48,1.25-1.82,4-2.47,5.32a37.3,37.3,0,0,0,3.27-5.26,12.68,12.68,0,0,0,.92-2.42h0c.23.72.31,1.24.52,2a6.45,6.45,0,0,1,.16,2.22c0,.51-.28,1.66-.4,2.19a12.31,12.31,0,0,0,.74-2.22,7.36,7.36,0,0,0-.36-3.5c-.15-.57-.31-1.16-.41-1.74a20.84,20.84,0,0,0,.35-2.48h0c.05-.47.08-1,.11-1.43a4.34,4.34,0,0,0,.2.5,5,5,0,0,0,.55,1c.46.59.72,1,1.16,1.67a6.37,6.37,0,0,1,.9,2c.12.5.3,1.66.37,2.2a13.19,13.19,0,0,0-.06-2.35,7.4,7.4,0,0,0-1.52-3.17,8.42,8.42,0,0,1-1.55-3c0-.12,0-.24,0-.36s0-.35,0-.52l0-.07,0,0c0-1.06.1-2.14.21-3.21a6,6,0,0,0,.76,1.46,7,7,0,0,0,.93,1.1c.73.66,1.16,1.2,1.88,1.89a8.42,8.42,0,0,1,1.61,2.42c.27.61.76,2.07,1,2.75a15.43,15.43,0,0,0-.6-3,9.79,9.79,0,0,0-2.68-3.75,10.33,10.33,0,0,1-2.75-3.7v0a15.52,15.52,0,0,1,1.18-4.23,4.14,4.14,0,0,0,.84,2.22,6.17,6.17,0,0,0,.85,1c.67.61,1.06,1.1,1.71,1.73a7.83,7.83,0,0,1,1.47,2.2c.24.56.69,1.88.88,2.5A14.31,14.31,0,0,0,313.09,1049Z" transform="translate(-88.75 -76.68)"/><path class="cls-14" d="M316.89,1039.2a11.31,11.31,0,0,1-3.25-6.65,6.6,6.6,0,0,1,1.37-4c1.63-2.2,4.09-3.35,6.52-4.33s5-1.88,6.9-3.71c.35-.33.68-.69,1-1-.14,3.23.16,6.55,0,9.79s-.74,6.48-2.48,8.77a9.22,9.22,0,0,1-2.59,2.28,6.41,6.41,0,0,1-5.22.83,3.41,3.41,0,0,1-2.28-2" transform="translate(-88.75 -76.68)"/><path class="cls-13" d="M324.6,1028.56l.06-.35a3.53,3.53,0,0,0,0-.65c-.05-.45,0-.76-.08-1.21a3.83,3.83,0,0,1,.16-1.31c.09-.29.36-.93.49-1.23a7.26,7.26,0,0,0-.69,1.21,4.46,4.46,0,0,0-.19,2.09,5.51,5.51,0,0,1-.08,1.86,10.45,10.45,0,0,1-1.45,1.45l-.5.42v-.26a3.25,3.25,0,0,0-.1-.77c-.13-.52-.16-.89-.28-1.42a4.62,4.62,0,0,1,0-1.57c.06-.36.27-1.16.38-1.53a9,9,0,0,0-.62,1.54,5.26,5.26,0,0,0,.1,2.49,7.6,7.6,0,0,1,.23,1.77c-.67.58-1.25,1.11-2,1.71-.19.14-.39.31-.59.49a4.21,4.21,0,0,0,.06-.79,3.78,3.78,0,0,0-.12-.82c-.15-.56-.19-1-.32-1.51a4.8,4.8,0,0,1,0-1.68c.06-.38.28-1.24.39-1.64a9,9,0,0,0-.65,1.65,5.72,5.72,0,0,0,.14,2.66,6.49,6.49,0,0,1,.23,2.43,7.68,7.68,0,0,0-.56.6,11.31,11.31,0,0,0-.92,1.21,5.82,5.82,0,0,0,0-.6,3.8,3.8,0,0,0-.22-.8c-.22-.53-.31-.91-.51-1.45a5,5,0,0,1-.24-1.67c0-.38.12-1.26.18-1.67a9,9,0,0,0-.44,1.72,5.7,5.7,0,0,0,.47,2.62,6.59,6.59,0,0,1,.53,2.29,4.35,4.35,0,0,0-.66,2.72l.05.29a2.46,2.46,0,0,1,.37-1.49,8,8,0,0,1,.72-1.16l.12,0a6,6,0,0,1,2.63.48,5.43,5.43,0,0,0,2.62.45,9.06,9.06,0,0,0,1.72-.45c-.41.06-1.29.18-1.67.19a4.9,4.9,0,0,1-1.67-.22c-.54-.2-.93-.29-1.46-.5a4.49,4.49,0,0,0-.8-.21,2.88,2.88,0,0,0-1.34.08,16.88,16.88,0,0,1,2.55-2.59,6.42,6.42,0,0,1,2.5.18,5.59,5.59,0,0,0,2.66.12,9.84,9.84,0,0,0,1.65-.67c-.4.12-1.26.34-1.64.4a4.74,4.74,0,0,1-1.68,0c-.56-.13-1-.17-1.51-.31a3.75,3.75,0,0,0-.82-.1,3.89,3.89,0,0,0-.76,0l.62-.51c.78-.65,1.57-1.31,2.29-2,.34-.07.69-.11,1-.15a4.41,4.41,0,0,0,2.06-.56,7.88,7.88,0,0,0,1.08-.91c-.27.18-.87.56-1.14.7a3.85,3.85,0,0,1-1.28.41c-.46,0-.77.11-1.23.13l-.17,0a10.49,10.49,0,0,0,1.74-2.47,26.69,26.69,0,0,0,1.59-4.17c-.45.93-1.46,2.91-2,3.73A15.24,15.24,0,0,1,324.6,1028.56Z" transform="translate(-88.75 -76.68)"/><path class="cls-9" d="M311.72,1040.36c1.53-1.9,2.91-6.13,2.52-8.54a7.89,7.89,0,0,0-2.43-4.42c-2.37-2.27-5.52-3.15-8.6-3.82s-6.25-1.23-8.92-3c-.49-.32-1-.67-1.41-1,.82,3.81,1.13,7.81,1.94,11.62s2.2,7.53,4.71,9.89a11.16,11.16,0,0,0,3.54,2.18,7.75,7.75,0,0,0,6.36-.06,4.14,4.14,0,0,0,2.29-2.81" transform="translate(-88.75 -76.68)"/><path class="cls-13" d="M300.44,1029.29c-.05-.13-.1-.26-.14-.39a3.45,3.45,0,0,1-.13-.77c0-.55-.11-.91-.15-1.45a4.53,4.53,0,0,0-.46-1.52c-.16-.33-.61-1-.82-1.36a8.77,8.77,0,0,1,1.06,1.29,5.33,5.33,0,0,1,.64,2.43,6.52,6.52,0,0,0,.48,2.2,12.68,12.68,0,0,0,2,1.43l.68.39c0-.11,0-.21-.05-.31a3.65,3.65,0,0,1,0-.93c.05-.65,0-1.09.05-1.74a5.32,5.32,0,0,0-.3-1.87,18.58,18.58,0,0,0-.76-1.73,9.84,9.84,0,0,1,1.05,1.7,6.2,6.2,0,0,1,.38,3,10.3,10.3,0,0,0,.08,2.15c.92.55,1.71,1,2.78,1.61a8.6,8.6,0,0,1,.79.47,5.37,5.37,0,0,1-.23-.94,5.44,5.44,0,0,1,0-1c.07-.69,0-1.16.09-1.85a6.12,6.12,0,0,0-.3-2c-.15-.43-.58-1.41-.79-1.86a10.58,10.58,0,0,1,1.1,1.83,6.82,6.82,0,0,1,.37,3.18,7.72,7.72,0,0,0,.22,2.92c.28.2.55.41.79.6a15.53,15.53,0,0,1,1.33,1.25,5.83,5.83,0,0,1-.06-.71,4.85,4.85,0,0,1,.1-1c.14-.67.18-1.15.31-1.82a6.15,6.15,0,0,0-.05-2c-.09-.45-.4-1.47-.55-2a11.67,11.67,0,0,1,.86,2,6.71,6.71,0,0,1,0,3.21,8.15,8.15,0,0,0-.16,2.82,5.26,5.26,0,0,1,1.33,3.08v.37a2.85,2.85,0,0,0-.73-1.7,10.65,10.65,0,0,0-1.09-1.23h-.15a7.15,7.15,0,0,0-3,1.11,6.71,6.71,0,0,1-3,1.05,10.82,10.82,0,0,1-2.13-.19c.5,0,1.56,0,2-.1a5.93,5.93,0,0,0,1.94-.61c.6-.34,1-.52,1.63-.88a4.68,4.68,0,0,1,.91-.41,3.47,3.47,0,0,1,1.59-.18,20.13,20.13,0,0,0-3.54-2.55,7.57,7.57,0,0,0-2.93.72,6.75,6.75,0,0,1-3.13.67,10.44,10.44,0,0,1-2.08-.46c.49.06,1.55.15,2,.15a5.66,5.66,0,0,0,2-.36c.63-.26,1.09-.38,1.72-.66a4.09,4.09,0,0,1,1-.29,3.9,3.9,0,0,1,.91-.09l-.85-.49a35.2,35.2,0,0,1-3.12-2c-.42,0-.84,0-1.25,0a5.48,5.48,0,0,1-2.55-.26,9.75,9.75,0,0,1-1.47-.86c.36.16,1.14.49,1.5.61a4.6,4.6,0,0,0,1.6.21c.55,0,.93,0,1.48-.08h.21a12.57,12.57,0,0,1-2.57-2.58,32.63,32.63,0,0,1-2.72-4.63c.72,1,2.32,3.16,3.09,4A16.79,16.79,0,0,0,300.44,1029.29Z" transform="translate(-88.75 -76.68)"/><path class="cls-9" d="M312.93,1036.41a10,10,0,0,1,5.24-4.41,8.68,8.68,0,0,1,4.47,0,17,17,0,0,1,6.94,4,23.81,23.81,0,0,0,6.47,4.49c.47.19.95.35,1.44.52-3.25.77-6.41,1.92-9.66,2.7s-6.7,1.18-9.67.42a11.59,11.59,0,0,1-3.3-1.44,5.8,5.8,0,0,1-3-3.94,2.44,2.44,0,0,1,1-2.36" transform="translate(-88.75 -76.68)"/><path class="cls-13" d="M329.38,1040.64a14.28,14.28,0,0,1-4.6-1.4c-.33-.19-.65-.36-.95-.51a4.92,4.92,0,0,0,.85-.26c.59-.26,1-.37,1.62-.62a5.57,5.57,0,0,1,1.87-.32c.44,0,1.44.1,1.9.15a10.9,10.9,0,0,0-2-.44,6.48,6.48,0,0,0-2.94.61,10.64,10.64,0,0,1-1.89.6c-.78-.39-1.51-.75-2.38-1.27a9.09,9.09,0,0,0-1.21-.6,3.59,3.59,0,0,0,.47-.12,3.82,3.82,0,0,0,.86-.36c.56-.32,1-.48,1.55-.78a5.37,5.37,0,0,1,1.83-.52c.43,0,1.43-.06,1.9,0a10.29,10.29,0,0,0-2-.23,6.33,6.33,0,0,0-2.86.91,8.21,8.21,0,0,1-2.36.92l-.36-.13a11.59,11.59,0,0,0-2-.45,4.39,4.39,0,0,0,.61-.42c.41-.37.73-.57,1.16-.92a4.45,4.45,0,0,1,1.43-.74c.35-.11,1.18-.29,1.57-.36a9.56,9.56,0,0,0-1.69.14,5.38,5.38,0,0,0-2.23,1.25,8,8,0,0,1-1.46,1,4.09,4.09,0,0,0-2.73.78l-.27.24a2.4,2.4,0,0,1,1.7-.42,7.75,7.75,0,0,1,1.08.11,6.86,6.86,0,0,1,1.38,2.65,6.39,6.39,0,0,0,1.44,2.63,10.35,10.35,0,0,0,1.6,1.21c-.34-.32-1.06-1-1.34-1.35a5.53,5.53,0,0,1-1-1.63c-.21-.62-.4-1-.59-1.64a4.38,4.38,0,0,0-.37-.86,3.85,3.85,0,0,0-.73-.93,15.15,15.15,0,0,1,3.52,1.27,9.61,9.61,0,0,1,1.07,1.84,6.43,6.43,0,0,0,1.73,2.46,10.7,10.7,0,0,0,1.73,1c-.38-.28-1.17-.89-1.49-1.19a5.65,5.65,0,0,1-1.15-1.51c-.27-.59-.51-1-.76-1.56a5.8,5.8,0,0,0-.38-.68l1.39.74c2.25,1.21,4.63,2.43,7.19,2.45a26.57,26.57,0,0,0,5-.48C333,1040.85,330.47,1040.77,329.38,1040.64Z" transform="translate(-88.75 -76.68)"/><path class="cls-14" d="M310.44,1037.93a7.69,7.69,0,0,0-4.93-1.79,6.79,6.79,0,0,0-3.21,1.19,13,13,0,0,0-3.92,4.72,18.15,18.15,0,0,1-3.46,4.93c-.28.26-.59.51-.9.76,2.54-.31,5.12-.32,7.66-.62a15.9,15.9,0,0,0,7.05-2.26,8.43,8.43,0,0,0,2-1.91,4.41,4.41,0,0,0,1.08-3.61,1.84,1.84,0,0,0-1.36-1.41" transform="translate(-88.75 -76.68)"/><path class="cls-13" d="M299.74,1045.31a10.46,10.46,0,0,0,2.93-2.22l.55-.62a3.77,3.77,0,0,1-.67,0c-.5,0-.84,0-1.33,0a4.05,4.05,0,0,0-1.43.26c-.31.12-1,.45-1.32.61a7.88,7.88,0,0,1,1.29-.83,4.72,4.72,0,0,1,2.27-.34,8.61,8.61,0,0,0,1.52-.08c.45-.48.88-.94,1.37-1.54a7.05,7.05,0,0,1,.71-.75l-.37,0a2.82,2.82,0,0,1-.71,0c-.49-.08-.83-.08-1.32-.15a4.18,4.18,0,0,0-1.45.11c-.33.08-1,.34-1.38.46a8.37,8.37,0,0,1,1.37-.69,4.82,4.82,0,0,1,2.3-.09,6.58,6.58,0,0,0,1.93,0l.22-.19a9.75,9.75,0,0,1,1.35-.87,2,2,0,0,1-.55-.14c-.39-.15-.68-.21-1.07-.35a3.69,3.69,0,0,0-1.23-.15c-.28,0-.92.1-1.22.15a7.7,7.7,0,0,1,1.25-.34,4.16,4.16,0,0,1,1.93.31,6.8,6.8,0,0,0,1.31.33,3.14,3.14,0,0,1,2.17-.16l.26.1a1.86,1.86,0,0,0-1.34.15,7.21,7.21,0,0,0-.74.36,5.25,5.25,0,0,0-.29,2.27,4.84,4.84,0,0,1-.34,2.27,7.27,7.27,0,0,1-.83,1.29c.16-.32.49-1,.61-1.32a4.1,4.1,0,0,0,.26-1.43c0-.5,0-.84,0-1.33a3.49,3.49,0,0,1,0-.72,3,3,0,0,1,.27-.86,12,12,0,0,0-2.19,1.85,7.77,7.77,0,0,0-.28,1.6,4.83,4.83,0,0,1-.59,2.22,8,8,0,0,1-1,1.19c.2-.3.61-1,.76-1.25a4.06,4.06,0,0,0,.42-1.39c0-.49.11-.83.14-1.32a4.22,4.22,0,0,1,.09-.59l-.8.9a12.19,12.19,0,0,1-4.52,3.66,20.43,20.43,0,0,1-3.74,1C297.2,1046.42,299,1045.7,299.74,1045.31Z" transform="translate(-88.75 -76.68)"/><path class="cls-12" d="M309.41,989.27a1.68,1.68,0,0,1-1.56-1.09,45.2,45.2,0,0,1-3.07-12.44c-.34-5,.8-9.66,3.15-12.84a1.67,1.67,0,0,1,2.69,2c-1.89,2.55-2.8,6.42-2.51,10.62A41.89,41.89,0,0,0,311,987a1.67,1.67,0,0,1-1,2.15A1.65,1.65,0,0,1,309.41,989.27Z" transform="translate(-88.75 -76.68)"/><path class="cls-4" d="M235.62,1053.35H167.08v-22H251a1.15,1.15,0,0,1,.89,1.87Z" transform="translate(-88.75 -76.68)"/><path class="cls-4" d="M78.33,976.17h67.95a4.65,4.65,0,0,1,4.65,4.65v0a4.65,4.65,0,0,1-4.65,4.65H78.33a0,0,0,0,1,0,0v-9.29a0,0,0,0,1,0,0Z"/><path class="cls-10" d="M194.38,1211.05s13.28.91,4.48,20.63C198.86,1231.68,183.26,1217.62,194.38,1211.05Z" transform="translate(-88.75 -76.68)"/><path class="cls-9" d="M263.06,1207.89c-.36-3.17-2.5-7.46-6.37-6.59a5,5,0,0,0-3.58,3.59,7.23,7.23,0,0,0,1.15,5.65c.9,1.39,3.12.1,2.22-1.3a4.62,4.62,0,0,1-.84-3.84,2.26,2.26,0,0,1,2.12-1.64c1.1.11,1.85,1.32,2.22,2.23a8.08,8.08,0,0,1,.58,3.21,7.93,7.93,0,0,1-2.18,5.53,5.26,5.26,0,0,1-5.83.88c-5.38-2.39-7.09-9.23-7.63-14.52-.62-6-.08-12-.85-17.94a35,35,0,0,0-1.69-7.32,114.29,114.29,0,0,0-1.93-22.19c2.34-6.37,3.89-13.21.92-19.66-3.07-6.66-10.32-10.09-16.56-13.11l-.69-.33a137.4,137.4,0,0,0-23.27-24.15,59.89,59.89,0,0,0,15-4.92,85.93,85.93,0,0,0,8.1-4.58c5.69-3.58,10.94-6.57,10.94-13.34a15.85,15.85,0,0,0-.27-2.86c-.29-1.53-.52-.83-.52-.83-6.05,8.37-15.15,13.16-25.35,14.78-7.12,1.13-14.38,1.91-21.51.93-.49-.07-1-.15-1.48-.24-16.43-10.75-30.15-16-31.15-16.84v23.38s20.81-4.79,48.44,25a15.54,15.54,0,0,1-.24,6.31c-.59,2.37-1.62,5.29-4,6.37s-4.81-.92-5.67-3a3.18,3.18,0,0,1,.3-3.27,1.11,1.11,0,0,1,1.26-.38.8.8,0,0,1,.33.89,1,1,0,0,0,.36,1.35,1,1,0,0,0,1.35-.35,2.76,2.76,0,0,0-1.73-3.87,3.45,3.45,0,0,0-3.85,2.43c-1.22,3.19,1.29,6.75,4.17,8a5.34,5.34,0,0,0,4.9-.32,8.69,8.69,0,0,0,3.3-3.89,18.58,18.58,0,0,0,1.75-7.84c2,2.24,4,4.65,6,7.26a106.5,106.5,0,0,1,18.14,36.83c-1.18,4.79-3.65,11.1-10.74,17.93-14.82,14.27-38.1,23.08-52.23,37.8-10.65,11.09-15,25.2-11.7,37.83,1.3,4.92,3.92,9.84,9.25,12.72-2.67-7.79-4.93-16.05-2-24.15a32.36,32.36,0,0,1,5.89-9.68,22.52,22.52,0,0,0,3.06,16.18,18,18,0,0,0,7.17,6.3,19.58,19.58,0,0,0,10.49,2.21,11.21,11.21,0,0,0,8-4.73,11.55,11.55,0,0,0,1.78-9,11.29,11.29,0,0,0-6.6-8.28,6.52,6.52,0,0,0-8.54,3.53,1.46,1.46,0,1,0,2.82.78c.76-2,3.45-2.21,5.11-1.4a8.61,8.61,0,0,1,4.33,5.92,8.45,8.45,0,0,1-7.39,10.31,17,17,0,0,1-8.37-1.81,15.22,15.22,0,0,1-6-4.92,19.8,19.8,0,0,1-2.85-15.28,29.7,29.7,0,0,1,1.24-4.33c1.55-1.52,3.17-3,4.82-4.44A211.59,211.59,0,0,1,200,1209.39c7.81-5.11,16.27-9.73,22.8-15.82a63.07,63.07,0,0,0,10.4-12.38,158.07,158.07,0,0,1,.77,41.09,137.84,137.84,0,0,0,7.89-35.19c.31,5.75-.08,11.54,1,17.24a22.25,22.25,0,0,0,3.58,9.27c1.89,2.56,4.55,4.72,7.81,5.06C260.09,1219.28,263.66,1213.14,263.06,1207.89ZM240,1144.35a27.67,27.67,0,0,1-.85,4.22,103.44,103.44,0,0,0-11.5-23c1.28.67,2.54,1.38,3.76,2.15a20.11,20.11,0,0,1,6.74,6.39A16.46,16.46,0,0,1,240,1144.35Z" transform="translate(-88.75 -76.68)"/><path class="cls-10" d="M223.27,1087.65s12.07-12.71,23.9,12.51C247.17,1100.16,220.3,1104.35,223.27,1087.65Z" transform="translate(-88.75 -76.68)"/><path class="cls-10" d="M207.17,1086.17s-16.38-6.26,2.36-26.88C209.53,1059.29,223.72,1082.48,207.17,1086.17Z" transform="translate(-88.75 -76.68)"/><path class="cls-10" d="M241.68,1168.27s12.08-12.71,23.91,12.51C265.59,1180.78,238.72,1185,241.68,1168.27Z" transform="translate(-88.75 -76.68)"/><path class="cls-10" d="M207.77,1191.36s-14.21,9.36-20.52-17.52C187.25,1173.84,214,1176.07,207.77,1191.36Z" transform="translate(-88.75 -76.68)"/><path class="cls-10" d="M218.62,1196.25s9.95,2.6.53,16.81C219.15,1213.06,209.27,1199.82,218.62,1196.25Z" transform="translate(-88.75 -76.68)"/></svg>