<svg id="gen_2" data-name="gen 2" xmlns="http://www.w3.org/2000/svg" xmlns:xlink="http://www.w3.org/1999/xlink" viewBox="0 0 654.81 1281.89"><defs><style>.cls-1{fill:none;}.cls-2{fill:#cb862a;}.cls-3{fill:#7c433e;}.cls-4{fill:#9b6027;}.cls-5{clip-path:url(#clip-path);}.cls-6{fill:#603835;}.cls-7{clip-path:url(#clip-path-2);}.cls-8{fill:#307f4c;}.cls-9{fill:#6b9660;}.cls-10{fill:#cd872a;}.cls-11{fill:#592b29;}.cls-12{fill:#48a075;}.cls-13{fill:#356654;}.cls-14{clip-path:url(#clip-path-3);}.cls-15{clip-path:url(#clip-path-4);}.cls-16{clip-path:url(#clip-path-5);}.cls-17{clip-path:url(#clip-path-6);}.cls-18{clip-path:url(#clip-path-7);}.cls-19{clip-path:url(#clip-path-8);}</style><clipPath id="clip-path" transform="translate(-124.24 -61.99)"><path class="cls-1" d="M251.07,193.91H192V175h72.3a1,1,0,0,1,.77,1.61Z"/></clipPath><clipPath id="clip-path-2" transform="translate(-124.24 -61.99)"><path class="cls-1" d="M251.07,501.27H192v-19h72.3a1,1,0,0,1,.77,1.61Z"/></clipPath><clipPath id="clip-path-3" transform="translate(-124.24 -61.99)"><path class="cls-1" d="M252,822.74H192.38V803.59h73a1,1,0,0,1,.78,1.63Z"/></clipPath><clipPath id="clip-path-4" transform="translate(-124.24 -61.99)"><path class="cls-1" d="M252,1136H192.38v-19.15h73a1,1,0,0,1,.78,1.63Z"/></clipPath><clipPath id="clip-path-5" transform="translate(-124.24 -61.99)"><path class="cls-1" d="M651.27,194.38h59v-19H638a1,1,0,0,0-.77,1.61Z"/></clipPath><clipPath id="clip-path-6" transform="translate(-124.24 -61.99)"><path class="cls-1" d="M651.27,501.73h59v-19H638a1,1,0,0,0-.77,1.62Z"/></clipPath><clipPath id="clip-path-7" transform="translate(-124.24 -61.99)"><path class="cls-1" d="M651.38,823.19H711V804.06H638a1,1,0,0,0-.77,1.63Z"/></clipPath><clipPath id="clip-path-8" transform="translate(-124.24 -61.99)"><path class="cls-1" d="M651.38,1136.15H711V1117H638a1,1,0,0,0-.77,1.63Z"/></clipPath></defs><path class="cls-2" d="M192,179.73h57.61V129.51c1.66-14,8-19.52,8-19.52h-8v-7.68H192Z" transform="translate(-124.24 -61.99)"/><path class="cls-3" d="M192,110.48h69.06s20,.47,11.87-17.23c-5.86-12.81.79-15.86,4.93-16.56a7.39,7.39,0,0,0,4.72,13.07,7.92,7.92,0,0,0,.85-.05h0s12.29-.57,10.31-15.68-17.66-11.73-17.66-11.73-13.7.95-14.83,13.54-46.62,13.87-46.62,13.87H192Z" transform="translate(-124.24 -61.99)"/><rect class="cls-2" x="67.79" y="131.49" width="57.68" height="206.26"/><path class="cls-4" d="M251.07,193.91H192V175h72.3a1,1,0,0,1,.77,1.61Z" transform="translate(-124.24 -61.99)"/><path class="cls-4" d="M67.79,131.49h58.63a3.89,3.89,0,0,1,3.89,3.89v.21a3.89,3.89,0,0,1-3.89,3.89H67.79a0,0,0,0,1,0,0v-8a0,0,0,0,1,0,0Z"/><g class="cls-5"><path class="cls-6" d="M124.57,193.9H264.91V183.27a10.63,10.63,0,0,0-8.77,4.62,10.63,10.63,0,0,0-17.54,0,10.64,10.64,0,0,0-17.55,0,10.63,10.63,0,0,0-17.54,0,10.63,10.63,0,0,0-17.54,0c-.16-.24-.35-.46-.53-.68l-.05-.07c-.19-.23-.4-.45-.61-.66l-.13-.14c-.22-.21-.44-.41-.67-.6l-.09-.08a10.79,10.79,0,0,0-3.45-1.87l-.15-.05c-.29-.09-.59-.16-.9-.23l-.17,0a10.41,10.41,0,0,0-2-.21,10.6,10.6,0,0,0-8,3.63,9.27,9.27,0,0,0-.76,1,10.63,10.63,0,0,0-16.78-1,12.3,12.3,0,0,0-.77,1,10.63,10.63,0,0,0-17.54,0,10.63,10.63,0,0,0-8.77-4.62Z" transform="translate(-124.24 -61.99)"/></g><path class="cls-4" d="M67.79,171.27h1a37.1,37.1,0,0,1,37.1,37.1v78.18a0,0,0,0,1,0,0H67.79a0,0,0,0,1,0,0V171.27A0,0,0,0,1,67.79,171.27Z"/><path class="cls-6" d="M67.79,176.59h.86a31.18,31.18,0,0,1,31.18,31.18v70.9a0,0,0,0,1,0,0h-32a0,0,0,0,1,0,0V176.59A0,0,0,0,1,67.79,176.59Z"/><path class="cls-2" d="M192,485.29h57.61V433c1.66-14.61,8-20.33,8-20.33h-8v-8H192Z" transform="translate(-124.24 -61.99)"/><path class="cls-3" d="M192,417.34h69.06s20,.47,11.87-17.24c-5.86-12.8.79-15.85,4.93-16.56a7.39,7.39,0,0,0,4.72,13.08,7.92,7.92,0,0,0,.85-.05h0s12.29-.56,10.31-15.68-17.66-11.72-17.66-11.72-13.7.94-14.83,13.54-46.62,13.86-46.62,13.86H192Z" transform="translate(-124.24 -61.99)"/><rect class="cls-2" x="67.79" y="438.85" width="57.68" height="249.91"/><path class="cls-4" d="M251.07,504.27H192v-19h72.3a1,1,0,0,1,.77,1.61Z" transform="translate(-124.24 -61.99)"/><path class="cls-4" d="M67.79,441.85h58.63a3.89,3.89,0,0,1,3.89,3.89V446a3.89,3.89,0,0,1-3.89,3.89H67.79a0,0,0,0,1,0,0v-8A0,0,0,0,1,67.79,441.85Z"/><g class="cls-7"><path class="cls-6" d="M124.57,501.26H264.91V490.63a10.64,10.64,0,0,0-8.77,4.61,10.63,10.63,0,0,0-17.54,0,10.64,10.64,0,0,0-17.55,0,10.63,10.63,0,0,0-17.54,0,10.63,10.63,0,0,0-17.54,0c-.16-.24-.35-.46-.53-.68l-.05-.07c-.19-.23-.4-.45-.61-.66l-.13-.14-.67-.61-.09-.07a10.6,10.6,0,0,0-3.45-1.87l-.15-.05a8.46,8.46,0,0,0-.9-.23l-.17,0a10.41,10.41,0,0,0-2-.22,10.6,10.6,0,0,0-8,3.64,10.26,10.26,0,0,0-.76,1,10.63,10.63,0,0,0-16.78-1,12.3,12.3,0,0,0-.77,1,10.63,10.63,0,0,0-17.54,0,10.63,10.63,0,0,0-8.77-4.62Z" transform="translate(-124.24 -61.99)"/></g><path class="cls-4" d="M67.79,478.63h1a37.1,37.1,0,0,1,37.1,37.1V593.9a0,0,0,0,1,0,0H67.79a0,0,0,0,1,0,0V478.63A0,0,0,0,1,67.79,478.63Z"/><path class="cls-6" d="M67.79,483.95h.86a31.18,31.18,0,0,1,31.18,31.18V586a0,0,0,0,1,0,0h-32a0,0,0,0,1,0,0V483.95A0,0,0,0,1,67.79,483.95Z"/><path class="cls-8" d="M250.75,139.38a8,8,0,0,0-.41-2c-.36-1-.54-.56-.54-.56-5.32,6-13.74,9.68-23.38,11.19-3.08.49-6.18.92-9.31,1.21h0c-9.67.77-22.89-3-29.46-5.13l-.38-.21.24.16c-2.42-.79-3.89-1.34-3.89-1.34v3.68l-1.23,11.18c15.62,4,33.92-.61,33.92-.61l.05,0a72,72,0,0,0,17.19-4.47c2.6-1.05,5.07-2.23,7.49-3.48C246.27,146.32,251.11,144.05,250.75,139.38Z" transform="translate(-124.24 -61.99)"/><path class="cls-9" d="M236.82,146.11s-10.84.22-4.89-16C231.93,130.15,245.46,140.15,236.82,146.11Z" transform="translate(-124.24 -61.99)"/><path class="cls-9" d="M249.05,145.31s-.91-10.81,15.61-5.91C264.66,139.4,255.55,153.55,249.05,145.31Z" transform="translate(-124.24 -61.99)"/><path class="cls-9" d="M223.25,154.23s10.25-8.24,16.53,11.7C239.78,165.93,219.38,166.36,223.25,154.23Z" transform="translate(-124.24 -61.99)"/><path class="cls-9" d="M215.63,642.09s11.44.78,3.86,17.77C219.49,659.86,206.05,647.75,215.63,642.09Z" transform="translate(-124.24 -61.99)"/><path class="cls-8" d="M274.78,639.37c-.31-2.73-2.15-6.43-5.48-5.68a4.35,4.35,0,0,0-3.09,3.1,6.2,6.2,0,0,0,1,4.86c.76,1.19,2.68.08,1.91-1.12a4,4,0,0,1-.73-3.31,2,2,0,0,1,1.83-1.41c.95.09,1.59,1.14,1.91,1.92a7,7,0,0,1,.5,2.77,6.85,6.85,0,0,1-1.88,4.76,4.52,4.52,0,0,1-5,.75c-4.63-2-6.1-8-6.57-12.5-.54-5.14-.07-10.33-.73-15.45a30.48,30.48,0,0,0-1.46-6.3,98.78,98.78,0,0,0-1.66-19.12c2-5.48,3.35-11.38.79-16.93-2.64-5.74-8.89-8.69-14.26-11.29l-.6-.28a117.9,117.9,0,0,0-20-20.8,51.51,51.51,0,0,0,12.9-4.24,71.49,71.49,0,0,0,7-4c4.9-3.08,9.42-5.65,9.42-11.48a13.53,13.53,0,0,0-.23-2.47c-.25-1.31-.44-.72-.44-.72-5.22,7.22-13.05,11.34-21.84,12.74-6.13,1-12.38,1.64-18.53.79-.42,0-.85-.12-1.27-.2-14.16-9.26-26-13.8-26.83-14.5v20.14s17.92-4.13,41.72,21.51a13.41,13.41,0,0,1-.21,5.44c-.5,2-1.39,4.56-3.46,5.49s-4.14-.8-4.88-2.58a2.71,2.71,0,0,1,.26-2.81.94.94,0,0,1,1.08-.33.7.7,0,0,1,.29.77.85.85,0,1,0,1.47.85,2.38,2.38,0,0,0-1.49-3.33,3,3,0,0,0-3.32,2.09c-1.05,2.76,1.11,5.82,3.59,6.9a4.6,4.6,0,0,0,4.22-.28,7.42,7.42,0,0,0,2.84-3.35,16,16,0,0,0,1.52-6.75q2.55,2.89,5.19,6.25A91.91,91.91,0,0,1,245.81,601c-1,4.12-3.14,9.56-9.25,15.45-12.77,12.29-32.81,19.87-45,32.55-9.18,9.55-12.94,21.7-10.08,32.58,1.11,4.24,3.38,8.47,8,11-2.3-6.7-4.24-13.82-1.74-20.79a27.55,27.55,0,0,1,5.07-8.34,19.48,19.48,0,0,0,2.63,13.94,15.56,15.56,0,0,0,6.18,5.42,16.87,16.87,0,0,0,9,1.91,9.75,9.75,0,0,0,6.86-4.08,10,10,0,0,0,1.52-7.76,9.7,9.7,0,0,0-5.68-7.13,5.62,5.62,0,0,0-7.36,3,1.28,1.28,0,0,0,.88,1.56,1.31,1.31,0,0,0,1.56-.89c.64-1.72,3-1.9,4.4-1.2a7.45,7.45,0,0,1,3.73,5.1,7.29,7.29,0,0,1-6.37,8.88,14.82,14.82,0,0,1-7.21-1.56,13.19,13.19,0,0,1-5.15-4.24,17,17,0,0,1-2.45-13.16,24,24,0,0,1,1.06-3.73c1.33-1.31,2.74-2.58,4.16-3.83a182.24,182.24,0,0,1,19.87-15.05c6.73-4.41,14-8.38,19.64-13.62a54.88,54.88,0,0,0,9-10.67,136.11,136.11,0,0,1,.66,35.39,118.49,118.49,0,0,0,6.79-30.3c.27,4.95-.06,9.93.82,14.84a19.08,19.08,0,0,0,3.09,8,9.94,9.94,0,0,0,6.72,4.36C272.22,649.17,275.3,643.89,274.78,639.37Zm-19.9-54.73a23.94,23.94,0,0,1-.73,3.64,89.25,89.25,0,0,0-9.91-19.86c1.1.58,2.19,1.19,3.24,1.86a17.25,17.25,0,0,1,5.8,5.5A14.11,14.11,0,0,1,254.88,584.64Z" transform="translate(-124.24 -61.99)"/><path class="cls-9" d="M240.51,535.81s10.4-10.95,20.59,10.77C261.1,546.58,238,550.19,240.51,535.81Z" transform="translate(-124.24 -61.99)"/><path class="cls-9" d="M226.64,534.53s-14.1-5.39,2-23.15C228.68,511.38,240.9,531.36,226.64,534.53Z" transform="translate(-124.24 -61.99)"/><path class="cls-9" d="M256.37,605.24S266.77,594.3,277,616C277,616,253.82,619.63,256.37,605.24Z" transform="translate(-124.24 -61.99)"/><path class="cls-9" d="M227.16,625.13s-12.24,8.06-17.67-15.09C209.49,610,232.53,612,227.16,625.13Z" transform="translate(-124.24 -61.99)"/><path class="cls-9" d="M236.51,629.34s8.57,2.24.45,14.48C237,643.82,228.45,632.42,236.51,629.34Z" transform="translate(-124.24 -61.99)"/><path class="cls-8" d="M250.57,447.66a8.05,8.05,0,0,0-.41-2c-.36-1-.53-.55-.53-.55-5.33,6-13.74,9.67-23.39,11.19-3.07.49-6.18.92-9.3,1.21h0c-9.66.77-22.88-3-29.45-5.13l-.38-.21a2,2,0,0,0,.24.16c-2.42-.79-3.9-1.34-3.9-1.34v3.68l-1.22,11.18c15.62,4,33.92-.61,33.92-.61l0,0a72.1,72.1,0,0,0,17.2-4.47c2.59-1,5.07-2.23,7.48-3.48C246.09,454.6,250.94,452.33,250.57,447.66Z" transform="translate(-124.24 -61.99)"/><path class="cls-9" d="M236.65,454.39s-10.84.21-4.9-16C231.75,438.43,245.28,448.43,236.65,454.39Z" transform="translate(-124.24 -61.99)"/><path class="cls-9" d="M248.87,453.59s-.91-10.81,15.61-5.91C264.48,447.68,255.37,461.82,248.87,453.59Z" transform="translate(-124.24 -61.99)"/><path class="cls-9" d="M223.08,462.51s10.25-8.24,16.53,11.7C239.61,474.21,219.2,474.64,223.08,462.51Z" transform="translate(-124.24 -61.99)"/><path class="cls-10" d="M192,763h57.51v4.9h45.92s-42.59,4.32-46.14,24.24v20H192Z" transform="translate(-124.24 -61.99)"/><path class="cls-3" d="M370.52,732.57c-2-15-18-11.65-18-11.65s-14,.94-15.15,13.45-47.63,13.78-47.63,13.78H267.07v0H197.38v0H148.25v20.69H337.13s20.4.47,12.13-17.12c-6-12.73.81-15.76,5-16.46a7.25,7.25,0,0,0-2.73,5.65,7.45,7.45,0,0,0,7.55,7.35,6.15,6.15,0,0,0,.87-.06h0S372.54,747.59,370.52,732.57Z" transform="translate(-124.24 -61.99)"/><path class="cls-2" d="M321.17,826.14H298l5.21,24.74a3.76,3.76,0,0,0,3.68,3h20.37a3.75,3.75,0,0,0,3.67-3l5.22-24.74Z" transform="translate(-124.24 -61.99)"/><polyline class="cls-6" points="209.85 773.87 211.9 762.9 196.93 762.9 188.72 762.9 173.75 762.9 175.8 773.87"/><path class="cls-11" d="M298.81,818.76a1.52,1.52,0,0,1-.51-.09,1.45,1.45,0,0,1-.86-1.87l18.45-49.72a1.46,1.46,0,0,1,2.74,1l-18.45,49.72A1.46,1.46,0,0,1,298.81,818.76Z" transform="translate(-124.24 -61.99)"/><path class="cls-11" d="M335.71,818.76a1.46,1.46,0,0,1-1.37-1l-18.45-49.72a1.46,1.46,0,0,1,2.74-1l18.45,49.72a1.46,1.46,0,0,1-.86,1.87A1.52,1.52,0,0,1,335.71,818.76Z" transform="translate(-124.24 -61.99)"/><path class="cls-2" d="M165.5,754.56h54.64a1.17,1.17,0,0,1,1.17,1.17v7.9a7.38,7.38,0,0,1-7.38,7.38H171.71a7.38,7.38,0,0,1-7.38-7.38v-7.9A1.17,1.17,0,0,1,165.5,754.56Z"/><path class="cls-8" d="M330.5,811.36a8.8,8.8,0,0,1,4.57-3.86,7.77,7.77,0,0,1,3.92,0A14.81,14.81,0,0,1,345,811a21.23,21.23,0,0,0,5.66,3.92c.41.17.83.31,1.26.45-2.84.68-5.6,1.68-8.44,2.37a18.06,18.06,0,0,1-8.45.36,9.94,9.94,0,0,1-2.89-1.26,5.05,5.05,0,0,1-2.58-3.44,2.13,2.13,0,0,1,.9-2.06" transform="translate(-124.24 -61.99)"/><path class="cls-12" d="M344.87,815.05a12.16,12.16,0,0,1-4-1.22l-.84-.45a3.15,3.15,0,0,0,.74-.22c.52-.23.9-.33,1.42-.54a4.87,4.87,0,0,1,1.64-.28c.38,0,1.25.08,1.65.13a8.9,8.9,0,0,0-1.7-.38,5.44,5.44,0,0,0-2.58.53,10.54,10.54,0,0,1-1.65.52c-.68-.34-1.32-.66-2.08-1.11a8.06,8.06,0,0,0-1.06-.53c.14,0,.28-.06.41-.09a3.94,3.94,0,0,0,.76-.32c.49-.28.85-.42,1.35-.69a4.86,4.86,0,0,1,1.6-.45c.38,0,1.25-.05,1.66,0a9.29,9.29,0,0,0-1.74-.21,5.59,5.59,0,0,0-2.5.81,7.19,7.19,0,0,1-2.06.79l-.31-.1a9.68,9.68,0,0,0-1.79-.4,3.43,3.43,0,0,0,.54-.37c.36-.32.64-.5,1-.8a4,4,0,0,1,1.25-.65c.3-.09,1-.25,1.37-.32a8.14,8.14,0,0,0-1.48.13,4.58,4.58,0,0,0-1.94,1.09,7.87,7.87,0,0,1-1.28.88,3.5,3.5,0,0,0-2.38.68l-.24.21a2.13,2.13,0,0,1,1.49-.37,6,6,0,0,1,.94.1,5.87,5.87,0,0,1,1.2,2.31,5.69,5.69,0,0,0,1.26,2.3,8.45,8.45,0,0,0,1.4,1.06c-.3-.28-.92-.89-1.17-1.18a4.47,4.47,0,0,1-.84-1.43c-.18-.54-.35-.89-.51-1.43a3.75,3.75,0,0,0-1-1.56,13.29,13.29,0,0,1,3.07,1.11,8.79,8.79,0,0,1,.93,1.6,5.62,5.62,0,0,0,1.52,2.15,8.75,8.75,0,0,0,1.51.88c-.33-.24-1-.77-1.3-1a4.88,4.88,0,0,1-1-1.32c-.23-.52-.44-.85-.67-1.37a3.5,3.5,0,0,0-.33-.59l1.22.64c2,1.06,4.05,2.13,6.28,2.15a23.21,23.21,0,0,0,4.41-.43C348,815.24,345.83,815.17,344.87,815.05Z" transform="translate(-124.24 -61.99)"/><path class="cls-13" d="M302.82,817.26a8.86,8.86,0,0,0-5-3.33,7.68,7.68,0,0,0-3.89.45,14.81,14.81,0,0,0-5.63,4.15,21.08,21.08,0,0,1-5.19,4.53c-.39.21-.79.4-1.2.59,2.9.36,5.75,1.05,8.65,1.41a18.12,18.12,0,0,0,8.44-.57,10.15,10.15,0,0,0,2.73-1.57,5.06,5.06,0,0,0,2.18-3.71,2.13,2.13,0,0,0-1.12-2" transform="translate(-124.24 -61.99)"/><path class="cls-12" d="M301.55,816.21a3.7,3.7,0,0,0-1.93-.2c-.35-.12-.74-.24-1-.29a5.3,5.3,0,0,0-2.49.23,5.72,5.72,0,0,1-2.49.27.81.81,0,0,1-.51-.26l.07.09a1.93,1.93,0,0,0,1.7.5,3.27,3.27,0,0,0,.76-.13c.52-.16.89-.22,1.4-.36a4.61,4.61,0,0,1,1.58-.1l.63.11a9.24,9.24,0,0,0-2.38.85,10.4,10.4,0,0,0-1.69,1.05c-.14.12-.27.22-.41.32a6.42,6.42,0,0,1-2,.18,4.94,4.94,0,0,0-2.27.34,6.44,6.44,0,0,0-1.16.8c.29-.15.94-.47,1.23-.59a4.16,4.16,0,0,1,1.43-.25c.51,0,.85,0,1.37,0a3.54,3.54,0,0,0,.73,0l.08,0c-.64.46-1.25.86-2,1.41l-.31.21a7.85,7.85,0,0,1-1.62.09,4.81,4.81,0,0,0-2.27.34,6.82,6.82,0,0,0-1.16.8c.29-.15.94-.47,1.24-.59a4.34,4.34,0,0,1,1.42-.26c.51,0,.86,0,1.37,0a2.84,2.84,0,0,0,.41,0,14.23,14.23,0,0,1-2.77,1.2c-.91.29-3.05.77-4.05,1a26.82,26.82,0,0,0,4.37-.49,10.12,10.12,0,0,0,2.9-1.13c-.22.34-.43.59-.68,1a4.82,4.82,0,0,1-1.14,1.09c-.3.2-1,.6-1.37.78a8.91,8.91,0,0,0,1.55-.61,5.33,5.33,0,0,0,1.74-1.79c.2-.29.41-.58.64-.86.55-.34,1.08-.71,1.6-1.09h0l.47-.34a1.74,1.74,0,0,0-.11.18,3,3,0,0,0-.33.7c-.17.51-.34.84-.52,1.35a4.59,4.59,0,0,1-.84,1.34c-.24.27-.85.83-1.14,1.09a9.11,9.11,0,0,0,1.36-1,5.37,5.37,0,0,0,1.25-2.16,5.68,5.68,0,0,1,1.17-2.13l.4-.29a.41.41,0,0,1,.16,0h-.12c.46-.32.93-.63,1.41-.91a3.74,3.74,0,0,0-.35.89,4.46,4.46,0,0,0-.14.89c0,.62-.1,1-.14,1.66a5.15,5.15,0,0,1-.49,1.75c-.18.37-.67,1.19-.91,1.57a9.77,9.77,0,0,0,1.19-1.51,6,6,0,0,0,.68-2.79,6.65,6.65,0,0,1,.59-2.7,10,10,0,0,1,2.57-1,2.39,2.39,0,0,1,1.52,0Z" transform="translate(-124.24 -61.99)"/><path class="cls-13" d="M308.82,815.19a8.73,8.73,0,0,0-5.24.4,7.33,7.33,0,0,0-2.6,2.16,11.4,11.4,0,0,0-2.06,5.24,15.75,15.75,0,0,1-1.56,5.25c-.18.31-.38.62-.58.94,2.27-1.19,4.68-2.16,7-3.35a17.58,17.58,0,0,0,5.85-4.44,8,8,0,0,0,1.21-2.28,3.41,3.41,0,0,0-.22-3.29,1.78,1.78,0,0,0-1.76-.63" transform="translate(-124.24 -61.99)"/><path class="cls-12" d="M307.38,815.17a3.71,3.71,0,0,0-1.49.82c-.32.09-.66.21-.86.29a5,5,0,0,0-1.69,1.35,5.29,5.29,0,0,1-1.67,1.37.81.81,0,0,1-.5.09l.1,0a1.94,1.94,0,0,0,1.47-.52,3.54,3.54,0,0,0,.49-.45c.3-.35.54-.56.84-.9a4.36,4.36,0,0,1,1.1-.82c.12-.07.31-.15.51-.24a8.69,8.69,0,0,0-2,3.12l-.15.39a5.85,5.85,0,0,1-1.35,1.07,4.65,4.65,0,0,0-1.48,1.31,5,5,0,0,0-.45,1,10.42,10.42,0,0,1,.61-1,4.14,4.14,0,0,1,.9-.85c.38-.24.62-.42,1-.66a2.82,2.82,0,0,0,.51-.38l.05,0c-.24.59-.49,1.13-.75,1.82,0,.09-.08.18-.12.27a7.54,7.54,0,0,1-1.13.84,4.67,4.67,0,0,0-1.49,1.31,4.91,4.91,0,0,0-.44,1c.13-.23.45-.74.61-1a3.72,3.72,0,0,1,.9-.85c.38-.24.62-.43,1-.66l.3-.21a13.36,13.36,0,0,1-1.43,2.08c-.52.6-1.84,1.94-2.47,2.54a24.46,24.46,0,0,0,2.93-2.42,8.78,8.78,0,0,0,1.56-2.08c0,.31,0,.57,0,.91a3.42,3.42,0,0,1-.29,1.21c-.12.27-.46.86-.62,1.13a8,8,0,0,0,.83-1.11,3.83,3.83,0,0,0,.39-1.93c0-.27,0-.55,0-.83.24-.47.44-1,.64-1.43l0,0h0l.17-.42v.15a2.36,2.36,0,0,0,.11.59c.12.39.16.67.28,1.06a3.41,3.41,0,0,1,0,1.22c0,.28-.21.91-.3,1.21a7.36,7.36,0,0,0,.51-1.24,3.56,3.56,0,0,0-.15-1.91,3.93,3.93,0,0,1-.19-1.86c.05-.12.1-.24.16-.36a.32.32,0,0,1,.1-.1l-.09.06c.18-.42.37-.83.58-1.24a2.39,2.39,0,0,0,.18.71,2.69,2.69,0,0,0,.33.6c.29.39.44.68.71,1.07a3.37,3.37,0,0,1,.5,1.29c.05.32.09,1,.11,1.4a7.49,7.49,0,0,0,.12-1.49,4.12,4.12,0,0,0-.86-2,4.46,4.46,0,0,1-.89-1.91,8.66,8.66,0,0,1,1.37-1.86,2.31,2.31,0,0,1,1.11-.72Z" transform="translate(-124.24 -61.99)"/><path class="cls-8" d="M307.93,812.55a10.29,10.29,0,0,0-4.49-5.44,9.09,9.09,0,0,0-4.54-.81,17.59,17.59,0,0,0-7.76,2.79c-2.29,1.33-4.55,2.77-7.38,3.35-.51.11-1,.19-1.55.27,3.15,1.38,6.13,3.12,9.28,4.51s6.58,2.43,9.72,2.2a11.71,11.71,0,0,0,3.61-.85,6,6,0,0,0,3.72-3.45,2.49,2.49,0,0,0-.61-2.57" transform="translate(-124.24 -61.99)"/><path class="cls-12" d="M306.16,811a4.09,4.09,0,0,0-2.21-.85l0,0-.05,0a8.78,8.78,0,0,0-1,0,8.42,8.42,0,0,1-2.06-1.15,6,6,0,0,0-2.57-1.24,7.77,7.77,0,0,0-1.74,0c.41,0,1.29.16,1.68.25a5.41,5.41,0,0,1,1.63.73c.52.37.89.57,1.4,1a4.37,4.37,0,0,0,.78.45l.07,0a9.88,9.88,0,0,0-1.11.16,11.4,11.4,0,0,0-2.16.63l-.19.07a9.61,9.61,0,0,1-1.88-.81,6.07,6.07,0,0,0-2.7-.89,7.6,7.6,0,0,0-1.73.25c.41,0,1.3,0,1.69,0a5.23,5.23,0,0,1,1.72.51c.56.29,1,.45,1.51.77a4.58,4.58,0,0,0,.83.35h0c-1.08.41-2,.68-3.18,1.14a10,10,0,0,1-1.43.42,7.33,7.33,0,0,1-1.42-.61,4.49,4.49,0,0,0-2-.65,5.33,5.33,0,0,0-1.27.18c.31,0,1,0,1.25,0a3.86,3.86,0,0,1,1.25.37c.41.22.7.34,1.11.57a3.43,3.43,0,0,0,.52.23,16.66,16.66,0,0,1-2.57.27c-1.06,0-3.51-.12-4.65-.21a29,29,0,0,0,4.84.84,15.44,15.44,0,0,0,6.39-1.22,4.43,4.43,0,0,0-.47.51c-.43.56-.78.9-1.22,1.45a6.07,6.07,0,0,1-1.61,1.31c-.42.23-1.42.67-1.89.86a11.22,11.22,0,0,0,2.1-.62,6.9,6.9,0,0,0,2.48-2.15,10.11,10.11,0,0,1,1.78-1.8l1.4-.49h0c.52-.17,1-.33,1.57-.47a4.19,4.19,0,0,0-.69.88,5.14,5.14,0,0,0-.43.92c-.22.67-.44,1.11-.68,1.77a5.76,5.76,0,0,1-1.1,1.76,20.29,20.29,0,0,1-1.49,1.43,10.42,10.42,0,0,0,1.77-1.27,6.79,6.79,0,0,0,1.64-2.84,7.67,7.67,0,0,1,1.53-2.79,11.46,11.46,0,0,1,2.48-.32,3.31,3.31,0,0,0-1.22,1.27,4.57,4.57,0,0,0-.44.92c-.22.67-.44,1.11-.68,1.77a6,6,0,0,1-1.09,1.76c-.32.36-1.12,1.1-1.5,1.43a10.91,10.91,0,0,0,1.78-1.27,6.9,6.9,0,0,0,1.64-2.84,7.28,7.28,0,0,1,1.6-2.86,1,1,0,0,1,.22-.18h.35a2.58,2.58,0,0,1,1.62.5Z" transform="translate(-124.24 -61.99)"/><path class="cls-8" d="M329.58,815.61a6.5,6.5,0,0,1,4.27-1.32,5.71,5.71,0,0,1,2.69,1.14,11.18,11.18,0,0,1,3.14,4.18,15.48,15.48,0,0,0,2.75,4.35c.23.24.48.46.73.68-2.15-.36-4.34-.48-6.49-.84a13.54,13.54,0,0,1-5.92-2.21,7.46,7.46,0,0,1-1.62-1.71,3.74,3.74,0,0,1-.77-3.12,1.57,1.57,0,0,1,1.22-1.15" transform="translate(-124.24 -61.99)"/><path class="cls-12" d="M338.39,822.34a8.93,8.93,0,0,1-2.41-2l-.44-.54a3.68,3.68,0,0,0,.57.06c.42,0,.71,0,1.14,0a3.47,3.47,0,0,1,1.2.29c.26.11.84.42,1.1.57a6.19,6.19,0,0,0-1.06-.76,4,4,0,0,0-1.92-.39,6.88,6.88,0,0,1-1.29-.12c-.37-.44-.72-.84-1.11-1.37a5,5,0,0,0-.58-.67l.32.05a3.11,3.11,0,0,0,.61,0c.42-.05.71,0,1.13-.07a3.58,3.58,0,0,1,1.23.15c.27.08.88.33,1.15.45a6.59,6.59,0,0,0-1.13-.64,4.06,4.06,0,0,0-2-.18,5.29,5.29,0,0,1-1.64-.05l-.19-.17a6.76,6.76,0,0,0-1.11-.79,2.46,2.46,0,0,0,.47-.1c.34-.11.59-.15.93-.26a3.26,3.26,0,0,1,1.05-.08c.24,0,.78.13,1,.18a5.69,5.69,0,0,0-1.06-.34,3.46,3.46,0,0,0-1.65.18,5.51,5.51,0,0,1-1.14.24,2.67,2.67,0,0,0-1.83-.24l-.23.08a1.55,1.55,0,0,1,1.13.18,6.14,6.14,0,0,1,.62.34,4.56,4.56,0,0,1,.16,1.95,4,4,0,0,0,.19,2,7,7,0,0,0,.65,1.13c-.12-.28-.37-.88-.46-1.15a3.57,3.57,0,0,1-.16-1.23c0-.42,0-.71.07-1.13a3.1,3.1,0,0,0,0-.61,2.45,2.45,0,0,0-.2-.75,9.7,9.7,0,0,1,1.79,1.66,6.36,6.36,0,0,1,.17,1.38,4.18,4.18,0,0,0,.42,1.92,7.93,7.93,0,0,0,.78,1c-.15-.26-.48-.83-.59-1.09a3.46,3.46,0,0,1-.3-1.21c0-.42-.07-.71-.07-1.13a2.14,2.14,0,0,0-.06-.5l.65.79a10.36,10.36,0,0,0,3.7,3.31,16.78,16.78,0,0,0,3.16,1C340.51,823.39,339,822.7,338.39,822.34Z" transform="translate(-124.24 -61.99)"/><path class="cls-13" d="M323.37,813.5a11.15,11.15,0,0,1,7.25-.79,6.41,6.41,0,0,1,3.22,2.6c1.49,2.24,1.75,4.91,1.84,7.49s.09,5.23,1.13,7.64c.19.44.41.86.64,1.29-3-1.21-6.14-2.05-9.1-3.25s-5.76-2.87-7.3-5.24a9.1,9.1,0,0,1-1.25-3.17,6.35,6.35,0,0,1,1-5.12,3.43,3.43,0,0,1,2.6-1.45" transform="translate(-124.24 -61.99)"/><path class="cls-12" d="M330.67,824.21l.3.17a2.71,2.71,0,0,0,.6.22c.43.1.72.22,1.15.33a3.71,3.71,0,0,1,1.16.59c.24.18.75.64,1,.86a7.4,7.4,0,0,0-.89-1,4.37,4.37,0,0,0-1.87-.88,5,5,0,0,1-1.7-.7,10.08,10.08,0,0,1-.87-1.82l-.21-.61.24.09a3.18,3.18,0,0,0,.74.17c.53,0,.88.14,1.41.21a4.54,4.54,0,0,1,1.47.51c.31.18,1,.64,1.29.86a9,9,0,0,0-1.22-1.09,5.28,5.28,0,0,0-2.35-.74,8.23,8.23,0,0,1-1.72-.37c-.31-.82-.6-1.53-.9-2.47-.07-.23-.16-.47-.26-.71a3.48,3.48,0,0,0,.72.31,3.68,3.68,0,0,0,.8.17c.56.05.94.14,1.5.21a4.59,4.59,0,0,1,1.58.53c.33.18,1.06.66,1.39.9a9.07,9.07,0,0,0-1.32-1.15,5.58,5.58,0,0,0-2.51-.76,6.37,6.37,0,0,1-2.33-.6c-.12-.25-.24-.5-.37-.73a12.09,12.09,0,0,0-.81-1.25,5.29,5.29,0,0,0,.57.15,3.64,3.64,0,0,0,.81.07c.56,0,.95,0,1.52,0a4.9,4.9,0,0,1,1.63.34c.35.13,1.13.53,1.49.72a9.46,9.46,0,0,0-1.45-1,5.67,5.67,0,0,0-2.59-.44,6.88,6.88,0,0,1-2.31-.27,4.22,4.22,0,0,0-2.29-1.53l-.29,0a2.5,2.5,0,0,1,1.26.84,9.3,9.3,0,0,1,.84,1.06l0,.12a5.87,5.87,0,0,1-1.32,2.27,5.48,5.48,0,0,0-1.3,2.29,9.23,9.23,0,0,0-.15,1.74c.08-.4.26-1.25.38-1.62a5,5,0,0,1,.77-1.47c.36-.43.57-.76.94-1.19a3.79,3.79,0,0,0,.46-.67,2.79,2.79,0,0,0,.38-1.26,16,16,0,0,1,1.55,3.23,6.37,6.37,0,0,1-1,2.26,5.5,5.5,0,0,0-1,2.43,9.18,9.18,0,0,0,.06,1.74c0-.4.11-1.27.18-1.65a4.72,4.72,0,0,1,.58-1.55c.3-.48.47-.83.79-1.3a3.85,3.85,0,0,0,.37-.73,4.25,4.25,0,0,0,.2-.72l.27.75c.34.94.69,1.89,1.12,2.81-.05.33-.13.67-.21,1a4.52,4.52,0,0,0-.16,2.09,7.71,7.71,0,0,0,.48,1.32c-.08-.32-.23-1-.27-1.3a3.82,3.82,0,0,1,.06-1.33c.11-.43.15-.74.28-1.18,0,0,0-.1,0-.16A10,10,0,0,0,331,825.7a26.77,26.77,0,0,0,3.34,2.87c-.72-.73-2.22-2.33-2.81-3.08A13.7,13.7,0,0,1,330.67,824.21Z" transform="translate(-124.24 -61.99)"/><path class="cls-8" d="M317.79,812.65c-2.41-.48-6.84.26-8.82,1.74a8.05,8.05,0,0,0-2.82,4.25c-.92,3.19-.23,6.41.61,9.48s1.83,6.17,1.49,9.39c-.06.58-.16,1.16-.27,1.74,3-2.51,6.46-4.66,9.49-7.17s5.71-5.49,6.64-8.85a11,11,0,0,0,.3-4.18,7.8,7.8,0,0,0-3-5.66,4.15,4.15,0,0,0-3.58-.74" transform="translate(-124.24 -61.99)"/><path class="cls-12" d="M320.28,820.42a7.83,7.83,0,0,0-2.14-3,8.17,8.17,0,0,1-2.18-3,1.54,1.54,0,0,1-.09-.37,2.79,2.79,0,0,1,1.08-1.26l-.33.17a4.77,4.77,0,0,0-1.81,2,6.84,6.84,0,0,1-2.59.87,6,6,0,0,0-2.66,1,7.49,7.49,0,0,0-1.2,1.26,16.47,16.47,0,0,1,1.35-1,5.07,5.07,0,0,1,1.65-.66c.62-.11,1-.23,1.65-.33a4,4,0,0,0,.87-.24,4.27,4.27,0,0,0,.68-.33,11.93,11.93,0,0,0-.79,2.53c-.08.36-.14.75-.19,1.14l-.06.05a6.29,6.29,0,0,1-2.69.93,6,6,0,0,0-2.66,1,8.38,8.38,0,0,0-1.2,1.26c.32-.26,1-.81,1.35-1a5.16,5.16,0,0,1,1.65-.66c.62-.11,1-.24,1.66-.33a4.74,4.74,0,0,0,.86-.24,3,3,0,0,0,1.06-.64,8.46,8.46,0,0,0-.05,1c0,1-.06,1.89-.12,2.78a10.23,10.23,0,0,1-1.71,1,5.94,5.94,0,0,0-2.31,1.64,8.13,8.13,0,0,0-.83,1.53c.24-.34.77-1,1-1.34A5.43,5.43,0,0,1,311,825c.57-.27.93-.5,1.51-.75a4.9,4.9,0,0,0,.77-.46l.09-.07c0,.39,0,.81-.05,1.26a16.5,16.5,0,0,1-1.08,4.93c-.42,1.09-1.6,3.52-2.16,4.65a34,34,0,0,0,2.86-4.6,12.11,12.11,0,0,0,.8-2.12h0c.2.63.27,1.08.46,1.72a5.73,5.73,0,0,1,.13,1.94c0,.44-.24,1.44-.35,1.91a10.15,10.15,0,0,0,.65-1.95,6.37,6.37,0,0,0-.31-3.05,14.11,14.11,0,0,1-.36-1.53,19.36,19.36,0,0,0,.31-2.16h0c0-.42.07-.83.09-1.25.05.15.11.3.17.44a4.24,4.24,0,0,0,.49.82c.4.53.62.93,1,1.46a5.7,5.7,0,0,1,.79,1.78c.1.43.26,1.45.32,1.92a11.71,11.71,0,0,0-.05-2,6.48,6.48,0,0,0-1.33-2.77,7.2,7.2,0,0,1-1.35-2.62c0-.11,0-.21,0-.32s0-.3,0-.46,0,0,0-.06l0,0c0-.93.08-1.87.18-2.8a5.21,5.21,0,0,0,.67,1.28,5.65,5.65,0,0,0,.81,1c.64.58,1,1,1.64,1.65a7.51,7.51,0,0,1,1.41,2.12c.24.53.66,1.81.85,2.4a13.93,13.93,0,0,0-.53-2.63,8.44,8.44,0,0,0-2.34-3.27,9,9,0,0,1-2.4-3.24v0a13.52,13.52,0,0,1,1-3.7,3.59,3.59,0,0,0,.74,1.94,4.68,4.68,0,0,0,.74.87c.58.53.92,1,1.49,1.5a6.87,6.87,0,0,1,1.28,1.93c.22.49.61,1.64.77,2.19A13.06,13.06,0,0,0,320.28,820.42Z" transform="translate(-124.24 -61.99)"/><path class="cls-13" d="M323.6,811.88a10,10,0,0,1-2.85-5.81,5.75,5.75,0,0,1,1.2-3.47,12.43,12.43,0,0,1,5.7-3.78c2.12-.86,4.33-1.65,6-3.24.3-.29.59-.6.88-.92-.12,2.83.14,5.73,0,8.56s-.65,5.67-2.17,7.66a7.82,7.82,0,0,1-2.26,2,5.66,5.66,0,0,1-4.57.73,3,3,0,0,1-2-1.73" transform="translate(-124.24 -61.99)"/><path class="cls-12" d="M330.33,802.57c0-.1,0-.2.05-.3a2.7,2.7,0,0,0,0-.57c-.05-.39,0-.66-.08-1.05a3.38,3.38,0,0,1,.15-1.15c.07-.25.31-.81.42-1.07a5.8,5.8,0,0,0-.6,1.06,3.81,3.81,0,0,0-.17,1.81,4.68,4.68,0,0,1-.07,1.63,8.91,8.91,0,0,1-1.26,1.27l-.44.37v-.23a3.16,3.16,0,0,0-.08-.68c-.12-.45-.15-.77-.25-1.23a4,4,0,0,1,0-1.38c.06-.31.24-1,.33-1.33a7.82,7.82,0,0,0-.54,1.34,4.61,4.61,0,0,0,.09,2.18,6.79,6.79,0,0,1,.2,1.55c-.58.5-1.09,1-1.79,1.49-.16.12-.33.27-.51.43a2.71,2.71,0,0,0,.05-.69,3.47,3.47,0,0,0-.1-.72c-.13-.48-.17-.83-.28-1.32a4.07,4.07,0,0,1,0-1.47c0-.33.23-1.08.33-1.43a7.41,7.41,0,0,0-.56,1.44,4.86,4.86,0,0,0,.12,2.33,5.67,5.67,0,0,1,.2,2.12c-.17.18-.35.35-.49.53a10.81,10.81,0,0,0-.81,1,3,3,0,0,0,0-.52,3.46,3.46,0,0,0-.19-.7c-.19-.46-.27-.8-.44-1.27a4.13,4.13,0,0,1-.21-1.45c0-.34.1-1.11.15-1.47a7.77,7.77,0,0,0-.38,1.51,5,5,0,0,0,.41,2.29,6.14,6.14,0,0,1,.47,2,3.81,3.81,0,0,0-.59,2.37l.05.26a2.19,2.19,0,0,1,.32-1.3,8.71,8.71,0,0,1,.63-1l.11,0a5.22,5.22,0,0,1,2.29.43,5,5,0,0,0,2.3.39,8.74,8.74,0,0,0,1.5-.4c-.36.06-1.13.16-1.47.17a3.89,3.89,0,0,1-1.45-.2c-.47-.17-.81-.24-1.28-.43a3.43,3.43,0,0,0-.7-.18,2.71,2.71,0,0,0-1.17.06,15.88,15.88,0,0,1,2.23-2.26,5.61,5.61,0,0,1,2.19.16,4.81,4.81,0,0,0,2.32.1,8.18,8.18,0,0,0,1.44-.58c-.35.1-1.1.3-1.43.35a4,4,0,0,1-1.47,0c-.49-.11-.83-.14-1.32-.27a4.3,4.3,0,0,0-.72-.09,3.74,3.74,0,0,0-.66,0l.55-.45a25.71,25.71,0,0,0,2-1.78,8.86,8.86,0,0,1,.9-.13,4.06,4.06,0,0,0,1.79-.49,7.31,7.31,0,0,0,.95-.8c-.24.16-.76.5-1,.62a3.43,3.43,0,0,1-1.12.35c-.4,0-.67.1-1.07.12l-.15,0a8.92,8.92,0,0,0,1.52-2.17,22.92,22.92,0,0,0,1.39-3.64c-.39.81-1.28,2.55-1.72,3.26A12.31,12.31,0,0,1,330.33,802.57Z" transform="translate(-124.24 -61.99)"/><path class="cls-8" d="M319.08,812.89c1.34-1.66,2.54-5.36,2.2-7.46a6.94,6.94,0,0,0-2.12-3.87c-2.08-2-4.83-2.75-7.52-3.34s-5.46-1.07-7.8-2.62c-.42-.28-.82-.59-1.23-.91.72,3.33,1,6.83,1.7,10.15s1.92,6.59,4.12,8.65a9.53,9.53,0,0,0,3.08,1.9,6.74,6.74,0,0,0,5.56,0,3.62,3.62,0,0,0,2-2.45" transform="translate(-124.24 -61.99)"/><path class="cls-12" d="M309.22,803.22a2.91,2.91,0,0,1-.12-.35,3,3,0,0,1-.12-.67c0-.48-.09-.8-.13-1.27a4.08,4.08,0,0,0-.4-1.33c-.14-.28-.53-.9-.72-1.19a7.85,7.85,0,0,1,.93,1.14,4.53,4.53,0,0,1,.56,2.12,5.7,5.7,0,0,0,.42,1.92,10.81,10.81,0,0,0,1.75,1.25c.21.11.4.23.59.34,0-.09,0-.18-.05-.27a4.47,4.47,0,0,1,0-.82c.05-.56,0-1,.05-1.51a4.77,4.77,0,0,0-.27-1.64c-.12-.35-.48-1.15-.66-1.51a9.38,9.38,0,0,1,.92,1.48,5.57,5.57,0,0,1,.33,2.6,9.05,9.05,0,0,0,.07,1.88c.8.48,1.49.92,2.43,1.4.22.12.45.26.69.41a3.84,3.84,0,0,1-.2-.81,3.62,3.62,0,0,1,0-.87c.05-.6,0-1,.07-1.62a5.16,5.16,0,0,0-.26-1.75c-.13-.38-.51-1.24-.69-1.63a9.29,9.29,0,0,1,1,1.6,5.81,5.81,0,0,1,.32,2.78,7.08,7.08,0,0,0,.19,2.56c.25.17.48.35.69.52a11.9,11.9,0,0,1,1.17,1.09,4.46,4.46,0,0,1-.05-.63,3.53,3.53,0,0,1,.08-.86c.13-.59.16-1,.27-1.6a5.43,5.43,0,0,0,0-1.77c-.08-.39-.35-1.29-.48-1.7a9.88,9.88,0,0,1,.75,1.7,5.89,5.89,0,0,1,0,2.8,7.12,7.12,0,0,0-.15,2.47,4.59,4.59,0,0,1,1.17,2.69v.32a2.52,2.52,0,0,0-.64-1.48,9.79,9.79,0,0,0-.95-1.08h-.13a6.36,6.36,0,0,0-2.63,1,6,6,0,0,1-2.64.93,10.46,10.46,0,0,1-1.86-.17c.43,0,1.36,0,1.76-.09a5.29,5.29,0,0,0,1.69-.53c.53-.3.91-.46,1.43-.77a3.76,3.76,0,0,1,.79-.36,3.05,3.05,0,0,1,1.4-.16,18.31,18.31,0,0,0-3.1-2.23,6.84,6.84,0,0,0-2.56.63,5.86,5.86,0,0,1-2.73.59,10.29,10.29,0,0,1-1.83-.4c.43,0,1.36.13,1.77.13a5.29,5.29,0,0,0,1.74-.31c.56-.23,1-.34,1.51-.59a4.16,4.16,0,0,1,.83-.25,4.26,4.26,0,0,1,.8-.08l-.74-.42c-.92-.53-1.85-1.08-2.73-1.71-.36,0-.73,0-1.09,0a4.78,4.78,0,0,1-2.23-.22,8.68,8.68,0,0,1-1.29-.75c.32.14,1,.43,1.31.53a4.27,4.27,0,0,0,1.4.19c.48,0,.82,0,1.3-.08H310a10.91,10.91,0,0,1-2.25-2.25,29.35,29.35,0,0,1-2.37-4c.63.89,2,2.77,2.7,3.53A14.22,14.22,0,0,0,309.22,803.22Z" transform="translate(-124.24 -61.99)"/><path class="cls-8" d="M320.14,809.44a8.76,8.76,0,0,1,4.57-3.86,7.62,7.62,0,0,1,3.91,0,14.87,14.87,0,0,1,6.06,3.5,20.88,20.88,0,0,0,5.66,3.93q.62.24,1.26.45c-2.84.68-5.6,1.68-8.44,2.36a18.2,18.2,0,0,1-8.45.37,10.21,10.21,0,0,1-2.89-1.26,5.05,5.05,0,0,1-2.58-3.44,2.1,2.1,0,0,1,.9-2.06" transform="translate(-124.24 -61.99)"/><path class="cls-12" d="M334.51,813.13a12.28,12.28,0,0,1-4-1.22c-.29-.17-.56-.31-.83-.45a4.52,4.52,0,0,0,.74-.22c.52-.23.89-.33,1.42-.54a4.83,4.83,0,0,1,1.64-.28c.38,0,1.25.08,1.65.13a9,9,0,0,0-1.71-.39,5.53,5.53,0,0,0-2.57.54,9.82,9.82,0,0,1-1.65.51c-.68-.34-1.32-.65-2.08-1.11a11.62,11.62,0,0,0-1.06-.52,2.73,2.73,0,0,0,.41-.1,4.09,4.09,0,0,0,.75-.31c.5-.28.86-.42,1.36-.69a4.8,4.8,0,0,1,1.6-.45c.37,0,1.25,0,1.66,0a10.19,10.19,0,0,0-1.74-.2,5.5,5.5,0,0,0-2.5.8,7.22,7.22,0,0,1-2.06.8l-.31-.11a9.67,9.67,0,0,0-1.79-.39,3.34,3.34,0,0,0,.53-.37c.37-.32.64-.5,1-.8a4.06,4.06,0,0,1,1.25-.65c.31-.1,1-.25,1.38-.32a7.34,7.34,0,0,0-1.48.13,4.58,4.58,0,0,0-1.94,1.09,7.87,7.87,0,0,1-1.28.88,3.55,3.55,0,0,0-2.38.67l-.24.21a2.12,2.12,0,0,1,1.48-.37c.32,0,.63,0,.94.1a6,6,0,0,1,1.21,2.32,5.46,5.46,0,0,0,1.26,2.3,9,9,0,0,0,1.4,1,16.14,16.14,0,0,1-1.17-1.17,4.92,4.92,0,0,1-.85-1.43c-.17-.54-.34-.89-.5-1.43a4.6,4.6,0,0,0-.33-.75,3.36,3.36,0,0,0-.64-.82,13.53,13.53,0,0,1,3.08,1.11,9.22,9.22,0,0,1,.93,1.61,5.49,5.49,0,0,0,1.51,2.15,10.42,10.42,0,0,0,1.51.88c-.32-.24-1-.77-1.29-1a4.61,4.61,0,0,1-1-1.33c-.24-.51-.44-.84-.67-1.36a3.84,3.84,0,0,0-.33-.59l1.21.64c2,1.06,4.05,2.13,6.29,2.15a23.11,23.11,0,0,0,4.4-.43C337.68,813.32,335.46,813.25,334.51,813.13Z" transform="translate(-124.24 -61.99)"/><path class="cls-13" d="M318,810.76a6.67,6.67,0,0,0-4.31-1.56,5.91,5.91,0,0,0-2.81,1,11.34,11.34,0,0,0-3.42,4.12,16,16,0,0,1-3,4.31c-.25.23-.52.45-.79.66,2.22-.26,4.47-.27,6.69-.53a13.71,13.71,0,0,0,6.16-2,7.3,7.3,0,0,0,1.74-1.67,3.83,3.83,0,0,0,.95-3.15,1.63,1.63,0,0,0-1.19-1.24" transform="translate(-124.24 -61.99)"/><path class="cls-12" d="M308.61,817.21a9.12,9.12,0,0,0,2.56-1.94l.48-.54a2.88,2.88,0,0,1-.59,0c-.43,0-.73,0-1.16,0a3.4,3.4,0,0,0-1.25.23c-.27.1-.88.39-1.15.53a7,7,0,0,1,1.12-.73,4.19,4.19,0,0,1,2-.3,7.26,7.26,0,0,0,1.32-.06c.4-.43.78-.82,1.2-1.35a7.67,7.67,0,0,1,.63-.66,1.87,1.87,0,0,1-.32,0,3.29,3.29,0,0,1-.63,0c-.43-.08-.73-.08-1.15-.14a3.64,3.64,0,0,0-1.27.1c-.28.07-.91.29-1.21.4a7.47,7.47,0,0,1,1.2-.6,4.26,4.26,0,0,1,2-.09,5.27,5.27,0,0,0,1.68,0l.2-.16a7.21,7.21,0,0,1,1.18-.76,2,2,0,0,1-.48-.12c-.34-.13-.59-.18-.94-.31a3.19,3.19,0,0,0-1.07-.13c-.24,0-.81.09-1.07.13a7.17,7.17,0,0,1,1.1-.3,3.61,3.61,0,0,1,1.68.27,5.91,5.91,0,0,0,1.15.3,2.75,2.75,0,0,1,1.89-.15l.23.09a1.6,1.6,0,0,0-1.17.13,4.78,4.78,0,0,0-.64.32,4.56,4.56,0,0,0-.26,2,4.33,4.33,0,0,1-.29,2,7.69,7.69,0,0,1-.73,1.12c.14-.28.43-.88.53-1.15a3.87,3.87,0,0,0,.23-1.25c0-.44,0-.73,0-1.17a3.23,3.23,0,0,1,0-.62,2.53,2.53,0,0,1,.24-.75,10.07,10.07,0,0,0-1.91,1.61,6.63,6.63,0,0,0-.25,1.4,4.16,4.16,0,0,1-.52,1.94,7,7,0,0,1-.85,1c.17-.26.53-.83.66-1.09a3.44,3.44,0,0,0,.37-1.22c0-.43.1-.72.12-1.15a2.28,2.28,0,0,1,.09-.51c-.24.25-.48.52-.71.78a10.67,10.67,0,0,1-3.94,3.2,18,18,0,0,1-3.28.86C306.39,818.18,308,817.55,308.61,817.21Z" transform="translate(-124.24 -61.99)"/><path class="cls-11" d="M317.06,768.24a1.46,1.46,0,0,1-1.37-1A39.55,39.55,0,0,1,313,756.42c-.3-4.36.71-8.45,2.76-11.22a1.46,1.46,0,1,1,2.34,1.73,14.31,14.31,0,0,0-2.19,9.29,37,37,0,0,0,2.51,10.06,1.46,1.46,0,0,1-.86,1.87A1.52,1.52,0,0,1,317.06,768.24Z" transform="translate(-124.24 -61.99)"/><rect class="cls-2" x="68.14" y="760.32" width="58.27" height="208.34"/><path class="cls-4" d="M252,822.74H192.38V803.59h73a1,1,0,0,1,.78,1.63Z" transform="translate(-124.24 -61.99)"/><path class="cls-4" d="M68.14,760.32H127.4a3.89,3.89,0,0,1,3.89,3.89v.29a3.89,3.89,0,0,1-3.89,3.89H68.14a0,0,0,0,1,0,0v-8.08A0,0,0,0,1,68.14,760.32Z"/><g class="cls-14"><path class="cls-6" d="M124.24,822.73H266V812a10.73,10.73,0,0,0-8.86,4.67,10.74,10.74,0,0,0-17.72,0,10.74,10.74,0,0,0-17.72,0,10.75,10.75,0,0,0-17.72,0,10.75,10.75,0,0,0-17.72,0c-.17-.24-.35-.46-.53-.68l-.06-.07a7.83,7.83,0,0,0-.61-.67.93.93,0,0,0-.14-.14,7.57,7.57,0,0,0-.66-.61l-.1-.08a10.74,10.74,0,0,0-3.49-1.89l-.15,0c-.29-.09-.59-.16-.9-.23l-.18,0a10.53,10.53,0,0,0-2-.22,10.72,10.72,0,0,0-8.09,3.67c-.27.32-.53.65-.77,1a10.76,10.76,0,0,0-17.72,0,10.75,10.75,0,0,0-17.72,0,10.75,10.75,0,0,0-8.86-4.66Z" transform="translate(-124.24 -61.99)"/></g><path class="cls-4" d="M68.14,800.5h1.4a37.1,37.1,0,0,1,37.1,37.1v79.34a0,0,0,0,1,0,0H68.14a0,0,0,0,1,0,0V800.5A0,0,0,0,1,68.14,800.5Z"/><path class="cls-6" d="M68.14,805.88h1.18a31.18,31.18,0,0,1,31.18,31.18V909a0,0,0,0,1,0,0H68.14a0,0,0,0,1,0,0V805.88A0,0,0,0,1,68.14,805.88Z"/><path class="cls-2" d="M192.38,1117.58h58.19v-50.73c1.68-14.17,8-19.71,8-19.71h-8v-7.76H192.38Z" transform="translate(-124.24 -61.99)"/><path class="cls-3" d="M192.38,1047.64h69.76s20.17.47,12-17.41c-5.91-12.94.81-16,5-16.73a7.47,7.47,0,0,0,4.78,13.21,8.27,8.27,0,0,0,.86,0h0s12.41-.57,10.42-15.84S277.31,999,277.31,999s-13.84,1-15,13.68-47.09,14-47.09,14H192.38Z" transform="translate(-124.24 -61.99)"/><rect class="cls-2" x="68.14" y="1073.54" width="58.27" height="208.34"/><path class="cls-4" d="M252,1136H192.38v-19.15h73a1,1,0,0,1,.78,1.63Z" transform="translate(-124.24 -61.99)"/><path class="cls-4" d="M68.14,1073.54H127.4a3.89,3.89,0,0,1,3.89,3.89v.29a3.89,3.89,0,0,1-3.89,3.89H68.14a0,0,0,0,1,0,0v-8.08A0,0,0,0,1,68.14,1073.54Z"/><g class="cls-15"><path class="cls-6" d="M124.24,1136H266v-10.75a10.75,10.75,0,0,0-8.86,4.66,10.74,10.74,0,0,0-17.72,0,10.74,10.74,0,0,0-17.72,0,10.74,10.74,0,0,0-17.72,0,10.75,10.75,0,0,0-17.72,0c-.17-.24-.35-.46-.53-.68l-.06-.07c-.19-.23-.4-.45-.61-.67l-.14-.14c-.21-.21-.43-.42-.66-.61l-.1-.08a10.93,10.93,0,0,0-3.49-1.89l-.15,0q-.44-.14-.9-.24l-.18,0a10.53,10.53,0,0,0-2-.21,10.72,10.72,0,0,0-8.09,3.67,10.88,10.88,0,0,0-.77,1,10.76,10.76,0,0,0-17.72,0,10.74,10.74,0,0,0-17.72,0,10.73,10.73,0,0,0-8.86-4.67Z" transform="translate(-124.24 -61.99)"/></g><path class="cls-4" d="M68.14,1113.72h1.4a37.1,37.1,0,0,1,37.1,37.1v79.34a0,0,0,0,1,0,0H68.14a0,0,0,0,1,0,0V1113.72A0,0,0,0,1,68.14,1113.72Z"/><path class="cls-6" d="M68.14,1119.1h1.18a31.18,31.18,0,0,1,31.18,31.18v71.93a0,0,0,0,1,0,0H68.14a0,0,0,0,1,0,0V1119.1A0,0,0,0,1,68.14,1119.1Z"/><path class="cls-9" d="M216.6,959.94s11.56.79,3.9,17.95C220.5,977.89,206.92,965.65,216.6,959.94Z" transform="translate(-124.24 -61.99)"/><path class="cls-8" d="M276.35,957.19c-.31-2.76-2.17-6.49-5.54-5.73a4.38,4.38,0,0,0-3.12,3.12,6.3,6.3,0,0,0,1,4.91c.78,1.21,2.72.09,1.94-1.13a4,4,0,0,1-.74-3.34,2,2,0,0,1,1.85-1.42c1,.09,1.6,1.14,1.93,1.94a7.35,7.35,0,0,1-1.4,7.6,4.58,4.58,0,0,1-5.07.76c-4.67-2.08-6.16-8-6.64-12.63-.53-5.19-.06-10.43-.73-15.61a31.05,31.05,0,0,0-1.47-6.36A99.41,99.41,0,0,0,256.68,910c2-5.54,3.38-11.49.8-17.1-2.67-5.8-9-8.78-14.41-11.41l-.6-.28a119.27,119.27,0,0,0-20.24-21,52.09,52.09,0,0,0,13-4.29,71.94,71.94,0,0,0,7-4c4.94-3.11,9.51-5.71,9.51-11.6a13.75,13.75,0,0,0-.23-2.49c-.26-1.33-.45-.73-.45-.73-5.27,7.29-13.18,11.45-22.06,12.87-6.19,1-12.5,1.66-18.71.8l-1.29-.2c-14.3-9.36-26.23-14-27.1-14.65v20.34s18.1-4.17,42.14,21.73a13.54,13.54,0,0,1-.21,5.5c-.51,2.06-1.41,4.6-3.49,5.54s-4.18-.81-4.94-2.61a2.77,2.77,0,0,1,.27-2.84c.25-.28.73-.54,1.09-.33a.7.7,0,0,1,.29.77.89.89,0,0,0,.31,1.18.87.87,0,0,0,1.18-.31,2.4,2.4,0,0,0-1.51-3.36,3,3,0,0,0-3.35,2.11c-1.06,2.78,1.12,5.87,3.63,7a4.62,4.62,0,0,0,4.26-.28,7.56,7.56,0,0,0,2.87-3.38,16.33,16.33,0,0,0,1.53-6.82c1.72,2,3.47,4,5.24,6.32a92.3,92.3,0,0,1,15.78,32c-1,4.17-3.17,9.66-9.35,15.61C224.84,946.49,204.6,954.15,192.3,967c-9.27,9.66-13.06,21.93-10.18,32.92,1.13,4.28,3.41,8.56,8,11.06-2.33-6.77-4.29-14-1.77-21a28.34,28.34,0,0,1,5.12-8.43,19.65,19.65,0,0,0,2.67,14.08,15.58,15.58,0,0,0,6.24,5.48,17.09,17.09,0,0,0,9.13,1.93,9.79,9.79,0,0,0,6.92-4.13A10,10,0,0,0,220,991a9.81,9.81,0,0,0-5.74-7.21,5.69,5.69,0,0,0-7.43,3.08,1.28,1.28,0,1,0,2.46.68c.66-1.74,3-1.93,4.45-1.22a7.47,7.47,0,0,1,3.76,5.15,7.36,7.36,0,0,1-6.43,9,14.85,14.85,0,0,1-7.28-1.57,13.3,13.3,0,0,1-5.2-4.29,17.22,17.22,0,0,1-2.48-13.29,26.1,26.1,0,0,1,1.07-3.77c1.35-1.32,2.77-2.6,4.2-3.86a182.83,182.83,0,0,1,20.08-15.2c6.79-4.46,14.15-8.47,19.84-13.77A55.62,55.62,0,0,0,250.37,934,137.19,137.19,0,0,1,251,969.7a119.73,119.73,0,0,0,6.87-30.6c.27,5-.07,10,.82,15a19.32,19.32,0,0,0,3.12,8.06,10.06,10.06,0,0,0,6.79,4.41C273.76,967.09,276.87,961.75,276.35,957.19Zm-20.11-55.28a23.17,23.17,0,0,1-.74,3.67,89.87,89.87,0,0,0-10-20.05c1.11.58,2.21,1.2,3.27,1.87a17.33,17.33,0,0,1,5.86,5.56A14.17,14.17,0,0,1,256.24,901.91Z" transform="translate(-124.24 -61.99)"/><path class="cls-9" d="M241.73,852.58s10.5-11.05,20.8,10.89C262.53,863.47,239.15,867.11,241.73,852.58Z" transform="translate(-124.24 -61.99)"/><path class="cls-9" d="M227.72,851.29s-14.24-5.44,2.06-23.38C229.78,827.91,242.13,848.09,227.72,851.29Z" transform="translate(-124.24 -61.99)"/><path class="cls-9" d="M257.75,922.72s10.5-11.06,20.8,10.88C278.55,933.6,255.17,937.25,257.75,922.72Z" transform="translate(-124.24 -61.99)"/><path class="cls-9" d="M228.25,942.81S215.89,951,210.4,927.57C210.4,927.57,233.67,929.5,228.25,942.81Z" transform="translate(-124.24 -61.99)"/><path class="cls-9" d="M237.69,947.06s8.65,2.26.46,14.63C238.15,961.69,229.55,950.17,237.69,947.06Z" transform="translate(-124.24 -61.99)"/><path class="cls-8" d="M252.23,1081.82a8.2,8.2,0,0,0-.41-2c-.36-1-.54-.56-.54-.56-5.38,6.08-13.88,9.77-23.62,11.31-3.11.48-6.25.92-9.4,1.21h0c-9.76.78-23.11-3-29.75-5.18l-.38-.21c.07.06.16.11.24.17-2.44-.8-3.94-1.36-3.94-1.36v3.72l-1.23,11.29c15.78,4.06,34.26-.62,34.26-.62l0,0a72.66,72.66,0,0,0,17.38-4.52c2.61-1,5.11-2.25,7.56-3.51C247.71,1088.83,252.6,1086.54,252.23,1081.82Z" transform="translate(-124.24 -61.99)"/><path class="cls-9" d="M238.17,1088.61s-10.95.22-4.94-16.12C233.23,1072.49,246.89,1082.59,238.17,1088.61Z" transform="translate(-124.24 -61.99)"/><path class="cls-9" d="M250.52,1087.8s-.92-10.91,15.77-6C266.29,1081.84,257.08,1096.12,250.52,1087.8Z" transform="translate(-124.24 -61.99)"/><path class="cls-9" d="M224.46,1096.82s10.36-8.33,16.7,11.82C241.16,1108.64,220.55,1109.07,224.46,1096.82Z" transform="translate(-124.24 -61.99)"/><path class="cls-9" d="M216.14,1273.16s11.55.79,3.89,17.95C220,1291.11,206.46,1278.88,216.14,1273.16Z" transform="translate(-124.24 -61.99)"/><path class="cls-8" d="M275.88,1270.41c-.31-2.75-2.17-6.49-5.54-5.73a4.39,4.39,0,0,0-3.12,3.12,6.29,6.29,0,0,0,1,4.92c.78,1.2,2.71.08,1.93-1.13a4,4,0,0,1-.74-3.34,2,2,0,0,1,1.85-1.43c1,.09,1.61,1.14,1.94,1.94a7.07,7.07,0,0,1,.5,2.79,6.88,6.88,0,0,1-1.9,4.81,4.58,4.58,0,0,1-5.07.77c-4.68-2.08-6.16-8-6.64-12.63-.54-5.19-.07-10.44-.74-15.62a29.93,29.93,0,0,0-1.47-6.36,100.32,100.32,0,0,0-1.67-19.3c2-5.55,3.37-11.5.79-17.11-2.66-5.79-9-8.78-14.41-11.4l-.6-.29a119.57,119.57,0,0,0-20.23-21,51.73,51.73,0,0,0,13-4.28,72.93,72.93,0,0,0,7-4c5-3.11,9.51-5.71,9.51-11.6a13.75,13.75,0,0,0-.23-2.49c-.25-1.33-.45-.72-.45-.72-5.26,7.28-13.18,11.45-22.06,12.86-6.18,1-12.5,1.66-18.71.8-.43-.06-.85-.12-1.28-.2-14.3-9.35-26.23-14-27.1-14.65v20.34s18.1-4.17,42.14,21.74a13.67,13.67,0,0,1-.21,5.49c-.51,2.06-1.41,4.6-3.5,5.54s-4.18-.81-4.93-2.6a2.78,2.78,0,0,1,.26-2.85c.25-.27.73-.54,1.09-.33a.71.71,0,0,1,.3.78.88.88,0,0,0,.3,1.17.86.86,0,0,0,1.18-.31,2.4,2.4,0,0,0-1.5-3.36,3,3,0,0,0-3.35,2.11c-1.06,2.78,1.12,5.87,3.62,7a4.59,4.59,0,0,0,4.26-.28,7.47,7.47,0,0,0,2.88-3.38,16.17,16.17,0,0,0,1.52-6.82c1.73,2,3.48,4.05,5.25,6.32a92.45,92.45,0,0,1,15.77,32c-1,4.17-3.16,9.66-9.34,15.61-12.89,12.41-33.14,20.08-45.43,32.88-9.27,9.65-13.07,21.92-10.18,32.91,1.12,4.28,3.41,8.56,8,11.06-2.32-6.77-4.29-14-1.76-21a27.93,27.93,0,0,1,5.12-8.43,19.68,19.68,0,0,0,2.66,14.09,15.77,15.77,0,0,0,6.24,5.47,17.09,17.09,0,0,0,9.13,1.93,9.83,9.83,0,0,0,6.93-4.12,10.05,10.05,0,0,0,1.54-7.83,9.82,9.82,0,0,0-5.74-7.21,5.67,5.67,0,0,0-7.43,3.07,1.29,1.29,0,0,0,.89,1.57,1.3,1.3,0,0,0,1.57-.89c.65-1.74,3-1.93,4.44-1.22a7.5,7.5,0,0,1,3.77,5.15,7.35,7.35,0,0,1-6.43,9,14.85,14.85,0,0,1-7.28-1.57,13.23,13.23,0,0,1-5.2-4.29,17.16,17.16,0,0,1-2.48-13.29,24.44,24.44,0,0,1,1.07-3.76c1.35-1.32,2.76-2.61,4.2-3.87a182.83,182.83,0,0,1,20.08-15.2c6.79-4.45,14.15-8.47,19.83-13.76a55.2,55.2,0,0,0,9.05-10.78,137.57,137.57,0,0,1,.67,35.75,119.83,119.83,0,0,0,6.86-30.61c.27,5-.06,10,.82,15a19.38,19.38,0,0,0,3.13,8.07,10.06,10.06,0,0,0,6.79,4.4C273.3,1280.32,276.4,1275,275.88,1270.41Zm-20.11-55.28a23.26,23.26,0,0,1-.73,3.68,90.18,90.18,0,0,0-10-20.06c1.12.59,2.21,1.2,3.28,1.87a17.61,17.61,0,0,1,5.86,5.56A14.24,14.24,0,0,1,255.77,1215.13Z" transform="translate(-124.24 -61.99)"/><path class="cls-9" d="M241.26,1165.8s10.51-11,20.8,10.89C262.06,1176.69,238.68,1180.34,241.26,1165.8Z" transform="translate(-124.24 -61.99)"/><path class="cls-9" d="M227.26,1164.52s-14.25-5.45,2.05-23.39C229.31,1141.13,241.66,1161.31,227.26,1164.52Z" transform="translate(-124.24 -61.99)"/><path class="cls-9" d="M257.29,1235.94s10.5-11,20.79,10.89C278.08,1246.83,254.71,1250.47,257.29,1235.94Z" transform="translate(-124.24 -61.99)"/><path class="cls-9" d="M227.78,1256s-12.36,8.14-17.85-15.24C209.93,1240.79,233.2,1242.72,227.78,1256Z" transform="translate(-124.24 -61.99)"/><path class="cls-9" d="M237.23,1260.29s8.65,2.25.45,14.62C237.68,1274.91,229.09,1263.39,237.23,1260.29Z" transform="translate(-124.24 -61.99)"/><path class="cls-2" d="M710.31,180.19H652.69V130c-1.65-14-8-19.52-8-19.52h8v-7.67h57.62Z" transform="translate(-124.24 -61.99)"/><path class="cls-3" d="M710.31,111H641.24s-20,.47-11.86-17.24c5.86-12.8-.8-15.85-4.93-16.56a7.39,7.39,0,0,1-4.72,13.08,8.11,8.11,0,0,1-.86,0h0s-12.29-.56-10.31-15.68,17.65-11.72,17.65-11.72,13.71.94,14.84,13.54,46.61,13.86,46.61,13.86h22.64Z" transform="translate(-124.24 -61.99)"/><rect class="cls-2" x="652.62" y="193.95" width="57.68" height="206.26" transform="translate(1238.69 532.16) rotate(-180)"/><path class="cls-4" d="M651.27,194.38h59v-19H638a1,1,0,0,0-.77,1.61Z" transform="translate(-124.24 -61.99)"/><path class="cls-4" d="M647.79,193.95h58.63a3.89,3.89,0,0,1,3.89,3.89v.21a3.89,3.89,0,0,1-3.89,3.89H647.79a0,0,0,0,1,0,0v-8A0,0,0,0,1,647.79,193.95Z" transform="translate(1233.85 333.9) rotate(180)"/><g class="cls-16"><path class="cls-6" d="M777.77,194.37H637.43V183.73a10.63,10.63,0,0,1,8.77,4.62,10.64,10.64,0,0,1,17.55,0,10.63,10.63,0,0,1,17.54,0,10.63,10.63,0,0,1,17.54,0,10.64,10.64,0,0,1,17.55,0c.16-.23.34-.45.52-.68l.06-.06c.19-.23.39-.45.6-.67l.14-.13c.21-.21.43-.42.66-.61l.1-.07a10.23,10.23,0,0,1,3.45-1.87l.14-.05c.3-.09.6-.17.9-.23l.18,0a11.06,11.06,0,0,1,2-.21,10.6,10.6,0,0,1,8,3.64,10.37,10.37,0,0,1,.77,1,10.63,10.63,0,0,1,16.77-1,12,12,0,0,1,.77,1,10.63,10.63,0,0,1,17.54,0,10.63,10.63,0,0,1,8.78-4.62Z" transform="translate(-124.24 -61.99)"/></g><path class="cls-4" d="M672.19,233.72h38.12a0,0,0,0,1,0,0V311.9a37.1,37.1,0,0,1-37.1,37.1h-1a0,0,0,0,1,0,0V233.72A0,0,0,0,1,672.19,233.72Z" transform="translate(1258.26 520.73) rotate(-180)"/><path class="cls-6" d="M678.27,239h32a0,0,0,0,1,0,0v70.9a31.18,31.18,0,0,1-31.18,31.18h-.86a0,0,0,0,1,0,0V239a0,0,0,0,1,0,0Z" transform="translate(1264.34 518.18) rotate(-180)"/><path class="cls-2" d="M710.31,485.77H652.69V433.49c-1.65-14.61-8-20.33-8-20.33h8v-8h57.62Z" transform="translate(-124.24 -61.99)"/><path class="cls-3" d="M710.31,417.8H641.24s-20,.47-11.86-17.23c5.86-12.81-.8-15.86-4.93-16.56a7.39,7.39,0,0,1-4.72,13.08,8.1,8.1,0,0,1-.86-.06h0s-12.29-.57-10.31-15.68,17.65-11.73,17.65-11.73,13.71.95,14.84,13.54S687.67,397,687.67,397h22.64Z" transform="translate(-124.24 -61.99)"/><rect class="cls-2" x="652.62" y="501.3" width="57.68" height="249.91" transform="translate(1238.69 1190.53) rotate(-180)"/><path class="cls-4" d="M651.27,504.73h59v-19H638a1,1,0,0,0-.77,1.62Z" transform="translate(-124.24 -61.99)"/><path class="cls-4" d="M647.79,504.3h58.63a3.89,3.89,0,0,1,3.89,3.89v.21a3.89,3.89,0,0,1-3.89,3.89H647.79a0,0,0,0,1,0,0v-8a0,0,0,0,1,0,0Z" transform="translate(1233.85 954.62) rotate(-180)"/><g class="cls-17"><path class="cls-6" d="M777.77,501.72H637.43V491.09a10.63,10.63,0,0,1,8.77,4.62,10.64,10.64,0,0,1,17.55,0,10.63,10.63,0,0,1,17.54,0,10.63,10.63,0,0,1,17.54,0,10.64,10.64,0,0,1,17.55,0c.16-.24.34-.46.52-.68L717,495q.28-.34.6-.66l.14-.14q.31-.31.66-.6l.1-.08a10.59,10.59,0,0,1,3.45-1.87l.14,0c.3-.09.6-.17.9-.23l.18,0a11.06,11.06,0,0,1,2-.21,10.62,10.62,0,0,1,8,3.63,12,12,0,0,1,.77,1,10.63,10.63,0,0,1,16.77-1,9.35,9.35,0,0,1,.77,1,10.63,10.63,0,0,1,17.54,0,10.63,10.63,0,0,1,8.78-4.62Z" transform="translate(-124.24 -61.99)"/></g><path class="cls-4" d="M672.19,541.08h38.12a0,0,0,0,1,0,0v78.18a37.1,37.1,0,0,1-37.1,37.1h-1a0,0,0,0,1,0,0V541.08a0,0,0,0,1,0,0Z" transform="translate(1258.26 1135.45) rotate(-180)"/><path class="cls-6" d="M678.27,546.4h32a0,0,0,0,1,0,0v70.9a31.18,31.18,0,0,1-31.18,31.18h-.86a0,0,0,0,1,0,0V546.4A0,0,0,0,1,678.27,546.4Z" transform="translate(1264.34 1132.9) rotate(-180)"/><path class="cls-8" d="M651.59,139.85a8.05,8.05,0,0,1,.41-2c.36-1,.53-.55.53-.55,5.33,6,13.74,9.67,23.39,11.19,3.07.48,6.18.91,9.3,1.2h0c9.66.78,22.88-3,29.45-5.12l.38-.21-.24.16c2.42-.79,3.9-1.35,3.9-1.35v3.69l1.22,11.17c-15.62,4-33.92-.61-33.92-.61l0,0a72.59,72.59,0,0,1-17.2-4.48c-2.59-1-5.07-2.23-7.48-3.47C656.07,146.79,651.22,144.52,651.59,139.85Z" transform="translate(-124.24 -61.99)"/><path class="cls-9" d="M665.51,146.57s10.84.22,4.9-15.95C670.41,130.62,656.88,140.61,665.51,146.57Z" transform="translate(-124.24 -61.99)"/><path class="cls-9" d="M653.29,145.77s.91-10.8-15.61-5.9C637.68,139.87,646.79,154,653.29,145.77Z" transform="translate(-124.24 -61.99)"/><path class="cls-9" d="M679.08,154.7s-10.25-8.25-16.53,11.7C662.55,166.4,683,166.83,679.08,154.7Z" transform="translate(-124.24 -61.99)"/><path class="cls-9" d="M686.7,642.56s-11.44.77-3.85,17.76C682.85,660.32,696.28,648.21,686.7,642.56Z" transform="translate(-124.24 -61.99)"/><path class="cls-8" d="M635.19,649.11a10,10,0,0,0,6.72-4.36,19,19,0,0,0,3.09-8c.88-4.91.55-9.9.82-14.85a118.82,118.82,0,0,0,6.79,30.3,136,136,0,0,1,.66-35.38,54.93,54.93,0,0,0,9,10.66c5.63,5.25,12.92,9.22,19.64,13.63a180.16,180.16,0,0,1,19.88,15c1.42,1.24,2.82,2.52,4.15,3.82a25.59,25.59,0,0,1,1.07,3.73,17.06,17.06,0,0,1-2.46,13.16,13.1,13.1,0,0,1-5.15,4.24,14.67,14.67,0,0,1-7.2,1.56,7.28,7.28,0,0,1-6.37-8.88,7.41,7.41,0,0,1,3.73-5.1c1.43-.7,3.75-.52,4.4,1.21a1.29,1.29,0,0,0,1.55.88,1.26,1.26,0,0,0,.88-1.55,5.62,5.62,0,0,0-7.36-3,9.74,9.74,0,0,0-5.68,7.14,9.94,9.94,0,0,0,1.53,7.75,9.68,9.68,0,0,0,6.86,4.08,16.92,16.92,0,0,0,9-1.9,15.66,15.66,0,0,0,6.18-5.43,19.43,19.43,0,0,0,2.64-13.94,27.88,27.88,0,0,1,5.07,8.35c2.5,7,.55,14.08-1.75,20.79,4.59-2.48,6.85-6.72,8-10.95,2.86-10.88-.9-23-10.08-32.59-12.16-12.67-32.21-20.26-45-32.55-6.12-5.89-8.24-11.32-9.25-15.45a91.57,91.57,0,0,1,15.61-31.71q2.64-3.37,5.2-6.25a16,16,0,0,0,1.51,6.74,7.42,7.42,0,0,0,2.84,3.35,4.57,4.57,0,0,0,4.22.28c2.48-1.08,4.64-4.14,3.59-6.89a3,3,0,0,0-3.32-2.09,2.37,2.37,0,0,0-1.48,3.33.84.84,0,0,0,1.16.3.88.88,0,0,0,.31-1.16.68.68,0,0,1,.29-.77c.36-.21.83.06,1.08.33a2.77,2.77,0,0,1,.26,2.82c-.75,1.78-2.94,3.45-4.89,2.57s-2.95-3.44-3.46-5.48a13.42,13.42,0,0,1-.2-5.44C703,535.78,721,539.91,721,539.91V519.77c-.86.7-12.67,5.25-26.83,14.51l-1.27.2c-6.14.85-12.4.18-18.52-.8-8.79-1.4-16.63-5.52-21.84-12.73,0,0-.19-.6-.44.71a14.2,14.2,0,0,0-.24,2.47c0,5.83,4.53,8.4,9.42,11.49a72.59,72.59,0,0,0,7,3.94,51,51,0,0,0,12.91,4.24,118.29,118.29,0,0,0-20,20.8l-.59.29c-5.38,2.6-11.63,5.55-14.27,11.29-2.55,5.55-1.22,11.44.79,16.93a98.57,98.57,0,0,0-1.66,19.11,29.82,29.82,0,0,0-1.45,6.3c-.66,5.13-.2,10.32-.73,15.46-.47,4.55-1.95,10.44-6.58,12.5a4.52,4.52,0,0,1-5-.76,7.29,7.29,0,0,1-1.39-7.52c.33-.79,1-1.83,1.91-1.92a1.94,1.94,0,0,1,1.83,1.41,4,4,0,0,1-.72,3.31c-.78,1.2,1.14,2.31,1.91,1.11a6.22,6.22,0,0,0,1-4.86,4.34,4.34,0,0,0-3.08-3.09c-3.34-.75-5.18,3-5.49,5.68C627,644.35,630.11,649.64,635.19,649.11Zm13.86-72.87a17.35,17.35,0,0,1,5.8-5.5c1-.66,2.14-1.27,3.24-1.85a89.58,89.58,0,0,0-9.9,19.85,22.44,22.44,0,0,1-.73-3.63A14.06,14.06,0,0,1,649.05,576.24Z" transform="translate(-124.24 -61.99)"/><path class="cls-9" d="M661.83,536.27s-10.4-10.94-20.59,10.78C641.24,547.05,664.38,550.66,661.83,536.27Z" transform="translate(-124.24 -61.99)"/><path class="cls-9" d="M675.69,535s14.1-5.39-2-23.15C673.66,511.85,661.43,531.82,675.69,535Z" transform="translate(-124.24 -61.99)"/><path class="cls-9" d="M646,605.71s-10.4-11-20.59,10.78C625.37,616.49,648.52,620.09,646,605.71Z" transform="translate(-124.24 -61.99)"/><path class="cls-9" d="M675.17,625.6s12.24,8.06,17.67-15.09C692.84,610.51,669.8,612.42,675.17,625.6Z" transform="translate(-124.24 -61.99)"/><path class="cls-9" d="M665.82,629.81s-8.56,2.23-.45,14.48C665.37,644.29,673.88,632.89,665.82,629.81Z" transform="translate(-124.24 -61.99)"/><path class="cls-8" d="M651.76,448.13a8.05,8.05,0,0,1,.41-2c.36-1,.53-.55.53-.55,5.33,6,13.75,9.67,23.39,11.19,3.07.48,6.18.91,9.3,1.2h0c9.66.77,22.89-3,29.45-5.13l.39-.2-.24.16c2.42-.79,3.89-1.35,3.89-1.35v3.69l1.23,11.17c-15.62,4-33.93-.61-33.93-.61l0,0a72.22,72.22,0,0,1-17.2-4.47c-2.59-1-5.06-2.23-7.48-3.47C656.24,455.06,651.4,452.8,651.76,448.13Z" transform="translate(-124.24 -61.99)"/><path class="cls-9" d="M665.69,454.85s10.84.22,4.89-16C670.58,438.89,657.05,448.89,665.69,454.85Z" transform="translate(-124.24 -61.99)"/><path class="cls-9" d="M653.46,454.05s.91-10.8-15.61-5.9C637.85,448.15,647,462.29,653.46,454.05Z" transform="translate(-124.24 -61.99)"/><path class="cls-9" d="M679.26,463s-10.26-8.25-16.54,11.7C662.72,474.68,683.13,475.11,679.26,463Z" transform="translate(-124.24 -61.99)"/><path class="cls-10" d="M710.33,763.42H651.76v4.91H605s43.38,4.32,47,24.23v20h58.35Z" transform="translate(-124.24 -61.99)"/><path class="cls-3" d="M544.81,733c2-15,18-11.65,18-11.65s14,.94,15.16,13.46,47.63,13.78,47.63,13.78h22.63v0H718v0h49.12v20.69H578.2s-20.4.47-12.12-17.13c6-12.72-.82-15.75-5-16.45a7.25,7.25,0,0,1,2.73,5.65,7.46,7.46,0,0,1-7.56,7.34,8.46,8.46,0,0,1-.87,0h0S542.79,748.05,544.81,733Z" transform="translate(-124.24 -61.99)"/><path class="cls-2" d="M595.16,826.6h23.19l-5.22,24.75a3.76,3.76,0,0,1-3.67,3H589.09a3.77,3.77,0,0,1-3.68-3L580.2,826.6Z" transform="translate(-124.24 -61.99)"/><polyline class="cls-6" points="458.01 774.33 455.96 763.37 470.93 763.37 479.14 763.37 494.11 763.37 492.06 774.33"/><path class="cls-11" d="M617.53,819.23a1.46,1.46,0,0,0,1.36-2l-18.45-49.72a1.46,1.46,0,1,0-2.73,1l18.45,49.72A1.47,1.47,0,0,0,617.53,819.23Z" transform="translate(-124.24 -61.99)"/><path class="cls-11" d="M580.63,819.23a1.45,1.45,0,0,0,1.36-1l18.45-49.72a1.46,1.46,0,1,0-2.73-1l-18.45,49.72a1.46,1.46,0,0,0,.86,1.88A1.52,1.52,0,0,0,580.63,819.23Z" transform="translate(-124.24 -61.99)"/><path class="cls-2" d="M578.16,817h42.22a7.38,7.38,0,0,1,7.38,7.38v7.9a1.17,1.17,0,0,1-1.17,1.17H572a1.17,1.17,0,0,1-1.17-1.17v-7.9a7.38,7.38,0,0,1,7.38-7.38Z" transform="translate(1074.31 1588.48) rotate(-180)"/><path class="cls-8" d="M585.83,811.83a8.72,8.72,0,0,0-4.57-3.86,7.62,7.62,0,0,0-3.91,0,14.76,14.76,0,0,0-6.06,3.5,20.73,20.73,0,0,1-5.65,3.92c-.41.17-.84.31-1.27.46,2.84.68,5.61,1.68,8.45,2.36a18.15,18.15,0,0,0,8.44.37,10.21,10.21,0,0,0,2.89-1.26,5,5,0,0,0,2.58-3.45,2.08,2.08,0,0,0-.9-2" transform="translate(-124.24 -61.99)"/><path class="cls-12" d="M571.46,815.52a12.25,12.25,0,0,0,4-1.23l.83-.44a3.74,3.74,0,0,1-.74-.23c-.52-.22-.89-.32-1.42-.53a4.61,4.61,0,0,0-1.63-.29c-.38,0-1.26.09-1.66.14a9,9,0,0,1,1.71-.39,5.65,5.65,0,0,1,2.57.53,9,9,0,0,0,1.65.52c.68-.34,1.32-.65,2.08-1.11a11.62,11.62,0,0,1,1.06-.52l-.41-.1a4.09,4.09,0,0,1-.75-.31c-.49-.28-.86-.42-1.36-.69a4.57,4.57,0,0,0-1.6-.45c-.37,0-1.25,0-1.65,0a9.08,9.08,0,0,1,1.73-.2,5.5,5.5,0,0,1,2.5.8,7.22,7.22,0,0,0,2.06.8l.32-.11a9.33,9.33,0,0,1,1.79-.4,2.58,2.58,0,0,1-.54-.37c-.36-.31-.64-.49-1-.8a4.24,4.24,0,0,0-1.25-.64c-.31-.1-1-.26-1.37-.32a7.31,7.31,0,0,1,1.47.13,4.67,4.67,0,0,1,1.95,1.09,6.81,6.81,0,0,0,1.27.87,3.63,3.63,0,0,1,2.39.68l.23.21a2.11,2.11,0,0,0-1.48-.37,7.3,7.3,0,0,0-.94.1,5.89,5.89,0,0,0-1.21,2.31,5.44,5.44,0,0,1-1.26,2.31,9,9,0,0,1-1.4,1c.3-.27.93-.89,1.17-1.17a4.85,4.85,0,0,0,.85-1.44c.18-.53.34-.89.51-1.43a4.45,4.45,0,0,1,.32-.75,3.31,3.31,0,0,1,.64-.81,13.53,13.53,0,0,0-3.08,1.11,8.54,8.54,0,0,0-.93,1.61,5.38,5.38,0,0,1-1.51,2.14,9.2,9.2,0,0,1-1.51.89c.33-.24,1-.78,1.3-1a4.92,4.92,0,0,0,1-1.33c.24-.51.45-.84.67-1.36a3.84,3.84,0,0,1,.33-.59L578,814c-2,1.06-4.05,2.12-6.29,2.15a23.19,23.19,0,0,1-4.4-.43C568.3,815.7,570.51,815.63,571.46,815.52Z" transform="translate(-124.24 -61.99)"/><path class="cls-13" d="M613.51,817.73a8.76,8.76,0,0,1,5-3.33,7.64,7.64,0,0,1,3.88.44A14.89,14.89,0,0,1,628,819a20.79,20.79,0,0,0,5.18,4.52c.39.21.8.41,1.2.6-2.89.35-5.75,1-8.65,1.41a18.08,18.08,0,0,1-8.43-.58,9.74,9.74,0,0,1-2.73-1.57,5,5,0,0,1-2.19-3.71,2.12,2.12,0,0,1,1.12-1.94" transform="translate(-124.24 -61.99)"/><path class="cls-12" d="M614.79,816.67a3.75,3.75,0,0,1,1.92-.19c.35-.13.75-.24,1-.3a5.14,5.14,0,0,1,2.48.24,5.74,5.74,0,0,0,2.49.27.83.83,0,0,0,.51-.27l-.07.1a2,2,0,0,1-1.7.5,3.91,3.91,0,0,1-.76-.14c-.51-.16-.88-.21-1.4-.36a4.57,4.57,0,0,0-1.58-.09,5.16,5.16,0,0,0-.62.1,9.56,9.56,0,0,1,2.37.85,10,10,0,0,1,1.69,1.06l.41.32a6.42,6.42,0,0,0,2,.18,5,5,0,0,1,2.28.33,6.33,6.33,0,0,1,1.16.81c-.3-.16-.94-.48-1.24-.59a4.09,4.09,0,0,0-1.42-.26c-.51,0-.86,0-1.37,0a3.49,3.49,0,0,1-.73,0l-.09,0c.65.46,1.26.87,2,1.42l.3.21a8.61,8.61,0,0,0,1.62.09,4.94,4.94,0,0,1,2.27.33,6,6,0,0,1,1.16.81c-.29-.16-.94-.48-1.23-.59a4.15,4.15,0,0,0-1.43-.26c-.51,0-.85,0-1.37,0H625a15.47,15.47,0,0,0,2.77,1.2c.91.28,3,.76,4,1a27,27,0,0,1-4.37-.5,10.21,10.21,0,0,1-2.9-1.12c.23.33.44.59.68.95a4.62,4.62,0,0,0,1.14,1.09,14.1,14.1,0,0,0,1.38.78,8.57,8.57,0,0,1-1.55-.6,5.35,5.35,0,0,1-1.75-1.79c-.2-.29-.41-.59-.64-.87-.54-.34-1.07-.71-1.59-1.08h0l-.46-.33.11.17a4.47,4.47,0,0,1,.33.7c.17.52.33.85.52,1.35a4.44,4.44,0,0,0,.83,1.34c.24.27.85.84,1.14,1.09a8.48,8.48,0,0,1-1.35-1,5.29,5.29,0,0,1-1.25-2.17,5.84,5.84,0,0,0-1.17-2.13l-.4-.28a.45.45,0,0,0-.16,0h.11c-.46-.32-.92-.63-1.41-.91a4,4,0,0,1,.36.89,3.74,3.74,0,0,1,.13.88c0,.62.1,1,.14,1.66a5.31,5.31,0,0,0,.49,1.75c.18.38.67,1.2.91,1.58a10.76,10.76,0,0,1-1.18-1.51,6.06,6.06,0,0,1-.69-2.79,6.65,6.65,0,0,0-.59-2.7,10.29,10.29,0,0,0-2.57-1,2.43,2.43,0,0,0-1.51,0Z" transform="translate(-124.24 -61.99)"/><path class="cls-13" d="M607.52,815.65a8.7,8.7,0,0,1,5.23.41,7.43,7.43,0,0,1,2.61,2.15,11.6,11.6,0,0,1,2.06,5.24A15.72,15.72,0,0,0,619,828.7c.18.32.39.63.59.94-2.28-1.19-4.69-2.16-7-3.35a17.28,17.28,0,0,1-5.84-4.44,8,8,0,0,1-1.22-2.27,3.43,3.43,0,0,1,.22-3.3,1.83,1.83,0,0,1,1.77-.63" transform="translate(-124.24 -61.99)"/><path class="cls-12" d="M609,815.63a3.84,3.84,0,0,1,1.49.82c.31.1.66.22.85.3a5,5,0,0,1,1.69,1.34,5.27,5.27,0,0,0,1.67,1.37.81.81,0,0,0,.5.09l-.09,0a2,2,0,0,1-1.48-.52,3.07,3.07,0,0,1-.49-.46c-.29-.34-.53-.56-.84-.9a4.49,4.49,0,0,0-1.1-.82l-.5-.24a8.91,8.91,0,0,1,1.31,1.67,8.09,8.09,0,0,1,.71,1.45c0,.14.09.27.14.4a6.43,6.43,0,0,0,1.35,1.07,4.66,4.66,0,0,1,1.49,1.3,5.27,5.27,0,0,1,.45,1.05c-.14-.24-.45-.74-.61-1a4,4,0,0,0-.91-.85c-.38-.24-.61-.43-1-.66a4,4,0,0,1-.51-.38l-.05-.06c.24.59.49,1.13.75,1.82l.12.27a7.54,7.54,0,0,0,1.13.84,4.7,4.7,0,0,1,1.49,1.31A5,5,0,0,1,617,826c-.14-.24-.45-.74-.61-1a4,4,0,0,0-.91-.84c-.38-.24-.61-.43-1-.66a3.06,3.06,0,0,1-.29-.21,12.58,12.58,0,0,0,1.42,2.07c.52.61,1.84,1.94,2.47,2.55a25.27,25.27,0,0,1-2.93-2.42,9.06,9.06,0,0,1-1.56-2.08c0,.3,0,.56,0,.9a3.12,3.12,0,0,0,.3,1.21,12.79,12.79,0,0,0,.62,1.14,7.37,7.37,0,0,1-.83-1.12,3.78,3.78,0,0,1-.4-1.92,7.87,7.87,0,0,0,0-.84c-.23-.47-.44-.95-.63-1.43h0l-.18-.43v.16a2.27,2.27,0,0,1-.1.58c-.13.39-.17.67-.29,1.07a3.13,3.13,0,0,0,0,1.21c0,.28.21.92.29,1.21a7,7,0,0,1-.51-1.24,3.56,3.56,0,0,1,.15-1.91,3.89,3.89,0,0,0,.19-1.85l-.15-.37a.43.43,0,0,0-.1-.09l.08,0c-.18-.41-.37-.83-.58-1.23a2.47,2.47,0,0,1-.18.71,2.93,2.93,0,0,1-.33.6c-.29.38-.43.67-.71,1.06a3.44,3.44,0,0,0-.49,1.3,12.42,12.42,0,0,0-.11,1.39,7.47,7.47,0,0,1-.13-1.48,4,4,0,0,1,.87-2,4.44,4.44,0,0,0,.89-1.92,8.85,8.85,0,0,0-1.37-1.85,2.45,2.45,0,0,0-1.11-.73Z" transform="translate(-124.24 -61.99)"/><path class="cls-8" d="M608.41,813a10.27,10.27,0,0,1,4.49-5.43,9.06,9.06,0,0,1,4.53-.82,17.5,17.5,0,0,1,7.76,2.79,24.7,24.7,0,0,0,7.38,3.36c.51.11,1,.18,1.56.26-3.15,1.38-6.14,3.13-9.29,4.52s-6.57,2.42-9.71,2.2a12,12,0,0,1-3.62-.86,5.94,5.94,0,0,1-3.72-3.44,2.52,2.52,0,0,1,.62-2.58" transform="translate(-124.24 -61.99)"/><path class="cls-12" d="M610.17,811.42a4.25,4.25,0,0,1,2.22-.85l0,0,0,0a7.18,7.18,0,0,1,1,0,8.32,8.32,0,0,0,2.06-1.16,6.09,6.09,0,0,1,2.56-1.24,8.51,8.51,0,0,1,1.75,0c-.41.05-1.3.17-1.68.26a5.07,5.07,0,0,0-1.64.72c-.51.37-.89.58-1.4,1a3.82,3.82,0,0,1-.77.46l-.08,0c.38,0,.75.1,1.11.16a11,11,0,0,1,2.16.63l.19.08a10.34,10.34,0,0,0,1.89-.81,5.91,5.91,0,0,1,2.7-.89A7.6,7.6,0,0,1,624,810a15.89,15.89,0,0,0-1.7,0,5,5,0,0,0-1.72.5c-.56.3-1,.46-1.51.77a4.58,4.58,0,0,1-.83.35h0c1.07.41,2,.68,3.17,1.14a10,10,0,0,0,1.43.42,6.72,6.72,0,0,0,1.42-.6,4.56,4.56,0,0,1,2-.66,6.59,6.59,0,0,1,1.27.18c-.3,0-1,0-1.24,0a3.67,3.67,0,0,0-1.26.37c-.41.22-.7.33-1.11.56a3,3,0,0,1-.52.23,16.8,16.8,0,0,0,2.57.28c1.06,0,3.52-.12,4.65-.22a29,29,0,0,1-4.83.84,15.49,15.49,0,0,1-6.4-1.22,3.69,3.69,0,0,1,.47.51c.43.57.78.91,1.22,1.46a6,6,0,0,0,1.62,1.3c.41.23,1.41.67,1.88.87a12.55,12.55,0,0,1-2.09-.62,6.91,6.91,0,0,1-2.48-2.15,9.79,9.79,0,0,0-1.78-1.8l-1.4-.5h0c-.51-.18-1-.34-1.57-.48a4.46,4.46,0,0,1,.69.88,4.4,4.4,0,0,1,.44.93c.21.67.44,1.1.67,1.77a6.24,6.24,0,0,0,1.1,1.76c.32.35,1.12,1.09,1.5,1.43a12.27,12.27,0,0,1-1.78-1.27,7,7,0,0,1-1.64-2.84,7.65,7.65,0,0,0-1.53-2.8,12.75,12.75,0,0,0-2.47-.32,3.39,3.39,0,0,1,1.22,1.27,4.92,4.92,0,0,1,.43.93c.22.67.44,1.1.68,1.77a6,6,0,0,0,1.1,1.76c.31.35,1.11,1.09,1.5,1.43a11.26,11.26,0,0,1-1.78-1.27,6.91,6.91,0,0,1-1.64-2.84,7.44,7.44,0,0,0-1.6-2.87l-.22-.18h-.36a2.59,2.59,0,0,0-1.61.5Z" transform="translate(-124.24 -61.99)"/><path class="cls-8" d="M586.76,816.07a6.55,6.55,0,0,0-4.28-1.32,5.79,5.79,0,0,0-2.68,1.15,11,11,0,0,0-3.15,4.18,15.74,15.74,0,0,1-2.74,4.35l-.74.68c2.15-.37,4.35-.48,6.5-.84a13.5,13.5,0,0,0,5.91-2.21,7.72,7.72,0,0,0,1.63-1.71,3.84,3.84,0,0,0,.77-3.13,1.59,1.59,0,0,0-1.22-1.15" transform="translate(-124.24 -61.99)"/><path class="cls-12" d="M578,822.8a9,9,0,0,0,2.4-2c.16-.2.3-.38.45-.55a2.29,2.29,0,0,1-.58.06c-.42,0-.71,0-1.13.05a3.53,3.53,0,0,0-1.21.28c-.26.11-.84.42-1.1.57a7.29,7.29,0,0,1,1.06-.76,4.1,4.1,0,0,1,1.93-.38,7,7,0,0,0,1.29-.13c.36-.43.71-.83,1.1-1.37a6.93,6.93,0,0,1,.58-.67l-.31.05a2.49,2.49,0,0,1-.61,0c-.42-.05-.71,0-1.14-.08a3.61,3.61,0,0,0-1.23.15c-.27.09-.87.34-1.15.46a6.11,6.11,0,0,1,1.14-.65,4.26,4.26,0,0,1,1.95-.18,5.36,5.36,0,0,0,1.65,0l.18-.16a7.56,7.56,0,0,1,1.12-.8,1.86,1.86,0,0,1-.48-.1c-.34-.11-.58-.15-.93-.25a3,3,0,0,0-1-.08c-.24,0-.78.13-1,.18a5.59,5.59,0,0,1,1-.34,3.44,3.44,0,0,1,1.65.18,5.76,5.76,0,0,0,1.14.23,2.69,2.69,0,0,1,1.84-.23l.22.08a1.56,1.56,0,0,0-1.13.18,5.36,5.36,0,0,0-.62.34,4.37,4.37,0,0,0-.15,1.94,4.13,4.13,0,0,1-.2,2,6.11,6.11,0,0,1-.65,1.14c.12-.28.38-.88.46-1.15a3.37,3.37,0,0,0,.16-1.23c0-.43,0-.72-.06-1.14a3.11,3.11,0,0,1,0-.61,2.7,2.7,0,0,1,.2-.74,10.38,10.38,0,0,0-1.79,1.66,6.28,6.28,0,0,0-.17,1.38,4,4,0,0,1-.42,1.91,5.72,5.72,0,0,1-.78,1,11.65,11.65,0,0,0,.59-1.09,3.7,3.7,0,0,0,.31-1.2c0-.42.06-.71.06-1.13a3.07,3.07,0,0,1,.06-.51c-.22.27-.44.53-.65.8a10.47,10.47,0,0,1-3.7,3.31,17.45,17.45,0,0,1-3.15,1C575.82,823.86,577.33,823.16,578,822.8Z" transform="translate(-124.24 -61.99)"/><path class="cls-13" d="M593,814a11.21,11.21,0,0,0-7.25-.8,6.51,6.51,0,0,0-3.22,2.6c-1.49,2.25-1.74,4.91-1.84,7.5s-.09,5.22-1.13,7.64c-.19.43-.41.86-.63,1.28,3-1.21,6.14-2,9.09-3.25s5.77-2.86,7.3-5.24a8.75,8.75,0,0,0,1.25-3.16,6.33,6.33,0,0,0-1-5.13A3.35,3.35,0,0,0,593,814" transform="translate(-124.24 -61.99)"/><path class="cls-12" d="M585.67,824.68l-.3.17a4,4,0,0,1-.61.22c-.43.1-.71.21-1.14.32a4,4,0,0,0-1.17.6c-.23.17-.74.63-1,.85a7.38,7.38,0,0,1,.9-1,4.42,4.42,0,0,1,1.87-.87,5.41,5.41,0,0,0,1.7-.7,10.34,10.34,0,0,0,.86-1.82l.22-.61-.24.09a3.88,3.88,0,0,1-.75.17c-.53.05-.88.14-1.41.2a4.48,4.48,0,0,0-1.46.52,14.45,14.45,0,0,0-1.29.86,7.92,7.92,0,0,1,1.22-1.09,5.12,5.12,0,0,1,2.34-.74,7.86,7.86,0,0,0,1.73-.38c.3-.81.6-1.53.89-2.47.07-.22.16-.46.26-.71a3.1,3.1,0,0,1-.72.32,3.59,3.59,0,0,1-.79.17c-.57,0-.95.14-1.51.2a4.75,4.75,0,0,0-1.57.53c-.34.18-1.06.67-1.4.9a10.36,10.36,0,0,1,1.32-1.15,5.61,5.61,0,0,1,2.52-.75,6.85,6.85,0,0,0,2.33-.6c.11-.26.24-.51.36-.73a11.76,11.76,0,0,1,.82-1.26,4,4,0,0,1-.57.16,4.46,4.46,0,0,1-.82.06c-.56,0-.95,0-1.51,0a4.8,4.8,0,0,0-1.63.33,15.76,15.76,0,0,0-1.49.73,8.31,8.31,0,0,1,1.44-1,5.44,5.44,0,0,1,2.59-.44,6.85,6.85,0,0,0,2.31-.28,4.31,4.31,0,0,1,2.29-1.53l.3,0a2.4,2.4,0,0,0-1.27.83,10.15,10.15,0,0,0-.83,1.06.51.51,0,0,0,0,.13,5.89,5.89,0,0,0,1.33,2.27,5.53,5.53,0,0,1,1.29,2.28,8.56,8.56,0,0,1,.15,1.75c-.07-.4-.26-1.26-.37-1.62a4.85,4.85,0,0,0-.77-1.47c-.36-.44-.58-.77-1-1.19a3.53,3.53,0,0,1-.46-.68,2.72,2.72,0,0,1-.38-1.26,17.12,17.12,0,0,0-1.55,3.23,6.47,6.47,0,0,0,1,2.26,5.69,5.69,0,0,1,1,2.43,10.21,10.21,0,0,1-.07,1.75c0-.41-.11-1.28-.17-1.65a5,5,0,0,0-.58-1.56c-.31-.47-.47-.83-.79-1.3a4.08,4.08,0,0,1-.37-.72,3.7,3.7,0,0,1-.21-.72l-.27.75a27.69,27.69,0,0,1-1.12,2.8c0,.34.13.68.21,1a4.37,4.37,0,0,1,.16,2.09,7.32,7.32,0,0,1-.48,1.31,12.36,12.36,0,0,0,.27-1.29,3.8,3.8,0,0,0,0-1.33c-.12-.44-.16-.75-.28-1.18,0,0,0-.11,0-.17a10,10,0,0,1-1.71,2.45A27.54,27.54,0,0,1,582,829c.71-.74,2.21-2.34,2.8-3.08C585,825.62,585.35,825.17,585.67,824.68Z" transform="translate(-124.24 -61.99)"/><path class="cls-8" d="M598.54,813.11c2.42-.48,6.85.27,8.82,1.75a7.92,7.92,0,0,1,2.82,4.24c.92,3.19.23,6.41-.6,9.48s-1.83,6.17-1.5,9.4c.06.58.17,1.16.27,1.74-3-2.51-6.46-4.67-9.48-7.18s-5.72-5.49-6.65-8.84a11,11,0,0,1-.29-4.19,7.76,7.76,0,0,1,3-5.66,4.18,4.18,0,0,1,3.58-.74" transform="translate(-124.24 -61.99)"/><path class="cls-12" d="M596.06,820.89a7.63,7.63,0,0,1,2.13-3,8.31,8.31,0,0,0,2.19-2.95,2.34,2.34,0,0,0,.09-.38,2.77,2.77,0,0,0-1.08-1.25l.33.16a4.81,4.81,0,0,1,1.8,2,6.79,6.79,0,0,0,2.59.87,6,6,0,0,1,2.67,1,8.32,8.32,0,0,1,1.2,1.25c-.32-.26-1-.8-1.35-1a4.94,4.94,0,0,0-1.65-.66c-.62-.12-1-.24-1.66-.33a5.08,5.08,0,0,1-.87-.24,3.6,3.6,0,0,1-.68-.34,12.46,12.46,0,0,1,.8,2.54c.07.35.13.74.18,1.14l.06.05a6.67,6.67,0,0,0,2.69.93,6,6,0,0,1,2.66,1,7.08,7.08,0,0,1,1.2,1.25,15.67,15.67,0,0,0-1.34-1,5,5,0,0,0-1.65-.67c-.63-.11-1-.23-1.66-.33a4.12,4.12,0,0,1-.87-.23,2.87,2.87,0,0,1-1.05-.65c0,.34.05.68.05,1,0,1,.06,1.88.11,2.78a10.75,10.75,0,0,0,1.72,1,6,6,0,0,1,2.31,1.64,8,8,0,0,1,.82,1.52c-.24-.33-.77-1-1-1.33a5,5,0,0,0-1.42-1.08c-.57-.27-.93-.5-1.51-.76a4.24,4.24,0,0,1-.77-.46l-.09-.07c0,.4,0,.81,0,1.26a16.42,16.42,0,0,0,1.09,4.93c.42,1.09,1.59,3.53,2.16,4.65a32.43,32.43,0,0,1-2.86-4.6,10.39,10.39,0,0,1-.8-2.11h0c-.21.63-.28,1.08-.46,1.72A5.54,5.54,0,0,0,602,832c.05.44.25,1.45.35,1.91a10.05,10.05,0,0,1-.65-1.94,6.42,6.42,0,0,1,.32-3.06c.13-.5.27-1,.35-1.52a20,20,0,0,1-.3-2.16h0c0-.42-.07-.84-.09-1.25-.06.15-.11.29-.18.43a4.59,4.59,0,0,1-.48.83c-.41.52-.63.92-1,1.46a5.56,5.56,0,0,0-.78,1.78c-.11.43-.26,1.44-.32,1.91a10.72,10.72,0,0,1,0-2,6.45,6.45,0,0,1,1.34-2.77,7.4,7.4,0,0,0,1.35-2.63c0-.1,0-.21,0-.31s0-.31,0-.46l0-.06,0,0c0-.93-.09-1.87-.19-2.81a5.54,5.54,0,0,1-.66,1.28,5.71,5.71,0,0,1-.82.95c-.64.59-1,1.06-1.63,1.66a7.29,7.29,0,0,0-1.42,2.12c-.23.53-.66,1.8-.84,2.4a13.76,13.76,0,0,1,.52-2.63,8.43,8.43,0,0,1,2.35-3.28,9.17,9.17,0,0,0,2.4-3.24v0a13.11,13.11,0,0,0-1-3.69,3.57,3.57,0,0,1-.73,1.94,5.51,5.51,0,0,1-.74.86c-.58.54-.93,1-1.49,1.51a6.71,6.71,0,0,0-1.29,1.93c-.21.48-.6,1.64-.77,2.18A13.15,13.15,0,0,1,596.06,820.89Z" transform="translate(-124.24 -61.99)"/><path class="cls-13" d="M592.74,812.34a9.92,9.92,0,0,0,2.84-5.81,5.74,5.74,0,0,0-1.2-3.46,12.56,12.56,0,0,0-5.69-3.79c-2.13-.86-4.33-1.64-6-3.24-.31-.29-.6-.6-.89-.91.12,2.83-.14,5.73,0,8.56s.65,5.66,2.17,7.66a8,8,0,0,0,2.27,2,5.61,5.61,0,0,0,4.56.73,3,3,0,0,0,2-1.73" transform="translate(-124.24 -61.99)"/><path class="cls-12" d="M586,803c0-.1,0-.2,0-.3a2.71,2.71,0,0,1,0-.57c0-.39,0-.66.07-1.06a3.6,3.6,0,0,0-.14-1.14c-.08-.26-.31-.82-.43-1.08a6.2,6.2,0,0,1,.61,1.06,3.85,3.85,0,0,1,.16,1.82,4.68,4.68,0,0,0,.07,1.63,9.46,9.46,0,0,0,1.26,1.27l.45.36a1.77,1.77,0,0,1,0-.23,3.73,3.73,0,0,1,.09-.67c.11-.45.15-.78.25-1.23a4,4,0,0,0,0-1.38c-.05-.31-.24-1-.33-1.34a7.18,7.18,0,0,1,.54,1.35,4.57,4.57,0,0,1-.09,2.17,7.49,7.49,0,0,0-.2,1.56c.59.5,1.09,1,1.79,1.48a6.66,6.66,0,0,1,.51.44,4.12,4.12,0,0,1,0-.7,4.45,4.45,0,0,1,.1-.72c.13-.48.17-.82.29-1.31a4.59,4.59,0,0,0,0-1.47c0-.34-.24-1.09-.34-1.43a8.14,8.14,0,0,1,.57,1.44,4.94,4.94,0,0,1-.13,2.32,5.94,5.94,0,0,0-.2,2.13c.18.17.35.35.5.52a9.79,9.79,0,0,1,.8,1.06,4.22,4.22,0,0,1,0-.52,4,4,0,0,1,.19-.7c.19-.47.27-.8.45-1.27a4.4,4.4,0,0,0,.21-1.46c0-.34-.1-1.11-.16-1.46a7.67,7.67,0,0,1,.38,1.5,4.93,4.93,0,0,1-.41,2.29,5.88,5.88,0,0,0-.46,2,3.72,3.72,0,0,1,.58,2.37l-.05.26a2.09,2.09,0,0,0-.32-1.31,7.44,7.44,0,0,0-.63-1l-.11,0a5.23,5.23,0,0,0-2.29.42,4.81,4.81,0,0,1-2.29.39,7.69,7.69,0,0,1-1.5-.39c.35,0,1.12.15,1.46.17a4.37,4.37,0,0,0,1.46-.2c.47-.17.81-.25,1.27-.43a2.88,2.88,0,0,1,.7-.18,2.42,2.42,0,0,1,1.17.06,14,14,0,0,0-2.23-2.26,5.56,5.56,0,0,0-2.18.16,5,5,0,0,1-2.33.1,8.5,8.5,0,0,1-1.44-.58c.35.1,1.1.29,1.43.35a4.27,4.27,0,0,0,1.47,0c.49-.11.84-.15,1.32-.27a3.76,3.76,0,0,1,1.38,0l-.54-.45c-.68-.56-1.37-1.14-2-1.77a7,7,0,0,0-.9-.13,3.94,3.94,0,0,1-1.8-.5,6.53,6.53,0,0,1-1-.79c.24.16.76.49,1,.61a3.51,3.51,0,0,0,1.12.36c.4,0,.67.09,1.07.12h.16a9,9,0,0,1-1.53-2.16,25.15,25.15,0,0,1-1.39-3.65c.4.82,1.28,2.55,1.73,3.27A12,12,0,0,0,586,803Z" transform="translate(-124.24 -61.99)"/><path class="cls-8" d="M597.26,813.35c-1.34-1.66-2.55-5.35-2.21-7.46a6.92,6.92,0,0,1,2.13-3.86c2.07-2,4.82-2.75,7.51-3.34s5.46-1.08,7.8-2.63c.42-.28.83-.59,1.23-.9-.71,3.33-1,6.82-1.7,10.15s-1.91,6.58-4.11,8.64a9.49,9.49,0,0,1-3.09,1.91,6.74,6.74,0,0,1-5.56-.06,3.58,3.58,0,0,1-2-2.45" transform="translate(-124.24 -61.99)"/><path class="cls-12" d="M607.12,803.68l.12-.35a3.75,3.75,0,0,0,.11-.67c0-.47.09-.79.13-1.26a4,4,0,0,1,.4-1.33,13.45,13.45,0,0,1,.72-1.19,7.76,7.76,0,0,0-.93,1.13,4.69,4.69,0,0,0-.56,2.13,5.58,5.58,0,0,1-.41,1.91A11.76,11.76,0,0,1,605,805.3l-.6.34a2.56,2.56,0,0,0,0-.27,3.14,3.14,0,0,0,0-.81c0-.56,0-.95,0-1.52a4.72,4.72,0,0,1,.26-1.63c.12-.36.48-1.15.66-1.52a9.48,9.48,0,0,0-.92,1.49,5.51,5.51,0,0,0-.33,2.59,8,8,0,0,1-.07,1.89c-.8.47-1.49.92-2.42,1.4a7.33,7.33,0,0,0-.69.41,4.75,4.75,0,0,0,.19-.81,4.32,4.32,0,0,0,0-.88c-.06-.6,0-1-.07-1.61a5.16,5.16,0,0,1,.26-1.75c.12-.39.5-1.24.68-1.63a10.27,10.27,0,0,0-1,1.6,6,6,0,0,0-.32,2.78,6.83,6.83,0,0,1-.19,2.55c-.24.17-.48.35-.69.52a13.26,13.26,0,0,0-1.17,1.09,4.48,4.48,0,0,0,.06-.62,5.12,5.12,0,0,0-.08-.87c-.14-.59-.16-1-.28-1.59a5.13,5.13,0,0,1,0-1.77c.08-.4.34-1.29.48-1.71a9.68,9.68,0,0,0-.76,1.71,5.9,5.9,0,0,0,0,2.8,7.1,7.1,0,0,1,.14,2.47,4.56,4.56,0,0,0-1.17,2.69V813a2.65,2.65,0,0,1,.64-1.49,9.68,9.68,0,0,1,1-1.07h.14a6.14,6.14,0,0,1,2.63,1,5.93,5.93,0,0,0,2.64.92,9.68,9.68,0,0,0,1.86-.17c-.44,0-1.37,0-1.77-.09a5.12,5.12,0,0,1-1.69-.53c-.52-.3-.91-.45-1.42-.77a3.81,3.81,0,0,0-.8-.35,2.81,2.81,0,0,0-1.4-.16A18.37,18.37,0,0,1,602,808a6.62,6.62,0,0,1,2.56.64,6,6,0,0,0,2.74.58,9.38,9.38,0,0,0,1.82-.4c-.43.05-1.36.13-1.76.13a5.06,5.06,0,0,1-1.75-.31c-.55-.23-1-.34-1.51-.58a3.82,3.82,0,0,0-.83-.26,3.47,3.47,0,0,0-.79-.07l.73-.43c.92-.53,1.86-1.07,2.74-1.7a7.94,7.94,0,0,1,1.09,0,4.74,4.74,0,0,0,2.22-.23,7.89,7.89,0,0,0,1.29-.75c-.31.14-1,.43-1.31.53a4,4,0,0,1-1.4.19c-.48,0-.81,0-1.29-.07h-.18a10.91,10.91,0,0,0,2.24-2.26,29.31,29.31,0,0,0,2.38-4c-.63.89-2,2.76-2.7,3.52C608,802.84,607.57,803.26,607.12,803.68Z" transform="translate(-124.24 -61.99)"/><path class="cls-8" d="M596.2,809.9a8.79,8.79,0,0,0-4.58-3.86,7.73,7.73,0,0,0-3.91,0,15,15,0,0,0-6.06,3.51,20.8,20.8,0,0,1-5.65,3.92c-.41.17-.84.31-1.26.46,2.84.67,5.6,1.68,8.44,2.36a18,18,0,0,0,8.44.36,9.85,9.85,0,0,0,2.9-1.26A5,5,0,0,0,597.1,812a2.14,2.14,0,0,0-.9-2.06" transform="translate(-124.24 -61.99)"/><path class="cls-12" d="M581.82,813.59a12,12,0,0,0,4-1.22l.83-.44a3.74,3.74,0,0,1-.74-.23c-.51-.22-.89-.32-1.42-.54a4.82,4.82,0,0,0-1.63-.28c-.38,0-1.25.08-1.66.13a10.05,10.05,0,0,1,1.71-.38,5.5,5.5,0,0,1,2.57.53,8.87,8.87,0,0,0,1.66.52c.67-.34,1.31-.66,2.08-1.11a7.33,7.33,0,0,1,1-.52l-.41-.1a3.53,3.53,0,0,1-.75-.32c-.49-.28-.86-.42-1.36-.68a4.78,4.78,0,0,0-1.59-.46c-.38,0-1.26,0-1.66,0a8.36,8.36,0,0,1,1.74-.2,5.57,5.57,0,0,1,2.5.8,7,7,0,0,0,2,.8l.32-.11a9.68,9.68,0,0,1,1.79-.4,3.43,3.43,0,0,1-.54-.37c-.36-.31-.64-.49-1-.8a4,4,0,0,0-1.25-.64c-.31-.1-1-.26-1.37-.32a8.21,8.21,0,0,1,1.48.12,4.81,4.81,0,0,1,1.94,1.09,7.46,7.46,0,0,0,1.28.88,3.61,3.61,0,0,1,2.38.68l.24.21a2.15,2.15,0,0,0-1.49-.37,7.3,7.3,0,0,0-.94.1,5.89,5.89,0,0,0-1.21,2.31,5.49,5.49,0,0,1-1.26,2.31,9.39,9.39,0,0,1-1.39,1.05c.3-.28.92-.89,1.17-1.18a4.87,4.87,0,0,0,.84-1.43c.18-.53.35-.89.51-1.43a3.57,3.57,0,0,1,.33-.75,3.33,3.33,0,0,1,.63-.81,13.29,13.29,0,0,0-3.07,1.11,8.54,8.54,0,0,0-.93,1.61,5.58,5.58,0,0,1-1.52,2.14,8.8,8.8,0,0,1-1.51.89c.33-.24,1-.78,1.3-1a4.86,4.86,0,0,0,1-1.32c.24-.51.45-.84.67-1.36a2.91,2.91,0,0,1,.34-.59c-.41.21-.82.42-1.22.64-2,1-4.05,2.12-6.29,2.14a24,24,0,0,1-4.4-.42C578.66,813.78,580.87,813.71,581.82,813.59Z" transform="translate(-124.24 -61.99)"/><path class="cls-13" d="M598.38,811.23a6.71,6.71,0,0,1,4.3-1.57,5.84,5.84,0,0,1,2.81,1.05,11.26,11.26,0,0,1,3.42,4.12,16.06,16.06,0,0,0,3,4.31c.25.23.51.44.78.66-2.22-.27-4.47-.28-6.69-.54a13.87,13.87,0,0,1-6.16-2,7.7,7.7,0,0,1-1.74-1.67,3.84,3.84,0,0,1-.94-3.16,1.6,1.6,0,0,1,1.19-1.23" transform="translate(-124.24 -61.99)"/><path class="cls-12" d="M607.72,817.68a9.31,9.31,0,0,1-2.56-1.94c-.17-.2-.32-.38-.48-.54a3,3,0,0,0,.59,0c.43,0,.73,0,1.16,0a3.77,3.77,0,0,1,1.25.23c.28.1.88.39,1.16.53a7.45,7.45,0,0,0-1.13-.72,4.15,4.15,0,0,0-2-.3,7.32,7.32,0,0,1-1.33-.07c-.4-.42-.77-.82-1.2-1.34a6.32,6.32,0,0,0-.62-.66l.32,0a3.22,3.22,0,0,0,.62,0c.43-.07.73-.07,1.16-.13a3.68,3.68,0,0,1,1.27.09c.28.07.91.3,1.2.41a6.72,6.72,0,0,0-1.2-.6,4.22,4.22,0,0,0-2-.09,5.64,5.64,0,0,1-1.69,0l-.2-.16a7.21,7.21,0,0,0-1.18-.76,3.89,3.89,0,0,0,.49-.12c.34-.14.59-.19.93-.31a3.28,3.28,0,0,1,1.07-.14c.25,0,.81.1,1.07.14a5.76,5.76,0,0,0-1.1-.3,3.65,3.65,0,0,0-1.68.27,5.7,5.7,0,0,1-1.15.29,2.7,2.7,0,0,0-1.89-.14l-.22.08a1.68,1.68,0,0,1,1.16.13c.22.1.44.2.65.32a4.56,4.56,0,0,1,.26,2,4.05,4.05,0,0,0,.29,2,7.45,7.45,0,0,0,.72,1.13c-.14-.28-.43-.89-.53-1.16a3.58,3.58,0,0,1-.22-1.25c0-.43,0-.73,0-1.16a2.7,2.7,0,0,0,0-.63,2.27,2.27,0,0,0-.24-.75,10.52,10.52,0,0,1,1.92,1.61,7.29,7.29,0,0,1,.24,1.41,4.32,4.32,0,0,0,.52,1.94,6.94,6.94,0,0,0,.85,1c-.17-.26-.53-.83-.66-1.08a4,4,0,0,1-.37-1.22c0-.43-.1-.73-.12-1.16a3.17,3.17,0,0,0-.08-.51l.7.78a10.81,10.81,0,0,0,3.95,3.21,18.53,18.53,0,0,0,3.27.86C610,818.65,608.38,818,607.72,817.68Z" transform="translate(-124.24 -61.99)"/><path class="cls-11" d="M599.27,768.71a1.46,1.46,0,0,0,1.37-1,39.46,39.46,0,0,0,2.68-10.87c.3-4.35-.7-8.44-2.75-11.22a1.46,1.46,0,0,0-2.35,1.74c1.65,2.23,2.44,5.61,2.19,9.28a36.49,36.49,0,0,1-2.51,10.06,1.46,1.46,0,0,0,.87,1.88A1.43,1.43,0,0,0,599.27,768.71Z" transform="translate(-124.24 -61.99)"/><rect class="cls-2" x="652.75" y="822.76" width="58.22" height="208.16" transform="translate(1239.47 1791.69) rotate(-180)"/><path class="cls-4" d="M651.38,823.19H711V804.06H638a1,1,0,0,0-.77,1.63Z" transform="translate(-124.24 -61.99)"/><path class="cls-4" d="M647.87,822.76h59.2a3.89,3.89,0,0,1,3.89,3.89v.29a3.89,3.89,0,0,1-3.89,3.89h-59.2a0,0,0,0,1,0,0v-8.08A0,0,0,0,1,647.87,822.76Z" transform="translate(1234.59 1591.6) rotate(180)"/><g class="cls-18"><path class="cls-6" d="M779.05,823.18H637.41V812.45a10.74,10.74,0,0,1,8.85,4.66,10.73,10.73,0,0,1,17.7,0,10.74,10.74,0,0,1,17.71,0,10.73,10.73,0,0,1,17.7,0,10.74,10.74,0,0,1,17.71,0c.16-.23.35-.46.53-.68l.06-.07c.19-.23.39-.45.6-.67a1.85,1.85,0,0,0,.14-.14l.67-.61.1-.07a10.51,10.51,0,0,1,3.48-1.89l.15-.05a9.32,9.32,0,0,1,.91-.23l.17,0a10.53,10.53,0,0,1,2-.22,10.71,10.71,0,0,1,8.08,3.67,10.5,10.5,0,0,1,.77,1,10.73,10.73,0,0,1,16.93-1,9.44,9.44,0,0,1,.78,1,10.73,10.73,0,0,1,17.7,0,10.73,10.73,0,0,1,8.86-4.67Z" transform="translate(-124.24 -61.99)"/></g><path class="cls-4" d="M672.49,862.9H711a0,0,0,0,1,0,0v79.24a37.1,37.1,0,0,1-37.1,37.1h-1.37a0,0,0,0,1,0,0V862.9A0,0,0,0,1,672.49,862.9Z" transform="translate(1259.22 1780.16) rotate(-180)"/><path class="cls-6" d="M678.63,868.27H711a0,0,0,0,1,0,0v71.85a31.18,31.18,0,0,1-31.18,31.18h-1.15a0,0,0,0,1,0,0v-103A0,0,0,0,1,678.63,868.27Z" transform="translate(1265.36 1777.58) rotate(-180)"/><path class="cls-2" d="M711,1117.78H652.82v-50.69c-1.67-14.16-8-19.7-8-19.7h8v-7.74H711Z" transform="translate(-124.24 -61.99)"/><path class="cls-3" d="M711,1047.89H641.27s-20.15.48-12-17.39c5.91-12.93-.81-16-5-16.72a7.46,7.46,0,0,1-4.76,13.2,8.11,8.11,0,0,1-.86,0h0s-12.4-.57-10.4-15.82,17.82-11.83,17.82-11.83,13.82,1,15,13.66,47,14,47,14H711Z" transform="translate(-124.24 -61.99)"/><rect class="cls-2" x="652.75" y="1135.71" width="58.22" height="208.16" transform="translate(1239.47 2417.6) rotate(-180)"/><path class="cls-4" d="M651.38,1136.15H711V1117H638a1,1,0,0,0-.77,1.63Z" transform="translate(-124.24 -61.99)"/><path class="cls-4" d="M647.87,1135.71h59.2a3.89,3.89,0,0,1,3.89,3.89v.29a3.89,3.89,0,0,1-3.89,3.89h-59.2a0,0,0,0,1,0,0v-8.08A0,0,0,0,1,647.87,1135.71Z" transform="translate(1234.59 2217.51) rotate(180)"/><g class="cls-19"><path class="cls-6" d="M779.05,1136.14H637.41v-10.74a10.72,10.72,0,0,1,8.85,4.66,10.72,10.72,0,0,1,17.7,0,10.74,10.74,0,0,1,17.71,0,10.73,10.73,0,0,1,17.7,0,10.74,10.74,0,0,1,17.71,0c.16-.24.35-.46.53-.69l.06-.07q.29-.35.6-.66l.14-.14c.22-.22.44-.42.67-.61l.1-.08a10.69,10.69,0,0,1,3.48-1.89l.15,0a9.36,9.36,0,0,1,.91-.24l.17,0a10.53,10.53,0,0,1,2-.22,10.67,10.67,0,0,1,8.85,4.67,10.72,10.72,0,0,1,16.93-1,10.6,10.6,0,0,1,.78,1,10.73,10.73,0,0,1,17.7,0,10.75,10.75,0,0,1,8.86-4.66Z" transform="translate(-124.24 -61.99)"/></g><path class="cls-4" d="M672.49,1175.86H711a0,0,0,0,1,0,0v79.24a37.1,37.1,0,0,1-37.1,37.1h-1.37a0,0,0,0,1,0,0V1175.86A0,0,0,0,1,672.49,1175.86Z" transform="translate(1259.22 2406.07) rotate(-180)"/><path class="cls-6" d="M678.63,1181.23H711a0,0,0,0,1,0,0v71.85a31.18,31.18,0,0,1-31.18,31.18h-1.15a0,0,0,0,1,0,0v-103A0,0,0,0,1,678.63,1181.23Z" transform="translate(1265.36 2403.49) rotate(-180)"/><path class="cls-9" d="M686.76,960.27s-11.54.79-3.89,17.93C682.87,978.2,696.44,966,686.76,960.27Z" transform="translate(-124.24 -61.99)"/><path class="cls-8" d="M634.78,966.88a10,10,0,0,0,6.78-4.4,19.2,19.2,0,0,0,3.12-8.05c.89-5,.55-10,.83-15A119.58,119.58,0,0,0,652.36,970a137.35,137.35,0,0,1,.67-35.72,55.15,55.15,0,0,0,9,10.77c5.68,5.29,13,9.3,19.82,13.75A183.46,183.46,0,0,1,702,974c1.43,1.25,2.85,2.54,4.2,3.86a26.91,26.91,0,0,1,1.07,3.76,17.23,17.23,0,0,1-2.48,13.28,13.19,13.19,0,0,1-5.2,4.28,15,15,0,0,1-7.27,1.58,7.35,7.35,0,0,1-6.43-9,7.48,7.48,0,0,1,3.77-5.15c1.44-.71,3.78-.53,4.44,1.21a1.29,1.29,0,0,0,1.56.89,1.27,1.27,0,0,0,.89-1.56,5.67,5.67,0,0,0-7.42-3.08,9.82,9.82,0,0,0-5.74,7.21,10.07,10.07,0,0,0,1.54,7.82,9.83,9.83,0,0,0,6.92,4.12,17.14,17.14,0,0,0,9.12-1.92,15.74,15.74,0,0,0,6.24-5.48,19.62,19.62,0,0,0,2.66-14.07,28.29,28.29,0,0,1,5.12,8.42c2.52,7,.56,14.22-1.76,21,4.62-2.51,6.91-6.78,8-11.05,2.88-11-.91-23.24-10.17-32.89-12.28-12.79-32.51-20.45-45.39-32.85-6.17-5.94-8.32-11.43-9.34-15.59a92.59,92.59,0,0,1,15.76-32c1.78-2.27,3.52-4.37,5.24-6.31a16.32,16.32,0,0,0,1.53,6.81,7.56,7.56,0,0,0,2.87,3.38A4.62,4.62,0,0,0,686,891c2.5-1.09,4.68-4.18,3.62-7a3,3,0,0,0-3.35-2.11,2.4,2.4,0,0,0-1.5,3.36.88.88,0,0,0,1.18.31.89.89,0,0,0,.3-1.18.71.71,0,0,1,.3-.78c.36-.21.84.06,1.09.34a2.76,2.76,0,0,1,.26,2.84c-.75,1.79-3,3.48-4.93,2.6s-3-3.48-3.49-5.54a13.66,13.66,0,0,1-.21-5.49c24-25.88,42.1-21.71,42.1-21.71V836.35c-.87.71-12.79,5.3-27.07,14.64l-1.29.21c-6.2.85-12.51.18-18.69-.81-8.88-1.41-16.78-5.57-22-12.85,0,0-.2-.6-.45.72a13.75,13.75,0,0,0-.23,2.49c0,5.88,4.56,8.48,9.5,11.59a70.79,70.79,0,0,0,7,4,51.81,51.81,0,0,0,13,4.29,118.69,118.69,0,0,0-20.22,21l-.6.28c-5.43,2.63-11.73,5.61-14.4,11.4-2.58,5.6-1.24,11.55.8,17.09A99.15,99.15,0,0,0,645,929.66a31.11,31.11,0,0,0-1.47,6.35c-.66,5.18-.19,10.42-.73,15.6-.48,4.6-2,10.54-6.63,12.62a4.58,4.58,0,0,1-5.07-.76,6.88,6.88,0,0,1-1.9-4.81,7.07,7.07,0,0,1,.5-2.79c.33-.79,1-1.84,1.93-1.94a2,2,0,0,1,1.85,1.43,4,4,0,0,1-.73,3.34c-.79,1.21,1.15,2.33,1.93,1.12a6.28,6.28,0,0,0,1-4.9,4.39,4.39,0,0,0-3.12-3.13c-3.36-.75-5.22,3-5.53,5.73C626.55,962.08,629.65,967.42,634.78,966.88Zm14-73.54a17.46,17.46,0,0,1,5.85-5.55c1.06-.67,2.16-1.28,3.27-1.87a90.65,90.65,0,0,0-10,20,24.32,24.32,0,0,1-.73-3.67A14.18,14.18,0,0,1,648.77,893.34Z" transform="translate(-124.24 -61.99)"/><path class="cls-9" d="M661.66,853s-10.5-11-20.78,10.88C640.88,863.88,664.23,867.52,661.66,853Z" transform="translate(-124.24 -61.99)"/><path class="cls-9" d="M675.65,851.72s14.23-5.44-2-23.37C673.6,828.35,661.26,848.52,675.65,851.72Z" transform="translate(-124.24 -61.99)"/><path class="cls-9" d="M645.65,923.08S635.16,912,624.87,934C624.87,934,648.23,937.6,645.65,923.08Z" transform="translate(-124.24 -61.99)"/><path class="cls-9" d="M675.13,943.15s12.35,8.14,17.83-15.23C693,927.92,669.71,929.86,675.13,943.15Z" transform="translate(-124.24 -61.99)"/><path class="cls-9" d="M665.69,947.4s-8.64,2.26-.45,14.62C665.24,962,673.82,950.51,665.69,947.4Z" transform="translate(-124.24 -61.99)"/><path class="cls-8" d="M651.16,1082.05a8,8,0,0,1,.42-2c.36-1,.53-.56.53-.56,5.38,6.07,13.87,9.76,23.6,11.29,3.11.49,6.24.93,9.4,1.22h0c9.75.78,23.1-3,29.73-5.18l.39-.2-.25.16c2.44-.8,3.93-1.36,3.93-1.36v3.72l1.24,11.28c-15.77,4.06-34.24-.62-34.24-.62l0,0a73,73,0,0,1-17.36-4.51c-2.61-1-5.11-2.25-7.55-3.51C655.68,1089.05,650.8,1086.76,651.16,1082.05Z" transform="translate(-124.24 -61.99)"/><path class="cls-9" d="M665.22,1088.83s10.94.22,4.93-16.1C670.15,1072.73,656.5,1082.82,665.22,1088.83Z" transform="translate(-124.24 -61.99)"/><path class="cls-9" d="M652.88,1088s.92-10.9-15.76-6C637.12,1082.07,646.32,1096.34,652.88,1088Z" transform="translate(-124.24 -61.99)"/><path class="cls-9" d="M678.91,1097s-10.35-8.32-16.68,11.81C662.23,1108.84,682.82,1109.27,678.91,1097Z" transform="translate(-124.24 -61.99)"/><path class="cls-9" d="M687.23,1273.22s-11.55.79-3.89,17.93C683.34,1291.15,696.9,1278.93,687.23,1273.22Z" transform="translate(-124.24 -61.99)"/><path class="cls-8" d="M635.24,1279.84a10,10,0,0,0,6.79-4.41,19.41,19.41,0,0,0,3.12-8c.88-5,.55-10,.82-15a119.63,119.63,0,0,0,6.86,30.58,137.5,137.5,0,0,1,.66-35.71,55.14,55.14,0,0,0,9,10.76c5.68,5.29,13,9.3,19.82,13.75A182.5,182.5,0,0,1,702.41,1287c1.44,1.26,2.85,2.54,4.2,3.86a26,26,0,0,1,1.07,3.76,17.18,17.18,0,0,1-2.48,13.28,13.23,13.23,0,0,1-5.2,4.29,14.9,14.9,0,0,1-7.27,1.57,7.35,7.35,0,0,1-6.42-9,7.44,7.44,0,0,1,3.76-5.15c1.45-.71,3.79-.52,4.44,1.22a1.31,1.31,0,0,0,1.57.89,1.29,1.29,0,0,0,.89-1.57,5.67,5.67,0,0,0-7.43-3.07,9.79,9.79,0,0,0-5.73,7.2,10,10,0,0,0,1.54,7.82,9.78,9.78,0,0,0,6.92,4.12,17,17,0,0,0,9.12-1.92,15.77,15.77,0,0,0,6.24-5.47,19.69,19.69,0,0,0,2.66-14.07,27.93,27.93,0,0,1,5.11,8.42c2.53,7,.56,14.21-1.76,21,4.63-2.5,6.91-6.78,8-11.05,2.88-11-.91-23.24-10.18-32.89-12.28-12.79-32.51-20.44-45.39-32.85-6.17-5.94-8.31-11.43-9.33-15.59a92.42,92.42,0,0,1,15.76-32q2.65-3.39,5.24-6.31a16.24,16.24,0,0,0,1.52,6.81,7.51,7.51,0,0,0,2.87,3.38,4.6,4.6,0,0,0,4.26.28c2.5-1.08,4.69-4.17,3.63-7a3,3,0,0,0-3.35-2.11,2.39,2.39,0,0,0-1.5,3.36.86.86,0,0,0,1.17.31.89.89,0,0,0,.31-1.18.7.7,0,0,1,.29-.77c.36-.21.84.05,1.09.33a2.79,2.79,0,0,1,.27,2.84c-.76,1.8-3,3.49-4.93,2.6s-3-3.48-3.5-5.53a13.49,13.49,0,0,1-.2-5.49c24-25.89,42.1-21.72,42.1-21.72v-20.32c-.87.7-12.79,5.29-27.08,14.64l-1.28.2c-6.21.86-12.52.18-18.7-.81-8.87-1.41-16.78-5.57-22-12.85,0,0-.19-.6-.45.72a13.88,13.88,0,0,0-.23,2.5c0,5.88,4.56,8.48,9.5,11.59a74.06,74.06,0,0,0,7.05,4,52.33,52.33,0,0,0,13,4.28,119.38,119.38,0,0,0-20.22,21l-.6.29c-5.42,2.62-11.73,5.6-14.39,11.39-2.58,5.6-1.24,11.55.79,17.09a100.28,100.28,0,0,0-1.67,19.29A29.79,29.79,0,0,0,644,1249c-.67,5.17-.2,10.41-.74,15.59-.47,4.6-2,10.55-6.63,12.62a4.56,4.56,0,0,1-5.06-.76,7.33,7.33,0,0,1-1.4-7.59c.33-.8,1-1.85,1.93-1.94a2,2,0,0,1,1.85,1.42,4,4,0,0,1-.74,3.34c-.78,1.21,1.15,2.33,1.93,1.13a6.31,6.31,0,0,0,1-4.91,4.36,4.36,0,0,0-3.11-3.12c-3.37-.76-5.23,3-5.54,5.73C627,1275,630.11,1280.37,635.24,1279.84Zm14-73.54a17.36,17.36,0,0,1,5.85-5.55c1.07-.67,2.16-1.29,3.28-1.87a89.71,89.71,0,0,0-10,20,24.1,24.1,0,0,1-.74-3.67A14.29,14.29,0,0,1,649.23,1206.3Z" transform="translate(-124.24 -61.99)"/><path class="cls-9" d="M662.12,1166s-10.49-11-20.78,10.88C641.34,1176.84,664.7,1180.48,662.12,1166Z" transform="translate(-124.24 -61.99)"/><path class="cls-9" d="M676.12,1164.67s14.23-5.44-2.06-23.36C674.06,1141.31,661.72,1161.47,676.12,1164.67Z" transform="translate(-124.24 -61.99)"/><path class="cls-9" d="M646.11,1236s-10.49-11-20.78,10.88C625.33,1246.91,648.69,1250.55,646.11,1236Z" transform="translate(-124.24 -61.99)"/><path class="cls-9" d="M675.59,1256.11s12.35,8.13,17.84-15.23C693.43,1240.88,670.18,1242.81,675.59,1256.11Z" transform="translate(-124.24 -61.99)"/><path class="cls-9" d="M666.16,1260.36s-8.65,2.25-.46,14.61C665.7,1275,674.29,1263.46,666.16,1260.36Z" transform="translate(-124.24 -61.99)"/></svg>