<svg id="Layer_7" data-name="Layer 7" xmlns="http://www.w3.org/2000/svg" xmlns:xlink="http://www.w3.org/1999/xlink" viewBox="0 0 657.71 1273.75"><defs><style>.cls-1{fill:none;}.cls-2{fill:#cc862a;}.cls-3{fill:#7d443f;}.cls-4{fill:#9b6126;}.cls-5{clip-path:url(#clip-path);}.cls-6{fill:#613936;}.cls-7{clip-path:url(#clip-path-2);}.cls-8{fill:#30804c;}.cls-9{fill:#6c9761;}.cls-10{fill:#cc872a;}.cls-11{fill:#5a2c2a;}.cls-12{fill:#4aa075;}.cls-13{fill:#376755;}.cls-14{clip-path:url(#clip-path-3);}.cls-15{clip-path:url(#clip-path-4);}.cls-16{clip-path:url(#clip-path-5);}.cls-17{clip-path:url(#clip-path-6);}.cls-18{clip-path:url(#clip-path-7);}.cls-19{clip-path:url(#clip-path-8);}</style><clipPath id="clip-path" transform="translate(-131.36 -46.11)"><path class="cls-1" d="M662,179.05h59.31V160H648.64a1,1,0,0,0-1,1,1,1,0,0,0,.22.61Z"/></clipPath><clipPath id="clip-path-2" transform="translate(-131.36 -46.11)"><path class="cls-1" d="M662,487.83h59.31v-19H648.64a1,1,0,0,0-1,1,1,1,0,0,0,.22.61Z"/></clipPath><clipPath id="clip-path-3" transform="translate(-131.36 -46.11)"><path class="cls-1" d="M662,801.57h59.31v-19H648.64a1,1,0,0,0-.77,1.62Z"/></clipPath><clipPath id="clip-path-4" transform="translate(-131.36 -46.11)"><path class="cls-1" d="M662,1113.1h59.31V1094H648.64a1,1,0,0,0-.77,1.62Z"/></clipPath><clipPath id="clip-path-5" transform="translate(-131.36 -46.11)"><path class="cls-1" d="M272.57,161.19a1,1,0,0,0,.22-.61,1,1,0,0,0-1-1H199.16v19h59.31Z"/></clipPath><clipPath id="clip-path-6" transform="translate(-131.36 -46.11)"><path class="cls-1" d="M272.57,470a1,1,0,0,0,.22-.61,1,1,0,0,0-1-1H199.16v19h59.31Z"/></clipPath><clipPath id="clip-path-7" transform="translate(-131.36 -46.11)"><path class="cls-1" d="M272.57,783.71a1,1,0,0,0-.77-1.62H199.16v19h59.31Z"/></clipPath><clipPath id="clip-path-8" transform="translate(-131.36 -46.11)"><path class="cls-1" d="M272.57,1095.22a1,1,0,0,0-.77-1.62H199.16v19.06h59.31Z"/></clipPath></defs><path class="cls-2" d="M721.28,164.82H663.46V114.33c-1.66-14.11-8-19.63-8-19.63h8V87h57.82Z" transform="translate(-131.36 -46.11)"/><path class="cls-3" d="M721.28,95.25H651.9s-20.06.47-11.92-17.31c5.89-12.88-.79-15.93-5-16.65a7.42,7.42,0,0,1-4.74,13.19h-.85s-12.34-.57-10.36-15.75,17.74-11.88,17.74-11.88,13.77,1,14.9,13.61,46.84,13.92,46.84,13.92h22.73Z" transform="translate(-131.36 -46.11)"/><rect class="cls-2" x="531.96" y="132.53" width="57.95" height="207.22"/><path class="cls-4" d="M662,179.05h59.31V160H648.64a1,1,0,0,0-1,1,1,1,0,0,0,.22.61Z" transform="translate(-131.36 -46.11)"/><path class="cls-4" d="M721.28,186.68h-59.8a3,3,0,0,1-3-3h0v-2a3,3,0,0,1,3-3h59.8v8.06Z" transform="translate(-131.36 -46.11)"/><g class="cls-5"><path class="cls-6" d="M789.06,179.05h-141V168.38a10.61,10.61,0,0,1,8.82,4.63,10.71,10.71,0,0,1,17.63,0,10.66,10.66,0,0,1,17.62,0A10.69,10.69,0,0,1,707,170.22a10.84,10.84,0,0,1,2.78,2.79,10.68,10.68,0,0,1,17.63,0,5.15,5.15,0,0,1,.53-.7h0c.18-.24.39-.45.6-.68l.13-.13.72-.68h.09a11.09,11.09,0,0,1,3.48-1.88h.14l.9-.24h.19a11.33,11.33,0,0,1,2-.21,10.58,10.58,0,0,1,8,3.65,10.47,10.47,0,0,1,.78,1,10.7,10.7,0,0,1,16.85-1,7.22,7.22,0,0,1,.77,1,10.7,10.7,0,0,1,14.88-2.75,10.58,10.58,0,0,1,2.75,2.75,10.66,10.66,0,0,1,8.81-4.63Z" transform="translate(-131.36 -46.11)"/></g><path class="cls-4" d="M721.28,334.4H683v-87A28.81,28.81,0,0,1,711.8,218.6h9.42V334.4h.06Z" transform="translate(-131.36 -46.11)"/><path class="cls-6" d="M721.3,326.49H689.11V248.15a24.22,24.22,0,0,1,24.22-24.22h8V326.49Z" transform="translate(-131.36 -46.11)"/><path class="cls-2" d="M721.28,468.59H663.46V418.13c-1.66-14.1-8-19.62-8-19.62h8v-7.7h57.82Z" transform="translate(-131.36 -46.11)"/><path class="cls-3" d="M721.28,399.51H651.9S631.84,400,640,382.18c5.89-12.86-.79-15.91-5-16.63a7.42,7.42,0,0,1-4.74,13.19h-.85s-12.34-.57-10.36-15.75,17.74-11.79,17.74-11.79,13.77,1,14.9,13.6,46.84,13.94,46.84,13.94h22.73Z" transform="translate(-131.36 -46.11)"/><rect class="cls-2" x="531.96" y="441.31" width="57.95" height="255.54"/><path class="cls-4" d="M662,487.83h59.31v-19H648.64a1,1,0,0,0-1,1,1,1,0,0,0,.22.61Z" transform="translate(-131.36 -46.11)"/><path class="cls-4" d="M721.28,495.44h-59.8a3,3,0,0,1-3-3h0v-2a3,3,0,0,1,3-3h59.8v8.06Z" transform="translate(-131.36 -46.11)"/><g class="cls-7"><path class="cls-6" d="M789.06,487.83h-141V477.16a10.64,10.64,0,0,1,8.82,4.63A10.67,10.67,0,0,1,671.73,479a10.88,10.88,0,0,1,2.79,2.79,10.66,10.66,0,0,1,17.62,0A10.69,10.69,0,0,1,707,479a10.84,10.84,0,0,1,2.78,2.79,10.7,10.7,0,0,1,17.63,0,6.9,6.9,0,0,1,.53-.68h0c.18-.24.39-.45.6-.68l.13-.13.72-.62h.09A10.89,10.89,0,0,1,733,477.8h.14l.9-.23h.19a9.73,9.73,0,0,1,2-.21,10.63,10.63,0,0,1,8,3.66,6.71,6.71,0,0,1,.78,1,10.68,10.68,0,0,1,14.87-2.74,10.36,10.36,0,0,1,2,1.76,6.65,6.65,0,0,1,.77,1,10.68,10.68,0,0,1,17.63,0,10.67,10.67,0,0,1,8.81-4.64Z" transform="translate(-131.36 -46.11)"/></g><path class="cls-4" d="M721.28,643.18H683v-87a28.81,28.81,0,0,1,28.81-28.82h9.42v115.8Z" transform="translate(-131.36 -46.11)"/><path class="cls-6" d="M721.3,635.27H689.11V557a24.22,24.22,0,0,1,24.22-24.22h8V635.27Z" transform="translate(-131.36 -46.11)"/><path class="cls-8" d="M662.29,124.29a8.75,8.75,0,0,1,.42-1.89c.36-1.05.52-.56.52-.56,5.35,6,13.81,9.72,23.51,11.3,3.09.49,6.21.92,9.41,1.2h0c9.65.7,22.92-3.06,29.46-5.29l.38-.2-.25.15c2.43-.79,3.92-1.34,3.92-1.34v3.77l1.22,11.3c-15.69,4-34.07-.61-34.07-.61h0a72.66,72.66,0,0,1-17.28-4.48c-2.6-1-5.09-2.24-7.54-3.5C666.79,131.28,661.94,129,662.29,124.29Z" transform="translate(-131.36 -46.11)"/><path class="cls-9" d="M676.29,131s10.88.23,4.91-16C681.2,115,667.6,125,676.29,131Z" transform="translate(-131.36 -46.11)"/><path class="cls-9" d="M664,130.24s.9-10.87-15.69-5.93C648.39,124.31,657.47,138.51,664,130.24Z" transform="translate(-131.36 -46.11)"/><path class="cls-9" d="M689.92,139.2s-10.3-8.28-16.61,11.76C673.31,151,693.8,151.39,689.92,139.2Z" transform="translate(-131.36 -46.11)"/><path class="cls-9" d="M697.57,624.3s-11.49.77-3.88,17.83C693.69,642.13,707.19,630,697.57,624.3Z" transform="translate(-131.36 -46.11)"/><path class="cls-8" d="M645.81,630.87a10,10,0,0,0,6.77-4.3,19.42,19.42,0,0,0,3.1-8,119.85,119.85,0,0,0,.81-14.91,119.42,119.42,0,0,0,6.84,30.43,136.43,136.43,0,0,1,.66-35.54,55.3,55.3,0,0,0,9,10.72c5.65,5.25,13,9.24,19.72,13.67a181.75,181.75,0,0,1,20,15.07c1.43,1.25,2.82,2.51,4.18,3.76a26,26,0,0,1,1,3.77,17.08,17.08,0,0,1-2.46,13.18,13.29,13.29,0,0,1-5.18,4.28,14.85,14.85,0,0,1-7.23,1.56,7.32,7.32,0,0,1-6.55-8c0-.3.08-.6.14-.9a7.54,7.54,0,0,1,3.77-5.12,3.22,3.22,0,0,1,4.4,1.17l0,0a1.3,1.3,0,0,0,1.56.88,1.25,1.25,0,0,0,.88-1.54,5.64,5.64,0,0,0-7.37-3.08h0a9.77,9.77,0,0,0-5.65,7.17,9.89,9.89,0,0,0,1.55,7.78,9.74,9.74,0,0,0,6.89,4.11,17,17,0,0,0,9.06-1.89,15.55,15.55,0,0,0,6.21-5.44,19.54,19.54,0,0,0,2.66-14,27.87,27.87,0,0,1,5.08,8.38c2.53,7,.57,14.16-1.75,20.9a16.74,16.74,0,0,0,8-11c2.86-10.93-.91-23.13-10.14-32.73-12.22-12.74-32.35-20.36-45.19-32.7a30.84,30.84,0,0,1-9.38-15.48A91.79,91.79,0,0,1,683,551.24c1.75-2.26,3.51-4.35,5.22-6.29a15.72,15.72,0,0,0,1.51,6.78,7.52,7.52,0,0,0,2.86,3.28,4.64,4.64,0,0,0,4.24.28c2.48-1.09,4.67-4.16,3.59-6.93a3,3,0,0,0-3.31-2.09,2.38,2.38,0,0,0-1.67,2.91,2.61,2.61,0,0,0,.16.42.86.86,0,0,0,1.49-.84.73.73,0,0,1,.28-.79.88.88,0,0,1,1.09.34,2.76,2.76,0,0,1,.27,2.82c-.76,1.88-3,3.48-4.92,2.6s-3-3.47-3.48-5.52a13.58,13.58,0,0,1-.21-5.46C714,517,732,521.11,732,521.11V500.94a220.52,220.52,0,0,0-27,14.52l-1.28.19a63.07,63.07,0,0,1-18.6-.79,32.74,32.74,0,0,1-21.94-12.79s-.21-.6-.46.72a14.52,14.52,0,0,0-.22,2.46c0,5.86,4.54,8.46,9.41,11.55a75.37,75.37,0,0,0,7,4,51.64,51.64,0,0,0,13,4.28A117.92,117.92,0,0,0,671.84,546l-.6.28c-5.41,2.62-11.68,5.65-14.33,11.3s-1.23,11.49.79,17A100.45,100.45,0,0,0,656,593.69a31.47,31.47,0,0,0-1.47,6.35c-.66,5.14-.19,10.36-.73,15.52-.47,4.57-1.89,10.49-6.59,12.56a4.56,4.56,0,0,1-5-.76,7.37,7.37,0,0,1-1.39-7.53c.33-.79,1-1.88,1.88-1.88a1.88,1.88,0,0,1,1.88,1.41,4,4,0,0,1-.73,3.32c-.77,1.22,1.15,2.33,1.88,1.13a6.27,6.27,0,0,0,1-4.88,4.33,4.33,0,0,0-3.11-3.11c-3.35-.75-5.2,3-5.5,5.65C637.62,626.1,640.71,631.39,645.81,630.87Zm13.88-73.2a17.17,17.17,0,0,1,5.82-5.52c1.06-.68,2.15-1.28,3.26-1.89a88.73,88.73,0,0,0-9.94,20,21.78,21.78,0,0,1-.74-3.66A14.14,14.14,0,0,1,659.69,557.67Z" transform="translate(-131.36 -46.11)"/><path class="cls-9" d="M672.58,517.51s-10.46-11-20.72,10.83C651.9,528.34,675.14,532,672.58,517.51Z" transform="translate(-131.36 -46.11)"/><path class="cls-9" d="M686.51,516.23s14.16-5.42-2-23.26C684.46,493,672.18,513.05,686.51,516.23Z" transform="translate(-131.36 -46.11)"/><path class="cls-9" d="M656.64,587.27s-10.45-11-20.71,10.83C636,598.1,659.2,601.71,656.64,587.27Z" transform="translate(-131.36 -46.11)"/><path class="cls-9" d="M686.06,607.25s12.3,8.1,17.76-15.16C703.74,592.09,680.6,594,686.06,607.25Z" transform="translate(-131.36 -46.11)"/><path class="cls-9" d="M676.64,611.51s-8.6,2.24-.45,14.54C676.14,626,684.69,614.58,676.64,611.51Z" transform="translate(-131.36 -46.11)"/><path class="cls-8" d="M662.46,431a8.75,8.75,0,0,1,.42-1.89c.35-1,.54-.56.54-.56,5.35,6,13.81,9.72,23.49,11.3,3.09.49,6.21.92,9.41,1.2h0c9.7.8,23-3,29.59-5.14l.38-.2-.23.15c2.43-.79,3.9-1.34,3.9-1.34v3.77l1.24,11.3c-15.7,4-34.09-.61-34.09-.61h0a72.66,72.66,0,0,1-17.28-4.48c-2.6-1.05-5.09-2.24-7.54-3.5C667,438,662.1,435.67,662.46,431Z" transform="translate(-131.36 -46.11)"/><path class="cls-9" d="M676.46,437.72s10.88.23,4.91-16C681.37,421.69,667.77,431.73,676.46,437.72Z" transform="translate(-131.36 -46.11)"/><path class="cls-9" d="M664.18,436.93s.9-10.87-15.69-5.93C648.49,431,657.64,445.2,664.18,436.93Z" transform="translate(-131.36 -46.11)"/><path class="cls-9" d="M690.09,445.89s-10.3-8.28-16.61,11.75C673.48,457.64,694,458.08,690.09,445.89Z" transform="translate(-131.36 -46.11)"/><path class="cls-10" d="M721.12,737.23H661.8v5.41H614.38s43.94,4.75,47.61,26.67v22h59.13Z" transform="translate(-131.36 -46.11)"/><path class="cls-3" d="M550.28,721.1c2-15.84,18.11-12.3,18.11-12.3s14,1,15.21,14.2,47.82,14.56,47.82,14.56h142v21.85H583.79s-20.47.49-12.18-18.08c6-13.43-.8-16.63-5.05-17.37a7.8,7.8,0,0,1,2.74,5.95,7.67,7.67,0,0,1-7.57,7.76,6.46,6.46,0,0,1-.88,0h-.05S548.26,736.92,550.28,721.1Z" transform="translate(-131.36 -46.11)"/><path class="cls-2" d="M600.58,817.24h24l-5.39,25.59a3.88,3.88,0,0,1-3.76,3.07H594.31a3.88,3.88,0,0,1-3.77-3.07l-5.39-25.59Z" transform="translate(-131.36 -46.11)"/><polyline class="cls-6" points="455.86 781.19 453.73 769.84 469.21 769.84 477.71 769.84 493.19 769.84 491.06 781.19"/><path class="cls-11" d="M623.7,809.61a1.6,1.6,0,0,0,.53-.09,1.51,1.51,0,0,0,.89-1.88L606,756.22a1.51,1.51,0,0,0-2.83,1.06l19.08,51.41A1.5,1.5,0,0,0,623.7,809.61Z" transform="translate(-131.36 -46.11)"/><path class="cls-11" d="M585.55,809.61a1.5,1.5,0,0,0,1.41-1L606,757.22a1.51,1.51,0,0,0-2.83-1.05h0l-19.07,51.41a1.5,1.5,0,0,0,.88,1.88A1.68,1.68,0,0,0,585.55,809.61Z" transform="translate(-131.36 -46.11)"/><path class="cls-2" d="M620.39,824.34H589.26a13.9,13.9,0,0,1-13.9-13.9h0v-.9a2.2,2.2,0,0,1,2.2-2.2h54.52a2.2,2.2,0,0,1,2.21,2.2h0v.9a13.9,13.9,0,0,1-13.9,13.9Z" transform="translate(-131.36 -46.11)"/><path class="cls-8" d="M590.93,802a9,9,0,0,0-4.72-4,7.94,7.94,0,0,0-4.05,0,15.28,15.28,0,0,0-6.25,3.63,21.47,21.47,0,0,1-5.86,4c-.42.17-.87.32-1.3.47,2.94.7,5.78,1.73,8.72,2.45a19,19,0,0,0,8.74.37,10.46,10.46,0,0,0,3-1.29,5.2,5.2,0,0,0,2.66-3.56,2.16,2.16,0,0,0-.93-2.13" transform="translate(-131.36 -46.11)"/><path class="cls-12" d="M576.08,805.77a12.35,12.35,0,0,0,4.14-1.26l.86-.45a3.48,3.48,0,0,1-.75-.25c-.54-.22-.94-.34-1.47-.54a4.85,4.85,0,0,0-1.69-.3,17.13,17.13,0,0,0-1.72.15,9.11,9.11,0,0,1,1.77-.42,5.7,5.7,0,0,1,2.66.57,8.64,8.64,0,0,0,1.71.52c.7-.35,1.36-.67,2.15-1.14a6.45,6.45,0,0,1,1.09-.53l-.43-.11a4,4,0,0,1-.77-.32c-.51-.31-.89-.44-1.4-.72a5.57,5.57,0,0,0-1.65-.47h-1.72a8.34,8.34,0,0,1,1.79-.21,5.73,5.73,0,0,1,2.6.83,7.32,7.32,0,0,0,2.11.81l.34-.09a10,10,0,0,1,1.88-.42A3.72,3.72,0,0,1,587,801c-.36-.32-.66-.51-1-.81a3.86,3.86,0,0,0-1.3-.68,13.11,13.11,0,0,0-1.41-.32,7,7,0,0,1,1.52.13,4.72,4.72,0,0,1,2,1.11,8,8,0,0,0,1.32.92,3.71,3.71,0,0,1,2.47.7l.24.21a2.27,2.27,0,0,0-1.54-.38l-1,.1a6.34,6.34,0,0,0-1.27,2.39,5.55,5.55,0,0,1-1.3,2.39,10.18,10.18,0,0,1-1.43,1.09c.3-.28.94-.92,1.21-1.22a5.07,5.07,0,0,0,.86-1.47c.19-.57.36-.92.53-1.49a4.09,4.09,0,0,1,.34-.77,3.66,3.66,0,0,1,.66-.85,14.4,14.4,0,0,0-3.18,1.15,8.7,8.7,0,0,0-1,1.68,5.82,5.82,0,0,1-1.57,2.2,8.41,8.41,0,0,1-1.56.92c.34-.24,1.06-.81,1.34-1.07a4.84,4.84,0,0,0,1-1.38c.25-.52.47-.86.7-1.39a3.74,3.74,0,0,1,.34-.62l-1.24.66a14.62,14.62,0,0,1-6.52,2.22,23.12,23.12,0,0,1-4.54-.43C572.8,806,575.1,805.9,576.08,805.77Z" transform="translate(-131.36 -46.11)"/><path class="cls-13" d="M619.56,808.07a9,9,0,0,1,5.14-3.35,7.93,7.93,0,0,1,4,.45,15.37,15.37,0,0,1,5.82,4.29,21.79,21.79,0,0,0,5.37,4.67l1.24.61c-3,.37-5.95,1.09-8.94,1.47a18.67,18.67,0,0,1-8.72-.61,9.72,9.72,0,0,1-2.83-1.62,5.21,5.21,0,0,1-2.26-3.76,2.19,2.19,0,0,1,1.17-2" transform="translate(-131.36 -46.11)"/><path class="cls-12" d="M620.88,807a3.77,3.77,0,0,1,1.88-.21c.38-.13.77-.24,1-.3a5.18,5.18,0,0,1,2.56.24,5.94,5.94,0,0,0,2.58.27.8.8,0,0,0,.53-.27v.1a2,2,0,0,1-1.75.53,4.36,4.36,0,0,1-.8-.16c-.52-.16-.9-.22-1.45-.37a4.89,4.89,0,0,0-1.62-.1l-.65.12a9.9,9.9,0,0,1,2.46.88,10.38,10.38,0,0,1,1.74,1.09l.43.32a6.44,6.44,0,0,0,2.05.19,5.16,5.16,0,0,1,2.36.36,6,6,0,0,1,1.18.83c-.3-.17-1-.49-1.28-.62a4.6,4.6,0,0,0-1.47-.27h-1.41a4.69,4.69,0,0,1-.75,0h0c.66.47,1.3.89,2,1.47l.32.21a7.86,7.86,0,0,0,1.68.09,5.25,5.25,0,0,1,2.35.36,6.18,6.18,0,0,1,1.19.83c-.31-.17-1-.49-1.28-.62a4.38,4.38,0,0,0-1.47-.26h-1.92a15,15,0,0,0,2.88,1.24c.92.28,3.14.79,4.18,1a28.56,28.56,0,0,1-4.52-.51,10.27,10.27,0,0,1-2.92-1.17c.23.36.45.62.7,1a5.06,5.06,0,0,0,1.18,1.13c.46.29.93.55,1.41.79a8.41,8.41,0,0,1-1.6-.62,5.49,5.49,0,0,1-1.88-1.89c-.21-.3-.41-.6-.66-.9-.56-.34-1.11-.73-1.66-1.11h0l-.47-.36.12.19a3.94,3.94,0,0,1,.34.72c.16.52.33.88.52,1.39a4.79,4.79,0,0,0,.87,1.39,12.84,12.84,0,0,0,1.19,1.13,9.84,9.84,0,0,1-1.42-1,5.63,5.63,0,0,1-1.28-2.24,6,6,0,0,0-1.2-2.2l-.42-.3h0a16.27,16.27,0,0,0-1.45-.94,3.82,3.82,0,0,1,.36.92,4.7,4.7,0,0,1,.15.9A7.67,7.67,0,0,0,626,812a5.59,5.59,0,0,0,.51,1.88c.19.4.7,1.24.94,1.64a11.49,11.49,0,0,1-1.22-1.56,6.44,6.44,0,0,1-.81-3,6.74,6.74,0,0,0-.6-2.8,11.06,11.06,0,0,0-2.66-1,2.45,2.45,0,0,0-1.56,0Z" transform="translate(-131.36 -46.11)"/><path class="cls-13" d="M613.35,805.92a9,9,0,0,1,5.42.42,7.58,7.58,0,0,1,2.69,2.14,11.66,11.66,0,0,1,2.13,5.43,16.61,16.61,0,0,0,1.6,5.42c.19.32.4.66.62,1-2.37-1.24-4.86-2.24-7.21-3.46a18.19,18.19,0,0,1-6.05-4.6,9.19,9.19,0,0,1-1.26-2.35,3.54,3.54,0,0,1,.25-3.41,1.85,1.85,0,0,1,1.88-.64" transform="translate(-131.36 -46.11)"/><path class="cls-12" d="M614.83,805.9a3.58,3.58,0,0,1,1.55.85,6.51,6.51,0,0,1,.88.3,5.07,5.07,0,0,1,1.75,1.4,6.24,6.24,0,0,0,1.74,1.41.85.85,0,0,0,.5,0h-.09a2,2,0,0,1-1.52-.53,3.27,3.27,0,0,1-.51-.47c-.3-.36-.55-.58-.87-.94a4.72,4.72,0,0,0-1.13-.85l-.53-.24a9,9,0,0,1,1.36,1.71,8.41,8.41,0,0,1,.73,1.51,2.86,2.86,0,0,0,.15.41,6,6,0,0,0,1.4,1.11,4.51,4.51,0,0,1,1.52,1.36,4.84,4.84,0,0,1,.47,1.07c-.13-.24-.47-.77-.62-1a3.94,3.94,0,0,0-.94-.88l-1-.68a3.51,3.51,0,0,1-.53-.4h0c.24.61.51,1.17.79,1.89,0,.09.07.19.11.28a9.85,9.85,0,0,0,1.17.87,3.63,3.63,0,0,1,2,2.43,9.08,9.08,0,0,0-.63-1,3.79,3.79,0,0,0-.94-.89l-1-.68-.3-.2a14.52,14.52,0,0,0,1.33,2.24c.55.64,1.89,2,2.56,2.63a25.42,25.42,0,0,1-2.95-2.63,8.68,8.68,0,0,1-1.62-2.15v.94a3.32,3.32,0,0,0,.3,1.24c.13.29.47.91.64,1.19a7.6,7.6,0,0,1-.85-1.17,3.85,3.85,0,0,1-.41-2v-.87a8.81,8.81,0,0,0-.66-1.49h0c-.06-.15-.12-.3-.19-.45v.17a2,2,0,0,1-.09.6c-.14.42-.19.7-.31,1.11a3.29,3.29,0,0,0,0,1.25,11.57,11.57,0,0,0,.31,1.26,5.68,5.68,0,0,1-.53-1.28,3.71,3.71,0,0,1,.15-2,4,4,0,0,0,.19-1.88,2.5,2.5,0,0,0-.15-.38l-.12-.09h0a11.49,11.49,0,0,0-.6-1.28,2.93,2.93,0,0,1-.53,1.35c-.3.4-.45.7-.73,1.11a3.42,3.42,0,0,0-.51,1.34,6.45,6.45,0,0,1-.11,1.43,6.46,6.46,0,0,1-.13-1.52,4.14,4.14,0,0,1,.9-2.09,4.92,4.92,0,0,0,.92-2,9,9,0,0,0-1.43-1.89,2.34,2.34,0,0,0-1.15-.75Z" transform="translate(-131.36 -46.11)"/><path class="cls-8" d="M614.27,803.19a10.66,10.66,0,0,1,4.65-5.65,9.46,9.46,0,0,1,4.69-.83,18.17,18.17,0,0,1,8,2.88,25.14,25.14,0,0,0,7.53,3.47c.53.11,1.08.19,1.61.26-3.24,1.44-6.35,3.24-9.59,4.67a22,22,0,0,1-10,2.38,11.93,11.93,0,0,1-3.77-.89,6.05,6.05,0,0,1-3.77-3.56,2.54,2.54,0,0,1,.63-2.65" transform="translate(-131.36 -46.11)"/><path class="cls-12" d="M616.09,801.55a4.32,4.32,0,0,1,2.3-.88h0a9.73,9.73,0,0,1,1.08,0,8.36,8.36,0,0,0,2.12-1.19,6,6,0,0,1,2.64-1.28,7.39,7.39,0,0,1,1.88,0,16.81,16.81,0,0,0-1.73.27,5.24,5.24,0,0,0-1.69.75c-.53.38-.93.58-1.45,1a5.44,5.44,0,0,1-.79.49h0l1.14.17a10.79,10.79,0,0,1,2.23.66h.2a11.48,11.48,0,0,0,1.89-.85,6.28,6.28,0,0,1,2.78-.92,9.25,9.25,0,0,1,1.89.26h-1.75a4.78,4.78,0,0,0-1.77.53c-.59.3-1,.45-1.57.79a4.34,4.34,0,0,1-.86.36h0c1.11.41,2,.69,3.27,1.16a9.78,9.78,0,0,0,1.49.44,6.58,6.58,0,0,0,1.47-.63,4.52,4.52,0,0,1,2-.67,5.17,5.17,0,0,1,1.3.19h-1.28a4,4,0,0,0-1.3.39c-.43.23-.73.34-1.15.58a2.58,2.58,0,0,1-.54.23,14.93,14.93,0,0,0,2.67.28c1.09,0,3.64-.11,4.8-.2a31.42,31.42,0,0,1-5,.86,16,16,0,0,1-6.59-1.26,4,4,0,0,1,.47.53c.46.58.81.92,1.27,1.5a6,6,0,0,0,1.67,1.34c.43.25,1.45.7,1.88.91a13.75,13.75,0,0,1-2.16-.65,7.39,7.39,0,0,1-2.56-2.22,10.51,10.51,0,0,0-1.89-1.88l-1.43-.51h0c-.52-.19-1.07-.36-1.62-.51a4.63,4.63,0,0,1,.72.93,5.08,5.08,0,0,1,.45.94c.23.69.45,1.15.7,1.88a6,6,0,0,0,1.13,1.88c.34.38,1.17,1.13,1.54,1.49a11.76,11.76,0,0,1-1.88-1.32,7,7,0,0,1-1.7-2.93,8,8,0,0,0-1.58-2.89,13.82,13.82,0,0,0-2.56-.34,3.47,3.47,0,0,1,1.26,1.32,6,6,0,0,1,.45,1c.23.68.46,1.13.7,1.89a6.32,6.32,0,0,0,1.13,1.88c.34.38,1.17,1.15,1.56,1.49a10.61,10.61,0,0,1-1.88-1.32,7.06,7.06,0,0,1-1.69-2.94,8.11,8.11,0,0,0-1.66-3l-.23-.18h-.37a2.54,2.54,0,0,0-1.66.51Z" transform="translate(-131.36 -46.11)"/><path class="cls-8" d="M591.89,806.36a6.7,6.7,0,0,0-4.42-1.38,5.92,5.92,0,0,0-2.77,1.19,11.32,11.32,0,0,0-3.26,4.33A16.05,16.05,0,0,1,578.6,815c-.25.25-.49.49-.75.72,2.22-.38,4.48-.49,6.7-.87a13.84,13.84,0,0,0,6.12-2.3,7.07,7.07,0,0,0,1.68-1.77,3.93,3.93,0,0,0,.81-3.22,1.65,1.65,0,0,0-1.27-1.18" transform="translate(-131.36 -46.11)"/><path class="cls-12" d="M582.78,813.31a9.75,9.75,0,0,0,2.49-2.08l.45-.56a2.91,2.91,0,0,1-.59,0H584a4,4,0,0,0-1.27.3c-.26.11-.86.43-1.13.58a7,7,0,0,1,1.1-.77,4.39,4.39,0,0,1,2-.41,6,6,0,0,0,1.34-.12c.38-.45.73-.86,1.15-1.43a5.35,5.35,0,0,1,.58-.68h-.32a3.21,3.21,0,0,1-.62,0H585.6a3.87,3.87,0,0,0-1.26.17,12.5,12.5,0,0,0-1.2.48,6.94,6.94,0,0,1,1.18-.68,4.2,4.2,0,0,1,2-.17,6,6,0,0,0,1.69,0l.21-.17a6.22,6.22,0,0,1,1.15-.83l-.49-.09a8.05,8.05,0,0,0-1-.27,3.36,3.36,0,0,0-1.09-.09,7.21,7.21,0,0,0-1.08.19,7.07,7.07,0,0,1,1.1-.36,3.7,3.7,0,0,1,1.71.19,5.18,5.18,0,0,0,1.17.24,2.78,2.78,0,0,1,1.88-.24l.23.09a1.64,1.64,0,0,0-1.17.17l-.64.36a4.56,4.56,0,0,0-.15,2,4.34,4.34,0,0,1-.21,2,6.25,6.25,0,0,1-.68,1.17c.14-.29.4-.91.49-1.19a3.62,3.62,0,0,0,.17-1.26v-1.19a3.21,3.21,0,0,1,0-.62,2.51,2.51,0,0,1,.21-.77A10.53,10.53,0,0,0,588,809a6.92,6.92,0,0,0-.19,1.43,4.14,4.14,0,0,1-.42,1.89,7,7,0,0,1-.81,1.09c.15-.28.49-.87.61-1.13a4.2,4.2,0,0,0,.32-1.24v-1.17a2.35,2.35,0,0,1,0-.53,10.7,10.7,0,0,0-.68.83,10.82,10.82,0,0,1-3.77,3.41,18.44,18.44,0,0,1-3.26,1A21.91,21.91,0,0,0,582.78,813.31Z" transform="translate(-131.36 -46.11)"/><path class="cls-13" d="M598.3,804.17a11.66,11.66,0,0,0-7.54-.83,6.94,6.94,0,0,0-3.33,2.7,14.89,14.89,0,0,0-1.88,7.75,21.21,21.21,0,0,1-1.17,7.9c-.19.45-.41.88-.64,1.33,3-1.26,6.35-2.11,9.42-3.37a16.11,16.11,0,0,0,7.53-5.4A8.85,8.85,0,0,0,602,811a6.49,6.49,0,0,0-1-5.29,3.52,3.52,0,0,0-2.69-1.51" transform="translate(-131.36 -46.11)"/><path class="cls-12" d="M590.76,815.24a.9.9,0,0,1-.32.17,2.6,2.6,0,0,1-.62.25c-.45.09-.73.21-1.18.34a3.91,3.91,0,0,0-1.21.6c-.24.19-.77.66-1,.89a6.81,6.81,0,0,1,.93-1.08,4.5,4.5,0,0,1,1.88-.9,5.69,5.69,0,0,0,1.77-.72,10.06,10.06,0,0,0,.88-1.88l.23-.64-.24.09a3.39,3.39,0,0,1-.78.17,8.93,8.93,0,0,0-1.45.23,4.37,4.37,0,0,0-1.52.53c-.32.17-1,.66-1.34.88a10.38,10.38,0,0,1,1.26-1.13,5.36,5.36,0,0,1,2.43-.75,9.5,9.5,0,0,0,1.89-.4c.3-.84.62-1.58.92-2.56a2.46,2.46,0,0,1,.26-.71,3.94,3.94,0,0,1-.73.32,4.7,4.7,0,0,1-.83.17c-.58,0-1,.15-1.56.2a5.09,5.09,0,0,0-1.62.55c-.36.19-1.1.7-1.45.94a8.67,8.67,0,0,1,1.37-1.19,5.68,5.68,0,0,1,2.6-.79,6.51,6.51,0,0,0,2.41-.62c.11-.26.25-.51.38-.75a14.26,14.26,0,0,1,.83-1.3,4,4,0,0,1-.59.17,3.84,3.84,0,0,1-.83,0H592a4.81,4.81,0,0,0-1.67.36c-.38.13-1.17.54-1.55.73a8.82,8.82,0,0,1,1.49-1,6.05,6.05,0,0,1,2.69-.47,6.77,6.77,0,0,0,2.37-.28,4.65,4.65,0,0,1,2.38-1.58h.3a2.46,2.46,0,0,0-1.3.86,10.25,10.25,0,0,0-.87,1.1v.13a6.1,6.1,0,0,0,1.34,2.31,5.53,5.53,0,0,1,1.34,2.38,11.84,11.84,0,0,1,.17,1.88c-.1-.41-.29-1.3-.4-1.68a5.5,5.5,0,0,0-.79-1.52c-.38-.45-.6-.79-1-1.23a4.29,4.29,0,0,1-.49-.69,2.93,2.93,0,0,1-.39-1.32,20.17,20.17,0,0,0-1.6,3.35,6.51,6.51,0,0,0,1,2.34,5.6,5.6,0,0,1,1,2.5,9.84,9.84,0,0,1,0,1.88,13.23,13.23,0,0,0-.19-1.69,4.93,4.93,0,0,0-.59-1.62c-.32-.49-.48-.85-.82-1.34a3.53,3.53,0,0,1-.38-.75,3.35,3.35,0,0,1-.21-.75l-.28.79c-.36,1-.72,1.88-1.17,2.9a9,9,0,0,0,.23,1,4.44,4.44,0,0,1,.15,2.17,7.36,7.36,0,0,1-.49,1.36,12.77,12.77,0,0,0,.28-1.34,3.56,3.56,0,0,0,0-1.38c-.11-.45-.15-.77-.28-1.22v-.17a10.51,10.51,0,0,1-1.77,2.52,25.15,25.15,0,0,1-3.62,2.9c.74-.75,2.3-2.41,2.9-3.16A12.9,12.9,0,0,0,590.76,815.24Z" transform="translate(-131.36 -46.11)"/><path class="cls-8" d="M604.08,803.29a14.3,14.3,0,0,1,9.11,1.88,8.29,8.29,0,0,1,2.92,4.39,18.2,18.2,0,0,1-.62,9.81,26.27,26.27,0,0,0-1.54,9.7,12.25,12.25,0,0,0,.26,1.88c-3.12-2.6-6.67-4.82-9.81-7.42a19.68,19.68,0,0,1-6.86-9.15,11.83,11.83,0,0,1-.32-4.31,8.11,8.11,0,0,1,3.15-5.86,4.32,4.32,0,0,1,3.77-.77" transform="translate(-131.36 -46.11)"/><path class="cls-12" d="M601.5,811.33a7.81,7.81,0,0,1,2.22-3.07,8.66,8.66,0,0,0,2.24-3,.9.9,0,0,0,0-.4,2.76,2.76,0,0,0-1.11-1.3l.34.17a4.81,4.81,0,0,1,1.88,2,7,7,0,0,0,2.7.88,6.14,6.14,0,0,1,2.75,1,7.28,7.28,0,0,1,1.24,1.3c-.45-.38-.91-.73-1.39-1.06a5.36,5.36,0,0,0-1.72-.69c-.64-.12-1-.25-1.71-.34a3.47,3.47,0,0,1-.89-.25,5.12,5.12,0,0,1-.71-.34,14,14,0,0,1,.83,2.62,10.78,10.78,0,0,0,.18,1.17h0a6.78,6.78,0,0,0,2.79,1,6.35,6.35,0,0,1,2.75,1,8.48,8.48,0,0,1,1.24,1.3,16.75,16.75,0,0,0-1.39-1,5.42,5.42,0,0,0-1.71-.7c-.64-.11-1.06-.24-1.72-.34a3.38,3.38,0,0,1-.88-.24,3,3,0,0,1-1-.6v1a24.69,24.69,0,0,0,.11,2.89,11.07,11.07,0,0,0,1.77,1,6.46,6.46,0,0,1,2.39,1.7,7.29,7.29,0,0,1,.85,1.58c-.24-.34-.79-1.07-1.07-1.38a5.23,5.23,0,0,0-1.45-1.11c-.6-.28-1-.52-1.56-.79a3.64,3.64,0,0,1-.81-.47h-.1v1.3a16.84,16.84,0,0,0,1.13,5.1c.43,1.13,1.64,3.66,2.24,4.81a35.3,35.3,0,0,1-3-4.75,12.23,12.23,0,0,1-.83-2.18h0c-.21.64-.28,1.11-.47,1.77a5.68,5.68,0,0,0-.13,2,17.44,17.44,0,0,0,.35,1.89,11.13,11.13,0,0,1-.67-2,6.65,6.65,0,0,1,.33-3.16,14.09,14.09,0,0,0,.36-1.59c-.14-.73-.25-1.47-.32-2.22h0a6.37,6.37,0,0,0-.09-1.3l-.17.45a4.56,4.56,0,0,1-.51.85c-.41.55-.64,1-1,1.51a6.16,6.16,0,0,0-.81,1.88c-.1.45-.27,1.51-.32,1.89a10.63,10.63,0,0,1,0-2.11,6.69,6.69,0,0,1,1.39-2.87,7.67,7.67,0,0,0,1.39-2.71v-.81h0c0-1-.09-1.88-.19-2.9a4.75,4.75,0,0,1-.69,1.32,6.12,6.12,0,0,1-.83,1c-.66.6-1.06,1.07-1.7,1.71a7.92,7.92,0,0,0-1.22,2.34c-.24.54-.68,1.88-.87,2.48a15,15,0,0,1,.53-2.73,9,9,0,0,1,2.34-3.52,9.43,9.43,0,0,0,2.48-3.35h0a13.77,13.77,0,0,0-1.07-3.77,3.8,3.8,0,0,1-.75,2,5.6,5.6,0,0,1-.78.9c-.6.55-1,1-1.54,1.57a7.26,7.26,0,0,0-1.34,2c-.21.49-.62,1.7-.79,2.26A13.57,13.57,0,0,1,601.5,811.33Z" transform="translate(-131.36 -46.11)"/><path class="cls-13" d="M598.07,802.5a10.3,10.3,0,0,0,2.94-6,5.8,5.8,0,0,0-1.24-3.58,12.86,12.86,0,0,0-5.88-3.92,18.76,18.76,0,0,1-6.18-3.35c-.32-.3-.62-.62-.92-.94.13,2.92-.15,5.93,0,8.85a14.2,14.2,0,0,0,2.24,7.91,7.87,7.87,0,0,0,2.34,2.07,5.75,5.75,0,0,0,4.72.75,3.14,3.14,0,0,0,2.06-1.78" transform="translate(-131.36 -46.11)"/><path class="cls-12" d="M591.1,792.87v-.3a3,3,0,0,1,0-.6v-1.09a2.88,2.88,0,0,0-.15-1.17,4.47,4.47,0,0,0-.43-1.11,5.11,5.11,0,0,1,.62,1.09,3.65,3.65,0,0,1,.17,1.88,5.26,5.26,0,0,0,0,1.68,12.46,12.46,0,0,0,1.3,1.32,4.25,4.25,0,0,1,.47.37,1,1,0,0,1,0-.24,2.73,2.73,0,0,1,0-.7c.13-.47.15-.81.26-1.28a3.72,3.72,0,0,0,0-1.41,12.84,12.84,0,0,0-.35-1.39,7.62,7.62,0,0,1,.56,1.39,4.56,4.56,0,0,1-.09,2.26,8.66,8.66,0,0,0-.21,1.6c.6.51,1.13,1,1.88,1.54a5.37,5.37,0,0,1,.51.44,4.33,4.33,0,0,1,0-.72,3,3,0,0,1,0-.73c.15-.51.19-.87.3-1.36a4.31,4.31,0,0,0,0-1.52,7.63,7.63,0,0,0-.35-1.49,7.09,7.09,0,0,1,.58,1.49,4.81,4.81,0,0,1-.13,2.41,6.27,6.27,0,0,0-.21,2.2,6.63,6.63,0,0,1,.53.53c.28.34.56.71.83,1.09a4.69,4.69,0,0,1,0-.53,3.74,3.74,0,0,1,.19-.73c.2-.47.28-.83.47-1.3a4.55,4.55,0,0,0,.2-1.51,12.82,12.82,0,0,0-.15-1.52,9.15,9.15,0,0,1,.4,1.56,5,5,0,0,1-.44,2.37,7,7,0,0,0-.47,2.07,4,4,0,0,1,.61,2.45v.27a2.39,2.39,0,0,0-.32-1.36,10.15,10.15,0,0,0-.66-1h.11a5.52,5.52,0,0,0-2.37.44,5.23,5.23,0,0,1-2.38.41,9.21,9.21,0,0,1-1.54-.41c.36,0,1.17.15,1.51.17a4.23,4.23,0,0,0,1.5-.21c.49-.17.85-.25,1.32-.43a2.37,2.37,0,0,1,.74-.19,2.44,2.44,0,0,1,1.2,0,15.69,15.69,0,0,0-2.3-2.38,6,6,0,0,0-2.26.17,5,5,0,0,1-2.39.1,7.15,7.15,0,0,1-1.49-.6,14.38,14.38,0,0,0,1.47.37,4.37,4.37,0,0,0,1.53,0c.51-.11.87-.15,1.35-.28a3.22,3.22,0,0,1,.76,0h.68l-.57-.47a25.84,25.84,0,0,1-2.07-1.88l-.92-.14A3.92,3.92,0,0,1,589,794a7,7,0,0,1-1-.81c.24.15.79.5,1,.62a3.41,3.41,0,0,0,1.17.37,3.5,3.5,0,0,1,1.11.12h.15A9.18,9.18,0,0,1,589.9,792a24.54,24.54,0,0,1-1.43-3.77c.41.85,1.32,2.64,1.79,3.39C590.52,792.06,590.8,792.47,591.1,792.87Z" transform="translate(-131.36 -46.11)"/><path class="cls-8" d="M602.78,803.53a12.44,12.44,0,0,1-2.28-7.7,7.12,7.12,0,0,1,2.2-4,15.71,15.71,0,0,1,7.76-3.47,22.92,22.92,0,0,0,8.08-2.71c.44-.28.85-.6,1.26-.92-.73,3.42-1,7-1.75,10.49a16.94,16.94,0,0,1-4.25,8.92,9.92,9.92,0,0,1-3.2,2,7,7,0,0,1-5.75,0,3.78,3.78,0,0,1-2.07-2.54" transform="translate(-131.36 -46.11)"/><path class="cls-12" d="M612.93,793.53a1.4,1.4,0,0,0,.13-.36,3.35,3.35,0,0,0,.13-.69,4.18,4.18,0,0,1,.14-1.3,3.93,3.93,0,0,1,.41-1.38,11.65,11.65,0,0,1,.74-1.22,6.42,6.42,0,0,0-1,1.17,4.94,4.94,0,0,0-.58,2.2,5.48,5.48,0,0,1-.43,1.88,9.67,9.67,0,0,1-1.89,1.28l-.6.36a1.31,1.31,0,0,0,0-.28,3.84,3.84,0,0,0,0-.83v-1.58a4.81,4.81,0,0,1,.27-1.68c.13-.38.5-1.2.67-1.58a10.06,10.06,0,0,0-.94,1.54,5.77,5.77,0,0,0-.34,2.7,9.84,9.84,0,0,1,0,1.88c-.83.49-1.54.94-2.5,1.45l-.72.41a3.8,3.8,0,0,0,.21-.82,4.61,4.61,0,0,0,0-.91V794.1a5.76,5.76,0,0,1,.26-1.89c.14-.39.53-1.28.72-1.67a10.47,10.47,0,0,0-1,1.63,6.31,6.31,0,0,0-.32,2.89,7.3,7.3,0,0,1-.21,2.63l-.71.55a15.63,15.63,0,0,0-1.21,1.13,3.64,3.64,0,0,0,0-.66,4.41,4.41,0,0,0,0-.89c-.13-.6-.17-1-.28-1.65a5.45,5.45,0,0,1,0-1.89,7.87,7.87,0,0,1,.51-1.75,8.32,8.32,0,0,0-.79,1.75,5.93,5.93,0,0,0,0,2.9,8.54,8.54,0,0,1,.15,2.57,4.67,4.67,0,0,0-1.19,3.08v.34a2.68,2.68,0,0,1,.66-1.54,13,13,0,0,1,1-1.11h.13a6.73,6.73,0,0,1,2.73,1,6.22,6.22,0,0,0,2.73,1,9.92,9.92,0,0,0,1.89-.17,12,12,0,0,1-1.89-.1,5.39,5.39,0,0,1-1.75-.54c-.54-.3-.94-.47-1.47-.79a4.16,4.16,0,0,0-.83-.38,3,3,0,0,0-1.43-.17,17.66,17.66,0,0,1,3.2-2.3,7.26,7.26,0,0,1,2.64.64,6.16,6.16,0,0,0,2.83.62,10.86,10.86,0,0,0,1.88-.41c-.43,0-1.39.13-1.88.13a5.77,5.77,0,0,1-1.89-.32c-.58-.24-1-.36-1.56-.6a3.37,3.37,0,0,0-.87-.27,4.27,4.27,0,0,0-.81-.09l.76-.43c1-.55,1.88-1.11,2.82-1.75h1.13a4.87,4.87,0,0,0,2.3-.23,8.46,8.46,0,0,0,1.34-.77l-1.36.54a4.2,4.2,0,0,1-1.45.19H612.2a11,11,0,0,0,2.31-2.31,29.9,29.9,0,0,0,2.47-4.19c-.66.91-2.11,2.85-2.79,3.64A16.66,16.66,0,0,1,612.93,793.53Z" transform="translate(-131.36 -46.11)"/><path class="cls-8" d="M601.65,800a9,9,0,0,0-4.73-4,7.94,7.94,0,0,0-4,0,15.46,15.46,0,0,0-6.27,3.62,21.7,21.7,0,0,1-5.84,4.06c-.41.17-.86.32-1.29.45,2.93.72,5.78,1.76,8.71,2.45a18.35,18.35,0,0,0,8.74.38,10.27,10.27,0,0,0,3-1.3,5.16,5.16,0,0,0,2.65-3.56,2.17,2.17,0,0,0-.92-2.13" transform="translate(-131.36 -46.11)"/><path class="cls-12" d="M586.79,803.79a12.82,12.82,0,0,0,4.14-1.26l.87-.47a4.63,4.63,0,0,1-.75-.22c-.55-.25-.94-.34-1.47-.57a5.46,5.46,0,0,0-1.7-.28,7.68,7.68,0,0,0-1.71.13,8.25,8.25,0,0,1,1.77-.4,5.81,5.81,0,0,1,2.66.55,11,11,0,0,0,1.71.55c.7-.36,1.36-.68,2.15-1.15a7,7,0,0,1,1.09-.55l-.43-.09a4.49,4.49,0,0,1-.78-.34c-.51-.28-.88-.43-1.39-.7a5,5,0,0,0-1.66-.47h-1.71a9.93,9.93,0,0,1,1.88-.21,6.12,6.12,0,0,1,2.6.83,7.67,7.67,0,0,0,2.11.83l.34-.11a10,10,0,0,1,1.88-.42,3,3,0,0,1-.56-.37c-.36-.32-.66-.51-1-.83a4.25,4.25,0,0,0-1.3-.68c-.32-.09-1-.24-1.41-.32a8.59,8.59,0,0,1,1.52.13,4.87,4.87,0,0,1,2,1.13,9.36,9.36,0,0,0,1.32.91,3.76,3.76,0,0,1,2.47.69l.24.23a2.23,2.23,0,0,0-1.54-.4,7.41,7.41,0,0,0-1,.12,6.07,6.07,0,0,0-1.27,2.39,5.42,5.42,0,0,1-1.3,2.37,7.61,7.61,0,0,1-1.43,1.09c.3-.28.94-.9,1.21-1.2a5,5,0,0,0,.86-1.49c.19-.55.36-.92.53-1.47a4.59,4.59,0,0,1,.34-.79,3.1,3.1,0,0,1,.66-.83,13.74,13.74,0,0,0-3.18,1.15,8.33,8.33,0,0,0-1,1.66,5.63,5.63,0,0,1-1.57,2.22,10,10,0,0,1-1.56.9c.34-.24,1.06-.79,1.34-1a5.08,5.08,0,0,0,1-1.37c.25-.53.47-.87.7-1.42a3,3,0,0,1,.34-.6l-1.24.66a14.62,14.62,0,0,1-6.52,2.22,24.78,24.78,0,0,1-4.54-.45C583.51,804,585.83,803.91,586.79,803.79Z" transform="translate(-131.36 -46.11)"/><path class="cls-13" d="M603.91,801.35a6.77,6.77,0,0,1,4.44-1.62,6,6,0,0,1,2.9,1.07,11.64,11.64,0,0,1,3.55,4.26,16.36,16.36,0,0,0,3.05,4.46c.26.24.54.45.81.68-2.3-.27-4.62-.28-6.92-.55a14.35,14.35,0,0,1-6.36-2,8.18,8.18,0,0,1-1.88-1.74,4,4,0,0,1-1-3.25,1.62,1.62,0,0,1,1.24-1.28" transform="translate(-131.36 -46.11)"/><path class="cls-12" d="M613.57,808a9.63,9.63,0,0,1-2.65-2l-.49-.55h1.8a3.38,3.38,0,0,1,1.3.25,11.67,11.67,0,0,1,1.19.54,6.47,6.47,0,0,0-1.17-.75,4.23,4.23,0,0,0-2-.3,8,8,0,0,1-1.38,0c-.39-.43-.79-.85-1.24-1.4a5.07,5.07,0,0,0-.64-.67h.34a3.42,3.42,0,0,0,.64,0,10.25,10.25,0,0,0,1.21-.15,3.38,3.38,0,0,1,1.3.11,11.24,11.24,0,0,1,1.24.41,7.87,7.87,0,0,0-1.23-.62,4.61,4.61,0,0,0-2.09-.09,6.27,6.27,0,0,1-1.73,0l-.21-.17a7.48,7.48,0,0,0-1.22-.79,3.18,3.18,0,0,0,.51-.13l1-.32a3.49,3.49,0,0,1,1.11-.14l1.11.15a5,5,0,0,0-1.15-.32,3.81,3.81,0,0,0-1.73.29,5.93,5.93,0,0,1-1.19.3,2.77,2.77,0,0,0-1.88-.15H604a1.59,1.59,0,0,1,1.21.13l.66.32a4.34,4.34,0,0,1,.26,2,4.76,4.76,0,0,0,.3,2,8.08,8.08,0,0,0,.76,1.17c-.15-.28-.44-.9-.55-1.18a3.87,3.87,0,0,1-.23-1.3v-1.21a2.29,2.29,0,0,0,0-.64,2.1,2.1,0,0,0-.24-.77,10.15,10.15,0,0,1,2,1.66,7.87,7.87,0,0,1,.26,1.45,4.31,4.31,0,0,0,.53,2,8.12,8.12,0,0,0,.88,1.06,11.43,11.43,0,0,1-.67-1.12,3.71,3.71,0,0,1-.4-1.26c0-.45-.09-.75-.11-1.18a3.33,3.33,0,0,0-.1-.55l.74.81a10.74,10.74,0,0,0,4,3.48,17.08,17.08,0,0,0,3.37.89C616,809,614.25,808.35,613.57,808Z" transform="translate(-131.36 -46.11)"/><path class="cls-11" d="M604.83,757.37a1.53,1.53,0,0,0,1.42-1,40.72,40.72,0,0,0,2.76-11.3,17.63,17.63,0,0,0-2.84-11.6,1.54,1.54,0,0,0-2.43,1.89A14.75,14.75,0,0,1,606,745a37.76,37.76,0,0,1-2.58,10.4,1.49,1.49,0,0,0,.89,1.88A1.31,1.31,0,0,0,604.83,757.37Z" transform="translate(-131.36 -46.11)"/><rect class="cls-2" x="531.96" y="755.03" width="57.95" height="207.22"/><path class="cls-4" d="M662,801.57h59.31v-19H648.64a1,1,0,0,0-.77,1.62Z" transform="translate(-131.36 -46.11)"/><path class="cls-4" d="M721.28,809.18h-59.8a3,3,0,0,1-3-3v-2a3,3,0,0,1,3-3.09h59.85v8.12Z" transform="translate(-131.36 -46.11)"/><g class="cls-14"><path class="cls-6" d="M789.06,801.55h-141v-10.7a10.68,10.68,0,0,1,8.82,4.65,10.68,10.68,0,0,1,14.84-2.78,10.84,10.84,0,0,1,2.79,2.78,10.69,10.69,0,0,1,14.87-2.75,10.58,10.58,0,0,1,2.75,2.75A10.71,10.71,0,0,1,707,792.75a10.58,10.58,0,0,1,2.75,2.75,10.7,10.7,0,0,1,17.63,0,8.32,8.32,0,0,1,.53-.68h0a7.33,7.33,0,0,1,.6-.65l.13-.14c.21-.22.43-.41.66-.62h.09a10.64,10.64,0,0,1,3.49-1.88H733c.3-.09.6-.17.9-.23h.19a10.48,10.48,0,0,1,2-.2,10.56,10.56,0,0,1,8.81,4.63,10.67,10.67,0,0,1,14.84-2.79,10.39,10.39,0,0,1,2,1.79,10.73,10.73,0,0,1,.78,1,10.66,10.66,0,0,1,17.62,0,10.68,10.68,0,0,1,8.82-4.65Z" transform="translate(-131.36 -46.11)"/></g><path class="cls-4" d="M721.28,956.9H683v-87A28.81,28.81,0,0,1,711.8,841.1h9.42V956.9Z" transform="translate(-131.36 -46.11)"/><path class="cls-6" d="M721.3,949H689.11V870.66a24.22,24.22,0,0,1,24.22-24.22h8V949Z" transform="translate(-131.36 -46.11)"/><path class="cls-2" d="M721.28,1094.81H663.46v-50.45c-1.66-14.11-8-19.63-8-19.63h8V1017h57.82Z" transform="translate(-131.36 -46.11)"/><path class="cls-3" d="M721.28,1025.24H651.9s-20.06.47-11.92-17.32c5.89-12.87-.79-15.92-5-16.63a7.42,7.42,0,0,1-4.74,13.18h-.85s-12.34-.57-10.36-15.74,17.74-11.87,17.74-11.87,13.77,1,14.9,13.6,46.84,13.93,46.84,13.93h22.73Z" transform="translate(-131.36 -46.11)"/><rect class="cls-2" x="531.96" y="1066.54" width="57.95" height="207.22"/><path class="cls-4" d="M662,1113.1h59.31V1094H648.64a1,1,0,0,0-.77,1.62Z" transform="translate(-131.36 -46.11)"/><path class="cls-4" d="M721.28,1120.69h-59.8a3,3,0,0,1-3-3v-2a3,3,0,0,1,3-3h59.8v8.06Z" transform="translate(-131.36 -46.11)"/><g class="cls-15"><path class="cls-6" d="M789.06,1113.08h-141v-10.7a10.7,10.7,0,0,1,8.82,4.63,10.7,10.7,0,0,1,14.87-2.75,10.93,10.93,0,0,1,2.76,2.75,10.69,10.69,0,0,1,17.62,0,10.7,10.7,0,0,1,17.63,0,10.7,10.7,0,0,1,17.63,0,3.81,3.81,0,0,1,.53-.67h0a6.27,6.27,0,0,1,.6-.66l.13-.15.72-.61h.09A11.09,11.09,0,0,1,733,1103h.14l.9-.24h.19a9.76,9.76,0,0,1,2-.23,10.62,10.62,0,0,1,8,3.65,7.47,7.47,0,0,1,.78,1,10.66,10.66,0,0,1,16.85-1,7.39,7.39,0,0,1,.77,1,10.7,10.7,0,0,1,14.88-2.75,10.58,10.58,0,0,1,2.75,2.75,10.7,10.7,0,0,1,8.81-4.63Z" transform="translate(-131.36 -46.11)"/></g><path class="cls-4" d="M721.28,1268.41H683v-87a28.81,28.81,0,0,1,28.81-28.81h9.42v115.8Z" transform="translate(-131.36 -46.11)"/><path class="cls-6" d="M721.3,1260.52H689.11v-78.33A24.22,24.22,0,0,1,713.33,1158h8v102.55Z" transform="translate(-131.36 -46.11)"/><path class="cls-9" d="M697.19,938s-11.49.79-3.88,17.85C693.31,955.86,706.78,943.7,697.19,938Z" transform="translate(-131.36 -46.11)"/><path class="cls-8" d="M645.44,944.6a10,10,0,0,0,6.72-4.39,19.16,19.16,0,0,0,3.11-8,119.91,119.91,0,0,0,.81-14.92,120,120,0,0,0,6.83,30.44,137.45,137.45,0,0,1,.66-35.56,54.71,54.71,0,0,0,9,10.72c5.65,5.27,13,9.26,19.71,13.69a181.78,181.78,0,0,1,20,15.06q2.15,1.89,4.18,3.77a26,26,0,0,1,1,3.77A17.15,17.15,0,0,1,715,972.36a13.07,13.07,0,0,1-5.14,4.5,14.58,14.58,0,0,1-7.23,1.56,7.33,7.33,0,0,1-6.55-8,6.6,6.6,0,0,1,.15-.87,7.55,7.55,0,0,1,3.76-5.13,3.21,3.21,0,0,1,4.39,1.14.43.43,0,0,1,0,.07,1.3,1.3,0,0,0,1.56.88,1.28,1.28,0,0,0,.89-1.56,5.66,5.66,0,0,0-7.34-3.16l-.08,0a9.77,9.77,0,0,0-5.65,7.16,10,10,0,0,0,1.54,7.8,9.8,9.8,0,0,0,6.89,4.1,16.91,16.91,0,0,0,9.08-1.88,15.52,15.52,0,0,0,6.2-5.44,19.54,19.54,0,0,0,2.65-14,27.58,27.58,0,0,1,5.09,8.38c2.52,7,.56,14.16-1.75,20.88a16.65,16.65,0,0,0,8-11c2.86-10.92-.9-23.12-10.13-32.73-12.22-12.73-32.36-20.36-45.2-32.71a31,31,0,0,1-9.28-15.52A91.67,91.67,0,0,1,682.61,865c1.76-2.26,3.51-4.35,5.22-6.29a16.08,16.08,0,0,0,1.51,6.78,7.62,7.62,0,0,0,2.86,3.37,4.64,4.64,0,0,0,4.24.28c2.48-1.09,4.67-4.16,3.61-6.93a3,3,0,0,0-3.37-2.09,2.4,2.4,0,0,0-1.64,3,1.66,1.66,0,0,0,.14.37.86.86,0,0,0,1.16.3.88.88,0,0,0,.32-1.17.72.72,0,0,1,.29-.77.9.9,0,0,1,1.09.34,2.77,2.77,0,0,1,.26,2.83c-.75,1.79-3,3.46-4.91,2.6s-3-3.47-3.47-5.52a13.41,13.41,0,0,1-.23-5.46C713.61,830.83,731.62,835,731.62,835V814.67a218,218,0,0,0-27,14.56l-1.28.21a63.83,63.83,0,0,1-18.61-.79,32.63,32.63,0,0,1-21.94-12.81s-.21-.6-.45.72a13.79,13.79,0,0,0-.23,2.48c0,5.86,4.54,8.44,9.42,11.55a75.21,75.21,0,0,0,7,3.95,50.8,50.8,0,0,0,13,4.26,118.91,118.91,0,0,0-20.13,20.9l-.61.29c-5.4,2.61-11.67,5.65-14.33,11.3s-1.22,11.5.79,16.94a100.47,100.47,0,0,0-1.65,19.2,30.53,30.53,0,0,0-1.47,6.32c-.66,5.16-.19,10.38-.74,15.54-.47,4.58-1.88,10.49-6.59,12.56a4.55,4.55,0,0,1-5.05-.77,7.35,7.35,0,0,1-1.39-7.55c.34-.79,1-1.89,1.88-1.89a1.9,1.9,0,0,1,1.89,1.44,4,4,0,0,1-.74,3.31c-.77,1.21,1.15,2.34,1.89,1.13a6.3,6.3,0,0,0,1-4.9,4.31,4.31,0,0,0-3.1-3.1c-3.34-.76-5.2,3-5.5,5.65C637.26,939.82,640.33,945.13,645.44,944.6Zm13.93-73.2a17.27,17.27,0,0,1,5.82-5.52c1.06-.68,2.15-1.28,3.26-1.88a89.29,89.29,0,0,0-9.94,19.94,22.71,22.71,0,0,1-.74-3.65A14.09,14.09,0,0,1,659.37,871.4Z" transform="translate(-131.36 -46.11)"/><path class="cls-9" d="M672.2,831.25s-10.45-11-20.72,10.83C651.52,842.08,674.76,845.69,672.2,831.25Z" transform="translate(-131.36 -46.11)"/><path class="cls-9" d="M686.06,830s14.16-5.43-2-23.26C684.18,806.71,671.8,826.76,686.06,830Z" transform="translate(-131.36 -46.11)"/><path class="cls-9" d="M656.27,901s-10.46-11-20.72,10.83C635.59,911.83,658.83,915.45,656.27,901Z" transform="translate(-131.36 -46.11)"/><path class="cls-9" d="M685.61,921s12.3,8.1,17.76-15.16C703.37,905.82,680.22,907.75,685.61,921Z" transform="translate(-131.36 -46.11)"/><path class="cls-9" d="M676.21,925.2s-8.61,2.26-.45,14.56C675.76,939.76,684.31,928.31,676.21,925.2Z" transform="translate(-131.36 -46.11)"/><path class="cls-8" d="M661.75,1059.24a8.07,8.07,0,0,1,.41-1.89c.36-1,.55-.54.55-.54,5.35,6,13.8,9.69,23.48,11.3,3.09.48,6.22.92,9.42,1.22h0c9.7.77,23-3,29.58-5.16l.4-.21-.25.17c2.43-.79,3.9-1.35,3.9-1.35v3.76l1.25,11.3c-15.71,4-34.09-.62-34.09-.62h0a73.1,73.1,0,0,1-17.27-4.5c-2.62-1.06-5.1-2.24-7.53-3.48C666.25,1066.2,661.39,1063.92,661.75,1059.24Z" transform="translate(-131.36 -46.11)"/><path class="cls-9" d="M675.74,1066s10.89.2,4.92-16C680.66,1050,667.08,1060,675.74,1066Z" transform="translate(-131.36 -46.11)"/><path class="cls-9" d="M663.46,1065.19s.92-10.85-15.69-5.94C647.77,1059.25,656.93,1073.45,663.46,1065.19Z" transform="translate(-131.36 -46.11)"/><path class="cls-9" d="M689.37,1074.15s-10.3-8.29-16.61,11.75C672.76,1085.9,693.27,1086.34,689.37,1074.15Z" transform="translate(-131.36 -46.11)"/><path class="cls-9" d="M697.66,1249.54s-11.49.79-3.88,17.85C693.78,1267.39,707.28,1255.23,697.66,1249.54Z" transform="translate(-131.36 -46.11)"/><path class="cls-8" d="M645.91,1256.13a10,10,0,0,0,6.76-4.31,19.26,19.26,0,0,0,3.09-8,124.13,124.13,0,0,0,.83-14.92,119.35,119.35,0,0,0,6.87,30.47,136.15,136.15,0,0,1,.68-35.56,54.91,54.91,0,0,0,9,10.72c5.65,5.27,13,9.27,19.74,13.69a181.52,181.52,0,0,1,20,15.07c1.43,1.24,2.84,2.52,4.18,3.76a27.48,27.48,0,0,1,1.08,3.77,17.13,17.13,0,0,1-2.47,13.18,13.16,13.16,0,0,1-5.18,4.26,14.85,14.85,0,0,1-7.23,1.56,7.31,7.31,0,0,1-6.55-8,8.46,8.46,0,0,1,.14-.9,7.56,7.56,0,0,1,3.77-5.13A3.25,3.25,0,0,1,705,1277v0a1.27,1.27,0,0,0,2.45-.68h0a5.65,5.65,0,0,0-7.38-3.08h0a9.85,9.85,0,0,0-5.65,7.18,10,10,0,0,0,1.53,7.79,9.76,9.76,0,0,0,6.89,4.09,16.93,16.93,0,0,0,9.08-1.88,15.55,15.55,0,0,0,6.21-5.47,19.48,19.48,0,0,0,2.64-14,27.73,27.73,0,0,1,5.1,8.38c2.51,7,.55,14.15-1.75,20.89a16.68,16.68,0,0,0,8-11c2.88-10.94-.91-23.15-10.11-32.73-12.23-12.73-32.38-20.36-45.2-32.71a31,31,0,0,1-9.31-15.52A92,92,0,0,1,683,1176.49c1.77-2.26,3.5-4.33,5.21-6.27a16.41,16.41,0,0,0,1.53,6.78,7.39,7.39,0,0,0,2.86,3.25,4.55,4.55,0,0,0,4.24.29c2.49-1.08,4.65-4.17,3.6-6.92a3,3,0,0,0-3.34-2.1,2.38,2.38,0,0,0-1.64,3,2,2,0,0,0,.16.4.84.84,0,0,0,1.15.3h0a.86.86,0,0,0,.3-1.17.69.69,0,0,1,.31-.77.86.86,0,0,1,1.07.34,2.71,2.71,0,0,1,.26,2.82c-.73,1.79-2.93,3.47-4.89,2.58s-3-3.46-3.49-5.5a13.67,13.67,0,0,1-.2-5.48c23.91-25.72,41.9-21.64,41.9-21.64v-20.16a220.52,220.52,0,0,0-27,14.52l-1.28.2a63.49,63.49,0,0,1-18.61-.81,32.59,32.59,0,0,1-21.94-12.78s-.19-.61-.43.71a13.83,13.83,0,0,0-.25,2.49c0,5.85,4.54,8.43,9.42,11.52a72.22,72.22,0,0,0,7,4,52.3,52.3,0,0,0,13,4.25,118.51,118.51,0,0,0-20.11,20.91l-.6.28c-5.41,2.6-11.68,5.65-14.34,11.3s-1.24,11.51.8,17a97.46,97.46,0,0,0-1.66,19.21,29.3,29.3,0,0,0-1.47,6.32c-.66,5.15-.21,10.36-.73,15.52-.48,4.58-1.89,10.51-6.62,12.56a4.48,4.48,0,0,1-5-.75,6.92,6.92,0,0,1-1.89-4.78,7.09,7.09,0,0,1,.51-2.77c.32-.79,1-1.88,1.88-1.88a1.87,1.87,0,0,1,1.89,1.41,4,4,0,0,1-.72,3.33c-.79,1.21,1.15,2.32,1.89,1.11a6.32,6.32,0,0,0,1-4.87,4.37,4.37,0,0,0-3.1-3.11c-3.36-.76-5.2,3-5.52,5.65C637.72,1251.35,640.86,1256.66,645.91,1256.13Zm13.92-73.2a17.26,17.26,0,0,1,5.83-5.54c1.06-.66,2.15-1.28,3.26-1.88a90.22,90.22,0,0,0-10,19.94,25.36,25.36,0,0,1-.73-3.65A14.11,14.11,0,0,1,659.83,1182.93Z" transform="translate(-131.36 -46.11)"/><path class="cls-9" d="M672.67,1142.76s-10.45-11-20.72,10.83C652,1153.59,675.23,1157.22,672.67,1142.76Z" transform="translate(-131.36 -46.11)"/><path class="cls-9" d="M686.59,1141.48s14.18-5.41-2-23.26C684.55,1118.22,672.27,1138.29,686.59,1141.48Z" transform="translate(-131.36 -46.11)"/><path class="cls-9" d="M656.74,1212.51s-10.45-11-20.72,10.83C636,1223.34,659.3,1227,656.74,1212.51Z" transform="translate(-131.36 -46.11)"/><path class="cls-9" d="M686.06,1232.5s12.28,8.09,17.74-15.07C703.82,1217.34,680.67,1219.27,686.06,1232.5Z" transform="translate(-131.36 -46.11)"/><path class="cls-9" d="M676.64,1236.75s-8.6,2.24-.45,14.54C676.23,1251.27,684.78,1239.82,676.64,1236.75Z" transform="translate(-131.36 -46.11)"/><path class="cls-2" d="M199.16,86.6H257v7.66h8s-6.34,5.52-8,19.63v50.49H199.16Z" transform="translate(-131.36 -46.11)"/><path class="cls-3" d="M199.16,73.94h22.73S267.6,72.68,268.73,60s14.9-13.61,14.9-13.61,15.76-3.3,17.74,11.88S291,74,291,74h-.85a7.42,7.42,0,0,1-4.74-13.19c-4.17.72-10.85,3.77-5,16.65,8.14,17.78-11.92,17.31-11.92,17.31H199.16Z" transform="translate(-131.36 -46.11)"/><rect class="cls-2" x="67.8" y="132.09" width="57.95" height="207.22"/><path class="cls-4" d="M272.57,161.19a1,1,0,0,0,.22-.61,1,1,0,0,0-1-1H199.16v19h59.31Z" transform="translate(-131.36 -46.11)"/><path class="cls-4" d="M199.16,186.24v-8.06H259a3,3,0,0,1,3,3v2h0a3,3,0,0,1-3,3Z" transform="translate(-131.36 -46.11)"/><g class="cls-16"><path class="cls-6" d="M131.36,168.05a10.66,10.66,0,0,1,8.82,4.63,10.58,10.58,0,0,1,2.75-2.75,10.7,10.7,0,0,1,14.88,2.75,7.22,7.22,0,0,1,.77-1,10.7,10.7,0,0,1,16.85,1,12.3,12.3,0,0,1,.77-1,10.62,10.62,0,0,1,8.05-3.65,11.33,11.33,0,0,1,2,.21h.19l.9.24h.14a11.09,11.09,0,0,1,3.48,1.88h.09l.72.68.13.13c.21.23.42.44.6.68h0a5.15,5.15,0,0,1,.53.7,10.68,10.68,0,0,1,17.63,0,10.84,10.84,0,0,1,2.78-2.79,10.69,10.69,0,0,1,14.85,2.79,10.66,10.66,0,0,1,17.62,0,10.71,10.71,0,0,1,17.63,0,10.63,10.63,0,0,1,8.81-4.63v10.67h-141Z" transform="translate(-131.36 -46.11)"/></g><path class="cls-4" d="M199.22,334h0V218.16h9.41A28.82,28.82,0,0,1,237.45,247v87H199.22Z" transform="translate(-131.36 -46.11)"/><path class="cls-6" d="M199.14,326.05V223.49h8a24.23,24.23,0,0,1,24.22,24.22v78.34H199.14Z" transform="translate(-131.36 -46.11)"/><path class="cls-2" d="M199.16,390.37H257v7.7h8s-6.34,5.52-8,19.62v50.46H199.16Z" transform="translate(-131.36 -46.11)"/><path class="cls-3" d="M199.16,378.3h22.73s45.71-1.3,46.84-13.94,14.9-13.6,14.9-13.6,15.76-3.39,17.74,11.79S291,378.3,291,378.3h-.85a7.42,7.42,0,0,1-4.74-13.19c-4.17.72-10.85,3.77-5,16.63,8.14,17.8-11.92,17.33-11.92,17.33H199.16Z" transform="translate(-131.36 -46.11)"/><rect class="cls-2" x="67.8" y="440.87" width="57.95" height="255.54"/><path class="cls-4" d="M272.57,470a1,1,0,0,0,.22-.61,1,1,0,0,0-1-1H199.16v19h59.31Z" transform="translate(-131.36 -46.11)"/><path class="cls-4" d="M199.16,495v-8.06H259a3,3,0,0,1,3,3v2h0a3,3,0,0,1-3,3Z" transform="translate(-131.36 -46.11)"/><g class="cls-17"><path class="cls-6" d="M131.36,476.92a10.67,10.67,0,0,1,8.82,4.64,10.68,10.68,0,0,1,17.63,0,6.65,6.65,0,0,1,.77-1,10.36,10.36,0,0,1,2-1.76,10.68,10.68,0,0,1,14.87,2.74,7.39,7.39,0,0,1,.77-1,10.66,10.66,0,0,1,8.05-3.66,9.73,9.73,0,0,1,2,.21h.19l.9.23h.14a11.09,11.09,0,0,1,3.48,1.88h.09l.72.62.13.13c.21.23.42.44.6.68h0a6.9,6.9,0,0,1,.53.68,10.7,10.7,0,0,1,17.63,0,10.84,10.84,0,0,1,2.78-2.79,10.69,10.69,0,0,1,14.85,2.79,10.66,10.66,0,0,1,17.62,0,10.88,10.88,0,0,1,2.79-2.79,10.67,10.67,0,0,1,14.84,2.79,10.63,10.63,0,0,1,8.81-4.63v10.67h-141Z" transform="translate(-131.36 -46.11)"/></g><path class="cls-4" d="M199.22,642.74V526.94h9.41a28.82,28.82,0,0,1,28.82,28.82v87H199.22Z" transform="translate(-131.36 -46.11)"/><path class="cls-6" d="M199.14,634.83V532.29h8a24.22,24.22,0,0,1,24.22,24.22v78.32H199.14Z" transform="translate(-131.36 -46.11)"/><path class="cls-8" d="M248.45,133.7c-2.45,1.26-4.94,2.45-7.54,3.5a72.66,72.66,0,0,1-17.28,4.48h0s-18.39,4.65-34.07.61l1.22-11.3v-3.77s1.49.55,3.92,1.34l-.25-.15.38.2c6.54,2.23,19.81,6,29.45,5.3h0c3.21-.29,6.33-.72,9.42-1.21,9.7-1.58,18.16-5.25,23.5-11.3,0,0,.17-.49.53.57a8.54,8.54,0,0,1,.42,1.88C258.5,128.54,253.64,130.84,248.45,133.7Z" transform="translate(-131.36 -46.11)"/><path class="cls-9" d="M239.24,114.56c-6,16.26,4.91,16,4.91,16C252.83,124.6,239.24,114.56,239.24,114.56Z" transform="translate(-131.36 -46.11)"/><path class="cls-9" d="M272.12,123.87c-16.59-4.94-15.69,5.93-15.69,5.93C263,138.07,272,123.87,272.12,123.87Z" transform="translate(-131.36 -46.11)"/><path class="cls-9" d="M247.13,150.52c-6.31-20-16.61-11.76-16.61-11.76C226.64,151,247.13,150.52,247.13,150.52Z" transform="translate(-131.36 -46.11)"/><path class="cls-9" d="M226.75,641.69c7.61-17.06-3.88-17.83-3.88-17.83C213.25,629.54,226.75,641.69,226.75,641.69Z" transform="translate(-131.36 -46.11)"/><path class="cls-8" d="M282.33,621c-.3-2.69-2.15-6.4-5.5-5.65a4.32,4.32,0,0,0-3.11,3.11,6.23,6.23,0,0,0,1,4.88c.73,1.2,2.65.09,1.88-1.13a4,4,0,0,1-.73-3.32,1.88,1.88,0,0,1,1.88-1.41c.9,0,1.54,1.09,1.88,1.88a7.39,7.39,0,0,1-1.39,7.54,4.58,4.58,0,0,1-5.05.75c-4.71-2.07-6.12-8-6.59-12.56-.54-5.16-.07-10.38-.73-15.52a31.47,31.47,0,0,0-1.47-6.35,100.45,100.45,0,0,0-1.66-19.19c2-5.46,3.45-11.3.79-16.95s-8.92-8.68-14.33-11.3l-.6-.28a118.27,118.27,0,0,0-20.1-20.94,51.64,51.64,0,0,0,13-4.28,75.21,75.21,0,0,0,7-3.95c4.88-3.09,9.42-5.69,9.42-11.55a13.57,13.57,0,0,0-.23-2.46c-.24-1.32-.45-.72-.45-.72a32.74,32.74,0,0,1-21.94,12.79,63.09,63.09,0,0,1-18.6.79L215.4,515a220.52,220.52,0,0,0-27-14.52v20.17s18-4.09,41.92,21.64a13.58,13.58,0,0,1-.21,5.46c-.51,2.05-1.53,4.63-3.48,5.52s-4.17-.72-4.92-2.6a2.75,2.75,0,0,1,.26-2.82.9.9,0,0,1,1.1-.34.73.73,0,0,1,.28.79.86.86,0,1,0,1.49.85,3.61,3.61,0,0,0,.16-.42,2.38,2.38,0,0,0-1.67-2.92,3,3,0,0,0-3.31,2.09c-1.08,2.77,1.11,5.84,3.59,6.93a4.64,4.64,0,0,0,4.24-.28,7.52,7.52,0,0,0,2.86-3.28,15.72,15.72,0,0,0,1.51-6.78c1.71,1.94,3.46,4,5.22,6.29a92,92,0,0,1,15.72,31.81,30.91,30.91,0,0,1-9.38,15.48c-12.84,12.34-33,20-45.2,32.7-9.22,9.6-13,21.8-10.13,32.73a16.74,16.74,0,0,0,8,11c-2.32-6.74-4.28-13.89-1.75-20.9a27.67,27.67,0,0,1,5.08-8.38,19.54,19.54,0,0,0,2.66,14,15.48,15.48,0,0,0,6.21,5.44,17,17,0,0,0,9.06,1.89,9.74,9.74,0,0,0,6.89-4.11,9.89,9.89,0,0,0,1.55-7.78,9.77,9.77,0,0,0-5.65-7.17h0a5.65,5.65,0,0,0-7.38,3.08,1.26,1.26,0,0,0,.89,1.54,1.3,1.3,0,0,0,1.56-.88l0,0a3.22,3.22,0,0,1,4.4-1.17,7.5,7.5,0,0,1,3.76,5.12,7,7,0,0,1,.15.9,7.32,7.32,0,0,1-6.55,8,14.85,14.85,0,0,1-7.23-1.56,13.29,13.29,0,0,1-5.18-4.28,17.13,17.13,0,0,1-2.47-13.18,26.06,26.06,0,0,1,1.06-3.77c1.35-1.25,2.75-2.51,4.18-3.76a181.75,181.75,0,0,1,20-15.07c6.74-4.42,14.07-8.42,19.72-13.67a55.3,55.3,0,0,0,9-10.72,136.43,136.43,0,0,1,.66,35.54A119.42,119.42,0,0,0,264,603.2a118,118,0,0,0,.81,14.91,19.36,19.36,0,0,0,3.1,8,10,10,0,0,0,6.76,4.3C279.73,631,282.82,625.66,282.33,621Zm-20-54.92a22.83,22.83,0,0,1-.74,3.66,88.73,88.73,0,0,0-9.94-19.95c1.11.61,2.2,1.21,3.26,1.89a17.05,17.05,0,0,1,5.81,5.52A14.07,14.07,0,0,1,262.35,566.11Z" transform="translate(-131.36 -46.11)"/><path class="cls-9" d="M268.58,527.9c-10.26-21.82-20.72-10.83-20.72-10.83C245.3,531.52,268.54,527.9,268.58,527.9Z" transform="translate(-131.36 -46.11)"/><path class="cls-9" d="M236,492.54c-16.22,17.83-2,23.25-2,23.25C248.26,512.61,236,492.54,236,492.54Z" transform="translate(-131.36 -46.11)"/><path class="cls-9" d="M284.51,597.66c-10.26-21.83-20.71-10.83-20.71-10.83C261.23,601.28,284.47,597.66,284.51,597.66Z" transform="translate(-131.36 -46.11)"/><path class="cls-9" d="M216.62,591.65c5.46,23.26,17.76,15.16,17.76,15.16C239.84,593.57,216.7,591.65,216.62,591.65Z" transform="translate(-131.36 -46.11)"/><path class="cls-9" d="M244.25,625.61c8.15-12.3-.45-14.54-.45-14.54C235.75,614.14,244.3,625.59,244.25,625.61Z" transform="translate(-131.36 -46.11)"/><path class="cls-8" d="M248.15,440.54c-2.45,1.26-4.94,2.45-7.54,3.5a72.74,72.74,0,0,1-17.29,4.48h0s-18.38,4.66-34.08.61l1.24-11.3v-3.77s1.47.55,3.9,1.34l-.23-.15.38.2c6.59,2.15,19.89,5.94,29.59,5.14h0c3.2-.28,6.32-.71,9.41-1.2,9.68-1.58,18.14-5.25,23.49-11.3,0,0,.18-.49.54.57a8.54,8.54,0,0,1,.42,1.88C258.33,435.23,253.48,437.51,248.15,440.54Z" transform="translate(-131.36 -46.11)"/><path class="cls-9" d="M239.07,421.25c-6,16.26,4.91,16,4.91,16C252.67,431.29,239.07,421.25,239.07,421.25Z" transform="translate(-131.36 -46.11)"/><path class="cls-9" d="M272,430.56c-16.59-4.94-15.69,5.93-15.69,5.93C262.8,444.76,272,430.56,272,430.56Z" transform="translate(-131.36 -46.11)"/><path class="cls-9" d="M247,457.21c-6.31-20-16.61-11.76-16.61-11.76C226.45,457.64,247,457.21,247,457.21Z" transform="translate(-131.36 -46.11)"/><path class="cls-10" d="M199.32,790.9h59.13v-22c3.67-21.92,47.61-26.67,47.61-26.67H258.64v-5.41H199.32Z" transform="translate(-131.36 -46.11)"/><path class="cls-3" d="M366.64,737.23h-.05a6.46,6.46,0,0,1-.88,0,7.66,7.66,0,0,1-7.57-7.76,7.77,7.77,0,0,1,2.74-6c-4.25.74-11.07,3.94-5.05,17.37,8.29,18.57-12.18,18.08-12.18,18.08H154.05V737.12H296s46.66-1.36,47.82-14.56,15.21-14.2,15.21-14.2,16.08-3.54,18.11,12.3S366.64,737.23,366.64,737.23Z" transform="translate(-131.36 -46.11)"/><path class="cls-2" d="M342.29,816.8l-5.39,25.6a3.87,3.87,0,0,1-3.77,3.06H312a3.9,3.9,0,0,1-3.77-3.06l-5.38-25.6h39.4Z" transform="translate(-131.36 -46.11)"/><polyline class="cls-6" points="173.65 780.75 171.52 769.4 187 769.4 195.5 769.4 210.98 769.4 208.85 780.75"/><path class="cls-11" d="M305.15,808.25l19.08-51.41a1.51,1.51,0,0,0-2.83-1.06L302.32,807.2a1.51,1.51,0,0,0,.89,1.88,1.6,1.6,0,0,0,.53.09A1.5,1.5,0,0,0,305.15,808.25Z" transform="translate(-131.36 -46.11)"/><path class="cls-11" d="M342.42,809a1.5,1.5,0,0,0,.88-1.88l-19.07-51.41h0a1.51,1.51,0,1,0-2.83,1l19.08,51.42a1.51,1.51,0,0,0,1.41,1A1.68,1.68,0,0,0,342.42,809Z" transform="translate(-131.36 -46.11)"/><path class="cls-2" d="M307.05,823.9a13.9,13.9,0,0,1-13.9-13.9v-.9h0a2.2,2.2,0,0,1,2.21-2.2h54.52a2.2,2.2,0,0,1,2.2,2.2v.9h0a13.9,13.9,0,0,1-13.9,13.9Z" transform="translate(-131.36 -46.11)"/><path class="cls-8" d="M336.5,801.53a2.17,2.17,0,0,0-.92,2.13,5.2,5.2,0,0,0,2.66,3.56,10.77,10.77,0,0,0,3,1.3,19.13,19.13,0,0,0,8.74-.38c2.94-.72,5.78-1.75,8.72-2.45-.43-.15-.89-.3-1.3-.47a21.32,21.32,0,0,1-5.86-4.05,15.28,15.28,0,0,0-6.25-3.63,7.94,7.94,0,0,0-4,0,9,9,0,0,0-4.73,4" transform="translate(-131.36 -46.11)"/><path class="cls-12" d="M355.66,805.58a23.12,23.12,0,0,1-4.54.43,14.62,14.62,0,0,1-6.52-2.22l-1.24-.66a4.65,4.65,0,0,1,.34.62c.22.53.45.87.7,1.39a4.66,4.66,0,0,0,1,1.38c.28.26,1,.83,1.34,1.07a8.41,8.41,0,0,1-1.56-.92,5.82,5.82,0,0,1-1.57-2.2,9,9,0,0,0-1-1.68,14.4,14.4,0,0,0-3.18-1.15,3.66,3.66,0,0,1,.66.85,4.09,4.09,0,0,1,.34.77c.17.57.34.92.52,1.49a5.33,5.33,0,0,0,.87,1.47c.26.3.9.94,1.21,1.22a10.89,10.89,0,0,1-1.44-1.09,5.63,5.63,0,0,1-1.29-2.39,6.34,6.34,0,0,0-1.27-2.39l-1-.1a2.27,2.27,0,0,0-1.54.38l.24-.21a3.69,3.69,0,0,1,2.47-.7,8,8,0,0,0,1.32-.92,4.75,4.75,0,0,1,2-1.11,7.19,7.19,0,0,1,1.53-.13,13.11,13.11,0,0,0-1.41.32,4,4,0,0,0-1.3.68c-.38.3-.68.49-1,.81a3.12,3.12,0,0,1-.56.39,10,10,0,0,1,1.88.42l.34.09a7.32,7.32,0,0,0,2.11-.81,5.69,5.69,0,0,1,2.6-.83,9,9,0,0,1,1.79.21h-1.72a5.57,5.57,0,0,0-1.65.47c-.51.28-.89.41-1.4.72a4,4,0,0,1-.77.32l-.43.11a6.84,6.84,0,0,1,1.09.53c.79.47,1.45.79,2.15,1.15a9.4,9.4,0,0,0,1.71-.53,5.68,5.68,0,0,1,2.65-.57,9,9,0,0,1,1.78.42,17.13,17.13,0,0,0-1.72-.15,4.85,4.85,0,0,0-1.69.3c-.53.2-.93.32-1.47.54a3.39,3.39,0,0,1-.76.25l.87.45a12.35,12.35,0,0,0,4.14,1.26C352.34,805.46,354.64,805.52,355.66,805.58Z" transform="translate(-131.36 -46.11)"/><path class="cls-13" d="M307.88,807.78a2.19,2.19,0,0,1,1.17,2,5.24,5.24,0,0,1-2.26,3.76,9.72,9.72,0,0,1-2.83,1.62,18.67,18.67,0,0,1-8.72.61c-3-.38-5.95-1.1-8.94-1.47l1.24-.61a22,22,0,0,0,5.37-4.67,15.37,15.37,0,0,1,5.82-4.29,7.93,7.93,0,0,1,4-.45,9,9,0,0,1,5.14,3.35" transform="translate(-131.36 -46.11)"/><path class="cls-12" d="M306.88,806.65a2.45,2.45,0,0,0-1.56,0,11.06,11.06,0,0,0-2.66,1,6.74,6.74,0,0,0-.6,2.8,6.57,6.57,0,0,1-.81,3,11.49,11.49,0,0,1-1.22,1.56c.24-.4.75-1.24.94-1.64a5.59,5.59,0,0,0,.51-1.88,7.63,7.63,0,0,0,.13-1.72,4.7,4.7,0,0,1,.15-.9,3.82,3.82,0,0,1,.36-.92,16.27,16.27,0,0,0-1.45.94h0l-.42.3a6,6,0,0,0-1.2,2.2,5.74,5.74,0,0,1-1.28,2.25,10.62,10.62,0,0,1-1.42,1,14.24,14.24,0,0,0,1.19-1.13,4.79,4.79,0,0,0,.87-1.39c.18-.51.35-.87.52-1.39a3.94,3.94,0,0,1,.34-.72l.12-.19-.48.36h0c-.54.38-1.09.77-1.65,1.11a11,11,0,0,0-.66.91,5.49,5.49,0,0,1-1.89,1.88,8.16,8.16,0,0,1-1.6.62,15.11,15.11,0,0,0,1.42-.79,5.06,5.06,0,0,0,1.18-1.13c.25-.38.47-.64.7-1a10.27,10.27,0,0,1-2.92,1.17,28.56,28.56,0,0,1-4.52.51c1-.21,3.26-.72,4.18-1a15,15,0,0,0,2.88-1.24h-1.92a4.38,4.38,0,0,0-1.47.26c-.32.13-1,.45-1.28.62a6.18,6.18,0,0,1,1.19-.83,5.23,5.23,0,0,1,2.35-.36,7.86,7.86,0,0,0,1.68-.09l.32-.21c.75-.58,1.39-1,2.05-1.47h0a4.69,4.69,0,0,1-.75,0h-1.41a4.6,4.6,0,0,0-1.47.27c-.32.13-1,.45-1.28.62a6.44,6.44,0,0,1,1.18-.83,5.16,5.16,0,0,1,2.36-.36,6.44,6.44,0,0,0,2.05-.19l.43-.32a10.38,10.38,0,0,1,1.74-1.09,9.9,9.9,0,0,1,2.46-.88l-.66-.12a4.92,4.92,0,0,0-1.62.1c-.54.15-.92.21-1.45.38a5,5,0,0,1-.79.15,2,2,0,0,1-1.75-.53v-.1a.8.8,0,0,0,.53.27,5.94,5.94,0,0,0,2.58-.27,5.18,5.18,0,0,1,2.56-.24c.25.06.64.17,1,.3a3.77,3.77,0,0,1,1.88.21Z" transform="translate(-131.36 -46.11)"/><path class="cls-13" d="M314,805.41a1.87,1.87,0,0,1,1.88.64,3.54,3.54,0,0,1,.25,3.41,8.92,8.92,0,0,1-1.27,2.35,18.06,18.06,0,0,1-6,4.6c-2.35,1.22-4.84,2.22-7.21,3.46.22-.32.43-.66.62-1a16.61,16.61,0,0,0,1.6-5.42A11.66,11.66,0,0,1,306,808a7.58,7.58,0,0,1,2.69-2.14,9,9,0,0,1,5.42-.42" transform="translate(-131.36 -46.11)"/><path class="cls-12" d="M312.93,805.35a2.34,2.34,0,0,0-1.15.75,9,9,0,0,0-1.43,1.89,4.92,4.92,0,0,0,.92,2,4.14,4.14,0,0,1,.9,2.09,6.46,6.46,0,0,1-.13,1.52,6.45,6.45,0,0,1-.11-1.43,3.42,3.42,0,0,0-.51-1.34c-.28-.41-.43-.71-.73-1.11a2.93,2.93,0,0,1-.53-1.35,11.49,11.49,0,0,0-.6,1.28h0l-.12.09a2.5,2.5,0,0,0-.15.38,3.88,3.88,0,0,0,.19,1.88,3.71,3.71,0,0,1,.15,2,5.68,5.68,0,0,1-.53,1.28,9.59,9.59,0,0,0,.3-1.26,2.93,2.93,0,0,0,0-1.25c-.11-.41-.17-.69-.3-1.11a2,2,0,0,1-.09-.6v-.17c-.07.15-.13.3-.19.45h0a8.81,8.81,0,0,0-.66,1.49v.87a3.85,3.85,0,0,1-.41,2,7.6,7.6,0,0,1-.85,1.17c.17-.28.51-.9.64-1.18a3.42,3.42,0,0,0,.3-1.25v-.94a8.93,8.93,0,0,1-1.62,2.15,25.42,25.42,0,0,1-3,2.63c.67-.62,2-2,2.56-2.63a14.52,14.52,0,0,0,1.33-2.24l-.3.2-1,.68a4,4,0,0,0-.95.89,10.84,10.84,0,0,0-.62,1,4.68,4.68,0,0,1,.46-1.08,4.55,4.55,0,0,1,1.54-1.35,9.85,9.85,0,0,0,1.17-.87,2.33,2.33,0,0,0,.11-.28c.28-.72.55-1.28.79-1.89h0a3.51,3.51,0,0,1-.53.4l-1,.68a3.94,3.94,0,0,0-.94.88c-.15.21-.49.74-.63,1a5.39,5.39,0,0,1,.48-1.07,4.51,4.51,0,0,1,1.52-1.36,5.76,5.76,0,0,0,1.39-1.11,2.05,2.05,0,0,0,.16-.41,8.41,8.41,0,0,1,.73-1.51,8.6,8.6,0,0,1,1.36-1.71l-.53.24a4.72,4.72,0,0,0-1.13.85c-.32.36-.57.58-.87.94a3.27,3.27,0,0,1-.51.47,2,2,0,0,1-1.52.53h-.1a.89.89,0,0,0,.51,0,6.24,6.24,0,0,0,1.74-1.41,5.07,5.07,0,0,1,1.75-1.4,6.51,6.51,0,0,1,.88-.3,3.58,3.58,0,0,1,1.55-.85Z" transform="translate(-131.36 -46.11)"/><path class="cls-8" d="M313.13,802.83a2.51,2.51,0,0,1,.62,2.65A6,6,0,0,1,310,809a11.93,11.93,0,0,1-3.77.89,22,22,0,0,1-10-2.38c-3.24-1.43-6.35-3.23-9.59-4.67.53-.07,1.08-.15,1.6-.26a25.3,25.3,0,0,0,7.54-3.46,18,18,0,0,1,8-2.89,9.46,9.46,0,0,1,4.69.83,10.66,10.66,0,0,1,4.65,5.65" transform="translate(-131.36 -46.11)"/><path class="cls-12" d="M311.57,801.42a2.54,2.54,0,0,0-1.66-.51h-.37l-.23.19a8,8,0,0,0-1.66,2.95A7.06,7.06,0,0,1,306,807a10.33,10.33,0,0,1-1.89,1.32c.4-.34,1.23-1.11,1.57-1.49a6.2,6.2,0,0,0,1.13-1.88c.24-.76.47-1.21.69-1.89a6,6,0,0,1,.46-1,3.38,3.38,0,0,1,1.26-1.31,13,13,0,0,0-2.56.33A8,8,0,0,0,305,804a7,7,0,0,1-1.7,2.93,12.73,12.73,0,0,1-1.88,1.32c.37-.36,1.2-1.11,1.54-1.49a6,6,0,0,0,1.13-1.88c.25-.73.47-1.19.7-1.88a5.08,5.08,0,0,1,.45-.94,4.29,4.29,0,0,1,.72-.93c-.55.15-1.1.32-1.62.51h0l-1.44.51a10.46,10.46,0,0,0-1.88,1.88,7.52,7.52,0,0,1-2.56,2.23,14.63,14.63,0,0,1-2.17.64c.44-.21,1.45-.66,1.89-.91a6,6,0,0,0,1.67-1.34c.46-.58.81-.92,1.27-1.5a3.37,3.37,0,0,1,.47-.53,16,16,0,0,1-6.59,1.26,31.23,31.23,0,0,1-5-.86c1.16.09,3.71.2,4.8.2a14.93,14.93,0,0,0,2.67-.28,2.14,2.14,0,0,1-.54-.23c-.42-.24-.72-.35-1.15-.58a4,4,0,0,0-1.3-.39h-1.28a5.17,5.17,0,0,1,1.3-.19,4.54,4.54,0,0,1,2.05.68,7,7,0,0,0,1.47.62,9.78,9.78,0,0,0,1.49-.44c1.22-.47,2.16-.75,3.27-1.16h0a4.34,4.34,0,0,1-.86-.36c-.57-.34-1-.49-1.57-.79a4.78,4.78,0,0,0-1.77-.53h-1.75a9.25,9.25,0,0,1,1.89-.26,6.28,6.28,0,0,1,2.78.92,11.48,11.48,0,0,0,1.89.85h.2a10.79,10.79,0,0,1,2.23-.66l1.14-.17h0a5.44,5.44,0,0,1-.79-.49c-.52-.4-.92-.6-1.45-1a5.24,5.24,0,0,0-1.69-.75,16.81,16.81,0,0,0-1.73-.27,7.39,7.39,0,0,1,1.88,0,6.2,6.2,0,0,1,2.64,1.28,8.19,8.19,0,0,0,2.12,1.19,9.73,9.73,0,0,1,1.08,0h0a4.26,4.26,0,0,1,2.29.88Z" transform="translate(-131.36 -46.11)"/><path class="cls-8" d="M335.54,805.92a1.65,1.65,0,0,0-1.26,1.18,3.93,3.93,0,0,0,.81,3.22,6.9,6.9,0,0,0,1.68,1.77,13.8,13.8,0,0,0,6.12,2.3c2.22.38,4.48.49,6.7.87q-.39-.35-.75-.72a15.91,15.91,0,0,1-2.84-4.48,11.32,11.32,0,0,0-3.26-4.33,5.92,5.92,0,0,0-2.77-1.19,6.74,6.74,0,0,0-4.43,1.38" transform="translate(-131.36 -46.11)"/><path class="cls-12" d="M347.63,814.18a18.6,18.6,0,0,1-3.25-1,10.82,10.82,0,0,1-3.77-3.41c-.23-.28-.43-.57-.68-.83a2.35,2.35,0,0,1,0,.53v1.17a4.2,4.2,0,0,0,.32,1.24c.12.26.45.85.6,1.13a7.62,7.62,0,0,1-.8-1.09,4.14,4.14,0,0,1-.42-1.89,6.92,6.92,0,0,0-.19-1.43,10.53,10.53,0,0,0-1.88-1.71,2.51,2.51,0,0,1,.21.77,3.21,3.21,0,0,1,0,.62v1.19a3.59,3.59,0,0,0,.17,1.26c.09.28.35.9.49,1.19a6.25,6.25,0,0,1-.68-1.17,4.34,4.34,0,0,1-.21-2,4.56,4.56,0,0,0-.15-2l-.64-.36a1.64,1.64,0,0,0-1.17-.17l.23-.09a2.79,2.79,0,0,1,1.88.24,4.68,4.68,0,0,0,1.17-.24,3.68,3.68,0,0,1,1.71-.19,6.63,6.63,0,0,1,1.09.36,6.88,6.88,0,0,0-1.07-.19,3.33,3.33,0,0,0-1.09.09,7.56,7.56,0,0,0-1,.27l-.49.09a6.22,6.22,0,0,1,1.15.83l.2.17a6.05,6.05,0,0,0,1.7,0,4.15,4.15,0,0,1,2,.17,6.66,6.66,0,0,1,1.19.68,12.5,12.5,0,0,0-1.2-.48,3.89,3.89,0,0,0-1.27-.16h-2.12a4.65,4.65,0,0,1,.58.67c.41.57.77,1,1.15,1.43a6,6,0,0,0,1.34.12,4.42,4.42,0,0,1,2,.41,6.48,6.48,0,0,1,1.09.77c-.26-.15-.86-.47-1.13-.58a3.87,3.87,0,0,0-1.26-.3h-1.16a2.91,2.91,0,0,1-.59,0l.45.56a9.75,9.75,0,0,0,2.49,2.08A21.78,21.78,0,0,0,347.63,814.18Z" transform="translate(-131.36 -46.11)"/><path class="cls-13" d="M329.16,803.73a3.52,3.52,0,0,0-2.69,1.51,6.45,6.45,0,0,0-1,5.29,8.85,8.85,0,0,0,1.28,3.28,16.11,16.11,0,0,0,7.53,5.4c3.07,1.26,6.37,2.11,9.42,3.37-.23-.45-.45-.88-.64-1.33a21.19,21.19,0,0,1-1.17-7.89A14.9,14.9,0,0,0,340,805.6a6.92,6.92,0,0,0-3.34-2.7,11.64,11.64,0,0,0-7.53.83" transform="translate(-131.36 -46.11)"/><path class="cls-12" d="M337.62,816.18c.6.75,2.16,2.41,2.9,3.16a25.15,25.15,0,0,1-3.62-2.9,10.51,10.51,0,0,1-1.77-2.52v.17c-.13.45-.17.77-.28,1.22a3.56,3.56,0,0,0,0,1.38,12.26,12.26,0,0,0,.28,1.34,7.36,7.36,0,0,1-.49-1.36,4.44,4.44,0,0,1,.15-2.17c.09-.34.17-.68.23-1-.46-1-.81-1.94-1.17-2.9l-.28-.79a3.21,3.21,0,0,1-.21.75,4.06,4.06,0,0,1-.38.75c-.34.49-.51.85-.83,1.34a5.15,5.15,0,0,0-.58,1.62,13.19,13.19,0,0,0-.19,1.7,9.94,9.94,0,0,1,0-1.89,5.6,5.6,0,0,1,1-2.5,6.51,6.51,0,0,0,1.05-2.34,20.17,20.17,0,0,0-1.6-3.35,2.93,2.93,0,0,1-.39,1.32,4.29,4.29,0,0,1-.49.69c-.38.44-.6.78-1,1.23a5.25,5.25,0,0,0-.79,1.52c-.12.38-.3,1.27-.4,1.68a11.84,11.84,0,0,1,.17-1.88,5.53,5.53,0,0,1,1.34-2.38,6.1,6.1,0,0,0,1.34-2.31v-.13a11.68,11.68,0,0,0-.87-1.1,2.46,2.46,0,0,0-1.3-.86h.3a4.59,4.59,0,0,1,2.37,1.58,6.85,6.85,0,0,0,2.38.28,6.05,6.05,0,0,1,2.69.47,8.82,8.82,0,0,1,1.49,1c-.38-.19-1.17-.6-1.55-.73a4.81,4.81,0,0,0-1.67-.36h-1.58a3.84,3.84,0,0,1-.83,0,3.06,3.06,0,0,1-.59-.17c.3.43.7,1,.83,1.3s.27.49.38.75a6.51,6.51,0,0,0,2.41.62,5.68,5.68,0,0,1,2.6.79,9.14,9.14,0,0,1,1.37,1.19c-.35-.24-1.09-.75-1.45-.94a5.09,5.09,0,0,0-1.62-.55c-.58,0-1-.2-1.56-.2a4.7,4.7,0,0,1-.83-.17,3.94,3.94,0,0,1-.73-.32,2.46,2.46,0,0,1,.26.71c.3,1,.62,1.72.92,2.56a9.5,9.5,0,0,0,1.89.4,5.4,5.4,0,0,1,2.43.75,10.38,10.38,0,0,1,1.26,1.13c-.32-.22-1-.71-1.34-.88a4.37,4.37,0,0,0-1.52-.53,8.93,8.93,0,0,0-1.45-.23,3.39,3.39,0,0,1-.78-.17l-.24-.09.22.64a10.45,10.45,0,0,0,.89,1.88,5.59,5.59,0,0,0,1.77.72,4.5,4.5,0,0,1,1.88.9,7.36,7.36,0,0,1,.93,1.08c-.23-.23-.76-.7-1-.89a3.91,3.91,0,0,0-1.21-.6c-.45-.13-.73-.25-1.18-.34A2.85,2.85,0,0,1,337,815a1.37,1.37,0,0,1-.32-.16A15.93,15.93,0,0,0,337.62,816.18Z" transform="translate(-131.36 -46.11)"/><path class="cls-8" d="M323.3,803a4.32,4.32,0,0,1,3.77.77,8.12,8.12,0,0,1,3.14,5.86,11.41,11.41,0,0,1-.32,4.31,19.59,19.59,0,0,1-6.85,9.15c-3.15,2.6-6.69,4.82-9.81,7.42a12.25,12.25,0,0,0,.26-1.88,26.27,26.27,0,0,0-1.54-9.7,18.2,18.2,0,0,1-.62-9.81,8.33,8.33,0,0,1,2.91-4.39,14.34,14.34,0,0,1,9.12-1.88" transform="translate(-131.36 -46.11)"/><path class="cls-12" d="M326.45,813.41c-.17-.56-.59-1.77-.79-2.26a7.26,7.26,0,0,0-1.34-2c-.58-.57-.94-1-1.54-1.57a5.15,5.15,0,0,1-.78-.9,3.8,3.8,0,0,1-.75-2,13.43,13.43,0,0,0-1.07,3.77h0a9.31,9.31,0,0,0,2.48,3.35,9,9,0,0,1,2.34,3.52,15.87,15.87,0,0,1,.53,2.73c-.19-.6-.63-1.94-.87-2.48a7.83,7.83,0,0,0-1.23-2.34c-.64-.64-1-1.11-1.69-1.71a6.12,6.12,0,0,1-.83-1,5.07,5.07,0,0,1-.7-1.32c-.09,1-.18,1.94-.18,2.9h0v.81a7.67,7.67,0,0,0,1.39,2.71,6.86,6.86,0,0,1,1.39,2.87,10.63,10.63,0,0,1,0,2.11c-.05-.38-.22-1.44-.32-1.89a6.26,6.26,0,0,0-.81-1.88c-.41-.55-.64-1-1.05-1.51a4.83,4.83,0,0,1-.51-.84L320,814a6.37,6.37,0,0,0-.09,1.3h0c-.07.75-.18,1.49-.32,2.22.09.54.21,1.07.35,1.59a6.65,6.65,0,0,1,.34,3.16,11.13,11.13,0,0,1-.67,2c.14-.63.26-1.25.35-1.89a5.68,5.68,0,0,0-.13-2c-.19-.66-.26-1.13-.47-1.77h0a12.23,12.23,0,0,1-.83,2.18,35.3,35.3,0,0,1-3,4.75c.6-1.15,1.8-3.67,2.24-4.8a17,17,0,0,0,1.13-5.11v-1.3h-.1a3.64,3.64,0,0,1-.81.47c-.6.27-1,.51-1.56.79a5,5,0,0,0-1.45,1.12c-.28.3-.83,1-1.07,1.37a7.71,7.71,0,0,1,.84-1.58,6.58,6.58,0,0,1,2.4-1.7,11.07,11.07,0,0,0,1.77-1,24.69,24.69,0,0,0,.11-2.89v-1a3,3,0,0,1-1,.6,3.85,3.85,0,0,1-.88.25c-.66.09-1.08.22-1.72.33a5.23,5.23,0,0,0-1.71.7,16.88,16.88,0,0,0-1.4,1,8.54,8.54,0,0,1,1.25-1.3,6.44,6.44,0,0,1,2.75-1,6.69,6.69,0,0,0,2.78-1h0a8.87,8.87,0,0,0,.19-1.17,13.31,13.31,0,0,1,.83-2.62,4.19,4.19,0,0,1-.71.34,3.47,3.47,0,0,1-.89.25c-.66.09-1.07.22-1.71.34a5.36,5.36,0,0,0-1.72.69c-.48.33-.94.68-1.39,1.06a7.64,7.64,0,0,1,1.24-1.3,6.21,6.21,0,0,1,2.75-1,7,7,0,0,0,2.7-.88,4.81,4.81,0,0,1,1.88-2l.34-.17a2.76,2.76,0,0,0-1.11,1.3.9.9,0,0,0,0,.4,8.54,8.54,0,0,0,2.24,3.05,7.81,7.81,0,0,1,2.22,3.07A13.57,13.57,0,0,1,326.45,813.41Z" transform="translate(-131.36 -46.11)"/><path class="cls-13" d="M329.29,802.06a3.14,3.14,0,0,0,2,1.78,5.76,5.76,0,0,0,4.73-.75,8,8,0,0,0,2.34-2.07,14.2,14.2,0,0,0,2.24-7.91c.15-2.92-.13-5.93,0-8.85-.3.32-.6.64-.92.94a18.86,18.86,0,0,1-6.18,3.35,12.86,12.86,0,0,0-5.88,3.92,5.8,5.8,0,0,0-1.24,3.58,10.3,10.3,0,0,0,2.94,6" transform="translate(-131.36 -46.11)"/><path class="cls-12" d="M337.18,791.19c.47-.75,1.38-2.54,1.79-3.39a24.54,24.54,0,0,1-1.43,3.77,9.18,9.18,0,0,1-1.58,2.24h.15a3.5,3.5,0,0,1,1.11-.12,3.48,3.48,0,0,0,1.17-.37c.24-.12.79-.47,1-.62a7,7,0,0,1-1,.81,3.92,3.92,0,0,1-1.89.5l-.92.14a25.67,25.67,0,0,1-2.07,1.88l-.57.47h.68a3.14,3.14,0,0,1,.75,0c.49.13.85.17,1.36.28a4.37,4.37,0,0,0,1.53,0,14.21,14.21,0,0,0,1.46-.37,7.29,7.29,0,0,1-1.48.6,5,5,0,0,1-2.39-.1,6,6,0,0,0-2.26-.17,15.69,15.69,0,0,0-2.3,2.38,2.44,2.44,0,0,1,1.2,0,2.37,2.37,0,0,1,.74.19c.47.18.83.26,1.32.43a4.23,4.23,0,0,0,1.5.21c.34,0,1.15-.17,1.51-.17a9.07,9.07,0,0,1-1.55.41,5.22,5.22,0,0,1-2.37-.41,5.52,5.52,0,0,0-2.37-.44h.11a10.15,10.15,0,0,0-.66,1,2.39,2.39,0,0,0-.32,1.36v-.27a3.93,3.93,0,0,1,.61-2.45,6.71,6.71,0,0,0-.48-2.07,5.08,5.08,0,0,1-.43-2.37,9.15,9.15,0,0,1,.4-1.56,12.82,12.82,0,0,0-.15,1.52,4.55,4.55,0,0,0,.2,1.51c.19.47.27.83.47,1.3a4.61,4.61,0,0,1,.19.73,4.69,4.69,0,0,1,0,.53c.27-.38.55-.75.83-1.09a6.63,6.63,0,0,1,.53-.53,6.27,6.27,0,0,0-.21-2.2,4.81,4.81,0,0,1-.13-2.41,7.09,7.09,0,0,1,.58-1.49,7.63,7.63,0,0,0-.35,1.49,4.31,4.31,0,0,0,0,1.52c.11.49.15.85.3,1.36a4.45,4.45,0,0,1,0,.73,4.33,4.33,0,0,1,0,.72c.16-.16.33-.3.5-.44.76-.54,1.29-1,1.89-1.54a8.66,8.66,0,0,0-.21-1.6,4.55,4.55,0,0,1-.09-2.26,7.62,7.62,0,0,1,.56-1.39c-.14.45-.26.92-.36,1.39a4.17,4.17,0,0,0,0,1.41c.12.47.14.81.27,1.28a2.73,2.73,0,0,1,0,.7,1,1,0,0,1,0,.24,4.25,4.25,0,0,1,.47-.37,13.5,13.5,0,0,0,1.3-1.32,5.26,5.26,0,0,0,0-1.68,3.65,3.65,0,0,1,.17-1.88,5.11,5.11,0,0,1,.62-1.09,4.47,4.47,0,0,0-.43,1.11,2.88,2.88,0,0,0-.15,1.17v1.09q0,.3,0,.6v.3C336.64,792,336.92,791.62,337.18,791.19Z" transform="translate(-131.36 -46.11)"/><path class="cls-8" d="M324.66,803.15a3.78,3.78,0,0,1-2.07,2.54,7,7,0,0,1-5.75,0,9.92,9.92,0,0,1-3.2-2,16.94,16.94,0,0,1-4.25-8.92c-.74-3.45-1-7.07-1.76-10.49.42.32.83.64,1.27.92a22.92,22.92,0,0,0,8.08,2.71,15.67,15.67,0,0,1,7.75,3.47,7.07,7.07,0,0,1,2.21,4,12.44,12.44,0,0,1-2.28,7.7" transform="translate(-131.36 -46.11)"/><path class="cls-12" d="M313.25,792c-.68-.79-2.13-2.73-2.79-3.63a29.41,29.41,0,0,0,2.47,4.18,11,11,0,0,0,2.31,2.31H314a4.2,4.2,0,0,1-1.45-.19l-1.36-.54a8.46,8.46,0,0,0,1.34.77,4.84,4.84,0,0,0,2.3.23H316c.94.64,1.86,1.2,2.82,1.75l.76.43a3.59,3.59,0,0,0-.81.1,2.92,2.92,0,0,0-.87.26c-.57.24-1,.36-1.56.6a5.82,5.82,0,0,1-1.89.32c-.49,0-1.45-.13-1.88-.13a10,10,0,0,0,1.88.41,6.16,6.16,0,0,0,2.83-.62,7.26,7.26,0,0,1,2.63-.64,17.73,17.73,0,0,1,3.21,2.3,3.07,3.07,0,0,0-1.44.17,4.34,4.34,0,0,0-.82.38c-.53.32-.93.49-1.47.79a5.39,5.39,0,0,1-1.75.54,12.17,12.17,0,0,1-1.89.1,9.92,9.92,0,0,0,1.89.17,6.22,6.22,0,0,0,2.73-1,6.73,6.73,0,0,1,2.73-1h.13c.34.35.67.72,1,1.11a2.68,2.68,0,0,1,.66,1.54v-.34a4.67,4.67,0,0,0-1.19-3.08,8.54,8.54,0,0,1,.15-2.57,5.93,5.93,0,0,0,0-2.9,8.86,8.86,0,0,0-.79-1.75,7.87,7.87,0,0,1,.51,1.75,5.45,5.45,0,0,1,0,1.89c-.11.62-.15,1-.28,1.66a4.31,4.31,0,0,0,0,.88,3.64,3.64,0,0,0,0,.66c-.4-.41-.81-.79-1.21-1.13l-.71-.55a7.3,7.3,0,0,1-.21-2.63,6.25,6.25,0,0,0-.32-2.88,10.12,10.12,0,0,0-1-1.64c.19.39.58,1.28.72,1.67a5.76,5.76,0,0,1,.26,1.89v1.67a4.61,4.61,0,0,0,0,.91,3.8,3.8,0,0,0,.21.82l-.72-.41c-1-.51-1.68-1-2.5-1.45a8.44,8.44,0,0,1,0-1.88,5.78,5.78,0,0,0-.34-2.7,10.57,10.57,0,0,0-.94-1.54c.17.38.54,1.21.67,1.58a5.05,5.05,0,0,1,.27,1.68v1.58a3.84,3.84,0,0,0,0,.83,1.31,1.31,0,0,0,0,.28l-.61-.36a9.91,9.91,0,0,1-1.88-1.28,5.48,5.48,0,0,1-.43-1.88,4.82,4.82,0,0,0-.59-2.2,6.37,6.37,0,0,0-1-1.17,11.65,11.65,0,0,1,.74,1.22,3.93,3.93,0,0,1,.41,1.38,4.49,4.49,0,0,1,.13,1.3,4,4,0,0,0,.14.69,1.4,1.4,0,0,0,.13.36A16.66,16.66,0,0,1,313.25,792Z" transform="translate(-131.36 -46.11)"/><path class="cls-8" d="M325.79,799.51a2.17,2.17,0,0,0-.92,2.13,5.16,5.16,0,0,0,2.65,3.56,10.15,10.15,0,0,0,3,1.3,18.3,18.3,0,0,0,8.73-.38c2.94-.69,5.79-1.73,8.72-2.44-.43-.14-.88-.29-1.3-.46a21.81,21.81,0,0,1-5.83-4.06,15.43,15.43,0,0,0-6.28-3.62,7.9,7.9,0,0,0-4,0,9,9,0,0,0-4.73,4" transform="translate(-131.36 -46.11)"/><path class="cls-12" d="M344.85,803.6a24.78,24.78,0,0,1-4.54.45,14.62,14.62,0,0,1-6.52-2.22l-1.24-.66a3,3,0,0,1,.34.6c.22.55.45.89.7,1.42a5.08,5.08,0,0,0,1,1.37c.28.26,1,.81,1.34,1.06a10.09,10.09,0,0,1-1.56-.91,5.53,5.53,0,0,1-1.57-2.22,8.33,8.33,0,0,0-1-1.66,13.91,13.91,0,0,0-3.18-1.15,3.31,3.31,0,0,1,.66.83,4.59,4.59,0,0,1,.34.79c.17.55.34.93.52,1.47a5.3,5.3,0,0,0,.87,1.49c.26.3.9.92,1.21,1.2a7.58,7.58,0,0,1-1.44-1.09,5.5,5.5,0,0,1-1.29-2.37,6.07,6.07,0,0,0-1.27-2.39,7.41,7.41,0,0,0-1-.12,2.23,2.23,0,0,0-1.54.4l.24-.23a3.76,3.76,0,0,1,2.47-.69,8.59,8.59,0,0,0,1.32-.91,4.9,4.9,0,0,1,2-1.13,8.78,8.78,0,0,1,1.53-.13c-.36.08-1.09.23-1.41.32a4.25,4.25,0,0,0-1.3.68c-.38.32-.68.51-1,.83a3,3,0,0,1-.56.37,10,10,0,0,1,1.88.42l.34.11a7.67,7.67,0,0,0,2.11-.83,6.12,6.12,0,0,1,2.6-.83,9.93,9.93,0,0,1,1.88.21h-1.71a5,5,0,0,0-1.66.47c-.51.27-.89.42-1.39.7a4.49,4.49,0,0,1-.78.34l-.43.09a7.42,7.42,0,0,1,1.09.55c.79.47,1.45.79,2.15,1.15a11,11,0,0,0,1.71-.55,5.67,5.67,0,0,1,2.66-.54,7.67,7.67,0,0,1,1.77.39,7.72,7.72,0,0,0-1.71-.13,5.46,5.46,0,0,0-1.7.28c-.53.23-.92.32-1.47.57a4.63,4.63,0,0,1-.75.22l.86.47a13.15,13.15,0,0,0,4.15,1.27C341.61,803.47,343.92,803.54,344.85,803.6Z" transform="translate(-131.36 -46.11)"/><path class="cls-13" d="M323.68,800.91a1.62,1.62,0,0,1,1.24,1.28,4.05,4.05,0,0,1-1,3.26,8.36,8.36,0,0,1-1.88,1.73,14.35,14.35,0,0,1-6.37,2c-2.29.27-4.61.28-6.91.55.27-.23.55-.43.81-.68a16.36,16.36,0,0,0,3.05-4.46,11.79,11.79,0,0,1,3.54-4.26,6.09,6.09,0,0,1,2.9-1.07,6.78,6.78,0,0,1,4.45,1.62" transform="translate(-131.36 -46.11)"/><path class="cls-12" d="M310.82,808.93a17.08,17.08,0,0,0,3.37-.89,10.82,10.82,0,0,0,4-3.48l.74-.81a3.33,3.33,0,0,0-.1.55c0,.43-.11.73-.11,1.18a3.71,3.71,0,0,1-.4,1.26,11.43,11.43,0,0,1-.67,1.12,8.12,8.12,0,0,0,.88-1.06,4.31,4.31,0,0,0,.53-2,7.87,7.87,0,0,1,.26-1.45,10.15,10.15,0,0,1,2-1.66,2.32,2.32,0,0,0-.25.77,3.42,3.42,0,0,0,0,.64v1.21a3.63,3.63,0,0,1-.22,1.3c-.11.28-.4.9-.55,1.18a8,8,0,0,0,.76-1.16,4.83,4.83,0,0,0,.3-2.06,4.34,4.34,0,0,1,.26-2l.66-.32a1.57,1.57,0,0,1,1.2-.13h-.22a2.77,2.77,0,0,0-1.88.15,5.93,5.93,0,0,1-1.19-.3,3.81,3.81,0,0,0-1.73-.29,5,5,0,0,0-1.15.32l1.11-.15a3.49,3.49,0,0,1,1.11.14l1,.32a2.72,2.72,0,0,0,.51.13,8,8,0,0,0-1.23.79l-.2.17a6.34,6.34,0,0,1-1.74,0,4.62,4.62,0,0,0-2.09.09,8.23,8.23,0,0,0-1.22.62,11.24,11.24,0,0,1,1.24-.41,3.38,3.38,0,0,1,1.3-.11,10,10,0,0,0,1.21.15,3.42,3.42,0,0,0,.64,0h.34a4.13,4.13,0,0,0-.64.68c-.45.54-.85,1-1.25,1.39a7.84,7.84,0,0,1-1.37,0,4.21,4.21,0,0,0-2.05.3,6.47,6.47,0,0,0-1.17.75,11.67,11.67,0,0,1,1.19-.54,3.37,3.37,0,0,1,1.29-.25H317l-.49.55a9.63,9.63,0,0,1-2.65,2C313.19,807.91,311.48,808.57,310.82,808.93Z" transform="translate(-131.36 -46.11)"/><path class="cls-11" d="M323.13,756.82a1.51,1.51,0,0,0,.89-1.88,37.76,37.76,0,0,1-2.58-10.4,14.75,14.75,0,0,1,2.26-9.6,1.54,1.54,0,1,0-2.43-1.89,17.63,17.63,0,0,0-2.84,11.6,40.38,40.38,0,0,0,2.76,11.3,1.53,1.53,0,0,0,1.42,1A1.31,1.31,0,0,0,323.13,756.82Z" transform="translate(-131.36 -46.11)"/><rect class="cls-2" x="67.8" y="754.59" width="57.95" height="207.22"/><path class="cls-4" d="M272.57,783.71a1,1,0,0,0-.77-1.62H199.16v19h59.31Z" transform="translate(-131.36 -46.11)"/><path class="cls-4" d="M199.16,808.66v-8H259a3,3,0,0,1,3,3.09v2a3,3,0,0,1-3,3h-59.8Z" transform="translate(-131.36 -46.11)"/><g class="cls-18"><path class="cls-6" d="M131.42,790.64a10.66,10.66,0,0,1,8.81,4.65A10.88,10.88,0,0,1,143,792.5a10.67,10.67,0,0,1,14.84,2.79,10.63,10.63,0,0,1,.77-1,10.69,10.69,0,0,1,16.86,1,9.18,9.18,0,0,1,.77-1,10.64,10.64,0,0,1,10.06-3.43h.19c.3.06.6.14.9.23h.13A10.64,10.64,0,0,1,191,793h.09c.23.21.45.4.66.62l.13.14a6.27,6.27,0,0,1,.6.66h0a6.78,6.78,0,0,1,.53.67,10.89,10.89,0,0,1,2.75-2.75,10.71,10.71,0,0,1,14.88,2.75,10.7,10.7,0,0,1,17.63,0,10.69,10.69,0,0,1,17.62,0,10.84,10.84,0,0,1,2.79-2.78,10.68,10.68,0,0,1,14.84,2.78,10.68,10.68,0,0,1,8.81-4.65v10.7h-141Z" transform="translate(-131.36 -46.11)"/></g><path class="cls-4" d="M199.22,956.46V840.66h9.41a28.81,28.81,0,0,1,28.82,28.81v87H199.22Z" transform="translate(-131.36 -46.11)"/><path class="cls-6" d="M199.14,948.55V846h8a24.22,24.22,0,0,1,24.22,24.21v78.33H199.14Z" transform="translate(-131.36 -46.11)"/><path class="cls-2" d="M199.16,1016.59H257v7.7h8s-6.34,5.52-8,19.63v50.45H199.16Z" transform="translate(-131.36 -46.11)"/><path class="cls-3" d="M199.16,1004h22.73s45.71-1.29,46.84-13.93,14.9-13.6,14.9-13.6,15.76-3.31,17.74,11.87S291,1004,291,1004h-.85a7.42,7.42,0,0,1-4.74-13.18c-4.17.71-10.85,3.76-5,16.63,8.14,17.79-11.92,17.32-11.92,17.32H199.16Z" transform="translate(-131.36 -46.11)"/><rect class="cls-2" x="67.8" y="1066.1" width="57.95" height="207.22"/><path class="cls-4" d="M272.57,1095.22a1,1,0,0,0-.77-1.62H199.16v19.06h59.31Z" transform="translate(-131.36 -46.11)"/><path class="cls-4" d="M199.16,1120.23v-8H259a3,3,0,0,1,3,3v2a3,3,0,0,1-3,3h-59.8Z" transform="translate(-131.36 -46.11)"/><g class="cls-19"><path class="cls-6" d="M131.36,1102.15a10.72,10.72,0,0,1,8.82,4.63,10.58,10.58,0,0,1,2.75-2.75,10.7,10.7,0,0,1,14.88,2.75,7.39,7.39,0,0,1,.77-1,10.66,10.66,0,0,1,16.85,1,8.31,8.31,0,0,1,.77-1,10.65,10.65,0,0,1,8.05-3.65,9.76,9.76,0,0,1,2,.23h.19l.9.24h.14a11.09,11.09,0,0,1,3.48,1.88h.09l.72.61.13.15a6.27,6.27,0,0,1,.6.66h0a4.22,4.22,0,0,1,.53.67,10.7,10.7,0,0,1,17.63,0,10.7,10.7,0,0,1,17.63,0,10.69,10.69,0,0,1,17.62,0,10.71,10.71,0,0,1,17.63,0,10.68,10.68,0,0,1,8.81-4.63v10.7h-141Z" transform="translate(-131.36 -46.11)"/></g><path class="cls-4" d="M199.22,1268v-115.8h9.41A28.81,28.81,0,0,1,237.45,1181v87H199.22Z" transform="translate(-131.36 -46.11)"/><path class="cls-6" d="M199.14,1260.08V1157.54h8a24.22,24.22,0,0,1,24.22,24.21v78.33H199.14Z" transform="translate(-131.36 -46.11)"/><path class="cls-9" d="M227.13,955.42c7.61-17.06-3.88-17.85-3.88-17.85C213.66,943.26,227.13,955.42,227.13,955.42Z" transform="translate(-131.36 -46.11)"/><path class="cls-8" d="M282.74,934.73c-.3-2.68-2.16-6.41-5.5-5.65a4.34,4.34,0,0,0-3.11,3.1,6.35,6.35,0,0,0,1,4.9c.74,1.21,2.66.08,1.89-1.13a4,4,0,0,1-.74-3.31,1.89,1.89,0,0,1,1.88-1.44c.91,0,1.55,1.1,1.89,1.89a7.33,7.33,0,0,1-1.4,7.55,4.53,4.53,0,0,1-5,.77c-4.71-2.07-6.12-8-6.59-12.56-.55-5.16-.08-10.38-.74-15.54a30.53,30.53,0,0,0-1.47-6.32,101.11,101.11,0,0,0-1.65-19.19c2-5.45,3.44-11.3.79-16.95s-8.93-8.69-14.34-11.3l-.6-.29a118.91,118.91,0,0,0-20.13-20.9,50.8,50.8,0,0,0,13-4.26,75.21,75.21,0,0,0,7-4c4.88-3.11,9.42-5.69,9.42-11.55a13.79,13.79,0,0,0-.23-2.48c-.24-1.32-.45-.72-.45-.72a32.65,32.65,0,0,1-21.94,12.81,63.83,63.83,0,0,1-18.61.79l-1.28-.21a218,218,0,0,0-27-14.56v20.31s18-4.15,41.92,21.62a13.24,13.24,0,0,1-.22,5.46c-.49,2-1.51,4.65-3.47,5.52s-4.16-.81-4.91-2.6a2.77,2.77,0,0,1,.26-2.83.9.9,0,0,1,1.09-.34.74.74,0,0,1,.29.78.87.87,0,0,0,.32,1.16.86.86,0,0,0,1.16-.3,1.66,1.66,0,0,0,.14-.37,2.4,2.4,0,0,0-1.64-3,3,3,0,0,0-3.37,2.09c-1.06,2.77,1.13,5.84,3.61,6.93a4.64,4.64,0,0,0,4.24-.28A7.69,7.69,0,0,0,231.1,865a16.24,16.24,0,0,0,1.51-6.78c1.71,1.94,3.46,4,5.22,6.29a91.84,91.84,0,0,1,15.68,31.84,31.05,31.05,0,0,1-9.28,15.52c-12.85,12.36-33,20-45.2,32.71-9.23,9.61-13,21.81-10.13,32.73a16.63,16.63,0,0,0,8,11c-2.31-6.72-4.27-13.88-1.75-20.88a27.58,27.58,0,0,1,5.09-8.38,19.49,19.49,0,0,0,2.65,14,15.52,15.52,0,0,0,6.2,5.44,16.89,16.89,0,0,0,9.07,1.88,9.77,9.77,0,0,0,6.9-4.1,10.07,10.07,0,0,0,1.54-7.8,9.74,9.74,0,0,0-5.65-7.15l-.08,0a5.66,5.66,0,0,0-7.34,3.16,1.27,1.27,0,0,0,2.45.68l0-.07a3.21,3.21,0,0,1,4.39-1.14,7.58,7.58,0,0,1,3.76,5.13,6.6,6.6,0,0,1,.15.87,7.33,7.33,0,0,1-6.55,8,14.58,14.58,0,0,1-7.23-1.56,13.07,13.07,0,0,1-5.14-4.5,17.15,17.15,0,0,1-2.47-13.18,26,26,0,0,1,1-3.77q2-1.87,4.18-3.77a180.84,180.84,0,0,1,20-15.06c6.74-4.43,14.06-8.42,19.71-13.69a54.71,54.71,0,0,0,9-10.72,137,137,0,0,1,.65,35.56,119.5,119.5,0,0,0,6.84-30.44,119.91,119.91,0,0,0,.81,14.92,19.16,19.16,0,0,0,3.11,8,10,10,0,0,0,6.72,4.39C280.1,944.69,283.17,939.38,282.74,934.73Zm-20.07-54.88a22.71,22.71,0,0,1-.74,3.65A89.29,89.29,0,0,0,252,863.56c1.11.6,2.2,1.2,3.26,1.88a17.24,17.24,0,0,1,5.81,5.52A14.09,14.09,0,0,1,262.67,879.85Z" transform="translate(-131.36 -46.11)"/><path class="cls-9" d="M269,841.64c-10.27-21.83-20.72-10.83-20.72-10.83C245.68,845.25,268.92,841.64,269,841.64Z" transform="translate(-131.36 -46.11)"/><path class="cls-9" d="M236.43,806.27c-16.21,17.83-2.05,23.26-2.05,23.26C248.64,826.33,236.26,806.27,236.43,806.27Z" transform="translate(-131.36 -46.11)"/><path class="cls-9" d="M284.89,911.39c-10.27-21.82-20.72-10.83-20.72-10.83C261.61,915,284.85,911.39,284.89,911.39Z" transform="translate(-131.36 -46.11)"/><path class="cls-9" d="M217.07,905.38c5.46,23.26,17.76,15.17,17.76,15.17C240.22,907.31,217.07,905.38,217.07,905.38Z" transform="translate(-131.36 -46.11)"/><path class="cls-9" d="M244.68,939.32c8.15-12.3-.45-14.56-.45-14.56C236.13,927.87,244.68,939.32,244.68,939.32Z" transform="translate(-131.36 -46.11)"/><path class="cls-8" d="M248.84,1068.8c-2.43,1.24-4.91,2.43-7.53,3.48a72.63,72.63,0,0,1-17.27,4.5h0s-18.38,4.65-34.09.62l1.25-11.3v-3.76s1.46.56,3.89,1.35l-.24-.17.39.21c6.6,2.15,19.89,5.93,29.59,5.16h0c3.2-.3,6.33-.73,9.42-1.22,9.68-1.6,18.13-5.28,23.48-11.3,0,0,.19-.49.55.54a8.07,8.07,0,0,1,.41,1.89C259.05,1063.48,254.19,1065.76,248.84,1068.8Z" transform="translate(-131.36 -46.11)"/><path class="cls-9" d="M239.78,1049.51c-6,16.25,4.92,16,4.92,16C253.36,1059.57,239.78,1049.51,239.78,1049.51Z" transform="translate(-131.36 -46.11)"/><path class="cls-9" d="M272.67,1058.81c-16.61-4.91-15.69,5.94-15.69,5.94C263.51,1073,272.67,1058.81,272.67,1058.81Z" transform="translate(-131.36 -46.11)"/><path class="cls-9" d="M247.67,1085.46c-6.3-20-16.61-11.75-16.61-11.75C227.17,1085.9,247.67,1085.46,247.67,1085.46Z" transform="translate(-131.36 -46.11)"/><path class="cls-9" d="M226.66,1267c7.61-17.06-3.88-17.85-3.88-17.85C213.15,1254.79,226.66,1267,226.66,1267Z" transform="translate(-131.36 -46.11)"/><path class="cls-8" d="M282.27,1246.22c-.32-2.69-2.17-6.41-5.52-5.65a4.4,4.4,0,0,0-3.11,3.11,6.33,6.33,0,0,0,1,4.87c.74,1.21,2.68.1,1.89-1.11a4,4,0,0,1-.72-3.33,1.88,1.88,0,0,1,1.88-1.41c.93,0,1.57,1.09,1.89,1.88a7.09,7.09,0,0,1,.51,2.77,6.9,6.9,0,0,1-1.89,4.78,4.47,4.47,0,0,1-5,.75c-4.72-2.05-6.14-8-6.61-12.56-.52-5.16-.07-10.37-.73-15.51a29.25,29.25,0,0,0-1.47-6.33,97.46,97.46,0,0,0-1.66-19.21c2-5.44,3.45-11.3.79-17s-8.92-8.7-14.33-11.3l-.6-.28a118.51,118.51,0,0,0-20.11-20.91,52.3,52.3,0,0,0,13-4.25,70.19,70.19,0,0,0,7-4c4.88-3.09,9.42-5.67,9.42-11.52a13.83,13.83,0,0,0-.25-2.49c-.24-1.32-.43-.71-.43-.71a32.55,32.55,0,0,1-21.94,12.78,63.49,63.49,0,0,1-18.61.81l-1.28-.2a220.52,220.52,0,0,0-26.95-14.52v20.17s18-4.09,41.9,21.63a13.85,13.85,0,0,1-.2,5.48c-.51,2-1.53,4.62-3.49,5.5s-4.16-.79-4.89-2.58a2.69,2.69,0,0,1,.26-2.82.85.85,0,0,1,1.07-.34.67.67,0,0,1,.3.77.87.87,0,0,0,.31,1.17h0a.84.84,0,0,0,1.16-.3,1.49,1.49,0,0,0,.15-.4,2.37,2.37,0,0,0-1.63-3,3,3,0,0,0-3.34,2.11c-1.05,2.74,1.11,5.83,3.6,6.91a4.55,4.55,0,0,0,4.24-.29,7.45,7.45,0,0,0,2.86-3.25,16.25,16.25,0,0,0,1.52-6.78c1.72,1.94,3.45,4,5.22,6.27A92,92,0,0,1,253,1207.82a31,31,0,0,1-9.31,15.52c-12.82,12.35-33,20-45.2,32.71-9.21,9.58-13,21.79-10.11,32.73a16.68,16.68,0,0,0,8,11c-2.3-6.74-4.26-13.88-1.76-20.89a27.76,27.76,0,0,1,5.11-8.38,19.51,19.51,0,0,0,2.63,14,15.63,15.63,0,0,0,6.22,5.46,16.91,16.91,0,0,0,9.08,1.88,9.76,9.76,0,0,0,6.89-4.09,10,10,0,0,0,1.52-7.79,9.83,9.83,0,0,0-5.64-7.18h0a5.65,5.65,0,0,0-7.38,3.08h0a1.27,1.27,0,0,0,2.45.68h0a3.24,3.24,0,0,1,4.42-1.22,7.52,7.52,0,0,1,3.76,5.13,6.5,6.5,0,0,1,.15.9,7.31,7.31,0,0,1-6.55,8,14.85,14.85,0,0,1-7.23-1.56,13.16,13.16,0,0,1-5.18-4.26,17.13,17.13,0,0,1-2.47-13.18,25.65,25.65,0,0,1,1.08-3.76c1.33-1.25,2.75-2.53,4.18-3.77a180.58,180.58,0,0,1,20-15.07c6.76-4.42,14.09-8.42,19.74-13.69a55.5,55.5,0,0,0,9-10.71,136.5,136.5,0,0,1,.68,35.55,119.77,119.77,0,0,0,6.87-30.47,124,124,0,0,0,.83,14.92,19.26,19.26,0,0,0,3.09,8,10,10,0,0,0,6.76,4.31C279.58,1256.22,282.72,1250.91,282.27,1246.22Zm-20.06-54.86a25.36,25.36,0,0,1-.73,3.65,90.22,90.22,0,0,0-10-19.94c1.11.6,2.2,1.22,3.25,1.88a17.2,17.2,0,0,1,5.84,5.54A14.11,14.11,0,0,1,262.21,1191.36Z" transform="translate(-131.36 -46.11)"/><path class="cls-9" d="M268.48,1153.15c-10.26-21.81-20.71-10.83-20.71-10.83C245.21,1156.78,268.47,1153.15,268.48,1153.15Z" transform="translate(-131.36 -46.11)"/><path class="cls-9" d="M235.89,1117.78c-16.22,17.85-2,23.26-2,23.26C248.16,1137.85,235.89,1117.78,235.89,1117.78Z" transform="translate(-131.36 -46.11)"/><path class="cls-9" d="M284.42,1222.9c-10.27-21.8-20.72-10.83-20.72-10.83C261.14,1226.54,284.4,1222.9,284.42,1222.9Z" transform="translate(-131.36 -46.11)"/><path class="cls-9" d="M216.64,1217c5.46,23.16,17.74,15.07,17.74,15.07C239.77,1218.84,216.62,1216.9,216.64,1217Z" transform="translate(-131.36 -46.11)"/><path class="cls-9" d="M244.25,1250.85c8.15-12.3-.45-14.54-.45-14.54C235.66,1239.38,244.21,1250.83,244.25,1250.85Z" transform="translate(-131.36 -46.11)"/></svg>