<svg id="Layer_1" data-name="Layer 1" xmlns="http://www.w3.org/2000/svg" viewBox="0 0 520.92 224.94"><defs><style>.cls-1{fill:#2b4c41;}</style></defs><path class="cls-1" d="M517.2,141.2c-6.16-11.17-21.37-14.89-29.46-5.56,3.53-9.62,2.4-21.19-2.16-30.24a39,39,0,0,0-20.89-18.79c-8.68-3.26-20.09-2.12-24.39,7.28,3.24-14.44.07-30.65-8.25-42s-21.54-17.53-34.27-16c-11.49,1.38-22.06,8.54-30.34,18a84.64,84.64,0,0,0-9.15,12.72A32.35,32.35,0,0,0,356,59.75c-4.55-9.46-13.67-15.87-23.19-16.21-6.6-.29-13,2.17-19.29,4.58.51-10.89-4.88-21.88-13.34-27.1a23.46,23.46,0,0,0-27.24,2.12C271.17,9.74,259.14-.17,247.22,0s-22.94,9-29.06,20.62c-5-5.5-13.53-3.26-19.33,1.15C188.55,29.56,181.69,43,180.89,56.94c-8.39-1-15.64,1.66-19,8.36a83.56,83.56,0,0,0-8.42-11.51c-8.28-9.39-18.85-16.61-30.34-18-12.73-1.49-26,4.7-34.28,16S77.37,79.39,80.61,93.89c-4.3-9.4-15.71-10.6-24.39-7.28A39,39,0,0,0,35.33,105.4c-4.6,9-5.69,20.56-2.16,30.24-8.09-9.33-23.3-5.61-29.46,5.56s-4.19,26.69,2.55,37.35,17.4,17.24,28.26,21.19c8.43,3,17.4,4.76,26.07,2.92C81.71,228,119.08,232,143.77,211.48c2-1.66,4.3-3.6,6.74-3,1.65.4,2.92,1.83,4.16,3.09a44.65,44.65,0,0,0,36,13.23c9.62-.8,19-4.41,27.49-9.79,4.52,3.26,11.34,5.32,18.2-3.72,1.93-2.58,11.27,8.64,20.64,8.47a32.17,32.17,0,0,0,3.39-.23c1.2.18,2.41.23,3.61.29,9.41.17,18.7-11.06,20.64-8.48,6.85,9.05,13.67,7,18.23,3.73,8.53,5.32,17.83,8.93,27.46,9.73a44.82,44.82,0,0,0,36-13.23c1.24-1.32,2.52-2.75,4.16-3.09,2.44-.57,4.74,1.37,6.75,3C402,232,439.35,228,460.46,202.66c8.68,1.84,17.65.12,26.07-2.92,10.87-4,21.52-10.48,28.26-21.19S523.36,152.37,517.2,141.2Z" transform="translate(0 0)"/></svg>