<svg id="Layer_1" data-name="Layer 1" xmlns="http://www.w3.org/2000/svg" viewBox="0 0 520.92 224.94"><defs><style>.cls-1{fill:#2b4c41;}</style></defs><path class="cls-1" d="M6.13,178.55c6.74,10.71,17.39,17.24,28.26,21.19,8.42,3,17.39,4.76,26.07,2.92C81.57,228,119,232,143.63,211.48c2-1.66,4.31-3.61,6.75-3,1.64.34,2.92,1.77,4.16,3.09a44.83,44.83,0,0,0,36,13.23c9.63-.8,18.93-4.41,27.46-9.73,4.56,3.26,11.38,5.32,18.23-3.73,1.94-2.58,11.23,8.65,20.64,8.48,1.21-.06,2.41-.11,3.61-.29a32.17,32.17,0,0,0,3.39.23c9.37.17,18.71-11,20.64-8.47,6.86,9,13.68,7,18.2,3.72,8.53,5.38,17.87,9,27.49,9.79a44.64,44.64,0,0,0,36-13.23c1.24-1.26,2.51-2.69,4.16-3.09,2.44-.57,4.7,1.37,6.74,3,24.69,20.51,62.06,16.56,83.18-8.82,8.67,1.84,17.64.12,26.07-2.92,10.86-4,21.51-10.48,28.26-21.19s8.71-26.18,2.55-37.35-21.37-14.89-29.46-5.56c3.53-9.68,2.44-21.19-2.15-30.24a39,39,0,0,0-20.9-18.79c-8.68-3.32-20.09-2.12-24.39,7.28,3.24-14.5.07-30.71-8.24-42s-21.55-17.53-34.28-16c-11.49,1.38-22.06,8.6-30.34,18A83.56,83.56,0,0,0,359,65.3c-3.36-6.7-10.61-9.39-19-8.36-.8-14-7.66-27.38-17.94-35.17-5.8-4.41-14.29-6.65-19.33-1.15C296.64,9,285.63.17,273.7,0S249.75,9.74,248,23.14A23.46,23.46,0,0,0,220.79,21c-8.46,5.22-13.85,16.21-13.34,27.1-6.28-2.41-12.69-4.87-19.29-4.58-9.52.34-18.64,6.75-23.19,16.21a32.35,32.35,0,0,0-2.34,6.76,84.64,84.64,0,0,0-9.15-12.72c-8.28-9.45-18.85-16.61-30.34-18-12.72-1.49-26,4.7-34.27,16S77.38,79.45,80.62,93.89c-4.3-9.4-15.71-10.54-24.39-7.28A39,39,0,0,0,35.34,105.4c-4.56,9-5.69,20.62-2.16,30.24-8.09-9.33-23.3-5.61-29.46,5.56S-.47,167.89,6.13,178.55Z" transform="translate(0 0)"/></svg>