<svg id="Layer_1" data-name="Layer 1" xmlns="http://www.w3.org/2000/svg" viewBox="0 0 483.43 25.01"><defs><style>.cls-1{fill:#ca852a;}.cls-2{fill:#7c423e;}</style></defs><rect class="cls-1" width="483.43" height="25.01"/><path class="cls-2" d="M149.22,48.5V68.3H66.83V48.5h82.39m4.9-2.61H61.94v25h92.18v-25Z" transform="translate(-61.94 -45.89)"/><path class="cls-2" d="M246.74,48.5V68.3H164.35V48.5h82.39m4.9-2.61H159.45v25h92.19v-25Z" transform="translate(-61.94 -45.89)"/><path class="cls-2" d="M343.93,48.5V68.3H261.54V48.5h82.39m4.89-2.61H256.64v25h92.18v-25Z" transform="translate(-61.94 -45.89)"/><path class="cls-2" d="M442.11,48.5V68.3H359.72V48.5h82.39M447,45.89H354.82v25H447v-25Z" transform="translate(-61.94 -45.89)"/><path class="cls-2" d="M540.47,48.5V68.3H458.08V48.5h82.39m4.89-2.61H453.18v25h92.18v-25Z" transform="translate(-61.94 -45.89)"/></svg>