<svg id="Layer_1" data-name="Layer 1" xmlns="http://www.w3.org/2000/svg" viewBox="0 0 313.92 120.76"><defs><style>.cls-1{fill:#307f4c;}.cls-2{fill:#6b9660;}</style></defs><path class="cls-1" d="M144.8,100.7c1.34,0,2.67,0,4,0a147.42,147.42,0,0,0,97-40.82c3.72-3.58,7-7.19,10.2-10.67,5.29-5.79,10.29-11.26,16.73-16.16,9.44-7.2,23.72-13.73,35.46-10.45a4.5,4.5,0,1,0,2.42-8.67c-14.92-4.17-32.17,3.45-43.34,12-7.08,5.39-12.58,11.42-17.91,17.25-3.1,3.38-6.3,6.88-9.81,10.27a138.26,138.26,0,0,1-91,38.29,138.13,138.13,0,0,1-93.07-33c-16.23-14-29.24-31.88-41.83-49.21C11.81,6.89,10,4.36,8.13,1.84A4.5,4.5,0,0,0,.87,7.16q2.76,3.77,5.5,7.55c12.89,17.75,26.22,36.1,43.24,50.74A147.52,147.52,0,0,0,144.8,100.7Z" transform="translate(0 0)"/><path class="cls-2" d="M114.17,93.75S93.86,77.42,81.43,116.92C81.43,116.92,121.84,117.77,114.17,93.75Z" transform="translate(0 0)"/><path class="cls-2" d="M99.59,87.19S116.8,78,93.19,57.81C93.19,57.81,80.77,85.45,99.59,87.19Z" transform="translate(0 0)"/><path class="cls-2" d="M230,64.17s4.7-20.74-28.73-15.71C201.28,48.46,215.14,78.4,230,64.17Z" transform="translate(0 0)"/><path class="cls-2" d="M185.24,91s-20.39-1-10.16,29.74C175.08,120.76,201.14,102.75,185.24,91Z" transform="translate(0 0)"/><path class="cls-2" d="M157.84,94.33s17-19.72-22-33.53C135.82,60.8,133.57,101.17,157.84,94.33Z" transform="translate(0 0)"/><path class="cls-2" d="M235.39,65s-24.87,7.79,1,40.1C236.43,105.13,259.62,72,235.39,65Z" transform="translate(0 0)"/><path class="cls-2" d="M57.92,70.14s-15.32-13.5-26.44,17C31.48,87.12,63.08,89.21,57.92,70.14Z" transform="translate(0 0)"/><path class="cls-2" d="M43.55,50.35s24.83-7.9-1.22-40.09C42.33,10.26,19.29,43.47,43.55,50.35Z" transform="translate(0 0)"/><path class="cls-2" d="M275.08,24.07s-2.82-25.91-39.54-6.76C235.54,17.31,263.52,46.48,275.08,24.07Z" transform="translate(0 0)"/></svg>