<svg width="458" height="370" viewBox="0 0 458 370" fill="none" xmlns="http://www.w3.org/2000/svg">
<path d="M139.857 297.004H161.167H200.001L186.458 361.273C185.506 365.777 181.536 369.004 176.928 369.004H161.156H139.846H124.074C119.466 369.004 115.496 365.777 114.544 361.273L101.001 297.004H139.857Z" fill="#CB862A"/>
<path d="M106.313 322.004L101.001 294.004H139.839H161.152H200.001L194.678 322.004" fill="#603835"/>
<path d="M150.001 145.004L198.001 274.004" stroke="#592B29" stroke-width="7" stroke-miterlimit="10" stroke-linecap="round"/>
<path d="M150.001 145.004L102.001 274.004" stroke="#592B29" stroke-width="7" stroke-miterlimit="10" stroke-linecap="round"/>
<path d="M148.304 144.683C145.841 139.561 144.118 134.083 143.207 128.463" stroke="#592B29" stroke-width="7" stroke-miterlimit="10" stroke-linecap="round"/>
<path d="M113.134 315.004H187.879C208.386 315.004 225.001 298.378 225.001 277.881C225.001 274.632 222.374 272.004 219.125 272.004H81.8773C78.6284 272.004 76.001 274.632 76.001 277.881C76.0119 298.378 92.6377 315.004 113.134 315.004Z" fill="#CB862A"/>
<path d="M115.565 258.458C113.959 254.869 108.196 249.706 103.659 248.416C100.241 247.44 96.6372 247.657 93.4789 248.437C87.0428 250.032 82.1697 253.762 77.7089 257.558C73.2482 261.354 68.896 265.378 62.9918 267.764C61.9281 268.197 60.8211 268.566 59.7141 268.946C67.1052 270.714 74.301 273.316 81.6921 275.095C89.0833 276.863 96.9411 277.774 103.681 276.049C106.47 275.334 108.988 274.184 111.202 272.774C114.676 270.562 117.508 267.525 117.921 263.827C118.116 261.961 117.552 259.771 115.565 258.458Z" fill="#307F4C"/>
<path d="M78.1431 268.056C80.9216 267.709 85.3498 266.679 88.6058 264.868C89.3655 264.445 90.0819 264.065 90.7765 263.707C90.147 263.588 89.4198 263.382 88.8554 263.122C87.5096 262.536 86.522 262.265 85.1544 261.723C83.7869 261.17 81.9961 260.985 80.889 260.985C79.9014 260.985 77.633 261.202 76.5803 261.332C77.5788 260.931 79.9557 260.454 81.0193 260.334C83.3093 260.074 85.5669 260.888 87.7158 261.723C89.1159 262.265 90.5594 262.807 92.0246 263.078C93.7829 262.189 95.4543 261.376 97.4404 260.193C98.2544 259.705 99.2204 259.239 100.197 258.838C99.8282 258.773 99.47 258.686 99.1336 258.578C98.5041 258.393 97.7443 258.089 97.1691 257.764C95.8884 257.037 94.9442 256.669 93.6418 255.975C92.3394 255.281 90.5811 254.912 89.4849 254.793C88.4973 254.684 86.2289 254.662 85.1653 254.673C86.1963 254.38 88.6167 254.163 89.6911 254.153C91.9921 254.131 94.1519 255.194 96.2032 256.235C97.9071 257.113 99.6762 258.003 101.554 258.306C101.836 258.209 102.107 258.111 102.379 258.024C103.855 257.558 105.45 257.168 107.035 256.983C106.557 256.723 106.025 256.376 105.635 256.029C104.701 255.205 103.963 254.738 103.008 253.947C102.042 253.155 100.642 252.548 99.7522 252.266C98.9491 252.016 97.0606 251.604 96.1814 251.441C97.0931 251.365 99.1336 251.593 100.024 251.767C101.945 252.135 103.551 253.383 105.081 254.597C106.134 255.432 107.208 256.289 108.402 256.886C110.671 256.821 112.863 257.265 114.61 258.643L115.229 259.196C114.198 258.306 112.722 258.176 111.365 258.23C110.54 258.263 109.726 258.361 108.923 258.491C107.317 260.107 106.525 262.352 105.776 264.51C105.016 266.679 104.18 268.935 102.498 270.507C101.717 271.245 99.8173 272.752 98.8622 273.251C99.6328 272.535 101.272 270.941 101.912 270.193C102.628 269.347 103.649 267.872 104.104 266.473C104.571 265.074 105.005 264.163 105.429 262.753C105.613 262.124 105.96 261.376 106.286 260.812C106.72 260.052 107.274 259.282 107.936 258.697C105.179 259.272 102.52 260.345 99.9367 261.592C98.9491 262.84 98.211 264.326 97.5164 265.779C96.5071 267.85 95.4217 269.987 93.5658 271.353C92.6975 271.993 90.6354 273.273 89.6369 273.652C90.4943 273.023 92.296 271.635 93.0123 270.963C93.8154 270.215 94.9984 268.859 95.6279 267.525C96.2466 266.191 96.7892 265.334 97.3753 263.978C97.5924 263.48 97.918 262.926 98.2436 262.438C97.18 262.981 96.1272 263.545 95.0853 264.109C89.9516 266.863 84.5466 269.64 78.7184 269.694C76.005 269.716 69.8729 269.282 67.2572 268.577C69.9054 268.544 75.6686 268.36 78.1431 268.056Z" fill="#48A075"/>
<path d="M187.621 273.815C189.618 270.421 195.913 265.942 200.569 265.161C204.075 264.575 207.624 265.183 210.684 266.31C216.914 268.599 221.331 272.85 225.347 277.123C229.363 281.396 233.238 285.865 238.849 288.901C239.858 289.443 240.922 289.942 241.975 290.441C234.432 291.374 226.997 293.174 219.454 294.118C211.911 295.061 203.999 295.094 197.497 292.621C194.806 291.602 192.429 290.181 190.378 288.532C187.176 285.951 184.701 282.622 184.691 278.891C184.701 277.004 185.505 274.889 187.621 273.815Z" fill="#356654"/>
<path d="M190.942 271.061C192.494 270.421 194.209 270.323 195.945 270.551C196.868 270.226 197.888 269.922 198.485 269.781C200.623 269.293 202.837 269.835 204.954 270.388C207.07 270.941 209.273 271.516 211.422 271.093C211.922 270.996 212.453 270.822 212.746 270.399L212.573 270.649C211.596 271.896 209.74 272.058 208.155 271.95C207.526 271.907 206.766 271.776 206.158 271.592C204.823 271.18 203.868 271.028 202.512 270.659C201.166 270.28 199.451 270.291 198.409 270.41C198.018 270.453 197.421 270.562 196.781 270.681C198.919 271.093 201.068 271.961 202.957 272.894C204.411 273.62 206.115 274.65 207.352 275.637C207.721 275.93 208.069 276.201 208.416 276.462C209.979 276.96 211.802 276.95 213.571 276.939C215.655 276.917 217.826 276.928 219.497 277.817C220.279 278.229 221.928 279.303 222.514 279.91C221.744 279.498 220.062 278.663 219.291 278.381C218.423 278.056 216.925 277.676 215.59 277.709C214.255 277.741 213.354 277.655 212.019 277.731C211.411 277.763 210.695 277.709 210.131 277.611C210.055 277.6 209.979 277.579 209.903 277.568C211.585 278.761 213.181 279.813 215.08 281.244C215.33 281.429 215.601 281.613 215.861 281.787C217.196 282.047 218.651 282.036 220.083 282.025C222.167 282.004 224.338 282.014 226.009 282.904C226.791 283.316 228.44 284.39 229.026 284.997C228.256 284.585 226.574 283.75 225.803 283.468C224.935 283.142 223.437 282.763 222.102 282.795C220.767 282.828 219.866 282.741 218.531 282.817C218.195 282.839 217.826 282.828 217.457 282.795C219.921 284.194 222.71 285.301 224.674 285.919C227.029 286.656 232.608 287.914 235.213 288.435C232.521 288.511 226.476 287.686 223.828 287.144C221.125 286.591 218.64 285.528 216.285 284.227C216.871 285.084 217.413 285.756 218.065 286.7C218.846 287.86 220.159 288.955 221.028 289.541C221.809 290.062 223.708 291.103 224.609 291.558C223.611 291.352 221.483 290.452 220.572 289.986C218.629 288.977 217.283 287.133 216.035 285.333C215.503 284.574 214.961 283.804 214.374 283.088C212.953 282.199 211.563 281.234 210.218 280.268C210.185 280.268 210.142 280.268 210.109 280.279L210.196 280.257C209.794 279.965 209.393 279.672 208.991 279.379C209.089 279.531 209.187 279.672 209.284 279.824C209.61 280.355 209.946 281.06 210.142 281.657C210.576 282.99 211.01 283.847 211.487 285.17C211.965 286.483 212.963 287.871 213.658 288.652C214.288 289.346 215.872 290.821 216.632 291.493C215.72 291.049 213.875 289.649 213.105 288.977C211.466 287.524 210.619 285.398 209.849 283.348C209.1 281.353 208.307 279.292 206.799 277.796C206.451 277.546 206.104 277.308 205.757 277.058C205.627 277.015 205.486 276.982 205.344 276.982H205.648C204.454 276.147 203.228 275.345 201.98 274.607C202.392 275.334 202.685 276.147 202.902 276.928C203.087 277.622 203.239 278.501 203.261 279.227C203.315 280.832 203.521 281.928 203.619 283.544C203.716 285.149 204.378 287.003 204.899 288.099C205.366 289.075 206.647 291.211 207.265 292.187C206.397 291.396 204.802 289.27 204.183 288.272C202.837 286.136 202.588 283.522 202.403 281.006C202.219 278.598 202.012 276.104 200.873 273.978C198.778 272.839 196.564 271.907 194.176 271.343C192.863 271.039 191.398 270.855 190.226 271.397L190.942 271.061Z" fill="#48A075"/>
<path d="M172.014 268.414C175.118 267.33 181.879 267.688 185.646 269.477C188.478 270.822 190.758 272.915 192.429 275.084C195.826 279.487 196.966 284.194 197.801 288.717C198.637 293.239 199.267 297.816 201.85 302.371C202.316 303.195 202.848 304.009 203.369 304.811C197.432 301.72 191.159 299.193 185.233 296.102C179.296 293.012 173.544 289.194 170.017 284.552C168.562 282.633 167.531 280.626 166.848 278.631C165.784 275.518 165.61 272.308 167.423 270.052C168.324 268.924 169.941 268.035 172.014 268.414Z" fill="#356654"/>
<path d="M175.758 268.36C177.202 268.729 178.493 269.499 179.644 270.486C180.469 270.735 181.369 271.05 181.869 271.256C183.659 271.993 185.005 273.403 186.275 274.759C187.545 276.125 188.858 277.535 190.627 278.327C191.04 278.511 191.506 278.663 191.93 278.555L191.68 278.62C190.356 278.902 188.934 278.099 187.838 277.264C187.404 276.928 186.915 276.483 186.568 276.082C185.798 275.182 185.179 274.629 184.387 273.75C183.594 272.872 182.346 272.047 181.532 271.614C181.228 271.451 180.74 271.223 180.219 270.985C181.576 272.275 182.704 273.837 183.627 275.323C184.332 276.472 185.059 277.915 185.483 279.108C185.602 279.466 185.732 279.802 185.852 280.127C186.742 281.19 188.077 282.068 189.368 282.914C190.888 283.912 192.462 284.975 193.243 286.32C193.612 286.949 194.285 288.391 194.415 289.042C194.057 288.424 193.243 287.101 192.82 286.558C192.353 285.94 191.452 284.986 190.464 284.357C189.477 283.728 188.869 283.24 187.86 282.632C187.404 282.361 186.915 281.971 186.546 281.646C186.503 281.602 186.449 281.559 186.405 281.505C187.035 283.045 187.686 284.444 188.37 286.233C188.457 286.461 188.565 286.699 188.674 286.938C189.509 287.741 190.573 288.446 191.615 289.129C193.134 290.127 194.708 291.189 195.49 292.534C195.859 293.163 196.532 294.606 196.662 295.256C196.304 294.638 195.49 293.315 195.066 292.773C194.6 292.155 193.699 291.2 192.711 290.571C191.723 289.942 191.116 289.454 190.106 288.847C189.857 288.695 189.585 288.511 189.336 288.315C190.443 290.354 191.93 292.382 193.058 293.705C194.415 295.289 197.845 298.759 199.484 300.343C197.497 299.085 193.503 295.658 191.854 294.042C190.161 292.393 188.869 290.549 187.805 288.619C187.816 289.422 187.881 290.083 187.881 290.972C187.881 292.057 188.305 293.348 188.652 294.128C188.967 294.823 189.835 296.373 190.258 297.078C189.64 296.471 188.522 294.898 188.098 294.172C187.176 292.621 187.111 290.853 187.078 289.161C187.067 288.445 187.046 287.719 186.97 286.992C186.373 285.767 185.83 284.52 185.331 283.272C185.298 283.261 185.277 283.24 185.244 283.229L185.32 283.261C185.168 282.893 185.016 282.524 184.875 282.155C184.875 282.296 184.875 282.426 184.864 282.567C184.842 283.045 184.745 283.63 184.593 284.086C184.256 285.094 184.159 285.832 183.855 286.851C183.551 287.871 183.605 289.194 183.735 290.007C183.844 290.734 184.278 292.393 184.506 293.163C184.061 292.447 183.399 290.712 183.182 289.931C182.704 288.261 183.128 286.569 183.562 284.964C183.985 283.402 184.419 281.776 184.061 280.138C183.931 279.823 183.801 279.509 183.659 279.194C183.583 279.097 183.497 279.021 183.399 278.945L183.616 279.086C183.149 278.001 182.661 276.928 182.107 275.876C182.053 276.516 181.869 277.145 181.641 277.72C181.434 278.229 181.12 278.837 180.783 279.281C180.034 280.279 179.644 281.038 178.938 282.058C178.222 283.077 177.799 284.52 177.647 285.431C177.506 286.244 177.397 288.153 177.364 289.053C177.126 288.153 177.006 286.092 177.039 285.192C177.104 283.251 178.2 281.548 179.286 279.943C180.327 278.403 181.391 276.787 181.608 274.965C180.642 273.262 179.492 271.624 178.037 270.128C177.234 269.304 176.257 268.49 175.15 268.241L175.758 268.36Z" fill="#48A075"/>
<path d="M174.326 261.539C175.433 257.038 181.022 249.847 186.015 247.396C189.77 245.553 193.992 245.043 197.823 245.281C205.627 245.769 212.052 249.077 218.021 252.537C223.991 255.997 229.884 259.738 237.232 261.267C238.556 261.539 239.923 261.745 241.28 261.951C233.086 265.551 225.304 270.085 217.11 273.696C208.915 277.308 199.994 280.008 191.821 279.422C188.446 279.184 185.277 278.381 182.411 277.199C177.918 275.366 174 272.449 172.73 268.241C172.101 266.137 172.296 263.48 174.326 261.539Z" fill="#307F4C"/>
<path d="M178.927 257.406C180.512 256.083 182.541 255.433 184.69 255.183L184.614 255.107C184.647 255.14 184.69 255.151 184.723 255.183C185.602 255.086 186.514 255.053 187.415 255.075C189.271 254.467 191.05 253.253 192.776 252.06C194.893 250.596 197.128 249.099 199.451 248.849C200.536 248.73 202.968 248.687 203.999 248.904C202.935 249.012 200.634 249.327 199.635 249.565C198.518 249.836 196.727 250.487 195.381 251.442C194.035 252.407 193.058 252.938 191.734 253.947C191.137 254.391 190.356 254.836 189.716 255.14C189.65 255.172 189.585 255.194 189.52 255.227C190.508 255.324 191.485 255.476 192.418 255.649C194.22 255.986 196.379 256.582 198.04 257.287C198.214 257.363 198.366 257.417 198.528 257.482C200.178 257.038 201.828 256.192 203.434 255.368C205.724 254.185 208.134 253.003 210.467 253.047C211.553 253.068 213.973 253.339 214.971 253.686C213.897 253.665 211.574 253.676 210.554 253.784C209.414 253.903 207.548 254.316 206.093 255.096C204.639 255.877 203.597 256.279 202.153 257.103C201.502 257.471 200.677 257.808 199.994 258.014C199.972 258.025 199.95 258.025 199.929 258.035C202.729 259.109 205.116 259.803 208.188 260.996C209.349 261.441 210.619 261.799 211.922 262.092C213.17 261.777 214.407 261.137 215.623 260.519C217.305 259.651 219.063 258.784 220.778 258.816C221.581 258.827 223.35 259.033 224.077 259.283C223.296 259.261 221.592 259.272 220.843 259.348C220.007 259.434 218.64 259.738 217.576 260.313C216.512 260.888 215.742 261.181 214.689 261.777C214.277 262.005 213.777 262.222 213.332 262.374C215.796 262.829 218.227 263.046 220.029 263.089C222.797 263.154 229.178 262.775 232.141 262.536C229.298 263.469 222.547 264.478 219.541 264.716C213.788 265.161 208.221 263.469 202.902 261.538C203.347 261.961 203.792 262.428 204.129 262.872C205.236 264.337 206.148 265.226 207.309 266.647C208.459 268.078 210.304 269.369 211.509 270.041C212.584 270.638 215.188 271.787 216.415 272.286C215.08 272.123 212.204 271.191 210.966 270.67C208.307 269.564 206.354 267.297 204.509 265.085C203.109 263.393 201.654 261.658 199.874 260.411C198.67 259.966 197.454 259.532 196.238 259.109C196.228 259.109 196.206 259.109 196.184 259.12L196.217 259.109C194.871 258.654 193.503 258.231 192.136 257.862C192.83 258.534 193.438 259.348 193.927 260.15C194.361 260.855 194.806 261.766 195.055 262.558C195.62 264.304 196.195 265.443 196.824 267.167C197.443 268.892 198.756 270.714 199.679 271.744C200.504 272.666 202.588 274.596 203.575 275.475C202.371 274.889 199.95 273.056 198.952 272.167C196.803 270.258 195.696 267.471 194.676 264.781C193.688 262.178 192.657 259.478 190.692 257.515C188.576 257.027 186.438 256.723 184.256 256.68C185.58 257.352 186.644 258.686 187.425 259.977C187.86 260.682 188.305 261.593 188.554 262.384C189.119 264.131 189.694 265.269 190.323 266.994C190.942 268.718 192.255 270.54 193.178 271.57C194.003 272.492 196.086 274.423 197.074 275.301C195.869 274.716 193.449 272.883 192.451 271.993C190.302 270.085 189.195 267.297 188.174 264.608C187.154 261.918 186.101 259.12 184.018 257.146C183.844 256.973 183.638 256.821 183.442 256.68C183.138 256.68 182.824 256.691 182.52 256.701C181.011 256.777 179.394 257.049 178.319 258.003L178.927 257.406Z" fill="#48A075"/>
<path d="M117.975 269.499C115.826 267.493 110.356 265.628 106.85 266.061C104.213 266.387 101.803 267.591 99.8498 269.044C95.8883 272.015 93.62 276.007 91.6664 279.911C89.7019 283.826 87.8785 287.86 84.514 291.222C83.9062 291.83 83.255 292.415 82.6038 292.99C88.2041 292.047 93.913 291.743 99.5133 290.81C105.114 289.878 110.79 288.207 114.914 285.051C116.618 283.75 118.018 282.221 119.136 280.605C120.873 278.067 121.936 275.161 121.144 272.482C120.753 271.159 119.722 269.825 117.975 269.499Z" fill="#307F4C"/>
<path d="M95.0309 287.015C96.8434 285.974 99.5893 283.967 101.293 281.777C101.695 281.256 102.075 280.79 102.444 280.345C101.977 280.443 101.413 280.508 100.946 280.508C99.8498 280.497 99.0901 280.605 97.9939 280.616C96.8977 280.638 95.6061 281.028 94.8464 281.354C94.1626 281.646 92.6649 282.449 91.9811 282.839C92.5455 282.275 94.0433 281.256 94.7487 280.855C96.2465 280.009 98.0373 279.911 99.763 279.857C100.881 279.824 102.031 279.77 103.117 279.532C104.072 278.415 104.973 277.363 105.993 275.963C106.416 275.389 106.937 274.792 107.491 274.228C107.219 274.282 106.948 274.326 106.677 274.358C106.188 274.413 105.58 274.423 105.081 274.369C103.985 274.239 103.225 274.272 102.129 274.174C101.033 274.076 99.7087 274.337 98.9273 274.575C98.2218 274.792 96.6481 275.432 95.9209 275.757C96.5395 275.248 98.1458 274.402 98.8839 274.076C100.458 273.393 102.259 273.491 103.974 273.61C105.407 273.719 106.883 273.816 108.261 273.48C108.424 273.328 108.587 273.187 108.75 273.046C109.629 272.298 110.605 271.56 111.647 270.975C111.246 270.931 110.779 270.845 110.399 270.725C109.509 270.432 108.88 270.324 107.979 270.064C107.089 269.793 105.949 269.793 105.244 269.858C104.625 269.923 103.204 270.183 102.552 270.335C103.16 270.02 104.625 269.576 105.298 269.435C106.72 269.131 108.196 269.521 109.607 269.912C110.573 270.183 111.571 270.454 112.559 270.519C114.1 269.814 115.739 269.478 117.345 269.923L117.932 270.118C116.966 269.814 115.913 270.15 114.99 270.584C114.437 270.845 113.894 271.148 113.384 271.474C112.754 273.057 112.863 274.825 112.972 276.527C113.08 278.241 113.167 280.041 112.472 281.603C112.147 282.341 111.278 283.924 110.768 284.542C111.094 283.826 111.745 282.254 111.973 281.549C112.223 280.757 112.483 279.445 112.396 278.349C112.309 277.254 112.342 276.495 112.223 275.4C112.168 274.912 112.179 274.304 112.244 273.805C112.32 273.155 112.472 272.46 112.754 271.864C111.029 273.068 109.509 274.575 108.098 276.191C107.784 277.341 107.708 278.577 107.653 279.77C107.567 281.484 107.447 283.284 106.568 284.759C106.156 285.453 105.114 286.928 104.538 287.492C104.94 286.809 105.776 285.334 106.08 284.661C106.416 283.913 106.829 282.633 106.872 281.527C106.915 280.432 107.035 279.673 107.035 278.577C107.035 278.165 107.1 277.688 107.187 277.265C106.611 277.948 106.058 278.642 105.494 279.336C102.769 282.72 99.8607 286.212 95.8666 287.948C94.0107 288.761 89.6585 290.247 87.6506 290.529C89.5065 289.748 93.4137 287.948 95.0309 287.015Z" fill="#48A075"/>
<path d="M134.125 264.033C129.566 261.528 120.156 260.237 115.24 261.962C111.539 263.263 108.771 265.855 106.861 268.729C102.976 274.575 102.324 281.505 102.075 288.218C101.814 294.931 101.847 301.807 99.1335 308.098C98.6451 309.236 98.0699 310.332 97.4946 311.438C105.19 308.293 113.471 306.124 121.177 302.979C128.883 299.833 136.176 295.539 140.181 289.357C141.831 286.808 142.873 283.988 143.437 281.125C144.305 276.635 143.904 271.744 140.908 267.796C139.389 265.812 136.947 264.011 134.125 264.033Z" fill="#356654"/>
<path d="M115.131 291.884C114.871 292.047 114.61 292.188 114.35 292.318C113.883 292.546 113.286 292.773 112.787 292.893C111.658 293.153 110.92 293.446 109.802 293.75C108.684 294.042 107.469 294.769 106.774 295.29C106.156 295.756 104.831 296.949 104.224 297.524C104.658 296.808 105.939 295.387 106.546 294.812C107.86 293.576 109.672 293.034 111.409 292.546C112.95 292.112 114.556 291.656 115.837 290.724C116.738 289.195 117.552 287.546 118.083 285.984C118.268 285.431 118.463 284.911 118.648 284.401C118.442 284.488 118.225 284.564 118.018 284.64C117.432 284.835 116.694 285.019 116.076 285.073C114.708 285.203 113.786 285.442 112.418 285.616C111.05 285.789 109.509 286.451 108.598 286.95C107.794 287.405 106.036 288.609 105.233 289.195C105.863 288.414 107.588 286.939 108.402 286.353C110.15 285.095 112.375 284.737 114.502 284.433C116.021 284.217 117.573 283.989 118.995 283.447C119.798 281.332 120.569 279.466 121.329 277.026C121.513 276.44 121.752 275.822 122.012 275.193C121.426 275.54 120.775 275.811 120.146 276.007C119.516 276.213 118.724 276.386 118.062 276.44C116.597 276.56 115.609 276.798 114.144 276.972C112.678 277.135 111.018 277.829 110.052 278.349C109.184 278.816 107.295 280.085 106.427 280.703C107.111 279.878 108.977 278.328 109.857 277.709C111.745 276.386 114.122 276.039 116.401 275.746C118.485 275.475 120.634 275.182 122.468 274.185C122.772 273.523 123.098 272.872 123.423 272.298C124.042 271.202 124.747 270.085 125.54 269.033C125.051 269.207 124.552 269.337 124.064 269.434C123.412 269.565 122.598 269.64 121.947 269.608C120.471 269.543 119.462 269.662 117.997 269.651C116.521 269.63 114.795 270.118 113.764 270.519C112.841 270.877 110.812 271.907 109.878 272.406C110.66 271.669 112.7 270.367 113.655 269.857C115.685 268.784 118.094 268.729 120.395 268.708C122.414 268.697 124.52 268.686 126.397 267.992C128.047 266.062 130.033 264.5 132.366 264.023L133.137 263.903C131.867 264.12 130.76 265.085 129.838 266.072C129.034 266.94 128.318 267.873 127.667 268.827C127.689 268.936 127.7 269.044 127.721 269.142C128.242 271.387 129.74 273.252 131.183 275.041C132.627 276.831 134.103 278.729 134.548 280.985C134.754 282.037 135.036 284.444 134.95 285.518C134.754 284.477 134.266 282.254 133.962 281.321C133.625 280.269 132.898 278.62 131.965 277.492C131.021 276.365 130.478 275.508 129.501 274.402C129.067 273.903 128.611 273.23 128.296 272.645C127.765 271.647 127.309 270.476 127.309 269.359C125.616 271.983 124.378 274.857 123.282 277.764C123.608 279.889 124.78 281.798 125.909 283.642C127.113 285.605 128.34 287.665 128.492 289.965C128.568 291.038 128.535 293.457 128.318 294.509C128.253 293.457 128.047 291.19 127.862 290.214C127.667 289.129 127.157 287.405 126.365 286.158C125.572 284.922 125.138 284 124.313 282.785C123.944 282.243 123.575 281.505 123.347 280.887C123.119 280.301 122.924 279.651 122.816 279.011C122.577 279.662 122.349 280.312 122.11 280.963C121.242 283.403 120.33 285.887 119.19 288.262C119.31 289.14 119.527 290.019 119.733 290.876C120.167 292.665 120.591 294.53 120.146 296.32C119.939 297.155 119.321 298.988 118.897 299.736C119.104 298.912 119.505 297.144 119.614 296.363C119.733 295.485 119.766 294.053 119.462 292.914C119.169 291.776 119.06 290.973 118.724 289.845C118.68 289.704 118.648 289.563 118.615 289.411C117.432 291.711 116 293.88 114.155 295.778C112.277 297.708 107.729 301.786 105.461 303.239C107.317 301.341 111.224 297.166 112.765 295.235C113.482 294.335 114.317 293.175 115.131 291.884Z" fill="#48A075"/>
<path d="M148.658 261.81C154.942 260.552 166.468 262.504 171.612 266.343C175.476 269.239 177.777 273.306 178.949 277.384C181.348 285.68 179.557 294.064 177.376 302.046C175.194 310.028 172.622 318.097 173.49 326.48C173.642 327.988 173.913 329.506 174.185 331.014C166.316 324.474 157.384 318.867 149.493 312.349C141.614 305.82 134.624 298.066 132.204 289.335C131.205 285.724 131.021 282.036 131.422 278.457C132.063 272.861 134.331 267.265 139.324 263.729C141.809 261.951 145.347 260.747 148.658 261.81Z" fill="#307F4C"/>
<path d="M142.178 282.025C143.133 278.956 145.467 276.548 147.735 274.282C150.003 272.015 152.369 269.651 153.422 266.614C153.531 266.299 153.618 265.963 153.661 265.638C152.988 264.304 152.098 263.024 150.85 262.384L151.718 262.807C153.737 263.935 155.256 265.768 156.407 267.915C158.252 269.206 160.748 269.705 163.158 270.171C165.676 270.659 168.291 271.212 170.093 272.687C170.929 273.371 172.654 275.073 173.219 275.952C172.394 275.268 170.57 273.848 169.713 273.305C168.747 272.698 167.032 271.874 165.415 271.581C163.798 271.288 162.734 270.974 161.095 270.724C160.357 270.616 159.5 270.366 158.838 270.106C158.23 269.868 157.612 269.575 157.069 269.228C158.024 271.342 158.675 273.653 159.131 275.832C159.326 276.754 159.489 277.763 159.609 278.793C159.663 278.837 159.717 278.88 159.771 278.923C161.638 280.344 164.254 280.854 166.772 281.342C169.29 281.83 171.905 282.383 173.707 283.858C174.543 284.541 176.269 286.244 176.833 287.122C176.008 286.439 174.185 285.018 173.327 284.476C172.361 283.869 170.646 283.045 169.029 282.752C167.412 282.459 166.349 282.144 164.71 281.895C163.972 281.787 163.114 281.537 162.452 281.277C161.432 280.876 160.39 280.333 159.706 279.607C159.793 280.496 159.847 281.374 159.847 282.166C159.836 284.877 159.999 287.079 160.14 289.411C161.454 290.419 163.049 291.222 164.601 292.003C166.902 293.142 169.268 294.367 170.614 296.265C171.243 297.154 172.448 299.247 172.752 300.245C172.144 299.367 170.755 297.512 170.071 296.764C169.301 295.918 167.868 294.671 166.392 293.966C164.905 293.261 163.972 292.664 162.463 291.992C161.779 291.688 161.019 291.222 160.455 290.799C160.379 290.734 160.292 290.669 160.216 290.615C160.271 291.645 160.325 292.729 160.357 293.901C160.455 298.261 161.964 303.542 163.19 306.72C164.286 309.55 167.336 315.895 168.812 318.812C166.685 316.275 162.854 309.811 161.356 306.85C160.466 305.071 159.793 303.228 159.272 301.351V301.362C158.74 303 158.556 304.182 158.078 305.831C157.601 307.49 157.59 309.594 157.731 310.874C157.85 312.023 158.371 314.637 158.643 315.852C158.057 314.745 157.221 312.023 156.95 310.798C156.374 308.162 157.058 305.44 157.774 302.837C158.132 301.536 158.491 300.213 158.697 298.879C158.317 297.024 158.067 295.148 157.905 293.261C157.894 293.261 157.894 293.25 157.883 293.239L157.905 293.25C157.807 292.165 157.731 291.081 157.666 289.996C157.536 290.387 157.384 290.766 157.21 291.135C156.895 291.84 156.418 292.664 155.94 293.283C154.887 294.649 154.312 295.69 153.303 297.078C152.293 298.477 151.577 300.451 151.262 301.709C150.98 302.826 150.589 305.462 150.427 306.698C150.253 305.451 150.383 302.62 150.546 301.373C150.893 298.705 152.467 296.373 154.019 294.161C155.495 292.046 157.025 289.855 157.536 287.339C157.525 287.068 157.514 286.797 157.503 286.515C157.492 286.114 157.47 285.723 157.46 285.322C157.438 285.268 157.416 285.214 157.384 285.159L157.46 285.268C157.362 282.849 157.243 280.398 156.971 277.969C156.58 279.151 155.929 280.29 155.246 281.298C154.67 282.134 153.878 283.099 153.129 283.782C151.458 285.3 150.481 286.515 148.864 288.088C147.247 289.66 145.868 292.046 145.184 293.597C144.577 294.985 143.459 298.293 142.981 299.844C143.035 298.195 143.849 294.573 144.338 293.001C145.391 289.639 147.952 286.981 150.448 284.487C152.945 281.993 155.539 279.39 156.7 276.06C156.711 276.039 156.711 276.006 156.722 275.973C156.244 272.687 155.452 269.455 154.03 266.364C154.052 268.111 153.14 269.922 152.131 271.397C151.61 272.156 150.882 273.034 150.199 273.653C148.679 275.041 147.789 276.147 146.313 277.568C144.837 278.999 143.589 281.168 142.959 282.578C142.406 283.836 141.386 286.851 140.962 288.261C140.984 286.754 141.733 283.457 142.178 282.025Z" fill="#48A075"/>
<path d="M133.528 259.792C136.99 256.745 140.897 249.294 140.93 244.685C140.962 241.214 139.627 238.123 137.804 235.672C134.092 230.684 128.514 228.059 122.978 225.825C117.443 223.591 111.702 221.552 107.284 217.398C106.481 216.65 105.732 215.836 104.983 215.023C105.298 222.376 104.614 229.935 104.918 237.288C105.222 244.641 106.622 252.027 110.573 257.211C112.201 259.359 114.241 261.072 116.466 262.395C119.95 264.467 124.151 265.605 128.351 264.293C130.467 263.642 132.703 262.146 133.528 259.792Z" fill="#356654"/>
<path d="M116 235.596C115.945 235.336 115.902 235.065 115.869 234.816C115.815 234.36 115.804 233.796 115.859 233.341C115.978 232.321 115.956 231.616 116.043 230.597C116.13 229.577 115.891 228.352 115.674 227.614C115.479 226.953 114.871 225.489 114.578 224.816C115.045 225.391 115.848 226.888 116.141 227.571C116.781 229.035 116.683 230.705 116.575 232.31C116.477 233.731 116.369 235.195 116.759 236.551C117.769 237.755 118.897 238.937 120.037 239.848C120.45 240.173 120.819 240.488 121.188 240.791C121.177 240.596 121.177 240.39 121.177 240.195C121.188 239.642 121.264 238.98 121.394 238.449C121.698 237.267 121.774 236.432 122.045 235.239C122.316 234.046 122.229 232.56 122.078 231.66C121.947 230.857 121.47 229.024 121.22 228.189C121.687 228.948 122.392 230.835 122.631 231.692C123.152 233.525 122.783 235.488 122.392 237.353C122.121 238.677 121.839 240.043 121.86 241.388C123.391 242.689 124.704 243.893 126.517 245.26C126.951 245.585 127.396 245.975 127.841 246.388C127.732 245.791 127.7 245.173 127.721 244.587C127.743 244.002 127.83 243.286 127.982 242.722C128.318 241.464 128.416 240.564 128.72 239.295C129.024 238.026 128.948 236.432 128.796 235.466C128.666 234.599 128.177 232.647 127.927 231.746C128.416 232.56 129.143 234.588 129.393 235.499C129.924 237.462 129.501 239.555 129.067 241.54C128.666 243.351 128.264 245.238 128.546 247.06C129.002 247.515 129.447 247.982 129.838 248.426C130.565 249.272 131.292 250.194 131.932 251.17C131.932 250.715 131.976 250.259 132.041 249.826C132.128 249.251 132.312 248.546 132.529 248.003C133.018 246.8 133.235 245.921 133.691 244.696C134.146 243.47 134.266 241.887 134.244 240.911C134.222 240.032 133.973 238.037 133.843 237.104C134.222 237.972 134.7 240.076 134.83 241.008C135.123 243.025 134.44 245.043 133.756 246.962C133.159 248.654 132.54 250.4 132.551 252.179C133.669 254.131 134.364 256.257 134.07 258.339L133.94 259.011C134.146 257.884 133.669 256.669 133.115 255.617C132.627 254.684 132.073 253.806 131.466 252.981C131.368 252.96 131.281 252.949 131.183 252.938C129.154 252.689 127.146 253.383 125.214 254.044C123.282 254.706 121.253 255.367 119.245 255.053C118.301 254.912 116.206 254.413 115.338 254.023C116.26 254.164 118.268 254.435 119.136 254.467C120.113 254.5 121.709 254.391 122.935 253.958C124.161 253.513 125.04 253.318 126.256 252.83C126.799 252.613 127.504 252.439 128.079 252.363C129.078 252.222 130.185 252.19 131.118 252.526C129.436 250.324 127.407 248.426 125.312 246.648C123.445 246.29 121.502 246.68 119.625 247.071C117.628 247.483 115.533 247.884 113.568 247.331C112.657 247.071 110.638 246.312 109.824 245.824C110.725 246.084 112.678 246.594 113.547 246.735C114.513 246.897 116.108 246.984 117.378 246.702C118.648 246.42 119.549 246.322 120.808 246.008C121.372 245.867 122.088 245.78 122.674 245.769C123.239 245.759 123.825 245.791 124.4 245.889C123.923 245.498 123.456 245.108 122.978 244.717C121.209 243.253 119.408 241.757 117.769 240.097C116.998 239.935 116.206 239.848 115.424 239.761C113.807 239.588 112.114 239.381 110.757 238.47C110.128 238.048 108.782 236.985 108.283 236.399C108.902 236.822 110.269 237.69 110.888 238.004C111.582 238.362 112.776 238.828 113.807 238.915C114.849 239.013 115.555 239.165 116.586 239.23C116.716 239.24 116.846 239.251 116.976 239.273C115.414 237.592 114.035 235.759 113.004 233.644C111.951 231.497 109.922 226.486 109.39 224.166C110.421 226.28 112.722 230.792 113.872 232.657C114.458 233.482 115.175 234.534 116 235.596Z" fill="#48A075"/>
<path d="M145.304 262.428C141.82 258.111 138.683 248.503 139.573 243.026C140.235 238.904 142.449 235.51 145.097 232.972C150.502 227.81 157.655 225.814 164.655 224.285C171.656 222.756 178.884 221.487 184.962 217.463C186.058 216.737 187.111 215.923 188.164 215.11C186.308 223.764 185.591 232.853 183.746 241.518C181.901 250.173 178.754 258.643 173.023 264C170.657 266.213 167.9 267.84 164.992 268.957C160.444 270.714 155.234 271.213 150.524 268.816C148.158 267.612 145.814 265.389 145.304 262.428Z" fill="#307F4C"/>
<path d="M170.972 237.267C171.091 236.963 171.2 236.659 171.287 236.367C171.439 235.835 171.569 235.163 171.601 234.61C171.666 233.384 171.84 232.549 171.938 231.324C172.036 230.098 172.567 228.688 172.98 227.864C173.349 227.126 174.358 225.51 174.847 224.773C174.174 225.369 172.925 226.975 172.437 227.723C171.384 229.339 171.156 231.334 170.972 233.243C170.809 234.946 170.635 236.703 169.897 238.232C168.454 239.457 166.88 240.629 165.339 241.486C164.785 241.789 164.275 242.082 163.787 242.375C163.841 242.136 163.885 241.898 163.917 241.67C164.015 241.019 164.058 240.206 164.004 239.555C163.885 238.091 163.961 237.082 163.874 235.618C163.798 234.154 164.199 232.408 164.558 231.367C164.883 230.434 165.817 228.374 166.272 227.419C165.567 228.222 164.351 230.315 163.885 231.28C162.897 233.352 162.94 235.748 163.027 238.037C163.081 239.664 163.136 241.345 162.832 242.928C160.759 244.164 158.957 245.325 156.526 246.583C155.951 246.876 155.343 247.255 154.724 247.646C154.974 246.962 155.137 246.225 155.234 245.531C155.332 244.837 155.365 243.969 155.3 243.264C155.148 241.702 155.213 240.618 155.115 239.056C155.017 237.494 155.419 235.618 155.799 234.501C156.135 233.503 157.101 231.28 157.579 230.261C156.841 231.128 155.56 233.384 155.083 234.414C154.051 236.638 154.127 239.197 154.247 241.648C154.355 243.882 154.453 246.192 153.748 248.296C153.107 248.741 152.489 249.207 151.946 249.663C150.915 250.509 149.873 251.463 148.918 252.494C149.005 251.951 149.048 251.398 149.059 250.867C149.07 250.162 148.994 249.294 148.842 248.611C148.505 247.082 148.429 245.997 148.136 244.457C147.843 242.917 148.017 241.008 148.245 239.859C148.451 238.828 149.146 236.497 149.493 235.434C148.864 236.388 147.876 238.785 147.529 239.87C146.78 242.201 147.17 244.739 147.594 247.147C147.963 249.272 148.343 251.474 147.974 253.567C146.259 255.66 145 258.035 144.924 260.573L144.946 261.408C144.935 260.031 145.738 258.686 146.606 257.547C147.366 256.539 148.201 255.617 149.091 254.749C149.211 254.749 149.319 254.749 149.439 254.749C151.892 254.869 154.127 256.094 156.287 257.265C158.436 258.437 160.715 259.63 163.168 259.673C164.308 259.695 166.891 259.532 167.998 259.239C166.869 259.228 164.449 259.131 163.396 258.99C162.224 258.838 160.368 258.393 159.001 257.613C157.633 256.842 156.635 256.42 155.289 255.606C154.681 255.237 153.889 254.901 153.216 254.684C152.065 254.316 150.752 254.055 149.58 254.261C152.011 251.995 154.8 250.151 157.644 248.459C159.934 248.405 162.159 249.262 164.308 250.108C166.587 251.008 168.997 251.897 171.428 251.626C172.567 251.507 175.107 251.019 176.171 250.596C175.053 250.726 172.632 250.932 171.58 250.932C170.407 250.921 168.497 250.715 167.043 250.118C165.589 249.522 164.547 249.24 163.114 248.6C162.474 248.318 161.638 248.069 160.943 247.939C160.281 247.808 159.576 247.732 158.87 247.732C159.511 247.364 160.151 246.995 160.791 246.626C163.19 245.249 165.621 243.828 167.9 242.19C168.845 242.158 169.8 242.212 170.744 242.266C172.698 242.386 174.749 242.472 176.54 241.681C177.375 241.312 179.188 240.314 179.893 239.729C179.068 240.097 177.289 240.857 176.485 241.106C175.585 241.388 174.087 241.702 172.839 241.605C171.591 241.507 170.722 241.551 169.474 241.41C169.322 241.399 169.159 241.388 168.997 241.377C171.178 239.707 173.186 237.798 174.836 235.51C176.507 233.178 179.937 227.647 181.022 225.001C179.383 227.311 175.737 232.191 174 234.165C173.219 235.087 172.166 236.171 170.972 237.267Z" fill="#48A075"/>
<path d="M142.547 253.459C140.941 249.869 135.177 244.707 130.641 243.416C127.222 242.44 123.619 242.657 120.46 243.438C114.024 245.032 109.151 248.763 104.69 252.559C100.23 256.355 95.8774 260.378 89.9732 262.764C88.9095 263.198 87.8025 263.567 86.6955 263.946C94.0866 265.714 101.282 268.317 108.674 270.096C116.065 271.863 123.923 272.774 130.662 271.05C133.452 270.334 135.97 269.185 138.184 267.775C141.657 265.562 144.49 262.526 144.902 258.827C145.097 256.951 144.533 254.76 142.547 253.459Z" fill="#307F4C"/>
<path d="M105.125 263.057C107.903 262.71 112.331 261.679 115.587 259.868C116.347 259.445 117.063 259.066 117.758 258.708C117.128 258.589 116.401 258.382 115.837 258.122C114.491 257.537 113.503 257.265 112.136 256.723C110.768 256.17 108.977 255.986 107.87 255.986C106.883 255.986 104.614 256.203 103.562 256.333C104.56 255.931 106.937 255.454 108.001 255.335C110.291 255.075 112.548 255.888 114.697 256.723C116.097 257.265 117.541 257.808 119.006 258.079C120.764 257.189 122.436 256.376 124.422 255.194C125.236 254.706 126.202 254.24 127.179 253.838C126.81 253.773 126.451 253.686 126.115 253.578C125.485 253.394 124.726 253.09 124.15 252.765C122.87 252.038 121.926 251.669 120.623 250.975C119.321 250.281 117.562 249.912 116.466 249.793C115.489 249.685 113.21 249.663 112.147 249.674C113.178 249.381 115.598 249.164 116.672 249.153C118.973 249.131 121.133 250.194 123.184 251.235C124.888 252.114 126.658 253.003 128.535 253.307C128.817 253.209 129.089 253.112 129.36 253.025C130.836 252.559 132.432 252.168 134.016 251.984C133.539 251.723 133.007 251.376 132.616 251.029C131.683 250.205 130.945 249.739 129.99 248.947C129.024 248.155 127.624 247.548 126.734 247.266C125.93 247.017 124.042 246.604 123.163 246.442C124.074 246.366 126.115 246.594 127.005 246.767C128.926 247.136 130.532 248.383 132.063 249.598C133.115 250.433 134.19 251.29 135.384 251.886C137.652 251.821 139.844 252.266 141.592 253.643L142.21 254.196C141.179 253.307 139.703 253.177 138.347 253.231C137.522 253.263 136.708 253.361 135.905 253.491C134.298 255.107 133.506 257.352 132.757 259.51C131.997 261.679 131.162 263.935 129.479 265.508C128.698 266.245 126.799 267.753 125.844 268.252C126.614 267.536 128.253 265.942 128.893 265.193C129.61 264.347 130.63 262.872 131.086 261.473C131.552 260.074 131.987 259.163 132.41 257.753C132.594 257.124 132.942 256.376 133.267 255.812C133.701 255.053 134.255 254.283 134.917 253.697C132.16 254.272 129.501 255.346 126.918 256.593C125.93 257.84 125.192 259.326 124.498 260.779C123.488 262.851 122.403 264.987 120.547 266.354C119.679 266.994 117.617 268.273 116.618 268.653C117.476 268.024 119.277 266.636 119.994 265.963C120.797 265.215 121.98 263.859 122.609 262.525C123.228 261.191 123.771 260.335 124.357 258.979C124.574 258.48 124.899 257.927 125.225 257.439C124.161 257.981 123.109 258.545 122.067 259.109C116.933 261.864 111.528 264.64 105.7 264.694C102.986 264.716 96.8542 264.282 94.2386 263.577C96.8868 263.534 102.639 263.36 105.125 263.057Z" fill="#48A075"/>
<path d="M148.212 256.897C150.318 254.738 155.821 252.558 159.424 252.83C162.137 253.036 164.666 254.142 166.728 255.541C170.929 258.382 173.447 262.352 175.639 266.256C177.831 270.16 179.904 274.195 183.508 277.481C184.159 278.077 184.853 278.631 185.548 279.194C179.774 278.511 173.913 278.479 168.139 277.795C162.365 277.112 156.472 275.691 152.098 272.666C150.285 271.418 148.777 269.922 147.561 268.317C145.651 265.811 144.425 262.883 145.108 260.107C145.456 258.729 146.443 257.309 148.212 256.897Z" fill="#356654"/>
<path d="M172.546 273.674C170.646 272.698 167.738 270.778 165.882 268.62C165.448 268.111 165.035 267.655 164.634 267.221C165.111 267.297 165.697 267.341 166.164 267.308C167.293 267.243 168.063 267.308 169.192 267.275C170.321 267.243 171.656 267.579 172.448 267.872C173.154 268.132 174.727 268.891 175.455 269.26C174.847 268.707 173.262 267.742 172.524 267.362C170.95 266.571 169.116 266.56 167.347 266.581C166.197 266.603 165.024 266.614 163.896 266.408C162.865 265.312 161.888 264.282 160.77 262.905C160.314 262.341 159.739 261.744 159.153 261.202C159.435 261.245 159.717 261.278 159.988 261.3C160.499 261.332 161.117 261.311 161.616 261.235C162.724 261.05 163.505 261.039 164.623 260.888C165.741 260.736 167.097 260.931 167.922 261.137C168.66 261.321 170.299 261.907 171.059 262.2C170.397 261.712 168.715 260.92 167.944 260.627C166.294 259.998 164.46 260.193 162.713 260.4C161.258 260.573 159.75 260.747 158.317 260.475C158.143 260.334 157.97 260.193 157.796 260.052C156.863 259.326 155.821 258.632 154.725 258.079C155.137 258.014 155.604 257.905 155.984 257.764C156.874 257.417 157.525 257.287 158.426 256.962C159.326 256.647 160.488 256.582 161.204 256.615C161.844 256.647 163.31 256.853 163.982 256.962C163.353 256.669 161.823 256.289 161.128 256.181C159.652 255.942 158.165 256.408 156.743 256.875C155.767 257.2 154.768 257.526 153.748 257.645C152.141 256.994 150.448 256.734 148.831 257.265L148.245 257.493C149.222 257.135 150.318 257.428 151.273 257.829C151.859 258.068 152.413 258.35 152.966 258.664C153.693 260.259 153.661 262.07 153.639 263.816C153.607 265.573 153.607 267.416 154.399 268.989C154.768 269.726 155.734 271.31 156.287 271.917C155.918 271.191 155.17 269.618 154.909 268.913C154.616 268.121 154.28 266.787 154.323 265.659C154.356 264.532 154.29 263.762 154.356 262.634C154.388 262.124 154.345 261.506 154.258 261.007C154.149 260.345 153.954 259.651 153.639 259.055C155.463 260.193 157.091 261.668 158.621 263.252C159.001 264.412 159.131 265.67 159.25 266.896C159.424 268.653 159.641 270.475 160.607 271.95C161.063 272.633 162.203 274.097 162.821 274.639C162.376 273.967 161.443 272.492 161.106 271.82C160.726 271.06 160.238 269.781 160.14 268.653C160.043 267.536 159.891 266.766 159.826 265.649C159.804 265.237 159.717 264.749 159.609 264.315C160.227 264.987 160.835 265.67 161.443 266.354C164.406 269.683 167.553 273.11 171.721 274.694C173.664 275.431 178.179 276.733 180.252 276.928C178.342 276.201 174.25 274.553 172.546 273.674Z" fill="#48A075"/>
<path d="M0.61322 33.4533C6.26569 -8.50329 51.0583 0.901011 51.0583 0.901011C51.0583 0.901011 90.1985 3.53308 93.4305 38.4897C96.6625 73.4464 226.584 76.9748 226.584 76.9748H289.858V76.9321H484.661V76.8325H622.001V134.624H484.661H289.843H93.9573C93.9573 134.624 36.9343 135.933 60.0709 86.7917C76.8005 51.2375 57.7929 42.7722 45.9896 40.823C50.6454 44.5933 53.6212 50.2558 53.6212 56.6012C53.6212 67.9404 44.1672 77.1171 32.5062 77.1171C31.6804 77.1171 30.8689 77.0602 30.0716 76.9748L30.0858 76.989C30.0715 76.9748 -5.02502 75.4098 0.61322 33.4533Z" fill="#7C433E"/>
<path d="M152.034 141.837C156.249 130.427 160.036 118.561 160.89 106.126C161.744 93.6915 159.352 80.4885 152.447 71.1411" stroke="#592B29" stroke-width="7" stroke-miterlimit="10" stroke-linecap="round"/>
</svg>
