<svg id="Layer_1" data-name="Layer 1" xmlns="http://www.w3.org/2000/svg" viewBox="0 0 220.71 224.97"><defs><style>.cls-1{fill:#307f4c;}.cls-2{fill:#6b9660;}</style></defs><path class="cls-1" d="M121.47,198.49a30.57,30.57,0,0,1-5.89-.56c-14.74-2.84-26.41-16.29-33.75-38.9-5.55-17.07-9-34.93-12.43-52.2-4.11-21-8.37-42.7-16.3-62.73-5.35-13.5-11-22.2-18.38-28.19C27.19,9.78,15.08,5.76,5,10.58A3.5,3.5,0,1,1,2,4.27C13.1-1,28,1.44,39.14,10.48,50,19.28,56,32.41,59.6,41.52c8.18,20.63,12.49,42.66,16.67,64,3.34,17.07,6.8,34.72,12.22,51.39,4.53,14,13.15,31.24,28.41,34.19,12.19,2.35,23.58-5.44,29.29-10.29,23.92-20.33,32.4-53.1,38-85.49.46-2.66.91-5.34,1.36-8,5.1-30.09,10.37-61.2,28.84-85.86A3.5,3.5,0,0,1,220,5.6c-17.45,23.3-22.58,53.56-27.53,82.83-.46,2.69-.91,5.37-1.38,8-5.83,33.69-14.76,67.86-40.38,89.64C144.94,191,134.08,198.49,121.47,198.49Z"/><path class="cls-2" d="M64.59,62S84.9,45.68,97.33,85.18C97.33,85.18,56.91,86,64.59,62Z"/><path class="cls-2" d="M66.59,96s15.46,14.6-15.1,29.05C51.49,125.05,46.32,92.47,66.59,96Z"/><path class="cls-2" d="M80.47,139.48s10.82-18.3,31.67,8.3C112.14,147.78,81.51,160,80.47,139.48Z"/><path class="cls-2" d="M50.9,32.6s-2.21,21.15-32.24,5.65C18.66,38.25,41.4,14.35,50.9,32.6Z"/><path class="cls-2" d="M94.46,181s17,12.74-11.68,30.58C82.78,211.62,73.92,179.84,94.46,181Z"/><path class="cls-2" d="M126.63,194.33s21.2-1.75,11.54,30.64C138.17,225,110.46,207.06,126.63,194.33Z"/><path class="cls-2" d="M164.36,166.33S184.67,150,197.1,189.51C197.1,189.51,156.68,190.35,164.36,166.33Z"/><path class="cls-2" d="M165.92,156.86s-21.24-.84-7.72-31.81C158.2,125.05,183.53,146.2,165.92,156.86Z"/><path class="cls-2" d="M187,110.6S175.79,92.51,209,86.43C209,86.43,205.64,119.25,187,110.6Z"/><path class="cls-2" d="M194.18,54s-23.89,10.39-25.47-31C168.71,23,207.92,32.88,194.18,54Z"/></svg>