<svg width="481" height="370" viewBox="0 0 481 370" fill="none" xmlns="http://www.w3.org/2000/svg">
<path d="M341.144 297.004H319.834H281L294.543 361.273C295.495 365.777 299.465 369.004 304.073 369.004H319.845H341.155H356.927C361.535 369.004 365.505 365.777 366.457 361.273L380 297.004H341.144Z" fill="#CB862A"/>
<path d="M374.688 322.004L380 294.004H341.162H319.849H281L286.323 322.004" fill="#603835"/>
<path d="M331 145.004L283 274.004" stroke="#592B29" stroke-width="7" stroke-miterlimit="10" stroke-linecap="round"/>
<path d="M331 145.004L379 274.004" stroke="#592B29" stroke-width="7" stroke-miterlimit="10" stroke-linecap="round"/>
<path d="M332.697 144.683C335.16 139.561 336.883 134.083 337.794 128.463" stroke="#592B29" stroke-width="7" stroke-miterlimit="10" stroke-linecap="round"/>
<path d="M367.867 315.004H293.122C272.615 315.004 256 298.378 256 277.881C256 274.632 258.627 272.004 261.876 272.004H399.124C402.373 272.004 405 274.632 405 277.881C404.989 298.378 388.363 315.004 367.867 315.004Z" fill="#CB862A"/>
<path d="M365.435 258.458C367.042 254.869 372.805 249.706 377.342 248.416C380.76 247.44 384.364 247.657 387.522 248.437C393.958 250.032 398.831 253.762 403.292 257.558C407.753 261.354 412.105 265.378 418.009 267.764C419.073 268.197 420.18 268.566 421.287 268.946C413.896 270.714 406.7 273.316 399.309 275.095C391.918 276.863 384.06 277.774 377.32 276.049C374.531 275.334 372.013 274.184 369.799 272.774C366.325 270.562 363.493 267.525 363.08 263.827C362.885 261.961 363.449 259.771 365.435 258.458Z" fill="#307F4C"/>
<path d="M402.858 268.056C400.079 267.709 395.651 266.679 392.395 264.868C391.635 264.445 390.919 264.065 390.224 263.707C390.854 263.588 391.581 263.382 392.146 263.122C393.491 262.536 394.479 262.265 395.847 261.723C397.214 261.17 399.005 260.985 400.112 260.985C401.1 260.985 403.368 261.202 404.421 261.332C403.422 260.931 401.045 260.454 399.982 260.334C397.692 260.074 395.434 260.888 393.285 261.723C391.885 262.265 390.442 262.807 388.976 263.078C387.218 262.189 385.547 261.376 383.561 260.193C382.747 259.705 381.781 259.239 380.804 258.838C381.173 258.773 381.531 258.686 381.867 258.578C382.497 258.393 383.257 258.089 383.832 257.764C385.113 257.037 386.057 256.669 387.359 255.975C388.662 255.281 390.42 254.912 391.516 254.793C392.504 254.684 394.772 254.662 395.836 254.673C394.805 254.38 392.384 254.163 391.31 254.153C389.009 254.131 386.849 255.194 384.798 256.235C383.094 257.113 381.325 258.003 379.447 258.306C379.165 258.209 378.894 258.111 378.622 258.024C377.146 257.558 375.551 257.168 373.966 256.983C374.444 256.723 374.976 256.376 375.366 256.029C376.3 255.205 377.038 254.738 377.993 253.947C378.959 253.155 380.359 252.548 381.249 252.266C382.052 252.016 383.94 251.604 384.82 251.441C383.908 251.365 381.867 251.593 380.977 251.767C379.056 252.135 377.45 253.383 375.92 254.597C374.867 255.432 373.793 256.289 372.599 256.886C370.33 256.821 368.138 257.265 366.391 258.643L365.772 259.196C366.803 258.306 368.279 258.176 369.636 258.23C370.461 258.263 371.275 258.361 372.078 258.491C373.684 260.107 374.476 262.352 375.225 264.51C375.985 266.679 376.821 268.935 378.503 270.507C379.284 271.245 381.184 272.752 382.139 273.251C381.368 272.535 379.729 270.941 379.089 270.193C378.373 269.347 377.352 267.872 376.897 266.473C376.43 265.074 375.996 264.163 375.572 262.753C375.388 262.124 375.041 261.376 374.715 260.812C374.281 260.052 373.727 259.282 373.065 258.697C375.822 259.272 378.481 260.345 381.064 261.592C382.052 262.84 382.79 264.326 383.485 265.779C384.494 267.85 385.579 269.987 387.435 271.353C388.303 271.993 390.366 273.273 391.364 273.652C390.507 273.023 388.705 271.635 387.989 270.963C387.186 270.215 386.003 268.859 385.373 267.525C384.754 266.191 384.212 265.334 383.626 263.978C383.409 263.48 383.083 262.926 382.757 262.438C383.821 262.981 384.874 263.545 385.916 264.109C391.049 266.863 396.454 269.64 402.283 269.694C404.996 269.716 411.128 269.282 413.744 268.577C411.096 268.544 405.332 268.36 402.858 268.056Z" fill="#48A075"/>
<path d="M293.38 273.815C291.383 270.421 285.088 265.942 280.432 265.161C276.926 264.575 273.377 265.183 270.317 266.31C264.087 268.599 259.669 272.85 255.654 277.123C251.638 281.396 247.763 285.865 242.152 288.901C241.143 289.443 240.079 289.942 239.026 290.441C246.569 291.374 254.004 293.174 261.547 294.118C269.09 295.061 277.002 295.094 283.503 292.621C286.195 291.602 288.572 290.181 290.623 288.532C293.825 285.951 296.299 282.622 296.31 278.891C296.299 277.004 295.496 274.889 293.38 273.815Z" fill="#356654"/>
<path d="M290.059 271.061C288.507 270.421 286.792 270.323 285.055 270.551C284.133 270.226 283.113 269.922 282.516 269.781C280.378 269.293 278.164 269.835 276.047 270.388C273.931 270.941 271.727 271.516 269.579 271.093C269.079 270.996 268.547 270.822 268.254 270.399L268.428 270.649C269.405 271.896 271.261 272.058 272.845 271.95C273.475 271.907 274.235 271.776 274.842 271.592C276.177 271.18 277.132 271.028 278.489 270.659C279.835 270.28 281.55 270.291 282.592 270.41C282.982 270.453 283.579 270.562 284.22 270.681C282.082 271.093 279.933 271.961 278.044 272.894C276.59 273.62 274.886 274.65 273.649 275.637C273.28 275.93 272.932 276.201 272.585 276.462C271.022 276.96 269.199 276.95 267.43 276.939C265.346 276.917 263.175 276.928 261.504 277.817C260.722 278.229 259.072 279.303 258.486 279.91C259.257 279.498 260.939 278.663 261.71 278.381C262.578 278.056 264.076 277.676 265.411 277.709C266.746 277.741 267.647 277.655 268.982 277.731C269.589 277.763 270.306 277.709 270.87 277.611C270.946 277.6 271.022 277.579 271.098 277.568C269.416 278.761 267.82 279.813 265.921 281.244C265.671 281.429 265.4 281.613 265.14 281.787C263.805 282.047 262.35 282.036 260.918 282.025C258.834 282.004 256.663 282.014 254.992 282.904C254.21 283.316 252.56 284.39 251.974 284.997C252.745 284.585 254.427 283.75 255.198 283.468C256.066 283.142 257.564 282.763 258.899 282.795C260.234 282.828 261.135 282.741 262.47 282.817C262.806 282.839 263.175 282.828 263.544 282.795C261.08 284.194 258.291 285.301 256.327 285.919C253.971 286.656 248.393 287.914 245.788 288.435C248.48 288.511 254.525 287.686 257.173 287.144C259.876 286.591 262.361 285.528 264.716 284.227C264.13 285.084 263.587 285.756 262.936 286.7C262.155 287.86 260.842 288.955 259.973 289.541C259.192 290.062 257.293 291.103 256.392 291.558C257.39 291.352 259.517 290.452 260.429 289.986C262.372 288.977 263.718 287.133 264.966 285.333C265.498 284.574 266.04 283.804 266.626 283.088C268.048 282.199 269.437 281.234 270.783 280.268C270.816 280.268 270.859 280.268 270.892 280.279L270.805 280.257C271.207 279.965 271.608 279.672 272.01 279.379C271.912 279.531 271.814 279.672 271.717 279.824C271.391 280.355 271.055 281.06 270.859 281.657C270.425 282.99 269.991 283.847 269.513 285.17C269.036 286.483 268.037 287.871 267.343 288.652C266.713 289.346 265.129 290.821 264.369 291.493C265.281 291.049 267.126 289.649 267.896 288.977C269.535 287.524 270.382 285.398 271.152 283.348C271.901 281.353 272.693 279.292 274.202 277.796C274.549 277.546 274.897 277.308 275.244 277.058C275.374 277.015 275.515 276.982 275.656 276.982H275.353C276.546 276.147 277.773 275.345 279.021 274.607C278.609 275.334 278.315 276.147 278.098 276.928C277.914 277.622 277.762 278.501 277.74 279.227C277.686 280.832 277.48 281.928 277.382 283.544C277.284 285.149 276.622 287.003 276.101 288.099C275.635 289.075 274.354 291.211 273.735 292.187C274.604 291.396 276.199 289.27 276.818 288.272C278.164 286.136 278.413 283.522 278.598 281.006C278.782 278.598 278.988 276.104 280.128 273.978C282.223 272.839 284.437 271.907 286.825 271.343C288.138 271.039 289.603 270.855 290.775 271.397L290.059 271.061Z" fill="#48A075"/>
<path d="M308.987 268.414C305.883 267.33 299.121 267.688 295.355 269.477C292.523 270.822 290.243 272.915 288.572 275.084C285.175 279.487 284.035 284.194 283.199 288.717C282.364 293.239 281.734 297.816 279.151 302.371C278.684 303.195 278.153 304.009 277.632 304.811C283.569 301.72 289.842 299.193 295.768 296.102C301.704 293.012 307.457 289.194 310.984 284.552C312.438 282.633 313.47 280.626 314.153 278.631C315.217 275.518 315.391 272.308 313.578 270.052C312.677 268.924 311.06 268.035 308.987 268.414Z" fill="#356654"/>
<path d="M305.243 268.36C303.799 268.729 302.508 269.499 301.357 270.486C300.532 270.735 299.631 271.05 299.132 271.256C297.341 271.993 295.996 273.403 294.726 274.759C293.456 276.125 292.143 277.535 290.374 278.327C289.961 278.511 289.494 278.663 289.071 278.555L289.321 278.62C290.645 278.902 292.067 278.099 293.163 277.264C293.597 276.928 294.085 276.483 294.433 276.082C295.203 275.182 295.822 274.629 296.614 273.75C297.407 272.872 298.655 272.047 299.469 271.614C299.773 271.451 300.261 271.223 300.782 270.985C299.425 272.275 298.297 273.837 297.374 275.323C296.669 276.472 295.941 277.915 295.518 279.108C295.399 279.466 295.268 279.802 295.149 280.127C294.259 281.19 292.924 282.068 291.633 282.914C290.113 283.912 288.539 284.975 287.758 286.32C287.389 286.949 286.716 288.391 286.586 289.042C286.944 288.424 287.758 287.101 288.181 286.558C288.648 285.94 289.549 284.986 290.536 284.357C291.524 283.728 292.132 283.24 293.141 282.632C293.597 282.361 294.085 281.971 294.454 281.646C294.498 281.602 294.552 281.559 294.596 281.505C293.966 283.045 293.315 284.444 292.631 286.233C292.544 286.461 292.436 286.699 292.327 286.938C291.491 287.741 290.428 288.446 289.386 289.129C287.866 290.127 286.293 291.189 285.511 292.534C285.142 293.163 284.469 294.606 284.339 295.256C284.697 294.638 285.511 293.315 285.935 292.773C286.401 292.155 287.302 291.2 288.29 290.571C289.277 289.942 289.885 289.454 290.895 288.847C291.144 288.695 291.415 288.511 291.665 288.315C290.558 290.354 289.071 292.382 287.942 293.705C286.586 295.289 283.156 298.759 281.517 300.343C283.503 299.085 287.497 295.658 289.147 294.042C290.84 292.393 292.132 290.549 293.195 288.619C293.185 289.422 293.119 290.083 293.119 290.972C293.119 292.057 292.696 293.348 292.349 294.128C292.034 294.823 291.166 296.373 290.743 297.078C291.361 296.471 292.479 294.898 292.902 294.172C293.825 292.621 293.89 290.853 293.923 289.161C293.933 288.445 293.955 287.719 294.031 286.992C294.628 285.767 295.171 284.52 295.67 283.272C295.703 283.261 295.724 283.24 295.757 283.229L295.681 283.261C295.833 282.893 295.985 282.524 296.126 282.155C296.126 282.296 296.126 282.426 296.137 282.567C296.158 283.045 296.256 283.63 296.408 284.086C296.744 285.094 296.842 285.832 297.146 286.851C297.45 287.871 297.396 289.194 297.265 290.007C297.157 290.734 296.723 292.393 296.495 293.163C296.94 292.447 297.602 290.712 297.819 289.931C298.297 288.261 297.873 286.569 297.439 284.964C297.016 283.402 296.582 281.776 296.94 280.138C297.07 279.823 297.2 279.509 297.341 279.194C297.417 279.097 297.504 279.021 297.602 278.945L297.385 279.086C297.852 278.001 298.34 276.928 298.893 275.876C298.948 276.516 299.132 277.145 299.36 277.72C299.566 278.229 299.881 278.837 300.218 279.281C300.966 280.279 301.357 281.038 302.063 282.058C302.779 283.077 303.202 284.52 303.354 285.431C303.495 286.244 303.604 288.153 303.636 289.053C303.875 288.153 303.995 286.092 303.962 285.192C303.897 283.251 302.801 281.548 301.715 279.943C300.673 278.403 299.61 276.787 299.393 274.965C300.359 273.262 301.509 271.624 302.963 270.128C303.767 269.304 304.743 268.49 305.85 268.241L305.243 268.36Z" fill="#48A075"/>
<path d="M306.675 261.539C305.568 257.038 299.979 249.847 294.986 247.396C291.231 245.553 287.009 245.043 283.178 245.281C275.374 245.769 268.949 249.077 262.98 252.537C257.01 255.997 251.117 259.738 243.769 261.267C242.445 261.539 241.078 261.745 239.721 261.951C247.915 265.551 255.697 270.085 263.891 273.696C272.086 277.308 281.007 280.008 289.18 279.422C292.555 279.184 295.724 278.381 298.59 277.199C303.083 275.366 307.001 272.449 308.271 268.241C308.9 266.137 308.705 263.48 306.675 261.539Z" fill="#307F4C"/>
<path d="M302.074 257.406C300.489 256.083 298.459 255.433 296.31 255.183L296.386 255.107C296.354 255.14 296.31 255.151 296.278 255.183C295.399 255.086 294.487 255.053 293.586 255.075C291.73 254.467 289.95 253.253 288.225 252.06C286.108 250.596 283.872 249.099 281.55 248.849C280.465 248.73 278.033 248.687 277.002 248.904C278.066 249.012 280.367 249.327 281.365 249.565C282.483 249.836 284.274 250.487 285.62 251.442C286.966 252.407 287.942 252.938 289.267 253.947C289.864 254.391 290.645 254.836 291.285 255.14C291.35 255.172 291.416 255.194 291.481 255.227C290.493 255.324 289.516 255.476 288.583 255.649C286.781 255.986 284.621 256.582 282.961 257.287C282.787 257.363 282.635 257.417 282.472 257.482C280.823 257.038 279.173 256.192 277.567 255.368C275.277 254.185 272.867 253.003 270.534 253.047C269.448 253.068 267.028 253.339 266.03 253.686C267.104 253.665 269.427 253.676 270.447 253.784C271.586 253.903 273.453 254.316 274.908 255.096C276.362 255.877 277.404 256.279 278.847 257.103C279.499 257.471 280.323 257.808 281.007 258.014C281.029 258.025 281.051 258.025 281.072 258.035C278.272 259.109 275.884 259.803 272.813 260.996C271.652 261.441 270.382 261.799 269.079 262.092C267.831 261.777 266.594 261.137 265.378 260.519C263.696 259.651 261.938 258.784 260.223 258.816C259.42 258.827 257.651 259.033 256.924 259.283C257.705 259.261 259.409 259.272 260.158 259.348C260.994 259.434 262.361 259.738 263.425 260.313C264.488 260.888 265.259 261.181 266.312 261.777C266.724 262.005 267.223 262.222 267.668 262.374C265.205 262.829 262.774 263.046 260.972 263.089C258.204 263.154 251.822 262.775 248.859 262.536C251.703 263.469 258.454 264.478 261.46 264.716C267.213 265.161 272.78 263.469 278.098 261.538C277.653 261.961 277.208 262.428 276.872 262.872C275.765 264.337 274.853 265.226 273.692 266.647C272.542 268.078 270.696 269.369 269.492 270.041C268.417 270.638 265.812 271.787 264.586 272.286C265.921 272.123 268.797 271.191 270.034 270.67C272.694 269.564 274.647 267.297 276.492 265.085C277.892 263.393 279.347 261.658 281.127 260.411C282.331 259.966 283.547 259.532 284.762 259.109C284.773 259.109 284.795 259.109 284.817 259.12L284.784 259.109C286.13 258.654 287.498 258.231 288.865 257.862C288.17 258.534 287.563 259.348 287.074 260.15C286.64 260.855 286.195 261.766 285.945 262.558C285.381 264.304 284.806 265.443 284.176 267.167C283.558 268.892 282.244 270.714 281.322 271.744C280.497 272.666 278.413 274.596 277.426 275.475C278.63 274.889 281.051 273.056 282.049 272.167C284.198 270.258 285.305 267.471 286.325 264.781C287.313 262.178 288.344 259.478 290.309 257.515C292.425 257.027 294.563 256.723 296.745 256.68C295.42 257.352 294.357 258.686 293.575 259.977C293.141 260.682 292.696 261.593 292.447 262.384C291.882 264.131 291.307 265.269 290.678 266.994C290.059 268.718 288.746 270.54 287.823 271.57C286.998 272.492 284.914 274.423 283.927 275.301C285.131 274.716 287.552 272.883 288.55 271.993C290.699 270.085 291.806 267.297 292.827 264.608C293.847 261.918 294.899 259.12 296.983 257.146C297.157 256.973 297.363 256.821 297.559 256.68C297.862 256.68 298.177 256.691 298.481 256.701C299.99 256.777 301.607 257.049 302.681 258.003L302.074 257.406Z" fill="#48A075"/>
<path d="M363.026 269.499C365.175 267.493 370.645 265.628 374.151 266.061C376.788 266.387 379.198 267.591 381.151 269.044C385.113 272.015 387.381 276.007 389.335 279.911C391.299 283.826 393.122 287.86 396.487 291.222C397.095 291.83 397.746 292.415 398.397 292.99C392.797 292.047 387.088 291.743 381.488 290.81C375.887 289.878 370.211 288.207 366.087 285.051C364.383 283.75 362.983 282.221 361.865 280.605C360.128 278.067 359.065 275.161 359.857 272.482C360.248 271.159 361.279 269.825 363.026 269.499Z" fill="#307F4C"/>
<path d="M385.97 287.015C384.158 285.974 381.412 283.967 379.708 281.777C379.306 281.256 378.926 280.79 378.557 280.345C379.024 280.443 379.588 280.508 380.055 280.508C381.151 280.497 381.911 280.605 383.007 280.616C384.103 280.638 385.395 281.028 386.155 281.354C386.838 281.646 388.336 282.449 389.02 282.839C388.455 282.275 386.958 281.256 386.252 280.855C384.754 280.009 382.964 279.911 381.238 279.857C380.12 279.824 378.97 279.77 377.884 279.532C376.929 278.415 376.028 277.363 375.008 275.963C374.585 275.389 374.064 274.792 373.51 274.228C373.782 274.282 374.053 274.326 374.324 274.358C374.813 274.413 375.421 274.423 375.92 274.369C377.016 274.239 377.776 274.272 378.872 274.174C379.968 274.076 381.292 274.337 382.074 274.575C382.779 274.792 384.353 275.432 385.08 275.757C384.461 275.248 382.855 274.402 382.117 274.076C380.543 273.393 378.742 273.491 377.027 273.61C375.594 273.719 374.118 273.816 372.74 273.48C372.577 273.328 372.414 273.187 372.251 273.046C371.372 272.298 370.395 271.56 369.354 270.975C369.755 270.931 370.222 270.845 370.602 270.725C371.492 270.432 372.121 270.324 373.022 270.064C373.912 269.793 375.052 269.793 375.757 269.858C376.376 269.923 377.797 270.183 378.449 270.335C377.841 270.02 376.376 269.576 375.703 269.435C374.281 269.131 372.805 269.521 371.394 269.912C370.428 270.183 369.43 270.454 368.442 270.519C366.901 269.814 365.262 269.478 363.656 269.923L363.069 270.118C364.035 269.814 365.088 270.15 366.011 270.584C366.564 270.845 367.107 271.148 367.617 271.474C368.247 273.057 368.138 274.825 368.029 276.527C367.921 278.241 367.834 280.041 368.529 281.603C368.854 282.341 369.723 283.924 370.233 284.542C369.907 283.826 369.256 282.254 369.028 281.549C368.778 280.757 368.518 279.445 368.605 278.349C368.692 277.254 368.659 276.495 368.778 275.4C368.833 274.912 368.822 274.304 368.757 273.805C368.681 273.155 368.529 272.46 368.247 271.864C369.972 273.068 371.492 274.575 372.903 276.191C373.217 277.341 373.293 278.577 373.348 279.77C373.434 281.484 373.554 283.284 374.433 284.759C374.845 285.453 375.887 286.928 376.463 287.492C376.061 286.809 375.225 285.334 374.921 284.661C374.585 283.913 374.172 282.633 374.129 281.527C374.086 280.432 373.966 279.673 373.966 278.577C373.966 278.165 373.901 277.688 373.814 277.265C374.39 277.948 374.943 278.642 375.507 279.336C378.232 282.72 381.14 286.212 385.134 287.948C386.99 288.761 391.342 290.247 393.35 290.529C391.494 289.748 387.587 287.948 385.97 287.015Z" fill="#48A075"/>
<path d="M346.876 264.033C351.435 261.528 360.845 260.237 365.761 261.962C369.462 263.263 372.23 265.855 374.14 268.729C378.025 274.575 378.677 281.505 378.926 288.218C379.187 294.931 379.154 301.807 381.868 308.098C382.356 309.236 382.931 310.332 383.506 311.438C375.811 308.293 367.53 306.124 359.824 302.979C352.118 299.833 344.825 295.539 340.82 289.357C339.17 286.808 338.128 283.988 337.564 281.125C336.696 276.635 337.097 271.744 340.093 267.796C341.612 265.812 344.054 264.011 346.876 264.033Z" fill="#356654"/>
<path d="M365.87 291.884C366.13 292.047 366.391 292.188 366.651 292.318C367.118 292.546 367.715 292.773 368.214 292.893C369.343 293.153 370.081 293.446 371.199 293.75C372.317 294.042 373.532 294.769 374.227 295.29C374.845 295.756 376.17 296.949 376.777 297.524C376.343 296.808 375.062 295.387 374.455 294.812C373.141 293.576 371.329 293.034 369.592 292.546C368.051 292.112 366.445 291.656 365.164 290.724C364.263 289.195 363.449 287.546 362.918 285.984C362.733 285.431 362.538 284.911 362.353 284.401C362.559 284.488 362.776 284.564 362.983 284.64C363.569 284.835 364.307 285.019 364.925 285.073C366.293 285.203 367.215 285.442 368.583 285.616C369.951 285.789 371.492 286.451 372.403 286.95C373.207 287.405 374.965 288.609 375.768 289.195C375.138 288.414 373.413 286.939 372.599 286.353C370.851 285.095 368.626 284.737 366.499 284.433C364.98 284.217 363.428 283.989 362.006 283.447C361.203 281.332 360.432 279.466 359.672 277.026C359.488 276.44 359.249 275.822 358.989 275.193C359.575 275.54 360.226 275.811 360.855 276.007C361.485 276.213 362.277 276.386 362.939 276.44C364.404 276.56 365.392 276.798 366.857 276.972C368.323 277.135 369.983 277.829 370.949 278.349C371.817 278.816 373.706 280.085 374.574 280.703C373.89 279.878 372.024 278.328 371.144 277.709C369.256 276.386 366.879 276.039 364.6 275.746C362.516 275.475 360.367 275.182 358.533 274.185C358.229 273.523 357.903 272.872 357.578 272.298C356.959 271.202 356.254 270.085 355.461 269.033C355.95 269.207 356.449 269.337 356.937 269.434C357.589 269.565 358.403 269.64 359.054 269.608C360.53 269.543 361.539 269.662 363.004 269.651C364.48 269.63 366.206 270.118 367.237 270.519C368.16 270.877 370.189 271.907 371.123 272.406C370.341 271.669 368.301 270.367 367.346 269.857C365.316 268.784 362.907 268.729 360.606 268.708C358.587 268.697 356.481 268.686 354.604 267.992C352.954 266.062 350.968 264.5 348.634 264.023L347.864 263.903C349.134 264.12 350.241 265.085 351.163 266.072C351.966 266.94 352.683 267.873 353.334 268.827C353.312 268.936 353.301 269.044 353.28 269.142C352.759 271.387 351.261 273.252 349.818 275.041C348.374 276.831 346.898 278.729 346.453 280.985C346.247 282.037 345.965 284.444 346.051 285.518C346.247 284.477 346.735 282.254 347.039 281.321C347.375 280.269 348.103 278.62 349.036 277.492C349.98 276.365 350.523 275.508 351.5 274.402C351.934 273.903 352.39 273.23 352.705 272.645C353.236 271.647 353.692 270.476 353.692 269.359C355.385 271.983 356.623 274.857 357.719 277.764C357.393 279.889 356.221 281.798 355.092 283.642C353.888 285.605 352.661 287.665 352.509 289.965C352.433 291.038 352.466 293.457 352.683 294.509C352.748 293.457 352.954 291.19 353.139 290.214C353.334 289.129 353.844 287.405 354.636 286.158C355.429 284.922 355.863 284 356.688 282.785C357.057 282.243 357.426 281.505 357.654 280.887C357.882 280.301 358.077 279.651 358.185 279.011C358.424 279.662 358.652 280.312 358.891 280.963C359.759 283.403 360.671 285.887 361.81 288.262C361.691 289.14 361.474 290.019 361.268 290.876C360.834 292.665 360.41 294.53 360.855 296.32C361.062 297.155 361.68 298.988 362.104 299.736C361.897 298.912 361.496 297.144 361.387 296.363C361.268 295.485 361.235 294.053 361.539 292.914C361.832 291.776 361.941 290.973 362.277 289.845C362.321 289.704 362.353 289.563 362.386 289.411C363.569 291.711 365.001 293.88 366.846 295.778C368.724 297.708 373.272 301.786 375.54 303.239C373.684 301.341 369.777 297.166 368.236 295.235C367.519 294.335 366.684 293.175 365.87 291.884Z" fill="#48A075"/>
<path d="M332.343 261.81C326.059 260.552 314.533 262.504 309.389 266.343C305.525 269.239 303.224 273.306 302.052 277.384C299.653 285.68 301.444 294.064 303.625 302.046C305.807 310.028 308.379 318.097 307.511 326.48C307.359 327.988 307.088 329.506 306.816 331.014C314.685 324.474 323.617 318.867 331.508 312.349C339.387 305.82 346.377 298.066 348.797 289.335C349.796 285.724 349.98 282.036 349.579 278.457C348.938 272.861 346.67 267.265 341.677 263.729C339.192 261.951 335.654 260.747 332.343 261.81Z" fill="#307F4C"/>
<path d="M338.823 282.025C337.868 278.956 335.534 276.548 333.266 274.282C330.998 272.015 328.632 269.651 327.579 266.614C327.47 266.299 327.383 265.963 327.34 265.638C328.013 264.304 328.903 263.024 330.151 262.384L329.283 262.807C327.264 263.935 325.745 265.768 324.594 267.915C322.749 269.206 320.253 269.705 317.843 270.171C315.325 270.659 312.71 271.212 310.908 272.687C310.072 273.371 308.347 275.073 307.782 275.952C308.607 275.268 310.431 273.848 311.288 273.305C312.254 272.698 313.969 271.874 315.586 271.581C317.203 271.288 318.267 270.974 319.905 270.724C320.644 270.616 321.501 270.366 322.163 270.106C322.771 269.868 323.389 269.575 323.932 269.228C322.977 271.342 322.326 273.653 321.87 275.832C321.675 276.754 321.512 277.763 321.392 278.793C321.338 278.837 321.284 278.88 321.23 278.923C319.363 280.344 316.747 280.854 314.229 281.342C311.711 281.83 309.096 282.383 307.294 283.858C306.458 284.541 304.732 286.244 304.168 287.122C304.993 286.439 306.816 285.018 307.674 284.476C308.64 283.869 310.355 283.045 311.972 282.752C313.589 282.459 314.652 282.144 316.291 281.895C317.029 281.787 317.887 281.537 318.549 281.277C319.569 280.876 320.611 280.333 321.295 279.607C321.208 280.496 321.154 281.374 321.154 282.166C321.164 284.877 321.002 287.079 320.861 289.411C319.547 290.419 317.952 291.222 316.4 292.003C314.099 293.142 311.733 294.367 310.387 296.265C309.758 297.154 308.553 299.247 308.249 300.245C308.857 299.367 310.246 297.512 310.93 296.764C311.7 295.918 313.133 294.671 314.609 293.966C316.096 293.261 317.029 292.664 318.538 291.992C319.222 291.688 319.981 291.222 320.546 290.799C320.622 290.734 320.709 290.669 320.785 290.615C320.73 291.645 320.676 292.729 320.644 293.901C320.546 298.261 319.037 303.542 317.811 306.72C316.715 309.55 313.665 315.895 312.189 318.812C314.316 316.275 318.147 309.811 319.645 306.85C320.535 305.071 321.208 303.228 321.729 301.351V301.362C322.261 303 322.445 304.182 322.923 305.831C323.4 307.49 323.411 309.594 323.27 310.874C323.151 312.023 322.63 314.637 322.358 315.852C322.944 314.745 323.78 312.023 324.051 310.798C324.627 308.162 323.943 305.44 323.227 302.837C322.868 301.536 322.51 300.213 322.304 298.879C322.684 297.024 322.934 295.148 323.096 293.261C323.107 293.261 323.107 293.25 323.118 293.239L323.096 293.25C323.194 292.165 323.27 291.081 323.335 289.996C323.465 290.387 323.617 290.766 323.791 291.135C324.106 291.84 324.583 292.664 325.061 293.283C326.114 294.649 326.689 295.69 327.698 297.078C328.708 298.477 329.424 300.451 329.739 301.709C330.021 302.826 330.412 305.462 330.574 306.698C330.748 305.451 330.618 302.62 330.455 301.373C330.108 298.705 328.534 296.373 326.982 294.161C325.506 292.046 323.976 289.855 323.465 287.339C323.476 287.068 323.487 286.797 323.498 286.515C323.509 286.114 323.531 285.723 323.541 285.322C323.563 285.268 323.585 285.214 323.617 285.159L323.541 285.268C323.639 282.849 323.758 280.398 324.03 277.969C324.42 279.151 325.072 280.29 325.755 281.298C326.331 282.134 327.123 283.099 327.872 283.782C329.543 285.3 330.52 286.515 332.137 288.088C333.754 289.66 335.133 292.046 335.817 293.597C336.424 294.985 337.542 298.293 338.02 299.844C337.965 298.195 337.151 294.573 336.663 293.001C335.61 289.639 333.049 286.981 330.553 284.487C328.056 281.993 325.462 279.39 324.301 276.06C324.29 276.039 324.29 276.006 324.279 275.973C324.757 272.687 325.549 269.455 326.971 266.364C326.949 268.111 327.861 269.922 328.87 271.397C329.391 272.156 330.119 273.034 330.802 273.653C332.322 275.041 333.212 276.147 334.688 277.568C336.164 278.999 337.412 281.168 338.041 282.578C338.595 283.836 339.615 286.851 340.038 288.261C340.017 286.754 339.268 283.457 338.823 282.025Z" fill="#48A075"/>
<path d="M347.473 259.792C344.011 256.745 340.104 249.294 340.071 244.685C340.039 241.214 341.374 238.123 343.197 235.672C346.909 230.684 352.487 228.059 358.023 225.825C363.558 223.591 369.299 221.552 373.717 217.398C374.52 216.65 375.269 215.836 376.017 215.023C375.703 222.376 376.387 229.935 376.083 237.288C375.779 244.641 374.379 252.027 370.428 257.211C368.8 259.359 366.76 261.072 364.535 262.395C361.051 264.467 356.85 265.605 352.65 264.293C350.534 263.642 348.298 262.146 347.473 259.792Z" fill="#356654"/>
<path d="M365.001 235.596C365.056 235.336 365.099 235.065 365.132 234.816C365.186 234.36 365.197 233.796 365.142 233.341C365.023 232.321 365.045 231.616 364.958 230.597C364.871 229.577 365.11 228.352 365.327 227.614C365.522 226.953 366.13 225.489 366.423 224.816C365.956 225.391 365.153 226.888 364.86 227.571C364.22 229.035 364.318 230.705 364.426 232.31C364.524 233.731 364.632 235.195 364.242 236.551C363.232 237.755 362.103 238.937 360.964 239.848C360.551 240.173 360.182 240.488 359.813 240.791C359.824 240.596 359.824 240.39 359.824 240.195C359.813 239.642 359.737 238.98 359.607 238.449C359.303 237.267 359.227 236.432 358.956 235.239C358.685 234.046 358.772 232.56 358.923 231.66C359.054 230.857 359.531 229.024 359.781 228.189C359.314 228.948 358.609 230.835 358.37 231.692C357.849 233.525 358.218 235.488 358.609 237.353C358.88 238.677 359.162 240.043 359.141 241.388C357.61 242.689 356.297 243.893 354.484 245.26C354.05 245.585 353.605 245.975 353.16 246.388C353.269 245.791 353.301 245.173 353.28 244.587C353.258 244.002 353.171 243.286 353.019 242.722C352.683 241.464 352.585 240.564 352.281 239.295C351.977 238.026 352.053 236.432 352.205 235.466C352.335 234.599 352.824 232.647 353.074 231.746C352.585 232.56 351.858 234.588 351.608 235.499C351.076 237.462 351.5 239.555 351.934 241.54C352.335 243.351 352.737 245.238 352.455 247.06C351.999 247.515 351.554 247.982 351.163 248.426C350.436 249.272 349.709 250.194 349.069 251.17C349.069 250.715 349.025 250.259 348.96 249.826C348.873 249.251 348.689 248.546 348.472 248.003C347.983 246.8 347.766 245.921 347.31 244.696C346.854 243.47 346.735 241.887 346.757 240.911C346.779 240.032 347.028 238.037 347.158 237.104C346.779 237.972 346.301 240.076 346.171 241.008C345.878 243.025 346.561 245.043 347.245 246.962C347.842 248.654 348.461 250.4 348.45 252.179C347.332 254.131 346.637 256.257 346.93 258.339L347.061 259.011C346.855 257.884 347.332 256.669 347.886 255.617C348.374 254.684 348.928 253.806 349.535 252.981C349.633 252.96 349.72 252.949 349.817 252.938C351.847 252.689 353.855 253.383 355.787 254.044C357.719 254.706 359.748 255.367 361.756 255.053C362.7 254.912 364.795 254.413 365.663 254.023C364.741 254.164 362.733 254.435 361.865 254.467C360.888 254.5 359.292 254.391 358.066 253.958C356.84 253.513 355.96 253.318 354.745 252.83C354.202 252.613 353.497 252.439 352.922 252.363C351.923 252.222 350.816 252.19 349.883 252.526C351.565 250.324 353.594 248.426 355.689 246.648C357.556 246.29 359.499 246.68 361.376 247.071C363.373 247.483 365.468 247.884 367.432 247.331C368.344 247.071 370.363 246.312 371.177 245.824C370.276 246.084 368.322 246.594 367.454 246.735C366.488 246.897 364.893 246.984 363.623 246.702C362.353 246.42 361.452 246.322 360.193 246.008C359.629 245.867 358.913 245.78 358.327 245.769C357.762 245.759 357.176 245.791 356.601 245.889C357.078 245.498 357.545 245.108 358.023 244.717C359.792 243.253 361.593 241.757 363.232 240.097C364.003 239.935 364.795 239.848 365.577 239.761C367.194 239.588 368.887 239.381 370.244 238.47C370.873 238.048 372.219 236.985 372.718 236.399C372.099 236.822 370.732 237.69 370.113 238.004C369.419 238.362 368.225 238.828 367.194 238.915C366.152 239.013 365.446 239.165 364.415 239.23C364.285 239.24 364.155 239.251 364.025 239.273C365.587 237.592 366.966 235.759 367.997 233.644C369.05 231.497 371.079 226.486 371.611 224.166C370.58 226.28 368.279 230.792 367.129 232.657C366.543 233.482 365.826 234.534 365.001 235.596Z" fill="#48A075"/>
<path d="M335.697 262.428C339.181 258.111 342.318 248.503 341.428 243.026C340.766 238.904 338.552 235.51 335.903 232.972C330.498 227.81 323.346 225.814 316.346 224.285C309.345 222.756 302.117 221.487 296.039 217.463C294.943 216.737 293.89 215.923 292.837 215.11C294.693 223.764 295.41 232.853 297.255 241.518C299.1 250.173 302.247 258.643 307.978 264C310.344 266.213 313.1 267.84 316.009 268.957C320.557 270.714 325.766 271.213 330.477 268.816C332.843 267.612 335.187 265.389 335.697 262.428Z" fill="#307F4C"/>
<path d="M310.029 237.267C309.91 236.963 309.801 236.659 309.714 236.367C309.562 235.835 309.432 235.163 309.399 234.61C309.334 233.384 309.161 232.549 309.063 231.324C308.965 230.098 308.434 228.688 308.021 227.864C307.652 227.126 306.643 225.51 306.154 224.773C306.827 225.369 308.075 226.975 308.564 227.723C309.617 229.339 309.844 231.334 310.029 233.243C310.192 234.946 310.365 236.703 311.103 238.232C312.547 239.457 314.121 240.629 315.662 241.486C316.215 241.789 316.726 242.082 317.214 242.375C317.16 242.136 317.116 241.898 317.084 241.67C316.986 241.019 316.943 240.206 316.997 239.555C317.116 238.091 317.04 237.082 317.127 235.618C317.203 234.154 316.801 232.408 316.443 231.367C316.118 230.434 315.184 228.374 314.728 227.419C315.434 228.222 316.65 230.315 317.116 231.28C318.104 233.352 318.06 235.748 317.974 238.037C317.919 239.664 317.865 241.345 318.169 242.928C320.242 244.164 322.044 245.325 324.475 246.583C325.05 246.876 325.658 247.255 326.276 247.646C326.027 246.962 325.864 246.225 325.766 245.531C325.669 244.837 325.636 243.969 325.701 243.264C325.853 241.702 325.788 240.618 325.886 239.056C325.983 237.494 325.582 235.618 325.202 234.501C324.866 233.503 323.9 231.28 323.422 230.261C324.16 231.128 325.441 233.384 325.918 234.414C326.949 236.638 326.873 239.197 326.754 241.648C326.646 243.882 326.548 246.192 327.253 248.296C327.894 248.741 328.512 249.207 329.055 249.663C330.086 250.509 331.128 251.463 332.083 252.494C331.996 251.951 331.953 251.398 331.942 250.867C331.931 250.162 332.007 249.294 332.159 248.611C332.495 247.082 332.571 245.997 332.864 244.457C333.158 242.917 332.984 241.008 332.756 239.859C332.55 238.828 331.855 236.497 331.508 235.434C332.137 236.388 333.125 238.785 333.472 239.87C334.221 242.201 333.83 244.739 333.407 247.147C333.038 249.272 332.658 251.474 333.027 253.567C334.742 255.66 336.001 258.035 336.077 260.573L336.055 261.408C336.066 260.031 335.263 258.686 334.395 257.547C333.635 256.539 332.799 255.617 331.909 254.749C331.79 254.749 331.681 254.749 331.562 254.749C329.109 254.869 326.873 256.094 324.714 257.265C322.565 258.437 320.285 259.63 317.833 259.673C316.693 259.695 314.11 259.532 313.003 259.239C314.132 259.228 316.552 259.131 317.605 258.99C318.777 258.838 320.633 258.393 322 257.613C323.368 256.842 324.366 256.42 325.712 255.606C326.32 255.237 327.112 254.901 327.785 254.684C328.936 254.316 330.249 254.055 331.421 254.261C328.99 251.995 326.201 250.151 323.357 248.459C321.067 248.405 318.842 249.262 316.693 250.108C314.414 251.008 312.004 251.897 309.573 251.626C308.434 251.507 305.894 251.019 304.83 250.596C305.948 250.726 308.368 250.932 309.421 250.932C310.593 250.921 312.504 250.715 313.958 250.118C315.412 249.522 316.454 249.24 317.887 248.6C318.527 248.318 319.363 248.069 320.057 247.939C320.72 247.808 321.425 247.732 322.13 247.732C321.49 247.364 320.85 246.995 320.209 246.626C317.811 245.249 315.38 243.828 313.1 242.19C312.156 242.158 311.201 242.212 310.257 242.266C308.303 242.386 306.252 242.472 304.461 241.681C303.625 241.312 301.813 240.314 301.108 239.729C301.932 240.097 303.712 240.857 304.515 241.106C305.416 241.388 306.914 241.702 308.162 241.605C309.41 241.507 310.279 241.551 311.527 241.41C311.679 241.399 311.841 241.388 312.004 241.377C309.823 239.707 307.815 237.798 306.165 235.51C304.494 233.178 301.064 227.647 299.979 225.001C301.618 227.311 305.264 232.191 307.001 234.165C307.782 235.087 308.835 236.171 310.029 237.267Z" fill="#48A075"/>
<path d="M338.454 253.459C340.06 249.869 345.824 244.707 350.36 243.416C353.779 242.44 357.382 242.657 360.541 243.438C366.977 245.032 371.85 248.763 376.311 252.559C380.771 256.355 385.124 260.378 391.028 262.764C392.091 263.198 393.198 263.567 394.306 263.946C386.914 265.714 379.719 268.317 372.327 270.096C364.936 271.863 357.078 272.774 350.338 271.05C347.549 270.334 345.031 269.185 342.817 267.775C339.344 265.562 336.511 262.526 336.099 258.827C335.904 256.951 336.468 254.76 338.454 253.459Z" fill="#307F4C"/>
<path d="M375.876 263.057C373.098 262.71 368.67 261.679 365.414 259.868C364.654 259.445 363.938 259.066 363.243 258.708C363.873 258.589 364.6 258.382 365.164 258.122C366.51 257.537 367.498 257.265 368.865 256.723C370.233 256.17 372.024 255.986 373.131 255.986C374.118 255.986 376.387 256.203 377.439 256.333C376.441 255.931 374.064 255.454 373 255.335C370.71 255.075 368.453 255.888 366.304 256.723C364.904 257.265 363.46 257.808 361.995 258.079C360.237 257.189 358.565 256.376 356.579 255.194C355.765 254.706 354.799 254.24 353.822 253.838C354.191 253.773 354.55 253.686 354.886 253.578C355.516 253.394 356.275 253.09 356.851 252.765C358.131 252.038 359.075 251.669 360.378 250.975C361.68 250.281 363.439 249.912 364.535 249.793C365.512 249.685 367.791 249.663 368.854 249.674C367.823 249.381 365.403 249.164 364.329 249.153C362.028 249.131 359.868 250.194 357.816 251.235C356.113 252.114 354.343 253.003 352.466 253.307C352.184 253.209 351.912 253.112 351.641 253.025C350.165 252.559 348.569 252.168 346.985 251.984C347.462 251.723 347.994 251.376 348.385 251.029C349.318 250.205 350.056 249.739 351.011 248.947C351.977 248.155 353.377 247.548 354.267 247.266C355.071 247.017 356.959 246.604 357.838 246.442C356.926 246.366 354.886 246.594 353.996 246.767C352.075 247.136 350.469 248.383 348.938 249.598C347.886 250.433 346.811 251.29 345.617 251.886C343.349 251.821 341.157 252.266 339.409 253.643L338.791 254.196C339.822 253.307 341.298 253.177 342.654 253.231C343.479 253.263 344.293 253.361 345.096 253.491C346.703 255.107 347.495 257.352 348.244 259.51C349.004 261.679 349.839 263.935 351.522 265.508C352.303 266.245 354.202 267.753 355.157 268.252C354.387 267.536 352.748 265.942 352.108 265.193C351.391 264.347 350.371 262.872 349.915 261.473C349.449 260.074 349.014 259.163 348.591 257.753C348.407 257.124 348.059 256.376 347.734 255.812C347.3 255.053 346.746 254.283 346.084 253.697C348.841 254.272 351.5 255.346 354.083 256.593C355.071 257.84 355.809 259.326 356.503 260.779C357.513 262.851 358.598 264.987 360.454 266.354C361.322 266.994 363.384 268.273 364.383 268.653C363.525 268.024 361.724 266.636 361.007 265.963C360.204 265.215 359.021 263.859 358.392 262.525C357.773 261.191 357.23 260.335 356.644 258.979C356.427 258.48 356.102 257.927 355.776 257.439C356.84 257.981 357.892 258.545 358.934 259.109C364.068 261.864 369.473 264.64 375.301 264.694C378.015 264.716 384.147 264.282 386.762 263.577C384.114 263.534 378.362 263.36 375.876 263.057Z" fill="#48A075"/>
<path d="M332.789 256.897C330.683 254.738 325.18 252.558 321.577 252.83C318.864 253.036 316.335 254.142 314.273 255.541C310.072 258.382 307.554 262.352 305.362 266.256C303.17 270.16 301.097 274.195 297.493 277.481C296.842 278.077 296.147 278.631 295.453 279.194C301.227 278.511 307.088 278.479 312.862 277.795C318.636 277.112 324.529 275.691 328.903 272.666C330.715 271.418 332.224 269.922 333.44 268.317C335.35 265.811 336.576 262.883 335.893 260.107C335.545 258.729 334.558 257.309 332.789 256.897Z" fill="#356654"/>
<path d="M308.455 273.674C310.355 272.698 313.263 270.778 315.119 268.62C315.553 268.111 315.966 267.655 316.367 267.221C315.89 267.297 315.304 267.341 314.837 267.308C313.708 267.243 312.938 267.308 311.809 267.275C310.68 267.243 309.345 267.579 308.553 267.872C307.847 268.132 306.274 268.891 305.546 269.26C306.154 268.707 307.739 267.742 308.477 267.362C310.051 266.571 311.885 266.56 313.654 266.581C314.804 266.603 315.977 266.614 317.105 266.408C318.136 265.312 319.113 264.282 320.231 262.905C320.687 262.341 321.262 261.744 321.848 261.202C321.566 261.245 321.284 261.278 321.013 261.3C320.502 261.332 319.884 261.311 319.385 261.235C318.277 261.05 317.496 261.039 316.378 260.888C315.26 260.736 313.904 260.931 313.079 261.137C312.341 261.321 310.702 261.907 309.942 262.2C310.604 261.712 312.286 260.92 313.057 260.627C314.707 259.998 316.541 260.193 318.288 260.4C319.743 260.573 321.251 260.747 322.684 260.475C322.858 260.334 323.031 260.193 323.205 260.052C324.138 259.326 325.18 258.632 326.276 258.079C325.864 258.014 325.397 257.905 325.017 257.764C324.127 257.417 323.476 257.287 322.575 256.962C321.675 256.647 320.513 256.582 319.797 256.615C319.157 256.647 317.691 256.853 317.018 256.962C317.648 256.669 319.178 256.289 319.873 256.181C321.349 255.942 322.836 256.408 324.258 256.875C325.234 257.2 326.233 257.526 327.253 257.645C328.86 256.994 330.553 256.734 332.17 257.265L332.756 257.493C331.779 257.135 330.683 257.428 329.728 257.829C329.142 258.068 328.588 258.35 328.035 258.664C327.307 260.259 327.34 262.07 327.362 263.816C327.394 265.573 327.394 267.416 326.602 268.989C326.233 269.726 325.267 271.31 324.714 271.917C325.083 271.191 325.831 269.618 326.092 268.913C326.385 268.121 326.721 266.787 326.678 265.659C326.645 264.532 326.711 263.762 326.645 262.634C326.613 262.124 326.656 261.506 326.743 261.007C326.852 260.345 327.047 259.651 327.362 259.055C325.538 260.193 323.91 261.668 322.38 263.252C322 264.412 321.87 265.67 321.751 266.896C321.577 268.653 321.36 270.475 320.394 271.95C319.938 272.633 318.798 274.097 318.18 274.639C318.625 273.967 319.558 272.492 319.895 271.82C320.274 271.06 320.763 269.781 320.861 268.653C320.958 267.536 321.11 266.766 321.175 265.649C321.197 265.237 321.284 264.749 321.392 264.315C320.774 264.987 320.166 265.67 319.558 266.354C316.595 269.683 313.448 273.11 309.28 274.694C307.337 275.431 302.822 276.733 300.749 276.928C302.659 276.201 306.751 274.553 308.455 273.674Z" fill="#48A075"/>
<path d="M480.388 33.4533C474.735 -8.50329 429.943 0.901011 429.943 0.901011C429.943 0.901011 390.802 3.53308 387.57 38.4897C384.338 73.4464 254.417 76.9748 254.417 76.9748H191.143V76.9321H-3.66052V76.8325H-141V134.624H-3.66052H191.158H387.044C387.044 134.624 444.067 135.933 420.93 86.7917C404.2 51.2375 423.208 42.7722 435.011 40.823C430.356 44.5933 427.38 50.2558 427.38 56.6012C427.38 67.9404 436.834 77.1171 448.495 77.1171C449.321 77.1171 450.132 77.0602 450.929 76.9748L450.915 76.989C450.929 76.9748 486.026 75.4098 480.388 33.4533Z" fill="#7C433E"/>
<path d="M328.967 141.837C324.752 130.427 320.965 118.561 320.111 106.126C319.257 93.6915 321.649 80.4885 328.554 71.1411" stroke="#592B29" stroke-width="7" stroke-miterlimit="10" stroke-linecap="round"/>
</svg>
