<svg width="265" height="3387" viewBox="0 0 265 3387" fill="none" xmlns="http://www.w3.org/2000/svg">
<g clip-path="url(#clip0_117_1155)">
<path d="M282 2099H122.088V2047C122.088 1982 -7 1966.57 -7 1966.57H122.088V1952H282V2099Z" fill="#CB862A"/>
<path d="M287.658 331.994H125.109V190.386C120.437 150.82 102.658 135.343 102.658 135.343H125.109V113.702H287.658V331.994Z" fill="#CB862A"/>
<path d="M287.658 136.739H92.7992C92.7992 136.739 36.47 138.063 59.3208 88.1454C75.8463 52.0386 57.07 43.4391 45.4166 41.4458C50.0181 45.2757 52.9529 51.0277 52.9529 57.4774C52.9529 68.9957 43.6216 78.3214 32.0965 78.3214C31.2845 78.3214 30.4867 78.2644 29.6889 78.179L29.7032 78.1932C29.7032 78.1932 -4.97189 76.5986 0.612579 33.9852C6.19705 -8.62815 50.4313 0.925329 50.4313 0.925329C50.4313 0.925329 89.0952 3.58777 92.2864 39.1108C95.4775 74.6196 223.807 78.2075 223.807 78.2075H287.672V136.739H287.658Z" fill="#7C433E"/>
<path d="M124.91 370.778H287.658V952.373H124.91V370.778Z" fill="#CB862A"/>
<path d="M121.092 371.988H287.658V318.525H83.6676C81.317 318.525 80.0206 321.245 81.4879 323.081L121.092 371.988Z" fill="#9B6027"/>
<path d="M122.559 393.344H287.672V370.778H122.559C116.32 370.778 111.276 375.832 111.276 382.054C111.262 388.29 116.32 393.344 122.559 393.344Z" fill="#9B6027"/>
<mask id="mask0_117_1155" style="mask-type:luminance" maskUnits="userSpaceOnUse" x="80" y="318" width="208" height="54">
<path d="M121.092 371.988H287.658V318.525H83.6676C81.317 318.525 80.0206 321.245 81.4879 323.081L121.092 371.988Z" fill="white"/>
</mask>
<g mask="url(#mask0_117_1155)">
<path d="M478 371.959L82.0434 371.988L82.0291 341.975C92.3006 341.975 101.361 347.143 106.775 355.002C112.188 347.129 121.249 341.975 131.52 341.975C141.792 341.975 150.852 347.143 156.266 355.002C161.679 347.129 170.74 341.975 181.011 341.975C191.283 341.975 200.343 347.143 205.757 355.002C211.17 347.129 220.231 341.975 230.502 341.975C240.774 341.975 249.834 347.143 255.248 355.002C260.661 347.129 269.722 341.975 279.993 341.975C290.265 341.975 299.325 347.143 304.739 355.002C305.195 354.333 305.722 353.721 306.235 353.08C306.292 353.023 306.334 352.952 306.391 352.881C306.933 352.226 307.502 351.614 308.087 351.016C308.215 350.888 308.343 350.76 308.471 350.631C309.07 350.033 309.696 349.478 310.337 348.937C310.423 348.866 310.523 348.795 310.608 348.724C313.472 346.403 316.748 344.595 320.352 343.456C320.495 343.413 320.623 343.37 320.766 343.327C321.592 343.071 322.447 342.858 323.301 342.672C323.458 342.644 323.629 342.616 323.8 342.573C325.652 342.217 327.547 341.975 329.498 341.975C338.502 341.975 346.58 345.947 352.079 352.226C352.848 353.109 353.574 354.034 354.244 355.002C359.657 347.129 368.718 341.975 378.989 341.975C387.993 341.975 396.071 345.947 401.57 352.226C402.339 353.109 403.065 354.034 403.735 355.002C409.149 347.129 418.209 341.975 428.48 341.975C438.752 341.975 447.812 347.143 453.226 355.002C458.64 347.129 467.7 341.975 477.972 341.975L478 371.959Z" fill="#603835"/>
</g>
<path d="M180.114 807.988H287.658V482.942H257.926C214.946 482.942 180.1 517.767 180.1 560.723V807.988H180.114Z" fill="#9B6027"/>
<path d="M197.28 785.792H287.658V497.948H262.67C226.556 497.948 197.266 527.207 197.266 563.314V785.792H197.28Z" fill="#603835"/>
<path d="M287.658 1184.62H125.109V1043.01C120.437 1003.44 102.658 987.967 102.658 987.967H125.109V966.326H287.658V1184.62Z" fill="#CB862A"/>
<path d="M287.658 990.729H92.7992C92.7992 990.729 36.47 992.053 59.3208 942.136C75.8463 906.029 57.07 897.429 45.4166 895.436C50.0181 899.266 52.9529 905.018 52.9529 911.468C52.9529 922.986 43.6216 932.312 32.0965 932.312C31.2845 932.312 30.4867 932.255 29.6889 932.169L29.7032 932.184C29.7032 932.184 -4.97189 930.589 0.612579 887.976C6.19705 845.362 50.4313 854.916 50.4313 854.916C50.4313 854.916 89.0952 857.578 92.2864 893.101C95.4775 928.61 223.807 932.198 223.807 932.198H287.672V990.729H287.658Z" fill="#7C433E"/>
<path d="M125 1237H288V1963H125V1237Z" fill="#CB862A"/>
<path d="M121.092 1238.66H287.658V1185.2H83.6676C81.317 1185.2 80.0206 1187.92 81.4879 1189.76L121.092 1238.66Z" fill="#9B6027"/>
<path d="M122.559 1260.02H287.672V1237.45H122.559C116.32 1237.45 111.276 1242.51 111.276 1248.73C111.262 1254.97 116.32 1260.02 122.559 1260.02Z" fill="#9B6027"/>
<mask id="mask1_117_1155" style="mask-type:luminance" maskUnits="userSpaceOnUse" x="80" y="1185" width="208" height="54">
<path d="M121.092 1238.66H287.658V1185.2H83.6676C81.317 1185.2 80.0206 1187.92 81.4879 1189.76L121.092 1238.66Z" fill="white"/>
</mask>
<g mask="url(#mask1_117_1155)">
<path d="M478 1238.64L82.0434 1238.66L82.0291 1208.65C92.3006 1208.65 101.361 1213.82 106.775 1221.68C112.188 1213.81 121.249 1208.65 131.52 1208.65C141.792 1208.65 150.852 1213.82 156.266 1221.68C161.679 1213.81 170.74 1208.65 181.011 1208.65C191.283 1208.65 200.343 1213.82 205.757 1221.68C211.17 1213.81 220.231 1208.65 230.502 1208.65C240.774 1208.65 249.834 1213.82 255.248 1221.68C260.661 1213.81 269.722 1208.65 279.993 1208.65C290.265 1208.65 299.325 1213.82 304.739 1221.68C305.195 1221.01 305.722 1220.4 306.235 1219.76C306.292 1219.7 306.334 1219.63 306.391 1219.56C306.933 1218.9 307.502 1218.29 308.087 1217.69C308.215 1217.56 308.343 1217.44 308.471 1217.31C309.07 1216.71 309.696 1216.15 310.337 1215.61C310.423 1215.54 310.523 1215.47 310.608 1215.4C313.472 1213.08 316.748 1211.27 320.352 1210.13C320.495 1210.09 320.623 1210.05 320.766 1210C321.592 1209.75 322.447 1209.53 323.301 1209.35C323.458 1209.32 323.629 1209.29 323.8 1209.25C325.652 1208.89 327.547 1208.65 329.498 1208.65C338.502 1208.65 346.58 1212.62 352.079 1218.9C352.848 1219.79 353.574 1220.71 354.244 1221.68C359.657 1213.81 368.718 1208.65 378.989 1208.65C387.993 1208.65 396.071 1212.62 401.57 1218.9C402.339 1219.79 403.065 1220.71 403.735 1221.68C409.149 1213.81 418.209 1208.65 428.48 1208.65C438.752 1208.65 447.812 1213.82 453.226 1221.68C458.64 1213.81 467.7 1208.65 477.972 1208.65L478 1238.64Z" fill="#603835"/>
</g>
<path d="M180.114 1674.66H287.658V1349.62H257.926C214.946 1349.62 180.1 1384.44 180.1 1427.4V1674.66H180.114Z" fill="#9B6027"/>
<path d="M197.28 1652.47H287.658V1364.62H262.67C226.556 1364.62 197.266 1393.88 197.266 1429.99V1652.47H197.28Z" fill="#603835"/>
<path d="M124.91 2118.03H287.658V2699.62H124.91V2118.03Z" fill="#CB862A"/>
<path d="M121.092 2119.24H287.658V2065.77H83.6676C81.317 2065.77 80.0206 2068.49 81.4879 2070.33L121.092 2119.24Z" fill="#9B6027"/>
<path d="M122.559 2140.58H287.672V2118.01H122.559C116.32 2118.01 111.276 2123.07 111.276 2129.29C111.262 2135.54 116.32 2140.58 122.559 2140.58Z" fill="#9B6027"/>
<mask id="mask2_117_1155" style="mask-type:luminance" maskUnits="userSpaceOnUse" x="80" y="2065" width="208" height="55">
<path d="M121.092 2119.24H287.658V2065.77H83.6676C81.317 2065.77 80.0206 2068.49 81.4879 2070.33L121.092 2119.24Z" fill="white"/>
</mask>
<g mask="url(#mask2_117_1155)">
<path d="M478 2119.21L82.0434 2119.24L82.0291 2089.22C92.3006 2089.22 101.361 2094.39 106.775 2102.25C112.188 2094.38 121.249 2089.22 131.52 2089.22C141.792 2089.22 150.852 2094.39 156.266 2102.25C161.679 2094.38 170.74 2089.22 181.011 2089.22C191.283 2089.22 200.343 2094.39 205.757 2102.25C211.17 2094.38 220.231 2089.22 230.502 2089.22C240.774 2089.22 249.834 2094.39 255.248 2102.25C260.661 2094.38 269.722 2089.22 279.993 2089.22C290.265 2089.22 299.325 2094.39 304.739 2102.25C305.195 2101.58 305.722 2100.97 306.235 2100.33C306.292 2100.27 306.334 2100.2 306.391 2100.13C306.933 2099.47 307.502 2098.86 308.087 2098.26C308.215 2098.14 308.343 2098.01 308.471 2097.88C309.07 2097.28 309.696 2096.73 310.337 2096.19C310.423 2096.11 310.523 2096.04 310.608 2095.97C313.472 2093.65 316.748 2091.84 320.352 2090.7C320.495 2090.66 320.623 2090.62 320.766 2090.58C321.592 2090.32 322.447 2090.11 323.301 2089.92C323.458 2089.89 323.629 2089.86 323.8 2089.82C325.652 2089.47 327.547 2089.22 329.498 2089.22C338.502 2089.22 346.58 2093.2 352.079 2099.47C352.848 2100.36 353.574 2101.28 354.244 2102.25C359.657 2094.38 368.718 2089.22 378.989 2089.22C387.993 2089.22 396.071 2093.2 401.57 2099.47C402.339 2100.36 403.065 2101.28 403.735 2102.25C409.149 2094.38 418.209 2089.22 428.48 2089.22C438.752 2089.22 447.812 2094.39 453.226 2102.25C458.64 2094.38 467.7 2089.22 477.972 2089.22L478 2119.21Z" fill="#603835"/>
</g>
<path d="M180.114 2555.24H287.658V2230.19H257.926C214.946 2230.19 180.1 2265.02 180.1 2307.97V2555.24H180.114Z" fill="#9B6027"/>
<path d="M197.28 2533.03H287.658V2245.18H262.67C226.556 2245.18 197.266 2274.44 197.266 2310.55V2533.03H197.28Z" fill="#603835"/>
<path d="M287.658 2942.29H125.109V2800.68C120.437 2761.11 102.658 2745.64 102.658 2745.64H125.109V2724H287.658V2942.29Z" fill="#CB862A"/>
<path d="M287.986 2745.73H93.1273C93.1273 2745.73 36.7982 2747.05 59.6489 2697.14C76.1744 2661.03 57.3981 2652.43 45.7448 2650.44C50.3463 2654.27 53.281 2660.02 53.281 2666.47C53.281 2677.99 43.9497 2687.31 32.4246 2687.31C31.6126 2687.31 30.8148 2687.25 30.017 2687.17L30.0313 2687.18C30.0313 2687.18 -4.64377 2685.59 0.940704 2642.98C6.52518 2600.36 50.7594 2609.92 50.7594 2609.92C50.7594 2609.92 89.4234 2612.58 92.6145 2648.1C95.8056 2683.61 224.135 2687.2 224.135 2687.2H288V2745.73H287.986Z" fill="#7C433E"/>
<path d="M124.91 2992.41H287.658V3574H124.91V2992.41Z" fill="#CB862A"/>
<path d="M121.092 2993.62H287.658V2940.15H83.6676C81.317 2940.15 80.0206 2942.87 81.4879 2944.71L121.092 2993.62Z" fill="#9B6027"/>
<path d="M122.559 3014.97H287.672V2992.41H122.559C116.32 2992.41 111.276 2997.46 111.276 3003.68C111.262 3009.92 116.32 3014.97 122.559 3014.97Z" fill="#9B6027"/>
<mask id="mask3_117_1155" style="mask-type:luminance" maskUnits="userSpaceOnUse" x="80" y="2940" width="208" height="54">
<path d="M121.092 2993.62H287.658V2940.15H83.6676C81.317 2940.15 80.0206 2942.87 81.4879 2944.71L121.092 2993.62Z" fill="white"/>
</mask>
<g mask="url(#mask3_117_1155)">
<path d="M478 2993.59L82.0434 2993.62L82.0291 2963.6C92.3006 2963.6 101.361 2968.77 106.775 2976.63C112.188 2968.76 121.249 2963.6 131.52 2963.6C141.792 2963.6 150.852 2968.77 156.266 2976.63C161.679 2968.76 170.74 2963.6 181.011 2963.6C191.283 2963.6 200.343 2968.77 205.757 2976.63C211.17 2968.76 220.231 2963.6 230.502 2963.6C240.774 2963.6 249.834 2968.77 255.248 2976.63C260.661 2968.76 269.722 2963.6 279.993 2963.6C290.265 2963.6 299.325 2968.77 304.739 2976.63C305.195 2975.96 305.722 2975.35 306.235 2974.71C306.292 2974.65 306.334 2974.58 306.391 2974.51C306.933 2973.85 307.502 2973.24 308.087 2972.64C308.215 2972.51 308.343 2972.39 308.471 2972.26C309.07 2971.66 309.696 2971.11 310.337 2970.56C310.423 2970.49 310.523 2970.42 310.608 2970.35C313.472 2968.03 316.748 2966.22 320.352 2965.08C320.495 2965.04 320.623 2965 320.766 2964.95C321.592 2964.7 322.447 2964.48 323.301 2964.3C323.458 2964.27 323.629 2964.24 323.8 2964.2C325.652 2963.84 327.547 2963.6 329.498 2963.6C338.502 2963.6 346.58 2967.57 352.079 2973.85C352.848 2974.74 353.574 2975.66 354.244 2976.63C359.657 2968.76 368.718 2963.6 378.989 2963.6C387.993 2963.6 396.071 2967.57 401.57 2973.85C402.339 2974.74 403.065 2975.66 403.735 2976.63C409.149 2968.76 418.209 2963.6 428.48 2963.6C438.752 2963.6 447.812 2968.77 453.226 2976.63C458.64 2968.76 467.7 2963.6 477.972 2963.6L478 2993.59Z" fill="#603835"/>
</g>
<path d="M180.114 3429.62H287.658V3104.57H257.926C214.946 3104.57 180.1 3139.39 180.1 3182.35V3429.62H180.114Z" fill="#9B6027"/>
<path d="M197.28 3407.42H287.658V3119.58H262.67C226.556 3119.58 197.266 3148.83 197.266 3184.94V3407.42H197.28Z" fill="#603835"/>
<path d="M121.989 218.235C121.989 218.235 122.132 215.616 123.143 212.683C124.155 209.75 124.653 211.131 124.653 211.131C139.683 228.088 163.417 238.41 190.627 242.681C199.303 244.048 208.064 245.258 216.883 246.084C216.897 246.084 216.897 246.084 216.911 246.084C244.164 248.263 281.489 237.641 300.009 231.619L301.092 231.035C300.878 231.192 300.636 231.334 300.408 231.491C307.232 229.27 311.392 227.703 311.392 227.703V238.097L314.839 269.605C270.762 280.952 219.134 267.882 219.134 267.882C219.134 267.882 219.091 267.854 219.02 267.811C202.053 265.519 185.584 261.262 170.497 255.196C163.189 252.263 156.209 248.903 149.385 245.401C134.64 237.798 120.964 231.405 121.989 218.235Z" fill="#307F4C"/>
<path d="M161.28 237.2C161.28 237.2 191.867 237.812 175.085 192.195C175.085 192.209 136.919 220.399 161.28 237.2Z" fill="#6B9660"/>
<path d="M126.79 234.95C126.79 234.95 129.355 204.482 82.7412 218.307C82.7412 218.292 108.455 258.172 126.79 234.95Z" fill="#6B9660"/>
<path d="M199.574 260.108C199.574 260.108 170.64 236.858 152.932 293.111C152.932 293.111 210.501 294.307 199.574 260.108Z" fill="#6B9660"/>
<path d="M221.057 1621.66C221.057 1621.66 188.79 1623.85 210.187 1671.76C210.187 1671.76 248.11 1637.6 221.057 1621.66Z" fill="#6B9660"/>
<path d="M54.178 1613.98C55.047 1606.28 60.2469 1595.86 69.6493 1597.98C73.8376 1598.92 77.2852 1602.59 78.3537 1606.69C79.5789 1611.42 78.1257 1616.4 75.5472 1620.4C73.3818 1623.77 67.9683 1620.65 70.1479 1617.26C71.8859 1614.57 73.2678 1611.15 72.1994 1607.93C71.5155 1605.84 69.3929 1603.73 67.0423 1603.96C64.364 1604.22 62.569 1607.15 61.643 1609.38C60.5888 1611.92 60.2184 1614.48 60.2469 1617.17C60.3039 1622.06 62.0134 1627.18 65.5464 1630.6C69.2219 1634.16 74.8064 1634.91 79.7071 1632.73C92.7708 1626.93 96.9164 1610.31 98.2555 1597.48C99.7514 1582.99 98.4407 1568.37 100.321 1553.9C101.091 1547.92 102.373 1541.87 104.424 1536.13C104.31 1511.07 107.159 1492.12 109.097 1482.24C103.413 1466.77 99.6659 1450.15 106.874 1434.49C114.325 1418.32 131.948 1409.99 147.12 1402.65C147.675 1402.38 148.245 1402.13 148.801 1401.86C165.768 1378.96 185.47 1359.49 205.329 1343.2C192.736 1340.83 180.456 1336.82 168.916 1331.24C162.121 1327.95 155.61 1324.13 149.214 1320.12C135.395 1311.42 122.645 1304.17 122.645 1287.73C122.645 1287.73 122.588 1284.47 123.3 1280.77C124.013 1277.06 124.54 1278.76 124.54 1278.76C139.256 1299.09 161.352 1310.72 186.154 1314.66C203.435 1317.41 221.086 1319.31 238.423 1316.91C239.62 1316.74 240.816 1316.56 242.013 1316.35C281.945 1290.23 315.281 1277.42 317.717 1275.44V1332.23C317.717 1332.23 267.158 1320.59 200.016 1392.92C199.118 1398.03 199.417 1403.45 200.6 1408.25C202.024 1414 204.532 1421.11 210.358 1423.73C215.857 1426.2 222.04 1421.48 224.134 1416.45C225.16 1413.99 225.302 1410.63 223.408 1408.52C222.71 1407.74 221.37 1407 220.359 1407.58C219.704 1407.96 219.219 1409.09 219.533 1409.74C220.088 1410.91 219.86 1412.34 218.678 1413.03C217.638 1413.65 215.957 1413.35 215.387 1412.18C213.678 1408.58 215.458 1403.72 219.59 1402.78C223.864 1401.81 227.496 1404.87 228.949 1408.68C231.913 1416.44 225.815 1425.06 218.82 1428.11C214.889 1429.82 210.615 1429.49 206.925 1427.33C203.278 1425.19 200.657 1421.66 198.904 1417.89C196.155 1411.99 194.631 1405.4 194.645 1398.85C189.83 1404.29 184.943 1410.14 179.986 1416.49C158.246 1444.28 144.513 1475.55 135.922 1505.92C138.771 1517.55 144.769 1532.89 162.021 1549.49C198.035 1584.14 254.592 1605.54 288.911 1641.26C314.811 1668.22 325.41 1702.47 317.347 1733.15C314.212 1745.1 307.83 1757.04 294.88 1764.03C301.377 1745.13 306.861 1725.07 299.81 1705.4C296.832 1697.1 291.746 1689.29 285.507 1681.88C287.7 1695.39 285.763 1709.62 278.07 1721.19C273.696 1727.77 267.742 1733.04 260.633 1736.48C252.926 1740.22 243.765 1742.88 235.146 1741.85C227.211 1740.91 220.444 1736.84 215.8 1730.35C211.284 1724.04 209.959 1716.03 211.498 1708.48C213.25 1699.84 219.162 1691.59 227.525 1688.36C235.588 1685.24 245.161 1688.65 248.281 1696.95C248.951 1698.74 247.526 1700.85 245.788 1701.33C243.794 1701.89 242.084 1700.65 241.401 1698.84C239.577 1693.97 233.038 1693.46 228.992 1695.44C223.408 1698.16 219.803 1703.89 218.464 1709.82C215.815 1721.63 224.077 1733.96 236.429 1734.85C243.324 1735.35 250.561 1733.41 256.758 1730.45C262.528 1727.7 267.599 1723.74 271.289 1718.49C278.854 1707.72 280.763 1694.13 278.212 1681.38C277.5 1677.81 276.474 1674.29 275.221 1670.88C271.46 1667.19 267.499 1663.59 263.482 1660.09C246.187 1644.98 227.425 1630.77 207.395 1617.64C188.433 1605.21 167.862 1594.01 151.992 1579.23C140.139 1568.2 132.005 1557.5 126.719 1549.16C118.513 1604.81 124.853 1648.94 124.853 1648.94C113.442 1617.81 107.929 1588.7 105.692 1563.5C104.923 1577.46 105.877 1591.52 103.398 1605.36C101.988 1613.21 99.4664 1621.36 94.6797 1627.85C90.0925 1634.07 83.639 1639.33 75.7039 1640.15C61.4008 1641.63 52.7392 1626.73 54.178 1613.98ZM110.35 1459.66C110.735 1463.14 111.476 1466.55 112.402 1469.91C119.539 1449.47 129.155 1430.84 140.353 1413.93C137.233 1415.57 134.17 1417.29 131.207 1419.16C124.825 1423.18 118.77 1428.11 114.838 1434.66C110.322 1442.19 109.396 1451.06 110.35 1459.66Z" fill="#307F4C"/>
<path d="M150.881 1321.95C150.881 1321.95 121.548 1291.1 92.785 1352.35C92.785 1352.35 158.075 1362.52 150.881 1321.95Z" fill="#6B9660"/>
<path d="M190 1318.37C190 1318.37 229.79 1303.16 184.259 1253.09C184.259 1253.09 149.769 1309.41 190 1318.37Z" fill="#6B9660"/>
<path d="M106.119 1517.75C106.119 1517.75 76.7867 1486.9 48.0238 1548.15C48.0381 1548.13 113.328 1558.31 106.119 1517.75Z" fill="#6B9660"/>
<path d="M188.533 1573.83C188.533 1573.83 223.051 1596.56 238.395 1531.29C238.395 1531.28 173.389 1536.69 188.533 1573.83Z" fill="#6B9660"/>
<path d="M162.164 1585.71C162.164 1585.71 137.988 1592 160.896 1626.53C160.881 1626.54 184.886 1594.39 162.164 1585.71Z" fill="#6B9660"/>
<path d="M122.488 1079.06C122.488 1079.06 122.631 1076.44 123.642 1073.51C124.654 1070.57 125.152 1071.96 125.152 1071.96C140.182 1088.91 163.916 1099.23 191.126 1103.51C199.802 1104.87 208.563 1106.08 217.382 1106.91C217.396 1106.91 217.396 1106.91 217.41 1106.91C244.663 1109.09 281.988 1098.47 300.508 1092.44L301.59 1091.86C301.377 1092.02 301.135 1092.16 300.907 1092.32C307.73 1090.09 311.89 1088.53 311.89 1088.53V1098.92L315.338 1130.43C271.26 1141.78 219.632 1128.71 219.632 1128.71C219.632 1128.71 219.59 1128.68 219.518 1128.64C202.551 1126.34 186.083 1122.09 170.996 1116.02C163.688 1113.09 156.707 1109.73 149.883 1106.23C135.124 1098.61 121.462 1092.23 122.488 1079.06Z" fill="#307F4C"/>
<path d="M161.779 1098.01C161.779 1098.01 192.365 1098.62 175.583 1053C175.583 1053.02 137.404 1081.21 161.779 1098.01Z" fill="#6B9660"/>
<path d="M127.289 1095.76C127.289 1095.76 129.854 1065.29 83.2402 1079.12C83.2402 1079.12 108.94 1118.98 127.289 1095.76Z" fill="#6B9660"/>
<path d="M200.058 1120.92C200.058 1120.92 171.124 1097.67 153.416 1153.92C153.416 1153.92 210.999 1155.12 200.058 1120.92Z" fill="#6B9660"/>
<path d="M220.003 2502.22C220.003 2502.22 187.735 2504.41 209.133 2552.32C209.133 2552.32 247.056 2518.18 220.003 2502.22Z" fill="#6B9660"/>
<path d="M53.1238 2494.56C53.9929 2486.85 59.1927 2476.43 68.5951 2478.55C72.7835 2479.49 76.2311 2483.17 77.2995 2487.27C78.5247 2491.99 77.0716 2496.98 74.493 2500.98C72.3276 2504.34 66.9141 2501.22 69.0937 2497.83C70.8318 2495.14 72.2136 2491.72 71.1452 2488.5C70.4614 2486.41 68.3387 2484.3 65.9881 2484.53C63.3098 2484.79 61.5148 2487.72 60.5888 2489.96C59.5346 2492.49 59.1642 2495.05 59.1927 2497.74C59.2497 2502.63 60.9592 2507.75 64.4922 2511.17C68.1677 2514.73 73.7522 2515.49 78.6529 2513.31C91.7166 2507.5 95.8622 2490.88 97.2013 2478.05C98.6972 2463.56 97.3865 2448.94 99.267 2434.47C100.036 2428.49 101.318 2422.44 103.37 2416.7C103.256 2391.65 106.105 2372.7 108.043 2362.81C102.358 2347.34 98.6117 2330.72 105.82 2315.06C113.271 2298.89 130.893 2290.56 146.066 2283.23C146.621 2282.96 147.191 2282.7 147.747 2282.43C164.714 2259.53 184.416 2240.06 204.275 2223.77C191.682 2221.41 179.401 2217.39 167.862 2211.81C161.067 2208.52 154.556 2204.7 148.16 2200.69C134.341 2191.99 121.591 2184.74 121.591 2168.31C121.591 2168.31 121.534 2165.05 122.246 2161.35C122.958 2157.65 123.485 2159.34 123.485 2159.34C138.202 2179.68 160.297 2191.31 185.1 2195.25C202.38 2198 220.031 2199.89 237.369 2197.5C238.566 2197.33 239.762 2197.14 240.959 2196.93C280.891 2170.82 314.227 2158.01 316.663 2156.03V2212.82C316.663 2212.82 266.103 2201.17 198.961 2273.5C198.064 2278.61 198.363 2284.04 199.545 2288.84C200.97 2294.59 203.477 2301.69 209.304 2304.31C214.803 2306.79 220.986 2302.06 223.08 2297.04C224.106 2294.57 224.248 2291.21 222.353 2289.11C221.655 2288.32 220.316 2287.58 219.305 2288.17C218.649 2288.55 218.165 2289.68 218.479 2290.33C219.034 2291.5 218.806 2292.92 217.624 2293.62C216.584 2294.23 214.903 2293.93 214.333 2292.76C212.623 2289.16 214.404 2284.31 218.536 2283.37C222.809 2282.4 226.442 2285.46 227.895 2289.26C230.858 2297.02 224.761 2305.65 217.766 2308.7C213.834 2310.41 209.56 2310.08 205.871 2307.91C202.224 2305.78 199.602 2302.25 197.85 2298.47C195.101 2292.58 193.576 2285.99 193.591 2279.44C188.775 2284.88 183.889 2290.73 178.931 2297.08C157.192 2324.87 143.458 2356.14 134.868 2386.51C137.717 2398.14 143.715 2413.47 160.967 2430.07C196.981 2464.73 253.538 2486.13 287.857 2521.85C313.757 2548.8 324.356 2583.06 316.292 2613.74C313.158 2625.68 306.776 2637.63 293.826 2644.62C300.322 2625.71 305.807 2605.65 298.755 2585.99C295.778 2577.69 290.692 2569.87 284.452 2562.47C286.646 2575.98 284.709 2590.2 277.016 2601.78C272.642 2608.36 266.687 2613.63 259.579 2617.07C251.871 2620.8 242.711 2623.46 234.092 2622.44C226.157 2621.5 219.39 2617.43 214.746 2610.93C210.23 2604.63 208.905 2596.61 210.444 2589.07C212.196 2580.42 218.108 2572.18 226.471 2568.95C234.534 2565.83 244.107 2569.23 247.227 2577.53C247.897 2579.33 246.472 2581.43 244.734 2581.92C242.74 2582.47 241.03 2581.23 240.346 2579.43C238.523 2574.56 231.984 2574.04 227.938 2576.02C222.353 2578.74 218.749 2584.48 217.41 2590.4C214.76 2602.22 223.023 2614.55 235.374 2615.43C242.27 2615.93 249.507 2614 255.704 2611.03C261.473 2608.29 266.545 2604.33 270.235 2599.07C277.799 2588.31 279.708 2574.71 277.158 2561.97C276.446 2558.4 275.42 2554.88 274.167 2551.46C270.406 2547.78 266.445 2544.17 262.428 2540.67C245.133 2525.57 226.371 2511.36 206.341 2498.23C187.379 2485.8 166.808 2474.59 150.938 2459.82C139.085 2448.78 130.95 2438.09 125.665 2429.75C117.459 2485.4 123.799 2529.52 123.799 2529.52C112.388 2498.4 106.874 2469.28 104.638 2444.08C103.869 2458.05 104.823 2472.1 102.344 2485.94C100.934 2493.8 98.4122 2501.94 93.6255 2508.44C89.0383 2514.66 82.5848 2519.91 74.6497 2520.74C60.3466 2522.19 51.685 2507.28 53.1238 2494.56ZM109.296 2340.22C109.681 2343.69 110.422 2347.11 111.348 2350.47C118.485 2330.03 128.101 2311.4 139.299 2294.49C136.179 2296.13 133.116 2297.85 130.153 2299.71C123.77 2303.74 117.716 2308.67 113.784 2315.22C109.268 2322.76 108.342 2331.63 109.296 2340.22Z" fill="#307F4C"/>
<path d="M149.826 2202.53C149.826 2202.53 120.494 2171.67 91.7307 2232.92C91.7307 2232.92 157.021 2243.09 149.826 2202.53Z" fill="#6B9660"/>
<path d="M188.946 2198.94C188.946 2198.94 228.736 2183.73 183.205 2133.66C183.205 2133.66 148.715 2189.98 188.946 2198.94Z" fill="#6B9660"/>
<path d="M105.065 2398.32C105.065 2398.32 75.7325 2367.47 46.9696 2428.72C46.9839 2428.71 112.274 2438.89 105.065 2398.32Z" fill="#6B9660"/>
<path d="M187.479 2454.41C187.479 2454.41 221.997 2477.13 237.34 2411.86C237.34 2411.85 172.335 2417.26 187.479 2454.41Z" fill="#6B9660"/>
<path d="M161.109 2466.28C161.109 2466.28 136.934 2472.57 159.841 2507.1C159.827 2507.1 183.832 2474.95 161.109 2466.28Z" fill="#6B9660"/>
<path d="M120.479 2842.47C120.479 2842.47 120.622 2839.85 121.633 2836.92C122.645 2833.98 123.143 2835.36 123.143 2835.36C138.173 2852.32 161.907 2862.64 189.117 2866.91C197.793 2868.28 206.554 2869.49 215.373 2870.32C215.387 2870.32 215.387 2870.32 215.401 2870.32C242.654 2872.5 279.979 2861.87 298.499 2855.85L299.582 2855.27C299.368 2855.42 299.126 2855.57 298.898 2855.72C305.722 2853.5 309.882 2851.92 309.882 2851.92V2862.32L313.329 2893.82C269.252 2905.17 217.624 2892.1 217.624 2892.1C217.624 2892.1 217.581 2892.07 217.51 2892.03C200.543 2889.74 184.074 2885.48 168.987 2879.41C161.679 2876.48 154.699 2873.12 147.875 2869.62C133.13 2862.02 119.454 2855.62 120.479 2842.47Z" fill="#307F4C"/>
<path d="M159.77 2861.42C159.77 2861.42 190.357 2862.03 173.575 2816.41C173.575 2816.43 135.409 2844.62 159.77 2861.42Z" fill="#6B9660"/>
<path d="M125.28 2859.17C125.28 2859.17 127.845 2828.7 81.2312 2842.53C81.2312 2842.51 106.931 2882.39 125.28 2859.17Z" fill="#6B9660"/>
<path d="M198.049 2884.33C198.049 2884.33 169.116 2861.08 151.408 2917.33C151.408 2917.33 208.99 2918.53 198.049 2884.33Z" fill="#6B9660"/>
<path d="M221.313 3376.61C221.313 3376.61 189.046 3378.8 210.444 3426.71C210.429 3426.71 248.353 3392.56 221.313 3376.61Z" fill="#6B9660"/>
<path d="M54.4202 3368.93C55.2892 3361.23 60.4891 3350.81 69.8915 3352.93C74.0799 3353.87 77.5275 3357.54 78.5959 3361.65C79.8211 3366.37 78.368 3371.36 75.7894 3375.36C73.624 3378.72 68.2105 3375.6 70.3901 3372.21C72.1282 3369.52 73.51 3366.1 72.4416 3362.88C71.7578 3360.79 69.6351 3358.68 67.2845 3358.91C64.6062 3359.17 62.8112 3362.1 61.8852 3364.34C60.831 3366.87 60.4606 3369.43 60.489 3372.12C60.5461 3377.01 62.2556 3382.13 65.7886 3385.55C69.4641 3389.11 75.0486 3389.86 79.9493 3387.69C93.013 3381.88 97.1586 3365.26 98.4977 3352.43C99.9935 3337.94 98.6829 3323.32 100.563 3308.85C101.333 3302.87 102.615 3296.82 104.666 3291.08C104.552 3266.02 107.402 3247.07 109.339 3237.19C103.655 3221.72 99.9081 3205.1 107.117 3189.44C114.567 3173.27 132.19 3164.94 147.362 3157.6C147.918 3157.33 148.487 3157.08 149.043 3156.81C166.01 3133.91 185.712 3114.44 205.572 3098.15C192.978 3095.78 180.698 3091.77 169.158 3086.19C162.363 3082.9 155.853 3079.08 149.456 3075.07C135.637 3066.37 122.887 3059.12 122.887 3042.68C122.887 3042.68 122.83 3039.42 123.542 3035.72C124.255 3032.01 124.782 3033.71 124.782 3033.71C139.498 3054.04 161.594 3065.67 186.396 3069.62C203.677 3072.36 221.328 3074.26 238.665 3071.87C239.862 3071.69 241.059 3071.51 242.255 3071.3C282.187 3045.18 315.523 3032.37 317.959 3030.39V3087.19C317.959 3087.19 267.4 3075.54 200.258 3147.87C199.36 3152.98 199.659 3158.4 200.842 3163.2C202.266 3168.95 204.774 3176.06 210.6 3178.68C216.099 3181.15 222.282 3176.43 224.376 3171.4C225.402 3168.94 225.545 3165.58 223.65 3163.47C222.952 3162.69 221.613 3161.95 220.601 3162.53C219.946 3162.92 219.462 3164.04 219.775 3164.7C220.331 3165.86 220.103 3167.29 218.92 3167.98C217.88 3168.6 216.199 3168.3 215.629 3167.13C213.92 3163.53 215.701 3158.67 219.832 3157.73C224.106 3156.77 227.739 3159.83 229.192 3163.63C232.155 3171.39 226.057 3180.01 219.063 3183.06C215.131 3184.77 210.857 3184.44 207.167 3182.28C203.52 3180.14 200.899 3176.61 199.147 3172.84C196.397 3166.94 194.873 3160.35 194.887 3153.8C190.072 3159.24 185.185 3165.11 180.228 3171.44C158.488 3199.24 144.755 3230.5 136.164 3260.87C139.014 3272.5 145.011 3287.84 162.263 3304.44C198.278 3339.09 254.835 3360.49 289.154 3396.21C315.053 3423.17 325.652 3457.42 317.589 3488.1C314.455 3500.05 308.072 3512 295.123 3518.99C301.619 3500.08 307.104 3480.02 300.052 3460.35C297.074 3452.05 291.988 3444.24 285.749 3436.83C287.943 3450.35 286.005 3464.57 278.312 3476.14C273.939 3482.72 267.984 3487.99 260.875 3491.44C253.168 3495.17 244.008 3497.83 235.389 3496.8C227.454 3495.86 220.687 3491.79 216.042 3485.3C211.526 3478.99 210.202 3470.98 211.74 3463.43C213.492 3454.79 219.405 3446.54 227.767 3443.31C235.83 3440.19 245.404 3443.6 248.524 3451.9C249.193 3453.69 247.769 3455.8 246.031 3456.28C244.036 3456.84 242.327 3455.6 241.643 3453.79C239.819 3448.92 233.28 3448.41 229.234 3450.39C223.65 3453.11 220.046 3458.85 218.706 3464.77C216.057 3476.59 224.319 3488.92 236.671 3489.8C243.566 3490.3 250.803 3488.36 257 3485.4C262.77 3482.65 267.841 3478.69 271.531 3473.44C279.096 3462.68 281.005 3449.08 278.455 3436.34C277.742 3432.76 276.717 3429.25 275.463 3425.83C271.702 3422.14 267.742 3418.54 263.724 3415.04C246.429 3399.93 227.667 3385.72 207.637 3372.59C188.676 3360.16 168.104 3348.96 152.234 3334.18C140.381 3323.15 132.247 3312.45 126.961 3304.11C118.756 3359.77 125.095 3403.89 125.095 3403.89C113.684 3372.76 108.171 3343.65 105.934 3318.45C105.165 3332.42 106.119 3346.47 103.641 3360.31C102.23 3368.17 99.7086 3376.31 94.9219 3382.8C90.3347 3389.02 83.8812 3394.28 75.9461 3395.1C61.643 3396.57 52.9814 3381.68 54.4202 3368.93ZM110.593 3214.61C110.977 3218.09 111.718 3221.5 112.644 3224.86C119.781 3204.42 129.398 3185.8 140.595 3168.88C137.475 3170.52 134.412 3172.24 131.449 3174.11C125.067 3178.14 119.012 3183.06 115.08 3189.61C110.564 3197.14 109.652 3206.01 110.593 3214.61Z" fill="#307F4C"/>
<path d="M151.123 3076.91C151.123 3076.91 121.79 3046.05 93.0273 3107.3C93.0273 3107.3 158.332 3117.47 151.123 3076.91Z" fill="#6B9660"/>
<path d="M190.243 3073.32C190.243 3073.32 230.032 3058.11 184.501 3008.04C184.501 3008.04 150.012 3064.36 190.243 3073.32Z" fill="#6B9660"/>
<path d="M106.376 3272.7C106.376 3272.7 77.0432 3241.85 48.2803 3303.1C48.2803 3303.09 113.57 3313.27 106.376 3272.7Z" fill="#6B9660"/>
<path d="M188.79 3328.78C188.79 3328.78 223.308 3351.51 238.651 3286.24C238.637 3286.23 173.632 3291.64 188.79 3328.78Z" fill="#6B9660"/>
<path d="M162.406 3340.66C162.406 3340.66 138.23 3346.95 161.138 3381.48C161.124 3381.49 185.128 3349.34 162.406 3340.66Z" fill="#6B9660"/>
</g>
<defs>
<clipPath id="clip0_117_1155">
<rect width="478" height="3574" fill="white" transform="matrix(-1 0 0 1 478 0)"/>
</clipPath>
</defs>
</svg>
