<?xml version="1.0" encoding="UTF-8" standalone="no"?>
<!DOCTYPE svg PUBLIC "-//W3C//DTD SVG 1.1//EN" "http://www.w3.org/Graphics/SVG/1.1/DTD/svg11.dtd">
<!-- Created with Vectornator (http://vectornator.io/) -->
<svg height="100%" stroke-miterlimit="10" style="fill-rule:nonzero;clip-rule:evenodd;stroke-linecap:round;stroke-linejoin:round;" version="1.1" viewBox="0 0 1080 1080" width="100%" xml:space="preserve" xmlns="http://www.w3.org/2000/svg" xmlns:vectornator="http://vectornator.io" xmlns:xlink="http://www.w3.org/1999/xlink">
<defs>
<path d="M828.883 419.656C866.314 391.64 858.214 340.098 802.48 345.708C816.219 278.095 725.967 249.653 713.38 273.737C717.43 226.252 662.222 213.381 651.499 242.261C655.142 151.998 455.62 140.835 460.632 264.25C381.547 248.435 318.74 305.879 361.557 390.464C342.362 397.313 296.98 432.967 352.59 484.94C335.554 524.979 370.547 554.847 413.314 569.848C468.4 589.169 533.123 598.186 583.513 598.186C623.306 598.186 626.17 595.038 687.939 588.702C720.045 586.555 821.907 554.736 817.759 511.898C884.647 499.089 892.871 419.639 828.883 419.656Z" id="Fill"/>
</defs>
<clipPath id="ArtboardFrame">
<rect height="1080" width="1080" x="0" y="0"/>
</clipPath>
<g clip-path="url(#ArtboardFrame)" id="Layer-5" vectornator:layerName="Layer 5" visibility="hidden">
<path d="M-139.625-16.4513C-139.625-74.1014-92.8904-120.836-35.2403-120.836L1064.39-120.836C1122.04-120.836 1168.77-74.1014 1168.77-16.4513L1168.77 1078.05C1168.77 1135.7 1122.04 1182.44 1064.39 1182.44L-35.2403 1182.44C-92.8904 1182.44-139.625 1135.7-139.625 1078.05L-139.625-16.4513Z" fill="#8b8b8b" fill-rule="nonzero" opacity="1" stroke="#ffffff" stroke-linecap="butt" stroke-linejoin="round" stroke-width="2.82514" vectornator:layerName="Rectangle 1"/>
</g>
<g id="Layer-1" vectornator:layerName="Layer 1" visibility="hidden">
<path d="M597.318 649.914C565.933 596.101 554.471 547.782 624.468 529.215C681.614 514.056 684.382 568.493 696.881 629.523C709.38 690.552 702.877 755.819 675.383 761.45C647.889 767.081 634.496 713.66 597.318 649.914Z" fill="#f3eee6" fill-rule="nonzero" opacity="1" stroke="none" vectornator:layerName="Oval 4"/>
<g opacity="1" vectornator:layerName="Group 3">
<path d="M449.702 844.013L449.702 896.557" fill="none" opacity="1" stroke="#000000" stroke-linecap="round" stroke-linejoin="round" stroke-width="7.57104" vectornator:layerName="Line 1"/>
<path d="M424.421 890.118L506.978 912.047" fill="none" opacity="1" stroke="#000000" stroke-linecap="round" stroke-linejoin="round" stroke-width="7.57104" vectornator:layerName="Line 2"/>
<path d="M449.702 896.557L461.421 923.663" fill="none" opacity="1" stroke="#000000" stroke-linecap="round" stroke-linejoin="round" stroke-width="7.57104" vectornator:layerName="Line 3"/>
<path d="M453.213 892.046L498.17 888.19" fill="none" opacity="1" stroke="#000000" stroke-linecap="round" stroke-linejoin="round" stroke-width="7.57104" vectornator:layerName="Line 4"/>
</g>
<g opacity="1" vectornator:layerName="Group 4">
<path d="M591.131 821.35L591.131 873.894" fill="none" opacity="1" stroke="#000000" stroke-linecap="round" stroke-linejoin="round" stroke-width="7.57104" vectornator:layerName="Line 1"/>
<path d="M565.849 867.455L648.406 889.384" fill="none" opacity="1" stroke="#000000" stroke-linecap="round" stroke-linejoin="round" stroke-width="7.57104" vectornator:layerName="Line 2"/>
<path d="M591.131 873.894L602.849 901" fill="none" opacity="1" stroke="#000000" stroke-linecap="round" stroke-linejoin="round" stroke-width="7.57104" vectornator:layerName="Line 3"/>
<path d="M594.641 869.383L639.598 865.527" fill="none" opacity="1" stroke="#000000" stroke-linecap="round" stroke-linejoin="round" stroke-width="7.57104" vectornator:layerName="Line 4"/>
</g>
<path d="M281.567 689.196C284.451 597.109 341.169 512.883 509.108 522.096C676.795 531.295 677.047 347.393 677.047 669.217C677.047 761.348 690.611 847.373 509.108 859.312C402.991 866.292 276.147 862.231 281.567 689.196Z" fill="#fbfbfb" fill-rule="nonzero" opacity="1" stroke="none" vectornator:layerName="Oval 5"/>
<path d="M341.24 388.716C341.24 260.377 416.312 156.337 508.919 156.337C601.526 156.337 676.599 260.377 676.599 388.716C676.599 517.056 694.191 597.826 508.919 621.096C332.506 643.253 341.24 517.056 341.24 388.716Z" fill="#fbfbfb" fill-rule="nonzero" opacity="1" stroke="none" vectornator:layerName="Oval 6"/>
<path d="M285.706 611.269C321.502 521.373 389.937 462.269 487.222 605.17C530.743 669.097 514.253 725.528 444.954 781.185C375.656 836.842 312.655 861.175 227.686 823.682C166.329 796.607 243.303 717.76 285.706 611.269Z" fill="#f3eee6" fill-rule="nonzero" opacity="1" stroke="none" vectornator:layerName="Oval 7"/>
<path d="M472.228 394.388C472.228 389.937 475.836 386.329 480.287 386.329L480.287 386.329C484.737 386.329 488.345 389.937 488.345 394.388L488.345 415.993C488.345 420.444 484.737 424.052 480.287 424.052L480.287 424.052C475.836 424.052 472.228 420.444 472.228 415.993L472.228 394.388Z" fill="#000000" fill-rule="nonzero" opacity="1" stroke="none" vectornator:layerName="Rectangle 2"/>
<path d="M607.128 375.527C607.128 371.076 610.736 367.468 615.187 367.468L615.187 367.468C619.637 367.468 623.245 371.076 623.245 375.527L623.245 397.132C623.245 401.583 619.637 405.191 615.187 405.191L615.187 405.191C610.736 405.191 607.128 401.583 607.128 397.132L607.128 375.527Z" fill="#000000" fill-rule="nonzero" opacity="1" stroke="none" vectornator:layerName="Rectangle 3"/>
<g opacity="1" vectornator:layerName="Group 5">
<path d="M535.465 434.247C535.465 434.247 553.021 431.863 571.612 430.496C590.204 429.13 602.511 432.826 608.61 435.303C614.71 437.78 604.996 441.914 590.393 444.433C579.274 446.352 556.305 453.505 541.683 452.156C527.06 450.806 535.465 434.247 535.465 434.247Z" fill="#a59075" fill-rule="nonzero" opacity="1" stroke="none" vectornator:layerName="Rectangle 4"/>
<path d="M556.51 399.699C556.51 399.699 590.686 418.509 604.102 427.446C618.624 437.12 618.469 439.25 600.675 435.882C597.021 435.191 592.5 435.412 587.51 436.088C568.63 438.645 543.045 447.708 532.324 438.416C531.219 437.458 528.991 423.76 533.222 413.343C537.452 402.927 556.51 399.699 556.51 399.699Z" fill="#c2ae95" fill-rule="nonzero" opacity="1" stroke="none" vectornator:layerName="Rectangle 3"/>
</g>
</g>
<g id="Layer-2" vectornator:layerName="Layer 2" visibility="hidden">
<path d="M282.522 531.683C240.783 460.437 229.454 389.495 257.218 373.23C284.982 356.965 329.012 438.248 383.063 472.782C452.645 517.238 491.192 523.751 408.367 631.234C388.726 656.722 324.26 602.929 282.522 531.683Z" fill="#9b906b" fill-rule="nonzero" opacity="1" stroke="none" vectornator:layerName="Oval 19"/>
<path d="M402.24 867.983C406.193 806.043 450.674 826.081 495.971 836.602C541.268 847.123 568.761 877.599 566.274 906.085C562.39 950.567 517.839 947.987 472.542 937.466C427.246 926.944 398.541 925.931 402.24 867.983Z" fill="#9b906b" fill-rule="nonzero" opacity="1" stroke="none" vectornator:layerName="Oval 20"/>
<path d="M568.347 915.48C569.312 886.902 604.209 862.418 650.683 860.79C697.158 859.162 737.955 813.883 736.645 909.586C735.887 964.88 700.782 962.648 654.308 964.276C607.834 965.903 566.696 964.361 568.347 915.48Z" fill="#9b906b" fill-rule="nonzero" opacity="1" stroke="none" vectornator:layerName="Oval 21"/>
<g opacity="1" vectornator:layerName="Group 1">
<path d="M244.588 354.901C244.588 354.901 253.669 354.78 260.592 360.745C267.515 366.709 272.28 378.758 272.28 378.758" fill="none" opacity="1" stroke="#000000" stroke-linecap="round" stroke-linejoin="round" stroke-width="6.51117" vectornator:layerName="Line 5"/>
<path d="M217.422 375.581C217.422 375.581 226.176 373.162 234.385 377.176C242.594 381.191 250.258 391.638 250.258 391.638" fill="none" opacity="1" stroke="#000000" stroke-linecap="round" stroke-linejoin="round" stroke-width="6.51117" vectornator:layerName="Line 3"/>
<path d="M225.598 363.436C225.598 363.436 234.352 361.017 242.561 365.032C250.77 369.046 258.434 379.494 258.434 379.494" fill="none" opacity="1" stroke="#000000" stroke-linecap="round" stroke-linejoin="round" stroke-width="6.51117" vectornator:layerName="Line 6"/>
<path d="M801.137 820.524C801.137 820.524 805.476 828.503 803.425 837.408C801.375 846.313 792.935 856.144 792.935 856.144" fill="none" opacity="1" stroke="#000000" stroke-linecap="round" stroke-linejoin="round" stroke-width="6.51117" vectornator:layerName="Line 7"/>
<path d="M789.353 820.524C789.353 820.524 793.692 828.503 791.642 837.408C789.592 846.313 781.152 856.144 781.152 856.144" fill="none" opacity="1" stroke="#000000" stroke-linecap="round" stroke-linejoin="round" stroke-width="6.51117" vectornator:layerName="Line 8"/>
<path d="M774.947 824.947C774.947 824.947 779.286 832.926 777.236 841.83C775.185 850.735 766.745 860.567 766.745 860.567" fill="none" opacity="1" stroke="#000000" stroke-linecap="round" stroke-linejoin="round" stroke-width="6.51117" vectornator:layerName="Line 9"/>
<path d="M434.817 919.648C434.817 919.648 426.073 917.196 417.848 921.179C409.624 925.161 401.92 935.579 401.92 935.579" fill="none" opacity="1" stroke="#000000" stroke-linecap="round" stroke-linejoin="round" stroke-width="6.51117" vectornator:layerName="Line 10"/>
<path d="M467.714 927.987C467.714 927.987 458.97 925.535 450.745 929.518C442.521 933.5 434.817 943.918 434.817 943.918" fill="none" opacity="1" stroke="#000000" stroke-linecap="round" stroke-linejoin="round" stroke-width="6.51117" vectornator:layerName="Line 11"/>
<path d="M510.902 936.326C510.902 936.326 502.157 933.874 493.933 937.857C485.709 941.839 478.005 952.257 478.005 952.257" fill="none" opacity="1" stroke="#000000" stroke-linecap="round" stroke-linejoin="round" stroke-width="6.51117" vectornator:layerName="Line 12"/>
<path d="M610.161 953.004C610.161 953.004 601.416 950.552 593.192 954.534C584.968 958.517 577.264 968.935 577.264 968.935" fill="none" opacity="1" stroke="#000000" stroke-linecap="round" stroke-linejoin="round" stroke-width="6.51117" vectornator:layerName="Line 13"/>
<path d="M645.634 957.061C645.634 957.061 636.889 954.608 628.665 958.591C620.441 962.574 612.737 972.992 612.737 972.992" fill="none" opacity="1" stroke="#000000" stroke-linecap="round" stroke-linejoin="round" stroke-width="6.51117" vectornator:layerName="Line 14"/>
<path d="M685.384 957.061C685.384 957.061 676.64 954.608 668.415 958.591C660.191 962.574 652.487 972.992 652.487 972.992" fill="none" opacity="1" stroke="#000000" stroke-linecap="round" stroke-linejoin="round" stroke-width="6.51117" vectornator:layerName="Line 4"/>
</g>
<path d="M344.064 686.679C348.536 546.445 455.084 436.046 582.045 440.095C709.006 444.144 808.303 561.108 803.83 701.341C799.358 841.575 702.545 912.557 575.584 908.508C448.623 904.459 339.592 826.912 344.064 686.679Z" fill="#aba17a" fill-rule="nonzero" opacity="1" stroke="none" vectornator:layerName="Oval 22"/>
<path d="M395.067 705.788C395.067 638.175 443.794 583.364 503.902 583.364C564.01 583.364 645.634 632.228 645.634 699.841C645.634 767.454 652.487 858.534 503.902 828.211C436.393 814.435 395.067 773.4 395.067 705.788Z" fill="#faf4dc" fill-rule="nonzero" opacity="1" stroke="none" vectornator:layerName="Oval 23"/>
<path d="M828.728 683.542C837.215 765.677 818.148 834.941 786.141 838.248C754.134 841.555 747.719 749.336 712.821 695.518C667.897 626.237 635.508 604.346 755.409 540.813C783.841 525.747 820.242 601.408 828.728 683.542Z" fill="#9b906b" fill-rule="nonzero" opacity="1" stroke="none" vectornator:layerName="Oval 24"/>
<path d="M344.758 354.575C355.985 243.611 480.822 165.366 623.59 179.811C766.358 194.255 872.993 295.919 861.767 406.883C850.54 517.846 725.703 596.091 582.935 581.646C440.167 567.202 333.531 465.538 344.758 354.575Z" fill="#b7ad89" fill-rule="nonzero" opacity="1" stroke="none" vectornator:layerName="Oval 25"/>
<path d="M358.711 370.955C367.81 292.406 466.378 239.294 578.867 252.326C691.356 265.357 775.169 339.598 766.069 418.147C756.969 496.697 658.402 549.809 545.913 536.777C433.424 523.746 349.611 449.505 358.711 370.955Z" fill="#faf4dc" fill-rule="nonzero" opacity="1" stroke="none" vectornator:layerName="Oval 26"/>
<path d="M465.1 431.792C461.311 408.597 496.385 393.669 526.379 398.63C556.372 403.591 582.97 428.11 573.716 449.757C561.444 478.462 521.847 483.634 513.498 481.976C506.077 480.501 471.621 471.708 465.1 431.792Z" fill="#b7ad89" fill-rule="nonzero" opacity="1" stroke="none" vectornator:layerName="Oval 27"/>
<path d="M750.235 448.511C758.013 429.593 729.018 391.72 684.811 362.044C645.653 335.758 600.107 327.581 590.245 366.184C579.73 407.338 619.783 406.422 664.233 423.054C708.683 439.685 742.457 467.429 750.235 448.511Z" fill="#9b906b" fill-rule="nonzero" opacity="1" stroke="none" vectornator:layerName="Oval 28"/>
<path d="M359.533 397.494C356.543 380.298 384.553 353.493 422.894 336.165C456.856 320.817 492.873 321.749 494.391 355.811C496.01 392.125 465.598 384.506 429.101 390.852C392.604 397.199 362.523 414.69 359.533 397.494Z" fill="#9b906b" fill-rule="nonzero" opacity="1" stroke="none" vectornator:layerName="Oval 29"/>
<g opacity="1" vectornator:layerName="Group 2">
<path d="M457.648 338.429C457.864 335.883 461.765 334.135 466.362 334.524L466.362 334.524C470.959 334.913 474.511 337.293 474.295 339.84L471.937 367.678C471.721 370.224 467.819 371.973 463.222 371.583L463.222 371.583C458.625 371.194 455.074 368.814 455.29 366.267L457.648 338.429Z" fill="#000000" fill-rule="nonzero" opacity="1" stroke="none" vectornator:layerName="Rectangle 2"/>
<path d="M612.529 356.479C612.745 353.933 616.646 352.185 621.243 352.574L621.243 352.574C625.84 352.964 629.392 355.343 629.176 357.89L626.817 385.728C626.602 388.274 622.7 390.023 618.103 389.633L618.103 389.633C613.506 389.244 609.954 386.864 610.17 384.317L612.529 356.479Z" fill="#000000" fill-rule="nonzero" opacity="1" stroke="none" vectornator:layerName="Rectangle 1"/>
<path d="M505.995 401.729C507.039 395.334 516.45 391.549 527.014 393.274C537.579 394.999 545.297 401.581 544.253 407.975C543.209 414.37 533.798 418.155 523.233 416.43C512.669 414.705 504.951 408.123 505.995 401.729Z" fill="#000000" fill-rule="nonzero" opacity="1" stroke="none" vectornator:layerName="Oval 2"/>
<path d="M481.462 408.835C481.462 408.835 500.595 422.578 525.124 426.053C549.653 429.528 568.299 427.306 568.299 427.306" fill="none" opacity="1" stroke="#000000" stroke-linecap="round" stroke-linejoin="round" stroke-width="5.07115" vectornator:layerName="Line 1"/>
</g>
</g>
<g id="Layer-3" vectornator:layerName="Layer 3" visibility="hidden">
<path d="M282.599 119.043C308.748 96.8858 409.504 156.488 409.504 156.488L395.263 234.675L310.506 245.572C310.506 245.572 256.45 141.2 282.599 119.043Z" fill="#c07d52" fill-rule="nonzero" opacity="1" stroke="none" vectornator:layerName="Rectangle 4"/>
<path d="M754.574 146.276C782.314 179.159 710.019 308.351 710.019 308.351L613.191 291.576L598.571 183.945C598.571 183.945 726.833 113.393 754.574 146.276Z" fill="#c07d52" fill-rule="nonzero" opacity="1" stroke="none" vectornator:layerName="Rectangle 5"/>
<path d="M321.132 222.946C321.132 222.946 295.762 159.548 309.679 147.992C323.597 136.436 386.028 170.267 386.028 170.267L370.421 211.105L321.132 222.946Z" fill="#f2d1a2" fill-rule="nonzero" opacity="1" stroke="none" vectornator:layerName="Rectangle 6"/>
<path d="M640.427 195.348C640.427 195.348 715.626 169.009 729.348 184.248C743.07 199.488 702.98 266.39 702.98 266.39L654.514 248.825L640.427 195.348Z" fill="#f2d1a2" fill-rule="nonzero" opacity="1" stroke="none" vectornator:layerName="Rectangle 7"/>
<path d="M347.912 659.878C429.679 592.865 473.559 598.058 444.264 490.79C415.287 384.69 295.443 524.568 259.21 576.075C237.014 607.627 190.668 731.582 217.123 755.415C243.578 779.247 267.913 725.442 347.912 659.878Z" fill="#b4734a" fill-rule="nonzero" opacity="1" stroke="none" vectornator:layerName="Oval 7"/>
<path d="M336.353 895.721C343.453 838.055 371.628 860.669 409.248 865.302C446.868 869.934 479.687 854.831 472.586 912.497C470.196 931.9 458.451 952.058 399.69 942.916C331.883 932.366 333.713 917.154 336.353 895.721Z" fill="#b4734a" fill-rule="nonzero" opacity="1" stroke="none" vectornator:layerName="Oval 8"/>
<path d="M502.716 930.416C491.04 861.81 532.674 877.811 579.322 869.872C625.97 861.933 659.967 833.061 671.643 901.667C675.572 924.751 668.566 951.996 595.037 962.21C510.186 973.998 507.055 955.914 502.716 930.416Z" fill="#b4734a" fill-rule="nonzero" opacity="1" stroke="none" vectornator:layerName="Oval 9"/>
<path d="M277.6 679.674C277.6 548.999 359.178 437.471 502.873 437.471C646.568 437.471 723.858 546.201 723.858 676.876C723.858 807.55 723.858 919.457 502.873 910.685C284.561 902.019 277.6 810.348 277.6 679.674Z" fill="#c07d52" fill-rule="nonzero" opacity="1" stroke="none" vectornator:layerName="Oval 10"/>
<path d="M663.231 761.262C663.231 761.262 664.306 664.073 747.749 634.623C827.143 606.602 870.81 659.878 870.81 659.878" fill="none" opacity="1" stroke="#c07d52" stroke-linecap="round" stroke-linejoin="round" stroke-width="62.5877" vectornator:layerName="Line 2"/>
<path d="M655.483 674.32C604.754 581.566 576.965 587.66 630.147 504.054C672.5 437.471 755.495 591.095 769.808 652.422C778.576 689.989 781.203 818.651 747.749 830.844C714.296 843.038 705.115 765.067 655.483 674.32Z" fill="#b4734a" fill-rule="nonzero" opacity="1" stroke="none" vectornator:layerName="Oval 11"/>
<path d="M271.103 346.567C271.103 231.125 371.976 137.541 496.409 137.541C620.842 137.541 721.714 231.125 721.714 346.567C721.714 462.008 661.087 534.099 487.179 519.942C321.634 506.466 271.103 462.008 271.103 346.567Z" fill="#cc8556" fill-rule="nonzero" opacity="1" stroke="none" vectornator:layerName="Oval 12"/>
<path d="M386.273 385.779C389.64 355.375 426.862 334.549 469.41 339.262C511.957 343.975 543.719 372.442 540.351 402.846C536.984 433.249 499.762 454.076 457.214 449.363C414.666 444.65 382.905 416.182 386.273 385.779Z" fill="#f2d1a2" fill-rule="nonzero" opacity="1" stroke="none" vectornator:layerName="Oval 13"/>
<path d="M374.643 316.203C374.643 312.848 379.493 310.129 385.475 310.129L385.475 310.129C391.457 310.129 396.307 312.848 396.307 316.203L396.307 346.663C396.307 350.018 391.457 352.737 385.475 352.737L385.475 352.737C379.493 352.737 374.643 350.018 374.643 346.663L374.643 316.203Z" fill="#000000" fill-rule="nonzero" opacity="1" stroke="none" vectornator:layerName="Rectangle 8"/>
<path d="M534.686 337.506C534.686 334.152 539.536 331.433 545.518 331.433L545.518 331.433C551.5 331.433 556.35 334.152 556.35 337.506L556.35 367.967C556.35 371.321 551.5 374.04 545.518 374.04L545.518 374.04C539.536 374.04 534.686 371.321 534.686 367.967L534.686 337.506Z" fill="#000000" fill-rule="nonzero" opacity="1" stroke="none" vectornator:layerName="Rectangle 9"/>
<path d="M425.271 361.393C426.794 351.841 440.207 353.371 457.417 354.92C474.857 356.49 488.586 361.694 487.063 371.246C485.54 380.798 463.85 395.027 453.467 394.284C444.209 393.622 423.747 370.946 425.271 361.393Z" fill="#f19696" fill-rule="nonzero" opacity="1" stroke="none" vectornator:layerName="Oval 14"/>
<g opacity="1" vectornator:layerName="Group 5">
<path d="M409.504 394.312C409.504 394.312 423.893 408.718 451.644 399.58C475.389 414.338 501.467 407.477 501.467 407.477" fill="none" opacity="1" stroke="#000000" stroke-linecap="round" stroke-linejoin="round" stroke-width="5.36098" vectornator:layerName="Line 3"/>
<g opacity="1" vectornator:layerName="Group 2">
<path d="M307.136 349.594L240.546 337.848" fill="none" opacity="1" stroke="#000000" stroke-linecap="round" stroke-linejoin="round" stroke-width="5.36098" vectornator:layerName="Line 2"/>
<path d="M308.414 371.359L252.04 385.078" fill="none" opacity="1" stroke="#000000" stroke-linecap="round" stroke-linejoin="round" stroke-width="5.36098" vectornator:layerName="Line 3"/>
<path d="M318.794 397.496L261.725 424.875" fill="none" opacity="1" stroke="#000000" stroke-linecap="round" stroke-linejoin="round" stroke-width="5.36098" vectornator:layerName="Line 4"/>
</g>
<g opacity="1" vectornator:layerName="Group 3">
<path d="M644.696 394.893L745.605 381.362" fill="none" opacity="1" stroke="#000000" stroke-linecap="round" stroke-linejoin="round" stroke-width="5.36098" vectornator:layerName="Line 2"/>
<path d="M642.759 419.965L728.188 435.77" fill="none" opacity="1" stroke="#000000" stroke-linecap="round" stroke-linejoin="round" stroke-width="5.36098" vectornator:layerName="Line 3"/>
<path d="M627.031 450.075L713.511 481.615" fill="none" opacity="1" stroke="#000000" stroke-linecap="round" stroke-linejoin="round" stroke-width="5.36098" vectornator:layerName="Line 4"/>
</g>
</g>
<path d="M320.938 710.892C320.938 633.235 377.946 570.283 448.269 570.283C518.592 570.283 575.601 633.235 575.601 710.892C575.601 788.548 575.601 857.644 448.269 851.501C357.665 847.129 320.938 788.548 320.938 710.892Z" fill="#f2d1a2" fill-rule="nonzero" opacity="1" stroke="none" vectornator:layerName="Oval 15"/>
<g opacity="1" vectornator:layerName="Group 4">
<path d="M428.472 184.306C429.177 171.404 438.665 144.753 438.665 144.753C438.665 144.753 445.888 142.086 453.543 140.8C461.199 139.515 469.299 139.395 469.299 139.395C469.299 139.395 463.961 158.94 462.682 182.367C461.402 205.794 456.392 228.375 445.634 227.787C434.877 227.2 427.193 207.732 428.472 184.306Z" fill="#f2d1a2" fill-rule="nonzero" opacity="1" stroke="none" vectornator:layerName="Oval 11"/>
<path d="M471.927 184.753C472.632 171.852 481.538 138.06 481.538 138.06L497.205 137.458L512.523 138.294C512.523 138.294 507.416 159.388 506.137 182.815C504.857 206.241 499.808 223.132 489.05 222.545C478.292 221.957 470.648 208.18 471.927 184.753Z" fill="#f2d1a2" fill-rule="nonzero" opacity="1" stroke="none" vectornator:layerName="Oval 12"/>
<path d="M516.908 190.671C517.613 177.769 527.803 139.892 527.803 139.892C527.803 139.892 536.039 140.518 543.453 141.788C550.868 143.059 557.439 145.481 557.439 145.481C557.439 145.481 552.397 165.306 551.117 188.733C549.838 212.159 544.789 229.05 534.031 228.463C523.273 227.875 515.629 214.098 516.908 190.671Z" fill="#f2d1a2" fill-rule="nonzero" opacity="1" stroke="none" vectornator:layerName="Oval 10"/>
</g>
<path d="M780.89 619.48C780.89 611.942 780.082 595.496 780.082 595.496C780.082 595.496 785.808 595.149 790.818 595.18C795.828 595.21 800.588 595.462 800.588 595.462C800.588 595.462 802.503 604.808 802.503 619.642C802.503 634.477 799.433 646.34 792.836 646.34C786.238 646.34 780.89 634.314 780.89 619.48Z" fill="#f2d1a2" fill-rule="nonzero" opacity="1" stroke="none" vectornator:layerName="Oval 16"/>
<path d="M697.62 682.523C688.881 687.389 668.925 700.656 668.925 700.656C668.925 700.656 665.687 693.736 662.33 687.623C658.973 681.511 655.511 674.32 655.511 674.32C655.511 674.32 665.976 665.709 683.175 656.134C700.374 646.559 716.207 642.635 720.673 650.658C725.14 658.682 714.819 672.948 697.62 682.523Z" fill="#f2d1a2" fill-rule="nonzero" opacity="1" stroke="none" vectornator:layerName="Oval 17"/>
<path d="M277.692 602.065C280.78 602.04 287.575 603.908 287.575 603.908C287.575 603.908 287.235 607.125 285.348 613.838C283.461 620.552 281.951 628.276 281.951 628.276C281.951 628.276 275.639 628.143 270.585 624.557C267.197 622.154 262.785 616.301 264.375 611.032C266.15 605.155 273.247 602.102 277.692 602.065Z" fill="#f2d1a2" fill-rule="nonzero" opacity="1" stroke="none" vectornator:layerName="Oval 18"/>
<path d="M269.652 634.193C272.723 633.86 280.876 635.284 280.876 635.284C280.876 635.284 280.879 638.47 279.67 645.338C278.46 652.206 278.622 659.878 278.622 659.878C278.622 659.878 270.205 660.345 264.82 657.281C261.21 655.226 256.236 649.841 257.294 644.44C258.475 638.416 265.233 634.671 269.652 634.193Z" fill="#f2d1a2" fill-rule="nonzero" opacity="1" stroke="none" vectornator:layerName="Oval 19"/>
<path d="M709.222 714.485C701.362 718.861 682.92 730.967 682.92 730.967C682.92 730.967 680.515 724.72 677.635 718.824C674.955 713.337 672.5 707.45 672.5 707.45C672.5 707.45 681.109 699.985 696.577 691.374C712.044 682.762 726.234 679.145 730.146 686.171C734.058 693.197 724.69 705.874 709.222 714.485Z" fill="#f2d1a2" fill-rule="nonzero" opacity="1" stroke="none" vectornator:layerName="Oval 20"/>
<path d="M807.839 620.759C807.839 613.221 805.827 595.875 805.827 595.875C805.827 595.875 810.77 596.169 815.733 596.856C821.334 597.631 826.021 599.18 826.021 599.18C826.021 599.18 827.143 606.109 827.143 620.944C827.143 635.779 824.073 647.642 817.476 647.642C810.878 647.642 807.839 635.594 807.839 620.759Z" fill="#f2d1a2" fill-rule="nonzero" opacity="1" stroke="none" vectornator:layerName="Oval 21"/>
</g>
<g id="Layer-4" vectornator:layerName="Layer 4" visibility="hidden">
<g opacity="1" vectornator:layerName="Group 1">
<g opacity="1" vectornator:layerName="Group">
<path d="M558.307 590.604C558.307 590.604 559.561 631.317 599.391 678.929C603.845 676.687 607.044 675.376 609.945 675.32C613.889 675.245 617.364 677.039 619.535 680.245C620.72 681.994 621.277 683.624 621.98 686.282C622.108 686.766 622.525 688.463 622.572 688.642C622.815 689.582 623.045 690.318 623.275 691.094C623.862 693.074 624.525 694.968 625.39 696.907C626.602 699.626 626.176 702.536 624.733 704.895C653.354 730.672 692.59 754.927 746.624 739.496C804.933 722.843 852.503 731.007 852.503 731.007C852.503 731.007 845.275 695.124 825.446 659.777C824.225 659.601 823.025 659.194 821.922 658.477C820.567 657.594 814.586 653.904 813.865 653.453C810.831 651.556 808.978 650.266 807.235 648.804C800.373 643.048 798.485 636.408 798.909 623.741C783.95 608.477 765.372 596.536 742.21 592.826C656.594 579.114 558.307 590.604 558.307 590.604ZM724.255 673.054C730.924 673.347 736.487 674.54 740.503 676.604C742.953 677.864 744.97 679.498 746.348 681.639C748.612 685.155 748.759 689.673 746.102 693.291C740.497 700.923 727.696 699.004 713.125 691.228C708.875 688.961 707.281 683.686 709.549 679.436C711.333 676.094 714.985 674.478 718.53 675.005C720.117 673.745 722.072 672.957 724.255 673.054Z" fill="#c1ad27" fill-rule="nonzero" opacity="1" stroke="none"/>
<path d="M875.939 236.924C825.04 242.979 763.335 257.411 703.064 289.394C704.547 292.874 703.738 296.991 700.661 299.509C699.619 300.362 698.431 301.879 696.07 305.157C695.898 305.394 695.876 305.363 695.702 305.604C691.081 312.024 688.927 314.557 684.971 316.845C679.567 319.971 675.378 320.258 666.608 319.522C665.83 319.457 665.484 319.45 665.054 319.417C661.505 319.149 659.687 319.258 658.455 319.808C656.988 320.462 655.467 320.518 653.981 320.35C650.462 322.894 646.875 325.13 643.394 327.82C558.459 393.474 558.397 591.522 558.397 591.522C558.397 591.522 830.604 627.454 893.791 502.159C908.034 473.917 920.358 445.866 931.455 418.814C931.456 418.549 931.318 418.321 931.329 418.055C931.77 408.07 933.329 400.966 937.476 386.322C937.553 386.052 937.553 386.062 937.63 385.793C940.695 374.967 941.801 369.874 942.112 364.36C942.088 364.265 942.073 364.244 942.036 364.11C941.758 363.118 941.294 361.792 940.47 359.685C940.335 359.341 940.197 359.011 939.993 358.497C937.889 353.181 937.166 351.177 936.339 347.999C934.608 341.349 934.396 335.24 937.225 328.72C939.86 322.643 944.21 318.279 951.011 312.961C953.107 311.321 955.409 309.65 957.924 307.909C960.404 306.192 962.992 304.454 965.796 302.66C966.838 301.993 971.057 299.323 971.366 299.129C972.491 298.421 973.737 298.206 974.935 297.749C986.493 260.302 992.567 235.716 992.566 235.716C992.566 235.717 943.899 228.841 875.939 236.924ZM841.47 292.532C844.83 292.202 848.304 293.131 851.12 295.444C856.752 300.068 857.571 308.413 852.946 314.045C853.172 313.769 847.946 320.783 845.399 322.606C843.138 324.225 841.39 324.829 838.633 325.483C838.36 325.548 837.077 325.888 836.675 325.983C835.832 326.183 834.979 326.353 834.06 326.6C827.023 328.495 819.81 324.314 817.915 317.277C816.021 310.24 820.202 303.027 827.239 301.132C828.253 300.859 829.176 300.663 830.103 300.439C830.13 300.404 830.173 300.299 830.19 300.276C830.915 299.327 831.654 298.323 832.519 297.269C834.832 294.454 838.11 292.862 841.47 292.532ZM839.872 425.127C844.668 423.973 849.692 424.621 854.735 427.682C862.81 432.584 864.861 441.313 861.915 449.462C860.359 453.765 857.549 457.864 853.607 462.317C851.426 464.781 848.922 467.341 846.077 470.002C841.906 473.903 832.8 481.648 833.094 481.361C831.262 483.147 828.996 484.055 826.668 484.565C826.652 484.568 826.634 484.566 826.617 484.57C822.895 488.092 817.304 489.275 812.305 487.106C805.62 484.207 802.559 476.456 805.458 469.77C805.585 469.478 807.906 464.08 808.564 462.622C810.376 458.61 812.211 454.82 814.18 451.163C818.121 443.843 822.133 437.846 826.482 433.388C830.541 429.225 835.076 426.282 839.872 425.127ZM793.953 486.747C795.068 486.548 796.284 486.547 797.458 486.814C801.506 487.736 804.061 491.341 804.056 495.325C804.684 498.444 804.007 501.867 801.97 504.997C799.343 509.034 793.912 510.201 789.874 507.573C788.146 506.449 787.088 504.783 786.489 502.966C784.719 501.247 783.595 498.843 783.791 495.925C784.134 490.847 787.76 488.03 791.69 487.277C791.975 487.223 792.271 487.275 792.561 487.243C793.027 487.074 793.46 486.834 793.953 486.747Z" fill="#d4b953" fill-rule="nonzero" opacity="1" stroke="none"/>
<path d="M540.512 589.935C540.512 589.935 547.197 630.115 517.385 684.562C512.58 683.229 509.186 682.565 506.331 683.075C502.447 683.768 499.387 686.203 497.881 689.769C497.059 691.716 496.829 693.423 496.656 696.167C496.625 696.666 496.545 698.413 496.535 698.597C496.479 699.566 496.396 700.333 496.321 701.139C496.13 703.195 495.849 705.182 495.378 707.252C494.717 710.155 495.701 712.927 497.575 714.96C474.512 745.81 440.74 777.23 384.737 772.599C324.303 767.602 279.228 784.859 279.228 784.859C279.228 784.859 279.341 748.255 291.92 709.727C293.083 709.317 294.181 708.685 295.124 707.766C296.282 706.637 301.431 701.854 302.05 701.273C304.657 698.821 306.225 697.196 307.65 695.423C313.262 688.443 313.822 681.562 310.944 669.219C322.65 651.338 338.552 636.013 360.55 627.871C441.867 597.774 540.512 589.935 540.512 589.935ZM393.761 703.076C387.276 704.661 382.051 706.912 378.514 709.718C376.356 711.43 374.695 713.425 373.759 715.793C372.222 719.682 372.955 724.143 376.265 727.175C383.247 733.571 395.431 729.2 408.213 718.74C411.94 715.689 412.478 710.205 409.427 706.478C407.028 703.546 403.131 702.671 399.756 703.877C397.954 702.95 395.884 702.557 393.761 703.076Z" fill="#c1ad27" fill-rule="nonzero" opacity="1" stroke="none"/>
<path d="M160.176 304.761C211.281 300.804 274.614 302.963 339.954 322.618C339.175 326.319 340.769 330.2 344.278 332.073C345.465 332.706 346.925 333.964 349.879 336.72C350.093 336.919 350.11 336.885 350.327 337.087C356.107 342.486 358.713 344.552 363.038 346.027C368.947 348.043 373.112 347.51 381.571 345.083C382.322 344.867 382.66 344.793 383.075 344.678C386.504 343.725 388.309 343.478 389.624 343.778C391.191 344.135 392.693 343.894 394.119 343.44C398.065 345.251 402.018 346.747 405.956 348.709C502.035 396.597 540.602 590.852 540.602 590.852C540.602 590.852 280.576 679.024 194.233 568.405C174.771 543.471 157.228 518.352 141.084 493.974C141.031 493.714 141.123 493.464 141.06 493.204C138.686 483.496 135.775 476.831 128.86 463.273C128.732 463.023 128.734 463.032 128.607 462.783C123.495 452.76 121.42 447.979 120.043 442.631C120.047 442.533 120.058 442.509 120.069 442.371C120.148 441.344 120.346 439.952 120.745 437.726C120.81 437.362 120.881 437.011 120.981 436.468C122.011 430.844 122.331 428.737 122.525 425.46C122.93 418.6 121.949 412.566 117.907 406.721C114.141 401.273 109.025 397.837 101.32 393.942C98.9456 392.742 96.3622 391.55 93.5566 390.331C90.7906 389.129 87.9138 387.928 84.8147 386.713C83.6629 386.261 79.0055 384.463 78.6641 384.332C77.4226 383.857 76.1586 383.888 74.8948 383.673C56.2767 349.188 45.5388 326.252 45.5393 326.252C45.5393 326.252 91.9416 310.045 160.176 304.761ZM204.799 352.606C201.438 352.936 198.211 354.522 195.899 357.338C191.274 362.97 192.093 371.314 197.725 375.939C197.449 375.713 203.939 381.577 206.792 382.87C209.325 384.019 211.157 384.271 213.988 384.376C214.269 384.387 215.593 384.472 216.006 384.487C216.872 384.518 217.742 384.519 218.691 384.583C225.962 385.074 232.225 379.57 232.715 372.299C233.206 365.028 227.702 358.765 220.431 358.275C219.383 358.204 218.439 358.191 217.486 358.152C217.453 358.123 217.391 358.029 217.369 358.009C216.474 357.219 215.553 356.378 214.5 355.513C211.684 353.2 208.159 352.276 204.799 352.606ZM232.147 482.36C227.218 482.16 222.416 483.772 218.064 487.756C211.096 494.134 210.781 503.095 215.255 510.516C217.618 514.434 221.172 517.91 225.905 521.511C228.523 523.503 231.477 525.528 234.785 527.585C239.635 530.601 250.073 536.427 249.728 536.203C251.872 537.598 254.273 538.049 256.655 538.096C256.672 538.096 256.689 538.09 256.705 538.091C261.042 540.823 266.756 540.895 271.238 537.797C277.232 533.652 278.727 525.454 274.583 519.46C274.402 519.198 271.076 514.355 270.147 513.052C267.59 509.469 265.053 506.108 262.41 502.904C257.122 496.489 252.02 491.387 246.887 487.859C242.096 484.566 237.076 482.56 232.147 482.36ZM289.17 533.876C288.037 533.898 286.844 534.133 285.744 534.623C281.953 536.315 280.148 540.348 280.927 544.255C280.918 547.437 282.248 550.663 284.854 553.337C288.216 556.786 293.771 556.874 297.22 553.512C298.696 552.073 299.41 550.233 299.645 548.335C301.047 546.304 301.682 543.727 300.922 540.903C299.599 535.989 295.494 533.931 291.493 533.956C291.202 533.958 290.922 534.067 290.632 534.092C290.142 534.017 289.671 533.866 289.17 533.876Z" fill="#d4b953" fill-rule="nonzero" opacity="1" stroke="none"/>
</g>
<g opacity="1" vectornator:layerName="Group 1">
<path d="M563.291 591.235C563.291 591.235 605.136 554.529 651.139 510.02C697.141 465.511 747.555 434.067 747.555 434.067" fill="none" opacity="1" stroke="#9a8b1f" stroke-linecap="round" stroke-linejoin="round" stroke-width="14.1632"/>
<path d="M563.133 593.698C563.133 593.698 577.097 609.426 590.148 618.637C603.2 627.847 615.34 630.54 615.34 630.54" fill="none" opacity="1" stroke="#9a8b1f" stroke-linecap="round" stroke-linejoin="round" stroke-width="14.1632"/>
<path d="M534.291 592.462C534.291 592.462 486.107 564.592 432.329 529.876C378.551 495.16 322.986 474.119 322.986 474.119" fill="none" opacity="1" stroke="#9a8b1f" stroke-linecap="round" stroke-linejoin="round" stroke-width="14.1632"/>
<path d="M534.924 594.847C534.924 594.847 524.285 612.99 513.273 624.562C502.261 636.134 490.877 641.137 490.877 641.137" fill="none" opacity="1" stroke="#9a8b1f" stroke-linecap="round" stroke-linejoin="round" stroke-width="14.1632"/>
</g>
</g>
<g opacity="1" vectornator:layerName="Group 2">
<g opacity="1">
<path d="M529.766 647.624L551.604 649.48C583.988 652.232 598.079 688.727 596.666 732.584L599.262 817.827C597.989 872.952 599.915 882.261 567.531 879.509L501.859 876.345C469.474 873.593 472.908 847.21 474.321 803.353L481.703 718.069C483.116 674.212 497.382 644.872 529.766 647.624Z" fill="#e2f1fa" fill-rule="nonzero" opacity="1" stroke="#ffffff" stroke-linecap="round" stroke-linejoin="round" stroke-width="8.68212"/>
<path d="M654.03 619.795L675.892 616.755C708.313 612.245 725.167 645.159 727.175 688.806L734.099 767.96C736.107 811.608 742.056 835.968 709.634 840.477L644.076 852.011C611.655 856.52 611.312 821.75 609.304 778.103L611.712 700.126C609.704 656.479 621.609 624.305 654.03 619.795Z" fill="#e2f1fa" fill-rule="nonzero" opacity="1" stroke="#ffffff" stroke-linecap="round" stroke-linejoin="round" stroke-width="8.68212"/>
</g>
</g>
<g opacity="1" vectornator:layerName="Group 3">
<path d="M746.058 824.658C746.058 824.658 719.654 806.121 687.554 807.491C661.347 808.608 628.822 826.854 628.822 826.854C612.297 826.707 604.782 830.78 604.866 841.115L613.915 872.524C614 882.859 642.66 888.204 642.66 888.204L721.226 886.288C737.751 886.435 762.788 884.459 762.703 874.124L769.659 842.578C769.574 832.243 769.367 822.943 746.058 824.658Z" fill="#a2662a" fill-rule="nonzero" opacity="1" stroke="none"/>
<path d="M604.663 839.684C604.663 839.684 640.049 866.043 687.409 865.597C736.289 865.135 770.18 838.117 770.18 838.117C770.18 838.117 766.874 874.83 762.055 881.671C757.236 888.512 744.842 888.72 744.842 888.72C744.842 888.72 708.888 888.244 701.364 887.944L645.571 888.949C638.047 888.649 630.586 889.904 622.459 887.208C614.333 884.511 613.065 878.164 613.065 878.164L604.663 839.684Z" fill="#7c4a25" fill-rule="nonzero" opacity="1" stroke="none"/>
</g>
<g opacity="1" vectornator:layerName="Group 4">
<path d="M475.766 842.934C475.766 842.934 501.568 823.569 533.695 823.918C559.925 824.203 593.013 841.407 593.013 841.407C609.525 840.736 617.165 844.568 617.409 854.901L609.362 886.581C609.605 896.914 581.129 903.166 581.129 903.166L502.542 903.745C486.03 904.416 460.943 903.236 460.7 892.904L452.746 861.594C452.503 851.262 452.415 841.96 475.766 842.934Z" fill="#a2662a" fill-rule="nonzero" opacity="1" stroke="none"/>
<path d="M617.566 853.464C617.566 853.464 583.036 880.933 535.686 881.99C486.815 883.081 452.083 857.152 452.083 857.152C452.083 857.152 456.553 893.742 461.587 900.426C466.621 907.11 479.015 906.925 479.015 906.925C479.015 906.925 514.936 905.308 522.447 904.769L578.243 904.003C585.754 903.464 593.251 904.482 601.288 901.529C609.325 898.576 610.39 892.191 610.39 892.191L617.566 853.464Z" fill="#7c4a25" fill-rule="nonzero" opacity="1" stroke="none"/>
</g>
<g opacity="1" vectornator:layerName="Group 5">
<g opacity="1" vectornator:layerName="Group 2">
<path d="M795.509 636.066C795.509 636.066 778.226 603.187 757.537 576.853C736.848 550.52 712.753 530.733 712.753 530.733C704.163 519.799 684.987 522.327 669.923 536.378L669.923 536.378C654.86 550.43 649.612 570.685 658.202 581.619C658.202 581.619 685.794 599.889 706.483 626.222C727.172 652.555 740.958 686.952 740.958 686.952C749.549 697.886 768.724 695.358 783.788 681.307L783.788 681.307C798.852 667.255 804.1 647 795.509 636.066Z" fill="#e2f1fa" fill-rule="nonzero" opacity="1" stroke="#ffffff" stroke-linecap="butt" stroke-linejoin="round" stroke-width="8.58891"/>
<path d="M775.771 642.78L755.045 658.313C740.6 669.14 734.602 691.565 741.647 708.401L741.647 708.401C748.692 725.238 766.113 730.111 780.558 719.284L801.284 703.751C815.729 692.925 821.727 670.499 814.682 653.663L814.682 653.663C807.637 636.826 790.216 631.954 775.771 642.78Z" fill="#e2f1fa" fill-rule="nonzero" opacity="1" stroke="#ffffff" stroke-linecap="butt" stroke-linejoin="round" stroke-width="8.58891"/>
</g>
<g opacity="1" vectornator:layerName="Group 1">
<path d="M772.025 668.291C783.6 686.546 749.431 624.846 759.473 654.848C761.976 662.328 772.269 689.036 762.063 669.781C760.827 667.449 750.224 648.831 747.216 651.328C744.52 653.566 764.071 681.49 761.866 684.722C755.219 694.463 753.908 653.492 744.804 659.159C742.808 660.402 758.342 685.625 756.932 689.088C752.331 700.394 747.529 654.853 739.644 663.307C738.114 664.947 756.975 697.831 746.623 685.578" fill="none" opacity="1" stroke="#e2f1fa" stroke-linecap="round" stroke-linejoin="round" stroke-width="8.58891"/>
<path d="M775.487 661.058C771.91 652.039 766.167 645.194 762.622 636.255" fill="none" opacity="1" stroke="#e2f1fa" stroke-linecap="round" stroke-linejoin="round" stroke-width="8.58891"/>
<path d="M767.928 634.057C764.346 631.125 777.92 651.069 776.165 646.179C768.092 623.683 775.568 639.965 779.072 651.492C779.818 653.947 776.42 641.581 777.57 643.738C778.121 644.769 781.502 651.928 780.48 648.955C779.472 646.021 772.458 631.749 777.136 640.767C777.896 642.233 779.009 643.288 779.701 644.798C781.56 648.851 783.59 652.711 785.229 656.876" fill="none" opacity="1" stroke="#e2f1fa" stroke-linecap="round" stroke-linejoin="round" stroke-width="8.58891"/>
<path d="M780.955 627.459C776.175 625.923 796.01 645.558 791.209 644.112C788.775 643.38 776.235 634.527 779.791 638.046C787.151 645.33 794.977 650.873 802.783 656.585" fill="none" opacity="1" stroke="#e2f1fa" stroke-linecap="round" stroke-linejoin="round" stroke-width="8.58891"/>
</g>
</g>
<g opacity="1" vectornator:layerName="Group 6">
<path d="M558.034 567.728L626.75 567.728C689.733 567.728 740.79 615.212 740.79 673.787L740.79 673.787C740.79 732.362 689.733 779.846 626.75 779.846L558.034 779.846C495.052 779.846 443.995 732.362 443.995 673.787L443.995 673.787C443.995 615.212 495.052 567.728 558.034 567.728Z" fill="#7c4a25" fill-rule="nonzero" opacity="1" stroke="none"/>
<g opacity="1">
<g opacity="1">
<path d="M676.384 750.474C667.565 720.994 663.938 702.42 696.494 693.213C729.051 684.005 733.791 704.484 742.611 733.964C751.431 763.443 727.113 797.85 727.113 797.85C727.113 797.85 685.204 779.953 676.384 750.474Z" fill="#3f835a" fill-rule="nonzero" opacity="1" stroke="none"/>
<path d="M693.91 714.273L691.733 720.363C691.733 720.363 692.256 724.255 692.917 726.299C693.578 728.342 694.192 732.127 696.073 735.883C697.953 739.638 700.922 742.809 701.969 744.17C706.896 750.576 712.064 753.423 716.156 760.425C717.815 763.263 719.272 766.216 720.699 769.177C722.065 772.01 722.516 776.048 724.505 778.544C724.848 778.975 723.968 777.579 723.769 777.065C723.279 775.806 722.844 774.526 722.418 773.244C721.859 771.561 721.629 769.786 721.19 768.067C720.105 763.82 719.412 759.518 717.875 755.372C716.328 751.197 713.871 747.655 711.982 743.663C710.484 740.496 709.74 737.005 708.053 733.925C707.184 732.339 705.933 728.772 705.617 726.87C704.989 723.083 705.371 716.322 705.371 716.322L694.771 710.101L693.91 714.273Z" fill="#7ca76a" fill-rule="nonzero" opacity="1" stroke="none"/>
</g>
<g opacity="1">
<path d="M449.012 740.465C453.257 713.705 436.765 680.363 471.236 680.026C475.828 679.982 494.532 685.617 501.034 686.647C556.352 695.407 521.161 721.771 516.351 752.095C511.54 782.419 474.486 803.896 474.486 803.896C474.486 803.896 444.202 770.789 449.012 740.465Z" fill="#3f835a" fill-rule="nonzero" opacity="1" stroke="none"/>
<path d="M488.339 706.028L485.693 708.416C485.693 708.416 480.564 722.462 479.739 730.123C477.903 747.178 480.582 765.453 475.149 781.816C475.102 781.958 475.291 781.554 475.348 781.416C475.957 779.95 476.721 778.537 477.145 777.008C478.147 773.385 478.423 769.576 479.54 765.988C482.782 755.573 487.986 745.839 491.515 735.533C494.443 726.982 495.876 720.891 496.278 712.012C496.435 708.549 496.419 707.796 496.419 707.796L494.242 701.053L491.764 703.263L488.339 706.028Z" fill="#7ca76a" fill-rule="nonzero" opacity="1" stroke="none"/>
</g>
<g opacity="1">
<path d="M560.902 756.232C560.259 729.849 535.72 708.349 567.11 701.273C572.206 700.124 586.876 704.027 594.753 703.386C605.758 702.489 627.768 703.701 633.847 704.585C663.216 708.857 628.698 731.02 629.317 756.427C630.065 787.094 597.459 814.438 597.459 814.438C597.459 814.438 561.649 786.898 560.902 756.232Z" fill="#3f835a" fill-rule="nonzero" opacity="1" stroke="none"/>
<path d="M587.056 721.622C587.056 721.622 586.397 725.413 586.076 727.627C585.467 731.831 584.924 736.689 585.515 740.959C587.206 753.182 594.288 764.403 597.299 776.262C598.008 779.053 598.403 782.695 598.795 785.651C598.845 786.023 598.426 789.851 598.426 789.851C598.426 789.851 599.139 786.305 599.17 786.027C599.328 784.594 599.409 783.148 599.357 781.708C599.284 779.697 598.949 777.705 598.795 775.699C598.617 773.376 598.268 768.663 598.421 765.934C598.869 758.001 600.354 749.263 599.731 741.335C599.36 736.625 599.19 734.056 598.164 729.497C597.361 725.923 598.833 721.157 598.833 721.157L593.035 713.681L587.056 721.622Z" fill="#7ca76a" fill-rule="nonzero" opacity="1" stroke="none"/>
</g>
<g opacity="1">
<path d="M617.093 754.646C615.587 731.424 577.904 705.887 593.001 703.746C606.696 701.804 641.158 698.216 645.286 698.073C647.546 697.995 662.775 697.464 674.22 695.309C686.79 692.943 696.063 693.329 696.063 693.329C696.063 693.329 684.031 730.163 685.466 752.287C687.451 782.902 655.975 811.443 655.975 811.443C655.975 811.443 619.079 785.261 617.093 754.646Z" fill="#b6d57e" fill-rule="nonzero" opacity="1" stroke="none"/>
<path d="M631.807 699.308C631.807 699.308 632.799 702.525 633.531 704.263C635.786 709.613 633.271 716.313 637.235 730.904C641.199 745.496 646.794 748.051 649.387 762.628C650.48 768.771 648.852 778.134 651.7 783.852C651.897 784.247 651.712 779.604 651.736 779.163C651.932 775.513 652.455 775.235 652.36 771.582C652.234 766.7 654.645 759.188 654.13 754.331C652.741 741.222 649.986 740.672 648.413 727.515C648.241 726.079 649.21 709.895 649.225 709.691C649.495 705.906 648.364 697.832 648.364 697.832C648.364 697.832 644.239 697.925 640.1 698.294C635.96 698.663 631.807 699.308 631.807 699.308Z" fill="#6b8d59" fill-rule="nonzero" opacity="1" stroke="none"/>
</g>
<g opacity="1">
<path d="M726.862 736.194C716.066 714.948 665.176 701.797 688.617 694.906C702.35 690.869 718.388 680.767 734.652 674.583C750.558 668.535 775.1 681.326 789.105 708.888C803.111 736.449 785.371 774.39 785.371 774.39C785.371 774.39 740.868 763.755 726.862 736.194Z" fill="#b6d57e" fill-rule="nonzero" opacity="1" stroke="none"/>
<path d="M712.757 684.583C712.757 684.583 716.692 687.596 718.069 688.148C722.826 690.059 727.05 689.379 731.642 691.661C741.949 696.782 744.564 696.855 753.566 704.658C762.567 712.462 764.561 716.486 767.649 722.873C769.057 725.785 771.737 734.352 772.15 737.562C772.213 738.052 775.86 748.51 775.86 748.51C775.86 748.51 772.963 726.039 772.664 725.087C771.499 721.385 771.408 716.816 769.961 713.216C766.619 704.901 762.407 697.208 756.069 691.543C749.73 685.878 728.103 677.199 728.103 677.199C728.103 677.199 724.09 678.875 720.254 680.721C716.417 682.567 712.757 684.583 712.757 684.583Z" fill="#6b8d59" fill-rule="nonzero" opacity="1" stroke="none"/>
</g>
<g opacity="1">
<path d="M502.829 749.716C503.892 723.414 489.593 686.146 487.706 684.966C481.456 681.058 504.047 686.243 522.713 689.769C532.345 691.588 569.219 698.262 572.156 698.713C585.152 700.707 585.295 703.362 596.849 703.278C606.678 703.206 571.953 732.901 571.1 754.005C569.86 784.657 535.548 809.997 535.548 809.997C535.548 809.997 501.59 780.368 502.829 749.716Z" fill="#b6d57e" fill-rule="nonzero" opacity="1" stroke="none"/>
<path d="M540.142 692.594C540.142 692.594 533.977 696.573 530.14 702.758C526.95 707.9 528.363 713.103 528.363 713.103C528.363 713.103 530.448 720.669 530.733 729.28C531.019 737.89 527.045 742.765 526.515 752.305C525.986 761.845 527.912 765.083 528.616 767.439C529.597 770.722 535.027 781.842 535.027 781.842C535.027 781.842 532.939 772.627 532.95 772.291C533.05 769.266 532.543 767.575 532.584 764.548C532.711 755.137 539.686 744.62 541.905 730.772C544.125 716.925 539.536 718.798 544.761 709.779C549.816 701.054 553.155 695.354 553.155 695.354L540.142 692.594Z" fill="#6b8d59" fill-rule="nonzero" opacity="1" stroke="none"/>
</g>
<g opacity="1">
<path d="M398.001 711.831C407.878 682.663 435.138 670.226 448.17 672.775C471.184 677.278 494.532 682.529 499.746 689.098C506.916 698.132 468.539 715.929 462.475 733.838C452.598 763.006 412.404 778.402 412.404 778.402C412.404 778.402 388.124 740.999 398.001 711.831Z" fill="#b6d57e" fill-rule="nonzero" opacity="1" stroke="none"/>
<path d="M459.392 674.965C455.859 673.433 443.77 679.423 440.641 681.161C435.973 683.753 434.067 684.237 431.384 686.501C427.483 689.793 426.693 692.577 425.509 695.14C424.325 697.702 424.65 700.18 423.628 703.257C420.591 712.404 421.629 724.095 420.991 733.7C420.726 737.702 421.608 745.367 419.673 749.253C419.526 749.549 420.88 747.427 420.96 747.106C421.322 745.651 421.304 746.002 421.65 744.543C422.403 741.365 422.52 737.597 422.969 734.362C424.288 724.872 425.834 716.87 429.562 707.89C433.052 699.481 437.593 695.359 444.699 691.346C450.595 688.017 455.974 685.161 461.3 682.329C462.743 681.561 470.826 678.769 471.344 677.729C471.373 677.669 465.181 676.213 465.181 676.213C465.181 676.213 459.566 675.041 459.392 674.965Z" fill="#6b8d59" fill-rule="nonzero" opacity="1" stroke="none"/>
</g>
</g>
</g>
<g opacity="1" vectornator:layerName="Group 7">
<g opacity="1" vectornator:layerName="Group 2">
<path d="M396.357 681.232C396.357 681.232 405.575 645.249 419.62 614.848C433.664 584.446 452.535 559.628 452.535 559.628C458.366 547.005 477.607 545.033 495.51 555.224L495.51 555.224C513.413 565.414 523.199 583.909 517.367 596.531C517.367 596.531 494.744 620.683 480.699 651.084C466.655 681.485 461.189 718.136 461.189 718.136C455.358 730.759 436.117 732.731 418.214 722.54L418.214 722.54C400.311 712.349 390.525 693.855 396.357 681.232Z" fill="#e2f1fa" fill-rule="nonzero" opacity="1" stroke="#ffffff" stroke-linecap="butt" stroke-linejoin="round" stroke-width="8.58891"/>
<path d="M417.112 683.203L440.867 693.528C457.422 700.723 468.439 721.155 465.475 739.164L465.475 739.164C462.511 757.173 446.687 765.939 430.132 758.744L406.377 748.419C389.822 741.224 378.804 720.792 381.769 702.783L381.769 702.783C384.733 684.774 400.557 676.008 417.112 683.203Z" fill="#e2f1fa" fill-rule="nonzero" opacity="1" stroke="#ffffff" stroke-linecap="butt" stroke-linejoin="round" stroke-width="8.58891"/>
</g>
<g opacity="1" vectornator:layerName="Group 1">
<path d="M426.652 707.159C419.608 727.594 438.595 659.668 435.758 691.179C435.05 699.035 431.208 727.399 436.688 706.306C437.352 703.752 443.366 683.188 446.869 684.922C450.01 686.476 437.44 718.163 440.332 720.798C449.049 728.739 440.858 688.574 451.026 691.985C453.255 692.732 443.97 720.861 446.141 723.905C453.23 733.843 447.38 688.425 457.005 694.827C458.872 696.069 448.12 732.422 455.361 718.109" fill="none" opacity="1" stroke="#e2f1fa" stroke-linecap="round" stroke-linejoin="round" stroke-width="8.58891"/>
<path d="M421.612 700.922C423.008 691.32 427.014 683.333 428.398 673.817" fill="none" opacity="1" stroke="#e2f1fa" stroke-linecap="round" stroke-linejoin="round" stroke-width="8.58891"/>
<path d="M422.728 672.905C425.535 669.224 416.936 691.765 417.514 686.602C420.17 662.849 416.659 680.418 415.914 692.442C415.755 695.004 416.204 682.187 415.583 684.551C415.285 685.682 413.65 693.428 413.957 690.3C414.26 687.212 417.787 671.705 415.319 681.56C414.918 683.163 414.079 684.446 413.755 686.075C412.882 690.448 411.799 694.673 411.167 699.104" fill="none" opacity="1" stroke="#e2f1fa" stroke-linecap="round" stroke-linejoin="round" stroke-width="8.58891"/>
<path d="M408.528 669.495C412.824 666.896 398.062 690.583 402.4 688.067C404.598 686.792 414.753 675.281 412.107 679.527C406.63 688.314 400.296 695.515 394.021 702.876" fill="none" opacity="1" stroke="#e2f1fa" stroke-linecap="round" stroke-linejoin="round" stroke-width="8.58891"/>
</g>
</g>
<g opacity="1" vectornator:layerName="Group 8">
<use fill="#e2f1fa" fill-rule="nonzero" opacity="1" stroke="#ffffff" stroke-linecap="round" stroke-linejoin="round" stroke-width="6.65716" xlink:href="#Fill"/>
<clipPath clip-rule="nonzero" id="ClipPath">
<use xlink:href="#Fill"/>
</clipPath>
<g clip-path="url(#ClipPath)">
<path d="M739.134 577.842C751.555 582.044 790.753 545.576 797.189 535.173C805.108 522.373 806.808 518.377 806.808 503.059C806.808 499.435 803.312 484.692 803.312 484.692C803.312 484.692 812.392 487.918 819.874 486.793C843.378 483.259 853.677 459.958 842.647 439.168C838.446 431.251 827.539 425.644 819.184 423.76C815.34 422.893 807.452 422.359 807.452 422.359C807.452 422.359 808.328 421.761 808.833 421.658C814.128 420.584 821.954 413.766 825.775 409.293C831.821 402.215 836.571 393.964 830.005 376.861C818.368 346.544 780.539 362.127 780.539 362.127C780.539 362.127 783.23 359.577 783.99 357.924C785.037 355.646 786.212 353.375 786.75 350.921C787.604 347.02 787.738 342.991 788.13 339.014C788.938 330.815 784.638 317.948 779.849 311.7C765.127 292.488 737.299 280.714 714.291 291.389C708.308 294.165 698.419 303.295 698.419 303.295C698.419 303.295 701.71 295.313 702.026 294.436C703.862 289.336 704.131 288.565 705.094 284.213C709.147 265.879 706.067 258.839 699.996 249.36C695.418 242.211 679.071 236.613 671.823 238.78C648.538 245.74 639.215 275.424 639.215 275.424C639.215 275.424 639.571 265.42 639.508 260.639C639.444 255.858 640.081 250.28 639.811 243.703C639.541 237.125 639.885 230.864 636.854 222.853C630.323 205.587 608.981 195.463 590.084 190.055C565.899 183.135 549.109 186.168 540.881 187.229C509.599 191.26 484.024 219.821 479.001 253.842C476.468 270.998 487.255 287.887 487.255 287.887C487.255 287.887 480.476 284.32 476.903 282.984C471.238 280.866 459.477 276.392 453.534 275.312C437.047 272.314 409.822 271.046 387.698 296.809C354.432 335.548 380.292 385.939 380.292 385.939L368.348 390.823C368.348 390.823 357.325 395.984 352.679 401.89C348.034 407.796 343.36 410.798 342.256 429.725C341.637 440.329 349.875 456.275 356.829 462.981C359.564 465.618 365.8 469.984 365.8 469.984C365.8 469.984 362.224 472.451 360.97 474.187C359.383 476.382 356.989 479.38 356.338 482.021C355.332 486.104 354.433 493.434 356.048 502.099C358.991 517.89 362.474 522.1 372.011 534.419C381.605 546.812 398.193 559.071 412.036 566.636C414.182 567.809 425.837 569.949 425.837 572.939C425.837 573.721 416.114 572.239 409.275 572.239C398.588 572.239 399.436 574.618 387.193 572.239C354.237 565.834 329.766 546.529 309.213 519.711C299.597 507.162 290.67 493.482 285.751 478.389C280.356 461.838 281.007 443.856 278.85 426.561C276.509 407.789 284.716 389.188 287.821 370.531C295.215 326.102 297.914 299.899 313.354 256.37C319.072 240.249 322.028 222.801 330.606 208.044C341.157 189.893 353.817 172.298 369.941 159.018C386.237 145.595 406.502 137.888 425.837 129.602C448.019 120.097 471.27 113.387 494.155 105.789C495.918 105.204 497.827 105.238 499.676 105.089C523.822 103.137 547.925 98.663 572.135 99.486C596.291 100.307 621.215 101.533 643.903 109.992C669.125 119.395 688.825 140.003 712.221 153.415C735.352 166.674 759.284 178.524 781.919 192.636C807.632 208.666 834.137 223.938 857.138 243.763C880.21 263.649 900.594 286.803 919.246 310.999C931.377 326.736 943.357 343.66 948.919 362.827C953.598 378.951 951.346 396.626 948.919 413.254C946.691 428.519 940.178 442.826 935.117 457.378C929.132 474.59 925.301 493.01 915.795 508.505C909.676 518.479 898.334 523.937 889.572 531.617C879.942 540.058 871.156 549.637 860.589 556.831C830.748 577.144 809.801 574.877 775.709 580.643C770.246 581.567 761.912 578.584 755.696 577.842C752.239 577.429 745.345 576.441 745.345 576.441C745.345 576.441 754.234 576.91 758.457 575.741C769.718 572.624 768.231 572.626 773.638 562.434" fill="#ffffff" fill-rule="nonzero" opacity="1" stroke="#ffffff" stroke-linecap="round" stroke-linejoin="round" stroke-width="6.65716" vectornator:layerName="Curve"/>
</g>
</g>
<g opacity="1" vectornator:layerName="Group 9">
<path d="M608.356 460.676L645.618 455.99C645.618 455.99 649.186 472.083 648.428 481.599C647.182 497.254 616.778 498.26 612.41 486.001C608.125 473.977 608.356 460.676 608.356 460.676Z" fill="#000000" fill-rule="nonzero" opacity="1" stroke="none" vectornator:layerName="Curve"/>
<path d="M731.015 456.75C729.427 446.535 742.319 436.05 759.811 433.33C777.302 430.611 792.77 436.687 794.358 446.902C795.946 457.116 783.054 467.602 765.562 470.321C748.07 473.041 732.603 466.965 731.015 456.75Z" fill="#a3bfcd" fill-rule="nonzero" opacity="1" stroke="none"/>
<path d="M440.775 509.716C439.187 499.502 452.079 489.016 469.571 486.297C487.062 483.577 502.53 489.653 504.118 499.868C505.706 510.083 492.814 520.568 475.322 523.288C457.83 526.007 442.363 519.931 440.775 509.716Z" fill="#a3bfcd" fill-rule="nonzero" opacity="1" stroke="none"/>
<g opacity="1" vectornator:layerName="Group 1">
<path d="M543.315 420.766C543.315 420.766 548.649 421.334 557.176 422.148C565.703 422.962 570.315 423.401 570.315 423.401" fill="none" opacity="1" stroke="#000000" stroke-linecap="round" stroke-linejoin="round" stroke-width="4.5458"/>
<path d="M660.221 408.993C660.221 408.993 665.296 407.257 673.37 404.395C681.444 401.534 685.809 399.985 685.809 399.985" fill="none" opacity="1" stroke="#000000" stroke-linecap="round" stroke-linejoin="round" stroke-width="4.5458"/>
<path d="M547.172 461.967C547.172 461.967 547.513 454.839 549.085 452.143C549.62 451.227 550.248 450.411 551.099 449.734C552.753 448.419 555.251 447.628 559.54 447.646C564.673 447.669 566.962 449.788 568.987 452.064C571.769 455.189 571.64 461.909 571.64 461.909" fill="none" opacity="1" stroke="#000000" stroke-linecap="round" stroke-linejoin="round" stroke-width="4.5458"/>
<path d="M666.675 442.843C666.675 442.843 667.078 435.718 668.675 433.036C669.217 432.124 669.852 431.314 670.709 430.645C672.375 429.343 674.879 428.574 679.168 428.631C684.301 428.699 686.571 430.838 688.577 433.132C691.33 436.281 691.143 443 691.143 443" fill="none" opacity="1" stroke="#000000" stroke-linecap="round" stroke-linejoin="round" stroke-width="4.5458"/>
</g>
</g>
</g>
<g id="Layer-6" vectornator:layerName="Layer 6">
<path d="M146.451 770.674C148.507 635.469 326.372 528.544 543.723 531.85C761.074 535.155 935.605 647.439 933.549 782.644C931.493 917.848 753.628 1024.77 536.277 1021.47C318.926 1018.16 144.395 905.878 146.451 770.674Z" fill="#e7e1c9" fill-rule="nonzero" opacity="1" stroke="none" vectornator:layerName="Oval 2"/>
<path d="M174.476 679.915C176.599 540.288 340.512 429.566 540.584 432.608C740.657 435.651 901.127 551.307 899.004 690.933C896.88 830.559 732.968 941.282 532.895 938.24C332.822 935.197 172.352 819.541 174.476 679.915Z" fill="#c0b798" fill-rule="nonzero" opacity="1" stroke="none" vectornator:layerName="Oval 3"/>
<path d="M174.119 656.476C176.046 529.797 339.799 429.569 539.871 432.612C739.944 435.654 900.574 540.815 898.647 667.495C896.721 794.174 732.968 894.402 532.895 891.359C332.822 888.317 172.193 783.156 174.119 656.476Z" fill="#e7e1c9" fill-rule="nonzero" opacity="1" stroke="none" vectornator:layerName="Oval 4"/>
<path d="M266.96 661.986C266.96 575.061 388.14 504.595 537.624 504.595C687.108 504.595 808.288 575.061 808.288 661.986C808.288 748.91 687.108 819.376 537.624 819.376C388.14 819.376 266.96 748.91 266.96 661.986Z" fill="#6bb8c4" fill-rule="nonzero" opacity="1" stroke="none" vectornator:layerName="Oval 5"/>
<path d="M314.052 661.986C314.052 590.185 414.149 531.979 537.624 531.979C661.1 531.979 761.196 590.185 761.196 661.986C761.196 733.786 661.1 791.992 537.624 791.992C414.149 791.992 314.052 733.786 314.052 661.986Z" fill="#8ad6e1" fill-rule="nonzero" opacity="1" stroke="none" vectornator:layerName="Oval 6"/>
<path d="M455.648 661.986C455.648 630.382 492.35 604.762 537.624 604.762C582.899 604.762 619.601 630.382 619.601 661.986C619.601 693.589 582.899 719.209 537.624 719.209C492.35 719.209 455.648 693.589 455.648 661.986Z" fill="none" opacity="1" stroke="#6bb8c4" stroke-linecap="butt" stroke-linejoin="round" stroke-width="29.6632" vectornator:layerName="Oval 7"/>
<path d="M445.303 402.473C445.303 402.473 490.575 350.598 536.74 350.538C582.904 350.478 629.96 402.233 629.96 402.233L562.322 531.979L619.218 646.814C619.218 646.814 616.284 711.391 537.624 711.726C463.313 712.043 457.672 647.309 457.672 647.309L508.393 531.979L445.303 402.473Z" fill="#b7ad89" fill-rule="nonzero" opacity="1" stroke="none" vectornator:layerName="Rectangle 1"/>
<path d="M314.278 324.049C315.561 239.648 414.644 172.717 535.585 174.557C656.526 176.396 753.528 246.308 752.244 330.71C750.96 415.112 651.878 482.042 530.937 480.203C409.996 478.364 312.994 408.451 314.278 324.049Z" fill="#c0b798" fill-rule="nonzero" opacity="1" stroke="none" vectornator:layerName="Oval 8"/>
<path d="M314.062 309.881C315.227 233.305 414.213 172.719 535.154 174.559C656.095 176.398 753.193 239.966 752.028 316.542C750.864 393.118 651.878 453.704 530.937 451.864C409.996 450.025 312.898 386.457 314.062 309.881Z" fill="#e7e1c9" fill-rule="nonzero" opacity="1" stroke="none" vectornator:layerName="Oval 9"/>
<path d="M370.183 313.212C370.183 260.667 443.435 218.071 533.796 218.071C624.156 218.071 697.408 260.667 697.408 313.212C697.408 365.756 624.156 408.352 533.796 408.352C443.435 408.352 370.183 365.756 370.183 313.212Z" fill="#6bb8c4" fill-rule="nonzero" opacity="1" stroke="none" vectornator:layerName="Oval 10"/>
<path d="M398.65 313.212C398.65 269.809 459.157 234.624 533.796 234.624C608.435 234.624 668.942 269.809 668.942 313.212C668.942 356.614 608.435 391.799 533.796 391.799C459.157 391.799 398.65 356.614 398.65 313.212Z" fill="#8ad6e1" fill-rule="nonzero" opacity="1" stroke="none" vectornator:layerName="Oval 11"/>
<path d="M506.474 306.189C506.474 294.486 521.145 284.999 539.242 284.999C557.339 284.999 572.01 294.486 572.01 306.189C572.01 317.892 557.339 327.38 539.242 327.38C521.145 327.38 506.474 317.892 506.474 306.189Z" fill="none" opacity="1" stroke="#6bb8c4" stroke-linecap="butt" stroke-linejoin="round" stroke-width="21.286" vectornator:layerName="Oval 12"/>
<path d="M521.925 218.071L558.19 218.071C558.19 218.071 585.515 298.876 565.36 313.212C545.439 327.38 533.045 327.38 514.391 313.212C494.694 298.252 521.925 218.071 521.925 218.071Z" fill="#c0b798" fill-rule="nonzero" opacity="1" stroke="none" vectornator:layerName="Rectangle 2"/>
<g opacity="1" vectornator:layerName="Group 1">
<path d="M570.476 129.312C595.619 87.0188 646.366 41.3046 665.203 64.8988C685.04 89.7475 620.906 103.675 590.966 141.968C561.025 180.261 545.439 218.071 545.439 218.071C545.439 218.071 545.332 171.605 570.476 129.312Z" fill="#8ad6e1" fill-rule="nonzero" opacity="1" stroke="none" vectornator:layerName="Oval 9"/>
<path d="M508.009 129.312C482.865 87.0188 432.118 41.3046 413.282 64.8988C393.444 89.7475 457.578 103.675 487.519 141.968C517.46 180.261 533.045 218.071 533.045 218.071C533.045 218.071 533.152 171.605 508.009 129.312Z" fill="#8ad6e1" fill-rule="nonzero" opacity="1" stroke="none" vectornator:layerName="Oval 8"/>
<path d="M522.152 115.086C512.656 83.0693 529.627 64.1858 536.383 64.1858C549.896 64.1858 562.219 80.4724 549.178 115.086C538.393 143.711 535.665 174.519 535.665 174.519C535.665 174.519 530.215 142.269 522.152 115.086Z" fill="#8ad6e1" fill-rule="nonzero" opacity="1" stroke="none" vectornator:layerName="Oval 11"/>
<path d="M604.182 172.588C624.235 152.931 644.834 157.582 647.46 162.444C652.711 172.168 645.423 187.56 614.686 192.037C589.266 195.74 565.36 206.115 565.36 206.115C565.36 206.115 587.158 189.276 604.182 172.588Z" fill="#8ad6e1" fill-rule="nonzero" opacity="1" stroke="none" vectornator:layerName="Oval 12"/>
<path d="M487.399 182.758C473.547 168.639 458.36 175.955 456.26 180.637C452.059 190.002 456.776 202.377 478.997 201.488C497.373 200.752 514.391 206.115 514.391 206.115C514.391 206.115 499.159 194.745 487.399 182.758Z" fill="#8ad6e1" fill-rule="nonzero" opacity="1" stroke="none" vectornator:layerName="Oval 13"/>
</g>
</g>
</svg>
