<?xml version="1.0" encoding="UTF-8" standalone="no"?>
<!DOCTYPE svg PUBLIC "-//W3C//DTD SVG 1.1//EN" "http://www.w3.org/Graphics/SVG/1.1/DTD/svg11.dtd">
<!-- Created with Vectornator (http://vectornator.io/) -->
<svg height="100%" stroke-miterlimit="10" style="fill-rule:nonzero;clip-rule:evenodd;stroke-linecap:round;stroke-linejoin:round;" version="1.1" viewBox="0 0 1080 1080" width="100%" xml:space="preserve" xmlns="http://www.w3.org/2000/svg" xmlns:vectornator="http://vectornator.io" xmlns:xlink="http://www.w3.org/1999/xlink">
<defs/>
<g id="Layer-1" vectornator:layerName="Layer 1">
<path d="M597.318 649.914C565.933 596.101 554.471 547.782 624.468 529.215C681.614 514.056 684.382 568.493 696.881 629.523C709.38 690.552 702.877 755.819 675.383 761.45C647.889 767.081 634.496 713.66 597.318 649.914Z" fill="#f3eee6" fill-rule="nonzero" opacity="1" stroke="none" vectornator:layerName="Oval 4"/>
<g opacity="1" vectornator:layerName="Group 3">
<path d="M449.702 844.013L449.702 896.557" fill="none" opacity="1" stroke="#000000" stroke-linecap="round" stroke-linejoin="round" stroke-width="7.57104" vectornator:layerName="Line 1"/>
<path d="M424.421 890.118L506.978 912.047" fill="none" opacity="1" stroke="#000000" stroke-linecap="round" stroke-linejoin="round" stroke-width="7.57104" vectornator:layerName="Line 2"/>
<path d="M449.702 896.557L461.421 923.663" fill="none" opacity="1" stroke="#000000" stroke-linecap="round" stroke-linejoin="round" stroke-width="7.57104" vectornator:layerName="Line 3"/>
<path d="M453.213 892.046L498.17 888.19" fill="none" opacity="1" stroke="#000000" stroke-linecap="round" stroke-linejoin="round" stroke-width="7.57104" vectornator:layerName="Line 4"/>
</g>
<g opacity="1" vectornator:layerName="Group 4">
<path d="M591.131 821.35L591.131 873.894" fill="none" opacity="1" stroke="#000000" stroke-linecap="round" stroke-linejoin="round" stroke-width="7.57104" vectornator:layerName="Line 1"/>
<path d="M565.849 867.455L648.406 889.384" fill="none" opacity="1" stroke="#000000" stroke-linecap="round" stroke-linejoin="round" stroke-width="7.57104" vectornator:layerName="Line 2"/>
<path d="M591.131 873.894L602.849 901" fill="none" opacity="1" stroke="#000000" stroke-linecap="round" stroke-linejoin="round" stroke-width="7.57104" vectornator:layerName="Line 3"/>
<path d="M594.641 869.383L639.598 865.527" fill="none" opacity="1" stroke="#000000" stroke-linecap="round" stroke-linejoin="round" stroke-width="7.57104" vectornator:layerName="Line 4"/>
</g>
<path d="M281.567 689.196C284.451 597.109 341.169 512.883 509.108 522.096C676.795 531.295 677.047 347.393 677.047 669.217C677.047 761.348 690.611 847.373 509.108 859.312C402.991 866.292 276.147 862.231 281.567 689.196Z" fill="#fbfbfb" fill-rule="nonzero" opacity="1" stroke="none" vectornator:layerName="Oval 5"/>
<path d="M341.24 388.716C341.24 260.377 416.312 156.337 508.919 156.337C601.526 156.337 676.599 260.377 676.599 388.716C676.599 517.056 694.191 597.826 508.919 621.096C332.506 643.253 341.24 517.056 341.24 388.716Z" fill="#fbfbfb" fill-rule="nonzero" opacity="1" stroke="none" vectornator:layerName="Oval 6"/>
<path d="M285.706 611.269C321.502 521.373 389.937 462.269 487.222 605.17C530.743 669.097 514.253 725.528 444.954 781.185C375.656 836.842 312.655 861.175 227.686 823.682C166.329 796.607 243.303 717.76 285.706 611.269Z" fill="#f3eee6" fill-rule="nonzero" opacity="1" stroke="none" vectornator:layerName="Oval 7"/>
<path d="M472.228 394.388C472.228 389.937 475.836 386.329 480.287 386.329L480.287 386.329C484.737 386.329 488.345 389.937 488.345 394.388L488.345 415.993C488.345 420.444 484.737 424.052 480.287 424.052L480.287 424.052C475.836 424.052 472.228 420.444 472.228 415.993L472.228 394.388Z" fill="#000000" fill-rule="nonzero" opacity="1" stroke="none" vectornator:layerName="Rectangle 2"/>
<path d="M607.128 375.527C607.128 371.076 610.736 367.468 615.187 367.468L615.187 367.468C619.637 367.468 623.245 371.076 623.245 375.527L623.245 397.132C623.245 401.583 619.637 405.191 615.187 405.191L615.187 405.191C610.736 405.191 607.128 401.583 607.128 397.132L607.128 375.527Z" fill="#000000" fill-rule="nonzero" opacity="1" stroke="none" vectornator:layerName="Rectangle 3"/>
<g opacity="1" vectornator:layerName="Group 5">
<path d="M535.465 434.247C535.465 434.247 553.021 431.863 571.612 430.496C590.204 429.13 602.511 432.826 608.61 435.303C614.71 437.78 604.996 441.914 590.393 444.433C579.274 446.352 556.305 453.505 541.683 452.156C527.06 450.806 535.465 434.247 535.465 434.247Z" fill="#a59075" fill-rule="nonzero" opacity="1" stroke="none" vectornator:layerName="Rectangle 4"/>
<path d="M556.51 399.699C556.51 399.699 590.686 418.509 604.102 427.446C618.624 437.12 618.469 439.25 600.675 435.882C597.021 435.191 592.5 435.412 587.51 436.088C568.63 438.645 543.045 447.708 532.324 438.416C531.219 437.458 528.991 423.76 533.222 413.343C537.452 402.927 556.51 399.699 556.51 399.699Z" fill="#c2ae95" fill-rule="nonzero" opacity="1" stroke="none" vectornator:layerName="Rectangle 3"/>
</g>
</g>
</svg>
