<?xml version="1.0" encoding="UTF-8" standalone="no"?>
<!DOCTYPE svg PUBLIC "-//W3C//DTD SVG 1.1//EN" "http://www.w3.org/Graphics/SVG/1.1/DTD/svg11.dtd">
<!-- Created with Vectornator (http://vectornator.io/) -->
<svg height="100%" stroke-miterlimit="10" style="fill-rule:nonzero;clip-rule:evenodd;stroke-linecap:round;stroke-linejoin:round;" version="1.1" viewBox="0 0 1080 1080" width="100%" xml:space="preserve" xmlns="http://www.w3.org/2000/svg" xmlns:vectornator="http://vectornator.io" xmlns:xlink="http://www.w3.org/1999/xlink">
<defs/>
<g id="Layer-1" vectornator:layerName="Layer 1" visibility="hidden">
<path d="M597.318 649.914C565.933 596.101 554.471 547.782 624.468 529.215C681.614 514.056 684.382 568.493 696.881 629.523C709.38 690.552 702.877 755.819 675.383 761.45C647.889 767.081 634.496 713.66 597.318 649.914Z" fill="#f3eee6" fill-rule="nonzero" opacity="1" stroke="none" vectornator:layerName="Oval 4"/>
<g opacity="1" vectornator:layerName="Group 3">
<path d="M449.702 844.013L449.702 896.557" fill="none" opacity="1" stroke="#000000" stroke-linecap="round" stroke-linejoin="round" stroke-width="7.57104" vectornator:layerName="Line 1"/>
<path d="M424.421 890.118L506.978 912.047" fill="none" opacity="1" stroke="#000000" stroke-linecap="round" stroke-linejoin="round" stroke-width="7.57104" vectornator:layerName="Line 2"/>
<path d="M449.702 896.557L461.421 923.663" fill="none" opacity="1" stroke="#000000" stroke-linecap="round" stroke-linejoin="round" stroke-width="7.57104" vectornator:layerName="Line 3"/>
<path d="M453.213 892.046L498.17 888.19" fill="none" opacity="1" stroke="#000000" stroke-linecap="round" stroke-linejoin="round" stroke-width="7.57104" vectornator:layerName="Line 4"/>
</g>
<g opacity="1" vectornator:layerName="Group 4">
<path d="M591.131 821.35L591.131 873.894" fill="none" opacity="1" stroke="#000000" stroke-linecap="round" stroke-linejoin="round" stroke-width="7.57104" vectornator:layerName="Line 1"/>
<path d="M565.849 867.455L648.406 889.384" fill="none" opacity="1" stroke="#000000" stroke-linecap="round" stroke-linejoin="round" stroke-width="7.57104" vectornator:layerName="Line 2"/>
<path d="M591.131 873.894L602.849 901" fill="none" opacity="1" stroke="#000000" stroke-linecap="round" stroke-linejoin="round" stroke-width="7.57104" vectornator:layerName="Line 3"/>
<path d="M594.641 869.383L639.598 865.527" fill="none" opacity="1" stroke="#000000" stroke-linecap="round" stroke-linejoin="round" stroke-width="7.57104" vectornator:layerName="Line 4"/>
</g>
<path d="M281.567 689.196C284.451 597.109 341.169 512.883 509.108 522.096C676.795 531.295 677.047 347.393 677.047 669.217C677.047 761.348 690.611 847.373 509.108 859.312C402.991 866.292 276.147 862.231 281.567 689.196Z" fill="#fbfbfb" fill-rule="nonzero" opacity="1" stroke="none" vectornator:layerName="Oval 5"/>
<path d="M341.24 388.716C341.24 260.377 416.312 156.337 508.919 156.337C601.526 156.337 676.599 260.377 676.599 388.716C676.599 517.056 694.191 597.826 508.919 621.096C332.506 643.253 341.24 517.056 341.24 388.716Z" fill="#fbfbfb" fill-rule="nonzero" opacity="1" stroke="none" vectornator:layerName="Oval 6"/>
<path d="M285.706 611.269C321.502 521.373 389.937 462.269 487.222 605.17C530.743 669.097 514.253 725.528 444.954 781.185C375.656 836.842 312.655 861.175 227.686 823.682C166.329 796.607 243.303 717.76 285.706 611.269Z" fill="#f3eee6" fill-rule="nonzero" opacity="1" stroke="none" vectornator:layerName="Oval 7"/>
<path d="M472.228 394.388C472.228 389.937 475.836 386.329 480.287 386.329L480.287 386.329C484.737 386.329 488.345 389.937 488.345 394.388L488.345 415.993C488.345 420.444 484.737 424.052 480.287 424.052L480.287 424.052C475.836 424.052 472.228 420.444 472.228 415.993L472.228 394.388Z" fill="#000000" fill-rule="nonzero" opacity="1" stroke="none" vectornator:layerName="Rectangle 2"/>
<path d="M607.128 375.527C607.128 371.076 610.736 367.468 615.187 367.468L615.187 367.468C619.637 367.468 623.245 371.076 623.245 375.527L623.245 397.132C623.245 401.583 619.637 405.191 615.187 405.191L615.187 405.191C610.736 405.191 607.128 401.583 607.128 397.132L607.128 375.527Z" fill="#000000" fill-rule="nonzero" opacity="1" stroke="none" vectornator:layerName="Rectangle 3"/>
<g opacity="1" vectornator:layerName="Group 5">
<path d="M535.465 434.247C535.465 434.247 553.021 431.863 571.612 430.496C590.204 429.13 602.511 432.826 608.61 435.303C614.71 437.78 604.996 441.914 590.393 444.433C579.274 446.352 556.305 453.505 541.683 452.156C527.06 450.806 535.465 434.247 535.465 434.247Z" fill="#a59075" fill-rule="nonzero" opacity="1" stroke="none" vectornator:layerName="Rectangle 4"/>
<path d="M556.51 399.699C556.51 399.699 590.686 418.509 604.102 427.446C618.624 437.12 618.469 439.25 600.675 435.882C597.021 435.191 592.5 435.412 587.51 436.088C568.63 438.645 543.045 447.708 532.324 438.416C531.219 437.458 528.991 423.76 533.222 413.343C537.452 402.927 556.51 399.699 556.51 399.699Z" fill="#c2ae95" fill-rule="nonzero" opacity="1" stroke="none" vectornator:layerName="Rectangle 3"/>
</g>
</g>
<g id="Layer-2" vectornator:layerName="Layer 2" visibility="hidden">
<path d="M282.522 531.683C240.783 460.437 229.454 389.495 257.218 373.23C284.982 356.965 329.012 438.248 383.063 472.782C452.645 517.238 491.192 523.751 408.367 631.234C388.726 656.722 324.26 602.929 282.522 531.683Z" fill="#9b906b" fill-rule="nonzero" opacity="1" stroke="none" vectornator:layerName="Oval 19"/>
<path d="M402.24 867.983C406.193 806.043 450.674 826.081 495.971 836.602C541.268 847.123 568.761 877.599 566.274 906.085C562.39 950.567 517.839 947.987 472.542 937.466C427.246 926.944 398.541 925.931 402.24 867.983Z" fill="#9b906b" fill-rule="nonzero" opacity="1" stroke="none" vectornator:layerName="Oval 20"/>
<path d="M568.347 915.48C569.312 886.902 604.209 862.418 650.683 860.79C697.158 859.162 737.955 813.883 736.645 909.586C735.887 964.88 700.782 962.648 654.308 964.276C607.834 965.903 566.696 964.361 568.347 915.48Z" fill="#9b906b" fill-rule="nonzero" opacity="1" stroke="none" vectornator:layerName="Oval 21"/>
<g opacity="1" vectornator:layerName="Group 1">
<path d="M244.588 354.901C244.588 354.901 253.669 354.78 260.592 360.745C267.515 366.709 272.28 378.758 272.28 378.758" fill="none" opacity="1" stroke="#000000" stroke-linecap="round" stroke-linejoin="round" stroke-width="6.51117" vectornator:layerName="Line 5"/>
<path d="M217.422 375.581C217.422 375.581 226.176 373.162 234.385 377.176C242.594 381.191 250.258 391.638 250.258 391.638" fill="none" opacity="1" stroke="#000000" stroke-linecap="round" stroke-linejoin="round" stroke-width="6.51117" vectornator:layerName="Line 3"/>
<path d="M225.598 363.436C225.598 363.436 234.352 361.017 242.561 365.032C250.77 369.046 258.434 379.494 258.434 379.494" fill="none" opacity="1" stroke="#000000" stroke-linecap="round" stroke-linejoin="round" stroke-width="6.51117" vectornator:layerName="Line 6"/>
<path d="M801.137 820.524C801.137 820.524 805.476 828.503 803.425 837.408C801.375 846.313 792.935 856.144 792.935 856.144" fill="none" opacity="1" stroke="#000000" stroke-linecap="round" stroke-linejoin="round" stroke-width="6.51117" vectornator:layerName="Line 7"/>
<path d="M789.353 820.524C789.353 820.524 793.692 828.503 791.642 837.408C789.592 846.313 781.152 856.144 781.152 856.144" fill="none" opacity="1" stroke="#000000" stroke-linecap="round" stroke-linejoin="round" stroke-width="6.51117" vectornator:layerName="Line 8"/>
<path d="M774.947 824.947C774.947 824.947 779.286 832.926 777.236 841.83C775.185 850.735 766.745 860.567 766.745 860.567" fill="none" opacity="1" stroke="#000000" stroke-linecap="round" stroke-linejoin="round" stroke-width="6.51117" vectornator:layerName="Line 9"/>
<path d="M434.817 919.648C434.817 919.648 426.073 917.196 417.848 921.179C409.624 925.161 401.92 935.579 401.92 935.579" fill="none" opacity="1" stroke="#000000" stroke-linecap="round" stroke-linejoin="round" stroke-width="6.51117" vectornator:layerName="Line 10"/>
<path d="M467.714 927.987C467.714 927.987 458.97 925.535 450.745 929.518C442.521 933.5 434.817 943.918 434.817 943.918" fill="none" opacity="1" stroke="#000000" stroke-linecap="round" stroke-linejoin="round" stroke-width="6.51117" vectornator:layerName="Line 11"/>
<path d="M510.902 936.326C510.902 936.326 502.157 933.874 493.933 937.857C485.709 941.839 478.005 952.257 478.005 952.257" fill="none" opacity="1" stroke="#000000" stroke-linecap="round" stroke-linejoin="round" stroke-width="6.51117" vectornator:layerName="Line 12"/>
<path d="M610.161 953.004C610.161 953.004 601.416 950.552 593.192 954.534C584.968 958.517 577.264 968.935 577.264 968.935" fill="none" opacity="1" stroke="#000000" stroke-linecap="round" stroke-linejoin="round" stroke-width="6.51117" vectornator:layerName="Line 13"/>
<path d="M645.634 957.061C645.634 957.061 636.889 954.608 628.665 958.591C620.441 962.574 612.737 972.992 612.737 972.992" fill="none" opacity="1" stroke="#000000" stroke-linecap="round" stroke-linejoin="round" stroke-width="6.51117" vectornator:layerName="Line 14"/>
<path d="M685.384 957.061C685.384 957.061 676.64 954.608 668.415 958.591C660.191 962.574 652.487 972.992 652.487 972.992" fill="none" opacity="1" stroke="#000000" stroke-linecap="round" stroke-linejoin="round" stroke-width="6.51117" vectornator:layerName="Line 4"/>
</g>
<path d="M344.064 686.679C348.536 546.445 455.084 436.046 582.045 440.095C709.006 444.144 808.303 561.108 803.83 701.341C799.358 841.575 702.545 912.557 575.584 908.508C448.623 904.459 339.592 826.912 344.064 686.679Z" fill="#aba17a" fill-rule="nonzero" opacity="1" stroke="none" vectornator:layerName="Oval 22"/>
<path d="M395.067 705.788C395.067 638.175 443.794 583.364 503.902 583.364C564.01 583.364 645.634 632.228 645.634 699.841C645.634 767.454 652.487 858.534 503.902 828.211C436.393 814.435 395.067 773.4 395.067 705.788Z" fill="#faf4dc" fill-rule="nonzero" opacity="1" stroke="none" vectornator:layerName="Oval 23"/>
<path d="M828.728 683.542C837.215 765.677 818.148 834.941 786.141 838.248C754.134 841.555 747.719 749.336 712.821 695.518C667.897 626.237 635.508 604.346 755.409 540.813C783.841 525.747 820.242 601.408 828.728 683.542Z" fill="#9b906b" fill-rule="nonzero" opacity="1" stroke="none" vectornator:layerName="Oval 24"/>
<path d="M344.758 354.575C355.985 243.611 480.822 165.366 623.59 179.811C766.358 194.255 872.993 295.919 861.767 406.883C850.54 517.846 725.703 596.091 582.935 581.646C440.167 567.202 333.531 465.538 344.758 354.575Z" fill="#b7ad89" fill-rule="nonzero" opacity="1" stroke="none" vectornator:layerName="Oval 25"/>
<path d="M358.711 370.955C367.81 292.406 466.378 239.294 578.867 252.326C691.356 265.357 775.169 339.598 766.069 418.147C756.969 496.697 658.402 549.809 545.913 536.777C433.424 523.746 349.611 449.505 358.711 370.955Z" fill="#faf4dc" fill-rule="nonzero" opacity="1" stroke="none" vectornator:layerName="Oval 26"/>
<path d="M465.1 431.792C461.311 408.597 496.385 393.669 526.379 398.63C556.372 403.591 582.97 428.11 573.716 449.757C561.444 478.462 521.847 483.634 513.498 481.976C506.077 480.501 471.621 471.708 465.1 431.792Z" fill="#b7ad89" fill-rule="nonzero" opacity="1" stroke="none" vectornator:layerName="Oval 27"/>
<path d="M750.235 448.511C758.013 429.593 729.018 391.72 684.811 362.044C645.653 335.758 600.107 327.581 590.245 366.184C579.73 407.338 619.783 406.422 664.233 423.054C708.683 439.685 742.457 467.429 750.235 448.511Z" fill="#9b906b" fill-rule="nonzero" opacity="1" stroke="none" vectornator:layerName="Oval 28"/>
<path d="M359.533 397.494C356.543 380.298 384.553 353.493 422.894 336.165C456.856 320.817 492.873 321.749 494.391 355.811C496.01 392.125 465.598 384.506 429.101 390.852C392.604 397.199 362.523 414.69 359.533 397.494Z" fill="#9b906b" fill-rule="nonzero" opacity="1" stroke="none" vectornator:layerName="Oval 29"/>
<g opacity="1" vectornator:layerName="Group 2">
<path d="M457.648 338.429C457.864 335.883 461.765 334.135 466.362 334.524L466.362 334.524C470.959 334.913 474.511 337.293 474.295 339.84L471.937 367.678C471.721 370.224 467.819 371.973 463.222 371.583L463.222 371.583C458.625 371.194 455.074 368.814 455.29 366.267L457.648 338.429Z" fill="#000000" fill-rule="nonzero" opacity="1" stroke="none" vectornator:layerName="Rectangle 2"/>
<path d="M612.529 356.479C612.745 353.933 616.646 352.185 621.243 352.574L621.243 352.574C625.84 352.964 629.392 355.343 629.176 357.89L626.817 385.728C626.602 388.274 622.7 390.023 618.103 389.633L618.103 389.633C613.506 389.244 609.954 386.864 610.17 384.317L612.529 356.479Z" fill="#000000" fill-rule="nonzero" opacity="1" stroke="none" vectornator:layerName="Rectangle 1"/>
<path d="M505.995 401.729C507.039 395.334 516.45 391.549 527.014 393.274C537.579 394.999 545.297 401.581 544.253 407.975C543.209 414.37 533.798 418.155 523.233 416.43C512.669 414.705 504.951 408.123 505.995 401.729Z" fill="#000000" fill-rule="nonzero" opacity="1" stroke="none" vectornator:layerName="Oval 2"/>
<path d="M481.462 408.835C481.462 408.835 500.595 422.578 525.124 426.053C549.653 429.528 568.299 427.306 568.299 427.306" fill="none" opacity="1" stroke="#000000" stroke-linecap="round" stroke-linejoin="round" stroke-width="5.07115" vectornator:layerName="Line 1"/>
</g>
</g>
<g id="Layer-3" vectornator:layerName="Layer 3">
<path d="M282.599 119.043C308.748 96.8858 409.504 156.488 409.504 156.488L395.263 234.675L310.506 245.572C310.506 245.572 256.45 141.2 282.599 119.043Z" fill="#c07d52" fill-rule="nonzero" opacity="1" stroke="none" vectornator:layerName="Rectangle 4"/>
<path d="M754.574 146.276C782.314 179.159 710.019 308.351 710.019 308.351L613.191 291.576L598.571 183.945C598.571 183.945 726.833 113.393 754.574 146.276Z" fill="#c07d52" fill-rule="nonzero" opacity="1" stroke="none" vectornator:layerName="Rectangle 5"/>
<path d="M321.132 222.946C321.132 222.946 295.762 159.548 309.679 147.992C323.597 136.436 386.028 170.267 386.028 170.267L370.421 211.105L321.132 222.946Z" fill="#f2d1a2" fill-rule="nonzero" opacity="1" stroke="none" vectornator:layerName="Rectangle 6"/>
<path d="M640.427 195.348C640.427 195.348 715.626 169.009 729.348 184.248C743.07 199.488 702.98 266.39 702.98 266.39L654.514 248.825L640.427 195.348Z" fill="#f2d1a2" fill-rule="nonzero" opacity="1" stroke="none" vectornator:layerName="Rectangle 7"/>
<path d="M347.912 659.878C429.679 592.865 473.559 598.058 444.264 490.79C415.287 384.69 295.443 524.568 259.21 576.075C237.014 607.627 190.668 731.582 217.123 755.415C243.578 779.247 267.913 725.442 347.912 659.878Z" fill="#b4734a" fill-rule="nonzero" opacity="1" stroke="none" vectornator:layerName="Oval 7"/>
<path d="M336.353 895.721C343.453 838.055 371.628 860.669 409.248 865.302C446.868 869.934 479.687 854.831 472.586 912.497C470.196 931.9 458.451 952.058 399.69 942.916C331.883 932.366 333.713 917.154 336.353 895.721Z" fill="#b4734a" fill-rule="nonzero" opacity="1" stroke="none" vectornator:layerName="Oval 8"/>
<path d="M502.716 930.416C491.04 861.81 532.674 877.811 579.322 869.872C625.97 861.933 659.967 833.061 671.643 901.667C675.572 924.751 668.566 951.996 595.037 962.21C510.186 973.998 507.055 955.914 502.716 930.416Z" fill="#b4734a" fill-rule="nonzero" opacity="1" stroke="none" vectornator:layerName="Oval 9"/>
<path d="M277.6 679.674C277.6 548.999 359.178 437.471 502.873 437.471C646.568 437.471 723.858 546.201 723.858 676.876C723.858 807.55 723.858 919.457 502.873 910.685C284.561 902.019 277.6 810.348 277.6 679.674Z" fill="#c07d52" fill-rule="nonzero" opacity="1" stroke="none" vectornator:layerName="Oval 10"/>
<path d="M663.231 761.262C663.231 761.262 664.306 664.073 747.749 634.623C827.143 606.602 870.81 659.878 870.81 659.878" fill="none" opacity="1" stroke="#c07d52" stroke-linecap="round" stroke-linejoin="round" stroke-width="62.5877" vectornator:layerName="Line 2"/>
<path d="M655.483 674.32C604.754 581.566 576.965 587.66 630.147 504.054C672.5 437.471 755.495 591.095 769.808 652.422C778.576 689.989 781.203 818.651 747.749 830.844C714.296 843.038 705.115 765.067 655.483 674.32Z" fill="#b4734a" fill-rule="nonzero" opacity="1" stroke="none" vectornator:layerName="Oval 11"/>
<path d="M271.103 346.567C271.103 231.125 371.976 137.541 496.409 137.541C620.842 137.541 721.714 231.125 721.714 346.567C721.714 462.008 661.087 534.099 487.179 519.942C321.634 506.466 271.103 462.008 271.103 346.567Z" fill="#cc8556" fill-rule="nonzero" opacity="1" stroke="none" vectornator:layerName="Oval 12"/>
<path d="M386.273 385.779C389.64 355.375 426.862 334.549 469.41 339.262C511.957 343.975 543.719 372.442 540.351 402.846C536.984 433.249 499.762 454.076 457.214 449.363C414.666 444.65 382.905 416.182 386.273 385.779Z" fill="#f2d1a2" fill-rule="nonzero" opacity="1" stroke="none" vectornator:layerName="Oval 13"/>
<path d="M374.643 316.203C374.643 312.848 379.493 310.129 385.475 310.129L385.475 310.129C391.457 310.129 396.307 312.848 396.307 316.203L396.307 346.663C396.307 350.018 391.457 352.737 385.475 352.737L385.475 352.737C379.493 352.737 374.643 350.018 374.643 346.663L374.643 316.203Z" fill="#000000" fill-rule="nonzero" opacity="1" stroke="none" vectornator:layerName="Rectangle 8"/>
<path d="M534.686 337.506C534.686 334.152 539.536 331.433 545.518 331.433L545.518 331.433C551.5 331.433 556.35 334.152 556.35 337.506L556.35 367.967C556.35 371.321 551.5 374.04 545.518 374.04L545.518 374.04C539.536 374.04 534.686 371.321 534.686 367.967L534.686 337.506Z" fill="#000000" fill-rule="nonzero" opacity="1" stroke="none" vectornator:layerName="Rectangle 9"/>
<path d="M425.271 361.393C426.794 351.841 440.207 353.371 457.417 354.92C474.857 356.49 488.586 361.694 487.063 371.246C485.54 380.798 463.85 395.027 453.467 394.284C444.209 393.622 423.747 370.946 425.271 361.393Z" fill="#f19696" fill-rule="nonzero" opacity="1" stroke="none" vectornator:layerName="Oval 14"/>
<g opacity="1" vectornator:layerName="Group 5">
<path d="M409.504 394.312C409.504 394.312 423.893 408.718 451.644 399.58C475.389 414.338 501.467 407.477 501.467 407.477" fill="none" opacity="1" stroke="#000000" stroke-linecap="round" stroke-linejoin="round" stroke-width="5.36098" vectornator:layerName="Line 3"/>
<g opacity="1" vectornator:layerName="Group 2">
<path d="M307.136 349.594L240.546 337.848" fill="none" opacity="1" stroke="#000000" stroke-linecap="round" stroke-linejoin="round" stroke-width="5.36098" vectornator:layerName="Line 2"/>
<path d="M308.414 371.359L252.04 385.078" fill="none" opacity="1" stroke="#000000" stroke-linecap="round" stroke-linejoin="round" stroke-width="5.36098" vectornator:layerName="Line 3"/>
<path d="M318.794 397.496L261.725 424.875" fill="none" opacity="1" stroke="#000000" stroke-linecap="round" stroke-linejoin="round" stroke-width="5.36098" vectornator:layerName="Line 4"/>
</g>
<g opacity="1" vectornator:layerName="Group 3">
<path d="M644.696 394.893L745.605 381.362" fill="none" opacity="1" stroke="#000000" stroke-linecap="round" stroke-linejoin="round" stroke-width="5.36098" vectornator:layerName="Line 2"/>
<path d="M642.759 419.965L728.188 435.77" fill="none" opacity="1" stroke="#000000" stroke-linecap="round" stroke-linejoin="round" stroke-width="5.36098" vectornator:layerName="Line 3"/>
<path d="M627.031 450.075L713.511 481.615" fill="none" opacity="1" stroke="#000000" stroke-linecap="round" stroke-linejoin="round" stroke-width="5.36098" vectornator:layerName="Line 4"/>
</g>
</g>
<path d="M320.938 710.892C320.938 633.235 377.946 570.283 448.269 570.283C518.592 570.283 575.601 633.235 575.601 710.892C575.601 788.548 575.601 857.644 448.269 851.501C357.665 847.129 320.938 788.548 320.938 710.892Z" fill="#f2d1a2" fill-rule="nonzero" opacity="1" stroke="none" vectornator:layerName="Oval 15"/>
<g opacity="1" vectornator:layerName="Group 4">
<path d="M428.472 184.306C429.177 171.404 438.665 144.753 438.665 144.753C438.665 144.753 445.888 142.086 453.543 140.8C461.199 139.515 469.299 139.395 469.299 139.395C469.299 139.395 463.961 158.94 462.682 182.367C461.402 205.794 456.392 228.375 445.634 227.787C434.877 227.2 427.193 207.732 428.472 184.306Z" fill="#f2d1a2" fill-rule="nonzero" opacity="1" stroke="none" vectornator:layerName="Oval 11"/>
<path d="M471.927 184.753C472.632 171.852 481.538 138.06 481.538 138.06L497.205 137.458L512.523 138.294C512.523 138.294 507.416 159.388 506.137 182.815C504.857 206.241 499.808 223.132 489.05 222.545C478.292 221.957 470.648 208.18 471.927 184.753Z" fill="#f2d1a2" fill-rule="nonzero" opacity="1" stroke="none" vectornator:layerName="Oval 12"/>
<path d="M516.908 190.671C517.613 177.769 527.803 139.892 527.803 139.892C527.803 139.892 536.039 140.518 543.453 141.788C550.868 143.059 557.439 145.481 557.439 145.481C557.439 145.481 552.397 165.306 551.117 188.733C549.838 212.159 544.789 229.05 534.031 228.463C523.273 227.875 515.629 214.098 516.908 190.671Z" fill="#f2d1a2" fill-rule="nonzero" opacity="1" stroke="none" vectornator:layerName="Oval 10"/>
</g>
<path d="M780.89 619.48C780.89 611.942 780.082 595.496 780.082 595.496C780.082 595.496 785.808 595.149 790.818 595.18C795.828 595.21 800.588 595.462 800.588 595.462C800.588 595.462 802.503 604.808 802.503 619.642C802.503 634.477 799.433 646.34 792.836 646.34C786.238 646.34 780.89 634.314 780.89 619.48Z" fill="#f2d1a2" fill-rule="nonzero" opacity="1" stroke="none" vectornator:layerName="Oval 16"/>
<path d="M697.62 682.523C688.881 687.389 668.925 700.656 668.925 700.656C668.925 700.656 665.687 693.736 662.33 687.623C658.973 681.511 655.511 674.32 655.511 674.32C655.511 674.32 665.976 665.709 683.175 656.134C700.374 646.559 716.207 642.635 720.673 650.658C725.14 658.682 714.819 672.948 697.62 682.523Z" fill="#f2d1a2" fill-rule="nonzero" opacity="1" stroke="none" vectornator:layerName="Oval 17"/>
<path d="M277.692 602.065C280.78 602.04 287.575 603.908 287.575 603.908C287.575 603.908 287.235 607.125 285.348 613.838C283.461 620.552 281.951 628.276 281.951 628.276C281.951 628.276 275.639 628.143 270.585 624.557C267.197 622.154 262.785 616.301 264.375 611.032C266.15 605.155 273.247 602.102 277.692 602.065Z" fill="#f2d1a2" fill-rule="nonzero" opacity="1" stroke="none" vectornator:layerName="Oval 18"/>
<path d="M269.652 634.193C272.723 633.86 280.876 635.284 280.876 635.284C280.876 635.284 280.879 638.47 279.67 645.338C278.46 652.206 278.622 659.878 278.622 659.878C278.622 659.878 270.205 660.345 264.82 657.281C261.21 655.226 256.236 649.841 257.294 644.44C258.475 638.416 265.233 634.671 269.652 634.193Z" fill="#f2d1a2" fill-rule="nonzero" opacity="1" stroke="none" vectornator:layerName="Oval 19"/>
<path d="M709.222 714.485C701.362 718.861 682.92 730.967 682.92 730.967C682.92 730.967 680.515 724.72 677.635 718.824C674.955 713.337 672.5 707.45 672.5 707.45C672.5 707.45 681.109 699.985 696.577 691.374C712.044 682.762 726.234 679.145 730.146 686.171C734.058 693.197 724.69 705.874 709.222 714.485Z" fill="#f2d1a2" fill-rule="nonzero" opacity="1" stroke="none" vectornator:layerName="Oval 20"/>
<path d="M807.839 620.759C807.839 613.221 805.827 595.875 805.827 595.875C805.827 595.875 810.77 596.169 815.733 596.856C821.334 597.631 826.021 599.18 826.021 599.18C826.021 599.18 827.143 606.109 827.143 620.944C827.143 635.779 824.073 647.642 817.476 647.642C810.878 647.642 807.839 635.594 807.839 620.759Z" fill="#f2d1a2" fill-rule="nonzero" opacity="1" stroke="none" vectornator:layerName="Oval 21"/>
</g>
</svg>
