<svg width="130" height="105" viewBox="0 0 130 105" fill="none" xmlns="http://www.w3.org/2000/svg">
<g filter="url(#filter0_d_38_20893)">
<rect x="17" y="2" width="107" height="93" rx="12" fill="white" shape-rendering="crispEdges"/>
<path d="M74.7 34.052C74.7 36.42 74.7 38.788 74.7 41.092C74.7 41.988 74.572 42.884 74.508 43.78C74.508 44.292 74.508 44.804 74.508 45.316C74.444 45.956 74.38 46.66 74.252 47.3C74.188 47.684 74.06 48.132 73.868 48.516C73.484 49.22 72.844 49.54 72.076 49.668C71.244 49.796 70.348 49.86 69.452 49.988C69.196 49.988 68.876 49.988 68.62 49.796C67.724 49.348 67.148 48.516 66.764 47.62C66.7 47.428 66.7 47.3 66.7 47.108C66.572 44.868 66.444 42.692 66.316 40.452C66.252 38.468 66.188 36.484 66.252 34.5C66.252 32.644 66.252 30.724 66.38 28.804C66.444 27.396 66.572 25.988 66.764 24.58C66.892 23.684 67.212 22.788 67.916 22.02C68.236 21.636 68.62 21.444 69.132 21.38C69.9 21.38 70.668 21.316 71.372 21.252C71.5 21.252 71.564 21.252 71.628 21.252C72.396 20.996 72.908 21.38 73.356 21.892C74.06 22.788 74.38 23.94 74.444 25.092C74.572 27.14 74.572 29.188 74.636 31.172C74.636 32.132 74.7 33.092 74.7 34.052ZM73.996 62.66C73.996 63.62 73.996 64.388 73.676 65.156C73.164 66.18 72.396 66.82 71.244 66.948C69.964 67.076 68.684 66.82 67.596 66.116C66.828 65.604 66.38 64.836 66.06 64.004C65.996 63.94 65.996 63.812 65.996 63.684C65.996 63.108 65.996 62.468 65.996 61.892C66.06 60.996 66.188 60.164 66.508 59.268C66.764 58.82 67.02 58.436 67.532 58.18C67.916 57.988 68.3 57.732 68.748 57.604C70.412 57.092 71.756 57.412 72.908 58.628C73.356 59.14 73.612 59.78 73.804 60.42C73.996 61.188 74.06 62.02 73.996 62.66Z" fill="#ED927B"/>
<path d="M10.8774 48.7013L22 59L22 34L10.8774 44.2987C9.59502 45.4861 9.59502 47.5139 10.8774 48.7013Z" fill="white"/>
<path d="M18.5 59L18.5 56L10.7895 48.675C9.54447 47.4922 9.54447 45.5078 10.7895 44.325L18.5 37L18.5 34.5" stroke="#1F576F" stroke-width="3"/>
<rect x="18.5" y="3.5" width="104" height="90" rx="10.5" stroke="#1F576F" stroke-width="3" shape-rendering="crispEdges"/>
</g>
<defs>
<filter id="filter0_d_38_20893" x="0.5" y="0" width="129.5" height="105" filterUnits="userSpaceOnUse" color-interpolation-filters="sRGB">
<feFlood flood-opacity="0" result="BackgroundImageFix"/>
<feColorMatrix in="SourceAlpha" type="matrix" values="0 0 0 0 0 0 0 0 0 0 0 0 0 0 0 0 0 0 127 0" result="hardAlpha"/>
<feOffset dy="4"/>
<feGaussianBlur stdDeviation="3"/>
<feComposite in2="hardAlpha" operator="out"/>
<feColorMatrix type="matrix" values="0 0 0 0 0.457859 0 0 0 0 0.745833 0 0 0 0 0.677268 0 0 0 1 0"/>
<feBlend mode="normal" in2="BackgroundImageFix" result="effect1_dropShadow_38_20893"/>
<feBlend mode="normal" in="SourceGraphic" in2="effect1_dropShadow_38_20893" result="shape"/>
</filter>
</defs>
</svg>
