<svg width="119" height="116" viewBox="0 0 119 116" fill="none" xmlns="http://www.w3.org/2000/svg">
<g filter="url(#filter0_d_38_20815)">
<rect x="6" y="2" width="107" height="93" rx="12" fill="white" shape-rendering="crispEdges"/>
<path d="M63.7 34.052C63.7 36.42 63.7 38.788 63.7 41.092C63.7 41.988 63.572 42.884 63.508 43.78C63.508 44.292 63.508 44.804 63.508 45.316C63.444 45.956 63.38 46.66 63.252 47.3C63.188 47.684 63.06 48.132 62.868 48.516C62.484 49.22 61.844 49.54 61.076 49.668C60.244 49.796 59.348 49.86 58.452 49.988C58.196 49.988 57.876 49.988 57.62 49.796C56.724 49.348 56.148 48.516 55.764 47.62C55.7 47.428 55.7 47.3 55.7 47.108C55.572 44.868 55.444 42.692 55.316 40.452C55.252 38.468 55.188 36.484 55.252 34.5C55.252 32.644 55.252 30.724 55.38 28.804C55.444 27.396 55.572 25.988 55.764 24.58C55.892 23.684 56.212 22.788 56.916 22.02C57.236 21.636 57.62 21.444 58.132 21.38C58.9 21.38 59.668 21.316 60.372 21.252C60.5 21.252 60.564 21.252 60.628 21.252C61.396 20.996 61.908 21.38 62.356 21.892C63.06 22.788 63.38 23.94 63.444 25.092C63.572 27.14 63.572 29.188 63.636 31.172C63.636 32.132 63.7 33.092 63.7 34.052ZM62.996 62.66C62.996 63.62 62.996 64.388 62.676 65.156C62.164 66.18 61.396 66.82 60.244 66.948C58.964 67.076 57.684 66.82 56.596 66.116C55.828 65.604 55.38 64.836 55.06 64.004C54.996 63.94 54.996 63.812 54.996 63.684C54.996 63.108 54.996 62.468 54.996 61.892C55.06 60.996 55.188 60.164 55.508 59.268C55.764 58.82 56.02 58.436 56.532 58.18C56.916 57.988 57.3 57.732 57.748 57.604C59.412 57.092 60.756 57.412 61.908 58.628C62.356 59.14 62.612 59.78 62.804 60.42C62.996 61.188 63.06 62.02 62.996 62.66Z" fill="#ED927B"/>
<path d="M57.2987 101.123L47 90H72L61.7013 101.123C60.5139 102.405 58.4861 102.405 57.2987 101.123Z" fill="white"/>
<path d="M47 93.5H50L57.325 101.211C58.5078 102.456 60.4922 102.456 61.675 101.211L69 93.5H71.5" stroke="#1F576F" stroke-width="3"/>
<rect x="7.5" y="3.5" width="104" height="90" rx="10.5" stroke="#1F576F" stroke-width="3" shape-rendering="crispEdges"/>
</g>
<defs>
<filter id="filter0_d_38_20815" x="0" y="0" width="119" height="115.5" filterUnits="userSpaceOnUse" color-interpolation-filters="sRGB">
<feFlood flood-opacity="0" result="BackgroundImageFix"/>
<feColorMatrix in="SourceAlpha" type="matrix" values="0 0 0 0 0 0 0 0 0 0 0 0 0 0 0 0 0 0 127 0" result="hardAlpha"/>
<feOffset dy="4"/>
<feGaussianBlur stdDeviation="3"/>
<feComposite in2="hardAlpha" operator="out"/>
<feColorMatrix type="matrix" values="0 0 0 0 0.457859 0 0 0 0 0.745833 0 0 0 0 0.677268 0 0 0 1 0"/>
<feBlend mode="normal" in2="BackgroundImageFix" result="effect1_dropShadow_38_20815"/>
<feBlend mode="normal" in="SourceGraphic" in2="effect1_dropShadow_38_20815" result="shape"/>
</filter>
</defs>
</svg>
