<svg width="40" height="40" viewBox="0 0 40 40" fill="none" xmlns="http://www.w3.org/2000/svg">
<path d="M37.3703 1.24837C35.9743 1.01029 34.5608 0.887744 33.1444 0.881997C28.3116 0.878074 23.5796 2.25025 19.5125 4.83495C15.4348 2.28418 10.7036 0.945689 5.88054 0.97841C4.46408 0.984157 3.05056 1.1067 1.65465 1.34478C1.1974 1.42283 0.783334 1.65997 0.487 2.01349C0.190667 2.36701 0.0315447 2.81368 0.03829 3.27305V26.4123C0.0341192 26.6956 0.0930633 26.9764 0.210928 27.2346C0.328793 27.4928 0.502682 27.7221 0.720223 27.9062C0.937763 28.0903 1.19361 28.2247 1.46955 28.2998C1.7455 28.3748 2.03477 28.3888 2.31677 28.3406C5.10745 27.8621 7.96661 27.9415 10.7258 28.574C13.4851 29.2065 16.0886 30.3794 18.3829 32.0236L18.6166 32.1585H18.8309C19.0468 32.2476 19.2785 32.2935 19.5125 32.2935C19.7464 32.2935 19.9781 32.2476 20.194 32.1585H20.4083L20.642 32.0236C22.9203 30.3427 25.5164 29.1318 28.2761 28.4627C31.0359 27.7936 33.9032 27.68 36.7081 28.1284C36.9901 28.1766 37.2794 28.1627 37.5553 28.0876C37.8313 28.0126 38.0871 27.8782 38.3047 27.6941C38.5222 27.51 38.6961 27.2807 38.814 27.0225C38.9318 26.7643 38.9908 26.4835 38.9866 26.2002V3.06094C38.9663 2.62159 38.795 2.2023 38.501 1.87262C38.207 1.54294 37.808 1.32268 37.3703 1.24837ZM17.565 26.8751C13.9621 24.9983 9.95165 24.0187 5.88054 24.0212C5.23789 24.0212 4.59524 24.0212 3.93312 24.0212V4.73854C4.58172 4.70152 5.23194 4.70152 5.88054 4.73854C10.0351 4.73399 14.0991 5.94118 17.565 8.20942V26.8751ZM35.0918 24.0984C34.4297 24.0984 33.787 24.0984 33.1444 24.0984C29.0733 24.0959 25.0628 25.0754 21.4599 26.9522V8.20942C24.9258 5.94118 28.9898 4.73399 33.1444 4.73854C33.793 4.70152 34.4432 4.70152 35.0918 4.73854V24.0984ZM37.3703 32.1007C35.9743 31.8626 34.5608 31.7401 33.1444 31.7343C28.3116 31.7304 23.5796 33.1026 19.5125 35.6873C15.4453 33.1026 10.7133 31.7304 5.88054 31.7343C4.46408 31.7401 3.05056 31.8626 1.65465 32.1007C1.40114 32.1405 1.1581 32.2296 0.939481 32.3627C0.720863 32.4959 0.530989 32.6706 0.380775 32.8766C0.230562 33.0827 0.122974 33.3162 0.0641979 33.5636C0.00542165 33.811 -0.00338306 34.0674 0.03829 34.3182C0.137255 34.8189 0.432623 35.2604 0.859691 35.546C1.28676 35.8315 1.81071 35.9378 2.31677 35.8415C5.10745 35.3631 7.96661 35.4425 10.7258 36.075C13.4851 36.7075 16.0886 37.8804 18.3829 39.5245C18.7128 39.757 19.1076 39.882 19.5125 39.882C19.9173 39.882 20.3121 39.757 20.642 39.5245C22.9364 37.8804 25.5398 36.7075 28.2991 36.075C31.0583 35.4425 33.9174 35.3631 36.7081 35.8415C37.2142 35.9378 37.7381 35.8315 38.1652 35.546C38.5923 35.2604 38.8876 34.8189 38.9866 34.3182C39.0283 34.0674 39.0195 33.811 38.9607 33.5636C38.9019 33.3162 38.7943 33.0827 38.6441 32.8766C38.4939 32.6706 38.304 32.4959 38.0854 32.3627C37.8668 32.2296 37.6238 32.1405 37.3703 32.1007Z" fill="#1F576F"/>
</svg>
