<?xml version="1.0" encoding="UTF-8" standalone="no"?>
<!DOCTYPE svg PUBLIC "-//W3C//DTD SVG 1.1//EN" "http://www.w3.org/Graphics/SVG/1.1/DTD/svg11.dtd">
<!-- Created with Vectornator (http://vectornator.io/) -->
<svg height="100%" stroke-miterlimit="10" style="fill-rule:nonzero;clip-rule:evenodd;stroke-linecap:round;stroke-linejoin:round;" version="1.1" viewBox="0 0 1080 1080" width="100%" xml:space="preserve" xmlns="http://www.w3.org/2000/svg" xmlns:vectornator="http://vectornator.io" xmlns:xlink="http://www.w3.org/1999/xlink">
<defs>
<path d="M843.777 703.746C843.777 703.746 733.965 698.219 712.379 617.202C695.054 552.178 541.46 615.322 541.46 615.322C541.46 615.322 543.096 745.57 695.062 785.798C767.788 805.05 843.777 703.746 843.777 703.746Z" id="Fill"/>
<path d="M231.136 702.745C231.136 702.745 340.947 697.217 362.533 616.201C379.858 551.176 533.452 614.321 533.452 614.321C533.452 614.321 531.816 744.568 379.851 784.796C307.124 804.049 231.136 702.745 231.136 702.745Z" id="Fill_2"/>
<path d="M321.257 364.1C459.511 383.759 533.482 614.368 533.482 614.368C533.482 614.368 434.589 642.545 398.06 646.739C357.526 651.393 242.655 630.223 176.744 571.566C81.1293 486.475 120.646 292.182 120.646 292.182C120.646 292.182 235.058 351.843 321.257 364.1Z" id="Fill_3"/>
<path d="M753.656 365.102C615.402 384.761 541.43 615.37 541.43 615.37C541.43 615.37 640.323 643.547 676.852 647.741C717.387 652.395 832.258 631.225 898.168 572.568C993.783 487.476 954.266 293.184 954.266 293.184C954.266 293.184 839.854 352.845 753.656 365.102Z" id="Fill_4"/>
<path d="M798.642 431.926C837.271 403.465 828.585 351.553 770.863 357.532C784.717 289.292 691.034 261.146 678.127 285.498C682.055 237.605 624.774 224.951 613.825 254.127C617.09 163.113 410.275 153.021 416.167 277.405C334.127 261.922 269.369 320.196 314.217 405.217C294.365 412.233 247.54 448.439 305.459 500.51C288.033 540.971 324.463 570.878 368.865 585.751C426.056 604.907 493.176 613.62 545.392 613.327C586.627 613.096 589.577 609.906 653.548 603.159C686.805 600.808 792.178 568.139 787.637 524.978C856.876 511.676 864.948 431.535 798.642 431.926Z" id="Fill_5"/>
</defs>
<g id="Layer-1" vectornator:layerName="Layer 1" visibility="hidden">
<use fill="#8bab4d" fill-rule="nonzero" opacity="1" stroke="none" vectornator:layerName="Curve 1" xlink:href="#Fill"/>
<clipPath clip-rule="nonzero" id="ClipPath">
<use xlink:href="#Fill"/>
</clipPath>
<g clip-path="url(#ClipPath)">
<path d="M760.555 664.769C760.555 664.769 718.19 674.408 726.933 708.647C734.717 739.135 690.27 751.962 709.121 747.314C721.454 744.273 742.521 784.727 742.521 784.727L718.563 845.933L633.694 693.401L691.398 644.947L760.555 664.769Z" fill="#587745" fill-rule="nonzero" opacity="0.249274" stroke="none" vectornator:layerName="Curve 2"/>
<path d="M545.344 615.411C545.344 615.411 611.866 684.183 661.634 709.439C711.403 734.695 768.647 729.461 768.647 729.461" fill="none" opacity="1" stroke="#587745" stroke-linecap="round" stroke-linejoin="round" stroke-width="6.07308" vectornator:layerName="Curve 3"/>
</g>
</g>
<g id="Layer-2" vectornator:layerName="Layer 2" visibility="hidden">
<use fill="#8bab4d" fill-rule="nonzero" opacity="1" stroke="none" vectornator:layerName="Curve 4" xlink:href="#Fill_2"/>
<clipPath clip-rule="nonzero" id="ClipPath_2">
<use xlink:href="#Fill_2"/>
</clipPath>
<g clip-path="url(#ClipPath_2)">
<path d="M529.568 614.409C529.568 614.409 463.047 683.181 413.278 708.437C363.51 733.693 306.265 728.459 306.265 728.459" fill="none" opacity="1" stroke="#587745" stroke-linecap="round" stroke-linejoin="round" stroke-width="6.07308" vectornator:layerName="Curve 5"/>
<path d="M317.958 658.869C317.958 658.869 360.323 669.552 351.58 707.501C343.795 741.292 388.243 755.509 369.392 750.357C357.058 746.987 335.992 791.824 335.992 791.824L359.95 859.66L444.819 690.603L387.115 636.9L317.958 658.869Z" fill="#587745" fill-rule="nonzero" opacity="0.249274" stroke="none" vectornator:layerName="Curve 6"/>
</g>
</g>
<g id="Layer-3" vectornator:layerName="Layer 3" visibility="hidden">
<use fill="#a7ca62" fill-rule="nonzero" opacity="1" stroke="none" vectornator:layerName="Curve 7" xlink:href="#Fill_3"/>
<clipPath clip-rule="nonzero" id="ClipPath_3">
<use xlink:href="#Fill_3"/>
</clipPath>
<g clip-path="url(#ClipPath_3)">
<path d="M312.09 351.594C236.9 384.822 273.446 408.46 271.123 409.02C269.22 409.477 224.104 447.148 240.997 469.284C274.326 512.956 280.191 527.01 248.256 550.009C204.502 581.521 216.802 599.032 216.802 599.032L257.898 642.746L403.908 630.498L374.168 383.066C374.168 383.066 387.279 318.366 312.09 351.594Z" fill="#587745" fill-rule="nonzero" opacity="0.202669" stroke="none" vectornator:layerName="Curve 8"/>
<path d="M176.182 389.209C176.182 389.209 226.261 479.288 312.066 507.96C401.338 537.791 530.017 613.544 530.017 613.544" fill="none" opacity="1" stroke="#688954" stroke-linecap="round" stroke-linejoin="round" stroke-width="6.07308" vectornator:layerName="Curve 9"/>
</g>
</g>
<g id="Layer-4" vectornator:layerName="Layer 4" visibility="hidden">
<use fill="#a7ca62" fill-rule="nonzero" opacity="1" stroke="none" vectornator:layerName="Curve 10" xlink:href="#Fill_4"/>
<clipPath clip-rule="nonzero" id="ClipPath_4">
<use xlink:href="#Fill_4"/>
</clipPath>
<g clip-path="url(#ClipPath_4)">
<path d="M758.688 330.988C800.593 342.303 809.804 354.333 826.228 363.799C856.689 381.354 820.82 408.521 857.987 439.777C890.63 467.229 808.185 521.326 839.447 542.777C865.764 560.835 870.849 597.875 870.849 597.875L831.377 634.458L685.365 622.217L715.092 374.784C715.092 374.784 679.325 309.559 758.688 330.988Z" fill="#587745" fill-rule="nonzero" opacity="0.197739" stroke="none" vectornator:layerName="Curve 11"/>
<path d="M898.731 390.211C898.731 390.211 848.652 480.29 762.846 508.962C673.574 538.793 544.895 614.546 544.895 614.546" fill="none" opacity="1" stroke="#688954" stroke-linecap="round" stroke-linejoin="round" stroke-width="6.07308" vectornator:layerName="Curve 12"/>
</g>
</g>
<g id="Layer-6" vectornator:layerName="Layer 6"/>
<clipPath id="ArtboardFrame">
<rect height="1080" width="1080" x="0" y="0"/>
</clipPath>
<g clip-path="url(#ArtboardFrame)" id="Layer-5" vectornator:layerName="Layer 5" visibility="hidden">
<path d="M-90 18.8756C-90-40.857-39.6237-89.2798 22.5186-89.2798L1042.46-89.2798C1104.61-89.2798 1154.98-40.857 1154.98 18.8756L1154.98 1064.56C1154.98 1124.3 1104.61 1172.72 1042.46 1172.72L22.5186 1172.72C-39.6237 1172.72-90 1124.3-90 1064.56L-90 18.8756Z" fill="#786955" fill-rule="nonzero" opacity="0" stroke="#d3bda1" stroke-linecap="butt" stroke-linejoin="round" stroke-width="24.9582" vectornator:layerName="Rectangle 5"/>
<g opacity="0" vectornator:layerName="Group 13">
<g opacity="1">
<path d="M975.769 287.518C973.866 277.467 806.377 253.561 716.43 302.466C708.053 309.842 699.724 317.969 691.236 327.711C691.29 327.647 690.386 328.854 689.886 329.445C686.605 333.382 682.05 335.207 677.579 331.115C676.504 330.131 675.852 329.036 675.409 327.811C653.669 342.954 634.755 359.809 620.725 378.327C620.957 379.314 621.988 383.402 622.342 384.888C622.586 385.923 622.802 386.937 623.005 387.87C624.456 394.538 624.891 398.263 623.659 400.874C621.714 404.995 614.408 407.185 602.799 409.102C602.077 409.221 601.706 409.211 601.01 409.312C546.321 507.508 543.99 599.349 598.32 620.047C656.468 642.203 769.282 591.463 835.673 485.757C838.365 481.471 840.813 476.985 843.325 472.568C842.895 471.116 842.448 469.657 842.08 468.196C840.045 460.127 839.535 456.555 841.489 453.931C844.51 449.877 848.302 447.696 855.111 444.886C855.53 444.716 855.915 444.487 856.753 444.145C857.821 443.708 857.792 443.498 858.609 443.138C862.75 434.196 866.478 425.152 870.041 416.055C869.939 414.534 870.005 413.556 869.798 411.477C869.097 404.434 869.074 400.732 869.498 397.873C856.345 397.28 840.02 398.157 829.552 400.38C829.016 400.493 828.435 400.732 827.907 400.855C825.902 401.738 825.253 402.047 817.133 407.227C814.084 409.179 811.823 410.563 809.571 411.788C803.697 415.003 798.741 416.767 793.918 416.797C793.112 416.806 792.346 416.69 791.553 416.414C789.696 415.768 788.248 414.245 788.231 412.054C788.22 410.637 788.767 409.59 789.571 408.728C789.915 408.352 790.277 408.04 790.71 407.725C791.693 407.013 793.094 406.265 795.135 405.242C795.357 405.127 799.413 403.083 799.775 402.89C800.155 402.687 801.131 402.151 801.131 402.151C802.713 401.262 803.488 400.876 804.486 400.404C805.052 400.14 806.996 399.146 807.342 398.993C814.511 395.611 819.217 393.838 823.988 392.517C824.236 392.408 824.847 391.968 825.13 391.846C833.949 388.104 842.867 385.383 851.788 383.118C853.716 382.498 854.095 382.328 857.577 381.223C864.411 379.056 868.537 377.201 873.366 375.284C876.305 372.926 879.545 370.349 879.637 370.267C883.188 367.407 884.496 366.255 886.405 364.65C886.475 364.563 886.55 364.395 886.618 364.317C886.906 363.958 887.487 363.547 887.9 363.18C887.863 362.804 887.541 362.505 887.607 362.12C888.03 359.679 887.661 357.474 886.114 352.44C884.194 346.19 883.625 343.441 884.243 339.576C884.848 335.789 887.422 330.86 892.304 323.133C892.725 322.468 897.261 315.438 898.049 314.204C899.534 311.872 918.597 321.706 919.254 320.462C928.969 273.929 977.672 297.57 975.769 287.518ZM796.475 299.045C800.627 298.67 805.197 299.029 809.729 299.891C814.232 300.75 818.227 302.138 821.43 304.264C827.3 308.153 830.252 314.62 827.338 321.483C823.368 330.839 812.961 335.648 792.017 342.013C788.139 343.194 774.925 347.022 776.291 346.624C771.424 348.048 768.502 349.028 767.286 349.601C761.484 352.334 754.444 350.15 751.5 344.788C749.772 341.634 750.06 338.132 751.583 335.165C751.52 334.118 751.675 333.249 752.134 331.644C753.084 329.587 753.081 329.574 753.905 328.513C755.199 327.131 755.253 327.199 755.97 326.642C756.526 326.225 756.942 325.866 757.467 325.571C757.962 325.289 758.526 325.084 759.181 324.764C760.264 324.253 761.406 324.072 762.541 323.88C763.788 323.454 764.998 323.093 767.043 322.325C770.755 320.948 773.087 319.914 776.116 318.684C776.268 318.218 776.329 318.222 776.538 317.553C776.565 317.465 776.577 317.453 776.609 317.354C779.018 309.951 780.757 306.443 785.826 302.629C788.585 300.556 792.316 299.42 796.475 299.045ZM731.543 348.564C734.249 348.544 736.426 350.605 736.441 353.112C736.451 354.581 735.62 355.739 734.458 356.576C734.703 357.818 734.532 359.163 733.621 360.231C729.941 364.548 726.13 367.075 722.424 367.668C717.808 368.409 713.839 365.868 713.149 361.754C711.952 354.62 720.011 348.636 731.543 348.564ZM754.883 484.671C762.514 486.742 764.393 492.742 762.788 500.35C763.533 504.533 761.493 509.804 757.086 516.115C752.174 523.153 744.375 531.614 735.747 539.411C727.363 546.984 719.143 553.07 713.577 555.744C710.95 557.005 708.729 557.364 706.783 557.247C704.23 558.861 701.938 560.197 700.146 560.938C698.593 561.583 697.224 561.953 695.783 561.895C692.668 561.772 690.326 559.575 690.307 556.62C690.275 551.365 694.218 547.808 701.328 543.941C701.361 543.645 701.305 543.366 701.394 543.078C701.485 542.787 701.69 542.599 701.819 542.345C701.827 542.326 701.811 542.297 701.819 542.279C702.116 541.555 702.422 540.843 702.807 540.016C703.124 539.334 704.195 537.184 704.363 536.821C706.984 531.182 715.873 517.332 723.941 506.899C736.383 490.811 746.195 482.314 754.883 484.671Z" fill="#cc862a" fill-rule="nonzero" opacity="1" stroke="none"/>
<path d="M597.2 521.232C591.431 521.498 586.033 522.616 581.108 524.651C542.743 540.507 547.554 606.138 590.773 672.856C591.24 669.526 591.642 666.562 592.424 661.895C592.514 661.354 592.469 661.375 592.56 660.833C594.647 648.35 595.45 642.017 595.404 634.599C595.387 632.09 597.539 630.007 600.245 629.99C602.951 629.975 605.127 632.031 605.143 634.538C605.193 642.584 604.4 649.22 602.237 662.166C602.146 662.712 602.191 662.751 602.1 663.295C600.382 673.561 599.736 679.398 599.444 685.014C608.057 695.329 618.999 704.11 631.479 711.493C634.92 711.53 638.29 711.729 641.509 712.094C643.301 711.636 645.167 711.241 647.232 711.195C662.263 710.862 682.921 720.824 685.537 732.591C685.631 733.013 685.404 733.426 685.402 733.853C738.37 749.555 754.353 787.229 754.353 787.23C754.353 787.229 786.685 714.636 763.902 666.794C763.6 666.827 763.265 667.201 762.759 667.199C760.939 666.782 760.929 666.794 760.463 666.484C760.115 666.264 760.077 666.234 759.888 666.089C759.715 665.957 759.558 665.853 759.384 665.694C757.988 664.417 757.088 662.924 755.849 661.601C755.826 661.583 752.374 659.208 749.592 657.327C746.221 655.049 743.232 653.08 743.047 652.987C736.236 649.676 733.327 644.822 734.293 638.773C734.864 635.201 735.073 634.75 740.293 624.931C739.063 623.043 738.109 621.209 736.821 619.311C696.076 559.323 637.579 519.368 597.2 521.232ZM679.982 680.261C681.359 680.414 682.754 680.771 684.285 681.296C687.931 682.555 692.406 685.019 694.487 686.542C694.533 686.575 694.517 686.64 694.56 686.674C699.759 688.408 706.204 690.933 712.08 693.998C717.207 696.665 721.227 699.289 723.874 701.821C728.07 705.84 729.456 710.534 725.385 714.355C721.252 718.233 715.926 718.579 709.859 716.709C703.877 715.933 696.125 713.144 687.683 709.216C681.02 706.116 675.559 702.78 672.297 699.623C669.112 696.539 668.057 693.138 669.086 690.152C668.441 688.635 668.301 686.981 669.844 685.303C670.285 684.825 670.786 684.642 671.27 684.364C672.251 682.536 673.673 681.06 675.972 680.486C677.237 680.17 678.607 680.104 679.982 680.261Z" fill="#cc862a" fill-rule="nonzero" opacity="1" stroke="none"/>
</g>
<g opacity="1">
<path d="M111.768 287.442C113.545 277.368 280.722 251.365 371.275 299.139C379.743 306.409 388.173 314.431 396.783 324.066C396.728 324.003 397.647 325.198 398.155 325.783C401.484 329.678 406.062 331.446 410.482 327.299C411.544 326.301 412.183 325.198 412.61 323.967C434.538 338.837 453.662 355.454 467.923 373.795C467.703 374.784 466.724 378.885 466.389 380.375C466.157 381.413 465.954 382.429 465.763 383.365C464.395 390.05 464.007 393.781 465.271 396.376C467.268 400.473 474.601 402.571 486.233 404.342C486.956 404.452 487.328 404.438 488.025 404.53C543.94 502.033 547.422 593.837 493.355 615.214C435.49 638.098 322.049 588.775 254.339 483.91C251.593 479.658 249.089 475.203 246.522 470.818C246.934 469.361 247.362 467.895 247.712 466.43C249.645 458.336 250.11 454.759 248.124 452.159C245.052 448.144 241.233 446.01 234.39 443.285C233.969 443.121 233.58 442.896 232.738 442.565C231.665 442.142 231.692 441.932 230.87 441.582C226.617 432.692 222.776 423.695 219.099 414.644C219.182 413.122 219.104 412.145 219.285 410.063C219.898 403.012 219.874 399.31 219.415 396.457C232.559 395.698 248.893 396.371 259.389 398.463C259.926 398.569 260.51 398.801 261.039 398.917C263.055 399.775 263.708 400.075 271.892 405.154C274.966 407.067 277.244 408.423 279.511 409.619C285.425 412.761 290.403 414.462 295.225 414.432C296.032 414.431 296.796 414.305 297.586 414.019C299.435 413.35 300.863 411.809 300.853 409.618C300.846 408.201 300.286 407.161 299.471 406.309C299.122 405.938 298.757 405.63 298.319 405.32C297.328 404.621 295.917 403.891 293.864 402.893C293.64 402.781 289.559 400.788 289.195 400.599C288.812 400.401 287.829 399.877 287.829 399.877C286.237 399.009 285.457 398.632 284.453 398.173C283.884 397.916 281.927 396.946 281.58 396.797C274.369 393.506 269.641 391.792 264.854 390.531C264.604 390.425 263.988 389.992 263.704 389.874C254.838 386.243 245.887 383.634 236.939 381.481C235.002 380.885 234.621 380.719 231.126 379.659C224.265 377.577 220.117 375.775 215.263 373.918C212.296 371.597 209.023 369.061 208.93 368.98C205.343 366.164 204.021 365.029 202.092 363.448C202.021 363.362 201.944 363.195 201.875 363.117C201.583 362.762 200.997 362.359 200.579 361.997C200.612 361.621 200.93 361.318 200.859 360.934C200.406 358.498 200.746 356.288 202.23 351.235C204.071 344.961 204.607 342.205 203.94 338.349C203.288 334.57 200.651 329.673 195.673 322.008C195.244 321.349 190.62 314.376 189.817 313.152C188.303 310.839 169.364 320.911 168.692 319.675C158.395 273.268 109.992 297.517 111.768 287.442ZM291.193 296.721C287.037 296.398 282.471 296.815 277.951 297.733C273.459 298.648 269.482 300.086 266.306 302.253C260.484 306.214 257.614 312.718 260.613 319.544C264.701 328.85 275.167 333.528 296.189 339.629C300.082 340.762 313.343 344.424 311.972 344.044C316.857 345.406 319.791 346.349 321.014 346.907C326.849 349.567 333.862 347.296 336.738 341.897C338.426 338.721 338.095 335.223 336.534 332.275C336.584 331.228 336.418 330.361 335.939 328.762C334.964 326.717 334.966 326.704 334.129 325.654C332.817 324.287 332.764 324.357 332.041 323.808C331.48 323.398 331.059 323.045 330.53 322.756C330.031 322.48 329.465 322.282 328.807 321.97C327.717 321.474 326.573 321.306 325.435 321.129C324.184 320.719 322.969 320.372 320.914 319.631C317.186 318.3 314.841 317.295 311.797 316.104C311.639 315.639 311.578 315.644 311.36 314.978C311.332 314.89 311.32 314.878 311.287 314.78C308.786 307.408 307.002 303.922 301.886 300.171C299.102 298.133 295.356 297.044 291.193 296.721ZM356.741 345.422C354.034 345.437 351.884 347.524 351.9 350.032C351.909 351.5 352.754 352.648 353.926 353.47C353.696 354.715 353.885 356.058 354.809 357.115C358.543 361.385 362.386 363.865 366.098 364.411C370.724 365.093 374.66 362.504 375.299 358.38C376.406 351.232 368.273 345.35 356.741 345.422ZM335.108 481.811C327.504 483.978 325.7 490.001 327.401 497.588C326.708 501.78 328.813 507.026 333.3 513.281C338.3 520.256 346.204 528.618 354.929 536.307C363.407 543.774 371.703 549.757 377.302 552.361C379.944 553.589 382.17 553.92 384.114 553.778C386.688 555.36 388.996 556.668 390.797 557.387C392.358 558.012 393.732 558.364 395.172 558.288C398.285 558.126 400.599 555.9 400.581 552.945C400.547 547.69 396.56 544.183 389.402 540.405C389.366 540.11 389.417 539.83 389.325 539.543C389.23 539.253 389.023 539.068 388.891 538.816C388.882 538.797 388.898 538.768 388.89 538.749C388.584 538.03 388.27 537.321 387.873 536.499C387.548 535.821 386.45 533.685 386.278 533.324C383.587 527.718 374.525 513.98 366.326 503.649C353.683 487.719 343.766 479.346 335.108 481.811Z" fill="#cc862a" fill-rule="nonzero" opacity="1" stroke="none"/>
<path d="M493.237 516.393C499.009 516.587 504.42 517.637 509.371 519.61C547.931 534.984 543.943 600.67 501.564 667.925C501.056 664.601 500.616 661.642 499.776 656.986C499.679 656.445 499.724 656.466 499.626 655.925C497.383 643.469 496.501 637.147 496.454 629.729C496.439 627.22 494.262 625.164 491.556 625.18C488.85 625.199 486.699 627.283 486.715 629.79C486.765 637.835 487.641 644.462 489.967 657.379C490.065 657.924 490.02 657.964 490.118 658.506C491.965 668.75 492.683 674.578 493.047 680.19C484.563 690.613 473.732 699.53 461.346 707.069C457.905 707.149 454.538 707.39 451.324 707.795C449.527 707.36 447.656 706.988 445.59 706.968C430.555 706.824 410.025 717.044 407.556 728.842C407.467 729.266 407.699 729.676 407.707 730.103C354.94 746.468 339.431 784.339 339.43 784.34C339.43 784.339 306.191 712.157 328.372 664.033C328.675 664.063 329.015 664.432 329.521 664.424C331.336 663.984 331.346 663.996 331.808 663.679C332.153 663.456 332.191 663.425 332.378 663.278C332.549 663.143 332.704 663.038 332.877 662.876C334.257 661.582 335.137 660.078 336.36 658.74C336.383 658.721 339.804 656.303 342.563 654.387C345.905 652.067 348.87 650.061 349.053 649.966C355.822 646.569 358.67 641.679 357.628 635.643C357.013 632.079 356.798 631.631 351.455 621.877C352.661 619.974 353.593 618.128 354.857 616.215C394.846 555.72 452.838 515.036 493.237 516.393ZM412.455 676.448C411.08 676.617 409.69 676.992 408.165 677.536C404.535 678.841 400.091 681.36 398.029 682.909C397.984 682.943 398.001 683.007 397.959 683.042C392.782 684.842 386.369 687.447 380.532 690.585C375.438 693.316 371.451 695.99 368.837 698.556C364.691 702.627 363.364 707.338 367.483 711.108C371.664 714.934 376.994 715.213 383.037 713.267C389.009 712.415 396.725 709.53 405.118 705.496C411.741 702.313 417.16 698.909 420.382 695.711C423.528 692.587 424.54 689.174 423.474 686.201C424.1 684.676 424.22 683.02 422.656 681.361C422.208 680.889 421.705 680.713 421.217 680.441C420.213 678.625 418.773 677.167 416.467 676.622C415.198 676.322 413.828 676.273 412.455 676.448Z" fill="#cc862a" fill-rule="nonzero" opacity="1" stroke="none"/>
</g>
</g>
<g opacity="1" vectornator:layerName="Group 16">
<g opacity="1">
<path d="M555.033 577.88C555.032 577.88 552.61 616.506 586.069 665.078C590.481 663.352 593.624 662.396 596.373 662.6C600.111 662.878 603.24 664.884 605.009 668.109C605.975 669.868 606.357 671.46 606.787 674.037C606.865 674.505 607.11 676.149 607.137 676.322C607.284 677.232 607.437 677.949 607.586 678.704C607.966 680.629 608.424 682.479 609.071 684.39C609.977 687.07 609.315 689.785 607.741 691.889C632.532 718.811 667.5 745.235 719.985 735.427C776.622 724.842 820.9 736.782 820.9 736.782C820.9 736.782 817.244 702.196 801.618 666.999C800.479 666.724 799.38 666.233 798.4 665.456C797.196 664.501 791.865 660.48 791.223 659.99C788.521 657.926 786.882 656.542 785.363 655.004C779.381 648.951 778.185 642.502 779.709 630.556C766.909 614.79 750.393 601.846 728.811 596.284C649.032 575.723 555.033 577.88 555.033 577.88ZM704.713 670.589C710.996 671.458 716.153 673.079 719.769 675.388C721.975 676.797 723.738 678.522 724.852 680.669C726.682 684.196 726.421 688.483 723.587 691.67C717.608 698.393 705.668 695.443 692.573 686.795C688.753 684.274 687.713 679.142 690.235 675.323C692.219 672.319 695.817 671.114 699.124 671.927C700.738 670.876 702.656 670.304 704.713 670.589Z" fill="#c1ad27" fill-rule="nonzero" opacity="1" stroke="none"/>
<path d="M886.87 271.45C838.181 272.666 778.528 280.849 718.676 305.763C719.77 309.186 718.64 313.009 715.506 315.119C714.445 315.833 713.187 317.163 710.662 320.054C710.479 320.264 710.46 320.232 710.274 320.445C705.334 326.108 703.072 328.314 699.127 330.128C693.737 332.606 689.749 332.506 681.518 331.033C680.787 330.902 680.46 330.865 680.057 330.796C676.723 330.227 674.993 330.17 673.779 330.58C672.333 331.069 670.89 330.987 669.498 330.696C665.944 332.791 662.353 334.588 658.821 336.825C572.652 391.406 555.036 578.755 555.036 578.755C555.036 578.755 809.363 636.878 880.246 523.949C896.223 498.494 910.369 473.05 923.265 448.442C923.289 448.191 923.178 447.963 923.213 447.712C924.515 438.305 926.62 431.724 931.841 418.238C931.937 417.989 931.937 417.998 932.033 417.751C935.893 407.781 937.39 403.06 938.173 397.872C938.159 397.78 938.147 397.759 938.124 397.629C937.949 396.666 937.627 395.37 937.034 393.304C936.937 392.966 936.836 392.642 936.688 392.138C935.17 386.922 934.663 384.962 934.162 381.883C933.114 375.438 933.456 369.64 936.709 363.723C939.741 358.208 944.243 354.465 951.148 350.036C953.276 348.671 955.602 347.294 958.136 345.87C960.634 344.466 963.237 343.051 966.048 341.602C967.093 341.064 971.321 338.912 971.631 338.756C972.758 338.186 973.956 338.093 975.129 337.767C989.383 303.366 997.308 280.646 997.308 280.646C997.308 280.646 951.877 269.828 886.87 271.45ZM849.332 321C852.54 320.986 855.744 322.173 858.203 324.61C863.121 329.485 863.155 337.451 858.281 342.369C858.52 342.128 852.954 348.3 850.383 349.799C848.1 351.131 846.393 351.546 843.727 351.921C843.463 351.958 842.22 352.167 841.831 352.221C841.015 352.335 840.193 352.42 839.302 352.573C832.477 353.741 826.024 349.146 824.855 342.322C823.687 335.497 828.281 329.043 835.106 327.875C836.09 327.706 836.98 327.602 837.878 327.473C837.906 327.442 837.956 327.347 837.975 327.327C838.744 326.493 839.532 325.609 840.444 324.689C842.881 322.23 846.124 321.014 849.332 321ZM836.066 446.296C840.705 445.629 845.401 446.687 849.9 450.03C857.104 455.383 858.271 463.823 854.762 471.271C852.909 475.203 849.887 478.833 845.763 482.695C843.481 484.832 840.885 487.033 837.958 489.298C833.666 492.619 824.365 499.138 824.669 498.893C822.778 500.42 820.553 501.078 818.306 501.354C818.29 501.356 818.273 501.352 818.258 501.354C814.424 504.357 809.03 504.979 804.493 502.485C798.426 499.149 796.217 491.546 799.553 485.478C799.698 485.213 802.373 480.312 803.125 478.991C805.194 475.356 807.266 471.934 809.453 468.648C813.83 462.073 818.157 456.755 822.666 452.923C826.875 449.345 831.427 446.963 836.066 446.296ZM787.164 500.518C788.236 500.429 789.387 500.536 790.474 500.893C794.222 502.124 796.319 505.761 795.961 509.529C796.278 512.536 795.334 515.714 793.13 518.494C790.287 522.08 785.045 522.702 781.459 519.859C779.924 518.642 779.071 516.972 778.665 515.2C777.143 513.417 776.292 511.043 776.737 508.3C777.511 503.527 781.192 501.183 784.976 500.819C785.251 500.793 785.526 500.869 785.803 500.864C786.259 500.746 786.689 500.557 787.164 500.518Z" fill="#d4b953" fill-rule="nonzero" opacity="1" stroke="none"/>
<path d="M538.258 575.669C538.258 575.669 541.02 614.273 507.991 663.138C503.563 661.451 500.412 660.522 497.665 660.75C493.93 661.062 490.819 663.095 489.078 666.335C488.128 668.103 487.759 669.698 487.353 672.278C487.279 672.748 487.049 674.393 487.022 674.567C486.884 675.478 486.737 676.197 486.595 676.953C486.232 678.881 485.79 680.735 485.16 682.651C484.278 685.339 484.963 688.049 486.556 690.138C462.003 717.278 427.27 744.009 374.7 734.663C317.972 724.578 273.8 736.908 273.8 736.908C273.8 736.908 277.152 702.291 292.467 666.958C293.604 666.673 294.699 666.172 295.672 665.387C296.867 664.421 302.162 660.353 302.799 659.857C305.483 657.77 307.11 656.371 308.616 654.82C314.544 648.714 315.684 642.255 314.055 630.323C326.714 614.445 343.116 601.356 364.648 595.604C444.243 574.341 538.258 575.669 538.258 575.669ZM389.399 669.693C383.124 670.618 377.982 672.284 374.387 674.625C372.193 676.053 370.445 677.794 369.35 679.95C367.551 683.493 367.85 687.778 370.712 690.94C376.75 697.61 388.664 694.555 401.683 685.793C405.48 683.237 406.474 678.097 403.919 674.3C401.909 671.314 398.3 670.14 395 670.982C393.378 669.946 391.454 669.391 389.399 669.693Z" fill="#c1ad27" fill-rule="nonzero" opacity="1" stroke="none"/>
<path d="M203.734 272.176C252.431 272.962 312.153 280.619 372.223 305.005C371.159 308.437 372.322 312.25 375.476 314.332C376.543 315.037 377.813 316.356 380.363 319.225C380.548 319.433 380.566 319.401 380.754 319.612C385.743 325.232 388.025 327.417 391.986 329.197C397.398 331.628 401.385 331.492 409.603 329.946C410.332 329.809 410.658 329.769 411.061 329.696C414.39 329.099 416.119 329.026 417.336 329.426C418.787 329.902 420.23 329.807 421.618 329.504C425.191 331.567 428.798 333.333 432.349 335.539C518.996 389.358 538.262 576.545 538.262 576.545C538.262 576.545 284.457 636.906 212.582 524.606C196.381 499.292 182.012 473.974 168.899 449.481C168.873 449.23 168.981 449.002 168.945 448.751C167.56 439.356 165.397 432.793 160.058 419.354C159.959 419.106 159.959 419.115 159.861 418.868C155.913 408.933 154.375 404.226 153.546 399.045C153.559 398.952 153.571 398.931 153.593 398.801C153.76 397.836 154.07 396.538 154.645 394.466C154.738 394.128 154.837 393.803 154.98 393.297C156.453 388.068 156.942 386.104 157.416 383.02C158.407 376.567 158.015 370.772 154.709 364.884C151.628 359.396 147.094 355.693 140.15 351.325C138.01 349.979 135.672 348.622 133.126 347.22C130.616 345.838 128 344.447 125.176 343.022C124.127 342.493 119.88 340.379 119.569 340.225C118.437 339.665 117.238 339.583 116.062 339.267C101.506 304.993 93.3805 282.344 93.3809 282.344C93.3809 282.344 138.715 271.126 203.734 272.176ZM241.706 321.393C238.498 321.407 235.305 322.622 232.868 325.081C227.993 329.998 228.028 337.965 232.946 342.839C232.705 342.601 238.325 348.724 240.909 350.2C243.204 351.511 244.914 351.912 247.584 352.263C247.848 352.297 249.093 352.495 249.482 352.546C250.299 352.653 251.122 352.731 252.014 352.876C258.849 353.984 265.262 349.332 266.37 342.498C267.479 335.663 262.827 329.25 255.992 328.142C255.007 327.982 254.116 327.886 253.217 327.764C253.189 327.734 253.138 327.639 253.119 327.619C252.342 326.792 251.546 325.915 250.626 325.003C248.167 322.565 244.914 321.379 241.706 321.393ZM256.076 446.567C251.431 445.94 246.745 447.04 242.275 450.422C235.118 455.839 234.026 464.288 237.6 471.705C239.488 475.621 242.542 479.224 246.7 483.05C249.001 485.167 251.615 487.345 254.562 489.584C258.883 492.867 268.242 499.304 267.936 499.061C269.84 500.571 272.071 501.21 274.32 501.466C274.336 501.468 274.353 501.464 274.369 501.466C278.229 504.434 283.628 505.01 288.142 502.475C294.18 499.086 296.321 491.463 292.933 485.425C292.785 485.162 290.067 480.285 289.304 478.97C287.202 475.353 285.101 471.95 282.885 468.684C278.45 462.147 274.076 456.868 269.533 453.076C265.293 449.535 260.721 447.193 256.076 446.567ZM305.454 500.356C304.38 500.276 303.231 500.393 302.147 500.76C298.41 502.024 296.346 505.679 296.736 509.444C296.445 512.453 297.418 515.623 299.646 518.384C302.521 521.945 307.768 522.52 311.329 519.646C312.853 518.415 313.692 516.738 314.082 514.963C315.588 513.166 316.417 510.785 315.949 508.046C315.133 503.28 311.432 500.969 307.645 500.638C307.369 500.614 307.095 500.692 306.818 500.69C306.361 500.576 305.929 500.391 305.454 500.356Z" fill="#d4b953" fill-rule="nonzero" opacity="1" stroke="none"/>
</g>
<path d="M559.692 578.919C559.692 578.919 602.532 547.903 649.996 509.875C697.461 471.846 747.94 446.569 747.94 446.569" fill="none" opacity="1" stroke="#9a8b1f" stroke-linecap="round" stroke-linejoin="round" stroke-width="6.07308"/>
<path d="M559.324 581.235C559.324 581.235 571.14 597.351 582.67 607.221C594.201 617.092 605.447 620.716 605.447 620.716" fill="none" opacity="1" stroke="#9a8b1f" stroke-linecap="round" stroke-linejoin="round" stroke-width="6.07308"/>
<path d="M532.148 577.508C532.148 577.508 489.037 546.872 441.239 509.263C393.441 471.654 342.741 446.823 342.741 446.823" fill="none" opacity="1" stroke="#9a8b1f" stroke-linecap="round" stroke-linejoin="round" stroke-width="6.07308"/>
<path d="M532.536 579.821C532.536 579.821 520.863 596.041 509.42 606.012C497.977 615.984 486.763 619.707 486.763 619.707" fill="none" opacity="1" stroke="#9a8b1f" stroke-linecap="round" stroke-linejoin="round" stroke-width="6.07308"/>
</g>
<path d="M565.587 676.834L582.524 665.242C607.641 648.051 635.312 668.461 655.074 703.96L693.645 766.975C713.407 802.474 728.456 820.285 703.339 837.477L653.55 874.249C628.433 891.441 613.736 862.641 593.974 827.143L563.659 761.239C543.896 725.741 540.47 694.026 565.587 676.834Z" fill="#e2f1fa" fill-rule="nonzero" opacity="0" stroke="#ffffff" stroke-linecap="round" stroke-linejoin="round" stroke-width="9.1875" vectornator:layerName="Curve 13"/>
<path d="M484.018 663.795L501.927 673.518C528.487 687.938 526.882 724.279 509.325 761.11L479.752 834.69C458.112 881.172 456.282 889.82 429.723 875.4L374.961 848.218C348.402 833.798 361.164 812.604 378.721 775.773L416.809 705.879C434.366 669.048 457.459 649.375 484.018 663.795Z" fill="#e2f1fa" fill-rule="nonzero" opacity="0" stroke="#ffffff" stroke-linecap="round" stroke-linejoin="round" stroke-width="9.1875" vectornator:layerName="Curve 14"/>
<path d="M476.274 798.922L458.587 800.076C430.097 801.935 405.657 782.822 403.997 757.386L403.997 757.386C402.338 731.951 424.088 709.825 452.578 707.966L470.265 706.812C498.754 704.954 523.195 724.067 524.854 749.502L524.854 749.502C526.514 774.938 504.763 797.064 476.274 798.922Z" fill="#e2f1fa" fill-rule="nonzero" opacity="1" stroke="#ffffff" stroke-linecap="round" stroke-linejoin="round" stroke-width="9.1875" vectornator:layerName="Rectangle 4"/>
<path d="M617.709 785.951L600.023 787.105C571.533 788.964 547.093 769.851 545.433 744.415L545.433 744.415C543.774 718.98 565.524 696.853 594.014 694.995L611.7 693.841C640.19 691.982 664.631 711.095 666.29 736.531L666.29 736.531C667.949 761.966 646.199 784.093 617.709 785.951Z" fill="#e2f1fa" fill-rule="nonzero" opacity="1" stroke="#ffffff" stroke-linecap="round" stroke-linejoin="round" stroke-width="9.1875" vectornator:layerName="Rectangle 2"/>
<g opacity="0" vectornator:layerName="Group 1">
<path d="M367.748 811.907C367.748 811.907 396.984 805.188 424.154 817.609C446.337 827.75 467.964 854.857 467.964 854.857C482.25 860.518 487.296 866.659 483.604 875.531L464.809 899.418C461.117 908.29 434.558 902.857 434.558 902.857L367.553 873.691C353.267 868.03 332.394 857.56 336.086 848.687L341.143 819.078C344.835 810.205 348.271 802.266 367.748 811.907Z" fill="#a2662a" fill-rule="nonzero" opacity="1" stroke="none"/>
<path d="M484.28 874.37C484.28 874.37 444.568 884.683 403.93 867.711C361.987 850.195 342.256 815.052 342.256 815.052C342.256 815.052 332.246 847.834 334.001 855.415C335.757 862.995 346.36 867.514 346.36 867.514C346.36 867.514 377.496 879.697 384.082 882.074L431.789 902.479C438.376 904.856 444.363 908.55 452.307 909.073C460.251 909.597 463.566 904.573 463.566 904.573L484.28 874.37Z" fill="#7c4a25" fill-rule="nonzero" opacity="1" stroke="none"/>
</g>
<g opacity="0" vectornator:layerName="Group 2">
<path d="M704.346 794.8C704.346 794.8 674.348 794.793 650.646 812.979C631.295 827.827 616.282 859.086 616.282 859.086C603.626 867.801 600.081 874.914 605.665 882.736L629.328 901.811C634.912 909.632 659.582 898.393 659.582 898.393L718.361 854.974C731.018 846.26 749.019 831.384 743.435 823.562L731.881 795.836C726.297 788.014 721.172 781.045 704.346 794.8Z" fill="#a2662a" fill-rule="nonzero" opacity="1" stroke="none"/>
<path d="M604.746 881.755C604.746 881.755 645.759 882.92 681.569 857.285C718.529 830.828 729.896 792.161 729.896 792.161C729.896 792.161 746.987 821.872 746.973 829.653C746.958 837.434 737.635 844.211 737.635 844.211C737.635 844.211 710.015 863.052 704.127 866.842L662.196 897.406C656.308 901.196 651.299 906.136 643.674 908.424C636.048 910.712 631.693 906.557 631.693 906.557L604.746 881.755Z" fill="#7c4a25" fill-rule="nonzero" opacity="1" stroke="none"/>
</g>
<g opacity="1" vectornator:layerName="Group 3">
<path d="M500.415 574.082L559.939 574.082C614.496 574.082 658.723 615.055 658.723 665.598L658.723 665.598C658.723 716.141 614.496 757.114 559.939 757.114L500.415 757.114C445.858 757.114 401.631 716.141 401.631 665.598L401.631 665.598C401.631 615.055 445.858 574.082 500.415 574.082Z" fill="#7c4a25" fill-rule="nonzero" opacity="1" stroke="none"/>
<g opacity="1">
<g opacity="1">
<path d="M602.933 731.769C595.293 706.332 592.152 690.304 620.353 682.36C648.554 674.415 652.66 692.086 660.3 717.523C667.94 742.96 646.876 772.649 646.876 772.649C646.876 772.649 610.573 757.206 602.933 731.769Z" fill="#3f835a" fill-rule="nonzero" opacity="1" stroke="none"/>
<path d="M618.114 700.532L616.228 705.787C616.228 705.787 616.682 709.145 617.254 710.909C617.827 712.672 618.358 715.938 619.988 719.179C621.617 722.419 624.188 725.155 625.095 726.33C629.363 731.857 633.84 734.314 637.385 740.356C638.821 742.804 640.084 745.352 641.32 747.907C642.503 750.352 642.894 753.837 644.617 755.99C644.914 756.362 644.152 755.157 643.979 754.714C643.555 753.628 643.178 752.523 642.809 751.417C642.325 749.965 642.125 748.433 641.745 746.95C640.805 743.285 640.205 739.573 638.874 735.996C637.533 732.393 635.405 729.337 633.769 725.892C632.471 723.159 631.827 720.147 630.365 717.49C629.613 716.121 628.529 713.043 628.255 711.402C627.711 708.134 628.042 702.3 628.042 702.3L618.86 696.932L618.114 700.532Z" fill="#7ca76a" fill-rule="nonzero" opacity="1" stroke="none"/>
</g>
<g opacity="1">
<path d="M405.977 723.132C409.654 700.042 395.368 671.272 425.228 670.982C429.206 670.943 445.407 675.806 451.04 676.694C498.958 684.254 468.474 707.002 464.308 733.168C460.141 759.334 428.043 777.866 428.043 777.866C428.043 777.866 401.811 749.298 405.977 723.132Z" fill="#3f835a" fill-rule="nonzero" opacity="1" stroke="none"/>
<path d="M440.043 693.417L437.751 695.478C437.751 695.478 433.308 707.598 432.594 714.209C431.003 728.925 433.324 744.694 428.617 758.814C428.577 758.936 428.741 758.587 428.79 758.468C429.317 757.204 429.98 755.984 430.346 754.664C431.215 751.539 431.453 748.252 432.421 745.156C435.229 736.169 439.737 727.77 442.794 718.877C445.33 711.498 446.572 706.242 446.92 698.581C447.056 695.593 447.042 694.944 447.042 694.944L445.156 689.125L443.01 691.032L440.043 693.417Z" fill="#7ca76a" fill-rule="nonzero" opacity="1" stroke="none"/>
</g>
<g opacity="1">
<path d="M502.899 736.738C502.342 713.973 481.086 695.42 508.276 689.314C512.691 688.323 525.399 691.691 532.222 691.138C541.755 690.364 560.82 691.409 566.086 692.173C591.527 695.859 561.626 714.982 562.162 736.906C562.81 763.367 534.566 786.962 534.566 786.962C534.566 786.962 503.546 763.199 502.899 736.738Z" fill="#3f835a" fill-rule="nonzero" opacity="1" stroke="none"/>
<path d="M525.555 706.873C525.555 706.873 524.983 710.144 524.705 712.055C524.178 715.682 523.708 719.875 524.219 723.559C525.684 734.106 531.819 743.788 534.427 754.021C535.041 756.429 535.383 759.572 535.723 762.123C535.766 762.444 535.403 765.746 535.403 765.746C535.403 765.746 536.021 762.687 536.048 762.447C536.185 761.211 536.255 759.963 536.21 758.72C536.147 756.985 535.857 755.266 535.723 753.535C535.569 751.53 535.266 747.464 535.399 745.109C535.787 738.264 537.074 730.724 536.534 723.883C536.213 719.819 536.065 717.603 535.177 713.668C534.481 710.585 535.756 706.472 535.756 706.472L530.734 700.021L525.555 706.873Z" fill="#7ca76a" fill-rule="nonzero" opacity="1" stroke="none"/>
</g>
<g opacity="1">
<path d="M551.574 735.369C550.269 715.332 517.627 693.296 530.704 691.449C542.567 689.773 572.419 686.677 575.995 686.554C577.952 686.487 591.144 686.028 601.058 684.169C611.947 682.127 619.979 682.46 619.979 682.46C619.979 682.46 609.557 714.243 610.799 733.333C612.519 759.75 585.254 784.378 585.254 784.378C585.254 784.378 553.293 761.786 551.574 735.369Z" fill="#b6d57e" fill-rule="nonzero" opacity="1" stroke="none"/>
<path d="M564.319 687.619C564.319 687.619 565.178 690.395 565.812 691.894C567.765 696.511 565.587 702.292 569.021 714.883C572.455 727.473 577.301 729.678 579.547 742.257C580.494 747.557 579.084 755.637 581.55 760.57C581.721 760.912 581.561 756.905 581.582 756.524C581.752 753.375 582.205 753.135 582.123 749.983C582.013 745.77 584.102 739.288 583.656 735.098C582.452 723.786 580.066 723.311 578.703 711.958C578.555 710.719 579.394 696.754 579.407 696.578C579.641 693.313 578.661 686.346 578.661 686.346C578.661 686.346 575.088 686.426 571.502 686.745C567.917 687.063 564.319 687.619 564.319 687.619Z" fill="#6b8d59" fill-rule="nonzero" opacity="1" stroke="none"/>
</g>
<g opacity="1">
<path d="M646.658 719.447C637.306 701.115 593.224 689.767 613.529 683.821C625.425 680.337 639.318 671.62 653.406 666.284C667.184 661.066 688.443 672.103 700.575 695.885C712.707 719.667 697.34 752.406 697.34 752.406C697.34 752.406 658.79 743.229 646.658 719.447Z" fill="#b6d57e" fill-rule="nonzero" opacity="1" stroke="none"/>
<path d="M634.44 674.913C634.44 674.913 637.849 677.513 639.041 677.99C643.162 679.638 646.821 679.052 650.799 681.021C659.727 685.44 661.992 685.503 669.789 692.236C677.587 698.969 679.314 702.441 681.989 707.953C683.209 710.465 685.53 717.858 685.887 720.628C685.942 721.051 689.102 730.074 689.102 730.074C689.102 730.074 686.592 710.684 686.333 709.863C685.324 706.669 685.245 702.726 683.992 699.62C681.097 692.445 677.448 685.807 671.958 680.919C666.467 676.031 647.733 668.542 647.733 668.542C647.733 668.542 644.257 669.988 640.934 671.581C637.611 673.173 634.44 674.913 634.44 674.913Z" fill="#6b8d59" fill-rule="nonzero" opacity="1" stroke="none"/>
</g>
<g opacity="1">
<path d="M452.595 731.115C453.516 708.42 441.129 676.262 439.495 675.244C434.081 671.872 453.65 676.346 469.819 679.388C478.162 680.958 510.104 686.717 512.647 687.105C523.905 688.826 524.029 691.117 534.037 691.045C542.552 690.983 512.472 716.606 511.733 734.816C510.659 761.265 480.937 783.131 480.937 783.131C480.937 783.131 451.521 757.564 452.595 731.115Z" fill="#b6d57e" fill-rule="nonzero" opacity="1" stroke="none"/>
<path d="M484.916 681.826C484.916 681.826 479.576 685.259 476.252 690.596C473.489 695.033 474.713 699.523 474.713 699.523C474.713 699.523 476.519 706.051 476.766 713.481C477.013 720.911 473.571 725.118 473.113 733.349C472.654 741.581 474.322 744.375 474.932 746.408C475.782 749.241 480.485 758.836 480.485 758.836C480.485 758.836 478.677 750.885 478.686 750.595C478.773 747.984 478.334 746.525 478.369 743.913C478.479 735.793 484.521 726.718 486.444 714.769C488.366 702.82 484.391 704.437 488.917 696.655C493.296 689.126 496.189 684.207 496.189 684.207L484.916 681.826Z" fill="#6b8d59" fill-rule="nonzero" opacity="1" stroke="none"/>
</g>
<g opacity="1">
<path d="M361.79 698.425C370.345 673.257 393.959 662.525 405.248 664.725C425.183 668.61 445.408 673.141 449.924 678.809C456.135 686.605 422.892 701.961 417.639 717.415C409.083 742.583 374.266 755.867 374.266 755.867C374.266 755.867 353.235 723.593 361.79 698.425Z" fill="#b6d57e" fill-rule="nonzero" opacity="1" stroke="none"/>
<path d="M414.969 666.615C411.908 665.292 401.436 670.461 398.725 671.961C394.682 674.198 393.031 674.615 390.708 676.568C387.328 679.409 386.644 681.812 385.618 684.023C384.592 686.234 384.874 688.372 383.989 691.027C381.358 698.92 382.257 709.008 381.705 717.296C381.475 720.748 382.239 727.362 380.563 730.715C380.435 730.971 381.608 729.14 381.678 728.863C381.992 727.607 381.975 727.911 382.275 726.651C382.928 723.91 383.029 720.658 383.418 717.867C384.561 709.678 385.9 702.773 389.129 695.024C392.152 687.769 396.085 684.212 402.241 680.749C407.348 677.877 412.007 675.412 416.621 672.968C417.871 672.306 424.873 669.896 425.321 668.999C425.347 668.947 419.983 667.691 419.983 667.691C419.983 667.691 415.119 666.679 414.969 666.615Z" fill="#6b8d59" fill-rule="nonzero" opacity="1" stroke="none"/>
</g>
</g>
</g>
<g opacity="1" vectornator:layerName="Group 7">
<path d="M670.227 799.843C654.61 803.293 647.77 780.895 629.855 772.722C613.587 765.3 588.277 771.7 582.856 757.307C578.453 745.616 581.208 738.022 591.312 718.568C601.417 699.114 614.424 686.619 614.424 686.619C614.424 686.619 633.19 663.296 652.828 652.672C672.466 642.049 693.973 652.432 701.116 676.797C705.899 693.112 704.706 700.969 705.211 725.719C705.584 744.011 702.258 751.519 697.631 766.396C693.003 781.273 679.019 797.9 670.227 799.843Z" fill="#a2662a" fill-rule="nonzero" opacity="1" stroke="none"/>
<path d="M659.681 786.341C676.32 793.926 679.623 770.039 685.241 757.715C687.957 751.757 690.511 739.312 691.917 725.363C689.167 724.159 686.704 723.131 681.594 721.295C681.437 721.237 681.442 721.238 681.285 721.182C677.26 719.736 674.345 718.671 671.897 717.679C669.448 716.687 667.453 715.763 665.259 714.653C659.773 711.876 645.776 703.895 645.692 703.847C636.46 698.526 631.19 695.678 626.082 693.132C621.049 699.479 617.035 705.054 614.962 707.73C608.703 715.808 602.187 728.148 602.187 728.148C602.186 728.148 584.504 750.295 601.143 757.88C601.143 757.88 620.133 756.111 634.769 763.223C649.405 770.334 659.681 786.341 659.681 786.341ZM669.025 707.244C673.007 709.258 676.37 710.589 684.099 713.366C684.256 713.423 684.25 713.422 684.408 713.479C688.387 714.91 690.233 715.746 692.589 716.709C693.354 704.268 693.138 691.451 691.148 681.35C686.391 657.204 664.498 660.159 664.498 660.159C653.17 663.425 641.13 675.277 631.516 686.566C636.31 689.017 641.462 691.812 649.838 696.638C649.922 696.687 649.927 696.696 650.011 696.745C659.497 702.212 663.718 704.557 669.025 707.244Z" fill="#7c4a25" fill-rule="nonzero" opacity="1" stroke="none" vectornator:layerName="Curve 15"/>
</g>
<g opacity="1" vectornator:layerName="Group 10">
<path d="M482.93 758.921C474.979 772.798 453.804 762.796 435.707 770.556C419.272 777.603 406.985 800.637 392.688 794.968C381.074 790.363 377.309 783.217 369.708 762.655C362.108 742.093 361.609 724.063 361.609 724.063C361.609 724.063 356.972 694.49 362.318 672.812C367.665 651.134 389.814 642.202 412.648 653.303C427.939 660.738 432.951 666.905 451.606 683.177C465.394 695.204 468.713 702.715 476.61 716.146C484.507 729.576 487.406 751.108 482.93 758.921Z" fill="#a2662a" fill-rule="nonzero" opacity="1" stroke="none"/>
<path d="M465.845 757.644C482.649 750.432 467.194 731.922 461.852 719.475C459.27 713.459 451.778 703.199 442.401 692.776C439.661 694.001 437.244 695.133 432.448 697.679C432.299 697.757 432.304 697.753 432.156 697.831C428.379 699.837 425.631 701.278 423.25 702.423C420.869 703.568 418.844 704.423 416.546 705.3C410.801 707.492 395.481 712.482 395.388 712.512C385.241 715.765 379.59 717.749 374.27 719.817C375.582 727.81 377.008 734.531 377.594 737.865C379.362 747.93 384.111 761.051 384.111 761.051C384.111 761.052 388.608 789.032 405.412 781.821C405.412 781.821 416.874 766.578 431.981 760.53C447.088 754.482 465.845 757.644 465.845 757.644ZM413.596 697.529C417.765 695.938 421.012 694.344 428.265 690.492C428.413 690.415 428.408 690.418 428.556 690.34C432.292 688.357 434.152 687.554 436.449 686.458C427.758 677.524 418.127 669.063 409.314 663.743C388.245 651.022 375.707 669.211 375.707 669.211C370.506 679.791 371.178 696.672 373.067 711.379C378.104 709.48 383.638 707.547 392.843 704.595C392.935 704.566 392.945 704.569 393.038 704.539C403.464 701.196 408.038 699.65 413.596 697.529Z" fill="#7c4a25" fill-rule="nonzero" opacity="1" stroke="none" vectornator:layerName="Curve 15"/>
</g>
<g opacity="1" vectornator:layerName="Group 4">
<use fill="#e2f1fa" fill-rule="nonzero" opacity="1" stroke="#ffffff" stroke-linecap="round" stroke-linejoin="round" stroke-width="9.1875" xlink:href="#Fill_5"/>
<clipPath clip-rule="nonzero" id="ClipPath_5">
<use xlink:href="#Fill_5"/>
</clipPath>
<g clip-path="url(#ClipPath_5)">
<path d="M706.537 591.913C719.432 596.077 759.843 559.086 766.454 548.561C774.587 535.612 776.326 531.574 776.239 516.132C776.219 512.478 772.512 497.636 772.512 497.636C772.512 497.636 781.94 500.836 789.686 499.658C814.022 495.959 824.562 472.409 813.015 451.515C808.617 443.558 797.282 437.969 788.614 436.118C784.626 435.267 776.45 434.775 776.45 434.775C776.45 434.775 777.354 434.167 777.876 434.061C783.357 432.946 791.428 426.028 795.362 421.496C801.587 414.326 806.463 405.981 799.563 388.777C787.332 358.283 748.22 374.212 748.22 374.212C748.22 374.212 750.994 371.625 751.772 369.955C752.845 367.652 754.05 365.356 754.593 362.879C755.456 358.941 755.572 354.879 755.956 350.868C756.746 342.598 752.217 329.652 747.22 323.381C731.855 304.1 702.952 292.392 679.172 303.287C672.987 306.12 662.792 315.382 662.792 315.382C662.792 315.382 666.157 307.317 666.479 306.431C668.352 301.279 668.628 300.499 669.6 296.107C673.696 277.601 670.465 270.522 664.121 261.001C659.336 253.822 642.365 248.273 634.866 250.5C610.777 257.651 601.284 287.63 601.284 287.63C601.284 287.63 601.597 277.543 601.504 272.724C601.411 267.904 602.039 262.278 601.722 255.649C601.406 249.02 601.726 242.706 598.541 234.648C591.675 217.28 569.502 207.198 549.889 201.857C524.789 195.021 507.408 198.177 498.888 199.294C466.495 203.54 440.156 232.48 435.143 266.807C432.615 284.116 443.888 301.078 443.888 301.078C443.888 301.078 436.844 297.522 433.134 296.196C427.251 294.094 415.04 289.653 408.875 288.598C391.773 285.671 363.555 284.552 340.775 310.652C306.522 349.898 333.605 400.547 333.605 400.547L321.256 405.539C321.256 405.539 309.863 410.806 305.082 416.787C300.301 422.768 295.476 425.821 294.439 444.907C293.858 455.601 302.484 471.629 309.728 478.348C312.577 480.99 319.064 485.356 319.064 485.356C319.064 485.356 315.372 487.863 314.082 489.62C312.451 491.843 309.986 494.879 309.327 497.545C308.308 501.667 307.418 509.061 309.14 517.788C312.279 533.689 315.913 537.913 325.864 550.275C335.876 562.713 353.135 574.975 367.522 582.52C369.753 583.69 381.842 585.78 381.859 588.794C381.864 589.582 371.78 588.145 364.693 588.185C353.619 588.247 354.511 590.641 341.811 588.313C307.625 582.049 282.157 562.73 260.708 535.814C250.672 523.22 241.345 509.481 236.161 494.294C230.477 477.641 231.05 459.51 228.717 442.087C226.185 423.177 234.584 404.378 237.696 385.552C245.107 340.721 247.755 314.289 263.508 270.318C269.342 254.034 272.307 236.427 281.111 221.501C291.942 203.141 304.962 185.331 321.594 171.849C338.405 158.223 359.36 150.335 379.349 141.87C402.281 132.159 426.337 125.259 450.008 117.467C451.831 116.867 453.81 116.891 455.725 116.729C480.735 114.621 505.686 109.97 530.777 110.659C555.814 111.346 581.648 112.437 605.206 120.832C631.395 130.165 651.926 150.825 676.245 164.209C700.289 177.441 725.156 189.247 748.691 203.342C775.426 219.352 802.978 234.593 826.925 254.445C850.946 274.358 872.199 297.58 891.664 321.863C904.323 337.657 916.834 354.648 922.706 373.938C927.646 390.165 925.412 407.997 922.991 424.773C920.769 440.174 914.101 454.635 908.939 469.334C902.834 486.72 898.969 505.311 889.206 520.987C882.922 531.078 871.2 536.646 862.164 544.439C852.233 553.004 843.183 562.712 832.273 570.025C801.466 590.677 779.747 588.513 744.452 594.525C738.797 595.488 730.144 592.529 723.699 591.817C720.114 591.421 712.964 590.465 712.964 590.465C712.964 590.465 722.178 590.886 726.547 589.683C738.199 586.475 736.658 586.486 742.204 576.18" fill="#ffffff" fill-rule="nonzero" opacity="1" stroke="#ffffff" stroke-linecap="round" stroke-linejoin="round" stroke-width="9.1875" vectornator:layerName="Curve"/>
</g>
</g>
<g opacity="0" vectornator:layerName="Group 12">
<g opacity="1" vectornator:layerName="Group 11">
<path d="M544.089 584.746L544.089 618.79" fill="none" opacity="1" stroke="#41551b" stroke-linecap="butt" stroke-linejoin="round" stroke-width="5.13018" vectornator:layerName="Line 1"/>
<path d="M553.626 542.898C566.369 528.081 604.634 530.644 604.634 530.644C604.634 530.644 598.781 555.75 586.039 570.566C573.297 585.383 542.465 587.371 542.465 587.371C542.465 587.371 540.884 557.715 553.626 542.898Z" fill="#41551b" fill-rule="nonzero" opacity="1" stroke="none" vectornator:layerName="Oval 2"/>
<path d="M525.918 550.499C511.839 539.805 478.287 549.314 478.287 549.314C478.287 549.314 488.146 570.412 502.225 581.106C516.304 591.8 544.089 587.722 544.089 587.722C544.089 587.722 539.996 561.193 525.918 550.499Z" fill="#5c7921" fill-rule="nonzero" opacity="1" stroke="none" vectornator:layerName="Oval 1"/>
</g>
<path d="M496.947 610.893L590.067 610.893L583.27 684.682L504.926 684.512L496.947 610.893Z" fill="#a15924" fill-rule="nonzero" opacity="1" stroke="none" vectornator:layerName="Rectangle 6"/>
<path d="M485.114 598.747L601.633 598.062L597.189 634.37L490.671 634.37L485.114 598.747Z" fill="#87420e" fill-rule="nonzero" opacity="1" stroke="none" vectornator:layerName="Rectangle 5"/>
</g>
<g opacity="0" vectornator:layerName="Group 15">
<path d="M564.245 397.901C564.245 372.157 580.204 351.287 599.892 351.287C619.579 351.287 635.539 372.157 635.539 397.901C635.539 423.645 619.579 444.515 599.892 444.515C580.204 444.515 564.245 423.645 564.245 397.901Z" fill="#ffffff" fill-rule="nonzero" opacity="1" stroke="none" vectornator:layerName="Oval 1"/>
<path d="M448.883 397.901C448.883 372.157 464.842 351.287 484.53 351.287C504.217 351.287 520.177 372.157 520.177 397.901C520.177 423.645 504.217 444.515 484.53 444.515C464.842 444.515 448.883 423.645 448.883 397.901Z" fill="#ffffff" fill-rule="nonzero" opacity="1" stroke="none"/>
<path d="M482.705 353.81L482.705 353.81C487.466 353.81 491.326 356.783 491.326 360.449L491.326 384.591C491.326 388.258 487.466 391.23 482.705 391.23L482.705 391.23C477.944 391.23 474.084 388.258 474.084 384.591L474.084 360.449C474.084 356.783 477.944 353.81 482.705 353.81Z" fill="#000000" fill-rule="nonzero" opacity="1" stroke="none"/>
<path d="M601.038 353.466L601.038 353.466C605.8 353.466 609.659 356.438 609.659 360.105L609.659 384.247C609.659 387.914 605.8 390.886 601.038 390.886L601.038 390.886C596.277 390.886 592.417 387.914 592.417 384.247L592.417 360.105C592.417 356.438 596.277 353.466 601.038 353.466Z" fill="#000000" fill-rule="nonzero" opacity="1" stroke="none" vectornator:layerName="Rectangle"/>
<path d="M649.579 422.827C649.579 413.169 662.986 405.339 679.524 405.339C696.062 405.339 709.469 413.169 709.469 422.827C709.469 432.484 696.062 440.314 679.524 440.314C662.986 440.314 649.579 432.484 649.579 422.827Z" fill="#a3bfcd" fill-rule="nonzero" opacity="1" stroke="none"/>
<path d="M374.033 430.065C374.033 420.407 387.44 412.578 403.978 412.578C420.516 412.578 433.923 420.407 433.923 430.065C433.923 439.723 420.516 447.552 403.978 447.552C387.44 447.552 374.033 439.723 374.033 430.065Z" fill="#a3bfcd" fill-rule="nonzero" opacity="1" stroke="none"/>
<path d="M478.287 324.393C478.287 324.393 483.145 325.625 490.923 327.507C498.701 329.389 502.908 330.406 502.908 330.406" fill="none" opacity="1" stroke="#000000" stroke-linecap="round" stroke-linejoin="round" stroke-width="5.12162"/>
<path d="M581.726 329.861C581.726 329.861 586.275 327.756 593.501 324.317C600.727 320.878 604.634 319.017 604.634 319.017" fill="none" opacity="1" stroke="#000000" stroke-linecap="round" stroke-linejoin="round" stroke-width="5.12801"/>
<path d="M530.427 456.978C530.427 444.687 537.396 434.723 545.993 434.723C554.589 434.723 561.558 444.687 561.558 456.978C561.558 469.27 554.589 479.234 545.993 479.234C537.396 479.234 530.427 469.27 530.427 456.978Z" fill="#000000" fill-rule="nonzero" opacity="1" stroke="none"/>
</g>
<g opacity="0" vectornator:layerName="Group 14">
<path d="M376.097 548.48C376.097 548.48 461.708 540.643 545.344 541.846C628.981 543.048 710.643 553.291 710.643 553.291L685.261 613.334L410.289 577.72L376.097 548.48Z" fill="#e2c59f" fill-rule="nonzero" opacity="1" stroke="none" vectornator:layerName="Rectangle 6"/>
<path d="M376.097 548.48C376.097 548.48 489.325 569.015 574.326 569.015C659.328 569.015 710.704 553.234 710.704 553.234C710.704 553.234 718.275 637.42 718.275 733.702C718.275 829.984 746.973 881.766 732.77 912.159C721.376 936.539 635.64 932.466 539.29 932.466C442.941 932.466 376.097 927.95 357.919 912.985C335.738 894.726 351.651 841.399 363.079 745.798C376.097 636.9 376.097 548.48 376.097 548.48Z" fill="#f1dcbf" fill-rule="nonzero" opacity="1" stroke="none" vectornator:layerName="Rectangle 6"/>
<g opacity="0.472868" vectornator:layerName="Group 15">
<path d="M547.788 659.046C547.788 659.046 511.783 705.15 547.788 711.765C558.881 713.803 575.87 712.404 589.233 728.404C595.857 736.336 599.753 766.345 603.103 775.946C608.351 790.989 624.214 787.23 624.214 787.23" fill="none" opacity="1" stroke="#748265" stroke-linecap="butt" stroke-linejoin="round" stroke-width="9.1875" vectornator:layerName="Line 3"/>
<path d="M448.785 750.261C448.785 699.884 489.624 659.046 540 659.046C590.376 659.046 631.215 699.884 631.215 750.261C631.215 800.637 590.376 841.475 540 841.475C489.624 841.475 448.785 800.637 448.785 750.261Z" fill="none" opacity="1" stroke="#748265" stroke-linecap="butt" stroke-linejoin="round" stroke-width="9.1875" vectornator:layerName="Oval 1"/>
<path d="M448.785 769.204C448.785 769.204 474.529 772.976 502.741 769.204C523.278 766.459 531.523 756.386 547.788 759.806C586.024 767.847 591.91 821.51 591.91 821.51" fill="none" opacity="1" stroke="#748265" stroke-linecap="butt" stroke-linejoin="round" stroke-width="9.1875" vectornator:layerName="Line 4"/>
<path d="M484.769 680.522C484.769 680.522 517.916 705.693 520.348 723.347C522.241 737.093 502.636 750.84 484.769 737.093C470.733 726.294 448.785 750.261 448.785 750.261" fill="none" opacity="1" stroke="#748265" stroke-linecap="butt" stroke-linejoin="round" stroke-width="9.1875" vectornator:layerName="Line 5"/>
</g>
<path d="M472.23 561.863C472.23 561.863 455.73 706.213 554.618 702.197C635.952 698.893 624.501 566.617 624.501 566.617" fill="none" opacity="1" stroke="#d3bda1" stroke-linecap="butt" stroke-linejoin="round" stroke-width="24.9582" vectornator:layerName="Line 3"/>
</g>
<g opacity="0" vectornator:layerName="Group 18">
<path d="M480.514 631.554C480.514 615.669 493.174 602.792 508.792 602.792L571.768 602.792C587.386 602.792 600.047 615.669 600.047 631.554L600.047 631.554C600.047 647.439 587.386 660.316 571.768 660.316L508.792 660.316C493.174 660.316 480.514 647.439 480.514 631.554L480.514 631.554Z" fill="#6ed7e4" fill-rule="nonzero" opacity="0.761538" stroke="none" vectornator:layerName="Rectangle 10"/>
<path d="M524.887 552.89L554.282 552.89C554.282 552.89 548.359 597.144 549.675 613.183C550.049 617.74 532.566 619.378 532.566 613.49C532.566 597.193 524.887 552.89 524.887 552.89Z" fill="#dcc764" fill-rule="nonzero" opacity="1" stroke="none" vectornator:layerName="Rectangle 9"/>
<path d="M497.579 551.611C504.718 536.965 575.257 534 580.377 548.6C595.951 593.012 606.112 627.658 595.985 664.39C590.579 683.997 493.661 687.722 485.575 664.39C473.374 629.186 482.709 582.12 497.579 551.611Z" fill="#b5e7f0" fill-rule="nonzero" opacity="0.744231" stroke="none" vectornator:layerName="Rectangle 6"/>
<path d="M501.858 552.89L524.887 554.577C524.887 554.577 516.042 574.321 513.094 598.85C510.146 623.379 513.094 652.693 513.094 652.693L494.63 648.349C494.63 648.349 492.055 622.068 493.862 598.204C495.669 574.339 501.858 552.89 501.858 552.89Z" fill="#ffffff" fill-rule="nonzero" opacity="0.405769" stroke="none" vectornator:layerName="Rectangle 8"/>
<path d="M480.514 640.253C480.514 640.253 509.327 650.602 539.21 650.566C569.093 650.53 600.047 640.11 600.047 640.11C600.047 640.11 599.213 650.201 598.199 655.588C597.186 660.975 595.581 665.737 595.581 665.737C595.581 665.737 589.863 680.522 536.228 680.522C494.553 680.522 486.283 666.766 486.283 666.766C486.283 666.766 483.788 660.534 482.346 653.906C480.903 647.278 480.514 640.253 480.514 640.253Z" fill="#e5d177" fill-rule="nonzero" opacity="1" stroke="none" vectornator:layerName="Rectangle 7"/>
<path d="M498.831 550.723C502.84 544.575 517.314 540.086 540 539.024C567.249 537.749 579.814 544.129 579.814 548.832C579.814 553.535 561.403 557.348 538.693 557.348C515.982 557.348 496.263 554.663 498.831 550.723Z" fill="#e5d177" fill-rule="nonzero" opacity="1" stroke="none" vectornator:layerName="Oval 1"/>
<path d="M524.888 546.942C524.833 545.623 531.368 544.28 539.485 543.941C547.602 543.602 554.226 544.397 554.281 545.716C554.336 547.034 547.801 548.378 539.684 548.717C531.567 549.055 524.943 548.261 524.888 546.942Z" fill="#af9625" fill-rule="nonzero" opacity="1" stroke="none" vectornator:layerName="Oval 2"/>
<path d="M532.566 665.175C532.566 659.835 537.428 655.505 543.424 655.505C549.421 655.505 554.282 659.835 554.282 665.175C554.282 670.515 549.421 674.844 543.424 674.844C537.428 674.844 532.566 670.515 532.566 665.175Z" fill="#f8e691" fill-rule="nonzero" opacity="1" stroke="none" vectornator:layerName="Oval 3"/>
<path d="M485.152 519.728C485.152 519.728 493.862 516.239 503.243 519.581C513.691 523.303 517.732 533.774 517.732 533.774" fill="none" opacity="0.894231" stroke="#bfbfbf" stroke-linecap="round" stroke-linejoin="round" stroke-width="4.26479" vectornator:layerName="Line 5"/>
<path d="M589.66 519.728C589.66 519.728 580.95 516.239 571.568 519.581C561.12 523.303 557.08 533.774 557.08 533.774" fill="none" opacity="0.894231" stroke="#bfbfbf" stroke-linecap="round" stroke-linejoin="round" stroke-width="4.26479" vectornator:layerName="Line 3"/>
<path d="M539.21 514.233L539.21 530.655" fill="none" opacity="0.894231" stroke="#bfbfbf" stroke-linecap="round" stroke-linejoin="round" stroke-width="4.26479" vectornator:layerName="Line 4"/>
</g>
<g opacity="0" vectornator:layerName="Group 19">
<path d="M538.373 554.983C538.373 554.983 551.661 505.302 572.875 533.623C590.576 557.253 536.84 562.662 536.84 562.662" fill="none" opacity="1" stroke="#e3665f" stroke-linecap="round" stroke-linejoin="round" stroke-width="15.9763" vectornator:layerName="Line 3"/>
<path d="M525.448 560.577C525.448 560.577 476.859 543.729 506.64 524.62C531.489 508.676 532.996 562.662 532.996 562.662" fill="none" opacity="1" stroke="#e3665f" stroke-linecap="round" stroke-linejoin="round" stroke-width="15.9763" vectornator:layerName="Line 4"/>
<path d="M476.859 576.66C476.859 567.778 484.06 560.577 492.942 560.577L581.34 560.577C590.223 560.577 597.423 567.778 597.423 576.66L597.423 655.146C597.423 664.028 590.223 671.229 581.34 671.229L492.942 671.229C484.06 671.229 476.859 664.028 476.859 655.146L476.859 576.66Z" fill="#479cd9" fill-rule="nonzero" opacity="1" stroke="none" vectornator:layerName="Rectangle 7"/>
<path d="M523.139 560.577L550.541 560.577L550.541 671.229L523.139 671.229L523.139 560.577Z" fill="#e3665f" fill-rule="nonzero" opacity="1" stroke="none" vectornator:layerName="Rectangle 9"/>
<path d="M597.534 602.711L597.321 630.112L476.859 629.172L477.073 601.771L597.534 602.711Z" fill="#e3665f" fill-rule="nonzero" opacity="1" stroke="none" vectornator:layerName="Rectangle. 8"/>
</g>
<g opacity="1" vectornator:layerName="Group 20">
<path d="M470.547 511.668C470.547 511.668 503.171 520.828 538.717 520.958C574.264 521.089 607.784 513.526 607.784 513.526L595.934 580.879L467.772 580.879L470.547 511.668Z" fill="#69a9c2" fill-rule="nonzero" opacity="1" stroke="none" vectornator:layerName="Rectangle 9"/>
<path d="M413.054 524.902C457.17 504.289 473.188 511.274 473.188 511.274C473.188 511.274 483.6 556.473 537.595 554.611C591.98 552.735 600.741 513.282 600.741 513.282C600.741 513.282 626.259 508.769 667.631 524.902C690.891 533.972 765.029 580.879 765.029 580.879C765.029 580.879 759.444 595.696 749.637 621.007C741.765 641.323 731.223 657.117 731.223 657.117L663.009 621.007L676.681 834.724C676.681 834.724 607.138 849.024 537.595 849.024C468.052 849.024 398.51 834.724 398.51 834.724L410.413 627.553L355.787 653.314C355.787 653.314 342.233 639.108 327.468 621.007C312.703 602.905 299.953 580.879 299.953 580.879C299.953 580.879 358.576 550.357 413.054 524.902Z" fill="#82c2db" fill-rule="nonzero" opacity="1" stroke="none" vectornator:layerName="Rectangle 7"/>
<path d="M570.613 609.795L621.688 609.795C621.688 609.795 627.585 633.161 621.688 651.178C615.791 669.195 608.311 670.962 595.543 670.962C582.774 670.962 577.484 669.195 570.613 651.178C563.742 633.161 570.613 609.795 570.613 609.795Z" fill="#add6e6" fill-rule="nonzero" opacity="1" stroke="none" vectornator:layerName="Rectangle 8"/>
</g>
<path d="M418.479 572.725L404.445 580.363C381.839 592.668 354.607 586.282 343.621 566.1L343.621 566.1C332.635 545.917 342.056 519.58 364.662 507.275L378.696 499.637C401.302 487.332 428.534 493.718 439.519 513.9L439.519 513.9C450.505 534.083 441.085 560.42 418.479 572.725Z" fill="#e2f1fa" fill-rule="nonzero" opacity="1" stroke="#ffffff" stroke-linecap="round" stroke-linejoin="round" stroke-width="9.1875" vectornator:layerName="Rectangle 6"/>
<path d="M670.831 579.395L657.104 571.218C634.992 558.046 626.6 531.364 638.36 511.622L638.36 511.622C650.12 491.881 677.579 486.555 699.691 499.727L713.418 507.904C735.53 521.077 743.922 547.758 732.162 567.5L732.162 567.5C720.402 587.242 692.943 592.567 670.831 579.395Z" fill="#e2f1fa" fill-rule="nonzero" opacity="1" stroke="#ffffff" stroke-linecap="round" stroke-linejoin="round" stroke-width="9.1875" vectornator:layerName="Rectangle 3"/>
<g opacity="1" vectornator:layerName="Group 5">
<path d="M481.058 429.619L481.058 429.619C485.818 429.619 489.677 432.59 489.677 436.256L489.677 460.392C489.677 464.058 485.818 467.029 481.058 467.029L481.058 467.029C476.298 467.029 472.439 464.058 472.439 460.392L472.439 436.256C472.439 432.59 476.298 429.619 481.058 429.619Z" fill="#000000" fill-rule="nonzero" opacity="1" stroke="none"/>
<path d="M606.072 428.211L606.072 428.211C610.832 428.211 614.691 431.182 614.691 434.848L614.691 458.984C614.691 462.649 610.832 465.621 606.072 465.621L606.072 465.621C601.312 465.621 597.453 462.649 597.453 458.984L597.453 434.848C597.453 431.182 601.312 428.211 606.072 428.211Z" fill="#000000" fill-rule="nonzero" opacity="1" stroke="none" vectornator:layerName="Rectangle"/>
<path d="M533.127 458.14C533.127 458.14 530.224 471.309 545.715 471.129C560.641 470.956 557.598 457.986 557.598 457.986" fill="none" opacity="1" stroke="#000000" stroke-linecap="round" stroke-linejoin="round" stroke-width="5.13018"/>
<path d="M653.144 467.654C653.144 457.999 666.548 450.172 683.082 450.172C699.616 450.172 713.019 457.999 713.019 467.654C713.019 477.31 699.616 485.137 683.082 485.137C666.548 485.137 653.144 477.31 653.144 467.654Z" fill="#a3bfcd" fill-rule="nonzero" opacity="1" stroke="none"/>
<path d="M377.67 474.891C377.67 465.236 391.073 457.408 407.607 457.408C424.141 457.408 437.544 465.236 437.544 474.891C437.544 484.547 424.141 492.374 407.607 492.374C391.073 492.374 377.67 484.547 377.67 474.891Z" fill="#a3bfcd" fill-rule="nonzero" opacity="1" stroke="none"/>
<path d="M466.484 402.266C466.484 402.266 471.492 402.126 479.487 401.814C487.482 401.502 491.805 401.332 491.805 401.332" fill="none" opacity="1" stroke="#000000" stroke-linecap="round" stroke-linejoin="round" stroke-width="5.13018"/>
<path d="M590.124 400.06C590.124 400.06 595.132 399.919 603.127 399.607C611.121 399.296 615.445 399.125 615.445 399.125" fill="none" opacity="1" stroke="#000000" stroke-linecap="round" stroke-linejoin="round" stroke-width="5.13018"/>
</g>
<path d="M588.366 542.164C588.366 542.164 575.937 542.73 564.454 554.431C552.97 566.133 543.772 586.805 543.772 586.805" fill="none" opacity="0" stroke="#617d2a" stroke-linecap="round" stroke-linejoin="round" stroke-width="3" vectornator:layerName="Line 1"/>
<path d="M494.098 555.486C494.098 555.486 504.85 556.758 516.866 563.867C528.882 570.976 543.772 586.805 543.772 586.805" fill="none" opacity="0" stroke="#41551b" stroke-linecap="round" stroke-linejoin="round" stroke-width="3" vectornator:layerName="Line 2"/>
<g opacity="0" vectornator:layerName="Group 17">
<path d="M524.063 444.44C524.063 444.44 525.492 452.907 540.357 452.908C554.68 452.91 556.521 446.409 556.521 446.409" fill="none" opacity="1" stroke="#000000" stroke-linecap="round" stroke-linejoin="round" stroke-width="5.12801"/>
<path d="M643.469 450.781C643.577 441.518 656.525 434.158 672.388 434.344C688.251 434.53 701.023 442.19 700.915 451.454C700.806 460.718 687.859 468.077 671.995 467.892C656.132 467.706 643.36 460.045 643.469 450.781Z" fill="#a3bfcd" fill-rule="nonzero" opacity="1" stroke="none"/>
<path d="M379.085 454.629C379.194 445.365 392.141 438.006 408.005 438.192C423.868 438.378 436.64 446.038 436.531 455.302C436.423 464.566 423.475 471.925 407.612 471.739C391.749 471.553 378.977 463.893 379.085 454.629Z" fill="#a3bfcd" fill-rule="nonzero" opacity="1" stroke="none"/>
<path d="M462.96 387.957C462.96 387.957 467.601 386.701 474.989 384.616C482.377 382.53 486.372 381.401 486.372 381.401" fill="none" opacity="1" stroke="#000000" stroke-linecap="round" stroke-linejoin="round" stroke-width="5.12801"/>
<path d="M583.949 382.775C583.949 382.775 588.674 383.663 596.234 384.998C603.794 386.333 607.882 387.053 607.882 387.053" fill="none" opacity="1" stroke="#000000" stroke-linecap="round" stroke-linejoin="round" stroke-width="5.12801"/>
<path d="M488.75 419.957C488.75 419.957 488.471 426.346 487.071 428.768C486.596 429.591 486.036 430.325 485.275 430.935C483.797 432.12 481.562 432.838 477.719 432.837C473.118 432.836 471.059 430.945 469.235 428.913C466.731 426.122 466.821 420.099 466.821 420.099" fill="none" opacity="1" stroke="#000000" stroke-linecap="round" stroke-linejoin="round" stroke-width="5.12801"/>
<path d="M609.645 417.27C609.645 417.27 609.366 423.659 607.966 426.081C607.491 426.904 606.931 427.637 606.17 428.247C604.692 429.432 602.457 430.151 598.613 430.15C594.013 430.148 591.954 428.258 590.13 426.225C587.626 423.435 587.716 417.412 587.716 417.412" fill="none" opacity="1" stroke="#000000" stroke-linecap="round" stroke-linejoin="round" stroke-width="5.12801"/>
</g>
</g>
<g id="Layer-7" vectornator:layerName="Layer 7" visibility="hidden">
<g opacity="1" vectornator:layerName="Group 21">
<path d="M227.857 853.529C227.857 838.876 236.057 826.998 246.172 826.998L446.111 826.998C456.226 826.998 464.426 838.876 464.426 853.529L464.426 853.529C464.426 868.181 456.226 880.059 446.111 880.059L246.172 880.059C236.057 880.059 227.857 868.181 227.857 853.529L227.857 853.529Z" fill="#dddddd" fill-rule="nonzero" opacity="1" stroke="none" vectornator:layerName="Rectangle 11"/>
<path d="M231.274 829.133C231.274 815.66 244.163 804.737 260.061 804.737L432.222 804.737C448.12 804.737 461.009 815.66 461.009 829.133L461.009 829.133C461.009 842.606 448.12 853.529 432.222 853.529L260.061 853.529C244.163 853.529 231.274 842.606 231.274 829.133L231.274 829.133Z" fill="#ffab57" fill-rule="nonzero" opacity="1" stroke="none" vectornator:layerName="Rectangle 12"/>
<path d="M231.274 797.057C231.274 783.747 240.455 772.956 251.779 772.956L440.504 772.956C451.828 772.956 461.009 783.747 461.009 797.057L461.009 797.057C461.009 810.368 451.828 821.159 440.504 821.159L251.779 821.159C240.455 821.159 231.274 810.368 231.274 797.057L231.274 797.057Z" fill="#c9e7f3" fill-rule="nonzero" opacity="1" stroke="none" vectornator:layerName="Rectangle 13"/>
<path d="M239.001 775.711C239.001 763.413 244.943 753.444 252.272 753.444L440.011 753.444C447.34 753.444 453.282 763.413 453.282 775.711L453.282 775.711C453.282 788.008 447.34 797.977 440.011 797.977L252.272 797.977C244.943 797.977 239.001 788.008 239.001 775.711L239.001 775.711Z" fill="#8baf5a" fill-rule="nonzero" opacity="1" stroke="none" vectornator:layerName="Rectangle 14"/>
</g>
</g>
<g id="Layer-8" vectornator:layerName="Layer 8">
<g opacity="0" vectornator:layerName="Group 26">
<g opacity="1" vectornator:layerName="Group 5">
<path d="M190.968 576.502C162.922 541.092 160.627 522.325 174.216 514.396C220.609 487.326 195.672 544.906 237.248 565.178C316.082 603.616 363.978 563.168 378.751 560.447C387.568 558.823 399.708 494.597 446.997 453.951C488.632 418.165 482.42 424.608 482.42 424.608C482.42 424.608 486.609 424.53 426.298 418.009C389.343 414.013 356.903 395.448 340.372 383.635C331.022 376.953 296.189 354.497 343.262 292.839C363.677 266.099 374.528 213.211 409.122 262.518C461.682 337.433 364.639 290.507 363.349 327.601C362.854 341.836 429.551 364.764 486.385 361.066C519.712 358.897 530.189 379.925 558.734 383.393C703.639 400.997 881.435 415.888 894.68 479.96C917.929 592.427 861.69 639.654 709.346 798.503C667.612 842.02 519.522 853.676 474.995 750.221C440.597 670.301 353.641 673.556 265.567 636.834C233.979 623.663 219.878 613.004 190.968 576.502Z" fill="#c36969" fill-rule="nonzero" opacity="1" stroke="none" vectornator:layerName="Rectangle 8"/>
<path d="M195.512 530.256C134.181 520.012 217.651 488.145 228.286 476.961C260.567 443.013 362.773 575.306 392.875 569.762C401.692 568.138 454.879 541.523 491.293 491.947C529.854 439.448 557.006 410.781 555.132 405.034C551.401 393.595 489.782 347.861 434.36 326.516C388.899 309.008 368.775 321.211 380.33 307.215C401.792 281.219 357.584 218.273 411.781 248.252C665.314 388.496 884.434 371.381 908.804 489.274C932.053 601.742 875.814 648.968 723.47 807.818C681.736 851.334 533.646 862.99 489.119 759.536C451.319 671.711 353.465 595.263 262.93 546.323C241.529 534.755 216.94 533.835 195.512 530.256Z" fill="#e27373" fill-rule="nonzero" opacity="1" stroke="none" vectornator:layerName="Rectangle 9"/>
</g>
<path d="M491.211 647.288" fill="none" opacity="1" stroke="#418bbd" stroke-linecap="butt" stroke-linejoin="round" stroke-width="2.24667" vectornator:layerName="Curve 1"/>
<path d="M617.889 711.31C628.934 747.498 600.844 787.909 600.844 787.909L616.486 767.849C616.486 767.849 667.724 723.101 643.246 706.658C618.767 690.215 642.151 675.384 596.107 661.803C550.064 648.222 497.399 619.48 497.399 619.48C497.399 619.48 606.845 675.122 617.889 711.31Z" fill="#cc6969" fill-rule="nonzero" opacity="1" stroke="none" vectornator:layerName="Curve 4"/>
<path d="M534.969 514.387C498.503 537.084 439.499 549.113 439.499 549.113L469.557 543.701C469.557 543.701 557.077 541.966 564.845 525.242C572.613 508.517 580.456 501.066 575.192 478.743C569.928 456.421 585.684 426.327 585.684 426.327L534.969 514.387Z" fill="#cc6969" fill-rule="nonzero" opacity="1" stroke="none" vectornator:layerName="Curve 3"/>
<path d="M789.73 499.343C794.436 543.3 803.191 549.886 804.881 589.586C806.571 629.286 760.044 668.599 771.352 656.94C782.661 645.28 831.13 620.943 833.659 579.126C836.188 537.308 821.895 535.657 806.605 490.874C791.315 446.092 737.561 439.433 737.561 439.433C737.561 439.433 785.024 455.387 789.73 499.343Z" fill="#cc6969" fill-rule="nonzero" opacity="1" stroke="none" vectornator:layerName="Curve 2"/>
</g>
<g opacity="0" vectornator:layerName="Group 27">
<path d="M424.523 343.061L699.454 343.232C699.454 343.232 717.127 370.304 717.053 425.277C716.947 504.999 717.661 622.393 718.83 701.785C719.213 727.753 699.202 748.455 699.202 748.455C699.202 748.455 630.438 798.813 561.705 798.77C492.972 798.727 424.271 748.284 424.271 748.284C424.271 748.284 407.744 729.581 406.83 701.591C404.187 620.679 404.991 520.172 406.124 440.442C406.808 392.299 424.523 343.061 424.523 343.061Z" fill="#5c9d4c" fill-rule="nonzero" opacity="1" stroke="none" vectornator:layerName="Rectangle 8"/>
<path d="M611.441 405.093L699.438 370.231L699.202 748.525C699.202 748.525 689.086 756.199 671.942 765.949C654.799 775.7 630.629 784.807 630.629 784.807L611.441 405.093Z" fill="#dddddd" fill-rule="nonzero" opacity="0.4" stroke="none" vectornator:layerName="Rectangle 9"/>
<path d="M424.523 343.061C424.544 308.865 486.107 281.183 562.027 281.23C637.947 281.277 699.476 309.036 699.454 343.232C699.433 377.427 637.87 405.109 561.95 405.062C486.03 405.015 424.501 377.256 424.523 343.061Z" fill="#adadad" fill-rule="nonzero" opacity="1" stroke="#dddddd" stroke-linecap="butt" stroke-linejoin="round" stroke-width="19.046" vectornator:layerName="Oval 1"/>
<path d="M528.671 327.839C528.677 319.397 535.389 312.557 543.664 312.562L589.481 312.591C597.756 312.596 604.46 319.444 604.455 327.886L604.455 327.886C604.45 336.329 597.737 343.168 589.462 343.163L543.645 343.135C535.37 343.13 528.666 336.281 528.671 327.839L528.671 327.839Z" fill="#818181" fill-rule="nonzero" opacity="0.4" stroke="none" vectornator:layerName="Rectangle 10"/>
</g>
<g opacity="0" vectornator:layerName="Group 28">
<path d="M424.617 343.052L699.522 343.334C699.522 343.334 717.181 370.41 717.086 425.379C716.947 505.093 717.614 622.475 718.751 701.86C719.123 727.826 699.106 748.517 699.106 748.517C699.106 748.517 630.328 798.843 561.602 798.772C492.876 798.702 424.201 748.235 424.201 748.235C424.201 748.235 407.684 729.528 406.782 701.54C404.172 620.635 405.016 520.138 406.181 440.417C406.885 392.278 424.617 343.052 424.617 343.052Z" fill="#c43b3b" fill-rule="nonzero" opacity="1" stroke="none" vectornator:layerName="Rectangle 8"/>
<path d="M611.492 405.154L699.494 370.33L699.106 748.588C699.106 748.588 688.988 756.257 671.842 765.999C654.696 775.742 630.525 784.838 630.525 784.838L611.492 405.154Z" fill="#dddddd" fill-rule="nonzero" opacity="0.4" stroke="none" vectornator:layerName="Rectangle 9"/>
<path d="M424.617 343.052C424.652 308.86 486.22 281.205 562.133 281.283C638.046 281.361 699.557 309.142 699.522 343.334C699.487 377.526 637.919 405.181 562.006 405.103C486.093 405.025 424.582 377.244 424.617 343.052Z" fill="#adadad" fill-rule="nonzero" opacity="1" stroke="#dddddd" stroke-linecap="butt" stroke-linejoin="round" stroke-width="19.3379" vectornator:layerName="Oval 1"/>
<path d="M528.762 327.874C528.77 319.432 535.485 312.596 543.759 312.605L589.571 312.652C597.846 312.66 604.546 319.51 604.538 327.952L604.538 327.952C604.529 336.393 597.814 343.23 589.54 343.221L543.728 343.174C535.454 343.166 528.753 336.316 528.762 327.874L528.762 327.874Z" fill="#818181" fill-rule="nonzero" opacity="0.4" stroke="none" vectornator:layerName="Rectangle 10"/>
</g>
<g opacity="0" vectornator:layerName="Group 29">
<g opacity="1" vectornator:layerName="Group 5">
<path d="M159.509 448.377C141.631 402.746 145.196 382.539 161.808 378.605C218.519 365.178 174.401 417.066 211.114 451.261C280.727 516.1 343.236 489.26 359.426 491.108C369.087 492.211 402.034 429.377 463.976 402.139C518.511 378.158 510.025 382.882 510.025 382.882C510.025 382.882 514.396 384.126 453.888 358.279C416.813 342.442 389.038 312.908 375.63 295.415C368.046 285.521 339.021 251.191 407.397 202.073C437.05 180.77 465.067 129.299 485.335 191.427C516.131 285.824 430.315 206.414 417.224 244.513C412.2 259.135 474.135 304.034 534.273 318.171C569.537 326.461 573.744 351.605 602.262 364.235C747.026 428.344 926.775 500.042 920.215 570.746C908.701 694.855 835.387 726.092 626.996 842.81C569.908 874.785 412.568 840.043 399.15 718.56C388.784 624.712 297.534 600.587 217.791 534.607C189.191 510.942 177.938 495.416 159.509 448.377Z" fill="#dbe4e8" fill-rule="nonzero" opacity="1" stroke="none" vectornator:layerName="Rectangle 8"/>
<path d="M178.877 401.805C118.491 371.772 215.19 365.092 229.767 356.846C274.016 331.814 338.14 501.48 371.128 505.246C380.79 506.349 444.406 495.542 497.894 455.595C554.536 413.292 591.791 392.12 591.667 385.561C591.42 372.506 541.98 305.538 491.243 265.849C449.623 233.293 424.878 239.597 441.301 228.722C471.806 208.523 445.883 129.194 492.614 177.459C711.224 403.244 943.988 454.786 931.918 584.883C920.403 708.992 847.09 740.23 638.699 856.948C581.611 888.922 424.27 854.18 410.852 732.697C399.462 629.567 322.159 519.253 243.733 439.81C225.195 421.032 199.976 412.299 178.877 401.805Z" fill="#eff4f5" fill-rule="nonzero" opacity="1" stroke="none" vectornator:layerName="Rectangle 9"/>
</g>
<path d="M448.589 616.832" fill="none" opacity="1" stroke="#418bbd" stroke-linecap="butt" stroke-linejoin="round" stroke-width="2.24667" vectornator:layerName="Curve 1"/>
<path d="M559.735 723.364C559.728 764.425 517.779 797.492 517.779 797.492L540.364 781.615C540.364 781.615 607.703 751.368 587.516 726.556C567.329 701.743 596.29 693.743 552.822 665.08C509.354 636.417 463.82 589.921 463.82 589.921C463.82 589.921 559.742 682.303 559.735 723.364Z" fill="#dbe4e8" fill-rule="nonzero" opacity="1" stroke="none" vectornator:layerName="Curve 4"/>
<path d="M536.099 492.705C491.073 504.734 426.043 498.557 426.043 498.557L458.944 502.447C458.944 502.447 550.298 528.329 563.656 513.424C577.015 498.519 587.514 493.264 589.125 468.426C590.736 443.587 616.619 417.33 616.619 417.33L536.099 492.705Z" fill="#dbe4e8" fill-rule="nonzero" opacity="1" stroke="none" vectornator:layerName="Curve 3"/>
<path d="M805.185 557.671C796.14 604.792 803.137 614.399 792.311 656.147C781.485 697.895 720.757 723.99 736.183 715.463C751.61 706.936 809.61 697.003 825.484 654.391C841.357 611.779 827.051 605.543 825.376 554.217C823.702 502.891 770.042 478.975 770.042 478.975C770.042 478.975 814.231 510.551 805.185 557.671Z" fill="#dbe4e8" fill-rule="nonzero" opacity="1" stroke="none" vectornator:layerName="Curve 2"/>
</g>
<g opacity="0" vectornator:layerName="Group 30">
<path d="M482.189 248.988C482.181 232.469 564.939 223.538 580.038 243.493C583.574 248.166 570.575 240.458 570.019 279.343C569.464 318.228 580.171 403.437 580.171 403.437C580.171 403.437 649.834 418.237 656.988 471.731C663.893 523.365 644.23 587.74 645.053 649.279C646.033 722.599 666.669 793.218 665.613 851.799C664.302 924.489 607.624 896.129 545.936 896.801C484.249 897.473 412.746 911.49 414.376 854.535C416.06 795.671 440.092 734.816 440.045 668.411C439.996 600.595 415.869 527.251 417.858 469.578C419.313 427.369 490.303 404.416 490.303 404.416C490.303 404.416 495.865 319.468 492.656 280.624C489.447 241.78 482.192 254.347 482.189 248.988Z" fill="#4f7347" fill-rule="nonzero" opacity="1" stroke="none" vectornator:layerName="Rectangle 9"/>
<path d="M495.27 246.773C495.085 242.651 511.112 238.553 531.067 237.62C551.022 236.687 567.348 239.272 567.533 243.394C567.718 247.516 551.691 251.615 531.736 252.548C511.781 253.481 495.455 250.895 495.27 246.773Z" fill="#42633a" fill-rule="nonzero" opacity="1" stroke="none" vectornator:layerName="Oval 1"/>
<path d="M522.716 870.996C522.688 868.444 524.678 866.354 527.16 866.327L557.25 865.999C559.733 865.972 561.768 868.019 561.796 870.571L561.796 870.571C561.823 873.123 559.833 875.213 557.351 875.24L527.261 875.568C524.778 875.595 522.743 873.548 522.716 870.996L522.716 870.996Z" fill="#42633a" fill-rule="nonzero" opacity="1" stroke="none" vectornator:layerName="Rectangle 11"/>
</g>
<g opacity="0" vectornator:layerName="Group 31">
<path d="M433.794 280.865L697.943 283.215L693.065 831.543L646.206 901.697L433.794 280.865Z" fill="#92b0bc" fill-rule="nonzero" opacity="1" stroke="none" vectornator:layerName="Rectangle 9"/>
<path d="M386.935 351.02L651.084 353.37L646.206 901.697L382.057 899.347L386.935 351.02Z" fill="#a0cadb" fill-rule="nonzero" opacity="1" stroke="none" vectornator:layerName="Rectangle 10"/>
<path d="M433.794 280.865L697.943 283.215L687.759 310.755L674.427 328.058L651.084 353.37L386.935 351.02L433.794 280.865Z" fill="#c5dfe9" fill-rule="nonzero" opacity="1" stroke="none" vectornator:layerName="Rectangle 11"/>
<path d="M458.017 302.026C458.05 298.335 465.056 295.404 473.665 295.481C482.274 295.557 489.226 298.612 489.193 302.304C489.16 305.995 482.155 308.926 473.546 308.849C464.937 308.773 457.984 305.718 458.017 302.026Z" fill="#8b8b8b" fill-rule="nonzero" opacity="1" stroke="none" vectornator:layerName="Oval 1"/>
<path d="M385.452 517.668L649.602 520.018L647.413 765.985L383.264 763.635L385.452 517.668Z" fill="#dddddd" fill-rule="nonzero" opacity="1" stroke="none" vectornator:layerName="Rectangle 12"/>
<path d="M649.602 520.018L695.634 542.809L693.877 740.299L647.413 765.985L649.602 520.018Z" fill="#c8c5c5" fill-rule="nonzero" opacity="1" stroke="none" vectornator:layerName="Rectangle 13"/>
</g>
<g opacity="0" vectornator:layerName="Group 32">
<path d="M787.698 280.865L819.1 493.519L260.9 728.961" fill="none" opacity="1" stroke="#dddddd" stroke-linecap="round" stroke-linejoin="round" stroke-width="46.6355" vectornator:layerName="Line 1"/>
<path d="M765.417 495.184L775.792 534.292" fill="none" opacity="1" stroke="#ececec" stroke-linecap="round" stroke-linejoin="round" stroke-width="18.1838" vectornator:layerName="Line 3"/>
<path d="M744.865 503.11L755.24 542.218" fill="none" opacity="1" stroke="#ececec" stroke-linecap="round" stroke-linejoin="round" stroke-width="18.1838" vectornator:layerName="Line 4"/>
<path d="M724.381 511.067L734.756 550.175" fill="none" opacity="1" stroke="#ececec" stroke-linecap="round" stroke-linejoin="round" stroke-width="18.1838" vectornator:layerName="Line 5"/>
<path d="M703.834 518.996L714.209 558.104" fill="none" opacity="1" stroke="#ececec" stroke-linecap="round" stroke-linejoin="round" stroke-width="18.1838" vectornator:layerName="Line 6"/>
</g>
<g opacity="1" vectornator:layerName="Group 33">
<g opacity="1" vectornator:layerName="Group 9">
<path d="M492.966 890.925C493.326 886.778 496.388 883.656 499.805 883.952L561.766 889.322C565.184 889.618 567.663 893.22 567.304 897.368L567.304 897.368C566.944 901.515 563.882 904.637 560.465 904.341L498.504 898.971C495.086 898.675 492.607 895.072 492.966 890.925L492.966 890.925Z" fill="#9fd9f1" fill-rule="nonzero" opacity="0.501923" stroke="none" vectornator:layerName="Rectangle 5"/>
<g opacity="1" vectornator:layerName="Group 8">
<path d="M461.104 503.87L658.305 521.858C658.305 521.858 666.569 536.108 671.1 552.353C675.632 568.599 676.432 586.841 676.432 586.841L428.669 562.333C428.669 562.333 435.295 542.355 443.404 527.74C451.512 513.124 461.104 503.87 461.104 503.87Z" fill="#9fd9f1" fill-rule="nonzero" opacity="0.496154" stroke="none" vectornator:layerName="Rectangle 3"/>
<g opacity="1" vectornator:layerName="Group 7">
<path d="M541.167 222.143L542.851 209.077L634.612 217.03L634.496 230.232C634.496 230.232 715.511 331.082 703.766 403.901C692.021 476.72 657.193 520.864 657.193 520.864C657.193 520.864 681.938 558.621 680.907 650.157C679.875 741.693 701.637 822.962 663.613 887.334C625.589 951.707 598.074 913.504 528.811 907.648C459.548 901.791 416.162 934.417 386.561 863.91C356.961 793.402 391.729 715.77 410.41 625.617C419.123 583.565 430.777 554.129 440.732 534.69C452.119 512.454 461.284 503.297 461.284 503.297C461.284 503.297 439.837 465.536 435.478 390.44C431.119 315.344 541.167 222.143 541.167 222.143Z" fill="#afddeb" fill-rule="nonzero" opacity="0.594961" stroke="none" vectornator:layerName="Rectangle 1"/>
<path d="M538.717 161.397C538.717 161.397 566.868 153.896 593.723 156.224C620.578 158.551 646.137 170.707 646.137 170.707L642.067 217.676L534.646 208.366L538.717 161.397Z" fill="#4794c8" fill-rule="nonzero" opacity="1" stroke="none" vectornator:layerName="Rectangle 2"/>
<path d="M542.695 209.063L635.629 217.118L634.448 230.747L541.513 222.693L542.695 209.063Z" fill="#9fd9f1" fill-rule="nonzero" opacity="0.496154" stroke="none" vectornator:layerName="Rectangle 4"/>
<path d="M546.398 166.337C546.515 164.983 547.708 163.981 549.062 164.098L637.093 171.728C638.447 171.845 639.45 173.038 639.332 174.392L639.332 174.392C639.215 175.746 638.022 176.749 636.668 176.631L548.637 169.002C547.283 168.885 546.28 167.692 546.398 166.337L546.398 166.337Z" fill="#418bbd" fill-rule="nonzero" opacity="1" stroke="none" vectornator:layerName="Rectangle 6"/>
<path d="M555.243 172.368L552.368 205.543" fill="none" opacity="1" stroke="#418bbd" stroke-linecap="butt" stroke-linejoin="round" stroke-width="2.24667" vectornator:layerName="Line 1"/>
<path d="M575.708 174.142L572.573 207.294" fill="none" opacity="1" stroke="#418bbd" stroke-linecap="butt" stroke-linejoin="round" stroke-width="2.24667" vectornator:layerName="Line 2"/>
<path d="M595.708 175.875L592.183 208.994" fill="none" opacity="1" stroke="#418bbd" stroke-linecap="butt" stroke-linejoin="round" stroke-width="2.24667" vectornator:layerName="Line 3"/>
<path d="M616.11 177.643L613.843 210.871" fill="none" opacity="1" stroke="#418bbd" stroke-linecap="butt" stroke-linejoin="round" stroke-width="2.24667" vectornator:layerName="Line 4"/>
</g>
</g>
</g>
<path d="M635.496 179.324L632.499 212.488" fill="none" opacity="1" stroke="#418bbd" stroke-linecap="butt" stroke-linejoin="round" stroke-width="2.24667" vectornator:layerName="Line 5"/>
</g>
</g>
</svg>
