<svg id="Layer_1" data-name="Layer 1" xmlns="http://www.w3.org/2000/svg" xmlns:xlink="http://www.w3.org/1999/xlink" viewBox="0 0 878.55 249.49"><defs><style>.cls-1{fill:none;}.cls-2{clip-path:url(#clip-path);}.cls-3{clip-path:url(#clip-path-2);}.cls-4{fill:#e0b278;}.cls-5,.cls-9{opacity:0.53;}.cls-6,.cls-9{fill:#cc8557;}.cls-7{clip-path:url(#clip-path-3);}.cls-8{clip-path:url(#clip-path-4);}.cls-10{clip-path:url(#clip-path-5);}</style><clipPath id="clip-path" transform="translate(75 83.71)"><polygon class="cls-1" points="673.72 158.21 0 158.21 0 -0.34 465.14 -0.34 673.72 158.21"/></clipPath><clipPath id="clip-path-2" transform="translate(75 83.71)"><rect class="cls-1" x="-1.16" width="736.95" height="52.62"/></clipPath><clipPath id="clip-path-3" transform="translate(75 83.71)"><rect class="cls-1" x="-1.16" y="52.62" width="736.95" height="52.62"/></clipPath><clipPath id="clip-path-4" transform="translate(75 83.71)"><rect class="cls-1" x="-2.52" y="52.62" width="736.95" height="52.62"/></clipPath><clipPath id="clip-path-5" transform="translate(75 83.71)"><rect class="cls-1" x="-1.16" y="105.24" width="736.95" height="52.62"/></clipPath></defs><g class="cls-2"><g class="cls-3"><rect class="cls-4" x="73.84" y="83.71" width="736.95" height="52.62"/><g class="cls-5"><path class="cls-6" d="M-17.77,14.9c-3.17,0,.94-.88,4.06-.74,53.6,2.28,107.37-1.78,154.57-6.66S234-3.27,287.29-5c10.76-.34,19.38-1.43,29.51-.51-49-1.58-97.32,1.9-140.75,6.1S90.46,9.83,42.51,11.7c-17.51.68-37.25.83-52.39-1.2" transform="translate(75 83.71)"/><path class="cls-6" d="M-9.48,22.78c-3.17,0,.94-.87,4.06-.74,53.6,2.29,107.38-1.78,154.58-6.66S242.32,4.62,295.58,2.89c10.77-.35,19.39-1.44,29.52-.51-49-1.59-97.32,1.89-140.75,6.09S98.76,17.72,50.8,19.58c-17.5.68-37.25.84-52.38-1.2" transform="translate(75 83.71)"/><path class="cls-6" d="M-21.94,6.15c-3.16,0,.94-.87,4.06-.74C35.73,7.7,89.5,3.63,136.7-1.25S229.86-12,283.13-13.74c10.76-.35,19.38-1.44,29.51-.51-49-1.59-97.32,1.89-140.75,6.09S86.3,1.09,38.35,3C20.84,3.63,1.09,3.79-14,1.75" transform="translate(75 83.71)"/><path class="cls-6" d="M377.65,8l48,6.29c3.21.42,6.57.89,9.06,2.16,4.44,2.28,4.5,6.56,1.58,9.57s-8.12,5-13.32,6.64C408.59,37.13,392.8,39.74,377,42a269.37,269.37,0,0,1-31.51,3.08,281,281,0,0,1-30-1.32c-28.88-2.41-58.17-5.85-83.42-14.46-3.06-1-6.41-2.53-6.3-4.61.07-1.49,2-2.71,3.81-3.73,16.77-9.22,40.23-14.07,63.1-13Q274,11,255.89,15.16c-5.92,1.35-12.18,3-15.43,6.2-1.57,1.55-2.2,3.66-.32,5.08A12.25,12.25,0,0,0,244,28l31.27,8.93a127,127,0,0,0,18,4.19,144.19,144.19,0,0,0,18.06.93c20.83.2,41.83.39,62.3-1.91,14.31-1.61,29.57-5.08,36.25-12.72,1.71-2,2.75-4.33,1.33-6.37-2.27-3.26-9.27-4.11-15.17-4.67a297.13,297.13,0,0,1-41.87-7c-6.78-1.65-13.44-3.52-19.84-5.65-1.24-.41-1.94-.72-.17-1,1.6-.25,3.74.25,5.32.43q5.88.69,11.76,1.41Q364.45,6.22,377.65,8Z" transform="translate(75 83.71)"/><path class="cls-6" d="M314.23,9.34c5.91,1.29,11.64,3,17.9,3.53,3.93.31,7.92.1,11.88.25s8.1.69,12.1,1.21l14.74,2c6.29.83,13,1.81,17.25,4.68,4.76,3.24,4.73,8.56-.07,11.78-4.65,3.12-12.21,3.94-19.17,4.58L356.1,38.49c-2.68.24-5.37.49-8.08.57-3.37.11-6.75,0-10.12-.16l-16.2-.67c-7.49-.31-15.08-.63-22.17-2.09-5.81-1.2-11.13-3.13-17-4.18-8.87-1.58-19.6-1.37-25.65-5.51a2.18,2.18,0,0,1-.74-.7c-.21-.44.06-.9.33-1.32,1.12-1.8,2.49-3.77,5.41-4.61a28.92,28.92,0,0,1,4.75-.66,65.1,65.1,0,0,0,7.26-1.34c7-1.56,14.1-3.18,19.8-6,11.44,2.28,23.2,4,35.11,5.21,4.89.49,10.24,1,13.52,3.21-2,0-3.94-.06-5.91-.16l-9.66-.49A140.25,140.25,0,0,1,309.44,18c-6.63-1.18-13.26-3.34-20-2.52-7.13.86-12,4.75-18.66,6.51-2.09.56-4.34.89-6.35,1.53s-3.84,1.69-4.2,3A199.07,199.07,0,0,0,282.62,32c7.91,1.4,16.08,2.21,24.22,3,7.57.76,15.15,1.52,22.78,2a244.82,244.82,0,0,0,27.09.23c7-.35,14.41-1.17,19.72-3.92,4.55-2.35,7.05-6.1,6-9.62s-5.8-6.62-11.73-7.35c-9.38-1.16-18.88,3.33-28.21,2-6.33-.87-10.92-4.21-17.1-5.39-5-1-10.51-.41-15.53-1.3-3.92-.69-7.25-2.19-11.16-2.91-.6-.11-2.13-.13-1.13-.54a11.49,11.49,0,0,1,3-.33,41.82,41.82,0,0,1,6.53.23A68.79,68.79,0,0,1,314.23,9.34Z" transform="translate(75 83.71)"/><path class="cls-6" d="M366.45,23.07a7.91,7.91,0,0,1,2.5,1.25,2.46,2.46,0,0,1,.37,3.28c-1.8,3.21-7.38,5.2-13,6-12,1.69-24.48-1-36.82-.83-4.2.05-8.55.4-12.5-.45s-7-2.81-11-3.55c-2.71-.49-6.5-.9-6.55-2.57,0-1.45,3.08-2.13,5.55-2.16a103.21,103.21,0,0,1,11.81.85,219.31,219.31,0,0,0,46.32-.24,9,9,0,0,1,3.14,0c1.71.44,2.09,1.88,1.22,2.85s-2.6,1.56-4.28,2a66.47,66.47,0,0,1-27.92,1.35c9.73-.18,20-.46,28.17-3.61-5.66-1-11.62.28-17.41.91a82.63,82.63,0,0,1-15.65.22c-8.55-.69-17.33-2.69-25.51-1.08l15,5a47.07,47.07,0,0,0,6.75,1.87,62.25,62.25,0,0,0,8.8.57q6.45.13,12.85.62c5.62.42,11.26,1,16.9.73s11.42-1.68,14.6-4.45,2.77-7-1.85-9c-3.89-1.63-9.15-1.27-13.64-1.16a18.9,18.9,0,0,1-3.51,0c-.28-.26.78-.62,1.1-.7a12.57,12.57,0,0,1,3.3,0c1.22.08,2.43.2,3.62.37s2.65.44,3.93.74c.66.16,1.32.33,2,.52A9.11,9.11,0,0,0,366.45,23.07Z" transform="translate(75 83.71)"/><path class="cls-6" d="M38.86,31.3C83.14,26.74,126.7,19.56,171.44,17c22.49-1.27,45.53-1.4,66.9-5.73l-20.21,8.31c-2,.84-4.21,1.76-5.15,3.14-1.47,2.17.65,4.58,3.05,6.44,10.06,7.78,25.8,12.37,41.82,14.91s32.68,3.29,49,5c8.05.82,16.06,1.88,24.22,2.17,8.52.31,17.07-.21,25.56-.74,19.12-1.2,38.54-2.5,56.22-6.94S446.55,31,452.1,20.13c.86-1.67,1.44-3.51.27-5.11-1.77-2.42-6.69-3.33-11-4l-36.59-5.3c-12.13-1.75-25.4-4-32.28-10.11,20.91,11.57,53.84,10,80.31,16.53,4.3,1.05,9,2.8,9.31,5.53.15,1.33-.82,2.6-1.83,3.79-8.16,9.56-21.1,17.67-36.77,23.07-27,9.31-59.86,10.14-91.16,9.9-38.76-.31-79-2.16-112.8-13.34-5-1.67-10.1-3.67-12.64-6.72-3.82-4.59-.65-10.35,5.3-14.07s14.13-5.85,22.08-7.9C220.09,12.35,207.63,17.69,194,20c-10.56,1.79-21.73,1.74-32.69,2.3-6.79.34-13.55.93-20.25,1.67s-13.47,1.64-20.16,2.6-13.39,2-20.07,3-13.31,2.05-20,3S67.57,34.37,60.87,35,47.63,36.19,41,36.43s-13.34.21-20-.16A129.34,129.34,0,0,1,.67,33.92c-2.67-.59.13-1.6,1.7-1.81a18.59,18.59,0,0,1,4.15.21c1.8.17,3.61.28,5.43.35a173,173,0,0,0,21.86-.87Z" transform="translate(75 83.71)"/><path class="cls-6" d="M7.33,41.94c3.08,2.09,8.32,2.41,13,2.43,36.58.21,71.52-8.15,107.25-12.76,15.95-2.06,32.14-3.38,48.3-4.7l20.76-1.69A534.09,534.09,0,0,1,97.13,40c-7.5.41-15,.67-22.46,1.49-8.12.89-16,2.44-24.1,3.44a178.11,178.11,0,0,1-49.79-1" transform="translate(75 83.71)"/><path class="cls-6" d="M31.35,53.26c32.31,1.4,63.47-6.8,95.64-9.1,8.55-.61,17.18-.81,25.68-1.63a153.26,153.26,0,0,0,39.78-9.09c-1,1.63-3.7,2.64-6.23,3.52-9.13,3.19-18.5,6.28-28.69,8-6.25,1.08-12.72,1.64-19.17,2.19q-49.52,4.22-99.18,7.9" transform="translate(75 83.71)"/><path class="cls-6" d="M139.67,52.78c5.44-3.54,14.76-3.35,22.38-5,9.13-1.93,16.64-6.69,26.34-6.94,8.53-.21,16,3.15,24,4.87,3.38.73,6.93,1.16,10.43,1.67a229.85,229.85,0,0,1,27.61,5.72c2.34.64,4.94,1.55,5.25,3-4.43.5-8.8-.79-12.83-2a396,396,0,0,0-48.2-10.92,40,40,0,0,0-8.83-.73c-5.4.34-9.76,2.64-13.94,4.69-7.31,3.57-16,6.78-25.47,6.58-5.33-.11-11.31-1.21-15.56.69" transform="translate(75 83.71)"/><path class="cls-6" d="M179.07,49.89a20,20,0,0,1,6.59-1.67,25.68,25.68,0,0,1,4.89.52,109.45,109.45,0,0,0,19.14,1.44c3.82,0,7.93-.24,11.13,1,2,.78,3.44,2.11,3.74,3.53-3,.9-6.44-.36-9.69-.83-5.1-.75-10.76.45-15.58-.77-3-.76-5.28-2.38-8.42-2.89-3.52-.58-7.19.37-10.5,1.29l-6,1.68c-.77.21-3.43,1.23-4.32.56-.59-.44,2.8-1.43,3.48-1.69Z" transform="translate(75 83.71)"/></g><g class="cls-5"><path class="cls-6" d="M450.11,39.29C476.28,23.8,506.4,12.7,537.64,12.05c11.36-.24,22.7.9,34,1.67,23.35,1.58,46.8,1.61,70.21,1.17,35-.66,70.19-2.38,104.63-8.3-67.85,9.72-136.59,13.34-205.26,14.72-13.76.28-27.63.48-41.06,3.2-23,4.64-43.33,16.32-63.51,27.3a69.43,69.43,0,0,1-10.7,5c-1.59.54-7,2.6-5.22-.8a4.92,4.92,0,0,1,2.88-2.26q2.7-1,5.29-2.3c3.5-1.67,6.86-3.56,10.17-5.51C442.79,43.75,446.42,41.48,450.11,39.29Z" transform="translate(75 83.71)"/><path class="cls-6" d="M477.45,39.93c18-8.56,38.56-11.91,58.87-13.06s40.7-.22,61-.75c13.07-.35,26.11-1.3,39.14-2.24l59.28-4.32c18.82-1.37,37.8-2.77,55.89-7.65-13.58-.86-26.78,3.79-40.24,5.65A222.09,222.09,0,0,1,688.93,19C654,20.31,619.2,23.77,584.46,27.39q-40.56,4.23-81.07,8.74c-7.35.81-14.83,1.68-21.53,4.53C474,44,467.72,49.69,460,53.33c-.88.42-4.11,2.43-5.08,2-.79-.37,0-1.64.28-2.11,1.77-3,5.41-4.3,8.49-6C468.26,44.72,472.75,42.16,477.45,39.93Z" transform="translate(75 83.71)"/><path class="cls-6" d="M559.28,35c12.54.28,25,2,37.55,2.07,11.11,0,22.16-1.28,33.17-2.62Q691.31,27,752.43,18.32c-16.7,8.34-36,11.24-55,12.44s-38.16.82-57,3.23c-7.51,1-15,2.36-22.58,2.2-5.66-.12-11.24-1.1-16.84-1.83a184.12,184.12,0,0,0-69.91,4.43c-10.39,2.72-20.45,6.34-30.56,9.78-5.06,1.72-10.13,3.4-15.27,4.89-2.59.76-5.2,1.47-7.83,2.11-1.2.29-3.55,1.37-4.62.31-1.73-1.7.72-5.31,2.31-6.31,1.86-1.17,4.51-1.67,6.65-2.27,2.65-.75,5.33-1.45,8-2.15,10.69-2.78,21.48-5.29,32.43-7.13a204,204,0,0,1,33-3C556.55,35,557.92,35,559.28,35Z" transform="translate(75 83.71)"/><path class="cls-6" d="M432.63,1.91C446.35-.61,461.36,3.75,470.93,13c1.49,1.45,2.95,3.07,5,3.79a12.88,12.88,0,0,0,6.41,0c15.74-2.73,30.75-8.78,46.7-10.09C539,5.94,549,7,559,8c30.25,2.9,60.78,4.86,91.08,2.38,13-1.07,26-2.95,38.9-4.83L738.6-1.73C724.5-3.81,710.19-5.56,696-4.39c-14,1.15-27.56,5.11-41.44,7.21-15,2.28-30.31,2.37-45.53,2.45-23.82.12-47.7.25-71.39-2-8.92-.86-18-2-26.8-.59-10.08,1.67-19.13,6.69-29.08,8.91a10.79,10.79,0,0,1-4.85.26c-2.11-.51-3.67-2.09-5.37-3.34-5.15-3.77-12.07-4.68-18.62-5.44L422.37-.53a35.94,35.94,0,0,0,16.88,5.26" transform="translate(75 83.71)"/><path class="cls-6" d="M545.14,40.25a85.81,85.81,0,0,1,16.19-3.46,73.36,73.36,0,0,1,16.14.83A214.23,214.23,0,0,1,621.09,48.4c2,.72,4,1.53,5.26,3.06s1.24,4-.55,5c-22.67-10.66-48.88-18.33-73.88-13.13a147.33,147.33,0,0,0-20.46,6.35l-19.63,7.14c-3.13,1.15-6.25,2.49-9.46,3.45-.87.26-1.88.58-1.88-.47s1.59-2.42,2.29-3.13a29.28,29.28,0,0,1,4.62-3.78c4.58-3,10.66-4.51,16-6.22C530.56,44.36,537.85,42.3,545.14,40.25Z" transform="translate(75 83.71)"/><path class="cls-6" d="M549,49.4c15.26-5.3,34.61-3.25,47.27,5,1,.66,2,1.93.9,2.53-.91.51-2.13-.13-3-.69-5-3.25-11.8-4.39-18.29-5.41l-13.94-2.21a19.81,19.81,0,0,0-4.35-.35,18.32,18.32,0,0,0-5.1,1.31l-8,2.92-3.9,1.41c-.82.3-2.19,1.07-3.09,1,.15-1.31,2.8-2,4.07-2.57C544,51.35,546.43,50.29,549,49.4Z" transform="translate(75 83.71)"/><path class="cls-6" d="M625.27,44.86c-.62-1.7.4-3.62,2-4.71a12.92,12.92,0,0,1,5.51-1.81c8.19-1.23,16.56-.65,24.86-.37a328.33,328.33,0,0,0,85.93-8.5c-2.77,2.21-6.29,3.46-9.79,4.5-24.46,7.34-50.77,7-76.52,7.76-7.32.21-14.8.54-21.79,2.68a22.43,22.43,0,0,0-5.61,2.26c1.56,1.26,3.45,2.3,5.14,3.42.9.59,3.11,1.52,3.48,2.47-1.58.47-4.32-1.23-5.57-2-1.57-.95-3.16-1.87-4.71-2.84C627.06,47,625.62,46.13,625.27,44.86Z" transform="translate(75 83.71)"/><path class="cls-6" d="M681.41,49.25c10.25,0,20.44-1.36,30.59-2.7l28.14-3.72c-2,4.46-8.46,5.32-13.77,5.76-8.3.68-16.53,1.92-24.73,3.23s-16.55,2.7-24.89,3.66c-4.16.47-8.34.84-12.52,1-2.05.09-4.11.14-6.16.14a24,24,0,0,1-5.43-.25,7.71,7.71,0,0,1-5.3-4.32c-1-2.93,2.8-3,5-3.18,8.6-.69,17.23.15,25.84.33C679.27,49.24,680.34,49.26,681.41,49.25Z" transform="translate(75 83.71)"/></g></g><g class="cls-7"><g class="cls-8"><g class="cls-5"><path class="cls-6" d="M-69-5.11c-3.59-.1,1.06-2.32,4.6-2C-3.67-1,57.25-11.81,110.72-24.8S216.27-53.43,276.6-58c12.2-.93,22-3.82,33.44-1.37-55.49-4.21-110.25,5-159.45,16.23S53.63-18.58-.7-13.62C-20.53-11.81-42.9-11.39-60-16.81" transform="translate(75 83.71)"/><path class="cls-6" d="M-59.59,15.87c-3.59-.1,1.06-2.32,4.59-2C5.73,20,66.65,9.17,120.12-3.82S225.66-32.45,286-37c12.2-.93,22-3.82,33.44-1.37C264-42.64,209.19-33.37,160-22.19S63,2.39,8.7,7.35C-11.13,9.17-33.51,9.58-50.65,4.17" transform="translate(75 83.71)"/><path class="cls-6" d="M-73.71-28.38c-3.58-.1,1.07-2.32,4.6-2C-8.38-24.26,52.54-35.07,106-48.07S211.55-76.7,271.89-81.3c12.19-.93,22-3.82,33.44-1.37-55.49-4.21-110.25,5-159.45,16.23S48.91-41.85-5.41-36.89c-19.84,1.81-42.21,2.23-59.35-3.19" transform="translate(75 83.71)"/><path class="cls-6" d="M379-23.51,433.31-6.77C437-5.65,440.76-4.41,443.57-1c5,6.07,5.11,17.44,1.79,25.46s-9.19,13.32-15.09,17.65C414,54,396.14,61,378.27,67c-11.74,3.94-23.63,7.51-35.7,8.2-11.38.64-22.75-1.3-34-3.51C275.83,65.24,242.65,56.09,214,33.2c-3.45-2.77-7.25-6.75-7.13-12.27.09-4,2.23-7.22,4.32-9.93,19-24.54,45.58-37.43,71.48-34.68A375.46,375.46,0,0,0,241-4.41c-6.7,3.6-13.8,8-17.48,16.51-1.77,4.12-2.49,9.74-.36,13.52a12.48,12.48,0,0,0,4.32,4.1l35.43,23.77c6.59,4.42,13.25,8.88,20.38,11.16,6.69,2.13,13.61,2.3,20.47,2.45,23.6.53,47.39,1,70.57-5.07,16.21-4.28,33.51-13.52,41.07-33.83,1.94-5.23,3.12-11.52,1.51-17C414.36,2.56,406.44.31,399.75-1.19a170.64,170.64,0,0,1-47.43-18.62,187.88,187.88,0,0,1-22.47-15c-1.41-1.1-2.2-1.94-.2-2.65,1.81-.65,4.24.68,6,1.16q6.68,1.82,13.33,3.75C359-29.67,369-26.59,379-23.51Z" transform="translate(75 83.71)"/><path class="cls-6" d="M307.13-19.89c6.7,3.44,13.19,8.08,20.27,9.39,4.46.82,9,.28,13.47.68S350-8,354.57-6.6l16.7,5.17C378.4.78,386,3.39,390.82,11c5.38,8.62,5.35,22.77-.08,31.34-5.27,8.3-13.84,10.49-21.73,12.19l-14.45,3.1a68.54,68.54,0,0,1-9.15,1.54,67.74,67.74,0,0,1-11.47-.45L315.59,57c-8.49-.82-17.09-1.67-25.11-5.56-6.58-3.19-12.62-8.34-19.29-11.14-10.05-4.2-22.2-3.64-29.06-14.65a5.77,5.77,0,0,1-.83-1.87,7.73,7.73,0,0,1,.37-3.5c1.27-4.79,2.82-10,6.13-12.25,1.67-1.12,3.56-1.31,5.38-1.77a39.25,39.25,0,0,0,8.22-3.56c7.91-4.16,16-8.46,22.43-16A204.53,204.53,0,0,0,323.61.53c5.54,1.3,11.6,2.7,15.32,8.53a41.69,41.69,0,0,1-6.69-.43L321.29,7.34C314.7,6.56,308,5.77,301.7,3.12c-7.5-3.13-15-8.88-22.7-6.71-8.08,2.29-13.62,12.66-21.14,17.34-2.37,1.47-4.92,2.36-7.2,4.07a11.87,11.87,0,0,0-4.75,8,134.5,134.5,0,0,0,25.41,14.49c9,3.72,18.21,5.9,27.44,8.07,8.57,2,17.16,4,25.81,5.27a119,119,0,0,0,30.68.61c8-.94,16.33-3.12,22.34-10.42,5.16-6.26,8-16.24,6.8-25.6S377.82.66,371.1-1.29c-10.62-3.08-21.39,8.85-32,5.42C332,1.81,326.77-7.06,319.77-10.2c-5.65-2.53-11.9-1.08-17.59-3.45-4.44-1.85-8.22-5.85-12.65-7.75-.67-.29-2.41-.36-1.27-1.45.82-.78,2.41-.76,3.37-.87a20.38,20.38,0,0,1,7.4.62A39.14,39.14,0,0,1,307.13-19.89Z" transform="translate(75 83.71)"/><path class="cls-6" d="M366.28,16.65A9.92,9.92,0,0,1,369.12,20c1.23,2.5,1.11,5.86.42,8.73a22.16,22.16,0,0,1-14.68,15.94c-13.6,4.5-27.74-2.53-41.72-2.2-4.76.12-9.68,1.06-14.15-1.2s-8-7.48-12.51-9.44c-3.06-1.32-7.36-2.4-7.41-6.84-.05-3.88,3.49-5.67,6.29-5.76,4.5-.14,8.94,1.21,13.37,2.27a107.05,107.05,0,0,0,52.48-.65c1.18-.31,2.45-.63,3.55,0,1.94,1.18,2.38,5,1.39,7.58a11.35,11.35,0,0,1-4.85,5.4c-9.78,6.39-21.23,7.69-31.63,3.61,11-.48,22.69-1.23,31.91-9.63-6.41-2.54-13.16.77-19.72,2.45a40.68,40.68,0,0,1-17.73.57c-9.68-1.84-19.63-7.15-28.9-2.88l17,13.36a33.48,33.48,0,0,0,7.65,5c3.22,1.3,6.62,1.34,10,1.52a119.26,119.26,0,0,1,14.56,1.65c6.36,1.12,12.75,2.75,19.14,1.94a21.1,21.1,0,0,0,16.54-11.82c3.6-7.35,3.14-18.73-2.09-23.87-4.41-4.33-10.37-3.38-15.45-3.1-.54,0-3.72.67-4,.11s.88-1.65,1.24-1.85c1.11-.62,2.59-.18,3.75,0a24.61,24.61,0,0,1,4.09,1,26.18,26.18,0,0,1,4.46,2c.75.42,1.49.88,2.21,1.38C364.77,15.48,365.79,16.65,366.28,16.65Z" transform="translate(75 83.71)"/><path class="cls-6" d="M-4.83,38.54C45.33,26.41,94.68,7.3,145.36.57c25.48-3.39,51.58-3.73,75.79-15.25L198.26,7.42c-2.33,2.25-4.78,4.71-5.83,8.36-1.67,5.77.74,12.2,3.46,17.15,11.38,20.7,29.22,32.9,47.37,39.66s37,8.76,55.53,13.22c9.12,2.2,18.2,5,27.43,5.79,9.66.82,19.34-.57,29-2,21.65-3.18,43.66-6.63,63.69-18.46A96.36,96.36,0,0,0,463.32,8.82c1-4.44,1.63-9.35.3-13.6-2-6.45-7.57-8.85-12.49-10.53L409.67-29.4C395.93-34.08,380.9-40,373.11-56.32c23.68,30.78,61,26.72,91,44C469-9.54,474.29-4.9,474.64,2.39c.16,3.53-.93,6.92-2.08,10.07-9.24,25.43-23.9,47-41.65,61.38-30.62,24.77-67.82,27-103.27,26.33-43.91-.81-89.49-5.73-127.8-35.49-5.69-4.42-11.43-9.76-14.31-17.87-4.33-12.21-.74-27.53,6-37.42s16-15.59,25-21c-16.06-.26-30.18,14-45.61,20.12-12,4.78-24.63,4.63-37,6.12A174.85,174.85,0,0,0,111,19.05c-7.66,2-15.27,4.36-22.84,6.93s-15.17,5.35-22.74,8.09-15.08,5.46-22.66,8-15,4.69-22.61,6.47A152.85,152.85,0,0,1-2.46,52.18a106.56,106.56,0,0,1-22.65-.42c-7.64-1-15.77-2.5-23-6.26-3-1.57.15-4.25,1.93-4.82,1.58-.5,3.13.24,4.7.58a47.79,47.79,0,0,0,6.15.92c8.28.7,16.59-.55,24.77-2.32C-8.64,39.45-6.73,39-4.83,38.54Z" transform="translate(75 83.71)"/><path class="cls-6" d="M-40.55,66.86c3.49,5.55,9.42,6.4,14.74,6.46,41.44.55,81-21.69,121.5-34,18.07-5.48,36.4-9,54.72-12.49l23.52-4.5c-35.84,21-74,34.24-112.75,39.2-8.5,1.09-17,1.79-25.44,4C26.53,67.89,17.61,72,8.44,74.66A88,88,0,0,1-48,72.07" transform="translate(75 83.71)"/><path class="cls-6" d="M-13.34,97C23.27,100.7,58.56,78.88,95,72.75c9.69-1.63,19.48-2.14,29.11-4.33,16-3.64,31.46-11.93,45.06-24.18-1.15,4.32-4.2,7-7.06,9.37C151.76,62.1,141.15,70.3,129.6,75c-7.08,2.87-14.41,4.36-21.71,5.82Q51.79,92-4.46,101.8" transform="translate(75 83.71)"/><path class="cls-6" d="M109.37,95.68c6.16-9.4,16.73-8.91,25.36-13.19,10.34-5.14,18.85-17.8,29.83-18.46,9.67-.57,18.1,8.39,27.19,13a90.38,90.38,0,0,0,11.82,4.44,143.53,143.53,0,0,1,31.28,15.21c2.65,1.7,5.6,4.12,6,8.13-5,1.32-10-2.11-14.54-5.27a258,258,0,0,0-54.6-29c-3.26-1.25-6.63-2.44-10-2-6.12.9-11.06,7-15.8,12.47C137.59,90.46,127.74,99,117,98.49c-6-.31-12.82-3.24-17.62,1.82" transform="translate(75 83.71)"/><path class="cls-6" d="M154,88c2.29-2.09,4.72-4.24,7.46-4.44,1.88-.14,3.73.67,5.54,1.37a55.54,55.54,0,0,0,21.69,3.83c4.32-.12,9-.63,12.61,2.63a14.65,14.65,0,0,1,4.23,9.39c-3.39,2.39-7.29-.94-11-2.21-5.77-2-12.19,1.21-17.65-2-3.39-2-6-6.32-9.53-7.69-4-1.54-8.15,1-11.9,3.42l-6.82,4.47c-.87.57-3.88,3.3-4.89,1.51-.67-1.17,3.17-3.8,3.93-4.5Z" transform="translate(75 83.71)"/></g><g class="cls-5"><path class="cls-6" d="M461.06,59.81c29.65-41.24,63.78-70.77,99.17-72.5,12.87-.63,25.71,2.4,38.55,4.45,26.45,4.22,53,4.29,79.53,3.12,39.7-1.76,79.52-6.35,118.54-22.09C720-1.35,642.1,8.28,564.31,12c-15.58.74-31.3,1.28-46.52,8.5-26,12.35-49.07,43.44-71.95,72.66-3.89,5-7.86,9.83-12.12,13.24-1.8,1.44-7.91,6.92-5.91-2.14a10.19,10.19,0,0,1,3.27-6,83.26,83.26,0,0,0,6-6.14,182.42,182.42,0,0,0,11.52-14.65C452.77,71.65,456.88,65.62,461.06,59.81Z" transform="translate(75 83.71)"/><path class="cls-6" d="M492,61.5c20.44-22.77,43.69-31.69,66.7-34.76s46.1-.57,69.15-2c14.81-.92,29.58-3.44,44.34-6L739.38,7.3C760.7,3.65,782.2-.06,802.7-13.06,787.3-15.33,772.36-3,757.1,2c-8.42,2.73-17,3.2-25.48,3.93C692,9.3,652.62,18.51,613.27,28.13q-45.94,11.23-91.85,23.25c-8.32,2.17-16.8,4.47-24.39,12-8.9,8.9-16,24-24.72,33.73-1,1.1-4.65,6.46-5.75,5.24-.89-1,0-4.38.32-5.63,2-8,6.13-11.43,9.61-15.91C481.63,74.24,486.71,67.43,492,61.5Z" transform="translate(75 83.71)"/><path class="cls-6" d="M584.74,48.49c14.2.73,28.33,5.41,42.54,5.51,12.58.1,25.11-3.41,37.58-7Q734.31,27.13,803.55,4c-18.91,22.2-40.8,29.91-62.34,33.09s-43.22,2.2-64.6,8.61c-8.5,2.55-17,6.28-25.58,5.86-6.41-.32-12.73-2.94-19.08-4.87-26.39-8-53.57-4-79.19,11.77-11.77,7.24-23.17,16.88-34.63,26-5.72,4.57-11.47,9-17.29,13-2.94,2-5.89,3.9-8.88,5.62-1.35.78-4,3.63-5.22.83-2-4.53.81-14.14,2.62-16.81,2.1-3.11,5.1-4.44,7.52-6,3-2,6-3.85,9.07-5.7,12.12-7.41,24.35-14.1,36.75-19s24.85-7.92,37.4-8C581.65,48.38,583.19,48.41,584.74,48.49Z" transform="translate(75 83.71)"/><path class="cls-6" d="M441.26-39.65c15.54-6.71,32.55,4.88,43.39,29.57C486.34-6.21,488-1.9,490.31,0s4.86,1.09,7.27.1c17.83-7.25,34.83-23.35,52.91-26.85,11.28-2.18,22.63.62,33.9,3.16,34.27,7.71,68.85,12.92,103.18,6.32,14.77-2.84,29.43-7.85,44.07-12.86l56.25-19.24c-16-5.51-32.19-10.18-48.31-7.06-15.88,3.07-31.22,13.6-47,19.19-17,6-34.33,6.29-51.57,6.5-27,.34-54,.67-80.88-5.38-10.11-2.27-20.37-5.44-30.37-1.55-11.41,4.45-21.67,17.81-32.94,23.71-1.8.94-3.69,1.69-5.49.67-2.39-1.35-4.15-5.56-6.08-8.88-5.83-10-13.68-12.44-21.1-14.48l-34.56-9.5c5.62,8.22,12.31,13.12,19.12,14" transform="translate(75 83.71)"/><path class="cls-6" d="M568.72,62.35c6-4,12.07-8,18.34-9.21,6.1-1.2,12.24.25,18.28,2.22,16.94,5.51,33.57,15.16,49.42,28.69a17.54,17.54,0,0,1,6,8.12c1.4,4.06,1.4,10.61-.62,13.33-25.68-28.35-55.37-48.77-83.7-34.93-8,3.89-15.6,10.4-23.18,16.89l-22.23,19c-3.55,3-7.09,6.6-10.73,9.16-1,.69-2.12,1.54-2.13-1.23s1.81-6.46,2.6-8.34A65.76,65.76,0,0,1,526,96c5.18-8,12.07-12,18.09-16.56C552.2,73.29,560.46,67.81,568.72,62.35Z" transform="translate(75 83.71)"/><path class="cls-6" d="M573.07,86.69c17.29-14.11,39.21-8.63,53.55,13.39,1.15,1.76,2.24,5.12,1,6.73-1,1.35-2.41-.35-3.38-1.83-5.66-8.65-13.36-11.67-20.71-14.4l-15.8-5.87a10,10,0,0,0-4.93-.95c-2,.31-3.93,1.91-5.77,3.48L568,95l-4.41,3.77c-.94.8-2.49,2.85-3.5,2.68.16-3.49,3.17-5.43,4.6-6.84C567.43,91.89,570.18,89.05,573.07,86.69Z" transform="translate(75 83.71)"/><path class="cls-6" d="M659.5,74.63a20.3,20.3,0,0,1,2.23-12.55A10.93,10.93,0,0,1,668,57.27c9.28-3.28,18.76-1.72,28.16-1,32.73,2.56,65.64-5.09,97.34-22.63a33,33,0,0,1-11.09,12c-27.71,19.53-57.51,18.68-86.68,20.64-8.29.56-16.77,1.43-24.69,7.14a22.15,22.15,0,0,0-6.36,6c1.77,3.37,3.91,6.13,5.83,9.1,1,1.58,3.52,4,3.94,6.57-1.79,1.25-4.9-3.28-6.31-5.27-1.78-2.51-3.58-5-5.34-7.55A16.69,16.69,0,0,1,659.5,74.63Z" transform="translate(75 83.71)"/><path class="cls-6" d="M723.09,86.31c11.62-.06,23.17-3.64,34.66-7.2l31.89-9.9c-2.33,11.88-9.59,14.16-15.6,15.32-9.41,1.81-18.73,5.13-28,8.6s-18.74,7.2-28.19,9.73a91.28,91.28,0,0,1-14.19,2.73,62.6,62.6,0,0,1-7,.37c-2,0-4.22.42-6.16-.67-2.52-1.41-5.19-6.07-6-11.49-1.17-7.79,3.18-8,5.68-8.47,9.75-1.83,19.53.42,29.28.89C720.67,86.28,721.88,86.32,723.09,86.31Z" transform="translate(75 83.71)"/></g></g><rect class="cls-4" x="72.48" y="136.33" width="736.95" height="52.62"/><g class="cls-5"><path class="cls-6" d="M-24.62,86.53c35.91-14.45,77-24.35,119.36-23.76,15.39.22,30.71,1.81,46,3,31.57,2.51,63.33,3.47,95.05,4,47.48.74,95.13.41,141.95-4.14-92.17,7-185.39,7.9-278.43,6.56-18.64-.27-37.43-.62-55.71,1.56C12.4,77.46-15.51,88.33-43.17,98.51a114,114,0,0,1-14.64,4.55c-2.17.47-9.54,2.32-7-1,.88-1.17,2.23-1.69,4-2.14,2.45-.63,4.86-1.34,7.23-2.1,4.78-1.53,9.39-3.27,13.93-5.09C-34.65,90.69-29.68,88.56-24.62,86.53Z" transform="translate(75 83.71)"/><path class="cls-6" d="M12.4,88.25C37.08,80.42,65,77.88,92.51,77.53s55.13,1.41,82.7,1.68c17.71.18,35.4-.25,53.07-.68l80.42-2c25.53-.62,51.27-1.26,75.92-5.42-18.37-1.4-36.38,2.73-54.67,4-10.1.73-20.32.6-30.51.58-47.36-.12-94.58,2-141.74,4.19q-55,2.61-110.06,5.51c-10,.53-20.14,1.09-29.29,3.67C7.6,92.18-1.07,97.62-11.58,101c-1.2.38-5.63,2.27-6.93,1.77-1.06-.4.05-1.64.44-2.1,2.48-3,7.46-4.08,11.67-5.64C-.19,92.67,6,90.29,12.4,88.25Z" transform="translate(75 83.71)"/><path class="cls-6" d="M123.37,86.62c17,.77,33.81,3,50.79,3.56,15.05.48,30.06-.4,45-1.3q83.25-5,166.28-11.29c-22.85,7.67-49.11,9.8-74.88,10.24s-51.71-.7-77.33,1c-10.2.66-20.39,1.77-30.65,1.31-7.66-.35-15.19-1.55-22.76-2.5A335.73,335.73,0,0,0,85,89.24c-14.15,2.31-27.89,5.53-41.69,8.57-6.89,1.51-13.81,3-20.81,4.28-3.54.65-7.09,1.25-10.68,1.79-1.62.25-4.84,1.23-6.26.13-2.29-1.77,1.13-5.28,3.32-6.22,2.55-1.1,6.16-1.49,9.07-2,3.62-.64,7.26-1.23,10.9-1.82C43.45,91.6,58.14,89.52,73,88.12a369.3,369.3,0,0,1,44.81-1.7C119.68,86.47,121.52,86.53,123.37,86.62Z" transform="translate(75 83.71)"/><path class="cls-6" d="M-47.19,48.47c18.66-2,38.86,3,51.54,12.63,2,1.51,3.92,3.19,6.67,4s5.79.58,8.68.29c21.4-2.09,41.9-7.55,63.55-8.23,13.51-.42,27.05,1,40.49,2.38,40.89,4.1,82.18,7.27,123.29,6,17.69-.55,35.27-1.92,52.83-3.29L367.32,57c-19-2.63-38.37-5-57.68-4.35-19,.6-37.47,4-56.33,5.56-20.4,1.68-41.12,1.16-61.73.63C159.31,58,127,57.19,94.94,54c-12.06-1.21-24.29-2.76-36.28-1.65C45,53.59,32.55,58.25,19,60.08a19.86,19.86,0,0,1-6.57.06c-2.85-.6-4.91-2.24-7.18-3.56-6.86-4-16.2-5.15-25.06-6.17L-61,45.62a61.47,61.47,0,0,0,22.7,5.93" transform="translate(75 83.71)"/><path class="cls-6" d="M104.06,91.26c7.23-1.28,14.52-2.57,22-2.81a134,134,0,0,1,21.83,1.47,378.6,378.6,0,0,1,58.76,12.51c2.65.8,5.4,1.69,7,3.26s1.56,4-.88,5c-30.39-11.55-65.67-20.26-99.68-16.06a254.92,254.92,0,0,0-27.9,5.53l-26.79,6.37c-4.28,1-8.55,2.23-12.92,3.06-1.19.23-2.56.5-2.54-.54s2.24-2.36,3.2-3a38.69,38.69,0,0,1,6.38-3.59c6.28-2.83,14.56-4.09,21.8-5.59C84.2,94.79,94.13,93,104.06,91.26Z" transform="translate(75 83.71)"/><path class="cls-6" d="M109,100.56c20.82-4.69,47-1.87,63.87,6.91,1.35.7,2.62,2,1.14,2.56-1.24.48-2.88-.21-4-.8-6.68-3.45-15.85-4.86-24.61-6.14l-18.82-2.76a36,36,0,0,0-5.88-.53,32.45,32.45,0,0,0-6.94,1.11l-11,2.6-5.31,1.26c-1.13.27-3,1-4.22.88.24-1.3,3.85-1.93,5.59-2.41C102.2,102.32,105.52,101.35,109,100.56Z" transform="translate(75 83.71)"/><path class="cls-6" d="M212.46,99.06c-.79-1.72.65-3.61,2.8-4.63a22,22,0,0,1,7.52-1.59c11.13-.91,22.45,0,33.68.62a597.84,597.84,0,0,0,116.63-5.08c-3.81,2.09-8.62,3.2-13.39,4.11-33.35,6.36-69,5-103.86,4.71-9.92-.08-20.06,0-29.6,1.82a36.63,36.63,0,0,0-7.66,2c2.07,1.32,4.6,2.44,6.87,3.62,1.2.63,4.15,1.65,4.64,2.61-2.17.4-5.83-1.41-7.49-2.2-2.1-1-4.23-2-6.3-3C214.81,101.31,212.9,100.34,212.46,99.06Z" transform="translate(75 83.71)"/><path class="cls-6" d="M288.36,105.68c13.89.39,27.73-.55,41.51-1.49l38.23-2.6c-2.91,4.39-11.62,5-18.82,5.21-11.26.35-22.45,1.27-33.6,2.25s-22.48,2-33.81,2.67c-5.65.3-11.31.5-17,.52q-4.17,0-8.34-.1a45,45,0,0,1-7.36-.47c-3-.62-6.14-2.46-7.05-4.53-1.31-3,3.89-2.89,6.89-3,11.68-.35,23.34.84,35,1.36C285.46,105.59,286.91,105.64,288.36,105.68Z" transform="translate(75 83.71)"/></g><g class="cls-5"><path class="cls-6" d="M387.57,87.5c35.91-14.45,77-24.34,119.36-23.75,15.39.22,30.71,1.8,46,3,31.57,2.52,63.33,3.48,95,4,47.48.73,95.13.41,142-4.14-92.17,7-185.39,7.9-278.43,6.56-18.64-.27-37.44-.62-55.71,1.55-31.25,3.73-59.15,14.6-86.82,24.78A111.78,111.78,0,0,1,354.38,104c-2.17.48-9.54,2.33-7.05-1,.87-1.16,2.23-1.68,4-2.13,2.45-.63,4.86-1.34,7.23-2.1,4.78-1.53,9.39-3.28,13.93-5.1C377.53,91.66,382.51,89.54,387.57,87.5Z" transform="translate(75 83.71)"/><path class="cls-6" d="M424.58,89.23c24.69-7.84,52.58-10.37,80.12-10.72s55.13,1.4,82.7,1.68c17.71.18,35.39-.25,53.07-.68l80.42-2c25.53-.62,51.27-1.26,75.92-5.43-18.38-1.39-36.38,2.73-54.67,4.06-10.1.73-20.33.6-30.51.58C664.27,76.64,617,78.71,569.89,81q-55,2.61-110.06,5.51c-10,.52-20.14,1.09-29.3,3.67-10.74,3-19.41,8.47-29.92,11.8-1.2.38-5.63,2.26-6.93,1.77-1.06-.4.05-1.65.44-2.1,2.48-2.95,7.46-4.08,11.67-5.65C412,93.65,418.16,91.27,424.58,89.23Z" transform="translate(75 83.71)"/><path class="cls-6" d="M535.56,87.6c17,.77,33.81,3,50.79,3.56,15,.48,30.06-.4,45-1.3q83.25-5,166.28-11.3c-22.85,7.68-49.11,9.81-74.89,10.24s-51.7-.69-77.33,1c-10.19.66-20.38,1.76-30.64,1.3-7.66-.34-15.19-1.55-22.76-2.49a335.36,335.36,0,0,0-94.8,1.64c-14.15,2.3-27.89,5.53-41.69,8.56-6.89,1.52-13.81,3-20.81,4.28q-5.31,1-10.68,1.8c-1.62.25-4.84,1.22-6.26.13-2.29-1.77,1.13-5.28,3.32-6.22,2.55-1.1,6.15-1.49,9.06-2,3.62-.64,7.27-1.23,10.91-1.82,14.57-2.36,29.26-4.44,44.14-5.84A369.3,369.3,0,0,1,530,87.4C531.87,87.44,533.71,87.51,535.56,87.6Z" transform="translate(75 83.71)"/><path class="cls-6" d="M365,49.45c18.65-2,38.86,3,51.54,12.63,2,1.51,3.92,3.19,6.67,4a23.58,23.58,0,0,0,8.68.29c21.4-2.1,41.9-7.55,63.55-8.23,13.51-.42,27.05,1,40.49,2.38,40.89,4.1,82.18,7.27,123.29,6,17.69-.54,35.27-1.91,52.82-3.28L779.5,58c-19-2.64-38.37-5-57.67-4.35-19,.59-37.47,4-56.33,5.56-20.4,1.68-41.12,1.15-61.73.63C571.5,59,539.15,58.17,507.13,55c-12.06-1.21-24.29-2.76-36.28-1.65-13.7,1.27-26.11,5.93-39.65,7.75a19.59,19.59,0,0,1-6.57.06c-2.85-.59-4.91-2.23-7.18-3.55-6.86-4-16.21-5.15-25.06-6.18L351.17,46.6a61.57,61.57,0,0,0,22.71,5.93" transform="translate(75 83.71)"/><path class="cls-6" d="M516.25,92.24a155.72,155.72,0,0,1,22-2.82,135,135,0,0,1,21.83,1.48,377.57,377.57,0,0,1,58.77,12.51c2.64.79,5.4,1.69,7,3.26s1.56,4-.88,5c-30.4-11.55-65.67-20.27-99.68-16.06a254.46,254.46,0,0,0-27.9,5.53l-26.79,6.36c-4.28,1-8.55,2.23-12.92,3.07-1.19.23-2.56.5-2.54-.54s2.23-2.36,3.2-3a39,39,0,0,1,6.37-3.59c6.29-2.83,14.57-4.09,21.81-5.59C496.39,95.77,506.32,94,516.25,92.24Z" transform="translate(75 83.71)"/><path class="cls-6" d="M521.19,101.54c20.82-4.7,47-1.87,63.87,6.91,1.35.7,2.62,2,1.14,2.56-1.24.47-2.88-.22-4-.81-6.67-3.44-15.84-4.85-24.6-6.13l-18.82-2.76a36,36,0,0,0-5.88-.53,32.45,32.45,0,0,0-6.94,1.1l-11,2.6-5.31,1.26c-1.13.27-3,1-4.22.89.24-1.31,3.85-1.93,5.59-2.41C514.39,103.29,517.71,102.32,521.19,101.54Z" transform="translate(75 83.71)"/><path class="cls-6" d="M624.65,100c-.79-1.73.65-3.61,2.8-4.64A22.23,22.23,0,0,1,635,93.82c11.13-.91,22.45,0,33.68.61a597.06,597.06,0,0,0,116.63-5.08c-3.81,2.1-8.62,3.21-13.39,4.12-33.35,6.36-69,5-103.86,4.71-9.92-.08-20.06-.05-29.6,1.81a36.46,36.46,0,0,0-7.66,2c2.07,1.33,4.6,2.44,6.86,3.63,1.21.63,4.16,1.64,4.65,2.6-2.17.41-5.83-1.4-7.49-2.2-2.1-1-4.23-2-6.31-3C627,102.29,625.09,101.32,624.65,100Z" transform="translate(75 83.71)"/><path class="cls-6" d="M700.55,106.66c13.89.39,27.73-.55,41.51-1.49l38.23-2.6c-2.92,4.38-11.62,5-18.82,5.21-11.26.35-22.45,1.27-33.6,2.25s-22.49,2-33.81,2.66c-5.65.31-11.32.51-17,.53-2.77,0-5.55,0-8.33-.11a45,45,0,0,1-7.36-.46c-3-.62-6.14-2.47-7-4.53-1.31-3,3.89-2.89,6.89-3,11.68-.35,23.34.84,35,1.36C697.65,106.56,699.1,106.62,700.55,106.66Z" transform="translate(75 83.71)"/></g><path class="cls-9" d="M404.49,73c3.06-1,6.22-2.07,8.42-4.39a3.35,3.35,0,0,0,.93-1.56c.24-1.31-1-2.51-2.24-2.88a16.11,16.11,0,0,0-4-.21c-3.32-.12-6.37-1.76-9.34-3.25a135.06,135.06,0,0,0-18.94-7.78c-.44,2,1.61,3.59,3.43,4.53,6.88,3.59,14.75,6.33,19.22,12.68a1.14,1.14,0,0,1,.29.93c-.09.33-.44.5-.75.63-3.17,1.31-6.6,2.08-9.67,3.64-1.47.74.77.84,1.4.75a50.07,50.07,0,0,0,5.23-1.33Q401.51,73.94,404.49,73Z" transform="translate(75 83.71)"/></g><g class="cls-10"><rect class="cls-4" x="73.84" y="188.95" width="736.95" height="52.62"/><g class="cls-5"><path class="cls-6" d="M-17.77,120.14c-3.17,0,.94-.87,4.06-.74,53.6,2.29,107.37-1.78,154.57-6.66S234,102,287.29,100.25c10.76-.35,19.38-1.44,29.51-.51-49-1.59-97.32,1.89-140.75,6.09s-85.59,9.25-133.54,11.11c-17.51.68-37.25.84-52.39-1.2" transform="translate(75 83.71)"/><path class="cls-6" d="M-9.48,128c-3.17,0,.94-.88,4.06-.75,53.6,2.29,107.38-1.77,154.58-6.66s93.16-10.76,146.42-12.49c10.77-.35,19.39-1.43,29.52-.51-49-1.58-97.32,1.9-140.75,6.1S98.76,123,50.8,124.82c-17.5.68-37.25.84-52.38-1.19" transform="translate(75 83.71)"/><path class="cls-6" d="M-21.94,111.4c-3.16,0,.94-.88,4.06-.75C35.73,112.94,89.5,108.88,136.7,104S229.86,93.23,283.13,91.5c10.76-.35,19.38-1.43,29.51-.51-49-1.58-97.32,1.9-140.75,6.1s-85.59,9.24-133.54,11.1C20.84,108.88,1.09,109-14,107" transform="translate(75 83.71)"/><path class="cls-6" d="M377.65,113.22l48,6.3c3.21.42,6.57.88,9.06,2.16,4.44,2.28,4.5,6.55,1.58,9.57s-8.12,5-13.32,6.63c-14.34,4.49-30.13,7.1-45.9,9.36a269.37,269.37,0,0,1-31.51,3.08,281,281,0,0,1-30-1.32c-28.88-2.42-58.17-5.86-83.42-14.46-3.06-1-6.41-2.54-6.3-4.61.07-1.5,2-2.72,3.81-3.73,16.77-9.23,40.23-14.07,63.1-13q-18.68,3.09-36.78,7.24c-5.92,1.36-12.18,3-15.43,6.21-1.57,1.55-2.2,3.66-.32,5.08a12.25,12.25,0,0,0,3.81,1.54l31.27,8.94a128.36,128.36,0,0,0,18,4.19,146.12,146.12,0,0,0,18.06.92c20.83.2,41.83.39,62.3-1.91,14.31-1.6,29.57-5.08,36.25-12.71,1.71-2,2.75-4.33,1.33-6.38-2.27-3.26-9.27-4.1-15.17-4.67a295.69,295.69,0,0,1-41.87-7c-6.78-1.66-13.44-3.53-19.84-5.65-1.24-.41-1.94-.73-.17-1,1.6-.24,3.74.26,5.32.44q5.88.68,11.76,1.41C360,110.91,368.84,112.07,377.65,113.22Z" transform="translate(75 83.71)"/><path class="cls-6" d="M314.23,114.58c5.91,1.3,11.64,3,17.9,3.53,3.93.31,7.92.11,11.88.26s8.1.68,12.1,1.21l14.74,1.94c6.29.83,13,1.82,17.25,4.69,4.76,3.23,4.73,8.56-.07,11.77-4.65,3.13-12.21,4-19.17,4.59l-12.76,1.16c-2.68.25-5.37.49-8.08.58-3.37.11-6.75,0-10.12-.17l-16.2-.67c-7.49-.3-15.08-.62-22.17-2.08-5.81-1.2-11.13-3.14-17-4.19-8.87-1.58-19.6-1.37-25.65-5.51a2.09,2.09,0,0,1-.74-.7c-.21-.43.06-.89.33-1.32,1.12-1.8,2.49-3.76,5.41-4.6a30,30,0,0,1,4.75-.67,65.09,65.09,0,0,0,7.26-1.33c7-1.57,14.1-3.18,19.8-6,11.44,2.27,23.2,4,35.11,5.21,4.89.49,10.24,1,13.52,3.2-2,0-3.94-.06-5.91-.16l-9.66-.48a138.33,138.33,0,0,1-17.29-1.59c-6.63-1.17-13.26-3.34-20-2.52-7.13.86-12,4.76-18.66,6.52-2.09.55-4.34.89-6.35,1.53s-3.84,1.68-4.2,3a201.25,201.25,0,0,0,22.43,5.44c7.91,1.4,16.08,2.22,24.22,3,7.57.75,15.15,1.51,22.78,2a244.81,244.81,0,0,0,27.09.22c7-.35,14.41-1.17,19.72-3.91,4.55-2.36,7.05-6.11,6-9.62s-5.8-6.62-11.73-7.35c-9.38-1.16-18.88,3.32-28.21,2-6.33-.87-10.92-4.2-17.1-5.38-5-1-10.51-.41-15.53-1.3-3.92-.7-7.25-2.2-11.16-2.91-.6-.11-2.13-.14-1.13-.55a11.5,11.5,0,0,1,3-.32,40.63,40.63,0,0,1,6.53.23A68.78,68.78,0,0,1,314.23,114.58Z" transform="translate(75 83.71)"/><path class="cls-6" d="M366.45,128.32a7.9,7.9,0,0,1,2.5,1.24,2.46,2.46,0,0,1,.37,3.28c-1.8,3.21-7.38,5.21-13,6-12,1.69-24.48-1-36.82-.82-4.2,0-8.55.4-12.5-.45s-7-2.82-11-3.55c-2.71-.5-6.5-.9-6.55-2.57,0-1.46,3.08-2.13,5.55-2.17a103.22,103.22,0,0,1,11.81.86,219.31,219.31,0,0,0,46.32-.25,9,9,0,0,1,3.14,0c1.71.45,2.09,1.88,1.22,2.85s-2.6,1.56-4.28,2a66.64,66.64,0,0,1-27.92,1.36c9.73-.18,20-.46,28.17-3.62-5.66-.95-11.62.29-17.41.92a83.47,83.47,0,0,1-15.65.21c-8.55-.69-17.33-2.68-25.51-1.08l15,5a44.61,44.61,0,0,0,6.75,1.87,59.41,59.41,0,0,0,8.8.57q6.45.15,12.85.62c5.62.42,11.26,1,16.9.73s11.42-1.68,14.6-4.44,2.77-7-1.85-9c-3.89-1.63-9.15-1.27-13.64-1.17a18.9,18.9,0,0,1-3.51,0c-.28-.26.78-.61,1.1-.69a12.16,12.16,0,0,1,3.3,0c1.22.07,2.43.2,3.62.37s2.65.43,3.93.73c.66.16,1.32.33,2,.52A9.14,9.14,0,0,0,366.45,128.32Z" transform="translate(75 83.71)"/><path class="cls-6" d="M38.86,136.55C83.14,132,126.7,124.8,171.44,122.27c22.49-1.27,45.53-1.4,66.9-5.73l-20.21,8.31c-2,.85-4.21,1.77-5.15,3.14-1.47,2.17.65,4.59,3.05,6.45,10.06,7.78,25.8,12.36,41.82,14.9s32.68,3.29,49,5c8.05.83,16.06,1.88,24.22,2.18,8.52.31,17.07-.22,25.56-.75,19.12-1.2,38.54-2.49,56.22-6.94s33.68-12.58,39.23-23.43c.86-1.66,1.44-3.51.27-5.11-1.77-2.42-6.69-3.32-11-4L404.75,111c-12.13-1.76-25.4-4-32.28-10.12,20.91,11.57,53.84,10,80.31,16.53,4.3,1,9,2.8,9.31,5.54.15,1.33-.82,2.6-1.83,3.78-8.16,9.56-21.1,17.68-36.77,23.07-27,9.31-59.86,10.15-91.16,9.9-38.76-.31-79-2.16-112.8-13.34-5-1.66-10.1-3.67-12.64-6.72-3.82-4.58-.65-10.34,5.3-14.06s14.13-5.86,22.08-7.9c-14.18-.1-26.64,5.25-40.27,7.56-10.56,1.8-21.73,1.74-32.69,2.3-6.79.35-13.55.94-20.25,1.67s-13.47,1.64-20.16,2.6-13.39,2-20.07,3.05-13.31,2-20,3-13.25,1.77-19.95,2.44S47.63,141.44,41,141.67s-13.34.21-20-.16A129.34,129.34,0,0,1,.67,139.16c-2.67-.59.13-1.59,1.7-1.81a18,18,0,0,1,4.15.22c1.8.17,3.61.28,5.43.34A169.39,169.39,0,0,0,33.81,137C35.5,136.89,37.18,136.72,38.86,136.55Z" transform="translate(75 83.71)"/><path class="cls-6" d="M7.33,147.19c3.08,2.09,8.32,2.4,13,2.43,36.58.2,71.52-8.15,107.25-12.77,15.95-2.06,32.14-3.38,48.3-4.69l20.76-1.7A534.92,534.92,0,0,1,97.13,145.2c-7.5.41-15,.67-22.46,1.48-8.12.9-16,2.45-24.1,3.44a178.11,178.11,0,0,1-49.79-1" transform="translate(75 83.71)"/><path class="cls-6" d="M31.35,158.5c32.31,1.41,63.47-6.79,95.64-9.1,8.55-.61,17.18-.8,25.68-1.62a153.67,153.67,0,0,0,39.78-9.09c-1,1.62-3.7,2.64-6.23,3.52-9.13,3.19-18.5,6.27-28.69,8-6.25,1.08-12.72,1.63-19.17,2.18q-49.52,4.23-99.18,7.9" transform="translate(75 83.71)"/><path class="cls-6" d="M139.67,158c5.44-3.53,14.76-3.35,22.38-5,9.13-1.93,16.64-6.69,26.34-6.93,8.53-.22,16,3.15,24,4.87,3.38.72,6.93,1.16,10.43,1.67a229.84,229.84,0,0,1,27.61,5.71c2.34.64,4.94,1.55,5.25,3.06-4.43.49-8.8-.8-12.83-2a396,396,0,0,0-48.2-10.92,39.41,39.41,0,0,0-8.83-.73c-5.4.33-9.76,2.64-13.94,4.68-7.31,3.57-16,6.79-25.47,6.59-5.33-.12-11.31-1.22-15.56.68" transform="translate(75 83.71)"/><path class="cls-6" d="M179.07,155.14a19.49,19.49,0,0,1,6.59-1.67,24.9,24.9,0,0,1,4.89.52,111.42,111.42,0,0,0,19.14,1.44c3.82-.05,7.93-.24,11.13,1,2,.79,3.44,2.11,3.74,3.53-3,.9-6.44-.35-9.69-.83-5.1-.75-10.76.46-15.58-.76-3-.76-5.28-2.38-8.42-2.9-3.52-.57-7.19.37-10.5,1.29l-6,1.68c-.77.22-3.43,1.24-4.32.57-.59-.44,2.8-1.43,3.48-1.69Z" transform="translate(75 83.71)"/></g><g class="cls-5"><path class="cls-6" d="M450.11,144.54c26.17-15.5,56.29-26.6,87.53-27.25,11.36-.24,22.7.9,34,1.67,23.35,1.59,46.8,1.62,70.21,1.18,35-.66,70.19-2.39,104.63-8.31-67.85,9.72-136.59,13.34-205.26,14.73-13.76.28-27.63.48-41.06,3.19-23,4.64-43.33,16.33-63.51,27.31a69.38,69.38,0,0,1-10.7,5c-1.59.55-7,2.61-5.22-.8a4.86,4.86,0,0,1,2.88-2.25c1.8-.7,3.56-1.48,5.29-2.31,3.5-1.67,6.86-3.55,10.17-5.5C442.79,149,446.42,146.72,450.11,144.54Z" transform="translate(75 83.71)"/><path class="cls-6" d="M477.45,145.18c18-8.56,38.56-11.92,58.87-13.07s40.7-.22,61-.75c13.07-.34,26.11-1.29,39.14-2.24l59.28-4.32c18.82-1.37,37.8-2.76,55.89-7.65-13.58-.85-26.78,3.8-40.24,5.66a222.08,222.08,0,0,1-22.5,1.47C654,125.56,619.2,129,584.46,132.63q-40.56,4.23-81.07,8.74c-7.35.82-14.83,1.68-21.53,4.53-7.86,3.34-14.14,9-21.82,12.68-.88.41-4.11,2.42-5.08,2-.79-.37,0-1.65.28-2.12,1.77-3,5.41-4.29,8.49-6C468.26,150,472.75,147.4,477.45,145.18Z" transform="translate(75 83.71)"/><path class="cls-6" d="M559.28,140.29c12.54.27,25,2,37.55,2.07,11.11,0,22.16-1.28,33.17-2.63q61.31-7.47,122.43-16.17c-16.7,8.35-36,11.24-55,12.44s-38.16.83-57,3.24c-7.51,1-15,2.36-22.58,2.2-5.66-.12-11.24-1.11-16.84-1.83A184.11,184.11,0,0,0,531.05,144c-10.39,2.72-20.45,6.35-30.56,9.79-5.06,1.71-10.13,3.39-15.27,4.89-2.59.75-5.2,1.46-7.83,2.11-1.2.29-3.55,1.36-4.62.31-1.73-1.7.72-5.31,2.31-6.32,1.86-1.17,4.51-1.67,6.65-2.27,2.65-.75,5.33-1.45,8-2.14,10.69-2.78,21.48-5.3,32.43-7.14a203.94,203.94,0,0,1,33-3C556.55,140.24,557.92,140.26,559.28,140.29Z" transform="translate(75 83.71)"/><path class="cls-6" d="M432.63,107.16c13.72-2.52,28.73,1.83,38.3,11.11,1.49,1.46,2.95,3.08,5,3.79a12.88,12.88,0,0,0,6.41,0c15.74-2.72,30.75-8.77,46.7-10.09,10-.82,20,.24,29.93,1.19,30.25,2.9,60.78,4.85,91.08,2.37,13-1.06,26-2.95,38.9-4.83l49.65-7.23c-14.1-2.07-28.41-3.83-42.64-2.66-14,1.16-27.56,5.12-41.44,7.22-15,2.27-30.31,2.36-45.53,2.44-23.82.13-47.7.25-71.39-2-8.92-.86-18-2-26.8-.58-10.08,1.67-19.13,6.69-29.08,8.91a10.93,10.93,0,0,1-4.85.25c-2.11-.51-3.67-2.09-5.37-3.34-5.15-3.77-12.07-4.67-18.62-5.44l-30.51-3.57A35.94,35.94,0,0,0,439.25,110" transform="translate(75 83.71)"/><path class="cls-6" d="M545.14,145.49A87.4,87.4,0,0,1,561.33,142a73.36,73.36,0,0,1,16.14.84,214.23,214.23,0,0,1,43.62,10.78c2,.71,4,1.52,5.26,3s1.24,4-.55,5c-22.67-10.65-48.88-18.33-73.88-13.13a148.69,148.69,0,0,0-20.46,6.35l-19.63,7.15c-3.13,1.14-6.25,2.48-9.46,3.44-.87.26-1.88.58-1.88-.46s1.59-2.43,2.29-3.13a28.21,28.21,0,0,1,4.62-3.78c4.58-3,10.66-4.52,16-6.23C530.56,149.61,537.85,147.55,545.14,145.49Z" transform="translate(75 83.71)"/><path class="cls-6" d="M549,154.64c15.26-5.3,34.61-3.24,47.27,5,1,.67,2,1.93.9,2.54-.91.5-2.13-.14-3-.69-5-3.25-11.8-4.39-18.29-5.42l-13.94-2.2a19.82,19.82,0,0,0-4.35-.36,18.67,18.67,0,0,0-5.1,1.31l-8,2.92-3.9,1.42c-.82.3-2.19,1.07-3.09,1,.15-1.31,2.8-2,4.07-2.57C544,156.6,546.43,155.53,549,154.64Z" transform="translate(75 83.71)"/><path class="cls-6" d="M625.27,150.11c-.62-1.7.4-3.63,2-4.72a12.91,12.91,0,0,1,5.51-1.8c8.19-1.24,16.56-.65,24.86-.37a328.33,328.33,0,0,0,85.93-8.51c-2.77,2.21-6.29,3.46-9.79,4.51-24.46,7.34-50.77,7-76.52,7.76-7.32.21-14.8.53-21.79,2.68a22,22,0,0,0-5.61,2.25c1.56,1.27,3.45,2.31,5.14,3.42.9.6,3.11,1.53,3.48,2.47-1.58.47-4.32-1.23-5.57-2-1.57-.94-3.16-1.86-4.71-2.84C627.06,152.29,625.62,151.38,625.27,150.11Z" transform="translate(75 83.71)"/><path class="cls-6" d="M681.41,154.5c10.25,0,20.44-1.37,30.59-2.71l28.14-3.72c-2,4.47-8.46,5.32-13.77,5.76-8.3.68-16.53,1.93-24.73,3.23s-16.55,2.71-24.89,3.66c-4.16.47-8.34.84-12.52,1-2.05.09-4.11.14-6.16.13a24,24,0,0,1-5.43-.25,7.72,7.72,0,0,1-5.3-4.31c-1-2.93,2.8-3,5-3.19,8.6-.69,17.23.16,25.84.34Q679.81,154.5,681.41,154.5Z" transform="translate(75 83.71)"/></g></g></g></svg>