<svg id="Layer_1" data-name="Layer 1" xmlns="http://www.w3.org/2000/svg" xmlns:xlink="http://www.w3.org/1999/xlink" viewBox="0 0 1280.69 875.77"><defs><style>.cls-1{fill:none;}.cls-2{fill:#fff;opacity:0.5;}.cls-3{clip-path:url(#clip-path);}.cls-4{fill:#e0b278;}.cls-5,.cls-9{opacity:0.53;}.cls-6,.cls-9{fill:#cc8557;}.cls-7{clip-path:url(#clip-path-2);}.cls-8{clip-path:url(#clip-path-3);}.cls-10{clip-path:url(#clip-path-4);}</style><clipPath id="clip-path" transform="translate(109.33 122.33)"><rect class="cls-1" x="-1.69" y="-0.31" width="1074.29" height="76.71"/></clipPath><clipPath id="clip-path-2" transform="translate(109.33 122.33)"><rect class="cls-1" x="-1.69" y="76.4" width="1074.29" height="76.71"/></clipPath><clipPath id="clip-path-3" transform="translate(109.33 122.33)"><rect class="cls-1" x="-3.67" y="76.4" width="1074.29" height="76.71"/></clipPath><clipPath id="clip-path-4" transform="translate(109.33 122.33)"><rect class="cls-1" x="-1.69" y="153.11" width="1074.29" height="76.71"/></clipPath></defs><path class="cls-2" d="M499.94,718.9s33.33,27.52,36.69,34.55l3.44-6,6.19-1.15,2.53-5.73,4.81-2.3s-27.29-29.12-39.67-32.79l-1.3,3.9-6.72,2,.15,4.43Z" transform="translate(109.33 122.33)"/><g class="cls-3"><rect class="cls-4" x="107.64" y="122.02" width="1074.29" height="76.71"/><g class="cls-5"><path class="cls-6" d="M-25.91,21.41c-4.62-.06,1.37-1.27,5.92-1.08,78.14,3.33,156.53-2.59,225.33-9.71S341.15-5.07,418.79-7.59c15.69-.51,28.26-2.09,43-.75C390.41-10.65,320-5.57,256.64.55S131.87,14,62,16.74C36.45,17.74,7.66,18-14.4,15" transform="translate(109.33 122.33)"/><path class="cls-6" d="M-13.82,32.9c-4.61,0,1.37-1.27,5.92-1.08,78.14,3.34,156.53-2.59,225.33-9.71S353.24,6.43,430.88,3.91c15.69-.51,28.26-2.1,43-.75C402.5.85,332,5.92,268.73,12.05S144,25.52,74.06,28.24c-25.52,1-54.31,1.22-76.37-1.75" transform="translate(109.33 122.33)"/><path class="cls-6" d="M-32,8.66c-4.61-.06,1.37-1.27,5.92-1.08C52.08,10.92,130.47,5,199.27-2.13S335.08-17.82,412.72-20.34c15.69-.51,28.26-2.09,43-.74-71.4-2.31-141.87,2.76-205.18,8.89S125.8,1.28,55.9,4C30.38,5,1.59,5.22-20.46,2.25" transform="translate(109.33 122.33)"/><path class="cls-6" d="M550.52,11.33l69.91,9.17c4.68.61,9.58,1.29,13.2,3.15,6.47,3.33,6.57,9.56,2.3,14s-11.82,7.29-19.41,9.67c-20.9,6.55-43.91,10.35-66.92,13.64-15.11,2.15-30.4,4.11-45.93,4.49-14.64.35-29.27-.71-43.78-1.93-42.1-3.52-84.8-8.53-121.61-21.07-4.45-1.52-9.34-3.7-9.18-6.73.11-2.17,2.86-4,5.56-5.43,24.45-13.45,58.64-20.51,92-19Q399.41,15.74,373,21.79c-8.62,2-17.75,4.36-22.49,9.05-2.28,2.26-3.21,5.33-.46,7.4a17.76,17.76,0,0,0,5.55,2.25l45.59,13c8.48,2.42,17.05,4.86,26.23,6.11C436,60.8,444.94,60.89,453.77,61c30.36.29,61,.57,90.81-2.78,20.86-2.34,43.11-7.4,52.84-18.53,2.5-2.87,4-6.32,1.94-9.3-3.31-4.75-13.51-6-22.11-6.8a434.13,434.13,0,0,1-61-10.2c-9.89-2.41-19.6-5.14-28.92-8.24-1.81-.6-2.83-1.06-.25-1.45,2.33-.36,5.45.37,7.75.64q8.58,1,17.14,2.05C524.82,8,537.67,9.64,550.52,11.33Z" transform="translate(109.33 122.33)"/><path class="cls-6" d="M458.06,13.31c8.62,1.89,17,4.43,26.09,5.14,5.74.45,11.56.16,17.33.38,6,.22,11.81,1,17.63,1.76l21.49,2.83c9.17,1.21,19,2.65,25.15,6.83,6.93,4.72,6.89,12.48-.1,17.17-6.78,4.55-17.8,5.75-27.95,6.68l-18.6,1.7c-3.91.36-7.83.71-11.78.84-4.91.16-9.84,0-14.75-.25l-23.62-1c-10.92-.44-22-.91-32.31-3-8.47-1.75-16.23-4.57-24.82-6.1-12.93-2.31-28.56-2-37.39-8a3.12,3.12,0,0,1-1.07-1c-.3-.63.09-1.3.47-1.91,1.64-2.63,3.63-5.5,7.9-6.72a43.53,43.53,0,0,1,6.92-1,92.78,92.78,0,0,0,10.58-1.95c10.17-2.28,20.55-4.63,28.86-8.77,16.69,3.32,33.82,5.86,51.19,7.6,7.13.71,14.92,1.48,19.7,4.67-2.87,0-5.74-.09-8.61-.23l-14.08-.71c-8.49-.43-17.05-.86-25.21-2.31-9.66-1.72-19.33-4.87-29.21-3.68-10.4,1.25-17.53,6.94-27.21,9.5-3,.81-6.32,1.3-9.25,2.23s-5.6,2.46-6.12,4.4A290.2,290.2,0,0,0,412,46.31c11.53,2,23.44,3.23,35.3,4.42,11,1.11,22.08,2.21,33.22,2.89A358.4,358.4,0,0,0,520,54c10.26-.51,21-1.71,28.76-5.71,6.64-3.43,10.27-8.89,8.75-14S549,24.57,540.39,23.5c-13.68-1.69-27.53,4.85-41.13,3-9.22-1.27-15.92-6.13-24.93-7.85C467.06,17.23,459,18,451.7,16.73c-5.72-1-10.58-3.21-16.28-4.25-.87-.16-3.1-.2-1.63-.79a16.46,16.46,0,0,1,4.34-.48,60.29,60.29,0,0,1,9.51.34A99.75,99.75,0,0,1,458.06,13.31Z" transform="translate(109.33 122.33)"/><path class="cls-6" d="M534.18,33.33a11.54,11.54,0,0,1,3.65,1.81c1.58,1.37,1.43,3.21.55,4.79-2.64,4.68-10.76,7.58-18.9,8.73-17.49,2.46-35.69-1.39-53.68-1.2-6.12.06-12.46.57-18.21-.66s-10.24-4.1-16.09-5.17c-3.94-.73-9.48-1.32-9.54-3.75-.06-2.13,4.49-3.11,8.09-3.16A151.68,151.68,0,0,1,447.26,36a319.46,319.46,0,0,0,67.52-.35,13,13,0,0,1,4.58,0c2.49.64,3.06,2.73,1.78,4.15s-3.78,2.28-6.24,3a97,97,0,0,1-40.7,2c14.19-.26,29.2-.67,41.06-5.27-8.25-1.39-16.93.42-25.37,1.34a120.78,120.78,0,0,1-22.82.31c-12.45-1-25.26-3.91-37.18-1.57l21.85,7.31a65.49,65.49,0,0,0,9.84,2.73,89,89,0,0,0,12.83.83c6.26.14,12.52.44,18.73.9,8.19.62,16.42,1.51,24.63,1.07s16.65-2.45,21.28-6.48,4-10.26-2.69-13.08C530.69,30.43,523,31,516.48,31.11c-.68,0-4.79.36-5.12.06s1.13-.91,1.61-1a17.61,17.61,0,0,1,4.81,0c1.78.11,3.54.29,5.27.54,2,.27,3.87.63,5.73,1.07,1,.23,1.92.48,2.85.76A14,14,0,0,0,534.18,33.33Z" transform="translate(109.33 122.33)"/><path class="cls-6" d="M56.65,45.32c64.54-6.64,128-17.11,193.26-20.8,32.79-1.86,66.37-2,97.52-8.36L318,28.27c-3,1.24-6.15,2.58-7.5,4.58-2.15,3.16.94,6.69,4.44,9.4,14.65,11.34,37.61,18,61,21.73s47.63,4.8,71.46,7.24c11.73,1.2,23.41,2.74,35.3,3.17,12.43.45,24.88-.31,37.27-1.09,27.86-1.74,56.18-3.63,82-10.11S651,44.86,659.05,29c1.24-2.43,2.09-5.12.39-7.45-2.58-3.53-9.75-4.85-16.08-5.77L590,8.1c-17.68-2.56-37-5.79-47-14.75C573.44,10.21,621.45,8,660,17.44c6.26,1.54,13.13,4.08,13.57,8.08.21,1.93-1.19,3.79-2.67,5.52C659,45,640.18,56.8,617.34,64.66,578,78.23,530.07,79.45,484.46,79.09,428,78.64,369.3,76,320,59.64c-7.33-2.42-14.72-5.34-18.42-9.79-5.58-6.68-1-15.08,7.72-20.5s20.59-8.54,32.18-11.51c-20.67-.15-38.83,7.65-58.7,11-15.4,2.62-31.68,2.54-47.65,3.35-9.9.51-19.75,1.36-29.52,2.44S186,37,176.25,38.44,156.73,41.37,147,42.88s-19.41,3-29.17,4.35S98.5,49.8,88.73,50.78c-9.61,1-19.3,1.68-29,2s-19.46.3-29.14-.23C20.72,52,10.27,51.19,1,49.14c-3.89-.86.19-2.33,2.49-2.64a26,26,0,0,1,6,.32c2.62.24,5.27.4,7.92.5a250.61,250.61,0,0,0,31.87-1.27Q53,45.71,56.65,45.32Z" transform="translate(109.33 122.33)"/><path class="cls-6" d="M10.69,60.84c4.49,3,12.12,3.5,19,3.54C83,64.68,133.9,52.5,186,45.77c23.24-3,46.84-4.93,70.41-6.85l30.26-2.46A779.82,779.82,0,0,1,141.59,57.94c-10.94.59-21.94,1-32.74,2.16-11.84,1.3-23.33,3.57-35.13,5A259,259,0,0,1,1.14,63.69" transform="translate(109.33 122.33)"/><path class="cls-6" d="M45.7,77.33c47.1,2,92.52-9.91,139.41-13.26,12.47-.89,25.06-1.18,37.45-2.38a223.83,223.83,0,0,0,58-13.24c-1.48,2.37-5.4,3.84-9.09,5.13-13.31,4.65-27,9.15-41.83,11.7-9.11,1.57-18.54,2.39-27.93,3.19Q129.51,74.62,57.12,80" transform="translate(109.33 122.33)"/><path class="cls-6" d="M203.6,76.63c7.93-5.15,21.52-4.88,32.62-7.23,13.32-2.81,24.27-9.75,38.4-10.11,12.44-.31,23.28,4.59,35,7.1,4.94,1.06,10.11,1.69,15.21,2.43a335,335,0,0,1,40.25,8.34c3.41.93,7.21,2.25,7.65,4.45-6.45.72-12.83-1.16-18.7-2.89A577.48,577.48,0,0,0,283.75,62.8a58.19,58.19,0,0,0-12.87-1.06c-7.88.49-14.23,3.85-20.33,6.83-10.65,5.2-23.31,9.89-37.12,9.6-7.77-.17-16.49-1.78-22.68,1" transform="translate(109.33 122.33)"/><path class="cls-6" d="M261,72.43a28.62,28.62,0,0,1,9.6-2.44,36.87,36.87,0,0,1,7.13.76,160.33,160.33,0,0,0,27.91,2.09c5.56-.06,11.56-.34,16.22,1.45,3,1.13,5,3.07,5.44,5.14-4.36,1.31-9.37-.52-14.12-1.21-7.42-1.09-15.68.66-22.71-1.12-4.37-1.11-7.69-3.47-12.27-4.22-5.14-.84-10.49.54-15.3,1.88l-8.79,2.45c-1.12.31-5,1.81-6.29.83C247,77.4,252,76,252.93,75.57Z" transform="translate(109.33 122.33)"/></g><g class="cls-5"><path class="cls-6" d="M656.14,57c38.15-22.59,82.06-38.77,127.6-39.72,16.56-.34,33.08,1.32,49.61,2.44,34,2.31,68.21,2.36,102.34,1.71,51.08-1,102.32-3.47,152.52-12.1C989.31,23.47,889.1,28.74,789,30.76c-20.06.41-40.28.7-59.86,4.66-33.49,6.77-63.15,23.8-92.58,39.81A102,102,0,0,1,621,82.48c-2.32.79-10.18,3.79-7.6-1.17.9-1.74,2.33-2.55,4.2-3.28,2.62-1,5.19-2.16,7.71-3.37,5.1-2.43,10-5.18,14.82-8C645.47,63.46,650.76,60.16,656.14,57Z" transform="translate(109.33 122.33)"/><path class="cls-6" d="M696,57.9c26.3-12.47,56.21-17.36,85.82-19s59.33-.32,89-1.09c19.05-.5,38.05-1.89,57.05-3.27l86.42-6.29c27.43-2,55.09-4,81.47-11.16-19.8-1.24-39,5.54-58.66,8.25-10.85,1.5-21.84,1.75-32.8,2.15C953.35,29.3,902.63,34.35,852,39.62q-59.12,6.16-118.18,12.74c-10.71,1.19-21.62,2.44-31.39,6.6C691,63.83,681.81,72.13,670.61,77.44c-1.27.6-6,3.54-7.4,2.87-1.14-.54,0-2.4.41-3.08,2.58-4.4,7.89-6.27,12.37-8.72C682.6,64.88,689.15,61.15,696,57.9Z" transform="translate(109.33 122.33)"/><path class="cls-6" d="M815.28,50.78c18.28.4,36.45,3,54.74,3,16.19.05,32.31-1.87,48.36-3.83q89.37-10.9,178.46-23.57c-24.33,12.16-52.5,16.39-80.21,18.13S961,45.73,933.5,49.25c-10.94,1.39-21.87,3.44-32.92,3.2-8.24-.17-16.38-1.6-24.54-2.66a268.24,268.24,0,0,0-101.91,6.45c-15.14,4-29.81,9.24-44.55,14.26-7.37,2.5-14.76,5-22.25,7.13q-5.67,1.65-11.43,3.07c-1.74.43-5.16,2-6.72.46-2.52-2.48,1-7.75,3.37-9.21,2.71-1.71,6.57-2.43,9.68-3.31,3.88-1.09,7.78-2.11,11.68-3.12,15.59-4.06,31.32-7.73,47.27-10.4a296.15,296.15,0,0,1,48.14-4.4Q812.3,50.71,815.28,50.78Z" transform="translate(109.33 122.33)"/><path class="cls-6" d="M630.66,2.49c20-3.68,41.88,2.67,55.83,16.2,2.18,2.12,4.31,4.48,7.29,5.52s6.25.6,9.35.06c22.94-4,44.82-12.8,68.08-14.71,14.52-1.2,29.12.34,43.62,1.73,44.1,4.22,88.6,7.08,132.77,3.46,19-1.55,37.86-4.3,56.71-7l72.37-10.54c-20.55-3-41.42-5.58-62.16-3.88C994.09-5,974.35.75,954.12,3.81c-21.88,3.32-44.18,3.44-66.36,3.56-34.73.19-69.55.37-104.08-2.94-13-1.25-26.21-3-39.07-.86-14.69,2.44-27.89,9.76-42.39,13a15.66,15.66,0,0,1-7.06.37c-3.09-.74-5.35-3-7.84-4.86-7.5-5.5-17.59-6.82-27.14-7.94L615.7-1.07a52.42,52.42,0,0,0,24.61,7.66" transform="translate(109.33 122.33)"/><path class="cls-6" d="M794.67,58.37c7.73-2.18,15.53-4.37,23.6-5,7.84-.65,15.74.14,23.52,1.22a312.84,312.84,0,0,1,63.6,15.71c2.86,1,5.86,2.23,7.66,4.45s1.81,5.82-.79,7.31c-33-15.53-71.26-26.72-107.71-19.14-10.26,2.14-20.07,5.7-29.82,9.25L746.12,82.54c-4.57,1.67-9.12,3.62-13.8,5-1.27.38-2.73.84-2.74-.68s2.32-3.54,3.34-4.57a42.5,42.5,0,0,1,6.74-5.51c6.67-4.39,15.54-6.58,23.27-9.07C773.42,64.36,784,61.36,794.67,58.37Z" transform="translate(109.33 122.33)"/><path class="cls-6" d="M800.27,71.71C822.52,64,850.72,67,869.17,79c1.48,1,2.89,2.81,1.31,3.69-1.31.74-3.1-.2-4.34-1C858.85,77,849,75.33,839.49,73.83l-20.33-3.21a28.73,28.73,0,0,0-6.34-.52A26.9,26.9,0,0,0,805.39,72l-11.7,4.25L788,78.33c-1.21.44-3.21,1.56-4.51,1.46.21-1.91,4.08-3,5.93-3.74C793,74.55,796.55,73,800.27,71.71Z" transform="translate(109.33 122.33)"/><path class="cls-6" d="M911.49,65.09c-.91-2.48.58-5.28,2.86-6.87s5.2-2.21,8-2.63c11.94-1.8,24.14-1,36.24-.54a478.45,478.45,0,0,0,125.26-12.4c-4,3.22-9.17,5-14.27,6.57-35.67,10.7-74,10.23-111.55,11.31-10.67.31-21.57.78-31.76,3.91-2.69.82-5.9,1.75-8.18,3.29,2.26,1.84,5,3.35,7.5,5,1.31.87,4.52,2.22,5.07,3.6-2.31.68-6.31-1.79-8.12-2.89-2.3-1.37-4.62-2.72-6.88-4.13C914.08,68.27,912,67,911.49,65.09Z" transform="translate(109.33 122.33)"/><path class="cls-6" d="M993.31,71.49c15,0,29.81-2,44.6-3.94l41-5.42c-3,6.51-12.34,7.75-20.08,8.39-12.1,1-24.1,2.81-36.06,4.71s-24.11,3.94-36.27,5.33c-6.07.7-12.16,1.23-18.26,1.5q-4.49.19-9,.2c-2.56,0-5.43.23-7.93-.36-3.25-.78-6.68-3.33-7.72-6.3-1.51-4.27,4.09-4.38,7.31-4.64,12.55-1,25.13.23,37.68.49C990.2,71.48,991.75,71.5,993.31,71.49Z" transform="translate(109.33 122.33)"/></g></g><g class="cls-7"><g class="cls-8"><g class="cls-5"><path class="cls-6" d="M-100.57-7.75c-5.23-.15,1.55-3.39,6.7-2.87C-5.34-1.75,83.46-17.52,161.4-36.46S315.26-78.2,403.22-84.9c17.77-1.36,32-5.56,48.74-2C371.07-93,291.25-79.53,219.52-63.24S78.17-27.39-1-20.16c-28.91,2.64-61.52,3.25-86.51-4.64" transform="translate(109.33 122.33)"/><path class="cls-6" d="M-86.87,22.83c-5.23-.15,1.55-3.39,6.7-2.87C8.35,28.83,97.16,13.06,175.1-5.88S329-47.62,416.92-54.32c17.77-1.36,32-5.57,48.74-2-80.89-6.15-160.72,7.36-232.44,23.65S91.87,3.19,12.68,10.42c-28.91,2.63-61.52,3.25-86.51-4.65" transform="translate(109.33 122.33)"/><path class="cls-6" d="M-107.44-41.67c-5.23-.15,1.55-3.39,6.7-2.87,88.52,8.87,177.33-6.9,255.27-25.84s153.86-41.74,241.81-48.44c17.78-1.36,32-5.56,48.75-2C364.2-127,284.37-113.45,212.65-97.16S71.3-61.31-7.89-54.08c-28.91,2.64-61.52,3.25-86.51-4.64" transform="translate(109.33 122.33)"/><path class="cls-6" d="M552.45-34.58l79.2,24.41c5.31,1.63,10.86,3.43,15,8.38,7.33,8.85,7.44,25.43,2.61,37.12s-13.4,19.4-22,25.72c-23.68,17.42-49.76,27.56-75.81,36.29-17.12,5.74-34.44,11-52,11.94-16.59.94-33.16-1.88-49.6-5.11C402.08,94.8,353.71,81.47,312,48.09c-5-4-10.58-9.83-10.4-17.89.12-5.79,3.24-10.52,6.3-14.47C335.6-20,374.34-38.84,412.1-34.82A544.08,544.08,0,0,0,351.36-6.74c-9.77,5.26-20.11,11.6-25.48,24.08-2.58,6-3.63,14.19-.52,19.7,1.58,2.79,4,4.43,6.28,6l51.65,34.65c9.61,6.45,19.32,13,29.72,16.27,9.75,3.11,19.83,3.35,29.83,3.57,34.4.78,69.09,1.52,102.88-7.39,23.64-6.24,48.84-19.7,59.87-49.32,2.83-7.62,4.55-16.79,2.2-24.72C604,3.43,592.48.14,582.73-2a248.83,248.83,0,0,1-69.14-27.14,274.87,274.87,0,0,1-32.76-21.9c-2.05-1.6-3.2-2.82-.28-3.87,2.64-.94,6.18,1,8.77,1.7q9.74,2.64,19.43,5.46C523.34-43.55,537.9-39.06,552.45-34.58Z" transform="translate(109.33 122.33)"/><path class="cls-6" d="M447.71-29.3c9.77,5,19.23,11.78,29.56,13.68,6.49,1.2,13.09.41,19.63,1,6.74.6,13.37,2.65,20,4.69l24.35,7.54c10.39,3.22,21.52,7,28.49,18.17,7.85,12.55,7.8,33.19-.11,45.67-7.69,12.11-20.17,15.3-31.68,17.77l-21.06,4.53A100.39,100.39,0,0,1,503.52,86a97.48,97.48,0,0,1-16.72-.66L460,82.75c-12.36-1.19-24.9-2.43-36.6-8.1-9.59-4.64-18.39-12.16-28.11-16.23C380.67,52.29,363,53.11,353,37.06a8.57,8.57,0,0,1-1.21-2.73,11.45,11.45,0,0,1,.54-5.11c1.85-7,4.11-14.61,8.94-17.86,2.43-1.63,5.19-1.9,7.85-2.58,4.12-1,8.06-3.12,12-5.18,11.52-6.07,23.28-12.33,32.69-23.36a297,297,0,0,0,58,20.22c8.08,1.9,16.9,3.94,22.33,12.44a61.26,61.26,0,0,1-9.75-.62l-16-1.89C458.74,9.26,449,8.1,439.8,4.25,428.86-.31,417.9-8.7,406.71-5.54c-11.78,3.33-19.86,18.46-30.82,25.28-3.45,2.14-7.16,3.44-10.49,5.93a17.23,17.23,0,0,0-6.92,11.71c11.92,8.37,24.23,15.81,37,21.12,13.07,5.42,26.55,8.6,40,11.76,12.5,2.95,25,5.89,37.63,7.69a173.5,173.5,0,0,0,44.72.88c11.62-1.37,23.81-4.54,32.57-15.18C558,54.51,562.08,40,560.34,26.33S550.76.66,541-2.18c-15.49-4.5-31.18,12.89-46.59,7.9-10.45-3.39-18-16.32-28.24-20.9-8.23-3.69-17.35-1.57-25.64-5-6.47-2.7-12-8.53-18.44-11.3-1-.42-3.52-.52-1.85-2.1,1.2-1.14,3.51-1.11,4.92-1.27a29.51,29.51,0,0,1,10.77.9A56.61,56.61,0,0,1,447.71-29.3Z" transform="translate(109.33 122.33)"/><path class="cls-6" d="M533.94,24a14.5,14.5,0,0,1,4.14,4.82c1.79,3.65,1.62,8.55.62,12.73a32.32,32.32,0,0,1-21.41,23.23c-19.82,6.56-40.44-3.69-60.81-3.2-6.94.17-14.12,1.54-20.64-1.75S424.25,48.89,417.62,46c-4.47-1.92-10.74-3.5-10.81-10-.07-5.66,5.09-8.27,9.17-8.4,6.56-.2,13,1.76,19.49,3.3A156,156,0,0,0,512,30c1.72-.45,3.57-.92,5.18,0,2.83,1.71,3.46,7.28,2,11s-4.29,6.06-7.07,7.88c-14.25,9.3-31,11.21-46.11,5.26,16.08-.7,33.08-1.79,46.52-14-9.35-3.71-19.18,1.11-28.74,3.56a59.28,59.28,0,0,1-25.86.83c-14.1-2.67-28.61-10.42-42.12-4.2l24.76,19.47c3.57,2.82,7.19,5.66,11.14,7.25,4.69,1.9,9.65,2,14.54,2.22a174.65,174.65,0,0,1,21.22,2.4c9.28,1.63,18.6,4,27.9,2.83a30.72,30.72,0,0,0,24.11-17.22c5.25-10.71,4.58-27.31-3.05-34.8-6.42-6.32-15.1-4.93-22.52-4.52-.78,0-5.42,1-5.8.16-.47-1,1.28-2.4,1.82-2.7,1.61-.9,3.77-.26,5.45,0a36.1,36.1,0,0,1,6,1.43,38.78,38.78,0,0,1,6.49,2.87c1.09.61,2.17,1.28,3.23,2C531.73,22.27,533.23,24,533.94,24Z" transform="translate(109.33 122.33)"/><path class="cls-6" d="M-7,55.88C66.08,38.2,138,10.33,211.9.52c37.15-4.93,75.19-5.43,110.48-22.22L289,10.51c-3.4,3.28-7,6.86-8.51,12.18-2.43,8.42,1.08,17.79,5,25,16.6,30.19,42.6,48,69.06,57.82s54,12.77,80.95,19.27c13.29,3.21,26.52,7.29,40,8.44,14.08,1.2,28.19-.83,42.22-2.89,31.57-4.65,63.65-9.67,92.84-26.92s55.62-48.78,64.79-90.86c1.41-6.47,2.37-13.63.44-19.83-2.91-9.39-11-12.9-18.21-15.34L597.2-43.17c-20-6.81-41.94-15.39-53.3-39.23,34.52,44.86,88.9,38.94,132.62,64.1,7.1,4.08,14.88,10.86,15.38,21.48.24,5.14-1.35,10.08-3,14.68C675.39,54.93,654,86.41,628.16,107.34c-44.63,36.1-98.87,39.34-150.55,38.38-64-1.19-130.46-8.36-186.29-51.74-8.3-6.45-16.67-14.22-20.87-26-6.31-17.79-1.07-40.12,8.75-54.55s23.33-22.72,36.46-30.64c-23.42-.38-44,20.36-66.5,29.34-17.45,7-35.89,6.74-54,8.91a256.38,256.38,0,0,0-33.45,6.48c-11.17,2.88-22.25,6.35-33.28,10.1S106.33,45.36,95.3,49.36s-22,8-33,11.58-21.89,6.85-32.95,9.44A224.78,224.78,0,0,1-3.58,75.76a156.46,156.46,0,0,1-33-.61c-11.15-1.45-23-3.65-33.52-9.12-4.4-2.29.21-6.2,2.82-7,2.3-.73,4.56.35,6.84.85a70.59,70.59,0,0,0,9,1.33c12.08,1,24.19-.8,36.11-3.38C-12.6,57.2-9.81,56.55-7,55.88Z" transform="translate(109.33 122.33)"/><path class="cls-6" d="M-59.11,97.16c5.09,8.1,13.73,9.32,21.48,9.42C22.78,107.37,80.48,75,139.5,57.06c26.33-8,53.06-13.1,79.76-18.21l34.28-6.56C201.3,62.85,145.65,82.2,89.19,89.43,76.79,91,64.33,92,52.1,95.2c-13.42,3.46-26.44,9.48-39.8,13.33a128.24,128.24,0,0,1-82.23-3.78" transform="translate(109.33 122.33)"/><path class="cls-6" d="M-19.45,141c53.36,5.45,104.82-26.35,157.94-35.28,14.12-2.37,28.39-3.13,42.42-6.32,23.34-5.3,45.87-17.38,65.7-35.24-1.68,6.3-6.12,10.22-10.29,13.65-15.09,12.38-30.56,24.34-47.39,31.15-10.33,4.17-21,6.34-31.65,8.47Q75.49,133.84-6.51,148.09" transform="translate(109.33 122.33)"/><path class="cls-6" d="M159.44,139.17c9-13.7,24.38-13,36.95-19.23,15.09-7.48,27.49-25.95,43.5-26.9,14.09-.84,26.38,12.22,39.64,18.89,5.59,2.82,11.44,4.5,17.22,6.47a209.25,209.25,0,0,1,45.6,22.18c3.86,2.47,8.16,6,8.67,11.84-7.31,1.92-14.54-3.08-21.19-7.69a376.34,376.34,0,0,0-79.6-42.34c-4.75-1.82-9.66-3.55-14.57-2.83-8.93,1.3-16.12,10.24-23,18.17-12.06,13.84-26.4,26.32-42.05,25.53-8.8-.44-18.68-4.71-25.69,2.66" transform="translate(109.33 122.33)"/><path class="cls-6" d="M224.5,128c3.34-3,6.89-6.18,10.88-6.48,2.75-.2,5.43,1,8.08,2a80.86,80.86,0,0,0,31.62,5.58c6.29-.17,13.09-.92,18.37,3.84,3.36,3,5.68,8.17,6.17,13.69-4.94,3.48-10.62-1.39-16-3.24-8.41-2.89-17.76,1.77-25.73-3-4.95-3-8.71-9.23-13.9-11.22-5.82-2.24-11.88,1.42-17.34,5l-9.94,6.51c-1.28.83-5.66,4.8-7.13,2.2-1-1.71,4.62-5.55,5.73-6.56Z" transform="translate(109.33 122.33)"/></g><g class="cls-5"><path class="cls-6" d="M672.11,86.88c43.22-60.11,93-103.16,144.55-105.68,18.77-.92,37.48,3.49,56.2,6.48,38.56,6.15,77.28,6.26,115.94,4.55,57.87-2.56,115.92-9.25,172.79-32.2-112,37.7-225.57,51.73-339,57.11C799.9,18.21,777,19,754.81,29.52c-37.94,18-71.55,63.33-104.88,105.92-5.68,7.25-11.47,14.32-17.68,19.29-2.62,2.1-11.53,10.1-8.61-3.11,1-4.62,2.65-6.79,4.76-8.73,3-2.73,5.88-5.74,8.74-8.95a270.42,270.42,0,0,0,16.79-21.35C660,104.14,666,95.35,672.11,86.88Z" transform="translate(109.33 122.33)"/><path class="cls-6" d="M717.26,89.35c29.79-33.19,63.68-46.2,97.22-50.68s67.21-.83,100.81-2.9c21.58-1.33,43.11-5,64.63-8.69l97.91-16.75C1108.9,5,1140.24-.4,1170.12-19.34c-22.43-3.32-44.22,14.72-66.46,21.94-12.28,4-24.74,4.66-37.15,5.72C1008.81,13.26,951.35,26.68,894,40.71Q827,57.09,760.1,74.59C748,77.76,735.6,81.1,724.54,92.16c-13,13-23.35,35.05-36,49.16-1.44,1.61-6.78,9.42-8.38,7.65-1.3-1.43,0-6.39.46-8.21,2.92-11.7,8.94-16.66,14-23.2C702.09,107.92,709.5,98,717.26,89.35Z" transform="translate(109.33 122.33)"/><path class="cls-6" d="M852.4,70.38c20.7,1.07,41.29,7.89,62,8,18.35.13,36.61-5,54.8-10.18q101.23-29,202.17-62.71c-27.57,32.35-59.48,43.59-90.87,48.23s-63,3.2-94.18,12.55C973.93,70,961.55,75.47,949,74.85c-9.34-.46-18.56-4.28-27.81-7.1-38.47-11.7-78.1-5.81-115.44,17.16-17.16,10.56-33.77,24.61-50.48,38-8.34,6.67-16.72,13.17-25.2,19-4.29,2.93-8.6,5.68-12.94,8.18-2,1.14-5.86,5.3-7.62,1.21-2.86-6.6,1.18-20.6,3.81-24.5,3.07-4.54,7.45-6.46,11-8.81,4.38-2.91,8.8-5.61,13.22-8.31C755.21,98.81,773,89.06,791.11,81.93s36.23-11.55,54.53-11.69C847.89,70.22,850.15,70.27,852.4,70.38Z" transform="translate(109.33 122.33)"/><path class="cls-6" d="M643.24-58.1C665.9-67.89,690.69-51,706.49-15,709-9.35,711.37-3.07,714.75-.3s7.08,1.59,10.59.16c26-10.57,50.77-34,77.13-39.14,16.45-3.19,33,.91,49.41,4.6,50,11.24,100.38,18.83,150.42,9.22,21.53-4.14,42.89-11.45,64.24-18.75l82-28c-23.29-8-46.92-14.85-70.42-10.3-23.14,4.47-45.51,19.83-68.43,28-24.79,8.82-50,9.16-75.18,9.47-39.34.49-78.78,1-117.91-7.84-14.73-3.32-29.69-7.94-44.26-2.26-16.64,6.48-31.59,26-48,34.56-2.62,1.37-5.39,2.46-8,1-3.5-2-6.06-8.11-8.88-12.95-8.49-14.62-19.92-18.13-30.75-21.1L626.3-67.57c8.2,12,17.94,19.12,27.87,20.4" transform="translate(109.33 122.33)"/><path class="cls-6" d="M829,90.58c8.76-5.79,17.59-11.63,26.74-13.42,8.89-1.75,17.84.36,26.65,3.23,24.69,8,48.93,22.11,72,41.82,3.25,2.77,6.64,5.92,8.68,11.84s2.05,15.47-.89,19.43c-37.44-41.32-80.73-71.08-122-50.92-11.63,5.68-22.74,15.17-33.78,24.62L774,154.91c-5.17,4.43-10.33,9.63-15.63,13.36-1.43,1-3.1,2.24-3.11-1.8s2.64-9.41,3.79-12.15a94.86,94.86,0,0,1,7.64-14.66c7.55-11.69,17.6-17.51,26.36-24.14C805,106.54,817,98.55,829,90.58Z" transform="translate(109.33 122.33)"/><path class="cls-6" d="M835.39,126.07c25.2-20.57,57.16-12.58,78.06,19.51,1.67,2.58,3.26,7.47,1.48,9.82-1.49,2-3.51-.52-4.92-2.67-8.25-12.61-19.48-17-30.19-21l-23-8.55c-2.37-.87-4.78-1.76-7.19-1.39-3,.46-5.73,2.79-8.41,5.08L827.93,138.2l-6.42,5.49c-1.37,1.17-3.63,4.15-5.11,3.9.24-5.08,4.62-7.91,6.72-10C827.17,133.65,831.18,129.51,835.39,126.07Z" transform="translate(109.33 122.33)"/><path class="cls-6" d="M961.38,108.48c-1-6.6.66-14,3.25-18.28a16,16,0,0,1,9.1-7c13.53-4.78,27.35-2.5,41.06-1.43,47.71,3.73,95.68-7.42,141.9-33-4.56,8.57-10.39,13.41-16.17,17.48-40.4,28.46-83.84,27.21-126.36,30.09-12.09.81-24.44,2.08-36,10.4-3,2.19-6.67,4.66-9.26,8.74,2.57,4.91,5.69,8.94,8.49,13.27,1.49,2.31,5.12,5.9,5.75,9.57-2.62,1.82-7.15-4.77-9.2-7.67-2.6-3.67-5.23-7.24-7.79-11C964.33,116.94,962,113.41,961.38,108.48Z" transform="translate(109.33 122.33)"/><path class="cls-6" d="M1054.08,125.51c16.94-.08,33.77-5.3,50.53-10.5l46.47-14.42c-3.39,17.32-14,20.64-22.74,22.33-13.71,2.64-27.3,7.47-40.85,12.53s-27.32,10.49-41.09,14.19a133.6,133.6,0,0,1-20.69,4,93.46,93.46,0,0,1-10.16.54c-2.9,0-6.15.61-9-1-3.68-2.06-7.57-8.85-8.75-16.75-1.71-11.35,4.63-11.65,8.29-12.34,14.21-2.68,28.46.61,42.68,1.3C1050.55,125.47,1052.32,125.52,1054.08,125.51Z" transform="translate(109.33 122.33)"/></g></g><rect class="cls-4" x="105.66" y="198.73" width="1074.29" height="76.71"/><g class="cls-5"><path class="cls-6" d="M-35.88,125.83c52.34-21.07,112.28-35.49,174-34.63,22.44.31,44.76,2.63,67.11,4.41,46,3.66,92.32,5.07,138.56,5.78,69.21,1.07,138.68.59,206.93-6-134.37,10.23-270.25,11.51-405.88,9.55-27.18-.39-54.57-.9-81.21,2.27-45.55,5.44-86.23,21.28-126.56,36.12a164.51,164.51,0,0,1-21.33,6.62c-3.17.7-13.91,3.39-10.27-1.47,1.27-1.7,3.24-2.46,5.79-3.11,3.58-.92,7.09-2,10.55-3.06,7-2.23,13.68-4.78,20.3-7.43C-50.52,131.89-43.26,128.8-35.88,125.83Z" transform="translate(109.33 122.33)"/><path class="cls-6" d="M18.07,128.34c36-11.42,76.64-15.12,116.79-15.62s80.36,2,120.55,2.44c25.81.26,51.6-.36,77.37-1L450,111.32c37.21-.91,74.73-1.84,110.67-7.91-26.79-2-53,4-79.7,5.91-14.73,1.06-29.63.88-44.48.84-69-.17-137.87,2.86-206.61,6.11q-80.25,3.81-160.44,8c-14.54.77-29.36,1.59-42.71,5.35C11.08,134.07-1.56,142-16.88,146.86c-1.75.55-8.21,3.3-10.11,2.58-1.54-.59.09-2.4.65-3.07,3.62-4.29,10.87-5.94,17-8.22C-.27,134.79,8.7,131.32,18.07,128.34Z" transform="translate(109.33 122.33)"/><path class="cls-6" d="M179.84,126c24.74,1.13,49.28,4.41,74,5.2,21.94.69,43.82-.59,65.62-1.9q121.35-7.35,242.39-16.47C528.58,124,490.3,127.08,452.72,127.72s-75.37-1-112.72,1.41c-14.86,1-29.72,2.57-44.68,1.9-11.16-.5-22.14-2.26-33.17-3.64A489.14,489.14,0,0,0,124,129.78c-20.63,3.37-40.65,8.06-60.77,12.49-10,2.21-20.13,4.36-30.34,6.24q-7.73,1.43-15.56,2.62c-2.37.36-7.06,1.78-9.12.19-3.35-2.59,1.64-7.7,4.83-9.07,3.72-1.6,9-2.17,13.21-2.93,5.28-.94,10.6-1.8,15.91-2.66,21.23-3.43,42.65-6.47,64.33-8.51a542.15,542.15,0,0,1,65.32-2.48Q175.81,125.78,179.84,126Z" transform="translate(109.33 122.33)"/><path class="cls-6" d="M-68.79,70.35c27.2-2.88,56.64,4.34,75.13,18.42,2.9,2.2,5.71,4.65,9.72,5.81s8.44.84,12.66.43C59.91,92,89.8,84,121.36,83c19.7-.62,39.43,1.5,59,3.46,59.6,6,119.79,10.6,179.72,8.75,25.78-.8,51.4-2.8,77-4.79l98.34-7.66c-27.75-3.84-55.93-7.22-84.07-6.34-27.73.87-54.63,5.85-82.13,8.11-29.73,2.44-59.93,1.68-90,.92-47-1.2-94.2-2.4-140.87-7.08-17.58-1.77-35.41-4-52.89-2.41-20,1.85-38.06,8.64-57.8,11.3a29,29,0,0,1-9.57.09C14,86.49,11,84.1,7.67,82.18c-10-5.79-23.62-7.51-36.53-9l-60.08-7a89.73,89.73,0,0,0,33.09,8.64" transform="translate(109.33 122.33)"/><path class="cls-6" d="M151.7,132.73c10.53-1.87,21.16-3.75,32.11-4.1,10.64-.35,21.32.76,31.83,2.15A548.84,548.84,0,0,1,301.3,149c3.86,1.15,7.87,2.45,10.25,4.75s2.28,5.88-1.29,7.27C266,144.2,214.54,131.5,165,137.62c-14,1.73-27.36,4.91-40.67,8.07L85.23,155c-6.23,1.48-12.46,3.25-18.83,4.47-1.73.33-3.73.73-3.7-.79s3.26-3.44,4.67-4.43A57.17,57.17,0,0,1,76.66,149c9.16-4.13,21.23-6,31.78-8.14C122.74,137.88,137.22,135.3,151.7,132.73Z" transform="translate(109.33 122.33)"/><path class="cls-6" d="M158.9,146.29c30.35-6.85,68.47-2.73,93.1,10.07,2,1,3.82,2.92,1.67,3.74-1.81.68-4.2-.32-5.86-1.18-9.73-5-23.1-7.08-35.87-8.95l-27.43-4a52.23,52.23,0,0,0-8.58-.77,47.13,47.13,0,0,0-10.11,1.61l-16,3.79-7.75,1.84c-1.65.39-4.38,1.43-6.15,1.28.35-1.9,5.62-2.81,8.14-3.51C149,148.84,153.82,147.43,158.9,146.29Z" transform="translate(109.33 122.33)"/><path class="cls-6" d="M309.72,144.1c-1.16-2.52.94-5.26,4.08-6.76s7.1-2,11-2.31c16.23-1.32,32.73,0,49.1.9a870.66,870.66,0,0,0,170-7.41c-5.55,3.06-12.57,4.68-19.52,6-48.62,9.28-100.53,7.28-151.41,6.87-14.45-.12-29.23-.08-43.13,2.64-3.67.72-8,1.52-11.18,3,3,1.93,6.71,3.55,10,5.28,1.76.92,6.06,2.39,6.77,3.8-3.16.59-8.49-2.05-10.92-3.21-3.06-1.47-6.17-2.91-9.19-4.41C313.14,147.38,310.35,146,309.72,144.1Z" transform="translate(109.33 122.33)"/><path class="cls-6" d="M420.35,153.75c20.25.56,40.43-.8,60.52-2.17l55.72-3.79c-4.25,6.39-16.93,7.27-27.43,7.59-16.42.52-32.72,1.85-49,3.28s-32.78,3-49.28,3.89c-8.24.45-16.5.74-24.78.77q-6.08,0-12.15-.16c-3.47-.1-7.36,0-10.73-.68-4.37-.9-8.94-3.59-10.28-6.6-1.91-4.32,5.67-4.22,10.05-4.35,17-.5,34,1.23,51,2Q417.19,153.66,420.35,153.75Z" transform="translate(109.33 122.33)"/></g><g class="cls-5"><path class="cls-6" d="M565,127.25c52.34-21.06,112.29-35.49,174-34.62,22.44.31,44.77,2.62,67.11,4.4,46,3.67,92.32,5.07,138.56,5.78,69.22,1.07,138.68.6,206.93-6C1017.21,107,881.33,108.3,745.69,106.34c-27.17-.4-54.57-.91-81.21,2.27-45.55,5.43-86.22,21.28-126.55,36.11a164.68,164.68,0,0,1-21.34,6.63c-3.16.69-13.9,3.39-10.27-1.47,1.27-1.7,3.24-2.46,5.79-3.12,3.58-.92,7.1-1.95,10.55-3,7-2.23,13.69-4.78,20.3-7.43C550.35,133.32,557.6,130.22,565,127.25Z" transform="translate(109.33 122.33)"/><path class="cls-6" d="M618.93,129.77c36-11.43,76.64-15.13,116.79-15.63s80.36,2,120.55,2.45c25.82.26,51.6-.37,77.37-1l117.23-2.85c37.21-.91,74.74-1.84,110.67-7.91-26.79-2-53,4-79.7,5.91-14.72,1.07-29.62.88-44.47.85-69-.18-137.88,2.85-206.62,6.11q-80.25,3.8-160.44,8c-14.54.76-29.35,1.58-42.7,5.35-15.66,4.42-28.3,12.35-43.63,17.2-1.74.56-8.21,3.3-10.1,2.58-1.54-.58.08-2.4.64-3.07,3.62-4.29,10.87-5.94,17-8.22C600.59,136.21,609.57,132.74,618.93,129.77Z" transform="translate(109.33 122.33)"/><path class="cls-6" d="M780.7,127.39c24.75,1.12,49.29,4.41,74,5.19,21.93.7,43.81-.58,65.61-1.9q121.36-7.34,242.39-16.46c-33.31,11.18-71.59,14.29-109.16,14.93s-75.38-1-112.73,1.41c-14.86,1-29.72,2.57-44.67,1.9C885,132,874,130.2,863,128.81a489.58,489.58,0,0,0-138.21,2.4c-20.63,3.36-40.64,8.06-60.76,12.48-10,2.21-20.14,4.36-30.34,6.24-5.16.95-10.35,1.84-15.57,2.62-2.37.36-7,1.79-9.12.19-3.34-2.58,1.64-7.7,4.83-9.07,3.72-1.6,9-2.17,13.22-2.92,5.28-.94,10.59-1.8,15.9-2.66,21.23-3.44,42.65-6.47,64.34-8.52a542.07,542.07,0,0,1,65.32-2.48C775.32,127.17,778,127.26,780.7,127.39Z" transform="translate(109.33 122.33)"/><path class="cls-6" d="M532.07,71.78c27.2-2.89,56.65,4.33,75.14,18.41,2.89,2.2,5.71,4.65,9.71,5.81s8.45.85,12.66.43c31.2-3.06,61.08-11,92.64-12,19.7-.62,39.43,1.5,59,3.47C840.86,93.87,901,98.5,961,96.64c25.79-.8,51.41-2.79,77-4.79l98.33-7.65c-27.75-3.84-55.93-7.23-84.07-6.35-27.72.87-54.63,5.86-82.12,8.11-29.74,2.45-59.94,1.69-90,.92-47-1.19-94.19-2.39-140.87-7.08-17.58-1.76-35.41-4-52.89-2.41-20,1.86-38,8.65-57.79,11.3a28.54,28.54,0,0,1-9.58.09c-4.16-.86-7.15-3.26-10.47-5.18-10-5.78-23.62-7.5-36.53-9l-60.08-7A89.35,89.35,0,0,0,545,76.26" transform="translate(109.33 122.33)"/><path class="cls-6" d="M752.56,134.15c10.53-1.87,21.16-3.75,32.12-4.1,10.64-.34,21.31.76,31.82,2.15a550.36,550.36,0,0,1,85.67,18.24c3.85,1.15,7.87,2.46,10.24,4.75s2.28,5.88-1.28,7.27c-44.31-16.84-95.73-29.54-145.31-23.41-14,1.73-27.35,4.9-40.66,8.06l-39.06,9.28c-6.24,1.48-12.46,3.25-18.84,4.47-1.73.33-3.73.73-3.69-.78s3.25-3.45,4.66-4.43a56.47,56.47,0,0,1,9.29-5.25c9.16-4.12,21.24-6,31.79-8.14C723.6,139.3,738.08,136.73,752.56,134.15Z" transform="translate(109.33 122.33)"/><path class="cls-6" d="M759.76,147.71c30.35-6.84,68.47-2.72,93.1,10.07,2,1,3.83,2.92,1.67,3.74-1.81.69-4.2-.32-5.86-1.18-9.72-5-23.09-7.07-35.86-8.94l-27.44-4a52.22,52.22,0,0,0-8.57-.78,47.23,47.23,0,0,0-10.12,1.62l-16,3.78L743,153.84c-1.65.39-4.39,1.43-6.15,1.29.35-1.9,5.61-2.81,8.14-3.51C749.85,150.27,754.68,148.86,759.76,147.71Z" transform="translate(109.33 122.33)"/><path class="cls-6" d="M910.58,145.52c-1.16-2.51.94-5.25,4.08-6.75s7.11-2,11-2.32c16.23-1.32,32.73,0,49.1.91a871.54,871.54,0,0,0,170-7.41c-5.56,3.06-12.58,4.67-19.53,6-48.61,9.27-100.53,7.28-151.4,6.86-14.46-.11-29.24-.07-43.14,2.65-3.66.72-8,1.52-11.17,3,3,1.93,6.71,3.56,10,5.28,1.75.92,6,2.4,6.76,3.8-3.15.59-8.49-2-10.92-3.21-3.06-1.46-6.16-2.9-9.18-4.41C914,148.8,911.22,147.4,910.58,145.52Z" transform="translate(109.33 122.33)"/><path class="cls-6" d="M1021.22,155.18c20.24.56,40.42-.81,60.51-2.17l55.73-3.79c-4.25,6.39-16.94,7.26-27.44,7.59-16.42.51-32.72,1.85-49,3.27s-32.78,3-49.29,3.89c-8.23.45-16.5.74-24.78.77q-6.08,0-12.15-.16c-3.47-.1-7.36,0-10.72-.67-4.38-.91-9-3.6-10.28-6.61-1.92-4.32,5.67-4.21,10-4.34,17-.51,34,1.23,51,2Q1018.06,155.09,1021.22,155.18Z" transform="translate(109.33 122.33)"/></g><path class="cls-9" d="M589.64,106.13c4.46-1.39,9.06-3,12.28-6.41a4.7,4.7,0,0,0,1.34-2.26c.37-1.92-1.39-3.67-3.26-4.21s-3.87-.24-5.81-.31c-4.85-.17-9.29-2.56-13.62-4.73A197.88,197.88,0,0,0,553,76.86c-.64,2.91,2.35,5.24,5,6.62,10,5.22,21.51,9.22,28,18.47a1.65,1.65,0,0,1,.43,1.36c-.14.48-.64.73-1.1.92-4.62,1.91-9.61,3-14.09,5.3-2.15,1.08,1.12,1.23,2,1.09a68.23,68.23,0,0,0,7.63-1.94Q585.29,107.48,589.64,106.13Z" transform="translate(109.33 122.33)"/></g><g class="cls-10"><rect class="cls-4" x="107.64" y="275.44" width="1074.29" height="76.71"/><g class="cls-5"><path class="cls-6" d="M-25.91,174.83c-4.62-.06,1.37-1.28,5.92-1.08,78.14,3.33,156.53-2.59,225.33-9.71s135.81-15.69,213.45-18.21c15.69-.51,28.26-2.09,43-.75C390.41,142.77,320,147.85,256.64,154S131.87,167.45,62,170.16c-25.52,1-54.31,1.22-76.37-1.74" transform="translate(109.33 122.33)"/><path class="cls-6" d="M-13.82,186.32c-4.61,0,1.37-1.27,5.92-1.08,78.14,3.34,156.53-2.59,225.33-9.71s135.81-15.68,213.45-18.2c15.69-.51,28.26-2.1,43-.75-71.41-2.31-141.87,2.76-205.18,8.89S144,178.94,74.06,181.66c-25.52,1-54.31,1.22-76.37-1.75" transform="translate(109.33 122.33)"/><path class="cls-6" d="M-32,162.08c-4.61-.06,1.37-1.27,5.92-1.08,78.14,3.34,156.53-2.59,225.33-9.71s135.81-15.69,213.45-18.21c15.69-.51,28.26-2.09,43-.75-71.4-2.31-141.87,2.77-205.18,8.89S125.8,154.7,55.9,157.41c-25.52,1-54.31,1.23-76.36-1.74" transform="translate(109.33 122.33)"/><path class="cls-6" d="M550.52,164.75l69.91,9.17c4.68.61,9.58,1.29,13.2,3.15,6.47,3.32,6.57,9.56,2.3,14s-11.82,7.29-19.41,9.67c-20.9,6.54-43.91,10.35-66.92,13.64-15.11,2.15-30.4,4.11-45.93,4.49-14.64.35-29.27-.71-43.78-1.93-42.1-3.52-84.8-8.53-121.61-21.08-4.45-1.51-9.34-3.69-9.18-6.72.11-2.17,2.86-4,5.56-5.44,24.45-13.44,58.64-20.51,92-19q-27.22,4.5-53.62,10.55c-8.62,2-17.75,4.36-22.49,9-2.28,2.25-3.21,5.33-.46,7.4a17.76,17.76,0,0,0,5.55,2.25l45.59,13c8.48,2.43,17.05,4.87,26.23,6.12,8.61,1.17,17.51,1.26,26.34,1.34,30.36.29,61,.57,90.81-2.78,20.86-2.34,43.11-7.4,52.84-18.54,2.5-2.86,4-6.31,1.94-9.29-3.31-4.75-13.51-6-22.11-6.8a434.13,434.13,0,0,1-61-10.2c-9.89-2.41-19.6-5.14-28.92-8.24-1.81-.6-2.83-1.06-.25-1.45,2.33-.36,5.45.37,7.75.64q8.58,1,17.14,2.05C524.82,161.37,537.67,163.06,550.52,164.75Z" transform="translate(109.33 122.33)"/><path class="cls-6" d="M458.06,166.73c8.62,1.89,17,4.43,26.09,5.14,5.74.45,11.56.16,17.33.38,6,.22,11.81,1,17.63,1.76l21.49,2.83c9.17,1.21,19,2.65,25.15,6.83,6.93,4.72,6.89,12.48-.1,17.17-6.78,4.55-17.8,5.75-27.95,6.68l-18.6,1.7c-3.91.36-7.83.71-11.78.84-4.91.16-9.84,0-14.75-.25l-23.62-1c-10.92-.45-22-.91-32.31-3-8.47-1.75-16.23-4.57-24.82-6.1-12.93-2.31-28.56-2-37.39-8a3.12,3.12,0,0,1-1.07-1c-.3-.63.09-1.3.47-1.92,1.64-2.62,3.63-5.49,7.9-6.71a43.53,43.53,0,0,1,6.92-1,92.78,92.78,0,0,0,10.58-1.95c10.17-2.28,20.55-4.63,28.86-8.77,16.69,3.32,33.82,5.86,51.19,7.6,7.13.71,14.92,1.48,19.7,4.67-2.87,0-5.74-.09-8.61-.23l-14.08-.71c-8.49-.43-17.05-.86-25.21-2.31-9.66-1.72-19.33-4.87-29.21-3.68-10.4,1.25-17.53,6.94-27.21,9.5-3,.8-6.32,1.29-9.25,2.23s-5.6,2.46-6.12,4.4a290.2,290.2,0,0,0,32.7,7.94c11.53,2,23.44,3.23,35.3,4.42,11,1.11,22.08,2.21,33.22,2.89a358.4,358.4,0,0,0,39.47.33c10.26-.52,21-1.71,28.76-5.71,6.64-3.43,10.27-8.9,8.75-14S549,178,540.39,176.92c-13.68-1.69-27.53,4.85-41.13,3-9.22-1.27-15.92-6.13-24.93-7.85-7.27-1.39-15.32-.6-22.63-1.89-5.72-1-10.58-3.21-16.28-4.25-.87-.16-3.1-.2-1.63-.79a16.46,16.46,0,0,1,4.34-.48,60.29,60.29,0,0,1,9.51.34A99.75,99.75,0,0,1,458.06,166.73Z" transform="translate(109.33 122.33)"/><path class="cls-6" d="M534.18,186.75a11.54,11.54,0,0,1,3.65,1.81c1.58,1.37,1.43,3.21.55,4.79-2.64,4.68-10.76,7.58-18.9,8.73-17.49,2.46-35.69-1.39-53.68-1.2-6.12.06-12.46.57-18.21-.66s-10.24-4.1-16.09-5.18c-3.94-.72-9.48-1.31-9.54-3.74-.06-2.13,4.49-3.11,8.09-3.16a149.41,149.41,0,0,1,17.21,1.24,319.46,319.46,0,0,0,67.52-.35,13,13,0,0,1,4.58,0c2.49.64,3.06,2.73,1.78,4.15s-3.78,2.27-6.24,3a97.13,97.13,0,0,1-40.7,2c14.19-.26,29.2-.67,41.06-5.27-8.25-1.39-16.93.42-25.37,1.34a121.62,121.62,0,0,1-22.82.31c-12.45-1-25.26-3.91-37.18-1.57l21.85,7.31a65.49,65.49,0,0,0,9.84,2.73,89,89,0,0,0,12.83.83c6.26.14,12.52.44,18.73.9,8.19.62,16.42,1.51,24.63,1.07s16.65-2.45,21.28-6.48,4-10.26-2.69-13.08c-5.67-2.37-13.33-1.85-19.88-1.69-.68,0-4.79.36-5.12.06s1.13-.91,1.61-1a17.61,17.61,0,0,1,4.81,0c1.78.11,3.54.29,5.27.54,2,.27,3.87.63,5.73,1.07,1,.23,1.92.48,2.85.76A14,14,0,0,0,534.18,186.75Z" transform="translate(109.33 122.33)"/><path class="cls-6" d="M56.65,198.74c64.54-6.64,128-17.11,193.26-20.8,32.79-1.86,66.37-2,97.52-8.36L318,181.69c-3,1.24-6.15,2.58-7.5,4.58-2.15,3.16.94,6.69,4.44,9.4,14.65,11.34,37.61,18,61,21.73s47.63,4.8,71.46,7.24c11.73,1.2,23.41,2.74,35.3,3.17,12.43.45,24.88-.31,37.27-1.09,27.86-1.74,56.18-3.63,82-10.11s49.09-18.34,57.19-34.15c1.24-2.43,2.09-5.12.39-7.45-2.58-3.53-9.75-4.85-16.08-5.77L590,161.52c-17.68-2.56-37-5.79-47-14.75,30.47,16.86,78.48,14.64,117.07,24.09,6.26,1.54,13.13,4.08,13.57,8.08.21,1.93-1.19,3.79-2.67,5.51-11.9,13.94-30.76,25.77-53.6,33.63-39.39,13.57-87.27,14.79-132.88,14.43C428,232.06,369.3,229.37,320,213.06c-7.33-2.42-14.72-5.34-18.42-9.79-5.58-6.68-1-15.08,7.72-20.5s20.59-8.54,32.18-11.51c-20.67-.15-38.83,7.65-58.7,11-15.4,2.62-31.68,2.53-47.65,3.35-9.9.51-19.75,1.36-29.52,2.44s-19.64,2.38-29.38,3.79-19.52,2.93-29.26,4.43-19.41,3-29.17,4.36-19.32,2.57-29.09,3.54c-9.61,1-19.3,1.69-29,2s-19.46.3-29.14-.24c-9.84-.54-20.29-1.37-29.59-3.42-3.89-.86.19-2.33,2.49-2.64a26.57,26.57,0,0,1,6,.31c2.62.25,5.27.41,7.92.51a252.46,252.46,0,0,0,31.87-1.27Q53,199.13,56.65,198.74Z" transform="translate(109.33 122.33)"/><path class="cls-6" d="M10.69,214.26c4.49,3,12.12,3.5,19,3.54C83,218.1,133.9,205.92,186,199.19c23.24-3,46.84-4.93,70.41-6.85l30.26-2.46a779.82,779.82,0,0,1-145.08,21.47c-10.94.6-21.94,1-32.74,2.17-11.84,1.3-23.33,3.57-35.13,5a259,259,0,0,1-72.58-1.42" transform="translate(109.33 122.33)"/><path class="cls-6" d="M45.7,230.75c47.1,2.05,92.52-9.91,139.41-13.26,12.47-.9,25.06-1.18,37.45-2.38a223.83,223.83,0,0,0,58-13.24c-1.48,2.36-5.4,3.84-9.09,5.13-13.31,4.65-27,9.15-41.83,11.7-9.11,1.57-18.54,2.39-27.93,3.19Q129.51,228,57.12,233.4" transform="translate(109.33 122.33)"/><path class="cls-6" d="M203.6,230.05c7.93-5.15,21.52-4.88,32.62-7.23,13.32-2.81,24.27-9.75,38.4-10.11,12.44-.31,23.28,4.59,35,7.1,4.94,1.06,10.11,1.69,15.21,2.43a335,335,0,0,1,40.25,8.34c3.41.93,7.21,2.25,7.65,4.45-6.45.72-12.83-1.16-18.7-2.89a577.48,577.48,0,0,0-70.26-15.92,58.19,58.19,0,0,0-12.87-1.06c-7.88.49-14.23,3.85-20.33,6.83-10.65,5.2-23.31,9.89-37.12,9.6-7.77-.17-16.49-1.78-22.68,1" transform="translate(109.33 122.33)"/><path class="cls-6" d="M261,225.85a28.62,28.62,0,0,1,9.6-2.44,36.87,36.87,0,0,1,7.13.76,161.31,161.31,0,0,0,27.91,2.09c5.56-.06,11.56-.34,16.22,1.45,3,1.13,5,3.07,5.44,5.14-4.36,1.31-9.37-.52-14.12-1.22-7.42-1.08-15.68.67-22.71-1.11-4.37-1.11-7.69-3.47-12.27-4.22-5.14-.84-10.49.54-15.3,1.88l-8.79,2.45c-1.12.31-5,1.8-6.29.83-.85-.64,4.09-2.09,5.07-2.47Z" transform="translate(109.33 122.33)"/></g><g class="cls-5"><path class="cls-6" d="M656.14,210.39c38.15-22.59,82.06-38.77,127.6-39.72,16.56-.34,33.08,1.32,49.61,2.44,34,2.31,68.21,2.35,102.34,1.71,51.08-1,102.32-3.48,152.52-12.1C989.31,176.89,889.1,182.16,789,184.18c-20.06.41-40.28.7-59.86,4.66-33.49,6.76-63.15,23.8-92.58,39.81A102,102,0,0,1,621,235.9c-2.32.79-10.18,3.79-7.6-1.17.9-1.74,2.33-2.55,4.2-3.29,2.62-1,5.19-2.15,7.71-3.36,5.1-2.43,10-5.18,14.82-8C645.47,216.88,650.76,213.58,656.14,210.39Z" transform="translate(109.33 122.33)"/><path class="cls-6" d="M696,211.32c26.3-12.47,56.21-17.36,85.82-19s59.33-.32,89-1.1c19.05-.5,38.05-1.88,57.05-3.26l86.42-6.29c27.43-2,55.09-4,81.47-11.16-19.8-1.24-39,5.54-58.66,8.25-10.85,1.49-21.84,1.75-32.8,2.15C953.35,182.72,902.63,187.77,852,193q-59.12,6.15-118.18,12.74c-10.71,1.19-21.62,2.44-31.39,6.6-11.45,4.87-20.61,13.17-31.81,18.48-1.27.6-6,3.54-7.4,2.87-1.14-.54,0-2.4.41-3.08,2.58-4.4,7.89-6.27,12.37-8.72C682.6,218.3,689.15,214.57,696,211.32Z" transform="translate(109.33 122.33)"/><path class="cls-6" d="M815.28,204.19c18.28.41,36.45,3,54.74,3,16.19,0,32.31-1.86,48.36-3.82q89.37-10.9,178.46-23.57c-24.33,12.16-52.5,16.38-80.21,18.13s-55.63,1.2-83.13,4.71c-10.94,1.4-21.87,3.44-32.92,3.21-8.24-.17-16.38-1.61-24.54-2.66a268.24,268.24,0,0,0-101.91,6.45c-15.14,4-29.81,9.24-44.55,14.26-7.37,2.5-14.76,5-22.25,7.13q-5.67,1.65-11.43,3.07c-1.74.43-5.16,2-6.72.46-2.52-2.49,1-7.75,3.37-9.21,2.71-1.71,6.57-2.43,9.68-3.31,3.88-1.1,7.78-2.11,11.68-3.12,15.59-4.06,31.32-7.73,47.27-10.4a296.15,296.15,0,0,1,48.14-4.4Q812.3,204.13,815.28,204.19Z" transform="translate(109.33 122.33)"/><path class="cls-6" d="M630.66,155.9c20-3.67,41.88,2.68,55.83,16.21,2.18,2.12,4.31,4.48,7.29,5.52s6.25.6,9.35.06c22.94-4,44.82-12.8,68.08-14.71,14.52-1.2,29.12.34,43.62,1.73,44.1,4.22,88.6,7.08,132.77,3.46,19-1.55,37.86-4.3,56.71-7l72.37-10.54c-20.55-3-41.42-5.58-62.16-3.88-20.43,1.69-40.17,7.46-60.4,10.52-21.88,3.32-44.18,3.44-66.36,3.56-34.73.19-69.55.37-104.08-2.94-13-1.25-26.21-3-39.07-.86-14.69,2.44-27.89,9.76-42.39,13a15.66,15.66,0,0,1-7.06.37c-3.09-.74-5.35-3-7.84-4.87-7.5-5.49-17.59-6.81-27.14-7.93l-44.48-5.2A52.42,52.42,0,0,0,640.31,160" transform="translate(109.33 122.33)"/><path class="cls-6" d="M794.67,211.79c7.73-2.18,15.53-4.37,23.6-5,7.84-.65,15.74.14,23.52,1.22a312.84,312.84,0,0,1,63.6,15.71c2.86,1,5.86,2.23,7.66,4.45s1.81,5.82-.79,7.31c-33-15.53-71.26-26.72-107.71-19.14-10.26,2.13-20.07,5.7-29.82,9.25L746.12,236c-4.57,1.67-9.12,3.62-13.8,5-1.27.38-2.73.85-2.74-.67s2.32-3.54,3.34-4.57a42.5,42.5,0,0,1,6.74-5.51c6.67-4.39,15.54-6.58,23.27-9.07C773.42,217.78,784,214.78,794.67,211.79Z" transform="translate(109.33 122.33)"/><path class="cls-6" d="M800.27,225.13c22.25-7.74,50.45-4.73,68.9,7.33,1.48,1,2.89,2.81,1.31,3.69-1.31.74-3.1-.2-4.34-1-7.29-4.73-17.19-6.39-26.65-7.89L819.16,224a28.73,28.73,0,0,0-6.34-.52,26.9,26.9,0,0,0-7.43,1.91l-11.7,4.25L788,231.75c-1.21.44-3.21,1.56-4.51,1.46.21-1.91,4.08-3,5.93-3.74C793,228,796.55,226.42,800.27,225.13Z" transform="translate(109.33 122.33)"/><path class="cls-6" d="M911.49,218.51c-.91-2.48.58-5.28,2.86-6.87s5.2-2.21,8-2.63c11.94-1.8,24.14-.95,36.24-.54a478.45,478.45,0,0,0,125.26-12.4c-4,3.22-9.17,5-14.27,6.57-35.67,10.7-74,10.23-111.55,11.31-10.67.31-21.57.78-31.76,3.91-2.69.82-5.9,1.75-8.18,3.29,2.26,1.84,5,3.35,7.5,5,1.31.87,4.52,2.22,5.07,3.6-2.31.68-6.31-1.8-8.12-2.89-2.3-1.37-4.62-2.72-6.88-4.13C914.08,221.69,912,220.37,911.49,218.51Z" transform="translate(109.33 122.33)"/><path class="cls-6" d="M993.31,224.91c15,0,29.81-2,44.6-3.94l41-5.42c-3,6.51-12.34,7.75-20.08,8.39-12.1,1-24.1,2.81-36.06,4.71s-24.11,3.94-36.27,5.33c-6.07.69-12.16,1.23-18.26,1.5q-4.49.2-9,.2c-2.56,0-5.43.23-7.93-.36-3.25-.78-6.68-3.33-7.72-6.3-1.51-4.27,4.09-4.38,7.31-4.64,12.55-1,25.13.23,37.68.49C990.2,224.9,991.75,224.92,993.31,224.91Z" transform="translate(109.33 122.33)"/></g></g></svg>