<svg id="Layer_1" data-name="Layer 1" xmlns="http://www.w3.org/2000/svg" viewBox="0 0 172.09 796.99"><defs><style>.cls-1{fill:#fff;opacity:0.5;}.cls-2{fill:#f2e7c2;}.cls-3{fill:none;stroke:#b5734b;stroke-miterlimit:10;}</style></defs><path class="cls-1" d="M77.05,762.44S110.38,790,113.74,797l3.44-6,6.19-1.15,2.52-5.73,4.82-2.3S103.42,752.73,91,749.06l-1.3,3.9L83,755l.16,4.43Z"/><path class="cls-2" d="M24.48,18.93c-.09,28.57-.14,56.34-.23,84.91a4.59,4.59,0,0,0,.49,2.55c1.43,2.17,5.8,1.12,6.53,3.62a7,7,0,0,1-7,.32c1.5,18.23-4,36.77-.54,54.72a2,2,0,0,0,.64,1.33,2.07,2.07,0,0,0,1.13.25l40.84,1.27,2.41-12L70,168.36a651.88,651.88,0,0,1,76.05.3l.66-13.6c.15-3.06.3-6.2-.6-9.14A13.72,13.72,0,0,0,135,136.51a31.27,31.27,0,0,0,11.34,2.64c-2.68-5,.85-10.94,1.39-16.59.46-4.82-2.28-10.46-7.1-11a31.15,31.15,0,0,0,6.81,1.3c-3.08-8.48-.88-17.87-1.3-26.89-.39-8.4-2-14.79-1.89-24.93,0-2.43.16-4.11.23-6.54.11-4.47-.14-4.86-.12-6.36.06-4.64.16-4.49.35-7.19a157.79,157.79,0,0,0,.41-21.41L133,18.14l-.56,9.05a38.89,38.89,0,0,0-2.68-7.85c-13-.87-26-.82-39-.77l-23.3.09c-14,.05-28,.2-42.06.25Z"/><path class="cls-1" d="M3.78,154.32s33.33,27.52,36.69,34.55l3.44-6,6.19-1.15L52.62,176l4.82-2.29S30.15,144.61,17.77,141l-1.3,3.89-6.72,2,.15,4.43Z"/><path class="cls-1" d="M172.09,154.32s-33.33,27.52-36.69,34.55l-3.44-6-6.19-1.15L123.25,176l-4.82-2.29S145.72,144.61,158.1,141l1.3,3.89,6.73,2-.16,4.43Z"/><line class="cls-3" x1="42.81" y1="39.99" x2="127.5" y2="39.99"/><line class="cls-3" x1="42.92" y1="46.92" x2="127.6" y2="46.92"/><line class="cls-3" x1="43.02" y1="53.85" x2="127.71" y2="53.85"/><line class="cls-3" x1="43.13" y1="60.78" x2="127.82" y2="60.78"/><line class="cls-3" x1="43.24" y1="67.71" x2="127.93" y2="67.71"/><line class="cls-3" x1="43.35" y1="74.64" x2="128.04" y2="74.64"/><line class="cls-3" x1="43.46" y1="81.57" x2="128.14" y2="81.57"/><line class="cls-3" x1="43.56" y1="88.5" x2="128.25" y2="88.5"/><line class="cls-3" x1="43.67" y1="95.43" x2="128.36" y2="95.43"/><line class="cls-3" x1="43.78" y1="102.36" x2="128.47" y2="102.36"/><line class="cls-3" x1="43.89" y1="109.29" x2="128.57" y2="109.29"/><line class="cls-3" x1="43.99" y1="116.22" x2="128.68" y2="116.22"/><line class="cls-3" x1="44.1" y1="123.15" x2="128.79" y2="123.15"/><line class="cls-3" x1="44.21" y1="130.08" x2="128.9" y2="130.08"/><line class="cls-3" x1="44.32" y1="137.01" x2="129.01" y2="137.01"/><line class="cls-3" x1="44.43" y1="143.94" x2="129.11" y2="143.94"/><path class="cls-1" d="M53.66,13.38S20.33,40.89,17,47.92l-3.44-6L7.34,40.82,4.82,35.08,0,32.79S27.29,3.67,39.67,0L41,3.9l6.72,2-.15,4.43Z"/><path class="cls-1" d="M106.87,13.38s33.33,27.51,36.69,34.54L147,42l6.19-1.14,2.52-5.74,4.82-2.29S133.24,3.67,120.86,0l-1.3,3.9-6.73,2,.16,4.43Z"/></svg>