<svg id="Layer_1" data-name="Layer 1" xmlns="http://www.w3.org/2000/svg" viewBox="0 0 204.08 780.93"><defs><style>.cls-1{fill:#fff;opacity:0.5;}.cls-2{fill:#4882b5;}</style></defs><path class="cls-1" d="M99.92,747.93s33.33,27.51,36.69,34.54l3.44-6,6.19-1.14,2.52-5.74,4.82-2.29s-27.29-29.12-39.67-32.79l-1.3,3.9-6.72,2,.15,4.43Z" transform="translate(0 -1.54)"/><path class="cls-2" d="M63.66,33.45C101.45,34,139.22,32,177,30.19c2.65-.12,5.66-.1,7.45,1.85,1.19,1.29,1.53,3.14,1.81,4.87q8.52,51.8,17,103.59c1,6.12,1.81,13.08-2.12,17.88-10.9-5.69-24-4-36.21-2.51a562.07,562.07,0,0,1-144.47-1.43c-.8-.12-2.85-7.35-3.21-8.32-1.08-2.94-2.11-5.91-3.09-8.89q-2.94-8.94-5.26-18.06A276.71,276.71,0,0,1,.47,44.59C.56,41-1.32,33.21,1.85,33.21c4.53,0,12.51-2,16.58-1.68Q41,33.1,63.66,33.45Z" transform="translate(0 -1.54)"/><path class="cls-1" d="M64.44,4.18s6.16,44,15.83,60.69l8.8-2.2,10.11,2.2,8.36-4.4L119,64.87s-23.75-49.7-18-63.33l-9.23,4-7-4-6.6,6.6Z" transform="translate(0 -1.54)"/></svg>