<?xml version="1.0" encoding="UTF-8" standalone="no"?>
<!DOCTYPE svg PUBLIC "-//W3C//DTD SVG 1.1//EN" "http://www.w3.org/Graphics/SVG/1.1/DTD/svg11.dtd">
<!-- Created with Vectornator (http://vectornator.io/) -->
<svg height="100%" stroke-miterlimit="10" style="fill-rule:nonzero;clip-rule:evenodd;stroke-linecap:round;stroke-linejoin:round;" version="1.1" viewBox="0 0 1080 1080" width="100%" xml:space="preserve" xmlns="http://www.w3.org/2000/svg" xmlns:vectornator="http://vectornator.io" xmlns:xlink="http://www.w3.org/1999/xlink">
<defs>
<path d="M790.461 449.695C828.422 421.726 819.886 370.713 763.163 376.588C776.777 309.529 684.715 281.869 672.031 305.8C675.891 258.735 619.601 246.3 608.842 274.972C612.049 185.532 408.812 175.615 414.602 297.847C333.981 282.632 270.343 339.898 314.415 423.448C294.907 430.343 248.892 465.923 305.809 517.092C288.685 556.854 324.484 586.243 368.119 600.859C424.32 619.684 490.279 628.247 541.592 627.959C582.113 627.731 585.012 624.597 647.877 617.966C680.559 615.656 784.109 583.552 779.646 541.138C847.689 528.066 855.62 449.311 790.461 449.695Z" id="Fill"/>
</defs>
<clipPath id="ArtboardFrame">
<rect height="1080" width="1080" x="0" y="0"/>
</clipPath>
<g clip-path="url(#ArtboardFrame)" id="Layer-1" vectornator:layerName="Layer 1">
<path d="M-46.7008 38.7505C-46.7008-18.8995 0.0337857-65.634 57.6838-65.634L1016.35-65.634C1074-65.634 1120.73-18.8995 1120.73 38.7505L1120.73 1067.13C1120.73 1124.78 1074 1171.51 1016.35 1171.51L57.6838 1171.51C0.0337857 1171.51-46.7008 1124.78-46.7008 1067.13L-46.7008 38.7505Z" fill="#5e5e5e" fill-rule="nonzero" opacity="0" stroke="none" vectornator:layerName="Rectangle 3"/>
<g opacity="1" vectornator:layerName="Group 12">
<g opacity="1">
<path d="M554.355 626.951C554.355 626.951 552.694 664.012 585.592 709.992C589.791 708.262 592.787 707.292 595.425 707.44C599.012 707.643 602.045 709.512 603.796 712.572C604.751 714.242 605.145 715.761 605.601 718.223C605.684 718.671 605.946 720.242 605.976 720.407C606.132 721.277 606.291 721.962 606.446 722.683C606.843 724.521 607.314 726.286 607.967 728.107C608.881 730.659 608.293 733.273 606.821 735.316C631.041 760.695 665.006 785.421 715.14 775.123C769.24 764.01 811.881 774.696 811.881 774.696C811.881 774.696 807.785 741.611 792.207 708.146C791.11 707.902 790.049 707.45 789.096 706.722C787.926 705.828 782.748 702.065 782.125 701.606C779.5 699.674 777.905 698.376 776.423 696.928C770.587 691.228 769.329 685.068 770.586 673.593C758.049 658.702 741.999 646.58 721.219 641.618C644.407 623.276 554.355 626.951 554.355 626.951ZM699.395 713.244C705.431 713.969 710.401 715.435 713.906 717.585C716.044 718.898 717.764 720.521 718.868 722.56C720.682 725.909 720.506 730.022 717.844 733.125C712.229 739.671 700.735 737.047 688.036 728.984C684.333 726.632 683.248 721.732 685.6 718.029C687.45 715.116 690.878 713.899 694.061 714.622C695.589 713.587 697.419 713.006 699.395 713.244Z" fill="#c1ad27" fill-rule="nonzero" opacity="1" stroke="none"/>
<path d="M867.147 327.593C820.505 329.591 763.473 338.453 706.536 363.355C707.644 366.617 706.626 370.3 703.658 372.376C702.653 373.078 701.471 374.375 699.1 377.189C698.928 377.393 698.91 377.363 698.736 377.57C694.098 383.082 691.967 385.235 688.217 387.041C683.094 389.508 679.27 389.481 671.356 388.209C670.654 388.096 670.34 388.066 669.952 388.007C666.747 387.519 665.089 387.493 663.932 387.908C662.554 388.401 661.17 388.347 659.831 388.092C656.461 390.161 653.049 391.945 649.703 394.149C568.051 447.933 554.373 627.791 554.373 627.791C554.373 627.791 799.115 679.145 865.117 569.701C879.995 545.032 893.117 520.404 905.055 496.599C905.074 496.359 904.964 496.142 904.993 495.901C906.08 486.863 907.985 480.519 912.758 467.505C912.846 467.265 912.846 467.274 912.934 467.035C916.463 457.414 917.817 452.864 918.479 447.879C918.464 447.79 918.452 447.77 918.427 447.647C918.243 446.726 917.913 445.49 917.309 443.52C917.21 443.198 917.108 442.889 916.958 442.408C915.413 437.435 914.894 435.565 914.361 432.623C913.246 426.464 913.474 420.901 916.492 415.175C919.303 409.837 923.554 406.173 930.096 401.811C932.112 400.466 934.318 399.106 936.722 397.698C939.092 396.309 941.562 394.909 944.231 393.472C945.224 392.938 949.239 390.804 949.533 390.649C950.604 390.083 951.75 389.974 952.87 389.641C965.942 356.428 973.149 334.517 973.148 334.517C973.148 334.517 929.422 324.926 867.147 327.593ZM832.018 375.724C835.093 375.655 838.184 376.738 840.582 379.032C845.378 383.619 845.548 391.254 840.961 396.05C841.185 395.815 835.956 401.826 833.518 403.307C831.353 404.622 829.724 405.049 827.175 405.454C826.923 405.494 825.735 405.715 825.363 405.774C824.583 405.897 823.797 405.993 822.946 406.154C816.425 407.391 810.161 403.098 808.924 396.577C807.687 390.056 811.981 383.792 818.502 382.555C819.442 382.377 820.293 382.263 821.151 382.123C821.178 382.093 821.224 382.001 821.241 381.981C821.965 381.169 822.705 380.308 823.563 379.411C825.857 377.012 828.944 375.792 832.018 375.724ZM821.447 496.034C825.882 495.316 830.4 496.249 834.77 499.376C841.766 504.383 843.028 512.452 839.793 519.65C838.084 523.451 835.25 526.981 831.363 530.754C829.213 532.841 826.763 534.994 823.996 537.215C819.94 540.471 811.137 546.878 811.424 546.638C809.638 548.134 807.517 548.803 805.368 549.106C805.353 549.108 805.336 549.104 805.321 549.107C801.698 552.05 796.54 552.739 792.149 550.426C786.277 547.333 784.03 540.083 787.123 534.211C787.258 533.954 789.737 529.212 790.436 527.933C792.357 524.413 794.284 521.098 796.324 517.912C800.406 511.535 804.463 506.365 808.718 502.615C812.691 499.114 817.012 496.753 821.447 496.034ZM775.506 548.837C776.533 548.733 777.637 548.816 778.685 549.14C782.298 550.255 784.37 553.705 784.092 557.323C784.448 560.199 783.597 563.261 781.532 565.963C778.869 569.449 773.856 570.135 770.37 567.471C768.878 566.331 768.032 564.745 767.613 563.054C766.123 561.371 765.268 559.11 765.647 556.474C766.307 551.886 769.794 549.577 773.415 549.164C773.678 549.134 773.943 549.201 774.208 549.193C774.643 549.071 775.053 548.883 775.506 548.837Z" fill="#d4b953" fill-rule="nonzero" opacity="1" stroke="none"/>
<path d="M538.24 625.12C538.24 625.12 541.548 662.07 510.728 709.467C506.456 707.926 503.42 707.09 500.791 707.356C497.216 707.718 494.27 709.72 492.657 712.855C491.776 714.566 491.45 716.101 491.105 718.581C491.042 719.032 490.849 720.613 490.827 720.779C490.71 721.655 490.582 722.347 490.458 723.074C490.144 724.927 489.752 726.712 489.181 728.56C488.381 731.151 489.084 733.736 490.646 735.711C467.58 762.142 434.748 788.355 384.205 780.298C329.664 771.602 287.541 784.175 287.541 784.175C287.541 784.175 290.161 750.94 304.235 716.815C305.32 716.522 306.36 716.024 307.279 715.254C308.409 714.309 313.414 710.319 314.016 709.833C316.553 707.786 318.088 706.418 319.504 704.906C325.081 698.952 326.063 692.742 324.298 681.335C336.159 665.901 351.655 653.076 372.193 647.195C448.113 625.454 538.24 625.12 538.24 625.12ZM397.182 717.779C391.184 718.772 386.284 720.457 382.878 722.762C380.8 724.168 379.155 725.866 378.142 727.952C376.479 731.378 376.838 735.48 379.636 738.462C385.536 744.751 396.902 741.619 409.23 732.998C412.825 730.484 413.69 725.541 411.176 721.946C409.198 719.118 405.72 718.055 402.572 718.918C400.999 717.952 399.146 717.453 397.182 717.779Z" fill="#c1ad27" fill-rule="nonzero" opacity="1" stroke="none"/>
<path d="M212.44 339.972C259.125 339.893 316.494 346.21 374.483 368.554C373.521 371.862 374.701 375.497 377.759 377.438C378.794 378.095 380.033 379.338 382.527 382.044C382.707 382.24 382.725 382.209 382.908 382.408C387.786 387.709 390.011 389.764 393.837 391.402C399.065 393.639 402.884 393.441 410.734 391.819C411.43 391.675 411.742 391.631 412.127 391.554C415.307 390.925 416.963 390.825 418.137 391.187C419.536 391.619 420.916 391.504 422.242 391.189C425.701 393.106 429.188 394.736 432.629 396.789C516.593 446.888 538.259 625.959 538.259 625.959C538.259 625.959 296.044 688.15 225.238 581.751C209.278 557.767 195.073 533.748 182.088 510.498C182.058 510.258 182.158 510.037 182.119 509.797C180.631 500.817 178.446 494.564 173.098 481.775C172.999 481.539 173 481.548 172.901 481.313C168.948 471.859 167.393 467.374 166.51 462.423C166.521 462.333 166.532 462.313 166.551 462.188C166.695 461.26 166.969 460.011 167.485 458.016C167.569 457.69 167.658 457.377 167.786 456.89C169.108 451.853 169.544 449.962 169.945 446.999C170.785 440.796 170.309 435.249 167.04 429.663C163.994 424.456 159.585 420.984 152.855 416.917C150.781 415.663 148.517 414.403 146.053 413.103C143.624 411.821 141.094 410.533 138.363 409.216C137.348 408.726 133.242 406.773 132.94 406.631C131.846 406.114 130.696 406.055 129.563 405.773C115.026 373.173 106.851 351.605 106.852 351.605C106.852 351.605 150.108 340.078 212.44 339.972ZM249.675 386.493C246.601 386.561 243.561 387.78 241.267 390.179C236.68 394.975 236.85 402.61 241.646 407.197C241.411 406.973 246.902 412.745 249.404 414.115C251.626 415.333 253.272 415.687 255.836 415.978C256.09 416.007 257.287 416.175 257.661 416.217C258.445 416.306 259.235 416.366 260.092 416.49C266.662 417.435 272.729 412.867 273.674 406.298C274.619 399.728 270.052 393.662 263.482 392.716C262.535 392.58 261.679 392.504 260.816 392.403C260.788 392.374 260.738 392.284 260.72 392.265C259.961 391.485 259.183 390.659 258.286 389.8C255.888 387.506 252.749 386.424 249.675 386.493ZM265.588 506.214C261.125 505.693 256.653 506.827 252.427 510.145C245.661 515.459 244.758 523.576 248.311 530.623C250.187 534.344 253.176 537.744 257.226 541.34C259.467 543.33 262.011 545.372 264.873 547.468C269.071 550.54 278.15 556.549 277.852 556.322C279.703 557.737 281.852 558.311 284.012 558.518C284.027 558.519 284.043 558.515 284.059 558.517C287.809 561.296 292.993 561.755 297.277 559.249C303.005 555.897 304.927 548.555 301.576 542.826C301.43 542.575 298.742 537.948 297.988 536.701C295.912 533.271 293.839 530.045 291.66 526.952C287.298 520.763 283.015 515.779 278.597 512.222C274.472 508.901 270.05 506.735 265.588 506.214ZM313.832 556.921C312.802 556.863 311.702 556.995 310.67 557.365C307.11 558.64 305.194 562.178 305.632 565.78C305.405 568.669 306.391 571.691 308.574 574.298C311.39 577.662 316.428 578.124 319.792 575.308C321.232 574.103 322.007 572.481 322.351 570.773C323.764 569.025 324.518 566.729 324.022 564.111C323.158 559.558 319.571 557.406 315.936 557.154C315.672 557.136 315.41 557.215 315.145 557.218C314.705 557.116 314.288 556.946 313.832 556.921Z" fill="#d4b953" fill-rule="nonzero" opacity="1" stroke="none"/>
</g>
<path d="M558.838 627.867C558.838 627.867 599.365 597.409 644.205 560.151C689.044 522.893 736.992 497.804 736.992 497.804" fill="none" opacity="1" stroke="#9a8b1f" stroke-linecap="round" stroke-linejoin="round" stroke-width="6.07308"/>
<path d="M558.525 630.093C558.525 630.093 570.125 645.337 581.345 654.6C592.564 663.862 603.404 667.143 603.404 667.143" fill="none" opacity="1" stroke="#9a8b1f" stroke-linecap="round" stroke-linejoin="round" stroke-width="6.07308"/>
<path d="M532.416 626.987C532.416 626.987 490.574 598.362 444.121 563.135C397.669 527.908 348.653 504.977 348.653 504.977" fill="none" opacity="1" stroke="#9a8b1f" stroke-linecap="round" stroke-linejoin="round" stroke-width="6.07308"/>
<path d="M532.828 629.196C532.828 629.196 521.917 644.941 511.121 654.694C500.324 664.446 489.641 668.206 489.641 668.206" fill="none" opacity="1" stroke="#9a8b1f" stroke-linecap="round" stroke-linejoin="round" stroke-width="6.07308"/>
</g>
<path d="M476.346 647.63L495.872 652.082C524.827 658.684 532.945 693.497 526.098 733.004L517.625 810.471C509.474 860.193 510.036 868.861 481.08 862.259L422.054 851.058C393.099 844.456 399.555 821.018 406.402 781.511L423.91 705.274C430.756 665.767 447.391 641.028 476.346 647.63Z" fill="#e2f1fa" fill-rule="nonzero" opacity="1" stroke="#ffffff" stroke-linecap="round" stroke-linejoin="round" stroke-width="7.73786" vectornator:layerName="Curve 1"/>
<path d="M578.449 656.682L597.064 648.919C624.671 637.406 647.207 662.582 659.116 700.691L683.612 769.038C695.52 807.147 706.433 827.296 678.827 838.808L623.565 864.222C595.958 875.734 587.583 845.085 575.675 806.976L559.699 737.502C547.791 699.393 550.842 668.194 578.449 656.682Z" fill="#e2f1fa" fill-rule="nonzero" opacity="1" stroke="#ffffff" stroke-linecap="round" stroke-linejoin="round" stroke-width="7.82572" vectornator:layerName="Curve 2"/>
<g opacity="1" vectornator:layerName="Group 13">
<path d="M694.779 803.609C694.779 803.609 667.575 792.255 639.198 799.784C616.03 805.931 590.59 828.604 590.59 828.604C575.814 831.72 569.908 836.831 572.014 846.037L586.261 872.289C588.367 881.495 614.993 880.634 614.993 880.634L684.729 863.487C699.505 860.371 721.459 853.689 719.353 844.482L719.362 814.964C717.256 805.758 715.243 797.499 694.779 803.609Z" fill="#a2662a" fill-rule="nonzero" opacity="1" stroke="none"/>
<path d="M571.552 844.8C571.552 844.8 608.309 861.371 650.485 851.666C694.015 841.651 718.951 810.88 718.951 810.88C718.951 810.88 723.214 844.293 720.258 851.344C717.301 858.396 706.281 861.017 706.281 861.017C706.281 861.017 674.103 867.657 667.329 868.867L617.738 880.727C610.964 881.937 604.552 884.523 596.77 883.714C588.989 882.904 586.61 877.488 586.61 877.488L571.552 844.8Z" fill="#7c4a25" fill-rule="nonzero" opacity="1" stroke="none"/>
</g>
<g opacity="1" vectornator:layerName="Group 14">
<path d="M407.126 814.572C407.126 814.572 433.13 800.687 462.093 805.488C485.739 809.407 513.218 829.563 513.218 829.563C528.222 831.262 534.587 835.789 533.364 845.154L521.674 872.639C520.452 882.004 493.863 883.674 493.863 883.674L422.815 873.226C407.81 871.526 385.321 866.958 386.543 857.594L383.732 828.209C384.955 818.845 386.174 810.432 407.126 814.572Z" fill="#a2662a" fill-rule="nonzero" opacity="1" stroke="none"/>
<path d="M533.707 843.878C533.707 843.878 498.689 863.864 455.782 858.207C411.498 852.369 383.753 824.105 383.753 824.105C383.753 824.105 382.681 857.772 386.294 864.511C389.907 871.25 401.125 872.812 401.125 872.812C401.125 872.812 433.789 876.368 440.647 876.93L491.141 884.027C497.999 884.589 504.627 886.555 512.297 885.01C519.966 883.466 521.82 877.849 521.82 877.849L533.707 843.878Z" fill="#7c4a25" fill-rule="nonzero" opacity="1" stroke="none"/>
</g>
<g opacity="1" vectornator:layerName="Group 24">
<path d="M744.718 670.473C744.718 670.473 702.525 680.212 661.895 682.582C621.265 684.951 582.198 679.95 582.198 679.95C565.328 680.934 548.094 663.921 543.705 641.951L543.705 641.951C539.316 619.981 549.434 601.374 566.304 600.39C566.304 600.39 607.714 609.246 648.344 606.877C688.974 604.507 728.824 590.912 728.824 590.912C745.694 589.929 762.928 606.941 767.317 628.911L767.317 628.911C771.706 650.881 761.588 669.489 744.718 670.473Z" fill="#e2f1fa" fill-rule="nonzero" opacity="1" stroke="#ffffff" stroke-linecap="butt" stroke-linejoin="round" stroke-width="7.82572"/>
<path d="M710.845 679.129C734.931 688.064 655.948 663.698 691.133 667.807C699.905 668.831 731.89 674.082 707.465 667.017C704.508 666.161 680.531 658.464 681.575 654.281C682.511 650.53 720.26 666.371 722.44 662.943C729.008 652.612 687.038 661.603 688.293 649.426C688.568 646.756 721.623 658.561 724.426 656.011C733.576 647.686 685.285 653.742 689.947 642.284C690.852 640.061 733.266 653.813 715.833 644.775" fill="none" opacity="0" stroke="#e2f1fa" stroke-linecap="round" stroke-linejoin="round" stroke-width="7.82572"/>
<path d="M705.245 685.065C694.394 683.173 684.675 678.171 673.921 676.295" fill="none" opacity="0" stroke="#e2f1fa" stroke-linecap="round" stroke-linejoin="round" stroke-width="7.82572"/>
<path d="M674.034 700.144C670.141 694.91 699.669 713.217 695.857 707.934C693.925 705.257 678.85 692.769 684.142 696.051C695.097 702.843 704.523 710.633 714.111 718.356" fill="none" opacity="0" stroke="#e2f1fa" stroke-linecap="round" stroke-linejoin="round" stroke-width="7.82572"/>
</g>
<g opacity="0" vectornator:layerName="Group 25">
<path d="M347.595 619.118C347.595 619.118 375.482 585.991 406.546 559.695C437.61 533.4 471.851 513.936 471.851 513.936C484.749 503.018 508.746 506.271 525.45 521.202L525.45 521.202C542.153 536.132 545.238 557.087 532.34 568.005C532.34 568.005 493.912 585.793 462.848 612.089C431.784 638.384 408.085 673.187 408.085 673.187C395.187 684.105 371.19 680.852 354.486 665.921L354.486 665.921C337.782 650.991 334.697 630.036 347.595 619.118Z" fill="#e2f1fa" fill-rule="nonzero" opacity="1" stroke="#ffffff" stroke-linecap="butt" stroke-linejoin="round" stroke-width="7.82572"/>
<path d="M382.403 663.3C367.626 684.315 411.311 614.146 398.374 647.123C395.148 655.345 381.921 684.936 394.977 663.118C396.557 660.476 410.109 639.251 413.888 641.327C417.277 643.188 392.342 675.655 395.101 678.636C403.417 687.619 405.415 644.744 416.871 649.06C419.383 650.006 399.546 678.963 401.298 682.323C407.017 693.291 413.464 645.051 423.356 652.479C425.275 653.92 401.171 691.431 414.353 676.876" fill="none" opacity="0" stroke="#e2f1fa" stroke-linecap="round" stroke-linejoin="round" stroke-width="7.82572"/>
<path d="M378.089 656.373C382.683 646.362 389.997 638.238 394.55 628.317" fill="none" opacity="0" stroke="#e2f1fa" stroke-linecap="round" stroke-linejoin="round" stroke-width="7.82572"/>
<path d="M387.865 626.952C392.414 623.277 375.098 646.398 377.356 641.003C387.743 616.181 378.162 634.43 373.639 647.039C372.676 649.724 377.072 636.261 375.601 638.706C374.897 639.876 370.566 647.915 371.881 644.643C373.179 641.413 382.161 625.337 376.175 635.538C375.202 637.196 373.787 638.488 372.9 640.18C370.517 644.722 367.92 649.094 365.815 653.714" fill="none" opacity="1" stroke="#e2f1fa" stroke-linecap="round" stroke-linejoin="round" stroke-width="7.82572"/>
<path d="M371.46 622.35C377.513 619.919 352.287 643.808 358.367 641.468C361.447 640.282 377.364 628.886 372.843 633.168C363.483 642.03 353.549 649.16 343.638 656.464" fill="none" opacity="0" stroke="#e2f1fa" stroke-linecap="round" stroke-linejoin="round" stroke-width="7.82572"/>
</g>
<g opacity="1" vectornator:layerName="Group 15">
<path d="M366.538 662.93C366.538 662.93 364.422 644.739 369.159 628.924C373.896 613.108 385.486 599.669 385.486 599.669C387.452 593.102 406.875 590.768 428.868 594.456L428.868 594.456C450.86 598.144 467.094 606.457 465.128 613.023C465.128 613.023 449.407 626.406 444.67 642.221C439.933 658.037 446.18 676.285 446.18 676.285C444.213 682.852 424.79 685.186 402.798 681.498L402.798 681.498C380.805 677.81 364.571 669.497 366.538 662.93Z" fill="#e2f1fa" fill-rule="nonzero" opacity="1" stroke="#ffffff" stroke-linecap="butt" stroke-linejoin="round" stroke-width="7.82572"/>
<path d="M421.108 676.096C424.545 687.187 409.006 651.026 421.766 666.851C424.947 670.796 435.235 685.245 430.023 674.082C429.392 672.731 424.935 661.741 429.04 662.029C432.719 662.287 436.516 679.747 440.493 680.572C452.479 683.058 425.236 664.768 436.356 664.812C438.794 664.822 443.906 680.023 447.413 681.163C458.86 684.882 431.226 663.656 443.304 665.247C445.647 665.556 453.414 685.002 453.152 676.867" fill="none" opacity="0" stroke="#e2f1fa" stroke-linecap="round" stroke-linejoin="round" stroke-width="7.82572"/>
<path d="M413.374 673.856C409.98 668.949 409.802 664.415 406.438 659.553" fill="none" opacity="0" stroke="#e2f1fa" stroke-linecap="round" stroke-linejoin="round" stroke-width="7.82572"/>
<path d="M400.721 660.01C401.532 657.768 404.552 670.134 402.566 667.523C393.429 655.512 398.749 664.642 403.932 670.627C405.036 671.902 399.191 665.578 399.768 666.83C400.045 667.429 402.31 671.468 401.066 669.893C399.839 668.339 395.541 660.212 398.062 665.413C398.472 666.258 398.32 667.018 398.813 667.864C400.139 670.137 401.197 672.37 402.774 674.632" fill="none" opacity="1" stroke="#e2f1fa" stroke-linecap="round" stroke-linejoin="round" stroke-width="7.82572"/>
<path d="M385.852 660.608C388.576 658.656 386.426 672.562 389.229 670.644C390.65 669.672 394.467 662.44 394.082 664.932C393.283 670.091 390.913 674.613 388.675 679.203" fill="none" opacity="0" stroke="#e2f1fa" stroke-linecap="round" stroke-linejoin="round" stroke-width="7.82572"/>
</g>
<g opacity="1" vectornator:layerName="Group 17">
<path d="M508.479 579.354L566.973 579.354C620.586 579.354 664.048 619.618 664.048 669.287L664.048 669.287C664.048 718.956 620.586 759.22 566.973 759.22L508.479 759.22C454.865 759.22 411.403 718.956 411.403 669.287L411.403 669.287C411.403 619.618 454.865 579.354 508.479 579.354Z" fill="#7c4a25" fill-rule="nonzero" opacity="1" stroke="none"/>
<g opacity="1">
<g opacity="1">
<path d="M609.224 734.313C601.716 709.316 598.629 693.566 626.342 685.759C654.055 677.951 658.09 695.317 665.598 720.314C673.106 745.311 652.406 774.486 652.406 774.486C652.406 774.486 616.731 759.31 609.224 734.313Z" fill="#3f835a" fill-rule="nonzero" opacity="1" stroke="none"/>
<path d="M624.142 703.617L622.289 708.781C622.289 708.781 622.734 712.081 623.297 713.814C623.86 715.547 624.382 718.756 625.983 721.941C627.584 725.125 630.111 727.814 631.002 728.968C635.196 734.4 639.596 736.814 643.079 742.752C644.491 745.158 645.731 747.662 646.946 750.173C648.109 752.575 648.493 755.999 650.186 758.116C650.478 758.481 649.729 757.297 649.559 756.862C649.142 755.794 648.772 754.709 648.409 753.622C647.934 752.195 647.738 750.689 647.364 749.232C646.441 745.63 645.851 741.983 644.542 738.467C643.225 734.926 641.134 731.923 639.526 728.538C638.25 725.853 637.617 722.893 636.181 720.281C635.441 718.936 634.377 715.911 634.108 714.299C633.573 711.087 633.898 705.354 633.898 705.354L624.875 700.079L624.142 703.617Z" fill="#7ca76a" fill-rule="nonzero" opacity="1" stroke="none"/>
</g>
<g opacity="1">
<path d="M415.674 725.826C419.288 703.135 405.249 674.863 434.592 674.578C438.501 674.54 454.422 679.318 459.958 680.192C507.046 687.62 477.09 709.975 472.996 735.688C468.901 761.402 437.359 779.613 437.359 779.613C437.359 779.613 411.58 751.54 415.674 725.826Z" fill="#3f835a" fill-rule="nonzero" opacity="1" stroke="none"/>
<path d="M449.151 696.625L446.898 698.65C446.898 698.65 442.533 710.561 441.831 717.057C440.267 731.519 442.548 747.015 437.923 760.89C437.883 761.011 438.044 760.668 438.093 760.551C438.611 759.308 439.262 758.11 439.622 756.813C440.475 753.741 440.71 750.512 441.661 747.469C444.42 738.637 448.85 730.383 451.854 721.644C454.347 714.394 455.567 709.228 455.909 701.7C456.042 698.763 456.029 698.125 456.029 698.125L454.176 692.407L452.066 694.281L449.151 696.625Z" fill="#7ca76a" fill-rule="nonzero" opacity="1" stroke="none"/>
</g>
<g opacity="1">
<path d="M510.919 739.196C510.372 716.825 489.484 698.594 516.204 692.593C520.542 691.619 533.03 694.929 539.735 694.385C549.103 693.625 567.839 694.652 573.014 695.402C598.014 699.025 568.631 717.817 569.158 739.362C569.794 765.365 542.039 788.552 542.039 788.552C542.039 788.552 511.556 765.2 510.919 739.196Z" fill="#3f835a" fill-rule="nonzero" opacity="1" stroke="none"/>
<path d="M533.183 709.848C533.183 709.848 532.622 713.063 532.349 714.94C531.83 718.505 531.368 722.625 531.871 726.246C533.311 736.61 539.339 746.124 541.903 756.181C542.506 758.547 542.842 761.635 543.176 764.142C543.218 764.458 542.862 767.703 542.862 767.703C542.862 767.703 543.469 764.696 543.495 764.461C543.63 763.246 543.698 762.019 543.654 760.798C543.592 759.094 543.307 757.404 543.176 755.703C543.025 753.733 542.727 749.737 542.858 747.423C543.239 740.696 544.503 733.287 543.973 726.564C543.657 722.571 543.512 720.392 542.639 716.526C541.955 713.496 543.208 709.454 543.208 709.454L538.273 703.115L533.183 709.848Z" fill="#7ca76a" fill-rule="nonzero" opacity="1" stroke="none"/>
</g>
<g opacity="1">
<path d="M558.752 737.851C557.47 718.161 525.393 696.506 538.244 694.691C549.902 693.044 579.238 690.001 582.751 689.88C584.675 689.814 597.638 689.363 607.381 687.537C618.081 685.53 625.975 685.857 625.975 685.857C625.975 685.857 615.732 717.091 616.954 735.851C618.644 761.811 591.85 786.013 591.85 786.013C591.85 786.013 560.442 763.812 558.752 737.851Z" fill="#b6d57e" fill-rule="nonzero" opacity="1" stroke="none"/>
<path d="M571.277 690.928C571.277 690.928 572.121 693.655 572.745 695.129C574.664 699.665 572.523 705.347 575.898 717.719C579.272 730.092 584.035 732.259 586.242 744.62C587.172 749.829 585.786 757.768 588.211 762.617C588.378 762.952 588.221 759.015 588.241 758.64C588.409 755.546 588.854 755.31 588.773 752.212C588.666 748.072 590.718 741.703 590.28 737.584C589.097 726.468 586.752 726.002 585.413 714.845C585.267 713.627 586.092 699.904 586.104 699.732C586.334 696.522 585.372 689.676 585.372 689.676C585.372 689.676 581.86 689.755 578.336 690.068C574.813 690.381 571.277 690.928 571.277 690.928Z" fill="#6b8d59" fill-rule="nonzero" opacity="1" stroke="none"/>
</g>
<g opacity="1">
<path d="M652.192 722.205C643.002 704.189 599.683 693.038 619.636 687.195C631.326 683.771 644.979 675.205 658.824 669.961C672.363 664.833 693.254 675.68 705.176 699.05C717.098 722.421 701.997 754.594 701.997 754.594C701.997 754.594 664.114 745.575 652.192 722.205Z" fill="#b6d57e" fill-rule="nonzero" opacity="1" stroke="none"/>
<path d="M640.185 678.441C640.185 678.441 643.535 680.996 644.707 681.465C648.756 683.084 652.352 682.508 656.261 684.443C665.035 688.786 667.261 688.848 674.923 695.464C682.586 702.081 684.283 705.493 686.912 710.91C688.11 713.378 690.392 720.643 690.743 723.365C690.797 723.781 693.902 732.648 693.902 732.648C693.902 732.648 691.435 713.594 691.18 712.787C690.189 709.648 690.112 705.773 688.88 702.721C686.035 695.67 682.449 689.146 677.054 684.343C671.659 679.539 653.248 672.18 653.248 672.18C653.248 672.18 649.833 673.601 646.567 675.166C643.301 676.731 640.185 678.441 640.185 678.441Z" fill="#6b8d59" fill-rule="nonzero" opacity="1" stroke="none"/>
</g>
<g opacity="1">
<path d="M461.485 733.671C462.391 711.368 450.218 679.766 448.612 678.766C443.292 675.452 462.523 679.849 478.412 682.839C486.61 684.381 518 690.04 520.499 690.422C531.562 692.113 531.684 694.365 541.519 694.293C549.887 694.233 520.327 719.413 519.6 737.308C518.545 763.299 489.337 784.787 489.337 784.787C489.337 784.787 460.431 759.662 461.485 733.671Z" fill="#b6d57e" fill-rule="nonzero" opacity="1" stroke="none"/>
<path d="M493.248 685.234C493.248 685.234 488 688.608 484.734 693.853C482.018 698.213 483.222 702.625 483.222 702.625C483.222 702.625 484.996 709.041 485.239 716.342C485.482 723.643 482.099 727.777 481.648 735.866C481.198 743.956 482.837 746.701 483.436 748.699C484.271 751.483 488.893 760.912 488.893 760.912C488.893 760.912 487.116 753.099 487.126 752.814C487.211 750.248 486.78 748.814 486.814 746.248C486.922 738.268 492.859 729.349 494.749 717.608C496.638 705.866 492.732 707.454 497.18 699.807C501.483 692.408 504.326 687.574 504.326 687.574L493.248 685.234Z" fill="#6b8d59" fill-rule="nonzero" opacity="1" stroke="none"/>
</g>
<g opacity="1">
<path d="M372.251 701.546C380.659 676.813 403.864 666.267 414.958 668.429C434.548 672.247 454.423 676.7 458.861 682.27C464.965 689.931 432.297 705.021 427.134 720.207C418.727 744.94 384.512 757.995 384.512 757.995C384.512 757.995 363.844 726.279 372.251 701.546Z" fill="#b6d57e" fill-rule="nonzero" opacity="1" stroke="none"/>
<path d="M424.51 670.286C421.502 668.986 411.212 674.066 408.548 675.54C404.575 677.738 402.952 678.148 400.669 680.067C397.348 682.859 396.675 685.22 395.667 687.393C394.659 689.566 394.936 691.667 394.067 694.276C391.481 702.032 392.365 711.946 391.822 720.09C391.596 723.484 392.347 729.983 390.699 733.278C390.574 733.529 391.727 731.73 391.795 731.458C392.104 730.224 392.088 730.522 392.382 729.284C393.024 726.59 393.123 723.395 393.505 720.652C394.628 712.605 395.944 705.819 399.117 698.204C402.088 691.074 405.954 687.579 412.003 684.176C417.022 681.353 421.6 678.932 426.134 676.53C427.363 675.879 434.243 673.511 434.684 672.629C434.709 672.579 429.438 671.344 429.438 671.344C429.438 671.344 424.658 670.35 424.51 670.286Z" fill="#6b8d59" fill-rule="nonzero" opacity="1" stroke="none"/>
</g>
</g>
</g>
<g opacity="0" vectornator:layerName="Group 23">
<path d="M436.008 609.549C436.008 609.549 434.994 641.014 475.58 661.256C516.165 681.498 590.908 708.621 590.908 708.621" fill="none" opacity="1" stroke="#184657" stroke-linecap="round" stroke-linejoin="round" stroke-width="25.3223" vectornator:layerName="Line 1"/>
<path d="M563.385 683.953L664.732 658.154C664.732 658.154 720.079 739.499 696.124 769.452C672.17 799.406 634.382 820.488 600.306 798.766C566.23 777.044 563.385 683.953 563.385 683.953Z" fill="#236075" fill-rule="nonzero" opacity="1" stroke="none" vectornator:layerName="Rectangle 4"/>
<path d="M563.385 683.953L665.533 658.154C665.533 658.154 663.521 700.149 657.259 717.911C650.997 735.673 652.113 732.924 640.485 729.201C616.717 721.591 563.385 683.953 563.385 683.953Z" fill="#184657" fill-rule="nonzero" opacity="1" stroke="none" vectornator:layerName="Rectangle 5"/>
<path d="M639.096 731.872C636.776 725.505 638.178 719.148 642.227 717.672C646.275 716.197 651.438 720.163 653.758 726.53C656.077 732.897 654.676 739.254 650.627 740.729C646.578 742.204 641.415 738.239 639.096 731.872Z" fill="#236075" fill-rule="nonzero" opacity="1" stroke="#184657" stroke-linecap="round" stroke-linejoin="round" stroke-width="6.42102" vectornator:layerName="Oval 1"/>
</g>
<g opacity="1" vectornator:layerName="Group 18">
<use fill="#e2f1fa" fill-rule="nonzero" opacity="1" stroke="#ffffff" stroke-linecap="round" stroke-linejoin="round" stroke-width="7.84247" xlink:href="#Fill"/>
<clipPath clip-rule="nonzero" id="ClipPath">
<use xlink:href="#Fill"/>
</clipPath>
<g clip-path="url(#ClipPath)">
<path d="M699.949 606.915C712.621 611.007 752.334 574.656 758.83 564.313C766.823 551.587 768.531 547.619 768.446 532.444C768.426 528.854 764.784 514.269 764.784 514.269C764.784 514.269 774.048 517.413 781.661 516.256C805.575 512.62 815.933 489.478 804.585 468.945C800.264 461.126 789.125 455.634 780.607 453.815C776.688 452.978 768.653 452.494 768.653 452.494C768.653 452.494 769.542 451.897 770.055 451.793C775.441 450.698 783.372 443.899 787.238 439.446C793.355 432.4 798.147 424.199 791.366 407.293C779.347 377.326 740.912 392.979 740.912 392.979C740.912 392.979 743.638 390.438 744.402 388.796C745.456 386.533 746.641 384.277 747.174 381.842C748.022 377.973 748.136 373.981 748.513 370.039C749.29 361.912 744.84 349.19 739.929 343.027C724.83 324.08 696.427 312.575 673.057 323.281C666.98 326.066 656.961 335.167 656.961 335.167C656.961 335.167 660.268 327.241 660.584 326.37C662.425 321.307 662.696 320.542 663.651 316.225C667.677 298.04 664.502 291.083 658.267 281.727C653.565 274.672 636.888 269.219 629.518 271.407C605.846 278.435 596.517 307.895 596.517 307.895C596.517 307.895 596.825 297.983 596.734 293.247C596.642 288.511 597.259 282.981 596.948 276.467C596.637 269.953 596.951 263.748 593.821 255.829C587.074 238.762 565.285 228.854 546.011 223.605C521.346 216.888 504.265 219.989 495.892 221.087C464.059 225.26 438.176 253.699 433.25 287.432C430.766 304.441 441.844 321.111 441.844 321.111C441.844 321.111 434.921 317.616 431.276 316.313C425.495 314.247 413.494 309.883 407.436 308.846C390.63 305.97 362.9 304.87 340.514 330.519C306.854 369.086 333.468 418.858 333.468 418.858L321.332 423.765C321.332 423.765 310.137 428.94 305.439 434.818C300.741 440.696 295.998 443.696 294.979 462.452C294.408 472.961 302.885 488.711 310.004 495.314C312.804 497.911 319.179 502.201 319.179 502.201C319.179 502.201 315.55 504.665 314.283 506.391C312.68 508.575 310.258 511.559 309.61 514.179C308.609 518.23 307.734 525.496 309.427 534.072C312.511 549.698 316.082 553.849 325.862 565.997C335.7 578.22 352.66 590.27 366.798 597.685C368.991 598.834 380.871 600.888 380.888 603.85C380.892 604.624 370.983 603.212 364.019 603.251C353.136 603.312 354.013 605.665 341.532 603.377C307.937 597.221 282.91 578.236 261.832 551.786C251.97 539.41 242.804 525.908 237.71 510.985C232.124 494.619 232.687 476.802 230.394 459.681C227.906 441.098 236.16 422.624 239.218 404.123C246.501 360.067 249.103 334.093 264.583 290.883C270.317 274.88 273.23 257.578 281.883 242.91C292.525 224.868 305.32 207.366 321.665 194.117C338.185 180.726 358.778 172.975 378.421 164.657C400.957 155.113 424.596 148.333 447.858 140.676C449.649 140.086 451.594 140.109 453.476 139.95C478.053 137.879 502.573 133.309 527.23 133.985C551.834 134.661 577.22 135.732 600.371 143.982C626.107 153.154 646.283 173.457 670.182 186.609C693.809 199.612 718.246 211.214 741.374 225.065C767.647 240.798 794.722 255.776 818.255 275.284C841.86 294.852 862.746 317.673 881.874 341.536C894.314 357.057 906.609 373.754 912.379 392.71C917.234 408.657 915.039 426.18 912.66 442.666C910.476 457.8 903.923 472.011 898.851 486.456C892.851 503.542 889.053 521.811 879.459 537.216C873.284 547.132 861.764 552.604 852.885 560.262C843.125 568.679 834.232 578.219 823.511 585.406C793.237 605.7 771.893 603.573 737.209 609.481C731.652 610.428 723.148 607.52 716.814 606.82C713.292 606.431 706.266 605.492 706.266 605.492C706.266 605.492 715.32 605.905 719.614 604.723C731.063 601.571 729.55 601.581 734.999 591.454" fill="#ffffff" fill-rule="nonzero" opacity="1" stroke="#ffffff" stroke-linecap="round" stroke-linejoin="round" stroke-width="7.84247" vectornator:layerName="Curve"/>
</g>
</g>
<g opacity="0" vectornator:layerName="Group 20">
<path d="M329.438 595.433L425.999 608.566L562.017 595.433L682.093 613.256L750.562 595.433L695.237 748.459L634.19 758.47L544.234 732.975L438.029 772.473L391.284 748.459L329.438 595.433Z" fill="#f8dfaf" fill-rule="nonzero" opacity="1" stroke="none" vectornator:layerName="Rectangle 3"/>
<path d="M553.895 613.593L550.213 729.337L632.728 750.311L657.305 636.039L638.489 750.311L694.223 744.659L683.594 691.556L702.252 626.893L750.562 595.433L730.243 651.176L706.871 699.391L702.837 714.773L702.592 729.366L696.072 748.355L635.071 759.601L540 734.346L438.692 772.473L391.536 750.311L336.355 612.687L329.438 595.433L426.422 608.611L516.518 599.184L561.527 595.433L682.442 613.593L750.562 595.433L684.88 617.277L671.759 617.249L663.58 626.893L669.41 614.504L553.895 599.537L426.23 613.593L424.285 646.216L421.573 613.593L341.113 603.403L349.229 626.893L367.351 636.039L406.932 702.589L401.982 743.867L436.876 764.047L426.151 668.186L441.258 763.938L540 721.82L553.895 613.593Z" fill="#f2d08d" fill-rule="nonzero" opacity="1" stroke="none" vectornator:layerName="Rectangle 4"/>
</g>
<path d="M349.795 679.709L359.2 652.353C365.755 633.287 387.027 623.318 406.714 630.086L406.714 630.086C426.4 636.855 437.045 657.797 430.491 676.863L421.085 704.219C414.531 723.285 393.258 733.254 373.571 726.485L373.571 726.485C353.885 719.717 343.24 698.775 349.795 679.709Z" fill="#e2f1fa" fill-rule="nonzero" opacity="1" stroke="#ffffff" stroke-linecap="butt" stroke-linejoin="round" stroke-width="7.82572" vectornator:layerName="Rectangle 2"/>
<g opacity="0" vectornator:layerName="Group 26">
<path d="M759.586 524.167C759.586 524.167 761.471 520.517 768.342 517.361C775.213 514.206 787.069 511.546 787.069 511.546L793.39 503.253L795.222 516.572C795.222 516.572 803.299 518.74 809.649 523.864C815.999 528.989 820.622 537.071 820.622 537.071C820.622 537.071 793.771 580.902 780.392 625.151C767.013 669.4 767.106 714.067 767.106 714.067C767.106 714.067 752.521 718.06 739.76 714.067C726.999 710.074 716.061 698.094 716.061 698.094C716.061 698.094 739.281 653.108 748.569 608.728C757.856 564.348 759.586 524.167 759.586 524.167Z" fill="#f6deac" fill-rule="nonzero" opacity="1" stroke="none" vectornator:layerName="Rectangle 4"/>
<path d="M764.259 525.505C764.48 522.518 783.77 517.091 788.316 515.628C793.468 513.971 793.677 505.347 793.677 505.347L795.104 516.714L790.473 519.584C790.473 519.584 797.364 520.215 802.073 522.513C812.847 527.774 815.652 535.227 815.503 537.244C815.216 541.138 806.788 542.474 795.142 539.61C792.704 539.01 790.125 538.226 787.451 537.244C774.64 532.537 763.912 530.215 764.259 525.505Z" fill="#dcc491" fill-rule="nonzero" opacity="1" stroke="none" vectornator:layerName="Oval 2"/>
<path d="M759.163 531.86L760.494 560.96C760.494 560.96 773.114 557.116 782.875 560.776C792.636 564.436 798.26 566.775 798.26 566.775L817.12 542.761L794.559 585.514L755.166 570.621L759.163 531.86Z" fill="#edd4a1" fill-rule="nonzero" opacity="1" stroke="none" vectornator:layerName="Rectangle 5"/>
<path d="M734.236 657.068L750.919 665.968L770.603 669.994L767.686 697.717L767.052 674.399C767.052 674.399 757.004 675.579 749.893 672.685C742.782 669.792 735.166 663.509 735.166 663.509L722.94 683.953L734.236 657.068Z" fill="#edd4a1" fill-rule="nonzero" opacity="1" stroke="none" vectornator:layerName="Rectangle 4"/>
<path d="M777.662 530.102C777.662 530.102 768.234 524.941 778.995 522.439C784.32 521.201 792.826 522.945 797.412 524.544C805.66 527.419 810.294 534.7 807.466 537.244C805.937 538.618 780.707 534.765 783.018 528.957C784.137 526.147 795.366 530.084 795.366 530.084" fill="none" opacity="1" stroke="#f6deac" stroke-linecap="round" stroke-linejoin="round" stroke-width="2.66492" vectornator:layerName="Line 1"/>
</g>
<path d="M871.244 237.331L696.124 880.439" fill="none" opacity="1" stroke="#6b6b6b" stroke-linecap="round" stroke-linejoin="round" stroke-width="19.1377" vectornator:layerName="Line 1"/>
<path d="M728.14 621.02L735.972 593.172C741.43 573.764 762.101 562.6 782.14 568.236L782.14 568.236C802.18 573.872 814.001 594.174 808.543 613.582L800.711 641.43C795.253 660.838 774.583 672.002 754.543 666.366L754.543 666.366C734.503 660.73 722.682 640.428 728.14 621.02Z" fill="#e2f1fa" fill-rule="nonzero" opacity="1" stroke="#ffffff" stroke-linecap="butt" stroke-linejoin="round" stroke-width="7.82572" vectornator:layerName="Rectangle 1"/>
<g opacity="1" vectornator:layerName="Group 19">
<path d="M534.492 538.555L568.604 536.035C568.604 536.035 571.097 550.84 569.963 559.459C568.098 573.641 540.396 573.135 536.996 561.78C533.661 550.643 534.492 538.555 534.492 538.555Z" fill="#000000" fill-rule="nonzero" opacity="0" stroke="none" vectornator:layerName="Curve"/>
<path d="M657.776 551.368C657.173 541.972 669.727 533.518 685.816 532.485C701.905 531.451 715.437 538.23 716.041 547.626C716.644 557.022 704.09 565.476 688.001 566.51C671.912 567.543 658.38 560.764 657.776 551.368Z" fill="#a3bfcd" fill-rule="nonzero" opacity="1" stroke="none"/>
<path d="M390.163 575.626C389.56 566.23 402.114 557.776 418.203 556.743C434.292 555.709 447.824 562.489 448.428 571.884C449.031 581.28 436.477 589.734 420.388 590.768C404.299 591.801 390.767 585.022 390.163 575.626Z" fill="#a3bfcd" fill-rule="nonzero" opacity="1" stroke="none"/>
<path d="M465.289 497.775C465.289 497.775 470.097 498.641 477.79 499.941C485.482 501.241 489.643 501.942 489.643 501.942" fill="none" opacity="1" stroke="#000000" stroke-linecap="round" stroke-linejoin="round" stroke-width="5.13169"/>
<path d="M601.738 501.771C601.738 501.771 606.277 499.965 613.494 497.002C620.711 494.039 624.613 492.435 624.613 492.435" fill="none" opacity="1" stroke="#000000" stroke-linecap="round" stroke-linejoin="round" stroke-width="5.13169"/>
<path d="M478.742 542.373C478.742 542.373 478.273 535.89 479.401 533.281C479.784 532.394 480.264 531.588 480.96 530.883C482.312 529.513 484.484 528.526 488.364 528.075C493.009 527.536 495.309 529.203 497.389 531.04C500.244 533.563 500.861 539.653 500.861 539.653" fill="none" opacity="0" stroke="#000000" stroke-linecap="round" stroke-linejoin="round" stroke-width="5.13169"/>
<path d="M599.642 532.333C599.642 532.333 599.173 525.851 600.302 523.241C600.685 522.355 601.164 521.548 601.86 520.844C603.213 519.473 605.385 518.486 609.265 518.036C613.909 517.496 616.21 519.163 618.289 521.001C621.145 523.523 621.761 529.614 621.761 529.614" fill="none" opacity="0" stroke="#000000" stroke-linecap="round" stroke-linejoin="round" stroke-width="5.13169"/>
<path d="M532.826 540C532.826 540 538.228 536.228 545.996 534.635C553.763 533.043 561.037 536.619 561.037 536.619" fill="none" opacity="1" stroke="#000000" stroke-linecap="round" stroke-linejoin="round" stroke-width="5.27997" vectornator:layerName="Line 2"/>
<path d="M608.048 498.425L608.048 498.425C612.808 498.425 616.667 501.397 616.667 505.062L616.667 529.198C616.667 532.864 612.808 535.836 608.048 535.836L608.048 535.836C603.288 535.836 599.429 532.864 599.429 529.198L599.429 505.062C599.429 501.397 603.288 498.425 608.048 498.425Z" fill="#000000" fill-rule="nonzero" opacity="1" stroke="none" vectornator:layerName="Rectangle 8"/>
<path d="M483.033 499.833L483.033 499.833C487.793 499.833 491.652 502.805 491.652 506.471L491.652 530.606C491.652 534.272 487.793 537.244 483.033 537.244L483.033 537.244C478.273 537.244 474.415 534.272 474.415 530.606L474.415 506.471C474.415 502.805 478.273 499.833 483.033 499.833Z" fill="#000000" fill-rule="nonzero" opacity="1" stroke="none" vectornator:layerName="Rectangle 7"/>
</g>
<g opacity="0" vectornator:layerName="Group 22">
<path d="M470.569 199.482C469.621 192.94 476.546 186.522 486.039 185.145L500.82 183.001C510.312 181.625 518.776 185.812 519.725 192.353L519.725 192.353C520.673 198.895 513.747 205.314 504.255 206.69L489.474 208.834C479.982 210.21 471.518 206.023 470.569 199.482L470.569 199.482Z" fill="#4e2e23" fill-rule="nonzero" opacity="1" stroke="none" vectornator:layerName="Rectangle 5"/>
<path d="M198.085 418.681C182.686 371.651 320.016 369.402 332.091 367.651L696.703 316.669C708.778 314.918 854.532 273.082 854.462 323.492L854.462 323.492C857.048 341.324 787.19 359.366 764.785 365.326C764.785 365.326 645.63 398.984 525.743 415.458C405.856 431.933 293.929 434.314 293.929 434.314C259.129 434.483 200.672 436.514 198.085 418.681L198.085 418.681Z" fill="#643f32" fill-rule="nonzero" opacity="1" stroke="none" vectornator:layerName="Rectangle 4"/>
<g opacity="1" vectornator:layerName="Group 21">
<path d="M332.13 269.794C360.123 236.382 402.832 211.704 488.965 197.131C575.097 182.558 633.924 194.5 666.772 213.438C722.899 245.797 744.319 327.685 744.319 327.685C744.319 327.685 634.075 360.697 521.519 377.769C408.964 394.841 294.097 395.973 294.097 395.973C294.097 395.973 288.505 321.864 332.13 269.794Z" fill="#643f32" fill-rule="nonzero" opacity="1" stroke="none" vectornator:layerName="Rectangle 3"/>
<path d="M473.218 203.552C473.218 203.552 414.442 241.704 389.467 290.192C364.493 338.68 372.164 389.534 372.164 389.534" fill="none" opacity="1" stroke="#4e2e23" stroke-linecap="round" stroke-linejoin="round" stroke-width="5.13169" vectornator:layerName="Line 3"/>
<path d="M518.341 197.008C518.341 197.008 586.565 216.39 624.747 255.185C662.93 293.98 669.928 344.313 669.928 344.313" fill="none" opacity="1" stroke="#4e2e23" stroke-linecap="round" stroke-linejoin="round" stroke-width="5.13169" vectornator:layerName="Line 1"/>
<path d="M496.197 200.219L514.857 375.676" fill="none" opacity="1" stroke="#4e2e23" stroke-linecap="round" stroke-linejoin="round" stroke-width="5.13169" vectornator:layerName="Line 2"/>
</g>
<path d="M270.685 395.484C270.685 395.484 386.831 398.5 518.332 377.958C649.832 357.416 769.921 319.282 769.921 319.282" fill="none" opacity="1" stroke="#4e2e23" stroke-linecap="round" stroke-linejoin="round" stroke-width="5.13169" vectornator:layerName="Line 1"/>
<path d="M297.654 344.966C297.654 344.966 424.471 343.3 509.263 333.95C574.315 326.777 724.065 278.016 724.065 278.016C724.065 278.016 729.496 287.81 734.052 299.373C739.091 312.159 741.395 324.61 741.395 324.61C741.395 324.61 627.376 357.461 509.263 376.443C396.996 394.485 297.881 392.364 297.881 392.364C297.881 392.364 295.152 385.836 294.352 373.168C293.553 360.499 297.654 344.966 297.654 344.966Z" fill="#7e553f" fill-rule="nonzero" opacity="1" stroke="none" vectornator:layerName="Rectangle 4"/>
</g>
<path d="M540.323 552.237C540.631 544.493 546.04 538.442 552.405 538.722C558.77 539.003 563.68 545.507 563.372 553.251C563.064 560.995 557.655 567.045 551.29 566.765C544.925 566.485 540.015 559.981 540.323 552.237Z" fill="#000000" fill-rule="nonzero" opacity="0" stroke="none" vectornator:layerName="Oval 1"/>
<path d="M902.79 130.453L921.762 197.15L847.335 362.119L828.616 357.504L846.565 181.34L902.79 130.453Z" fill="#e3e3e3" fill-rule="nonzero" opacity="1" stroke="none" vectornator:layerName="Rectangle 4"/>
<path d="M891.175 172.302L890.131 194.558L839.393 360.198L837.354 359.633L878.052 191.721L891.175 172.302Z" fill="#b8b8b8" fill-rule="nonzero" opacity="1" stroke="none" vectornator:layerName="Rectangle 5"/>
<path d="M822.151 358.25C823.311 353.695 829.058 351.226 834.988 352.736L843.918 355.009C849.848 356.518 853.715 361.434 852.556 365.989L852.556 365.989C851.397 370.543 845.65 373.012 839.72 371.503L830.79 369.23C824.86 367.721 820.992 362.805 822.151 358.25L822.151 358.25Z" fill="#b8b8b8" fill-rule="nonzero" opacity="1" stroke="none" vectornator:layerName="Rectangle 6"/>
<path d="M315.851 371.946C315.851 371.946 318.355 398.315 304.011 417.462C289.748 436.499 263.023 446.366 263.023 446.366" fill="none" opacity="1" stroke="#7b1f17" stroke-linecap="square" stroke-linejoin="round" stroke-width="41.1182" vectornator:layerName="Line 3"/>
<path d="M331.565 385.231C331.565 385.231 342.496 397.856 347.86 417.462C353.225 437.068 339.202 462.882 339.202 462.882" fill="none" opacity="1" stroke="#8f281f" stroke-linecap="square" stroke-linejoin="round" stroke-width="41.1182" vectornator:layerName="Line 4"/>
<path d="M304.011 362.119C347.594 381.333 415.808 400.032 533.707 396.364C655.511 392.575 704.594 374.457 759.652 352.292" fill="none" opacity="1" stroke="#a12e24" stroke-linecap="round" stroke-linejoin="round" stroke-width="46.404" vectornator:layerName="Line 2"/>
</g>
</svg>
