<svg width="102" height="102" viewBox="0 0 102 102" fill="none" xmlns="http://www.w3.org/2000/svg">
<rect x="2" y="2" width="98" height="98" rx="21" fill="#D0C5A9"/>
<path d="M24.7489 24.7387C24.7489 29.5552 24.783 34.2425 24.7114 38.9263C24.6646 39.7147 24.3741 40.4694 23.8799 41.0862C23.1234 42.0318 21.992 42.2155 20.8607 41.7665C19.7293 41.3175 19.0001 40.4297 19.0001 39.1678C19.0001 33.3717 19.0001 27.5767 19.0001 21.7829C18.9977 21.414 19.0694 21.0483 19.2108 20.7074C19.3522 20.3666 19.5605 20.0574 19.8234 19.7981C20.0863 19.5388 20.3986 19.3347 20.7418 19.1977C21.0849 19.0607 21.4521 18.9937 21.8217 19.0005C27.5989 19.0005 33.375 19.0005 39.1499 19.0005C39.5243 18.9964 39.8958 19.0668 40.2426 19.2076C40.5894 19.3485 40.9046 19.5569 41.1698 19.8206C41.4351 20.0844 41.645 20.3983 41.7873 20.744C41.9296 21.0897 42.0015 21.4602 41.9988 21.8339C42.01 22.2167 41.943 22.5977 41.8017 22.9537C41.6604 23.3097 41.4479 23.6332 41.1771 23.9045C40.9063 24.1757 40.5829 24.389 40.2268 24.5313C39.8706 24.6735 39.4891 24.7418 39.1056 24.7319C34.6756 24.7319 30.2455 24.7319 25.8155 24.7319L24.7489 24.7387Z" fill="#1F576F"/>
<path d="M77.2558 24.7555H76.1652C71.7644 24.7555 67.3646 24.7555 62.966 24.7555C62.5765 24.7735 62.1875 24.7109 61.8233 24.5716C61.459 24.4323 61.1274 24.2194 60.8492 23.9461C60.5709 23.6728 60.352 23.345 60.2061 22.9832C60.0601 22.6214 59.9903 22.2334 60.0011 21.8434C59.9988 21.4601 60.0745 21.0804 60.2235 20.7274C60.3725 20.3743 60.5916 20.0552 60.8677 19.7895C61.1437 19.5239 61.4709 19.3171 61.8293 19.1819C62.1876 19.0466 62.5698 18.9857 62.9524 19.0028C68.6324 19.0028 74.3181 19.0028 80.0095 19.0028C81.7987 19.0028 82.9949 20.1929 82.9983 21.9798C82.9983 27.6631 82.9983 33.3465 82.9983 39.0298C83.0116 39.415 82.9472 39.7989 82.8091 40.1586C82.6709 40.5184 82.4618 40.8466 82.1942 41.1237C81.9266 41.4009 81.6059 41.6213 81.2514 41.7719C80.8968 41.9224 80.5156 42 80.1305 42C79.7453 42 79.3641 41.9224 79.0095 41.7719C78.655 41.6213 78.3343 41.4009 78.0667 41.1237C77.7991 40.8466 77.59 40.5184 77.4519 40.1586C77.3137 39.7989 77.2493 39.415 77.2626 39.0298C77.2626 34.6275 77.2626 30.2286 77.2626 25.8263L77.2558 24.7555Z" fill="#1F576F"/>
<path d="M24.7457 77.2562C29.4796 77.2562 34.0806 77.2562 38.6851 77.2562C39.0717 77.2359 39.4593 77.2622 39.8396 77.3346C40.526 77.5148 41.1223 77.9411 41.5154 78.5324C41.9084 79.1238 42.0708 79.839 41.9716 80.5423C41.8746 81.2137 41.5421 81.8286 41.0336 82.2771C40.525 82.7255 39.8736 82.9781 39.1959 82.9898C33.3927 83.0034 27.5905 83.0034 21.7895 82.9898C21.4214 82.9911 21.0567 82.9193 20.7166 82.7784C20.3764 82.6375 20.0677 82.4304 19.8082 82.1691C19.5487 81.9078 19.3436 81.5975 19.2049 81.2562C19.0662 80.9149 18.9967 80.5494 19.0003 80.181C19.0003 74.402 19.0003 68.6253 19.0003 62.8508C18.9948 62.476 19.0644 62.1038 19.2049 61.7562C19.3454 61.4087 19.554 61.0928 19.8184 60.8272C20.0828 60.5616 20.3976 60.3517 20.7443 60.2098C21.0911 60.0679 21.4627 59.997 21.8372 60.0011C22.219 59.9904 22.5989 60.0575 22.9539 60.1985C23.3089 60.3395 23.6315 60.5513 23.902 60.8212C24.1726 61.091 24.3854 61.4131 24.5275 61.7679C24.6696 62.1227 24.738 62.5028 24.7286 62.8849C24.7286 67.3163 24.7286 71.7477 24.7286 76.1791L24.7457 77.2562Z" fill="#1F576F"/>
<path d="M77.2568 77.2653V76.1811C77.2568 71.8103 77.2568 67.4394 77.2568 63.0685C77.2568 61.2444 78.4498 60 80.1574 60C81.8071 60 82.9966 61.2683 83 63.0344C83 68.6918 83 74.3491 83 80.0065C83 81.8067 81.8173 83 80.0279 83C74.3472 83 68.6609 83 62.9688 83C61.2305 83 59.9865 81.7624 60.0001 80.0918C59.9993 79.7097 60.0759 79.3315 60.2253 78.98C60.3747 78.6284 60.5938 78.3108 60.8694 78.0463C61.1449 77.7818 61.4712 77.5759 61.8286 77.4411C62.1859 77.3063 62.5668 77.2453 62.9484 77.2619C67.3486 77.2619 71.7489 77.2619 76.1491 77.2619L77.2568 77.2653Z" fill="#1F576F"/>
<path d="M50.9394 67.986H34.4052C31.2862 67.986 29.0059 65.689 29.0024 62.5635C29.0024 56.2518 29.0024 49.9436 29.0024 43.6389C28.9808 42.9239 29.1044 42.2121 29.3657 41.5471C29.6269 40.8822 30.0202 40.2781 30.5214 39.7722C31.0226 39.2663 31.621 38.8691 32.28 38.6051C32.939 38.3412 33.6445 38.216 34.3532 38.2373C36.5192 38.2373 38.6852 38.2373 40.8477 38.2373C41.0322 38.268 41.2215 38.2294 41.3799 38.129C41.5382 38.0285 41.6546 37.873 41.7071 37.6919C41.8319 37.3423 42.019 37.0381 42.168 36.7095C43.0032 34.8635 44.5004 34.0454 46.4341 34.0245C49.4815 33.9918 52.5277 33.9918 55.5728 34.0245C57.51 34.0489 59.0834 34.8321 59.8112 36.72C60.279 37.9402 60.9375 38.3702 62.2371 38.2723C64.0322 38.1324 65.8412 38.2303 67.6468 38.2373C68.3555 38.216 69.061 38.3412 69.72 38.6051C70.379 38.8691 70.9774 39.2663 71.4786 39.7722C71.9798 40.2781 72.3731 40.8822 72.6343 41.5471C72.8956 42.2121 73.0192 42.9239 72.9976 43.6389C72.9976 49.9319 72.9976 56.225 72.9976 62.518C72.9976 65.731 70.7277 67.9965 67.5324 68L50.9394 67.986ZM51.0017 65.1891C56.4323 65.1891 61.8628 65.1402 67.2898 65.2136C69.1404 65.2415 70.2841 64.0144 70.2633 62.1824C70.1974 56.0991 70.239 50.0123 70.239 43.929C70.239 41.9432 69.2929 40.9853 67.3383 40.9853C64.8743 40.9853 62.4103 40.9853 59.9463 40.9853C59.6087 41.0122 59.2714 40.9302 58.983 40.7511C58.6945 40.572 58.47 40.3051 58.3418 39.9889C58.0229 39.2687 57.6487 38.5904 57.3368 37.8562C57.1986 37.5282 56.9633 37.2513 56.663 37.0635C56.3627 36.8757 56.0121 36.7863 55.6594 36.8074C52.5543 36.7934 49.4492 36.7934 46.344 36.8074C45.9913 36.7863 45.6408 36.8757 45.3405 37.0635C45.0402 37.2513 44.8048 37.5282 44.6667 37.8562C44.3617 38.5345 43.9979 39.1883 43.7137 39.877C43.3671 40.6986 42.7988 41.0168 41.9324 41.0098C39.4476 40.9818 36.9628 40.9888 34.478 41.0098C32.7452 41.0098 31.7645 42.0376 31.761 43.7717V62.3887C31.761 64.2137 32.7417 65.2101 34.5334 65.2101L51.0017 65.1891Z" fill="#1F576F"/>
<path d="M50.9924 61.9999C49.0109 61.9985 47.0745 61.4379 45.429 60.3892C43.7835 59.3405 42.503 57.8511 41.7501 56.1099C40.9972 54.3687 40.8057 52.4542 41.2 50.6095C41.5943 48.7647 42.5566 47.0728 43.9648 45.7486C45.373 44.4243 47.1636 43.5272 49.1093 43.1713C51.0551 42.8154 53.0682 43.0167 54.8934 43.7496C56.7185 44.4825 58.2733 45.7139 59.3605 47.2877C60.4476 48.8615 61.0181 50.7066 60.9996 52.5889C60.9834 55.0967 59.9206 57.496 58.0445 59.2604C56.1684 61.0247 53.6322 62.0099 50.9924 61.9999ZM51.014 59.2837C52.4282 59.2823 53.81 58.8818 54.9842 58.133C56.1584 57.3842 57.072 56.321 57.609 55.0781C58.146 53.8353 58.2823 52.4689 58.0005 51.1523C57.7187 49.8358 57.0316 48.6285 56.0263 47.6835C55.021 46.7386 53.7429 46.0987 52.3541 45.845C50.9653 45.5914 49.5286 45.7353 48.2261 46.2587C46.9236 46.7821 45.8141 47.6612 45.0385 48.7846C44.2629 49.908 43.856 51.225 43.8696 52.5684C43.88 54.3588 44.6385 56.072 45.9783 57.3312C47.318 58.5905 49.1293 59.2928 51.014 59.2837Z" fill="#1F576F"/>
<rect x="2" y="2" width="98" height="98" rx="21" stroke="#1F576F" stroke-width="4"/>
</svg>
