<svg id="Layer_1" data-name="Layer 1" xmlns="http://www.w3.org/2000/svg" viewBox="0 0 1080 1080"><defs><style>.cls-1{opacity:0.7;}.cls-2,.cls-3{fill:none;stroke:#95784e;stroke-miterlimit:10;stroke-width:30px;}.cls-2{stroke-linecap:round;}.cls-4{fill:#95784e;}</style></defs><g class="cls-1"><path class="cls-2" d="M822.22,667S591.17,497.41,510,361.65s-96.75-172.56-96.75-172.56-14-.34-28.08,0c-18.85.45-35.89,7.15-35.89,7.15l12.87,60.7-58.85-26.68s-7.08,6.55-21.12,28.4-10.92,39-10.92,39l61.37,68.14-71.78-10.4-5.2,48.37s117.42,26.31,209.1,132.47c87.38,101.19,159.55,286.81,159.55,286.81"/><path class="cls-2" d="M822.22,671.65s-218.85-29.87-199.84,139.4C638.51,954.61,864.77,879.76,818,783c-36.4-75.24-132.11-27.62-141.47,9.83-8.2,32.76,29.41,46.82,54.62,34.14a11.59,11.59,0,0,0,4.66-16.13l-26-45.06"/><line class="cls-3" x1="804.34" y1="762.86" x2="740.97" y2="676.85"/><path class="cls-3" d="M693.6,562.25s-58.52-103.86-80.47-202.16-11-151.36-11-151.36l-82.71,25-14,54.62-46-13.27"/></g><path class="cls-4" d="M30,418.93a30,30,0,0,1-30-30V158.6C0,71.15,71.15,0,158.6,0h230a30,30,0,0,1,0,60h-230A98.71,98.71,0,0,0,60,158.6V388.93A30,30,0,0,1,30,418.93Z"/><path class="cls-4" d="M388.93,1080H158.6C71.15,1080,0,1008.85,0,921.4v-230a30,30,0,0,1,60,0v230a98.71,98.71,0,0,0,98.6,98.6H388.93a30,30,0,1,1,0,60Z"/><path class="cls-4" d="M1050,418.93a30,30,0,0,1-30-30V158.6A98.71,98.71,0,0,0,921.4,60h-230a30,30,0,0,1,0-60h230C1008.85,0,1080,71.15,1080,158.6V388.93A30,30,0,0,1,1050,418.93Z"/><path class="cls-4" d="M921.4,1080H691.07a30,30,0,0,1,0-60H921.4a98.71,98.71,0,0,0,98.6-98.6v-230a30,30,0,1,1,60,0v230C1080,1008.85,1008.85,1080,921.4,1080Z"/></svg>