<svg id="Layer_1" data-name="Layer 1" xmlns="http://www.w3.org/2000/svg" viewBox="0 0 1080 1080"><defs><style>.cls-1{opacity:0.7;}.cls-2,.cls-3{fill:none;stroke:#edb858;stroke-linecap:round;stroke-linejoin:round;}.cls-2{stroke-width:30px;}.cls-3{stroke-width:40px;}.cls-4{fill:#edb858;}</style></defs><g class="cls-1"><ellipse class="cls-2" cx="540" cy="636.69" rx="95.74" ry="140.26"/><line class="cls-2" x1="620.51" y1="556.18" x2="663.88" y2="512.8"/><line class="cls-2" x1="416.12" y1="760.57" x2="459.49" y2="717.2"/><line class="cls-2" x1="620.51" y1="717.2" x2="663.88" y2="760.57"/><line class="cls-2" x1="416.12" y1="512.8" x2="459.49" y2="556.18"/><polygon class="cls-3" points="799.36 852.16 280.64 852.16 339.23 412.87 740.77 412.87 799.36 852.16"/><path class="cls-3" d="M672.7,360.54v52.33H407.3V360.54a132.7,132.7,0,1,1,265.4,0Z"/></g><path class="cls-4" d="M30,418.93a30,30,0,0,1-30-30V158.6C0,71.15,71.15,0,158.6,0h230a30,30,0,0,1,0,60h-230A98.71,98.71,0,0,0,60,158.6V388.93A30,30,0,0,1,30,418.93Z"/><path class="cls-4" d="M388.93,1080H158.6C71.15,1080,0,1008.85,0,921.4v-230a30,30,0,0,1,60,0v230a98.71,98.71,0,0,0,98.6,98.6H388.93a30,30,0,1,1,0,60Z"/><path class="cls-4" d="M1050,418.93a30,30,0,0,1-30-30V158.6A98.71,98.71,0,0,0,921.4,60h-230a30,30,0,0,1,0-60h230C1008.85,0,1080,71.15,1080,158.6V388.93A30,30,0,0,1,1050,418.93Z"/><path class="cls-4" d="M921.4,1080H691.07a30,30,0,0,1,0-60H921.4a98.71,98.71,0,0,0,98.6-98.6v-230a30,30,0,1,1,60,0v230C1080,1008.85,1008.85,1080,921.4,1080Z"/></svg>