<svg id="Layer_1" data-name="Layer 1" xmlns="http://www.w3.org/2000/svg" viewBox="0 0 1080 1080"><defs><style>.cls-1{opacity:0.7;}.cls-2{fill:none;stroke:#c53f19;stroke-miterlimit:10;stroke-width:40px;}.cls-3{fill:#c53f19;}</style></defs><g class="cls-1"><rect class="cls-2" x="507.67" y="508.81" width="64.65" height="145.62"/><circle class="cls-2" cx="540" cy="366.18" r="142.63"/><path class="cls-2" d="M709.38,731.5a71.19,71.19,0,0,1-.73,10.17H371.35a71.19,71.19,0,0,1-.73-10.17c0-21.28,9.41-40.54,24.62-54.5a87.8,87.8,0,0,1,59.45-22.56H625.31C671.75,654.44,709.38,688.93,709.38,731.5Z"/><rect class="cls-2" x="268.84" y="741.67" width="542.31" height="114.78" rx="57.39"/></g><path class="cls-3" d="M30,418.93a30,30,0,0,1-30-30V158.6C0,71.15,71.15,0,158.6,0h230a30,30,0,0,1,0,60h-230A98.71,98.71,0,0,0,60,158.6V388.93A30,30,0,0,1,30,418.93Z"/><path class="cls-3" d="M388.93,1080H158.6C71.15,1080,0,1008.85,0,921.4v-230a30,30,0,0,1,60,0v230a98.71,98.71,0,0,0,98.6,98.6H388.93a30,30,0,1,1,0,60Z"/><path class="cls-3" d="M1050,418.93a30,30,0,0,1-30-30V158.6A98.71,98.71,0,0,0,921.4,60h-230a30,30,0,0,1,0-60h230C1008.85,0,1080,71.15,1080,158.6V388.93A30,30,0,0,1,1050,418.93Z"/><path class="cls-3" d="M921.4,1080H691.07a30,30,0,0,1,0-60H921.4a98.71,98.71,0,0,0,98.6-98.6v-230a30,30,0,1,1,60,0v230C1080,1008.85,1008.85,1080,921.4,1080Z"/></svg>