<svg id="Layer_1" data-name="Layer 1" xmlns="http://www.w3.org/2000/svg" viewBox="0 0 1080 1080"><defs><style>.cls-1{opacity:0.7;}.cls-2,.cls-3,.cls-4{fill:none;stroke:#456693;stroke-width:40px;}.cls-2,.cls-4{stroke-miterlimit:10;}.cls-3,.cls-4{stroke-linecap:round;}.cls-3{stroke-linejoin:round;}.cls-5{fill:#456693;}</style></defs><g class="cls-1"><path class="cls-2" d="M852.84,466.71,466.71,852.84,384.84,771A53.61,53.61,0,0,0,309,695.16l-81.87-81.87L613.29,227.16,695.16,309A53.61,53.61,0,0,0,771,384.84Z"/><polyline class="cls-3" points="578.89 488.42 572.6 428.15 435.33 565.41"/><line class="cls-4" x1="517.3" y1="424.48" x2="572.6" y2="428.15"/><polyline class="cls-3" points="566.27 651.95 506 645.65 643.26 508.39"/><line class="cls-4" x1="502.33" y1="590.36" x2="506" y2="645.65"/></g><path class="cls-5" d="M30,418.93a30,30,0,0,1-30-30V158.6C0,71.15,71.15,0,158.6,0h230a30,30,0,0,1,0,60h-230A98.71,98.71,0,0,0,60,158.6V388.93A30,30,0,0,1,30,418.93Z"/><path class="cls-5" d="M388.93,1080H158.6C71.15,1080,0,1008.85,0,921.4v-230a30,30,0,0,1,60,0v230a98.71,98.71,0,0,0,98.6,98.6H388.93a30,30,0,1,1,0,60Z"/><path class="cls-5" d="M1050,418.93a30,30,0,0,1-30-30V158.6A98.71,98.71,0,0,0,921.4,60h-230a30,30,0,0,1,0-60h230C1008.85,0,1080,71.15,1080,158.6V388.93A30,30,0,0,1,1050,418.93Z"/><path class="cls-5" d="M921.4,1080H691.07a30,30,0,0,1,0-60H921.4a98.71,98.71,0,0,0,98.6-98.6v-230a30,30,0,1,1,60,0v230C1080,1008.85,1008.85,1080,921.4,1080Z"/></svg>