<svg id="Layer_1" data-name="Layer 1" xmlns="http://www.w3.org/2000/svg" viewBox="0 0 1080 1080"><defs><style>.cls-1{opacity:0.7;}.cls-2,.cls-3,.cls-4{fill:none;stroke:#578560;stroke-miterlimit:10;}.cls-2{stroke-width:40px;}.cls-3,.cls-4{stroke-width:20px;}.cls-4{stroke-dasharray:56.73 34.04;}.cls-5{fill:#578560;}</style></defs><g class="cls-1"><path class="cls-2" d="M836.14,271.83V609.58a11.27,11.27,0,0,1-11.27,11.27H707.79V381.19H372.21V620.85H255.13a11.27,11.27,0,0,1-11.27-11.27V271.83a11.26,11.26,0,0,1,11.27-11.27H824.87A11.26,11.26,0,0,1,836.14,271.83Z"/><path class="cls-2" d="M707.79,381.19V819.44H593.11a53.11,53.11,0,0,0-106.22,0H372.21V381.19Z"/><line class="cls-3" x1="361.83" y1="695.75" x2="386.83" y2="695.75"/><line class="cls-4" x1="420.87" y1="695.75" x2="676.15" y2="695.75"/><line class="cls-3" x1="693.17" y1="695.75" x2="718.17" y2="695.75"/></g><path class="cls-5" d="M30,418.93a30,30,0,0,1-30-30V158.6C0,71.15,71.15,0,158.6,0h230a30,30,0,0,1,0,60h-230A98.71,98.71,0,0,0,60,158.6V388.93A30,30,0,0,1,30,418.93Z"/><path class="cls-5" d="M388.93,1080H158.6C71.15,1080,0,1008.85,0,921.4v-230a30,30,0,0,1,60,0v230a98.71,98.71,0,0,0,98.6,98.6H388.93a30,30,0,1,1,0,60Z"/><path class="cls-5" d="M1050,418.93a30,30,0,0,1-30-30V158.6A98.71,98.71,0,0,0,921.4,60h-230a30,30,0,0,1,0-60h230C1008.85,0,1080,71.15,1080,158.6V388.93A30,30,0,0,1,1050,418.93Z"/><path class="cls-5" d="M921.4,1080H691.07a30,30,0,0,1,0-60H921.4a98.71,98.71,0,0,0,98.6-98.6v-230a30,30,0,1,1,60,0v230C1080,1008.85,1008.85,1080,921.4,1080Z"/></svg>