<svg width="48" height="48" viewBox="0 0 48 48" fill="none" xmlns="http://www.w3.org/2000/svg">
<path d="M18.25 20.4706C17.7313 20.4706 17.2338 20.6766 16.867 21.0434C16.5002 21.4102 16.2941 21.9077 16.2941 22.4265V26.3382C16.2941 26.857 16.5002 27.3544 16.867 27.7212C17.2338 28.088 17.7313 28.2941 18.25 28.2941C18.7687 28.2941 19.2662 28.088 19.633 27.7212C19.9998 27.3544 20.2059 26.857 20.2059 26.3382V22.4265C20.2059 21.9077 19.9998 21.4102 19.633 21.0434C19.2662 20.6766 18.7687 20.4706 18.25 20.4706ZM41.7206 22.4265C42.2393 22.4265 42.7368 22.2204 43.1036 21.8536C43.4704 21.4868 43.6765 20.9893 43.6765 20.4706V12.647C43.6765 12.1283 43.4704 11.6308 43.1036 11.264C42.7368 10.8972 42.2393 10.6912 41.7206 10.6912H6.5147C5.99597 10.6912 5.49849 10.8972 5.13169 11.264C4.76489 11.6308 4.55882 12.1283 4.55882 12.647V20.4706C4.55882 20.9893 4.76489 21.4868 5.13169 21.8536C5.49849 22.2204 5.99597 22.4265 6.5147 22.4265C7.03344 22.4265 7.53092 22.6325 7.89772 22.9993C8.26452 23.3661 8.47059 23.8636 8.47059 24.3823C8.47059 24.9011 8.26452 25.3986 7.89772 25.7654C7.53092 26.1322 7.03344 26.3382 6.5147 26.3382C5.99597 26.3382 5.49849 26.5443 5.13169 26.9111C4.76489 27.2779 4.55882 27.7754 4.55882 28.2941V36.1176C4.55882 36.6364 4.76489 37.1339 5.13169 37.5007C5.49849 37.8675 5.99597 38.0735 6.5147 38.0735H41.7206C42.2393 38.0735 42.7368 37.8675 43.1036 37.5007C43.4704 37.1339 43.6765 36.6364 43.6765 36.1176V28.2941C43.6765 27.7754 43.4704 27.2779 43.1036 26.9111C42.7368 26.5443 42.2393 26.3382 41.7206 26.3382C41.2019 26.3382 40.7044 26.1322 40.3376 25.7654C39.9708 25.3986 39.7647 24.9011 39.7647 24.3823C39.7647 23.8636 39.9708 23.3661 40.3376 22.9993C40.7044 22.6325 41.2019 22.4265 41.7206 22.4265ZM39.7647 18.8668C38.632 19.2779 37.6533 20.0278 36.9616 21.0146C36.27 22.0014 35.8989 23.1773 35.8989 24.3823C35.8989 25.5874 36.27 26.7632 36.9616 27.75C37.6533 28.7369 38.632 29.4868 39.7647 29.8979V34.1618H20.2059C20.2059 33.643 19.9998 33.1455 19.633 32.7787C19.2662 32.4119 18.7687 32.2059 18.25 32.2059C17.7313 32.2059 17.2338 32.4119 16.867 32.7787C16.5002 33.1455 16.2941 33.643 16.2941 34.1618H8.47059V29.8979C9.60334 29.4868 10.582 28.7369 11.2737 27.75C11.9653 26.7632 12.3363 25.5874 12.3363 24.3823C12.3363 23.1773 11.9653 22.0014 11.2737 21.0146C10.582 20.0278 9.60334 19.2779 8.47059 18.8668V14.6029H16.2941C16.2941 15.1217 16.5002 15.6191 16.867 15.9859C17.2338 16.3527 17.7313 16.5588 18.25 16.5588C18.7687 16.5588 19.2662 16.3527 19.633 15.9859C19.9998 15.6191 20.2059 15.1217 20.2059 14.6029H39.7647V18.8668Z" fill="#1F576F"/>
</svg>
