<svg width="31" height="31" viewBox="0 0 31 31" fill="none" xmlns="http://www.w3.org/2000/svg">
<g clip-path="url(#clip0_414_10318)">
<path d="M10.7505 9.95882L13.7084 6.98799V19.3751C13.7084 19.7176 13.8445 20.0462 14.0867 20.2884C14.3289 20.5306 14.6575 20.6667 15 20.6667C15.3426 20.6667 15.6712 20.5306 15.9134 20.2884C16.1556 20.0462 16.2917 19.7176 16.2917 19.3751V6.98799L19.2496 9.95882C19.3697 10.0799 19.5126 10.176 19.67 10.2416C19.8274 10.3071 19.9962 10.3409 20.1667 10.3409C20.3372 10.3409 20.5061 10.3071 20.6635 10.2416C20.8209 10.176 20.9637 10.0799 21.0838 9.95882C21.2049 9.83874 21.301 9.69588 21.3665 9.53848C21.4321 9.38108 21.4659 9.21225 21.4659 9.04174C21.4659 8.87122 21.4321 8.70239 21.3665 8.54499C21.301 8.38759 21.2049 8.24473 21.0838 8.12465L15.9171 2.95799C15.7943 2.84039 15.6494 2.74821 15.4909 2.68674C15.1764 2.55755 14.8237 2.55755 14.5092 2.68674C14.3507 2.74821 14.2058 2.84039 14.083 2.95799L8.91629 8.12465C8.79586 8.24509 8.70033 8.38806 8.63515 8.54541C8.56997 8.70277 8.53642 8.87142 8.53642 9.04174C8.53642 9.21205 8.56997 9.3807 8.63515 9.53806C8.70033 9.69541 8.79586 9.83839 8.91629 9.95882C9.03672 10.0793 9.1797 10.1748 9.33705 10.24C9.49441 10.3051 9.66306 10.3387 9.83337 10.3387C10.0037 10.3387 10.1723 10.3051 10.3297 10.24C10.4871 10.1748 10.63 10.0793 10.7505 9.95882ZM26.625 15.5001C26.2825 15.5001 25.9539 15.6362 25.7117 15.8784C25.4695 16.1206 25.3334 16.4492 25.3334 16.7917V24.5417C25.3334 24.8843 25.1973 25.2128 24.9551 25.4551C24.7128 25.6973 24.3843 25.8334 24.0417 25.8334H5.95837C5.6158 25.8334 5.28726 25.6973 5.04503 25.4551C4.80279 25.2128 4.66671 24.8843 4.66671 24.5417V16.7917C4.66671 16.4492 4.53062 16.1206 4.28839 15.8784C4.04615 15.6362 3.71761 15.5001 3.37504 15.5001C3.03247 15.5001 2.70393 15.6362 2.46169 15.8784C2.21946 16.1206 2.08337 16.4492 2.08337 16.7917V24.5417C2.08337 25.5695 2.49163 26.5551 3.21834 27.2818C3.94504 28.0085 4.93066 28.4167 5.95837 28.4167H24.0417C25.0694 28.4167 26.055 28.0085 26.7817 27.2818C27.5085 26.5551 27.9167 25.5695 27.9167 24.5417V16.7917C27.9167 16.4492 27.7806 16.1206 27.5384 15.8784C27.2962 15.6362 26.9676 15.5001 26.625 15.5001Z" fill="#1F576F"/>
</g>
<defs>
<clipPath id="clip0_414_10318">
<rect width="29.6949" height="29.6949" fill="white" transform="translate(0.466064 0.842285)"/>
</clipPath>
</defs>
</svg>
