<svg width="43" height="43" viewBox="0 0 43 43" fill="none" xmlns="http://www.w3.org/2000/svg">
<path d="M19.8971 16.1323H26.8971C27.3612 16.1323 27.8063 15.9479 28.1345 15.6198C28.4627 15.2916 28.6471 14.8465 28.6471 14.3823C28.6471 13.9182 28.4627 13.4731 28.1345 13.1449C27.8063 12.8167 27.3612 12.6323 26.8971 12.6323H23.3971V10.8823C23.3971 10.4182 23.2127 9.97308 22.8845 9.64489C22.5563 9.3167 22.1112 9.13232 21.6471 9.13232C21.1829 9.13232 20.7378 9.3167 20.4096 9.64489C20.0814 9.97308 19.8971 10.4182 19.8971 10.8823V12.6323C18.5047 12.6323 17.1693 13.1854 16.1848 14.17C15.2002 15.1546 14.6471 16.4899 14.6471 17.8823C14.6471 19.2747 15.2002 20.6101 16.1848 21.5946C17.1693 22.5792 18.5047 23.1323 19.8971 23.1323H23.3971C23.8612 23.1323 24.3063 23.3167 24.6345 23.6449C24.9627 23.9731 25.1471 24.4182 25.1471 24.8823C25.1471 25.3465 24.9627 25.7916 24.6345 26.1198C24.3063 26.4479 23.8612 26.6323 23.3971 26.6323H16.3971C15.9329 26.6323 15.4878 26.8167 15.1596 27.1449C14.8314 27.4731 14.6471 27.9182 14.6471 28.3823C14.6471 28.8465 14.8314 29.2916 15.1596 29.6198C15.4878 29.948 15.9329 30.1323 16.3971 30.1323H19.8971V31.8823C19.8971 32.3465 20.0814 32.7916 20.4096 33.1198C20.7378 33.448 21.1829 33.6323 21.6471 33.6323C22.1112 33.6323 22.5563 33.448 22.8845 33.1198C23.2127 32.7916 23.3971 32.3465 23.3971 31.8823V30.1323C24.7895 30.1323 26.1248 29.5792 27.1094 28.5946C28.0939 27.6101 28.6471 26.2747 28.6471 24.8823C28.6471 23.4899 28.0939 22.1546 27.1094 21.17C26.1248 20.1854 24.7895 19.6323 23.3971 19.6323H19.8971C19.4329 19.6323 18.9878 19.4479 18.6596 19.1198C18.3314 18.7916 18.1471 18.3465 18.1471 17.8823C18.1471 17.4182 18.3314 16.9731 18.6596 16.6449C18.9878 16.3167 19.4329 16.1323 19.8971 16.1323ZM33.8971 3.88232H9.39706C8.00468 3.88232 6.66932 4.43545 5.68475 5.42001C4.70019 6.40458 4.14706 7.73994 4.14706 9.13232V33.6323C4.14706 35.0247 4.70019 36.3601 5.68475 37.3446C6.66932 38.3292 8.00468 38.8823 9.39706 38.8823H33.8971C35.2895 38.8823 36.6248 38.3292 37.6094 37.3446C38.5939 36.3601 39.1471 35.0247 39.1471 33.6323V9.13232C39.1471 7.73994 38.5939 6.40458 37.6094 5.42001C36.6248 4.43545 35.2895 3.88232 33.8971 3.88232ZM35.6471 33.6323C35.6471 34.0965 35.4627 34.5416 35.1345 34.8698C34.8063 35.198 34.3612 35.3823 33.8971 35.3823H9.39706C8.93294 35.3823 8.48782 35.198 8.15963 34.8698C7.83144 34.5416 7.64706 34.0965 7.64706 33.6323V9.13232C7.64706 8.6682 7.83144 8.22308 8.15963 7.89489C8.48782 7.5667 8.93294 7.38232 9.39706 7.38232H33.8971C34.3612 7.38232 34.8063 7.5667 35.1345 7.89489C35.4627 8.22308 35.6471 8.6682 35.6471 9.13232V33.6323Z" fill="#9991B9"/>
</svg>
