<svg width="37" height="37" viewBox="0 0 37 37" fill="none" xmlns="http://www.w3.org/2000/svg">
<path d="M17.0394 13.9118H23.0001C23.3954 13.9118 23.7744 13.7548 24.0539 13.4753C24.3333 13.1959 24.4903 12.8168 24.4903 12.4216C24.4903 12.0264 24.3333 11.6473 24.0539 11.3679C23.7744 11.0884 23.3954 10.9314 23.0001 10.9314H20.0198V9.44121C20.0198 9.04599 19.8627 8.66695 19.5833 8.38749C19.3038 8.10802 18.9248 7.95102 18.5296 7.95102C18.1343 7.95102 17.7553 8.10802 17.4758 8.38749C17.1964 8.66695 17.0394 9.04599 17.0394 9.44121V10.9314C15.8537 10.9314 14.7166 11.4024 13.8782 12.2408C13.0398 13.0792 12.5688 14.2163 12.5688 15.402C12.5688 16.5877 13.0398 17.7248 13.8782 18.5632C14.7166 19.4016 15.8537 19.8726 17.0394 19.8726H20.0198C20.415 19.8726 20.794 20.0296 21.0735 20.3091C21.3529 20.5885 21.5099 20.9676 21.5099 21.3628C21.5099 21.758 21.3529 22.137 21.0735 22.4165C20.794 22.696 20.415 22.853 20.0198 22.853H14.059C13.6637 22.853 13.2847 23.01 13.0052 23.2894C12.7258 23.5689 12.5688 23.948 12.5688 24.3432C12.5688 24.7384 12.7258 25.1174 13.0052 25.3969C13.2847 25.6764 13.6637 25.8334 14.059 25.8334H17.0394V27.3236C17.0394 27.7188 17.1964 28.0978 17.4758 28.3773C17.7553 28.6568 18.1343 28.8138 18.5296 28.8138C18.9248 28.8138 19.3038 28.6568 19.5833 28.3773C19.8627 28.0978 20.0198 27.7188 20.0198 27.3236V25.8334C21.2054 25.8334 22.3425 25.3624 23.1809 24.524C24.0193 23.6856 24.4903 22.5485 24.4903 21.3628C24.4903 20.1771 24.0193 19.04 23.1809 18.2016C22.3425 17.3632 21.2054 16.8922 20.0198 16.8922H17.0394C16.6441 16.8922 16.2651 16.7352 15.9856 16.4557C15.7062 16.1763 15.5492 15.7972 15.5492 15.402C15.5492 15.0068 15.7062 14.6277 15.9856 14.3483C16.2651 14.0688 16.6441 13.9118 17.0394 13.9118ZM18.5296 1.99023C15.2875 1.99023 12.1182 2.95162 9.42256 4.75281C6.72688 6.554 4.62586 9.11411 3.38518 12.1094C2.14449 15.1047 1.81987 18.4006 2.45237 21.5803C3.08486 24.7601 4.64607 27.6809 6.93855 29.9734C9.23103 32.2659 12.1518 33.8271 15.3316 34.4596C18.5114 35.0921 21.8073 34.7674 24.8026 33.5268C27.7978 32.2861 30.3579 30.1851 32.1591 27.4894C33.9603 24.7937 34.9217 21.6245 34.9217 18.3824C34.9217 14.0349 33.1947 9.86551 30.1206 6.79139C27.0464 3.71726 22.877 1.99023 18.5296 1.99023ZM18.5296 31.7942C15.877 31.7942 13.2839 31.0076 11.0784 29.5339C8.87282 28.0602 7.1538 25.9655 6.1387 23.5149C5.12359 21.0642 4.858 18.3675 5.37549 15.7659C5.89299 13.1643 7.17034 10.7745 9.046 8.89884C10.9217 7.02317 13.3114 5.74583 15.9131 5.22833C18.5147 4.71083 21.2113 4.97643 23.662 5.99154C26.1127 7.00664 28.2073 8.72566 29.681 10.9312C31.1547 13.1368 31.9413 15.7298 31.9413 18.3824C31.9413 21.9394 30.5283 25.3507 28.0131 27.8659C25.4979 30.3811 22.0866 31.7942 18.5296 31.7942Z" fill="#ED927B"/>
</svg>
