<svg xmlns="http://www.w3.org/2000/svg" viewBox="0 0 3824.04 1207.24"><defs><style>.cls-1{fill:#5c4538;}</style></defs><g id="Layer_2" data-name="Layer 2"><g id="Layer_1-2" data-name="Layer 1"><path class="cls-1" d="M.44,624.22c0-.3-.44-7.49-.44-19.79,0-9.35.24-19.11.72-29l27.43,1.32c-.45,9.46-.68,18.77-.68,27.68,0,11.39.38,18.09.39,18.15Zm29.89-77.5L3,544.08c1.57-16.26,3.76-32.39,6.49-47.94l27.05,4.76C33.92,515.75,31.83,531.17,30.33,546.72Zm12.21-75.19L15.8,465.25c3.81-16.22,8.32-32,13.41-46.78l26,8.93C50.4,441.35,46.14,456.2,42.54,471.53Zm23.33-71.81L40.65,388.84a351.68,351.68,0,0,1,22.51-43.72L86.6,359.44A324.42,324.42,0,0,0,65.87,399.72Zm37.26-64.37L81.37,318.59a262.21,262.21,0,0,1,33.93-36.44l18.18,20.58A235.29,235.29,0,0,0,103.13,335.35Z"/><path class="cls-1" d="M1230.23,252.45h0c-.18-.37-8.23-16.51-23-39.78l23.18-14.75c15.77,24.8,24.14,41.67,24.49,42.37Zm-39.82-64.81c-9-12.77-18.48-25.13-28.12-36.74l21.14-17.54c10.09,12.16,20,25.09,29.42,38.44Zm-47.9-59.27a458.79,458.79,0,0,0-32.87-32.07l18.13-20.63c11.77,10.35,23.5,21.79,34.85,34Zm-55.89-50.82a322.62,322.62,0,0,0-38-24.68l13.25-24.06a351.14,351.14,0,0,1,41.22,26.78Zm-64.28-37.4a233.82,233.82,0,0,0-42.53-13.26L985.38,0a261.42,261.42,0,0,1,47.54,14.8Z"/><path class="cls-1" d="M2806.94,1207.24h0c-.8,0-19.83,0-48.81-3.14l2.93-27.31c27.54,3,45.14,3,45.88,3Zm-80-7.25c-16.15-2.52-32.13-5.65-47.51-9.29l6.34-26.73c14.69,3.48,30,6.47,45.41,8.89Zm-78-17.42c-16-4.76-31.43-10.19-45.92-16.14l10.43-25.41a457.51,457.51,0,0,0,43.33,15.22Zm-74.86-29.32a351,351,0,0,1-42.3-25l15.68-22.55a323.74,323.74,0,0,0,39,23.06Zm-67.72-44.79a262.82,262.82,0,0,1-34.36-36l21.63-16.93a234,234,0,0,0,30.75,32.23Z"/><path class="cls-1" d="M3649.69,695.86l-19.07-19.77c10.15-9.78,20-19.69,29.18-29.45l20,18.86C3670.26,675.57,3660.14,685.78,3649.69,695.86Zm51.1-53.48-20.68-18.07c10.42-11.92,20.28-24,29.31-35.86l21.87,16.62C3721.88,617.44,3711.62,630,3700.79,642.38Zm48.88-62.79L3727,564.11c8.88-13,17-26.16,24.21-39.1l24,13.35C3767.61,552,3759,565.89,3749.67,579.59Zm40-69.41-24.87-11.66a371.89,371.89,0,0,0,16.83-42.32l26.11,8.52A400.64,400.64,0,0,1,3789.64,510.18Zm26.61-76.26-26.78-6.11a291.91,291.91,0,0,0,6.66-44.59l27.4,1.9A320.18,320.18,0,0,1,3816.25,433.92ZM3796.59,354a267.1,267.1,0,0,0-5.49-44.53l26.87-5.65a293.48,293.48,0,0,1,6.07,49.13Zm-13.05-72.77a291.57,291.57,0,0,0-17.29-41.65l24.49-12.44a320.21,320.21,0,0,1,18.92,45.59ZM3751.69,214a345.37,345.37,0,0,0-26.78-36.73L3746,159.64a372.26,372.26,0,0,1,28.92,39.67ZM3705,155.28c-18.94-19.25-33.52-29.64-33.66-29.74l15.83-22.45c.67.47,16.59,11.76,37.41,32.92Z"/></g></g></svg>