<?xml version="1.0" encoding="UTF-8"?>
<!DOCTYPE svg PUBLIC "-//W3C//DTD SVG 1.1//EN" "http://www.w3.org/Graphics/SVG/1.1/DTD/svg11.dtd">
<svg xmlns="http://www.w3.org/2000/svg" version="1.1" width="3049px" height="9599px" style="shape-rendering:geometricPrecision; text-rendering:geometricPrecision; image-rendering:optimizeQuality; fill-rule:evenodd; clip-rule:evenodd" xmlns:xlink="http://www.w3.org/1999/xlink">
<g><path style="opacity:1" fill="#5b4537" d="M 979.5,-0.5 C 980.833,-0.5 982.167,-0.5 983.5,-0.5C 984.398,22.8408 985.398,46.1741 986.5,69.5C 948.429,70.9865 910.763,75.6532 873.5,83.5C 868.834,60.5015 864.167,37.5015 859.5,14.5C 899.311,6.85789 939.311,1.85789 979.5,-0.5 Z"/></g>
<g><path style="opacity:1" fill="#5b4537" d="M 1063.5,1.5 C 1105.23,3.65095 1146.23,9.98428 1186.5,20.5C 1181.02,42.7361 1176.02,65.0694 1171.5,87.5C 1134.24,79.1301 1096.58,73.4635 1058.5,70.5C 1059.77,47.4472 1061.44,24.4472 1063.5,1.5 Z"/></g>
<g><path style="opacity:1" fill="#5b4537" d="M 781.5,35.5 C 782.117,35.6107 782.617,35.944 783,36.5C 789.866,58.266 797.033,79.9327 804.5,101.5C 768.534,113.823 733.534,128.49 699.5,145.5C 688.451,125.236 677.784,104.736 667.5,84C 704.287,64.7676 742.287,48.601 781.5,35.5 Z"/></g>
<g><path style="opacity:1" fill="#5b4537" d="M 1262.5,40.5 C 1301.86,53.3473 1340.19,68.6806 1377.5,86.5C 1367.76,107.652 1357.76,128.652 1347.5,149.5C 1313.3,133.543 1278.3,119.543 1242.5,107.5C 1241.39,106.277 1241.22,104.944 1242,103.5C 1248.74,82.4354 1255.58,61.4354 1262.5,40.5 Z"/></g>
<g><path style="opacity:1" fill="#5b4537" d="M 597.5,122.5 C 599.074,122.937 600.241,123.937 601,125.5C 612.333,143.5 623.667,161.5 635,179.5C 635.667,180.5 635.667,181.5 635,182.5C 603.207,202.964 572.541,224.964 543,248.5C 528.002,231 513.169,213.333 498.5,195.5C 530.135,169.181 563.135,144.848 597.5,122.5 Z"/></g>
<g><path style="opacity:1" fill="#5b4537" d="M 1446.5,122.5 C 1482.32,141.325 1516.82,162.325 1550,185.5C 1550.67,186.5 1550.67,187.5 1550,188.5C 1537.62,206.754 1525.12,224.92 1512.5,243C 1511.5,243.667 1510.5,243.667 1509.5,243C 1478.73,221.583 1446.9,201.75 1414,183.5C 1413.33,182.5 1413.33,181.5 1414,180.5C 1425.1,161.301 1435.93,141.968 1446.5,122.5 Z"/></g>
<g><path style="opacity:1" fill="#5b4537" d="M 1612.5,232.5 C 1614.31,232.491 1615.98,232.991 1617.5,234C 1648.42,258.245 1678.75,283.245 1708.5,309C 1693,326.5 1677.5,344 1662,361.5C 1633.07,336.21 1603.4,311.877 1573,288.5C 1572.58,286.212 1573.25,284.212 1575,282.5C 1587.76,265.953 1600.26,249.286 1612.5,232.5 Z"/></g>
<g><path style="opacity:1" fill="#5b4537" d="M 439.5,248.5 C 456.339,264.506 472.673,281.006 488.5,298C 461.815,325.009 436.982,353.509 414,383.5C 394.686,370.433 375.853,356.766 357.5,342.5C 382.246,309.076 409.579,277.742 439.5,248.5 Z"/></g>
<g><path style="opacity:1" fill="#5b4537" d="M 1764.5,360.5 C 1791.64,384.475 1817.31,409.975 1841.5,437C 1825.66,453.507 1809.16,469.34 1792,484.5C 1767,460.333 1742.17,436 1717.5,411.5C 1733.56,394.78 1749.22,377.78 1764.5,360.5 Z"/></g>
<g><path style="opacity:1" fill="#5b4537" d="M 3048.5,2683.5 C 3048.5,2692.5 3048.5,2701.5 3048.5,2710.5C 3046.84,2742.12 3044.17,2773.79 3040.5,2805.5C 3039.33,2805.83 3038.17,2806.17 3037,2806.5C 3015.18,2803.98 2993.35,2801.65 2971.5,2799.5C 2975.69,2760.95 2978.03,2722.28 2978.5,2683.5C 3001.83,2683.5 3025.17,2683.5 3048.5,2683.5 Z"/></g>
<g><path style="opacity:1" fill="#5b4537" d="M 2961.5,2873.5 C 2984.55,2876.51 3007.55,2879.84 3030.5,2883.5C 3024.37,2923.8 3016.71,2963.8 3007.5,3003.5C 2984.89,2998.56 2962.39,2993.22 2940,2987.5C 2948.13,2949.75 2955.29,2911.75 2961.5,2873.5 Z"/></g>
<g><path style="opacity:1" fill="#5b4537" d="M 2919.5,3059.5 C 2941.23,3065.35 2962.9,3071.52 2984.5,3078C 2985.52,3078.52 2986.18,3079.35 2986.5,3080.5C 2975.55,3118.19 2962.72,3155.19 2948,3191.5C 2947.65,3193.18 2946.65,3194.18 2945,3194.5C 2923.64,3186.05 2902.47,3177.22 2881.5,3168C 2896.28,3132.6 2908.95,3096.43 2919.5,3059.5 Z"/></g>
<g><path style="opacity:1" fill="#5b4537" d="M 2850.5,3235.5 C 2872.05,3244.94 2893.05,3255.44 2913.5,3267C 2895.23,3304.39 2874.07,3339.89 2850,3373.5C 2830.87,3360.36 2812.04,3346.86 2793.5,3333C 2815.13,3302.16 2834.13,3269.66 2850.5,3235.5 Z"/></g>
<g><path style="opacity:1" fill="#5b4537" d="M 2748.5,3390.5 C 2766.76,3405.09 2784.43,3420.43 2801.5,3436.5C 2774.33,3468.51 2744.16,3497.18 2711,3522.5C 2696.19,3504.68 2681.69,3486.51 2667.5,3468C 2697.23,3445.11 2724.23,3419.27 2748.5,3390.5 Z"/></g>
<g><path style="opacity:1" fill="#5b4537" d="M 600.5,6456.5 C 601.376,6456.37 602.043,6456.7 602.5,6457.5C 612.228,6477.96 622.228,6498.29 632.5,6518.5C 599.011,6536.41 566.345,6555.57 534.5,6576C 533.5,6576.67 532.5,6576.67 531.5,6576C 519.042,6556.92 506.709,6537.75 494.5,6518.5C 528.911,6496.29 564.244,6475.63 600.5,6456.5 Z"/></g>
<g><path style="opacity:1" fill="#5b4537" d="M 429.5,6561.5 C 443.303,6580.15 456.97,6598.98 470.5,6618C 438.787,6640.88 407.787,6664.71 377.5,6689.5C 363.188,6672.02 348.688,6654.69 334,6637.5C 333.333,6636.5 333.333,6635.5 334,6634.5C 365.164,6609.15 396.998,6584.82 429.5,6561.5 Z"/></g>
<g><path style="opacity:1" fill="#5b4537" d="M 273.5,6687.5 C 276.394,6688.88 278.894,6690.88 281,6693.5C 294.513,6708.35 308.013,6723.18 321.5,6738C 293.643,6764.86 266.809,6792.69 241,6821.5C 223.5,6806 206,6790.5 188.5,6775C 215.638,6744.69 243.972,6715.53 273.5,6687.5 Z"/></g>
<g><path style="opacity:1" fill="#5b4537" d="M 138.5,6836.5 C 157.861,6849.52 176.528,6863.52 194.5,6878.5C 172.165,6909.17 151.331,6940.84 132,6973.5C 111.41,6962.79 91.2429,6951.46 71.5,6939.5C 91.6032,6903.6 113.937,6869.27 138.5,6836.5 Z"/></g>
<g><path style="opacity:1" fill="#5b4537" d="M -0.5,7132.5 C -0.5,7131.17 -0.5,7129.83 -0.5,7128.5C 8.49474,7089.01 20.8281,7050.51 36.5,7013C 57.7265,7020.44 78.7265,7028.77 99.5,7038C 100.022,7038.56 100.355,7039.23 100.5,7040C 86.4997,7074.66 75.333,7110.16 67,7146.5C 44.6167,7141.39 22.1167,7136.72 -0.5,7132.5 Z"/></g>
<g><path style="opacity:1" fill="#5b4537" d="M 756.5,9263.5 C 769.891,9276.39 783.224,9289.56 796.5,9303C 810.895,9315.41 825.228,9327.74 839.5,9340C 826.036,9358.79 811.869,9376.95 797,9394.5C 763.576,9369.59 733.076,9341.25 705.5,9309.5C 722.52,9294.14 739.52,9278.81 756.5,9263.5 Z"/></g>
<g><path style="opacity:1" fill="#5b4537" d="M 898.5,9380.5 C 931.201,9399.77 965.034,9417.1 1000,9432.5C 1000.32,9434.55 999.991,9436.55 999,9438.5C 990.337,9457.67 982.17,9477 974.5,9496.5C 936.065,9480.87 899.231,9462.2 864,9440.5C 864.032,9438.4 864.699,9436.4 866,9434.5C 877.484,9416.86 888.317,9398.86 898.5,9380.5 Z"/></g>
<g><path style="opacity:1" fill="#5b4537" d="M 1069.5,9459.5 C 1105.99,9471.66 1142.99,9481.99 1180.5,9490.5C 1175.5,9513.16 1170.5,9535.83 1165.5,9558.5C 1125.13,9549.88 1085.47,9538.71 1046.5,9525C 1054.27,9503.19 1061.94,9481.36 1069.5,9459.5 Z"/></g>
<g><path style="opacity:1" fill="#5b4537" d="M 1253.5,9506.5 C 1291.69,9512.57 1330.02,9517.57 1368.5,9521.5C 1366.7,9544.52 1364.7,9567.52 1362.5,9590.5C 1322.27,9587.16 1282.27,9581.99 1242.5,9575C 1241.92,9574.11 1241.59,9573.11 1241.5,9572C 1245.34,9550.09 1249.34,9528.26 1253.5,9506.5 Z"/></g>
<g><path style="opacity:1" fill="#5b4537" d="M 1546.5,9598.5 C 1523.17,9598.5 1499.83,9598.5 1476.5,9598.5C 1464.33,9597.65 1452,9596.99 1439.5,9596.5C 1440.54,9573.09 1442.04,9549.75 1444,9526.5C 1482.1,9528.68 1520.26,9529.01 1558.5,9527.5C 1560.34,9550.8 1561.67,9574.13 1562.5,9597.5C 1556.97,9597.18 1551.64,9597.51 1546.5,9598.5 Z"/></g>
</svg>
