<svg width="1280" height="257" viewBox="0 0 1280 257" fill="none" xmlns="http://www.w3.org/2000/svg">
<g clip-path="url(#clip0_391_488)">
<path d="M1280 0V256.754H1131.48C1116.6 256.754 1102.33 250.845 1091.78 240.296L1062.27 210.789C1053.03 201.548 1040.85 195.837 1027.85 194.608L1006.23 192.585L944.324 186.756C933.14 185.685 922.868 181.362 914.5 174.659C904.903 166.966 897.843 156.099 894.909 143.487L886.858 108.746C884.478 98.5136 879.283 89.1144 871.866 81.6981L841.805 51.6364C835.895 45.7271 828.796 41.2456 821.063 38.5092C815.035 36.3675 808.65 35.2174 802.145 35.2174H497.88C493.715 35.2174 489.551 35.6933 485.546 36.6055C475.274 38.9057 465.756 44.1011 458.181 51.676L419.037 90.8197C408.527 101.329 394.25 107.278 379.338 107.278H282.807C267.935 107.278 253.658 113.188 243.108 123.697L160.617 206.189C150.107 216.698 135.83 222.607 120.918 222.607H-5V0H1280Z" fill="#9F9A94"/>
<path d="M485.545 34.9398V36.5658C475.274 38.8661 465.755 44.0614 458.181 51.6364L419.037 90.7801C408.527 101.29 394.25 107.239 379.338 107.239H282.807C267.935 107.239 253.658 113.148 243.108 123.658L160.617 206.149C150.107 216.659 135.83 222.568 120.918 222.568H56.0752C54.9648 220.188 54.3699 217.491 54.3699 214.715V73.092C54.3699 62.5823 62.8966 54.0159 73.446 54.0159H202.735C213.245 54.0159 221.811 45.4892 221.811 34.9398C221.811 29.6651 223.953 24.906 227.403 21.4557C230.854 18.0053 235.613 15.8637 240.887 15.8637H466.509C477.019 15.9034 485.545 24.4301 485.545 34.9398Z" fill="#5A5857"/>
<path d="M1280 92.8027V230.579H1082.06L1062.31 210.829C1053.07 201.588 1040.89 195.877 1027.89 194.648L1006.27 192.625C1005.68 182.631 997.388 174.699 987.235 174.699H914.54C904.942 167.005 897.883 156.139 894.948 143.527L886.897 108.785C884.518 98.5533 879.322 89.154 871.906 81.7377L841.844 51.676C835.935 45.7668 828.836 41.2853 821.103 38.5488C823.442 37.5176 826.06 36.9228 828.796 36.9228H1054.42C1064.97 36.9228 1073.49 45.4495 1073.49 55.9989V73.7662C1073.49 84.3156 1082.02 92.8423 1092.57 92.8423H1280V92.8027Z" fill="#5A5857"/>
<g clip-path="url(#clip1_391_488)">
<path d="M77.5651 110.83H64.6441C60.2823 110.83 56.7434 107.291 56.7434 102.929C56.7434 98.5671 60.2823 95.0282 64.6441 95.0282H77.5651C81.927 95.0282 85.4659 98.5671 85.4659 102.929C85.4659 107.291 81.927 110.83 77.5651 110.83Z" fill="#BDBDBD"/>
<path d="M98.1398 123.298H90.1979C87.5232 123.298 85.3423 121.117 85.3423 118.442C85.3423 115.768 87.5232 113.587 90.1979 113.587H98.1398C100.815 113.587 102.995 115.768 102.995 118.442C102.995 121.117 100.815 123.298 98.1398 123.298Z" fill="#BDBDBD"/>
<path d="M398.45 56.9236H384.829C380.221 56.9236 376.517 53.179 376.517 48.6114C376.517 44.0027 380.262 40.2992 384.829 40.2992H398.45C403.059 40.2992 406.762 44.0438 406.762 48.6114C406.762 53.2202 403.017 56.9236 398.45 56.9236Z" fill="#BDBDBD"/>
<path d="M420.136 70.0915H411.782C408.943 70.0915 406.68 67.7871 406.68 64.989C406.68 62.1496 408.984 59.8864 411.782 59.8864H420.136C422.975 59.8864 425.238 62.1908 425.238 64.989C425.238 67.7871 422.975 70.0915 420.136 70.0915Z" fill="#BDBDBD"/>
<path d="M142.705 44.5376H129.784C125.422 44.5376 121.883 40.9987 121.883 36.6368C121.883 32.275 125.422 28.7361 129.784 28.7361H142.705C147.067 28.7361 150.606 32.275 150.606 36.6368C150.606 41.0399 147.067 44.5376 142.705 44.5376Z" fill="#BDBDBD"/>
<path d="M238.007 94.6167H228.173C224.84 94.6167 222.165 91.9008 222.165 88.6089C222.165 85.2757 224.881 82.601 228.173 82.601H238.007C241.341 82.601 244.015 85.3169 244.015 88.6089C244.015 91.942 241.341 94.6167 238.007 94.6167Z" fill="#BDBDBD"/>
<path d="M56.5787 201.4H46.7439C43.4108 201.4 40.7361 198.684 40.7361 195.392C40.7361 192.059 43.452 189.384 46.7439 189.384H56.5787C59.9118 189.384 62.5865 192.1 62.5865 195.392C62.6277 198.725 59.9118 201.4 56.5787 201.4Z" fill="#BDBDBD"/>
<path d="M199.533 95.8923H190.233C188.052 95.8923 186.282 94.1229 186.282 91.9419C186.282 89.761 188.052 87.9916 190.233 87.9916H199.533C201.714 87.9916 203.483 89.761 203.483 91.9419C203.483 94.1229 201.714 95.8923 199.533 95.8923Z" fill="#BDBDBD"/>
<path d="M107.687 64.6597H98.3045C95.136 64.6597 92.5847 62.1085 92.5847 58.94C92.5847 55.7714 95.136 53.2202 98.3045 53.2202H107.687C110.855 53.2202 113.406 55.7714 113.406 58.94C113.406 62.1085 110.855 64.6597 107.687 64.6597Z" fill="#BDBDBD"/>
<path d="M48.9249 40.8341H39.049C35.7159 40.8341 33 38.1594 33 34.7851C33 31.452 35.7159 28.7361 39.049 28.7361H48.9249C52.258 28.7361 54.9739 31.452 54.9739 34.7851C54.9739 38.1594 52.258 40.8341 48.9249 40.8341Z" fill="#BDBDBD"/>
<path d="M325.204 74.3299H315.451C312.159 74.3299 309.484 71.6552 309.484 68.3632C309.484 65.0713 312.159 62.3965 315.451 62.3965H325.204C328.495 62.3965 331.17 65.0713 331.17 68.3632C331.17 71.6552 328.495 74.3299 325.204 74.3299Z" fill="#BDBDBD"/>
<path d="M293.107 63.631H271.297C266.977 63.631 263.479 60.1333 263.479 55.8126C263.479 51.4919 266.977 47.9941 271.297 47.9941H293.107C297.427 47.9941 300.925 51.4919 300.925 55.8126C300.925 60.1333 297.427 63.631 293.107 63.631Z" fill="#BDBDBD"/>
<path d="M111.39 113.052C114.14 113.052 116.369 110.822 116.369 108.073C116.369 105.323 114.14 103.094 111.39 103.094C108.64 103.094 106.411 105.323 106.411 108.073C106.411 110.822 108.64 113.052 111.39 113.052Z" fill="#BDBDBD"/>
<path d="M101.555 28.16C103.533 28.16 105.135 26.5572 105.135 24.58C105.135 22.6028 103.533 21 101.555 21C99.5782 21 97.9753 22.6028 97.9753 24.58C97.9753 26.5572 99.5782 28.16 101.555 28.16Z" fill="#BDBDBD"/>
<path d="M270.474 80.8316C272.429 80.8316 274.013 79.2472 274.013 77.2927C274.013 75.3383 272.429 73.7538 270.474 73.7538C268.52 73.7538 266.936 75.3383 266.936 77.2927C266.936 79.2472 268.52 80.8316 270.474 80.8316Z" fill="#BDBDBD"/>
<path d="M74.0674 186.504C76.0219 186.504 77.6063 184.919 77.6063 182.965C77.6063 181.01 76.0219 179.426 74.0674 179.426C72.113 179.426 70.5286 181.01 70.5286 182.965C70.5286 184.919 72.113 186.504 74.0674 186.504Z" fill="#BDBDBD"/>
<path d="M351.868 49.1875C353.823 49.1875 355.407 47.6031 355.407 45.6486C355.407 43.6941 353.823 42.1097 351.868 42.1097C349.914 42.1097 348.33 43.6941 348.33 45.6486C348.33 47.6031 349.914 49.1875 351.868 49.1875Z" fill="#BDBDBD"/>
<path d="M421.535 48.6114C425.353 48.6114 428.448 45.5163 428.448 41.6983C428.448 37.8802 425.353 34.7851 421.535 34.7851C417.717 34.7851 414.622 37.8802 414.622 41.6983C414.622 45.5163 417.717 48.6114 421.535 48.6114Z" fill="#BDBDBD"/>
<path d="M142.252 181.319H128.632C124.023 181.319 120.32 177.574 120.32 173.007C120.32 168.398 124.064 164.695 128.632 164.695H142.252C146.861 164.695 150.565 168.439 150.565 173.007C150.606 177.615 146.861 181.319 142.252 181.319Z" fill="#BDBDBD"/>
<path d="M163.979 194.487H155.626C152.787 194.487 150.523 192.182 150.523 189.384C150.523 186.545 152.828 184.282 155.626 184.282H163.979C166.819 184.282 169.082 186.586 169.082 189.384C169.082 192.182 166.778 194.487 163.979 194.487Z" fill="#BDBDBD"/>
<path d="M165.378 173.007C169.196 173.007 172.292 169.912 172.292 166.094C172.292 162.276 169.196 159.18 165.378 159.18C161.56 159.18 158.465 162.276 158.465 166.094C158.465 169.912 161.56 173.007 165.378 173.007Z" fill="#BDBDBD"/>
</g>
<g clip-path="url(#clip2_391_488)">
<path d="M1216.88 132.83H1229.8C1234.17 132.83 1237.7 129.291 1237.7 124.929C1237.7 120.567 1234.17 117.028 1229.8 117.028H1216.88C1212.52 117.028 1208.98 120.567 1208.98 124.929C1208.98 129.291 1212.52 132.83 1216.88 132.83Z" fill="#BDBDBD"/>
<path d="M1196.31 145.298H1204.25C1206.92 145.298 1209.11 143.117 1209.11 140.442C1209.11 137.768 1206.92 135.587 1204.25 135.587H1196.31C1193.63 135.587 1191.45 137.768 1191.45 140.442C1191.45 143.117 1193.63 145.298 1196.31 145.298Z" fill="#BDBDBD"/>
<path d="M895.998 78.9236H909.619C914.227 78.9236 917.931 75.179 917.931 70.6114C917.931 66.0027 914.186 62.2992 909.619 62.2992H895.998C891.389 62.2992 887.686 66.0438 887.686 70.6114C887.686 75.2202 891.431 78.9236 895.998 78.9236Z" fill="#BDBDBD"/>
<path d="M874.312 92.0915H882.666C885.505 92.0915 887.768 89.7871 887.768 86.989C887.768 84.1496 885.464 81.8864 882.666 81.8864H874.312C871.473 81.8864 869.21 84.1908 869.21 86.989C869.21 89.7871 871.473 92.0915 874.312 92.0915Z" fill="#BDBDBD"/>
<path d="M1151.74 66.5376H1164.66C1169.03 66.5376 1172.56 62.9987 1172.56 58.6369C1172.56 54.275 1169.03 50.7361 1164.66 50.7361H1151.74C1147.38 50.7361 1143.84 54.275 1143.84 58.6369C1143.84 63.0399 1147.38 66.5376 1151.74 66.5376Z" fill="#BDBDBD"/>
<path d="M1056.44 116.617H1066.28C1069.61 116.617 1072.28 113.901 1072.28 110.609C1072.28 107.276 1069.57 104.601 1066.28 104.601H1056.44C1053.11 104.601 1050.43 107.317 1050.43 110.609C1050.43 113.942 1053.11 116.617 1056.44 116.617Z" fill="#BDBDBD"/>
<path d="M1237.87 223.4H1247.7C1251.04 223.4 1253.71 220.684 1253.71 217.392C1253.71 214.059 1251 211.384 1247.7 211.384H1237.87C1234.54 211.384 1231.86 214.1 1231.86 217.392C1231.82 220.725 1234.54 223.4 1237.87 223.4Z" fill="#BDBDBD"/>
<path d="M1094.92 117.892H1104.22C1106.4 117.892 1108.17 116.123 1108.17 113.942C1108.17 111.761 1106.4 109.992 1104.22 109.992H1094.92C1092.73 109.992 1090.96 111.761 1090.96 113.942C1090.96 116.123 1092.73 117.892 1094.92 117.892Z" fill="#BDBDBD"/>
<path d="M1186.76 86.6597H1196.14C1199.31 86.6597 1201.86 84.1085 1201.86 80.94C1201.86 77.7714 1199.31 75.2202 1196.14 75.2202H1186.76C1183.59 75.2202 1181.04 77.7714 1181.04 80.94C1181.04 84.1085 1183.59 86.6597 1186.76 86.6597Z" fill="#BDBDBD"/>
<path d="M1245.52 62.8341H1255.4C1258.73 62.8341 1261.45 60.1594 1261.45 56.7851C1261.45 53.452 1258.73 50.7361 1255.4 50.7361H1245.52C1242.19 50.7361 1239.47 53.452 1239.47 56.7851C1239.47 60.1594 1242.19 62.8341 1245.52 62.8341Z" fill="#BDBDBD"/>
<path d="M969.244 96.3299H978.997C982.289 96.3299 984.964 93.6552 984.964 90.3632C984.964 87.0713 982.289 84.3965 978.997 84.3965H969.244C965.953 84.3965 963.278 87.0713 963.278 90.3632C963.278 93.6552 965.953 96.3299 969.244 96.3299Z" fill="#BDBDBD"/>
<path d="M1001.34 85.631H1023.15C1027.47 85.631 1030.97 82.1333 1030.97 77.8126C1030.97 73.4919 1027.47 69.9941 1023.15 69.9941H1001.34C997.021 69.9941 993.523 73.4919 993.523 77.8126C993.523 82.1333 997.021 85.631 1001.34 85.631Z" fill="#BDBDBD"/>
<path d="M1183.06 135.052C1180.31 135.052 1178.08 132.822 1178.08 130.073C1178.08 127.323 1180.31 125.094 1183.06 125.094C1185.81 125.094 1188.04 127.323 1188.04 130.073C1188.04 132.822 1185.81 135.052 1183.06 135.052Z" fill="#BDBDBD"/>
<path d="M1192.89 50.16C1190.92 50.16 1189.31 48.5572 1189.31 46.58C1189.31 44.6028 1190.92 43 1192.89 43C1194.87 43 1196.47 44.6028 1196.47 46.58C1196.47 48.5572 1194.87 50.16 1192.89 50.16Z" fill="#BDBDBD"/>
<path d="M1023.97 102.832C1022.02 102.832 1020.43 101.247 1020.43 99.2927C1020.43 97.3383 1022.02 95.7538 1023.97 95.7538C1025.93 95.7538 1027.51 97.3383 1027.51 99.2927C1027.51 101.247 1025.93 102.832 1023.97 102.832Z" fill="#BDBDBD"/>
<path d="M1220.38 208.504C1218.43 208.504 1216.84 206.919 1216.84 204.965C1216.84 203.01 1218.43 201.426 1220.38 201.426C1222.34 201.426 1223.92 203.01 1223.92 204.965C1223.92 206.919 1222.34 208.504 1220.38 208.504Z" fill="#BDBDBD"/>
<path d="M942.58 71.1875C940.625 71.1875 939.041 69.6031 939.041 67.6486C939.041 65.6941 940.625 64.1097 942.58 64.1097C944.534 64.1097 946.118 65.6941 946.118 67.6486C946.118 69.6031 944.534 71.1875 942.58 71.1875Z" fill="#BDBDBD"/>
<path d="M872.913 70.6114C869.095 70.6114 866 67.5163 866 63.6983C866 59.8803 869.095 56.7852 872.913 56.7852C876.731 56.7852 879.826 59.8803 879.826 63.6983C879.826 67.5163 876.731 70.6114 872.913 70.6114Z" fill="#BDBDBD"/>
<path d="M1152.2 203.319H1165.82C1170.42 203.319 1174.13 199.574 1174.13 195.007C1174.13 190.398 1170.38 186.695 1165.82 186.695H1152.2C1147.59 186.695 1143.88 190.439 1143.88 195.007C1143.84 199.615 1147.59 203.319 1152.2 203.319Z" fill="#BDBDBD"/>
<path d="M1130.47 216.487H1138.82C1141.66 216.487 1143.92 214.182 1143.92 211.384C1143.92 208.545 1141.62 206.282 1138.82 206.282H1130.47C1127.63 206.282 1125.37 208.586 1125.37 211.384C1125.37 214.182 1127.67 216.487 1130.47 216.487Z" fill="#BDBDBD"/>
<path d="M1129.07 195.007C1125.25 195.007 1122.16 191.912 1122.16 188.094C1122.16 184.276 1125.25 181.18 1129.07 181.18C1132.89 181.18 1135.98 184.276 1135.98 188.094C1135.98 191.912 1132.89 195.007 1129.07 195.007Z" fill="#BDBDBD"/>
<path d="M1054.71 181.22H1064.55C1067.88 181.22 1070.56 178.504 1070.56 175.212C1070.56 171.879 1067.84 169.204 1064.55 169.204H1054.71C1051.38 169.204 1048.7 171.92 1048.7 175.212C1048.66 178.545 1051.38 181.22 1054.71 181.22Z" fill="#BDBDBD"/>
<path d="M1037.22 166.323C1035.27 166.323 1033.69 164.739 1033.69 162.784C1033.69 160.83 1035.27 159.246 1037.22 159.246C1039.18 159.246 1040.76 160.83 1040.76 162.784C1040.76 164.739 1039.18 166.323 1037.22 166.323Z" fill="#BDBDBD"/>
<path d="M969.039 161.138H982.66C987.268 161.138 990.972 157.394 990.972 152.826C990.972 148.217 987.227 144.514 982.66 144.514H969.039C964.43 144.514 960.727 148.259 960.727 152.826C960.686 157.435 964.43 161.138 969.039 161.138Z" fill="#BDBDBD"/>
<path d="M947.312 174.306H955.666C958.505 174.306 960.768 172.002 960.768 169.204C960.768 166.364 958.464 164.101 955.666 164.101H947.312C944.473 164.101 942.21 166.406 942.21 169.204C942.21 172.002 944.514 174.306 947.312 174.306Z" fill="#BDBDBD"/>
<path d="M945.913 152.826C942.095 152.826 939 149.731 939 145.913C939 142.095 942.095 139 945.913 139C949.731 139 952.826 142.095 952.826 145.913C952.826 149.731 949.731 152.826 945.913 152.826Z" fill="#BDBDBD"/>
</g>
</g>
<defs>
<clipPath id="clip0_391_488">
<rect width="1285" height="256.754" fill="white" transform="translate(-5)"/>
</clipPath>
<clipPath id="clip1_391_488">
<rect width="395.448" height="180.4" fill="white" transform="translate(33 21)"/>
</clipPath>
<clipPath id="clip2_391_488">
<rect width="395.448" height="180.4" fill="white" transform="matrix(-1 0 0 1 1261.45 43)"/>
</clipPath>
</defs>
</svg>
