<svg width="79" height="47" viewBox="0 0 79 47" fill="none" xmlns="http://www.w3.org/2000/svg">
<path d="M0.333448 20.8573C0.564538 20.4181 0.731953 20.0732 0.927848 19.7445C2.67378 16.7854 4.42206 13.8282 6.17271 10.8727C6.39311 10.4964 6.59917 10.1145 6.8124 9.73541C8.25803 7.18421 10.254 5.22347 12.9805 4.05066C15.2137 3.10534 17.6666 2.79967 20.0642 3.16791C23.4615 3.63145 26.7003 4.63805 29.8997 5.78895C34.7202 7.55256 39.4447 9.56775 44.0535 11.8262C44.8684 12.2209 45.6729 12.6296 46.5206 13.0505C46.7773 12.8201 47.0327 12.614 47.2424 12.3934C50.6269 9.00085 54.2096 5.83604 58.1807 3.13595C59.3524 2.33684 60.6036 1.64933 61.8408 0.951297C62.851 0.389945 64.0243 0.193725 65.1627 0.395747C66.9568 0.699793 68.7202 1.16258 70.4322 1.77864C73.0062 2.64743 75.3037 4.02859 77.4691 5.64187C77.6578 5.78606 77.8389 5.93984 78.0117 6.10259C78.0856 6.18132 78.1522 6.26653 78.2108 6.35718C78.2134 6.47862 78.178 6.59784 78.1096 6.69828C78.0412 6.79872 77.9431 6.87539 77.8291 6.91765C77.5267 7.10545 77.2099 7.26894 76.8816 7.40658C75.741 7.85108 74.598 8.29546 73.443 8.68796C70.4899 9.70964 67.5566 10.7739 64.7097 12.0501C62.0254 13.2201 59.4731 14.6713 57.0958 16.3794C55.6511 17.4397 54.4435 18.7323 53.2495 20.1353C53.4465 20.3386 53.5912 20.5122 53.7599 20.6505C54.7883 21.5164 55.7347 22.475 56.5872 23.5141C58.3616 25.6536 59.5304 28.2281 59.9722 30.9704C60.3705 33.5024 60.3816 36.009 59.7441 38.4836C59.1651 40.7576 57.974 42.8301 56.2996 44.4765C54.8625 45.9008 53.047 46.5364 51.052 46.6378C49.4674 46.6745 47.8901 46.4127 46.4026 45.8662C45.9198 45.69 45.4651 45.4448 45.053 45.1381C43.0035 43.7116 41.2025 41.959 39.7216 39.9502C38.584 38.3598 37.6806 36.6403 37.4999 34.6591C37.4051 33.5223 37.4004 32.3798 37.4859 31.2422C37.6829 28.5002 38.4449 25.8883 39.4742 23.3516C39.6205 22.9909 39.7568 22.6346 39.9193 22.1967C39.716 22.1427 39.5089 22.1039 39.2998 22.0808C36.5348 21.9998 33.7691 21.9334 31.0019 21.8473C28.8277 21.7806 26.655 21.6847 24.4809 21.6156C21.1217 21.5103 17.7612 21.4131 14.3994 21.324L1.12312 20.9456C0.891055 20.943 0.678385 20.8976 0.333448 20.8573ZM48.618 26.2946C48.4282 26.5554 48.2249 26.7934 48.0642 27.0582C46.597 29.4012 45.3557 31.8778 44.3569 34.4549C43.8345 35.7769 43.4685 37.1554 43.2661 38.5622C43.0032 40.6126 43.3971 42.4904 44.6803 44.1471C45.5951 45.3304 46.7617 46.0536 48.2971 46.0913C48.6529 46.1102 49.0088 46.1291 49.3659 46.1237C52.8635 46.124 55.4959 44.0092 56.4128 41.1493C56.7423 40.0494 56.9108 38.9078 56.9131 37.7597C57.0198 35.0051 56.0381 32.3187 54.1795 30.2795C53.0146 28.9892 51.6502 27.8936 50.1381 27.0342C49.6714 26.7131 49.159 26.4638 48.618 26.2946Z" fill="#F06599"/>
</svg>
