<svg width="14" height="29" viewBox="0 0 14 29" fill="none" xmlns="http://www.w3.org/2000/svg">
<path d="M11.006 1.82322C11.5372 2.05993 11.9875 2.44615 12.305 2.93742C12.6225 3.42868 12.7943 4.00501 12.8007 4.60003C13.0729 9.73541 13.4003 14.8649 13.7036 20.001C13.791 21.5074 13.8104 23.0268 13.9217 24.5266C13.9812 24.9964 13.886 25.4775 13.6511 25.8954C13.4161 26.3134 13.0543 26.6451 12.6216 26.8392C10.7445 27.8707 8.60755 28.2711 6.52626 27.9812C5.69628 27.8622 5.12952 27.4638 4.85374 26.6425C4.26232 24.8786 3.59516 23.1409 3.06793 21.3559C1.77707 17.1269 0.939509 12.7569 0.569556 8.32049C0.461336 6.90248 0.543156 5.46387 0.550655 4.03451C0.568098 3.74843 0.600466 3.46307 0.647621 3.17962C0.756957 2.23133 1.2634 1.61932 2.13887 1.24102C3.15787 0.819192 4.24118 0.596149 5.33089 0.58383C6.86458 0.528022 8.38735 0.758539 9.82342 1.26391C10.226 1.41682 10.6097 1.63552 11.006 1.82322Z" fill="#88B9E4"/>
</svg>
