<svg width="79" height="58" viewBox="0 0 79 58" fill="none" xmlns="http://www.w3.org/2000/svg">
<path d="M78.3743 36.5141C75.7995 35.1042 73.389 33.8831 70.7808 33.1068C68.2137 32.3395 65.572 32.0266 62.9313 31.7211C62.4688 30.7195 62.0511 29.7689 61.5963 28.8362C59.9201 25.4029 58.0012 22.1254 55.4955 19.2274C54.1255 17.6403 52.6051 16.2281 50.7287 15.2641C48.4646 14.094 46.1675 13.9309 43.8366 15.0402C42.6822 15.5883 41.6541 16.3733 40.8181 17.3453C39.9428 18.3825 39.1939 19.522 38.5875 20.7395C37.3217 23.2867 36.3294 25.9637 35.6276 28.725C34.6158 32.476 33.6917 36.2492 32.7185 40.0095C32.0519 42.6931 31.2413 45.3377 30.2903 47.9318C29.5241 49.9608 28.6256 51.9342 27.3203 53.6717C26.3497 54.9693 25.2107 56.0662 23.7323 56.762C22.9816 57.1343 22.1692 57.3641 21.3355 57.4402C18.1901 57.6848 15.1478 57.3482 12.2866 55.8802C10.9042 55.158 9.64199 54.2219 8.54584 53.1061C6.6599 51.2166 5.27733 48.9701 4.07257 46.5996C3.00246 44.4905 2.08797 42.3048 1.33657 40.0606C0.830866 38.5354 0.536387 36.9475 0.461493 35.3421C0.294498 31.9623 0.863028 28.7073 1.89906 25.5264C2.54491 23.4637 3.41879 21.4815 4.50423 19.6172C4.83694 19.6184 4.78969 19.8708 4.83401 20.0371C5.67985 23.5275 6.87536 26.8812 8.70471 29.989C9.4755 31.2985 10.3235 32.559 11.155 33.8596C10.7198 35.4764 10.4597 37.1365 10.3793 38.8109C10.2873 40.4581 10.4914 42.1093 10.9819 43.6847C11.4098 45.03 12.1548 46.2512 13.153 47.2432C14.7369 48.8339 16.6934 49.701 18.8541 50.0671C20.501 50.3484 21.9966 49.8028 23.375 48.9162C24.6319 48.0671 25.7349 47.0068 26.6363 45.7813C28.6403 43.192 29.9586 40.2426 31.0556 37.1729C32.0945 34.2646 32.6987 31.2349 33.3268 28.2166C33.8057 25.9015 34.4194 23.6172 35.1647 21.3757C35.6943 19.7797 36.2107 18.1782 36.8165 16.6112C38.0316 13.4665 39.4741 10.4337 41.3822 7.64811C42.7697 5.6254 44.3311 3.77252 46.3683 2.37071C47.6371 1.46344 49.0911 0.853415 50.6246 0.58494C53.0895 0.184861 55.3656 0.761941 57.5084 1.98489C58.6034 2.64975 59.5994 3.46819 60.4666 4.4156C62.7608 6.78613 64.6431 9.47777 66.3884 12.2672C69.5389 17.3864 72.3556 22.7066 74.8205 28.194C75.8875 30.5221 76.9015 32.878 77.9294 35.2269C78.06 35.5583 78.168 35.9383 78.3743 36.5141Z" fill="#88B9E4"/>
</svg>
