<svg width="1440" height="1024" viewBox="0 0 1440 1024" fill="none" xmlns="http://www.w3.org/2000/svg">
<path d="M254.741 905.074C255.237 905.049 255.619 905.017 256.002 905.017C259.437 905.009 262.873 905.004 266.308 905.002C266.744 905 267.177 904.982 267.612 904.972C270.544 904.914 273.249 905.63 275.648 907.377C277.601 908.815 279.115 910.769 280.022 913.019C281.356 916.177 282.143 919.477 282.785 922.815C283.728 927.861 284.405 932.953 284.814 938.069C284.89 938.971 284.949 939.871 285.019 940.815C285.348 940.918 285.656 941.033 285.953 941.101C290.597 942.281 295.147 943.748 299.495 945.786C300.78 946.386 302.01 947.111 303.241 947.819C304.24 948.401 305.007 949.31 305.414 950.393C306.068 952.091 306.569 953.844 306.913 955.63C307.479 958.287 307.463 960.968 307.18 963.653C307.153 963.889 307.113 964.123 307.061 964.355C307.031 964.459 306.992 964.56 306.944 964.656C306.84 964.72 306.72 964.751 306.599 964.743C306.477 964.736 306.361 964.69 306.267 964.614C305.951 964.45 305.649 964.261 305.363 964.048C304.399 963.294 303.433 962.538 302.507 961.745C300.121 959.726 297.709 957.746 295.159 955.949C292.784 954.237 290.233 952.782 287.551 951.609C285.902 950.907 284.175 950.528 282.359 950.217C282.284 950.49 282.209 950.703 282.176 950.919C281.956 952.245 281.614 953.548 281.156 954.811C280.221 957.429 278.603 959.748 276.47 961.527C274.495 963.161 272.345 964.45 269.891 965.164C267.64 965.826 265.25 965.859 262.98 965.259C261.022 964.749 259.549 963.512 258.444 961.848C257.604 960.504 257.024 959.014 256.735 957.456C256.641 956.95 256.62 956.434 256.673 955.923C256.854 953.433 257.443 950.99 258.415 948.691C259.202 946.901 260.22 945.247 261.832 944.081C262.762 943.419 263.742 942.833 264.764 942.326C267.223 941.096 269.858 940.419 272.565 940.01C272.95 939.952 273.326 939.887 273.785 939.804C273.728 939.601 273.656 939.404 273.569 939.212C272.228 936.792 270.874 934.38 269.536 931.956C268.484 930.052 267.458 928.134 266.409 926.229C264.785 923.286 263.154 920.347 261.516 917.41L255.068 905.798C254.952 905.597 254.883 905.391 254.741 905.074ZM274.699 949.376C274.377 949.346 274.069 949.292 273.759 949.289C270.996 949.223 268.232 949.419 265.506 949.874C264.103 950.1 262.73 950.488 261.417 951.032C259.519 951.852 258.105 953.148 257.335 955.097C256.784 956.488 256.757 957.86 257.508 959.2C257.674 959.515 257.839 959.831 258.026 960.136C259.81 963.144 262.972 964.329 265.899 963.659C267.013 963.381 268.081 962.943 269.07 962.36C271.493 961.046 273.303 958.831 274.109 956.192C274.624 954.532 274.87 952.8 274.838 951.061C274.876 950.495 274.829 949.928 274.699 949.376Z" fill="#F06599"/>
<path d="M446.641 593.065C448.385 595.426 450.06 597.547 452.1 599.347C454.107 601.122 456.373 602.516 458.641 603.903C458.64 605.006 458.62 606.044 458.641 607.081C458.719 610.901 459.083 614.682 460.14 618.364C460.716 620.38 461.503 622.3 462.8 623.963C464.363 625.976 466.379 627.09 468.96 627.062C470.238 627.05 471.501 626.769 472.668 626.239C473.898 625.665 475.057 624.946 476.118 624.096C478.337 622.316 480.362 620.304 482.159 618.093C484.653 615.114 487.077 612.078 489.54 609.075C491.273 606.92 493.119 604.86 495.072 602.906C496.62 601.386 498.264 599.973 500.179 598.945C501.605 598.175 503.099 597.658 504.733 597.648C505.571 597.626 506.405 597.758 507.193 598.04C510.15 599.139 512.77 600.723 514.749 603.257C515.7 604.493 516.453 605.873 516.978 607.346C517.896 609.853 518.207 612.473 518.304 615.13C518.389 617.493 518.301 619.861 518.04 622.213C517.858 623.81 517.458 625.374 516.851 626.863C515.583 630 513.699 632.715 511.423 635.166C509.97 636.767 508.344 638.198 506.576 639.434C506.275 639.293 506.424 639.084 506.453 638.914C507.152 635.392 507.476 631.846 507.122 628.257C506.973 626.745 506.733 625.245 506.525 623.715C507.599 622.431 508.532 621.034 509.309 619.548C510.084 618.092 510.593 616.508 510.809 614.872C510.986 613.472 510.823 612.05 510.334 610.731C509.565 608.622 508.154 607.013 506.347 605.773C504.971 604.826 503.385 604.692 501.761 604.918C500.264 605.16 498.818 605.659 497.485 606.392C494.578 607.9 492.143 610.023 489.858 612.347C487.693 614.55 485.872 617.046 484.034 619.521C482.626 621.42 481.11 623.235 479.492 624.956C478.341 626.182 477.199 627.419 475.991 628.586C473.567 630.929 470.984 633.075 468.082 634.801C465.973 636.054 463.778 637.079 461.34 637.496C459.808 637.786 458.232 637.729 456.727 637.328C454.323 636.655 452.5 635.175 451.069 633.165C450.355 632.102 449.795 630.941 449.406 629.717C448.32 626.602 447.742 623.368 447.331 620.104C446.622 614.135 446.302 608.123 446.37 602.108C446.38 599.547 446.45 596.983 446.504 594.42C446.525 594.064 446.586 593.674 446.641 593.065Z" fill="#88B9E4"/>
<path d="M1406.99 363.644C1407.18 364.024 1407.23 364.454 1407.11 364.849C1407.02 365.378 1406.89 365.896 1406.71 366.398C1405.85 368.722 1404.7 370.922 1403.26 372.944C1402.51 374.046 1401.63 375.059 1400.64 375.966C1400.06 376.469 1399.44 376.928 1398.79 377.339C1397.25 378.295 1395.59 378.533 1393.77 377.9C1392.51 377.461 1391.24 377.067 1389.97 376.659C1388.28 376.114 1386.58 375.622 1384.9 375.023C1382.78 374.266 1380.68 373.412 1378.56 372.621C1377.66 372.284 1377.23 371.646 1377.07 370.775C1376.9 369.663 1376.95 368.541 1377.2 367.461C1377.54 365.618 1378.17 363.848 1379.08 362.211C1379.49 361.528 1379.95 360.877 1380.47 360.265C1380.7 359.982 1380.99 359.758 1381.34 359.611C1381.68 359.465 1382.05 359.4 1382.44 359.423C1384.59 359.424 1386.75 359.559 1388.91 359.827C1392.53 360.267 1396.14 360.921 1399.7 361.784C1401.82 362.297 1403.93 362.799 1406.04 363.316C1406.36 363.409 1406.68 363.518 1406.99 363.644Z" fill="#88B9E4"/>
<path d="M649.687 250.942C650.109 250.477 650.655 250.145 651.26 249.983C652.712 249.532 654.208 249.235 655.722 249.098C658.781 248.749 661.855 248.751 664.93 248.794C665.309 248.785 665.685 248.855 666.036 248.999C666.386 249.143 666.704 249.358 666.967 249.63C668.165 250.859 669.392 252.06 670.526 253.346C674.088 257.394 677.379 261.673 680.377 266.157C681.472 267.781 682.453 269.48 683.31 271.243C683.502 271.639 683.667 272.048 683.804 272.466C683.974 272.98 683.839 273.321 683.354 273.563C682.999 273.747 682.62 273.881 682.229 273.962C681.052 274.174 679.872 274.409 678.682 274.512C675.262 274.817 671.821 274.808 668.404 274.484C666.782 274.329 665.468 273.779 664.347 272.514C662.439 270.362 660.514 268.225 658.735 265.969C657.448 264.342 656.184 262.69 654.975 261.004C653.301 258.665 651.714 256.262 650.503 253.638C650.076 252.794 649.799 251.882 649.687 250.942Z" fill="#F09F45"/>
<path d="M1112.15 998.794C1112.19 999.117 1112.19 999.309 1112.23 999.499C1113.08 1004.47 1114.62 1009.2 1117.29 1013.51C1118.6 1015.69 1120.23 1017.67 1122.12 1019.37C1125.71 1022.55 1129.92 1024.33 1134.69 1024.83C1138.47 1025.23 1142.22 1025.02 1145.96 1024.46C1151.08 1023.7 1156.05 1022.34 1160.94 1020.67C1162.11 1020.27 1163.26 1019.85 1164.42 1019.45C1164.76 1019.33 1165.1 1019.25 1165.48 1019.14C1165.64 1019.32 1165.78 1019.51 1165.9 1019.72C1166.4 1020.76 1166.62 1021.9 1166.86 1023.02C1167.14 1024.38 1167.4 1025.75 1167.61 1027.12C1168.03 1029.95 1168.4 1032.78 1168.79 1035.61C1168.82 1035.84 1168.83 1036.08 1168.85 1036.34C1168.43 1036.63 1167.96 1036.69 1167.5 1036.8C1163.09 1037.8 1158.57 1038.29 1154.04 1038.27C1149.51 1038.28 1145 1037.74 1140.6 1036.65C1135.65 1035.44 1130.92 1033.48 1126.57 1030.84C1123.31 1028.85 1120.29 1026.51 1117.56 1023.85C1115.57 1021.91 1113.69 1019.86 1112.2 1017.5C1110.77 1015.22 1109.69 1012.81 1109.22 1010.15C1108.51 1006.34 1109 1002.4 1110.61 998.875C1110.78 998.483 1110.95 998.088 1111.12 997.686L1110.52 997.043C1108.35 994.734 1106.36 992.254 1104.58 989.625C1102.42 986.371 1101.07 982.646 1100.65 978.765C1100.1 974.09 1100.62 969.504 1101.78 964.972C1102.76 961.251 1104.1 957.635 1105.78 954.174C1106.33 953.024 1106.95 951.932 1107.56 950.813C1107.74 950.47 1107.98 950.152 1108.16 949.86C1108.62 949.816 1108.77 950.141 1108.98 950.359C1110.89 952.328 1113.05 954.044 1115.4 955.464C1117.76 956.846 1120.37 957.777 1123.08 958.208C1124.68 958.491 1126.3 958.662 1127.93 958.722C1128.23 958.733 1128.52 958.779 1129.06 958.831C1128.66 959.061 1128.23 959.234 1127.78 959.347C1125.43 960.08 1123.19 961.127 1121.12 962.461C1119.02 963.859 1117.2 965.519 1115.85 967.697C1114.59 969.731 1113.91 972.072 1113.88 974.466C1113.8 978.274 1114.92 981.729 1116.93 984.936C1117.25 985.435 1117.58 985.925 1117.85 986.348C1118.24 986.46 1118.39 986.26 1118.57 986.114C1121.04 984.118 1123.75 982.443 1126.64 981.13C1129.42 979.883 1132.32 979.099 1135.39 979.074C1136.97 979.062 1138.57 979.039 1140.15 979.135C1142.34 979.238 1144.48 979.837 1146.4 980.887C1147.99 981.786 1149.42 982.959 1150.6 984.351C1151.57 985.469 1152.42 986.649 1153.26 987.857C1154.34 989.387 1154.93 991.093 1155.27 992.896C1155.68 994.966 1155.73 997.09 1155.42 999.176C1154.97 1002.14 1153.71 1004.69 1151.44 1006.69C1150.26 1007.69 1148.93 1008.49 1147.49 1009.05C1144.62 1010.24 1141.62 1010.7 1138.53 1010.67C1134.72 1010.62 1130.94 1009.9 1127.36 1008.55C1124.16 1007.36 1121.13 1005.77 1118.32 1003.82C1116.42 1002.5 1114.6 1001.11 1113.04 999.398C1112.87 999.228 1112.69 999.068 1112.51 998.92C1112.39 998.864 1112.27 998.821 1112.15 998.794ZM1121.07 995.274C1121.21 995.453 1121.35 995.623 1121.51 995.783C1122.78 996.933 1124.02 998.103 1125.35 999.167C1127.13 1000.63 1129.1 1001.85 1131.2 1002.8C1134.67 1004.4 1138.62 1004.6 1142.24 1003.37C1143.88 1002.87 1145.35 1001.91 1146.47 1000.6C1147.03 999.952 1147.44 999.189 1147.67 998.364C1147.9 997.54 1147.95 996.674 1147.8 995.83C1147.62 994.611 1147.26 993.427 1146.72 992.318C1146.21 991.214 1145.48 990.229 1144.56 989.429C1143.65 988.629 1142.58 988.031 1141.42 987.674C1138.12 986.614 1134.83 986.763 1131.59 987.848C1128.38 988.907 1125.41 990.605 1122.87 992.838C1122.12 993.486 1121.39 994.187 1121.07 995.274Z" fill="#F0D241"/>
<path d="M1055.62 543.421C1056.2 543.48 1056.75 543.705 1057.2 544.072C1057.66 544.439 1058 544.933 1058.19 545.496C1060.06 550.288 1061.98 555.057 1063.87 559.839C1064.43 561.242 1064.92 562.679 1065.5 564.069C1065.7 564.496 1065.76 564.983 1065.67 565.453C1065.58 565.924 1065.34 566.352 1064.99 566.672C1063.53 568.24 1061.63 569.289 1059.56 569.666C1058.73 569.813 1058.07 569.612 1057.55 568.919C1056.44 567.429 1055.26 565.987 1054.2 564.457C1051.65 560.845 1049.48 556.958 1047.74 552.86C1047.2 551.548 1046.82 550.156 1046.38 548.796C1046.31 548.519 1046.25 548.238 1046.21 547.954C1046.01 547.019 1046.3 546.279 1047.02 545.646C1047.85 544.926 1048.81 544.375 1049.84 544.022C1051.28 543.488 1052.8 543.23 1054.32 543.26C1054.75 543.28 1055.18 543.367 1055.62 543.421Z" fill="#88B9E4"/>
<path d="M778.731 312.851C778.947 312.482 779.288 312.216 779.685 312.104C780.179 311.896 780.689 311.735 781.211 311.621C783.633 311.104 786.111 310.913 788.588 311.051C789.92 311.1 791.246 311.303 792.541 311.658C793.275 311.879 793.993 312.158 794.69 312.493C796.316 313.283 797.404 314.564 797.837 316.439C798.136 317.738 798.481 319.026 798.812 320.316C799.25 322.036 799.744 323.742 800.127 325.475C800.617 327.675 801.015 329.909 801.474 332.123C801.672 333.068 801.36 333.772 800.708 334.37C799.855 335.102 798.882 335.663 797.835 336.027C796.092 336.718 794.257 337.125 792.391 337.235C791.593 337.25 790.795 337.203 790.003 337.093C789.641 337.051 789.293 336.919 788.987 336.707C788.681 336.495 788.425 336.211 788.241 335.876C787.093 334.05 786.055 332.149 785.135 330.186C783.575 326.882 782.208 323.482 781.039 320.007C780.347 317.945 779.646 315.889 778.958 313.827C778.866 313.506 778.79 313.18 778.731 312.851Z" fill="#88B9E4"/>
<path d="M555.651 956.396C555.519 956.963 555.224 957.478 554.802 957.883C554.38 958.287 553.846 958.565 553.263 958.684C548.272 959.922 543.297 961.214 538.311 962.483C536.848 962.854 535.36 963.16 533.908 963.553C533.458 963.7 532.968 963.698 532.513 963.546C532.058 963.395 531.664 963.102 531.392 962.714C530.024 961.066 529.226 959.043 529.117 956.945C529.077 956.107 529.361 955.475 530.116 955.049C531.736 954.135 533.316 953.151 534.969 952.296C538.878 950.228 543.01 948.579 547.297 947.377C548.669 947.003 550.097 946.811 551.502 946.548C551.786 946.511 552.072 946.489 552.36 946.481C553.311 946.409 554.008 946.791 554.545 947.579C555.152 948.5 555.576 949.521 555.794 950.589C556.139 952.085 556.201 953.624 555.976 955.129C555.902 955.554 555.76 955.972 555.651 956.396Z" fill="#88B9E4"/>
<path d="M843.829 183.637C845.396 183.535 846.675 183.787 847.943 184.056C850.292 184.549 852.538 185.371 854.765 186.233C859.109 187.914 863.27 189.993 867.488 191.933C868.772 192.522 870.061 193.108 871.344 193.705C872.225 194.107 872.393 194.409 872.16 195.298C872.027 195.842 871.829 196.369 871.57 196.868C870.171 199.503 868.19 201.798 865.772 203.585C865.302 203.901 864.809 204.182 864.297 204.424C864.009 204.576 863.69 204.662 863.364 204.675C863.039 204.688 862.714 204.627 862.417 204.498C859.615 203.432 856.735 202.601 853.853 201.776C850.075 200.692 846.303 199.621 842.534 198.477C839.615 197.624 836.788 196.491 834.097 195.094C833.529 194.79 832.978 194.45 832.44 194.093C831.815 193.677 831.746 193.449 832.177 192.81C832.626 192.142 833.128 191.508 833.676 190.916C835.314 189.185 837.119 187.614 839.065 186.225C839.946 185.585 840.866 184.989 841.801 184.426C842.502 184.014 843.235 183.654 843.829 183.637Z" fill="#F06599"/>
<path d="M735.529 578.77C735.924 581.84 737.088 597.887 737.006 598.99C736.792 598.89 736.585 598.775 736.386 598.648C729.32 593.454 722.255 588.254 715.194 583.048C715.146 583.021 715.159 582.912 715.124 582.761C721.896 581.412 728.665 580.086 735.529 578.77Z" fill="#93C950"/>
<path d="M1315.01 420.823C1315.54 421.06 1315.99 421.446 1316.3 421.937C1316.62 422.429 1316.79 423.005 1316.8 423.6C1317.07 428.735 1317.4 433.865 1317.7 439.001C1317.79 440.507 1317.81 442.027 1317.92 443.527C1317.98 443.996 1317.89 444.477 1317.65 444.895C1317.42 445.313 1317.05 445.645 1316.62 445.839C1314.74 446.871 1312.61 447.271 1310.53 446.981C1309.7 446.862 1309.13 446.464 1308.85 445.643C1308.26 443.879 1307.6 442.141 1307.07 440.356C1305.78 436.127 1304.94 431.757 1304.57 427.32C1304.46 425.902 1304.54 424.464 1304.55 423.035C1304.57 422.748 1304.6 422.463 1304.65 422.18C1304.76 421.231 1305.26 420.619 1306.14 420.241C1307.16 419.819 1308.24 419.596 1309.33 419.584C1310.86 419.528 1312.39 419.759 1313.82 420.264C1314.23 420.417 1314.61 420.636 1315.01 420.823Z" fill="#88B9E4"/>
<path d="M933.727 373.615C933.906 373.345 934.025 373.194 934.125 373.028C936.712 368.696 938.614 364.102 939.39 359.087C939.81 356.577 939.857 354.018 939.531 351.494C938.869 346.746 936.826 342.661 933.533 339.173C930.922 336.411 927.933 334.131 924.727 332.124C920.341 329.379 915.684 327.175 910.882 325.263C909.74 324.81 908.588 324.378 907.444 323.927C907.115 323.799 906.798 323.64 906.434 323.477C906.435 323.239 906.456 323.002 906.498 322.767C906.797 321.644 907.37 320.638 907.921 319.631C908.586 318.413 909.277 317.205 910.013 316.03C911.534 313.61 913.094 311.217 914.639 308.814C914.767 308.617 914.913 308.433 915.07 308.217C915.571 308.271 915.975 308.531 916.387 308.747C920.394 310.858 924.146 313.421 927.57 316.386C931.018 319.323 934.095 322.671 936.733 326.354C939.701 330.49 942.019 335.056 943.608 339.894C944.791 343.518 945.563 347.264 945.908 351.061C946.161 353.828 946.259 356.607 945.851 359.373C945.453 362.028 944.702 364.564 943.336 366.887C941.395 370.246 938.466 372.924 934.948 374.555C934.56 374.738 934.178 374.931 933.788 375.127L933.82 376C933.973 379.171 933.871 382.348 933.514 385.502C933.04 389.38 931.642 393.086 929.437 396.309C926.815 400.218 923.438 403.364 919.605 406.048C916.443 408.24 913.075 410.118 909.549 411.655C908.382 412.169 907.203 412.598 906.011 413.05C905.646 413.189 905.263 413.28 904.931 413.38C904.553 413.115 904.652 412.771 904.633 412.467C904.462 409.73 903.94 407.025 903.081 404.42C902.18 401.83 900.807 399.429 899.031 397.34C897.996 396.083 896.876 394.898 895.679 393.795C895.46 393.593 895.265 393.366 894.889 392.975C895.343 393.062 895.783 393.211 896.197 393.417C898.459 394.388 900.842 395.049 903.281 395.381C905.788 395.687 908.246 395.605 910.692 394.832C912.973 394.108 915.012 392.771 916.587 390.968C919.125 388.128 920.524 384.777 921.077 381.029C921.164 380.447 921.232 379.86 921.298 379.36C921.08 379.025 920.832 379.077 920.599 379.07C917.426 378.981 914.276 378.489 911.226 377.606C908.304 376.748 905.591 375.457 903.246 373.482C902.033 372.46 900.809 371.442 899.67 370.341C898.073 368.839 896.839 366.993 896.059 364.944C895.433 363.225 895.116 361.409 895.12 359.58C895.109 358.099 895.236 356.654 895.383 355.19C895.554 353.322 896.215 351.643 897.128 350.051C898.164 348.213 899.508 346.568 901.099 345.184C903.373 343.226 905.983 342.111 909.006 342.066C910.551 342.072 912.085 342.333 913.545 342.84C916.497 343.8 919.078 345.407 921.407 347.431C924.27 349.957 926.672 352.962 928.508 356.311C930.166 359.296 931.44 362.479 932.299 365.784C932.89 368.016 933.37 370.259 933.442 372.577C933.458 372.814 933.488 373.051 933.533 373.284C933.584 373.402 933.649 373.513 933.727 373.615ZM924.656 370.484C924.67 370.261 924.67 370.038 924.656 369.815C924.436 368.113 924.26 366.421 923.94 364.748C923.534 362.478 922.834 360.271 921.859 358.182C920.258 354.712 917.389 351.988 913.844 350.569C912.267 349.878 910.525 349.654 908.825 349.925C907.979 350.052 907.171 350.364 906.459 350.841C905.748 351.317 905.15 351.945 904.71 352.679C904.055 353.723 903.562 354.86 903.25 356.053C902.917 357.221 902.835 358.446 903.008 359.648C903.182 360.851 903.608 362.003 904.259 363.028C906.073 365.977 908.669 368.004 911.838 369.287C914.967 370.571 918.322 371.21 921.704 371.164C922.695 371.16 923.707 371.103 924.656 370.484Z" fill="#F0D241"/>
<path d="M1142.57 971.909C1142.59 971.328 1142.78 970.765 1143.11 970.286C1143.45 969.808 1143.92 969.432 1144.47 969.203C1149.12 967.022 1153.76 964.792 1158.4 962.582C1159.76 961.936 1161.17 961.347 1162.51 960.681C1162.93 960.449 1163.41 960.357 1163.88 960.417C1164.36 960.478 1164.8 960.689 1165.15 961.017C1166.81 962.369 1167.98 964.2 1168.49 966.237C1168.69 967.051 1168.54 967.726 1167.88 968.29C1166.47 969.501 1165.11 970.772 1163.65 971.931C1160.22 974.715 1156.48 977.133 1152.51 979.141C1151.23 979.774 1149.87 980.239 1148.54 980.768C1148.27 980.86 1147.99 980.937 1147.71 981C1146.79 981.254 1146.04 981.015 1145.36 980.346C1144.58 979.56 1143.97 978.639 1143.55 977.634C1142.92 976.234 1142.56 974.736 1142.49 973.215C1142.48 972.784 1142.54 972.347 1142.57 971.909Z" fill="#88B9E4"/>
<path d="M714.161 975.703C714.474 976.193 714.636 976.763 714.63 977.348C714.624 977.933 714.45 978.509 714.127 979.009C711.522 983.443 708.967 987.903 706.388 992.354C705.63 993.659 704.809 994.937 704.074 996.25C703.865 996.675 703.52 997.024 703.094 997.243C702.667 997.462 702.183 997.539 701.714 997.462C699.58 997.288 697.576 996.443 696 995.054C695.373 994.497 695.12 993.852 695.343 993.015C695.822 991.217 696.224 989.4 696.768 987.62C698.023 983.38 699.734 979.273 701.872 975.368C702.564 974.125 703.425 972.97 704.22 971.782C704.392 971.553 704.576 971.333 704.772 971.122C705.386 970.391 706.146 970.16 707.085 970.327C708.168 970.537 709.194 970.949 710.11 971.539C711.421 972.338 712.564 973.37 713.483 974.584C713.735 974.933 713.934 975.327 714.161 975.703Z" fill="#88B9E4"/>
<path d="M712.333 371.857C712.565 371.418 712.732 371.073 712.928 370.744C714.674 367.785 716.422 364.828 718.173 361.873C718.393 361.496 718.599 361.114 718.812 360.735C720.258 358.184 722.254 356.223 724.98 355.051C727.214 354.105 729.667 353.8 732.064 354.168C735.461 354.631 738.7 355.638 741.9 356.789C746.72 358.553 751.445 360.568 756.053 362.826C756.868 363.221 757.673 363.63 758.521 364.05C758.777 363.82 759.033 363.614 759.242 363.393C762.627 360.001 766.21 356.836 770.181 354.136C771.352 353.337 772.604 352.649 773.841 351.951C774.851 351.39 776.024 351.194 777.163 351.396C778.957 351.7 780.72 352.163 782.432 352.779C785.006 353.647 787.304 355.029 789.469 356.642C789.658 356.786 789.839 356.94 790.012 357.103C790.086 357.181 790.152 357.267 790.211 357.357C790.213 357.479 790.178 357.598 790.11 357.698C790.041 357.799 789.943 357.875 789.829 357.918C789.527 358.105 789.21 358.269 788.882 358.407C787.741 358.851 786.598 359.295 785.443 359.688C782.49 360.71 779.557 361.774 776.71 363.05C774.025 364.22 771.473 365.671 769.096 367.379C767.651 368.44 766.443 369.732 765.249 371.135C765.446 371.339 765.591 371.512 765.76 371.65C766.788 372.516 767.735 373.475 768.587 374.514C770.362 376.654 771.53 379.228 771.972 381.97C772.371 384.502 772.382 387.009 771.744 389.484C771.165 391.758 769.974 393.83 768.3 395.476C766.863 396.901 765.047 397.536 763.052 397.638C761.467 397.675 759.89 397.413 758.403 396.866C757.92 396.69 757.465 396.445 757.053 396.138C755.004 394.712 753.202 392.959 751.722 390.95C750.584 389.36 749.681 387.64 749.5 385.659C749.405 384.522 749.4 383.38 749.486 382.242C749.683 379.5 750.445 376.888 751.474 374.352C751.621 373.991 751.757 373.635 751.919 373.197C751.716 373.143 751.509 373.104 751.3 373.081C748.535 373 745.769 372.933 743.002 372.847C740.828 372.781 738.655 372.685 736.481 372.616C733.122 372.51 729.761 372.413 726.399 372.324L713.123 371.946C712.891 371.943 712.678 371.898 712.333 371.857ZM760.618 377.295C760.428 377.555 760.225 377.793 760.064 378.058C758.597 380.401 757.356 382.878 756.357 385.455C755.835 386.777 755.468 388.155 755.266 389.562C755.003 391.613 755.397 393.49 756.68 395.147C757.595 396.33 758.762 397.054 760.297 397.091C760.653 397.11 761.009 397.129 761.366 397.124C764.864 397.124 767.496 395.009 768.413 392.149C768.742 391.049 768.911 389.908 768.913 388.76C769.02 386.005 768.038 383.319 766.18 381.28C765.015 379.989 763.65 378.894 762.138 378.034C761.671 377.713 761.159 377.464 760.618 377.295Z" fill="#F06599"/>
<path d="M420.863 123.236C420.235 123.065 419.669 122.879 419.088 122.754C415.676 122.017 412.255 121.307 408.796 120.814C406.175 120.44 403.552 120.089 400.909 119.91C398.346 119.761 395.777 119.827 393.23 120.108C389.689 120.491 386.183 121.123 382.739 122.001C382.082 122.16 381.433 122.375 380.779 122.552C380.568 122.591 380.353 122.618 380.138 122.631C380.168 122.386 380.171 122.234 380.193 122.085C380.919 119.075 381.743 116.099 382.958 113.237C383.26 112.591 383.601 111.963 383.978 111.358C384.098 111.153 384.268 110.982 384.473 110.859C384.677 110.737 384.91 110.667 385.149 110.656C389.449 110.216 393.727 109.591 398.059 109.502C402.391 109.412 406.712 109.626 410.975 110.569C415.456 111.54 419.803 113.067 423.914 115.112C424.453 115.386 424.998 115.645 425.542 115.907C425.626 115.935 425.715 115.953 425.804 115.959C425.903 115.908 425.997 115.846 426.082 115.774C430.108 111.683 434.903 108.665 439.993 106.062C441.267 105.411 442.587 104.819 443.898 104.261C445.666 103.521 447.555 103.095 449.479 103.004C451.448 102.868 453.422 103.312 455.154 104.28C457.116 105.398 458.877 106.838 460.359 108.538C460.406 108.589 460.42 108.673 460.477 108.815C460.126 108.901 459.799 109.011 459.459 109.08C455.781 109.835 452.182 110.914 448.704 112.304C445.395 113.584 442.24 115.218 439.293 117.176C437.775 118.189 436.349 119.332 435.033 120.593C434.722 120.894 434.454 121.237 434.12 121.615C434.281 121.845 434.458 122.064 434.651 122.268C435.806 123.27 436.828 124.415 437.69 125.673C438.672 127.107 439.329 128.732 439.616 130.436C439.89 132.01 440.061 133.599 440.129 135.192C440.205 138.095 439.27 140.645 437.596 142.971C436.401 144.615 434.776 145.901 432.893 146.691C431.659 147.234 430.367 147.67 429.077 148.087C427.773 148.503 426.353 148.421 425.093 147.855C423.254 147.12 421.622 145.945 420.342 144.436C419.358 143.308 418.689 141.946 418.401 140.487C417.72 136.885 417.512 133.287 418.428 129.704C418.889 127.978 419.521 126.303 420.315 124.705C420.519 124.254 420.829 123.831 420.863 123.236ZM429.854 126.705C429.572 126.992 429.339 127.203 429.143 127.44C428.915 127.713 428.731 128.026 428.508 128.301C426.794 130.387 425.283 132.631 423.995 135.003C423.257 136.322 422.729 137.749 422.43 139.234C422.059 141.14 422.304 142.961 423.387 144.64C424.276 145.984 425.475 147.099 426.883 147.891C427.052 148.002 427.244 148.072 427.445 148.095C427.645 148.118 427.848 148.093 428.035 148.023C429.037 147.63 430.046 147.249 430.909 146.59C431.923 145.823 432.847 144.948 433.666 143.979C435.089 142.274 435.946 140.372 435.812 138.084C435.624 134.993 434.755 132.12 432.942 129.551C432.153 128.371 431.093 127.394 429.85 126.702L429.854 126.705Z" fill="#856DB1"/>
<path d="M1410.37 183.514C1407.8 182.104 1405.39 180.883 1402.78 180.107C1400.21 179.34 1397.57 179.027 1394.93 178.721C1394.47 177.719 1394.05 176.769 1393.6 175.836C1391.92 172.403 1390 169.125 1387.5 166.227C1386.13 164.64 1384.61 163.228 1382.73 162.264C1380.46 161.094 1378.17 160.931 1375.84 162.04C1374.68 162.588 1373.65 163.373 1372.82 164.345C1371.94 165.383 1371.19 166.522 1370.59 167.74C1369.32 170.287 1368.33 172.964 1367.63 175.725C1366.62 179.476 1365.69 183.249 1364.72 187.01C1364.05 189.693 1363.24 192.338 1362.29 194.932C1361.52 196.961 1360.63 198.934 1359.32 200.672C1358.35 201.969 1357.21 203.066 1355.73 203.762C1354.98 204.134 1354.17 204.364 1353.34 204.44C1350.19 204.685 1347.15 204.348 1344.29 202.88C1342.9 202.158 1341.64 201.222 1340.55 200.106C1338.66 198.217 1337.28 195.97 1336.07 193.6C1335 191.49 1334.09 189.305 1333.34 187.061C1332.83 185.535 1332.54 183.947 1332.46 182.342C1332.29 178.962 1332.86 175.707 1333.9 172.526C1334.54 170.464 1335.42 168.482 1336.5 166.617C1336.84 166.618 1336.79 166.871 1336.83 167.037C1337.68 170.527 1338.88 173.881 1340.7 176.989C1341.48 178.298 1342.32 179.559 1343.15 180.86C1342.72 182.476 1342.46 184.137 1342.38 185.811C1342.29 187.458 1342.49 189.109 1342.98 190.685C1343.41 192.03 1344.15 193.251 1345.15 194.243C1346.74 195.834 1348.69 196.701 1350.85 197.067C1352.5 197.348 1354 196.803 1355.38 195.916C1356.63 195.067 1357.73 194.007 1358.64 192.781C1360.64 190.192 1361.96 187.243 1363.06 184.173C1364.09 181.265 1364.7 178.235 1365.33 175.217C1365.81 172.902 1366.42 170.617 1367.16 168.376C1367.69 166.78 1368.21 165.178 1368.82 163.611C1370.03 160.467 1371.47 157.434 1373.38 154.648C1374.77 152.625 1376.33 150.773 1378.37 149.371C1379.64 148.463 1381.09 147.853 1382.62 147.585C1385.09 147.185 1387.37 147.762 1389.51 148.985C1390.6 149.65 1391.6 150.468 1392.47 151.416C1394.76 153.786 1396.64 156.478 1398.39 159.267C1401.54 164.386 1404.36 169.707 1406.82 175.194C1407.89 177.522 1408.9 179.878 1409.93 182.227C1410.06 182.558 1410.17 182.938 1410.37 183.514Z" fill="#88B9E4"/>
</svg>
