<?xml version="1.0" encoding="UTF-8" standalone="no"?>
<!DOCTYPE svg PUBLIC "-//W3C//DTD SVG 1.1//EN" "http://www.w3.org/Graphics/SVG/1.1/DTD/svg11.dtd">
<!-- Created with Vectornator (http://vectornator.io/) -->
<svg height="100%" stroke-miterlimit="10" style="fill-rule:nonzero;clip-rule:evenodd;stroke-linecap:round;stroke-linejoin:round;" version="1.1" viewBox="0 0 1080 1080" width="100%" xml:space="preserve" xmlns="http://www.w3.org/2000/svg" xmlns:vectornator="http://vectornator.io" xmlns:xlink="http://www.w3.org/1999/xlink">
<defs>
<filter color-interpolation-filters="sRGB" filterUnits="userSpaceOnUse" height="94.601" id="Filter" width="991.629" x="47.9041" y="196.689">
<feComponentTransfer in="SourceGraphic" result="Alpha">
<feFuncA slope="0" type="linear"/>
</feComponentTransfer>
<feDropShadow dx="-0.491932" dy="-2.63151" flood-color="#f8e567" flood-opacity="1" in="Alpha" result="Shadow" stdDeviation="5.99315"/>
<feGaussianBlur in="Shadow" result="Blur" stdDeviation="0.401048"/>
</filter>
<filter color-interpolation-filters="sRGB" filterUnits="userSpaceOnUse" height="307.327" id="Filter_2" width="745.133" x="159.758" y="207.343">
<feDropShadow dx="-0.33648" dy="-1.79995" flood-color="#1180cf" flood-opacity="1" in="SourceGraphic" result="Shadow" stdDeviation="7.66251"/>
</filter>
<filter color-interpolation-filters="sRGB" filterUnits="userSpaceOnUse" height="91.4084" id="Filter_3" width="784.401" x="143.983" y="208.767">
<feComponentTransfer in="SourceGraphic" result="Alpha">
<feFuncA slope="0" type="linear"/>
</feComponentTransfer>
<feDropShadow dx="-0.240212" dy="-1.28498" flood-color="#1180cf" flood-opacity="1" in="Alpha" result="Shadow" stdDeviation="8.56164"/>
<feGaussianBlur in="Shadow" result="Blur" stdDeviation="0.401048"/>
</filter>
<path d="M243.391 694.257C243.391 657.482 262.605 616.843 296.277 604.033C308.673 570.433 343.647 549.078 381.807 538.656C430.817 491.334 473.773 501.817 517.023 510.075C565.346 497.621 609.896 506.32 651.088 545.459C690.022 548.661 730.695 568.808 745.862 608.392C784.884 621.05 804.512 666.642 804.512 695.523C804.512 762.846 763.63 854.433 682.913 860.6C642.162 879.675 593.366 890.168 540 888.065C466.335 891.325 403.432 877.056 354.762 851.936C277.299 834.053 243.391 756.059 243.391 694.257Z" id="Fill"/>
</defs>
<g id="Layer-1" vectornator:layerName="Layer 1" visibility="hidden">
<path d="M252.989 626.34C252.989 468.206 381.62 340.012 540.293 340.012C698.967 340.012 827.597 468.206 827.597 626.34C827.597 784.474 698.967 912.667 540.293 912.667C381.62 912.667 252.989 784.474 252.989 626.34Z" fill="none" opacity="1" stroke="#749db3" stroke-linecap="butt" stroke-linejoin="round" stroke-width="20.23" vectornator:layerName="Oval 1"/>
<path d="M307.199 791.623C307.199 791.623 410.483 883.651 540.293 883.651C682.002 883.651 773.112 789.609 773.112 789.609C773.112 789.609 769.193 834.388 804.262 873.477C841.517 915.003 902.545 943.598 902.545 943.598L177.455 943.598C177.455 943.598 252.989 901.749 282.931 868.398C317.892 829.455 307.199 791.623 307.199 791.623Z" fill="#749db3" fill-rule="nonzero" opacity="1" stroke="none" vectornator:layerName="Rectangle 1"/>
<path d="M252.989 610.282C252.989 451.609 381.62 322.979 540.293 322.979C698.967 322.979 827.597 451.609 827.597 610.282C827.597 768.956 698.967 897.586 540.293 897.586C381.62 897.586 252.989 768.956 252.989 610.282Z" fill="none" opacity="1" stroke="#afcee0" stroke-linecap="butt" stroke-linejoin="round" stroke-width="20.23" vectornator:layerName="Oval 2"/>
<path d="M343.869 814.537C343.869 814.537 439.424 885.736 540.293 885.128C641.163 884.52 736.681 811.777 736.681 811.777C736.681 811.777 754.724 842.786 797.51 878.088C840.296 913.39 902.545 943.598 902.545 943.598L252.147 943.598L177.455 943.598C177.455 943.598 239.273 912.553 282.49 878.088C325.706 843.623 343.869 814.537 343.869 814.537Z" fill="#afcee0" fill-rule="nonzero" opacity="1" stroke="none" vectornator:layerName="Rectangle 2"/>
<path d="M177.455 943.598L902.545 943.598L902.545 990.061L177.455 990.061L177.455 943.598Z" fill="#749db3" fill-rule="nonzero" opacity="1" stroke="none" vectornator:layerName="Rectangle 3"/>
<g opacity="1" vectornator:layerName="Group 2">
<path d="M506.553 420.006L507.536 912.667" fill="none" opacity="1" stroke="#afcee0" stroke-linecap="butt" stroke-linejoin="round" stroke-width="21.5401" vectornator:layerName="Line 1"/>
<path d="M506.553 575.275L258.744 576.748" fill="none" opacity="1" stroke="#afcee0" stroke-linecap="butt" stroke-linejoin="round" stroke-width="13.2632" vectornator:layerName="Line 2"/>
<path d="M461.535 575.275L462.467 896.849" fill="none" opacity="1" stroke="#afcee0" stroke-linecap="butt" stroke-linejoin="round" stroke-width="13.2632" vectornator:layerName="Line 4"/>
<path d="M422.416 575.275L423.348 896.849" fill="none" opacity="1" stroke="#afcee0" stroke-linecap="butt" stroke-linejoin="round" stroke-width="13.2632" vectornator:layerName="Line 5"/>
<path d="M382.648 575.275L383.58 896.849" fill="none" opacity="1" stroke="#afcee0" stroke-linecap="butt" stroke-linejoin="round" stroke-width="13.2632" vectornator:layerName="Line 6"/>
<path d="M345.109 575.275L346.041 896.849" fill="none" opacity="1" stroke="#afcee0" stroke-linecap="butt" stroke-linejoin="round" stroke-width="13.2632" vectornator:layerName="Line 7"/>
<path d="M306.921 575.275L307.395 778.444" fill="none" opacity="1" stroke="#afcee0" stroke-linecap="butt" stroke-linejoin="round" stroke-width="13.2632" vectornator:layerName="Line 3"/>
<path d="M506.553 499.396C506.553 499.396 436.713 585.313 383.58 520.662C353.758 484.376 384.491 430.7 423.348 440.036C432.771 442.3 439.923 447.206 444.947 453.392C460.779 472.885 456.632 506.419 435.168 511.654C409.399 517.94 393.647 484.075 414.194 472.44" fill="none" opacity="1" stroke="#afcee0" stroke-linecap="round" stroke-linejoin="round" stroke-width="13.2632" vectornator:layerName="Line 8"/>
<path d="M500.781 392.919C499.577 400.165 510.973 403.288 518.351 397.993C526.73 391.979 528.138 379.944 514.25 371.585C502.533 364.531 469.476 372.554 472.191 402.385C474.49 427.65 510.19 428.357 510.19 428.357" fill="none" opacity="0.999293" stroke="#afcee0" stroke-linecap="round" stroke-linejoin="round" stroke-width="13.2632" vectornator:layerName="Line 9"/>
<path d="M329.413 507.797C337.765 507.776 346.201 498.62 337.765 489.253C330.074 480.713 310.237 482.566 300.281 496.087C289.586 510.612 299.832 533.365 318.17 533.62C340.661 533.933 339.281 518.039 363.267 518.718C383.497 519.29 394.435 541.35 381.51 554.813C371.729 565.002 355.732 565.139 352.503 554.813C350.218 547.508 359.876 540.083 359.876 540.083" fill="none" opacity="1" stroke="#afcee0" stroke-linecap="round" stroke-linejoin="round" stroke-width="13.2632" vectornator:layerName="Line 11"/>
<path d="M417.395 407.947C419.836 415.278 414.29 425.372 403.591 420.732C393.837 416.502 389.621 398.559 398.547 385.845C408.136 372.189 431.108 374.475 436.732 390.482C443.629 410.115 429.284 413.586 436.942 434.421C443.4 451.995 465.968 455.093 473.97 439.792C480.026 428.214 475.435 414.145 465.429 414.353C458.349 414.5 454.681 425.156 454.681 425.156" fill="none" opacity="1" stroke="#afcee0" stroke-linecap="round" stroke-linejoin="round" stroke-width="13.2632" vectornator:layerName="Line 10"/>
<path d="M513.412 640.928L535.412 640.928L535.412 721.579L513.412 721.579L513.412 640.928Z" fill="#afcee0" fill-rule="nonzero" opacity="1" stroke="none" vectornator:layerName="Rectangle 4"/>
</g>
<g opacity="1" vectornator:layerName="Group 3">
<path d="M574.557 420.006L573.575 912.667" fill="none" opacity="1" stroke="#afcee0" stroke-linecap="butt" stroke-linejoin="round" stroke-width="21.5401" vectornator:layerName="Line 1"/>
<path d="M574.557 575.275L822.367 576.748" fill="none" opacity="1" stroke="#afcee0" stroke-linecap="butt" stroke-linejoin="round" stroke-width="13.2632" vectornator:layerName="Line 2"/>
<path d="M619.575 575.275L618.644 896.849" fill="none" opacity="1" stroke="#afcee0" stroke-linecap="butt" stroke-linejoin="round" stroke-width="13.2632" vectornator:layerName="Line 4"/>
<path d="M658.694 575.275L657.763 896.849" fill="none" opacity="1" stroke="#afcee0" stroke-linecap="butt" stroke-linejoin="round" stroke-width="13.2632" vectornator:layerName="Line 5"/>
<path d="M698.462 575.275L697.531 896.849" fill="none" opacity="1" stroke="#afcee0" stroke-linecap="butt" stroke-linejoin="round" stroke-width="13.2632" vectornator:layerName="Line 6"/>
<path d="M736.001 575.275L735.07 896.849" fill="none" opacity="1" stroke="#afcee0" stroke-linecap="butt" stroke-linejoin="round" stroke-width="13.2632" vectornator:layerName="Line 7"/>
<path d="M774.189 575.275L773.446 774.424" fill="none" opacity="1" stroke="#afcee0" stroke-linecap="butt" stroke-linejoin="round" stroke-width="13.2632" vectornator:layerName="Line 3"/>
<path d="M574.557 499.396C574.557 499.396 644.397 585.313 697.531 520.662C727.352 484.376 696.619 430.7 657.763 440.036C648.34 442.3 641.188 447.206 636.164 453.392C620.332 472.885 624.478 506.419 645.943 511.654C671.711 517.94 687.464 484.075 666.917 472.44" fill="none" opacity="1" stroke="#afcee0" stroke-linecap="round" stroke-linejoin="round" stroke-width="13.2632" vectornator:layerName="Line 8"/>
<path d="M580.329 392.919C581.534 400.165 570.138 403.288 562.76 397.993C554.381 391.979 552.973 379.944 566.86 371.585C578.578 364.531 611.634 372.554 608.92 402.385C606.621 427.65 570.92 428.357 570.92 428.357" fill="none" opacity="0.999293" stroke="#afcee0" stroke-linecap="round" stroke-linejoin="round" stroke-width="13.2632" vectornator:layerName="Line 9"/>
<path d="M751.697 507.797C743.346 507.776 734.91 498.62 743.346 489.253C751.037 480.713 770.874 482.566 780.83 496.087C791.525 510.612 781.279 533.365 762.941 533.62C740.45 533.933 741.829 518.039 717.844 518.718C697.614 519.29 686.675 541.35 699.6 554.813C709.382 565.002 725.378 565.139 728.607 554.813C730.892 547.508 721.235 540.083 721.235 540.083" fill="none" opacity="1" stroke="#afcee0" stroke-linecap="round" stroke-linejoin="round" stroke-width="13.2632" vectornator:layerName="Line 11"/>
<path d="M663.715 407.947C661.275 415.278 666.82 425.372 677.52 420.732C687.273 416.502 691.49 398.559 682.563 385.845C672.974 372.189 650.002 374.475 644.379 390.482C637.481 410.115 651.827 413.586 644.169 434.421C637.71 451.995 615.142 455.093 607.14 439.792C601.085 428.214 605.675 414.145 615.682 414.353C622.762 414.5 626.43 425.156 626.43 425.156" fill="none" opacity="1" stroke="#afcee0" stroke-linecap="round" stroke-linejoin="round" stroke-width="13.2632" vectornator:layerName="Line 10"/>
<path d="M545.08 640.928L567.503 640.928L567.503 721.579L545.08 721.579L545.08 640.928Z" fill="#afcee0" fill-rule="nonzero" opacity="1" stroke="none" vectornator:layerName="Rectangle 5"/>
</g>
<g fill="#afcee0" filter="url(#Filter)" stroke="#f8e567" stroke-linecap="round" stroke-linejoin="round" stroke-width="1.32661" vectornator:blur="0.802096" vectornator:layerName="Text 1" vectornator:shadowAngle="4.52758" vectornator:shadowColor="#f8e567" vectornator:shadowOffset="2.6771" vectornator:shadowOpacity="1" vectornator:shadowRadius="11.9863">
<path d="M65.0449 276.262L65.0449 216.981L77.0144 216.981L77.0144 240.313L100.468 240.313L100.468 216.981L112.438 216.981L112.438 276.262L100.468 276.262L100.468 250.342L77.0144 250.342L77.0144 276.262L65.0449 276.262Z"/>
<path d="M124.448 276.262L124.448 216.981L136.417 216.981L136.417 276.262L124.448 276.262Z"/>
<path d="M147.78 216.981L169.657 216.981C174.59 216.981 178.351 217.358 180.939 218.113C184.417 219.137 187.396 220.957 189.876 223.572C192.356 226.187 194.243 229.388 195.537 233.176C196.831 236.964 197.478 241.634 197.478 247.188C197.478 252.067 196.872 256.272 195.658 259.804C194.176 264.117 192.059 267.609 189.31 270.277C187.234 272.299 184.43 273.876 180.899 275.009C178.257 275.844 174.725 276.262 170.304 276.262L147.78 276.262L147.78 216.981ZM159.75 227.009L159.75 266.274L168.687 266.274C172.029 266.274 174.442 266.085 175.925 265.708C177.866 265.223 179.477 264.4 180.757 263.241C182.038 262.082 183.082 260.175 183.891 257.519C184.7 254.864 185.104 251.245 185.104 246.662C185.104 242.079 184.7 238.561 183.891 236.108C183.082 233.654 181.95 231.74 180.494 230.365C179.039 228.991 177.192 228.061 174.954 227.575C173.283 227.198 170.007 227.009 165.128 227.009L159.75 227.009Z"/>
<path d="M207.588 216.981L229.464 216.981C234.398 216.981 238.158 217.358 240.746 218.113C244.224 219.137 247.203 220.957 249.683 223.572C252.163 226.187 254.05 229.388 255.344 233.176C256.638 236.964 257.285 241.634 257.285 247.188C257.285 252.067 256.679 256.272 255.466 259.804C253.983 264.117 251.867 267.609 249.117 270.277C247.041 272.299 244.237 273.876 240.706 275.009C238.064 275.844 234.532 276.262 230.111 276.262L207.588 276.262L207.588 216.981ZM219.557 227.009L219.557 266.274L228.494 266.274C231.837 266.274 234.249 266.085 235.732 265.708C237.673 265.223 239.284 264.4 240.564 263.241C241.845 262.082 242.89 260.175 243.698 257.519C244.507 254.864 244.911 251.245 244.911 246.662C244.911 242.079 244.507 238.561 243.698 236.108C242.89 233.654 241.757 231.74 240.302 230.365C238.846 228.991 236.999 228.061 234.762 227.575C233.09 227.198 229.815 227.009 224.935 227.009L219.557 227.009Z"/>
<path d="M267.435 276.262L267.435 216.981L311.391 216.981L311.391 227.009L279.405 227.009L279.405 240.151L309.167 240.151L309.167 250.139L279.405 250.139L279.405 266.274L312.523 266.274L312.523 276.262L267.435 276.262Z"/>
<path d="M322.794 276.262L322.794 216.981L334.44 216.981L358.703 256.569L358.703 216.981L369.823 216.981L369.823 276.262L357.813 276.262L333.915 237.604L333.915 276.262L322.794 276.262Z"/>
<path d="M443.42 254.466L455.025 258.146C453.246 264.616 450.287 269.421 446.149 272.562C442.011 275.703 436.761 277.273 430.399 277.273C422.527 277.273 416.057 274.584 410.989 269.206C405.921 263.828 403.387 256.475 403.387 247.147C403.387 237.28 405.934 229.617 411.029 224.158C416.124 218.699 422.824 215.97 431.127 215.97C438.379 215.97 444.269 218.113 448.798 222.399C451.494 224.933 453.516 228.573 454.864 233.317L443.015 236.148C442.314 233.075 440.852 230.649 438.628 228.869C436.404 227.09 433.701 226.2 430.52 226.2C426.126 226.2 422.561 227.777 419.824 230.932C417.088 234.086 415.72 239.194 415.72 246.257C415.72 253.752 417.068 259.09 419.764 262.271C422.46 265.452 425.964 267.042 430.278 267.042C433.459 267.042 436.195 266.031 438.486 264.01C440.778 261.988 442.422 258.807 443.42 254.466Z"/>
<path d="M464.933 276.262L464.933 216.981L476.902 216.981L476.902 276.262L464.933 276.262Z"/>
<path d="M501.65 276.262L501.65 227.009L484.06 227.009L484.06 216.981L531.169 216.981L531.169 227.009L513.619 227.009L513.619 276.262L501.65 276.262Z"/>
<path d="M554.461 276.262L554.461 251.312L532.746 216.981L546.778 216.981L560.729 240.434L574.397 216.981L588.186 216.981L566.391 251.393L566.391 276.262L554.461 276.262Z"/>
<path d="M615.28 276.262L615.28 216.981L627.249 216.981L627.249 276.262L615.28 276.262Z"/>
<path d="M638.774 276.262L638.774 216.981L650.42 216.981L674.683 256.569L674.683 216.981L685.803 216.981L685.803 276.262L673.793 276.262L649.894 237.604L649.894 276.262L638.774 276.262Z"/>
<path d="M729.88 276.262L715.727 216.981L727.979 216.981L736.916 257.701L747.753 216.981L761.987 216.981L772.38 258.389L781.478 216.981L793.529 216.981L779.133 276.262L766.436 276.262L754.628 231.943L742.86 276.262L729.88 276.262Z"/>
<path d="M799.635 276.262L799.635 216.981L843.591 216.981L843.591 227.009L811.604 227.009L811.604 240.151L841.366 240.151L841.366 250.139L811.604 250.139L811.604 266.274L844.723 266.274L844.723 276.262L799.635 276.262Z"/>
<path d="M854.913 276.262L854.913 216.981L866.883 216.981L866.883 240.313L890.336 240.313L890.336 216.981L902.306 216.981L902.306 276.262L890.336 276.262L890.336 250.342L866.883 250.342L866.883 276.262L854.913 276.262Z"/>
<path d="M914.68 276.262L914.68 216.981L958.636 216.981L958.636 227.009L926.649 227.009L926.649 240.151L956.412 240.151L956.412 250.139L926.649 250.139L926.649 266.274L959.768 266.274L959.768 276.262L914.68 276.262Z"/>
<path d="M1023.38 276.262L1010.36 276.262L1005.18 262.796L981.483 262.796L976.59 276.262L963.892 276.262L986.982 216.981L999.639 216.981L1023.38 276.262ZM1001.34 252.808L993.169 230.81L985.163 252.808L1001.34 252.808Z"/>
</g>
<g fill="#ffffff" filter="url(#Filter_2)" stroke="none" vectornator:layerName="Curve 1" vectornator:shadowAngle="4.52758" vectornator:shadowColor="#1180cf" vectornator:shadowOffset="1.83113" vectornator:shadowOpacity="1" vectornator:shadowRadius="15.325">
<path d="M188.91 447.86C190.676 442.791 193.786 441.032 198.24 442.584L236.719 455.986C241.173 457.538 242.518 460.848 240.752 465.917C238.987 470.986 235.877 472.744 231.422 471.193L218.212 466.592L214.601 476.96L227.811 481.561C232.265 483.113 233.61 486.423 231.844 491.492C230.079 496.561 226.969 498.32 222.514 496.768L184.036 483.366C179.581 481.815 178.237 478.504 180.002 473.435C181.768 468.367 184.878 466.608 189.333 468.159L202.312 472.68L205.923 462.312L192.944 457.791C188.489 456.239 187.145 452.929 188.91 447.86Z"/>
<path d="M246.285 438.12C250.508 440.222 251.423 443.675 249.032 448.481C246.64 453.286 243.333 454.638 239.11 452.536L202.633 434.382C198.41 432.28 197.494 428.827 199.886 424.021C202.277 419.216 205.584 417.864 209.807 419.966L246.285 438.12Z"/>
<path d="M267.286 417.294L258.197 430.881C255.212 435.343 251.76 436.262 247.839 433.639L213.973 410.983C210.053 408.36 209.585 404.818 212.569 400.357L221.659 386.77C227.504 379.885 235.065 377.506 244.339 379.633C248.721 380.543 252.675 382.177 256.202 384.536C259.728 386.895 262.736 389.919 265.227 393.607C270.733 401.368 271.419 409.263 267.286 417.294ZM247.481 396.657C238.881 390.937 232.343 391.178 227.867 397.381L226.239 399.815L253.278 417.903L254.973 415.515C258.578 408.664 256.081 402.378 247.481 396.657Z"/>
<path d="M297.585 380.058L286.315 391.899C282.615 395.787 279.056 396.105 275.639 392.853L246.125 364.762C242.708 361.51 242.85 357.94 246.55 354.052L257.82 342.211C264.753 336.421 272.608 335.364 281.385 339.04C285.548 340.682 289.166 342.966 292.239 345.891C295.313 348.816 297.762 352.307 299.588 356.365C303.693 364.95 303.025 372.848 297.585 380.058ZM281.582 356.35C274.082 349.249 267.599 348.374 262.132 353.725L260.113 355.845L283.677 378.273L285.755 376.208C290.474 370.071 289.083 363.451 281.582 356.35Z"/>
<path d="M336.09 346.267C339.371 343.685 339.679 340.7 337.013 337.313C334.347 333.926 331.374 333.523 328.093 336.105L319.082 343.197L314.052 336.806L321.785 330.72C325.066 328.138 325.365 325.143 322.682 321.735C320 318.326 317.018 317.913 313.738 320.495L306.004 326.581L301.126 320.382L310.137 313.29C313.418 310.708 313.725 307.723 311.059 304.336C308.393 300.949 305.42 300.546 302.14 303.128L286.801 315.2C282.583 318.519 281.933 322.032 284.85 325.739L310.049 357.758C312.967 361.464 316.534 361.658 320.752 358.338L336.09 346.267Z"/>
<path d="M357.229 297.048L348.544 281.966C346.19 277.878 347.339 274.495 351.99 271.816C356.642 269.138 360.144 269.842 362.498 273.93L382.831 309.239C385.185 313.327 384.037 316.71 379.385 319.389C376.801 320.877 374.243 321.161 371.711 320.241L345.351 310.645L354.077 325.798C356.431 329.886 355.282 333.269 350.63 335.947C345.979 338.626 342.476 337.921 340.122 333.834L319.789 298.525C317.448 294.46 318.597 291.077 323.235 288.375C326.205 286.633 328.898 286.366 331.313 287.571L357.229 297.048Z"/>
<path d="M453.248 281.68C453.824 283.545 452.987 286.116 450.736 289.393C448.485 292.67 443.332 295.553 435.276 298.041C427.221 300.529 419.816 300.07 413.062 296.666C406.307 293.262 401.678 287.506 399.175 279.399C396.671 271.292 397.231 263.919 400.855 257.281C404.48 250.643 410.378 246.062 418.55 243.538C426.723 241.015 432.617 240.485 436.233 241.95C439.849 243.415 441.947 245.087 442.527 246.965C443.107 248.843 443.001 250.705 442.21 252.553C441.418 254.4 440.278 255.554 438.789 256.014C437.299 256.474 434.766 256.632 431.189 256.488C427.613 256.345 425.021 256.521 423.415 257.017C414.712 259.705 411.757 265.569 414.548 274.608C417.34 283.648 423.088 286.824 431.791 284.136C433.397 283.64 435.636 282.325 438.509 280.189C441.382 278.053 443.563 276.755 445.052 276.295C446.542 275.835 448.134 276.145 449.829 277.225C451.525 278.304 452.664 279.789 453.248 281.68Z"/>
<path d="M474.045 281.147C474.947 285.777 472.764 288.605 467.495 289.632C462.227 290.658 459.142 288.857 458.239 284.227L450.445 244.234C449.543 239.604 451.726 236.776 456.995 235.749C462.263 234.722 465.349 236.524 466.251 241.154L474.045 281.147Z"/>
<path d="M505.103 242.24L508.416 277.054C508.863 281.749 506.414 284.351 501.071 284.86C495.727 285.368 492.832 283.275 492.385 278.579L489.073 243.765L480.977 244.535C476.659 244.946 474.295 243.006 473.887 238.715C473.479 234.424 475.434 232.073 479.752 231.662L512.056 228.589C516.374 228.178 518.737 230.118 519.145 234.409C519.553 238.7 517.598 241.051 513.28 241.462L505.103 242.24Z"/>
<path d="M553.699 246.228L563.282 234.798C566.074 231.457 569.082 229.864 572.304 230.018C575.526 230.172 577.644 231.148 578.657 232.947C579.671 234.746 580.144 236.343 580.078 237.737C580.011 239.132 579.444 240.78 578.376 242.684L560.772 263.501L560.132 276.905C559.907 281.616 557.114 283.844 551.752 283.588C546.391 283.332 543.822 280.848 544.047 276.137L544.687 262.733L529.472 240.348C528.59 238.352 528.183 236.657 528.249 235.262C528.316 233.868 528.939 232.323 530.119 230.629C531.299 228.935 533.501 228.165 536.723 228.319C539.945 228.473 542.787 230.345 545.248 233.937L553.699 246.228Z"/>
<path d="M617.635 285.515C616.666 290.132 613.555 291.889 608.302 290.786C603.049 289.684 600.907 286.824 601.876 282.208L610.245 242.331C611.214 237.715 614.325 235.958 619.578 237.06C624.831 238.163 626.973 241.022 626.004 245.639L617.635 285.515Z"/>
<path d="M661.024 273.804L666.363 257.239C667.81 252.75 671.088 251.328 676.197 252.975C681.306 254.621 683.137 257.689 681.69 262.179L669.191 300.96C667.744 305.449 664.466 306.871 659.357 305.224C656.519 304.31 654.59 302.606 653.571 300.112L642.973 274.138L637.609 290.781C636.162 295.271 632.884 296.692 627.775 295.046C622.666 293.399 620.835 290.331 622.282 285.841L634.781 247.06C636.22 242.597 639.498 241.175 644.615 242.796C647.9 243.826 649.907 245.641 650.636 248.24L661.024 273.804Z"/>
<path d="M727.115 340.354C724.276 338.605 723.149 335.652 723.736 331.492L725.167 319.862L715.426 326.376C711.907 328.73 708.745 329.043 705.941 327.316C703.136 325.589 701.935 322.589 702.337 318.316L711.457 280.858C711.936 278.892 712.615 277.193 713.496 275.762C714.378 274.331 715.797 273.254 717.753 272.533C719.709 271.811 722.083 272.326 724.873 274.076C727.664 275.826 728.598 278.614 727.675 282.439L722.977 301.704L730.581 296.644C734.071 294.336 737.236 294.056 740.075 295.804C742.915 297.553 744.067 300.49 743.531 304.618L742.367 313.643L757.523 300.817C760.524 298.271 763.422 297.843 766.218 299.532C769.013 301.222 770.538 303.116 770.79 305.213C771.043 307.311 770.728 309.075 769.847 310.506C768.966 311.937 767.762 313.298 766.237 314.587L736.825 339.552C733.191 341.835 729.954 342.102 727.115 340.354Z"/>
<path d="M766.943 371.741C770.092 374.482 773.081 374.227 775.911 370.975C778.741 367.724 778.582 364.728 775.432 361.987L766.783 354.459L772.122 348.324L779.545 354.785C782.694 357.526 785.692 357.26 788.54 353.988C791.388 350.717 791.237 347.71 788.088 344.969L780.665 338.509L785.844 332.558L794.494 340.087C797.643 342.828 800.633 342.572 803.463 339.321C806.292 336.07 806.133 333.074 802.984 330.333L788.261 317.518C784.212 313.994 780.639 314.011 777.542 317.569L750.792 348.303C747.695 351.862 748.171 355.403 752.22 358.927L766.943 371.741Z"/>
<path d="M838.892 368.556C842.418 372.604 842.402 376.177 838.845 379.275L808.12 406.036C804.563 409.134 801.021 408.659 797.496 404.611C793.971 400.564 793.987 396.991 797.544 393.893L808.092 384.705L800.881 376.426L790.333 385.613C786.776 388.711 783.234 388.237 779.709 384.189C776.184 380.141 776.199 376.569 779.757 373.47L810.482 346.71C814.039 343.612 817.58 344.087 821.105 348.134C824.631 352.182 824.615 355.755 821.058 358.853L810.693 367.88L817.904 376.159L828.269 367.132C831.826 364.034 835.367 364.509 838.892 368.556Z"/>
<path d="M819.484 436.745C821.744 440.255 824.686 440.844 828.31 438.511C831.934 436.177 832.616 433.255 830.356 429.745L824.149 420.103L830.987 415.701L836.314 423.975C838.574 427.485 841.527 428.066 845.174 425.718C848.821 423.37 849.515 420.441 847.255 416.931L841.928 408.657L848.561 404.386L854.769 414.028C857.028 417.538 859.971 418.127 863.595 415.794C867.219 413.46 867.901 410.538 865.641 407.028L855.075 390.617C852.169 386.103 848.734 385.124 844.767 387.677L810.508 409.734C806.542 412.287 806.012 415.82 808.918 420.334L819.484 436.745Z"/>
<path d="M857.213 461.882L864.568 454.904L854.445 455.458L857.213 461.882ZM840.596 456.202L836.176 456.424C832.243 456.614 829.651 455.258 828.401 452.358C827.151 449.458 827.145 446.995 828.384 444.971C829.622 442.946 830.951 441.628 832.37 441.017C833.789 440.405 835.317 440.116 836.954 440.148L877.269 441.017C881.32 441.102 884.027 442.725 885.39 445.887C886.752 449.048 886.073 452.131 883.352 455.133L856.331 485.11C855.216 486.358 853.949 487.288 852.53 487.899C851.111 488.511 849.254 488.588 846.961 488.13C844.668 487.671 842.885 485.967 841.614 483.017C840.343 480.067 841.126 477.227 843.965 474.499L847.162 471.438L840.596 456.202Z"/>
</g>
<g fill="#ffffff" filter="url(#Filter_3)" stroke="none" vectornator:blur="0.802096" vectornator:layerName="Text 2" vectornator:shadowAngle="4.52758" vectornator:shadowColor="#1180cf" vectornator:shadowOffset="1.30723" vectornator:shadowOpacity="1" vectornator:shadowRadius="17.1233">
<path d="M175.758 237.991L175.758 250.9L195.459 250.9L195.459 237.991C195.459 236.147 195.874 234.764 196.704 233.842C197.534 232.92 198.625 232.459 199.978 232.459C201.35 232.459 202.462 232.914 203.312 233.826C204.163 234.738 204.588 236.126 204.588 237.991L204.588 273.49C204.588 275.355 204.158 276.748 203.297 277.67C202.436 278.592 201.33 279.054 199.978 279.054C198.605 279.054 197.509 278.587 196.689 277.655C195.869 276.723 195.459 275.335 195.459 273.49L195.459 258.338L175.758 258.338L175.758 273.49C175.758 275.355 175.328 276.748 174.467 277.67C173.607 278.592 172.5 279.054 171.148 279.054C169.775 279.054 168.679 278.587 167.859 277.655C167.039 276.723 166.63 275.335 166.63 273.49L166.63 237.991C166.63 236.147 167.034 234.764 167.844 233.842C168.653 232.92 169.754 232.459 171.148 232.459C172.521 232.459 173.632 232.914 174.483 233.826C175.333 234.738 175.758 236.126 175.758 237.991Z"/>
<path d="M214.761 273.49L214.761 237.991C214.761 236.147 215.181 234.764 216.021 233.842C216.862 232.92 217.948 232.459 219.279 232.459C220.652 232.459 221.764 232.914 222.614 233.826C223.465 234.738 223.89 236.126 223.89 237.991L223.89 273.49C223.89 275.355 223.465 276.748 222.614 277.67C221.764 278.592 220.652 279.054 219.279 279.054C217.968 279.054 216.887 278.587 216.037 277.655C215.187 276.723 214.761 275.335 214.761 273.49Z"/>
<path d="M239.749 233.227L251.644 233.227C254.738 233.227 257.391 233.514 259.604 234.088C261.817 234.661 263.825 235.737 265.629 237.315C270.321 241.331 272.667 247.437 272.667 255.633C272.667 258.338 272.431 260.807 271.96 263.04C271.489 265.274 270.761 267.287 269.778 269.08C268.794 270.873 267.534 272.476 265.997 273.89C264.788 274.976 263.467 275.847 262.032 276.502C260.598 277.158 259.056 277.619 257.407 277.886C255.757 278.152 253.898 278.285 251.828 278.285L239.934 278.285C238.274 278.285 237.024 278.034 236.184 277.532C235.344 277.03 234.796 276.323 234.54 275.411C234.283 274.5 234.155 273.316 234.155 271.861L234.155 238.821C234.155 236.854 234.596 235.43 235.477 234.549C236.358 233.667 237.782 233.227 239.749 233.227ZM243.284 240.45L243.284 271.032L250.199 271.032C251.716 271.032 252.904 270.991 253.765 270.909C254.625 270.827 255.517 270.622 256.439 270.294C257.361 269.966 258.16 269.505 258.836 268.911C261.889 266.329 263.416 261.883 263.416 255.572C263.416 251.125 262.745 247.796 261.402 245.583C260.06 243.37 258.406 241.961 256.439 241.356C254.472 240.752 252.095 240.45 249.308 240.45L243.284 240.45Z"/>
<path d="M286.344 233.227L298.239 233.227C301.333 233.227 303.986 233.514 306.199 234.088C308.412 234.661 310.42 235.737 312.223 237.315C316.916 241.331 319.262 247.437 319.262 255.633C319.262 258.338 319.026 260.807 318.555 263.04C318.084 265.274 317.356 267.287 316.373 269.08C315.389 270.873 314.129 272.476 312.592 273.89C311.383 274.976 310.062 275.847 308.627 276.502C307.193 277.158 305.651 277.619 304.002 277.886C302.352 278.152 300.493 278.285 298.423 278.285L286.529 278.285C284.869 278.285 283.619 278.034 282.779 277.532C281.939 277.03 281.391 276.323 281.135 275.411C280.878 274.5 280.75 273.316 280.75 271.861L280.75 238.821C280.75 236.854 281.191 235.43 282.072 234.549C282.953 233.667 284.377 233.227 286.344 233.227ZM289.879 240.45L289.879 271.032L296.794 271.032C298.311 271.032 299.499 270.991 300.36 270.909C301.22 270.827 302.112 270.622 303.034 270.294C303.956 269.966 304.755 269.505 305.431 268.911C308.484 266.329 310.011 261.883 310.011 255.572C310.011 251.125 309.339 247.796 307.997 245.583C306.655 243.37 305.001 241.961 303.034 241.356C301.067 240.752 298.69 240.45 295.903 240.45L289.879 240.45Z"/>
<path d="M356.974 240.265L336.412 240.265L336.412 251.33L355.345 251.33C356.739 251.33 357.779 251.643 358.465 252.268C359.151 252.893 359.495 253.717 359.495 254.742C359.495 255.766 359.157 256.601 358.48 257.247C357.804 257.892 356.759 258.215 355.345 258.215L336.412 258.215L336.412 271.032L357.681 271.032C359.116 271.032 360.196 271.365 360.924 272.03C361.651 272.696 362.015 273.583 362.015 274.689C362.015 275.755 361.651 276.62 360.924 277.286C360.196 277.952 359.116 278.285 357.681 278.285L332.878 278.285C330.89 278.285 329.461 277.845 328.59 276.963C327.719 276.082 327.284 274.658 327.284 272.691L327.284 238.821C327.284 237.509 327.479 236.439 327.868 235.609C328.257 234.779 328.867 234.175 329.697 233.796C330.526 233.416 331.587 233.227 332.878 233.227L356.974 233.227C358.429 233.227 359.51 233.55 360.217 234.195C360.924 234.841 361.277 235.686 361.277 236.731C361.277 237.796 360.924 238.652 360.217 239.297C359.51 239.943 358.429 240.265 356.974 240.265Z"/>
<path d="M381.163 237.929L398.713 264.485L398.713 237.684C398.713 235.942 399.087 234.636 399.835 233.765C400.583 232.894 401.592 232.459 402.862 232.459C404.174 232.459 405.209 232.894 405.967 233.765C406.725 234.636 407.104 235.942 407.104 237.684L407.104 273.122C407.104 277.076 405.465 279.054 402.186 279.054C401.367 279.054 400.629 278.936 399.973 278.7C399.318 278.464 398.703 278.09 398.129 277.578C397.555 277.066 397.023 276.467 396.531 275.78C396.039 275.094 395.547 274.392 395.056 273.675L377.936 247.427L377.936 273.828C377.936 275.55 377.536 276.851 376.737 277.732C375.938 278.613 374.914 279.054 373.664 279.054C372.373 279.054 371.338 278.608 370.559 277.717C369.781 276.825 369.391 275.529 369.391 273.828L369.391 239.067C369.391 237.591 369.555 236.434 369.883 235.594C370.273 234.671 370.918 233.918 371.82 233.335C372.721 232.751 373.694 232.459 374.739 232.459C375.559 232.459 376.261 232.592 376.845 232.858C377.429 233.124 377.941 233.483 378.382 233.934C378.822 234.385 379.273 234.969 379.734 235.686C380.195 236.403 380.671 237.151 381.163 237.929Z"/>
<path d="M471.218 264.055C471.218 265.489 470.865 267.041 470.158 268.711C469.451 270.381 468.339 272.02 466.823 273.629C465.307 275.237 463.37 276.543 461.014 277.547C458.657 278.551 455.912 279.054 452.777 279.054C450.4 279.054 448.238 278.828 446.292 278.377C444.345 277.927 442.578 277.225 440.99 276.272C439.402 275.319 437.942 274.064 436.61 272.507C435.421 271.093 434.407 269.51 433.567 267.758C432.727 266.006 432.097 264.137 431.677 262.149C431.257 260.161 431.047 258.051 431.047 255.817C431.047 252.191 431.574 248.943 432.63 246.074C433.685 243.206 435.196 240.752 437.163 238.713C439.13 236.674 441.435 235.122 444.079 234.057C446.722 232.991 449.539 232.459 452.531 232.459C456.178 232.459 459.426 233.186 462.274 234.641C465.122 236.096 467.304 237.894 468.821 240.035C470.337 242.176 471.095 244.199 471.095 246.105C471.095 247.15 470.726 248.072 469.989 248.871C469.251 249.67 468.36 250.07 467.315 250.07C466.147 250.07 465.271 249.793 464.687 249.24C464.103 248.687 463.452 247.734 462.735 246.382C461.547 244.148 460.148 242.478 458.54 241.372C456.931 240.265 454.949 239.712 452.592 239.712C448.843 239.712 445.856 241.136 443.633 243.984C441.41 246.832 440.298 250.879 440.298 256.125C440.298 259.629 440.79 262.543 441.773 264.869C442.757 267.195 444.15 268.931 445.953 270.079C447.757 271.226 449.867 271.8 452.285 271.8C454.908 271.8 457.126 271.149 458.939 269.848C460.753 268.547 462.12 266.636 463.042 264.116C463.432 262.928 463.913 261.959 464.487 261.212C465.061 260.464 465.983 260.09 467.253 260.09C468.339 260.09 469.271 260.469 470.05 261.227C470.829 261.985 471.218 262.928 471.218 264.055Z"/>
<path d="M479.793 273.49L479.793 237.991C479.793 236.147 480.213 234.764 481.053 233.842C481.893 232.92 482.979 232.459 484.311 232.459C485.684 232.459 486.796 232.914 487.646 233.826C488.496 234.738 488.922 236.126 488.922 237.991L488.922 273.49C488.922 275.355 488.496 276.748 487.646 277.67C486.796 278.592 485.684 279.054 484.311 279.054C483 279.054 481.919 278.587 481.069 277.655C480.218 276.723 479.793 275.335 479.793 273.49Z"/>
<path d="M528.386 240.757L518.428 240.757L518.428 273.49C518.428 275.375 518.008 276.774 517.168 277.686C516.327 278.598 515.241 279.054 513.91 279.054C512.557 279.054 511.456 278.592 510.606 277.67C509.755 276.748 509.33 275.355 509.33 273.49L509.33 240.757L499.372 240.757C497.814 240.757 496.657 240.414 495.899 239.727C495.14 239.041 494.761 238.134 494.761 237.007C494.761 235.839 495.156 234.917 495.945 234.241C496.734 233.565 497.876 233.227 499.372 233.227L528.386 233.227C529.964 233.227 531.137 233.575 531.905 234.272C532.674 234.969 533.058 235.88 533.058 237.007C533.058 238.134 532.668 239.041 531.89 239.727C531.111 240.414 529.943 240.757 528.386 240.757Z"/>
<path d="M548.518 273.49L548.518 259.198L537.514 242.14C536.551 240.603 535.87 239.405 535.471 238.544C535.071 237.684 534.871 236.936 534.871 236.3C534.871 235.255 535.276 234.354 536.085 233.596C536.895 232.838 537.893 232.459 539.082 232.459C540.332 232.459 541.28 232.812 541.925 233.519C542.57 234.226 543.539 235.635 544.829 237.745L553.251 251.422L561.765 237.745C562.277 236.905 562.707 236.198 563.056 235.624C563.404 235.051 563.788 234.513 564.208 234.011C564.628 233.509 565.094 233.124 565.607 232.858C566.119 232.592 566.744 232.459 567.481 232.459C568.629 232.459 569.587 232.832 570.355 233.58C571.124 234.328 571.508 235.194 571.508 236.178C571.508 236.977 571.313 237.776 570.924 238.575C570.535 239.374 569.869 240.481 568.926 241.894L557.646 259.198L557.646 273.49C557.646 275.355 557.216 276.748 556.355 277.67C555.495 278.592 554.398 279.054 553.067 279.054C551.714 279.054 550.618 278.598 549.778 277.686C548.938 276.774 548.518 275.375 548.518 273.49Z"/>
<path d="M593.914 273.49L593.914 237.991C593.914 236.147 594.334 234.764 595.174 233.842C596.014 232.92 597.1 232.459 598.432 232.459C599.805 232.459 600.917 232.914 601.767 233.826C602.617 234.738 603.042 236.126 603.042 237.991L603.042 273.49C603.042 275.355 602.617 276.748 601.767 277.67C600.917 278.592 599.805 279.054 598.432 279.054C597.121 279.054 596.04 278.587 595.19 277.655C594.339 276.723 593.914 275.335 593.914 273.49Z"/>
<path d="M625.141 237.929L642.691 264.485L642.691 237.684C642.691 235.942 643.065 234.636 643.813 233.765C644.561 232.894 645.57 232.459 646.84 232.459C648.152 232.459 649.187 232.894 649.945 233.765C650.703 234.636 651.082 235.942 651.082 237.684L651.082 273.122C651.082 277.076 649.443 279.054 646.164 279.054C645.345 279.054 644.607 278.936 643.951 278.7C643.296 278.464 642.681 278.09 642.107 277.578C641.533 277.066 641.001 276.467 640.509 275.78C640.017 275.094 639.525 274.392 639.034 273.675L621.914 247.427L621.914 273.828C621.914 275.55 621.514 276.851 620.715 277.732C619.916 278.613 618.892 279.054 617.642 279.054C616.351 279.054 615.316 278.608 614.537 277.717C613.759 276.825 613.37 275.529 613.37 273.828L613.37 239.067C613.37 237.591 613.533 236.434 613.861 235.594C614.251 234.671 614.896 233.918 615.798 233.335C616.699 232.751 617.673 232.459 618.718 232.459C619.537 232.459 620.239 232.592 620.823 232.858C621.407 233.124 621.919 233.483 622.36 233.934C622.8 234.385 623.251 234.969 623.712 235.686C624.173 236.403 624.649 237.151 625.141 237.929Z"/>
<path d="M708.711 271.185L701.427 244.169L694.05 271.185C693.476 273.234 693.02 274.704 692.682 275.596C692.344 276.487 691.755 277.286 690.915 277.993C690.075 278.7 688.958 279.054 687.565 279.054C686.438 279.054 685.511 278.843 684.783 278.423C684.056 278.003 683.467 277.409 683.016 276.641C682.565 275.872 682.196 274.961 681.91 273.905C681.623 272.85 681.367 271.872 681.141 270.97L673.642 240.634C673.191 238.872 672.966 237.53 672.966 236.608C672.966 235.44 673.375 234.456 674.195 233.657C675.015 232.858 676.029 232.459 677.238 232.459C678.898 232.459 680.014 232.991 680.588 234.057C681.162 235.122 681.664 236.669 682.094 238.698L687.995 265.007L694.603 240.388C695.095 238.503 695.536 237.069 695.925 236.085C696.314 235.102 696.95 234.251 697.831 233.534C698.712 232.817 699.91 232.459 701.427 232.459C702.963 232.459 704.157 232.832 705.007 233.58C705.858 234.328 706.447 235.143 706.775 236.024C707.102 236.905 707.543 238.36 708.096 240.388L714.766 265.007L720.667 238.698C720.954 237.325 721.225 236.249 721.482 235.471C721.738 234.692 722.178 233.995 722.803 233.381C723.428 232.766 724.335 232.459 725.523 232.459C726.712 232.459 727.721 232.853 728.551 233.642C729.381 234.431 729.795 235.419 729.795 236.608C729.795 237.448 729.57 238.79 729.119 240.634L721.62 270.97C721.108 273.019 720.682 274.52 720.344 275.473C720.006 276.426 719.432 277.261 718.623 277.978C717.814 278.695 716.671 279.054 715.196 279.054C713.803 279.054 712.686 278.705 711.846 278.009C711.006 277.312 710.422 276.528 710.094 275.657C709.766 274.786 709.305 273.296 708.711 271.185Z"/>
<path d="M765.541 240.265L744.979 240.265L744.979 251.33L763.912 251.33C765.305 251.33 766.345 251.643 767.031 252.268C767.718 252.893 768.061 253.717 768.061 254.742C768.061 255.766 767.723 256.601 767.047 257.247C766.371 257.892 765.326 258.215 763.912 258.215L744.979 258.215L744.979 271.032L766.248 271.032C767.682 271.032 768.763 271.365 769.49 272.03C770.218 272.696 770.581 273.583 770.581 274.689C770.581 275.755 770.218 276.62 769.49 277.286C768.763 277.952 767.682 278.285 766.248 278.285L741.444 278.285C739.457 278.285 738.027 277.845 737.157 276.963C736.286 276.082 735.85 274.658 735.85 272.691L735.85 238.821C735.85 237.509 736.045 236.439 736.434 235.609C736.824 234.779 737.433 234.175 738.263 233.796C739.093 233.416 740.153 233.227 741.444 233.227L765.541 233.227C766.996 233.227 768.076 233.55 768.783 234.195C769.49 234.841 769.844 235.686 769.844 236.731C769.844 237.796 769.49 238.652 768.783 239.297C768.076 239.943 766.996 240.265 765.541 240.265Z"/>
<path d="M787.025 237.991L787.025 250.9L806.726 250.9L806.726 237.991C806.726 236.147 807.141 234.764 807.971 233.842C808.801 232.92 809.892 232.459 811.244 232.459C812.617 232.459 813.729 232.914 814.579 233.826C815.43 234.738 815.855 236.126 815.855 237.991L815.855 273.49C815.855 275.355 815.424 276.748 814.564 277.67C813.703 278.592 812.597 279.054 811.244 279.054C809.872 279.054 808.775 278.587 807.956 277.655C807.136 276.723 806.726 275.335 806.726 273.49L806.726 258.338L787.025 258.338L787.025 273.49C787.025 275.355 786.595 276.748 785.734 277.67C784.873 278.592 783.767 279.054 782.415 279.054C781.042 279.054 779.945 278.587 779.126 277.655C778.306 276.723 777.896 275.335 777.896 273.49L777.896 237.991C777.896 236.147 778.301 234.764 779.111 233.842C779.92 232.92 781.021 232.459 782.415 232.459C783.787 232.459 784.899 232.914 785.749 233.826C786.6 234.738 787.025 236.126 787.025 237.991Z"/>
<path d="M855.35 240.265L834.788 240.265L834.788 251.33L853.721 251.33C855.114 251.33 856.154 251.643 856.841 252.268C857.527 252.893 857.87 253.717 857.87 254.742C857.87 255.766 857.532 256.601 856.856 257.247C856.18 257.892 855.135 258.215 853.721 258.215L834.788 258.215L834.788 271.032L856.057 271.032C857.491 271.032 858.572 271.365 859.299 272.03C860.027 272.696 860.39 273.583 860.39 274.689C860.39 275.755 860.027 276.62 859.299 277.286C858.572 277.952 857.491 278.285 856.057 278.285L831.253 278.285C829.266 278.285 827.836 277.845 826.966 276.963C826.095 276.082 825.659 274.658 825.659 272.691L825.659 238.821C825.659 237.509 825.854 236.439 826.243 235.609C826.633 234.779 827.242 234.175 828.072 233.796C828.902 233.416 829.962 233.227 831.253 233.227L855.35 233.227C856.805 233.227 857.886 233.55 858.592 234.195C859.299 234.841 859.653 235.686 859.653 236.731C859.653 237.796 859.299 238.652 858.592 239.297C857.886 239.943 856.805 240.265 855.35 240.265Z"/>
<path d="M896.474 273.183L894.322 267.528L876.004 267.528L873.853 273.306C873.012 275.56 872.295 277.081 871.701 277.87C871.107 278.659 870.134 279.054 868.781 279.054C867.634 279.054 866.62 278.633 865.738 277.793C864.857 276.953 864.417 276 864.417 274.935C864.417 274.32 864.519 273.685 864.724 273.029C864.929 272.374 865.267 271.462 865.738 270.294L877.264 241.034C877.592 240.194 877.986 239.184 878.448 238.006C878.909 236.828 879.4 235.85 879.923 235.071C880.445 234.292 881.132 233.662 881.982 233.181C882.832 232.699 883.883 232.459 885.132 232.459C886.403 232.459 887.463 232.699 888.314 233.181C889.164 233.662 889.85 234.282 890.373 235.04C890.895 235.798 891.336 236.613 891.695 237.484C892.053 238.355 892.509 239.517 893.062 240.972L904.834 270.048C905.756 272.261 906.217 273.869 906.217 274.873C906.217 275.918 905.782 276.876 904.911 277.747C904.04 278.618 902.99 279.054 901.76 279.054C901.043 279.054 900.429 278.925 899.916 278.669C899.404 278.413 898.974 278.065 898.625 277.624C898.277 277.184 897.903 276.508 897.504 275.596C897.104 274.684 896.761 273.88 896.474 273.183ZM878.401 260.674L891.864 260.674L885.071 242.079L878.401 260.674Z"/>
</g>
<path d="M243.076 597.157C243.076 597.157 235.423 626.164 245.285 644.167C251.553 655.609 262.974 663.314 269.369 674.646C281.535 696.207 252.989 702.669 258.744 725.127C265.538 751.643 298.534 748.307 298.534 748.307" fill="none" opacity="1" stroke="#516b33" stroke-linecap="round" stroke-linejoin="round" stroke-width="7.12279" vectornator:layerName="Line 1"/>
<path d="M220.724 562.874C220.724 562.874 235.372 565.361 242.424 575.842C249.477 586.322 246.263 600.828 246.263 600.828C246.263 600.828 231.615 598.341 224.563 587.861C217.51 577.38 220.724 562.874 220.724 562.874Z" fill="#638656" fill-rule="nonzero" opacity="1" stroke="none" vectornator:layerName="Oval 3"/>
<path d="M274.93 671.404C277.775 665.592 285.257 663.415 285.257 663.415C285.257 663.415 288.125 670.66 285.279 676.472C282.434 682.283 274.952 684.46 274.952 684.46C274.952 684.46 272.084 677.215 274.93 671.404Z" fill="#638656" fill-rule="nonzero" opacity="1" stroke="none" vectornator:layerName="Oval 4"/>
<path d="M232.337 704.384C232.337 704.384 241.015 701.551 247.45 705.33C253.884 709.108 255.638 718.066 255.638 718.066C255.638 718.066 246.96 720.899 240.526 717.121C234.091 713.343 232.337 704.384 232.337 704.384Z" fill="#638656" fill-rule="nonzero" opacity="1" stroke="none" vectornator:layerName="Oval 5"/>
<path d="M249.038 729.721C249.038 729.721 247.54 725.421 249.34 722.086C251.14 718.75 255.557 717.642 255.557 717.642C255.557 717.642 257.055 721.942 255.255 725.278C253.455 728.613 249.038 729.721 249.038 729.721Z" fill="#638656" fill-rule="nonzero" opacity="1" stroke="none" vectornator:layerName="Oval 6"/>
<path d="M229.803 577.217L243.988 600.828" fill="none" opacity="1" stroke="#516b33" stroke-linecap="round" stroke-linejoin="round" stroke-width="4.282" vectornator:layerName="Line 3"/>
<path d="M241.652 709.818L255.638 717.642" fill="none" opacity="1" stroke="#516b33" stroke-linecap="round" stroke-linejoin="round" stroke-width="2.36041" vectornator:layerName="Line 4"/>
<path d="M251.635 725.164L256.141 717.642" fill="none" opacity="1" stroke="#516b33" stroke-linecap="round" stroke-linejoin="round" stroke-width="1.44787" vectornator:layerName="Line 5"/>
<path d="M281.707 669.662L274.81 684.46" fill="none" opacity="1" stroke="#516b33" stroke-linecap="round" stroke-linejoin="round" stroke-width="2.06335" vectornator:layerName="Line 6"/>
<path d="M269.39 490.371C269.39 490.371 300.571 488.242 313.086 470.41C325.602 452.578 309.571 421.513 328.321 402.748C347.063 383.991 384.796 396.304 384.796 396.304" fill="none" opacity="1" stroke="#516b33" stroke-linecap="round" stroke-linejoin="round" stroke-width="7.12279" vectornator:layerName="Line 7"/>
<path d="M242.519 507.513C242.519 507.513 243.524 496.183 251.047 490.442C258.57 484.701 269.763 486.722 269.763 486.722C269.763 486.722 268.759 498.052 261.235 503.793C253.712 509.534 242.519 507.513 242.519 507.513Z" fill="#638656" fill-rule="nonzero" opacity="1" stroke="none" vectornator:layerName="Oval 7"/>
<path d="M387.782 384.328C392.075 378.009 400.635 376.338 400.635 376.338C400.635 376.338 402.234 384.912 397.94 391.23C393.647 397.549 385.088 399.22 385.088 399.22C385.088 399.22 383.489 390.646 387.782 384.328Z" fill="#638656" fill-rule="nonzero" opacity="1" stroke="none" vectornator:layerName="Oval 8"/>
<path d="M380.427 406.219C381.47 400.914 386.686 397.473 386.686 397.473C386.686 397.473 390.209 402.633 389.166 407.938C388.122 413.243 382.906 416.684 382.906 416.684C382.906 416.684 379.383 411.524 380.427 406.219Z" fill="#638656" fill-rule="nonzero" opacity="1" stroke="none" vectornator:layerName="Oval 9"/>
<path d="M315.937 466.816C315.937 466.816 318.97 459.956 325.132 457.456C331.293 454.955 338.249 457.762 338.249 457.762C338.249 457.762 335.216 464.622 329.054 467.122C322.893 469.622 315.937 466.816 315.937 466.816Z" fill="#638656" fill-rule="nonzero" opacity="1" stroke="none" vectornator:layerName="Oval 10"/>
<path d="M251.635 499.924L269.39 488.263" fill="none" opacity="1" stroke="#516b33" stroke-linecap="round" stroke-linejoin="round" stroke-width="2.81119" vectornator:layerName="Line 8"/>
<path d="M395.181 384.17L385.523 398.178" fill="none" opacity="1" stroke="#516b33" stroke-linecap="round" stroke-linejoin="round" stroke-width="2.28046" vectornator:layerName="Line 9"/>
<path d="M383.807 410.706L385.523 399.22" fill="none" opacity="1" stroke="#516b33" stroke-linecap="round" stroke-linejoin="round" stroke-width="1.46492" vectornator:layerName="Line 10"/>
<path d="M331.127 460.903L315.937 466.781" fill="none" opacity="1" stroke="#516b33" stroke-linecap="round" stroke-linejoin="round" stroke-width="2.08369" vectornator:layerName="Line 11"/>
<path d="M179.663 945.273C179.663 945.273 193.883 966.829 222.366 966.829C251.776 966.829 252.297 949.035 269.39 943.598C286.889 938.032 291.412 968.983 331.127 982.358C363.493 993.259 409.052 990.061 409.052 990.061" fill="none" opacity="1" stroke="#516b33" stroke-linecap="round" stroke-linejoin="round" stroke-width="7.12279" vectornator:layerName="Line 12"/>
<path d="M140.077 933.928C140.077 933.928 152.738 925.707 164.626 929.006C176.514 932.305 183.127 945.875 183.127 945.875C183.127 945.875 170.467 954.096 158.579 950.797C146.691 947.498 140.077 933.928 140.077 933.928Z" fill="#638656" fill-rule="nonzero" opacity="1" stroke="none" vectornator:layerName="Oval 11"/>
<path d="M179.228 932.418C180.761 925.55 187.911 921.302 187.911 921.302C187.911 921.302 192.575 928.188 191.042 935.055C189.508 941.922 182.359 946.17 182.359 946.17C182.359 946.17 177.695 939.285 179.228 932.418Z" fill="#638656" fill-rule="nonzero" opacity="1" stroke="none" vectornator:layerName="Oval 12"/>
<path d="M274.133 941.241C274.133 941.241 278.929 931.012 288.22 927.609C297.512 924.206 307.78 928.918 307.78 928.918C307.78 928.918 302.984 939.147 293.692 942.55C284.401 945.953 274.133 941.241 274.133 941.241Z" fill="#638656" fill-rule="nonzero" opacity="1" stroke="none" vectornator:layerName="Oval 13"/>
<path d="M421.403 1001.28C411.483 999.445 405.023 989.419 405.023 989.419C405.023 989.419 414.647 982.376 424.567 984.215C434.488 986.054 440.947 996.079 440.947 996.079C440.947 996.079 431.323 1003.12 421.403 1001.28Z" fill="#638656" fill-rule="nonzero" opacity="1" stroke="none" vectornator:layerName="Oval 14"/>
<path d="M320.985 1001.45C320.985 1001.45 322.039 993.411 327.64 989.158C333.242 984.904 341.269 986.046 341.269 986.046C341.269 986.046 340.214 994.085 334.613 998.339C329.012 1002.59 320.985 1001.45 320.985 1001.45Z" fill="#638656" fill-rule="nonzero" opacity="1" stroke="none" vectornator:layerName="Oval 15"/>
<path d="M154.385 937.292L181.871 946.17" fill="none" opacity="1" stroke="#516b33" stroke-linecap="round" stroke-linejoin="round" stroke-width="3.74835" vectornator:layerName="Line 13"/>
<path d="M185.135 930.603L181.871 946.17" fill="none" opacity="1" stroke="#516b33" stroke-linecap="round" stroke-linejoin="round" stroke-width="2.78755" vectornator:layerName="Line 14"/>
<path d="M294.358 933.736L273.671 941.731" fill="none" opacity="1" stroke="#516b33" stroke-linecap="round" stroke-linejoin="round" stroke-width="3.62048" vectornator:layerName="Line 15"/>
<path d="M327.093 995.766L341.269 985.907" fill="none" opacity="1" stroke="#516b33" stroke-linecap="round" stroke-linejoin="round" stroke-width="2.56954" vectornator:layerName="Line 16"/>
<path d="M429.023 993.748L405.023 990.061" fill="none" opacity="1" stroke="#516b33" stroke-linecap="round" stroke-linejoin="round" stroke-width="3.74835" vectornator:layerName="Line 17"/>
<path d="M647.647 859.842C647.647 859.842 673.895 897.586 715.328 897.586C746.532 897.586 753.031 866.603 779.825 866.603C810.061 866.603 830 897.586 830 897.586" fill="none" opacity="1" stroke="#516b33" stroke-linecap="round" stroke-linejoin="round" stroke-width="7.12191" vectornator:layerName="Line 18"/>
<path d="M842.807 883.828C852.873 879.713 864.962 885.988 864.962 885.988C864.962 885.988 860.73 898.934 850.663 903.049C840.597 907.163 828.509 900.888 828.509 900.888C828.509 900.888 832.741 887.942 842.807 883.828Z" fill="#638656" fill-rule="nonzero" opacity="1" stroke="none" vectornator:layerName="Oval 18"/>
<path d="M629.617 848.7C629.617 848.7 630.326 848.7 631.2 848.7C632.074 848.7 632.783 848.7 632.783 848.7C632.783 848.7 632.074 848.7 631.2 848.7C630.326 848.7 629.617 848.7 629.617 848.7Z" fill="#afcee0" fill-rule="nonzero" opacity="1" stroke="none" vectornator:layerName="Oval 16"/>
<path d="M626.624 849.092C626.624 849.092 634.38 846.258 641.333 849.119C648.286 851.979 651.803 859.45 651.803 859.45C651.803 859.45 644.047 862.284 637.094 859.423C630.141 856.563 626.624 849.092 626.624 849.092Z" fill="#638656" fill-rule="nonzero" opacity="1" stroke="none" vectornator:layerName="Oval 17"/>
<path d="M729.414 901.723C731.065 896.967 736.973 894.698 736.973 894.698C736.973 894.698 740.206 900.139 738.556 904.895C736.906 909.651 730.997 911.92 730.997 911.92C730.997 911.92 727.764 906.478 729.414 901.723Z" fill="#638656" fill-rule="nonzero" opacity="1" stroke="none" vectornator:layerName="Oval 19"/>
<path d="M796.806 859.437C800.916 857.162 806.096 858.657 806.096 858.657C806.096 858.657 804.613 863.84 800.503 866.115C796.394 868.39 791.214 866.896 791.214 866.896C791.214 866.896 792.697 861.712 796.806 859.437Z" fill="#638656" fill-rule="nonzero" opacity="1" stroke="none" vectornator:layerName="Oval 20"/>
<path d="M852.395 891.119L830 899.44" fill="none" opacity="1" stroke="#516b33" stroke-linecap="round" stroke-linejoin="round" stroke-width="4.28132" vectornator:layerName="Line 19"/>
<path d="M800.254 861.777L791.214 867.378" fill="none" opacity="1" stroke="#516b33" stroke-linecap="round" stroke-linejoin="round" stroke-width="1.52873" vectornator:layerName="Line 20"/>
<path d="M732.868 905.955L736.769 893.438" fill="none" opacity="1" stroke="#516b33" stroke-linecap="round" stroke-linejoin="round" stroke-width="1.9683" vectornator:layerName="Line 21"/>
<path d="M635.472 852.7L650.705 859.842" fill="none" opacity="1" stroke="#516b33" stroke-linecap="round" stroke-linejoin="round" stroke-width="2.46334" vectornator:layerName="Line 22"/>
<path d="M806.096 480.652C806.096 480.652 789.182 501.316 795.734 524.716C803.175 551.295 842.112 557.273 835.848 589.023C833.518 600.828 822.367 604.62 816.756 626.34C808.713 657.477 834.727 656.97 834.727 656.97" fill="none" opacity="1" stroke="#516b33" stroke-linecap="round" stroke-linejoin="round" stroke-width="7.12191" vectornator:layerName="Line 23"/>
<path d="M800.254 466.781C800.254 457.987 808.389 450.859 808.389 450.859C808.389 450.859 816.525 457.987 816.525 466.781C816.525 475.574 808.389 482.703 808.389 482.703C808.389 482.703 800.254 475.574 800.254 466.781Z" fill="#638656" fill-rule="nonzero" opacity="1" stroke="none" vectornator:layerName="Oval 21"/>
<path d="M840.21 611.111C834.243 602.709 837.319 590.279 837.319 590.279C837.319 590.279 850.069 591.471 856.035 599.873C862.002 608.275 858.926 620.705 858.926 620.705C858.926 620.705 846.176 619.513 840.21 611.111Z" fill="#638656" fill-rule="nonzero" opacity="1" stroke="none" vectornator:layerName="Oval 22"/>
<path d="M835.733 665.463C833.583 660.349 836.713 654.155 836.713 654.155C836.713 654.155 843.328 656.253 845.477 661.367C847.627 666.482 844.498 672.676 844.498 672.676C844.498 672.676 837.883 670.578 835.733 665.463Z" fill="#638656" fill-rule="nonzero" opacity="1" stroke="none" vectornator:layerName="Oval 23"/>
<path d="M800.259 612.307C800.259 612.307 799.948 619.091 803.921 623.729C807.893 628.367 814.644 629.102 814.644 629.102C814.644 629.102 814.954 622.319 810.982 617.681C807.01 613.043 800.259 612.307 800.259 612.307Z" fill="#638656" fill-rule="nonzero" opacity="1" stroke="none" vectornator:layerName="Oval 24"/>
<path d="M808.389 460.903L807.451 481.901" fill="none" opacity="1" stroke="#516b33" stroke-linecap="round" stroke-linejoin="round" stroke-width="2.787" vectornator:layerName="Line 24"/>
<path d="M852.395 612.307L836.527 590.279" fill="none" opacity="1" stroke="#516b33" stroke-linecap="round" stroke-linejoin="round" stroke-width="3.61985" vectornator:layerName="Line 26"/>
<path d="M841.948 665.839L836.527 655.11" fill="none" opacity="1" stroke="#516b33" stroke-linecap="round" stroke-linejoin="round" stroke-width="1.87595" vectornator:layerName="Line 27"/>
<path d="M806.096 618.392L814.649 629.102" fill="none" opacity="1" stroke="#516b33" stroke-linecap="round" stroke-linejoin="round" stroke-width="1.87595" vectornator:layerName="Line 28"/>
</g>
<g id="Layer-2" vectornator:layerName="Layer 2" visibility="hidden">
<use fill="#ef842a" fill-rule="nonzero" opacity="1" stroke="none" vectornator:layerName="Oval 1" xlink:href="#Fill"/>
<clipPath clip-rule="nonzero" id="ClipPath">
<use xlink:href="#Fill"/>
</clipPath>
<g clip-path="url(#ClipPath)">
<path d="M421.711 600.187C421.711 600.187 377.003 600.571 338.437 610.615C316.44 616.343 292.019 619.515 278.401 632.331C240.173 668.307 252.298 704.94 281.509 707.993C296.182 709.527 350.483 665.873 350.483 665.873C350.483 665.873 302.214 703.768 300.142 717.959C294.266 758.211 329.74 807.947 355.622 789.036C373.501 775.973 366.171 738.849 385.915 698.819C408.591 652.844 438.775 640.313 438.775 640.313C438.775 640.313 406.936 668.73 393.956 710.91C383.346 745.388 393.27 776.771 400.474 795.864C416.491 838.314 456.818 848.084 492.864 834.938C506.763 829.869 508.951 777.489 514.182 718.578C518.251 672.758 523.952 636.443 523.952 636.443C523.952 636.443 529.257 674.167 530.873 719.734C532.663 770.221 521.632 809.755 540 824.531C574.946 852.644 629.202 836.742 650.235 802.445C661.025 784.848 667.531 756.508 657.382 715.139C647.233 673.771 609.639 636.971 609.639 636.971C609.639 636.971 640.194 652.921 665.235 689.881C690.277 726.841 690.588 783.713 709.806 784.81C744.266 786.778 772.234 761.714 766.571 712.658C764.144 691.63 743.579 656.375 717.02 638.386C681.618 614.407 638.184 610.615 638.184 610.615C638.184 610.615 672.646 610.13 713.63 626.224C733.47 634.015 772.066 669.782 776.143 665.393C783.402 657.577 767.741 613.76 738.146 608.512C729.626 607.001 733.066 588.96 727.177 579.405C719.013 566.159 701.591 560.199 687.117 556.442C662.202 549.976 616.974 595.403 616.974 595.403C616.974 595.403 662.404 555.318 648.49 540.699C634.577 526.081 625.003 521.65 599.117 514.06C573.231 506.469 543.298 499.421 523.952 515.771C515.838 522.628 515.475 573.36 515.475 573.36C515.475 573.36 517.553 528.935 506.41 512.63C501.379 505.27 495.255 506.511 479.603 504.209C468.578 502.588 455.322 502.86 448.448 503.163C445.563 503.29 443.802 503.423 443.802 503.423C443.802 503.423 427.617 510.352 412.112 519.874C391.497 532.534 438.008 568.516 438.008 568.516C438.008 568.516 411.904 548.791 389.688 542.121C367.473 535.452 369.538 542.17 349.146 541.838C336.848 541.638 370.234 524.507 359.158 540.211C356.681 543.722 344.413 550.005 333.503 558.077C324.101 565.033 315.685 574.154 315.685 574.154C315.685 574.154 303.433 590.619 309.66 596.781C314.573 601.643 336.853 595.84 358.209 595.873C389.352 595.921 421.711 600.187 421.711 600.187Z" fill="#f5993c" fill-rule="nonzero" opacity="1" stroke="none" vectornator:layerName="Curve 1"/>
<path d="M477.462 601.748C477.232 592.515 490.165 589.269 502.473 584.536C509.226 581.94 514.16 575.47 520.436 575.314C528.828 575.105 547.911 581.632 547.911 581.632C547.911 581.632 565.026 592.88 565.214 600.405C565.403 608.003 549.531 608.769 540 613.666C531.594 617.985 530.028 626.888 521.727 627.095C515.382 627.254 509.388 616.833 502.443 614.349C490.002 609.897 477.691 610.925 477.462 601.748Z" fill="#4b6c1b" fill-rule="nonzero" opacity="1" stroke="none" vectornator:layerName="Oval 2"/>
<path d="M515.123 548.685L527.129 555.671C530.997 557.922 534.167 563.375 534.208 567.85L534.483 597.89C534.524 602.365 531.334 604.328 527.358 602.272L515.317 596.048C511.342 593.993 508.118 588.699 508.118 584.223L508.118 552.713C508.118 548.237 511.254 546.434 515.123 548.685Z" fill="#52761d" fill-rule="nonzero" opacity="1" stroke="none" vectornator:layerName="Rectangle 1"/>
</g>
</g>
<g id="Layer-3" vectornator:layerName="Layer 3" visibility="hidden">
<path d="M471.523 598.32C471.523 590.841 489.203 574.72 509.271 571.651C513.341 571.029 517.304 577.067 521.464 577.067C528.279 577.067 533.171 569.92 540.082 571.167C558.189 574.433 576.381 589.12 576.381 595.631C576.381 601.628 562.313 599.985 546.804 600.299C539.048 600.456 531.628 611.102 524.034 610.598C516.44 610.094 506.575 599.409 502.845 599.527C481.649 600.195 471.523 605.97 471.523 598.32Z" fill="#537620" fill-rule="nonzero" opacity="1" stroke="none" vectornator:layerName="Oval 2"/>
<path d="M508.105 564.021C508.105 556.941 498.341 548.921 505.419 544.624C512.497 540.327 527.369 538.258 534.91 541.809C542.452 545.361 533.593 554.787 534.886 564.593C536.179 574.398 540.082 581.03 540.082 581.03C540.082 588.11 528.003 590.668 520.923 590.668L520.923 590.668C513.844 590.668 510.616 584.147 510.616 577.067L508.105 564.021Z" fill="#5b8123" fill-rule="nonzero" opacity="1" stroke="none" vectornator:layerName="Rectangle 1"/>
</g>
<g id="Layer-4" vectornator:layerName="Layer 4" visibility="hidden">
<path d="M367.068 947.159C368.815 912.331 416.02 886.394 472.504 889.227C528.988 892.06 573.361 922.591 571.614 957.419C569.867 992.247 522.662 1018.18 466.178 1015.35C409.694 1012.52 365.321 981.988 367.068 947.159Z" fill="#8b8b8b" fill-rule="nonzero" opacity="1" stroke="none" vectornator:layerName="Oval 1"/>
<path d="M366.197 935.803C367.944 900.975 415.149 875.038 471.633 877.871C528.117 880.704 572.49 911.235 570.743 946.063C568.996 980.891 521.79 1006.83 465.307 1004C408.823 1001.16 364.45 970.632 366.197 935.803Z" fill="#adadad" fill-rule="nonzero" opacity="1" stroke="none" vectornator:layerName="Oval 2"/>
<path d="M430.387 940.33C430.837 926.761 447.303 916.294 467.165 916.952C487.027 917.611 502.764 929.144 502.314 942.713C501.864 956.282 485.399 966.749 465.537 966.091C445.675 965.433 429.938 953.899 430.387 940.33Z" fill="#9d9d9d" fill-rule="nonzero" opacity="1" stroke="none" vectornator:layerName="Oval 3"/>
<path d="M470.005 553.714L467.806 941.024" fill="none" opacity="1" stroke="#5e5e5e" stroke-linecap="round" stroke-linejoin="round" stroke-width="18.7846" vectornator:layerName="Line 1"/>
<path d="M361.698 118.668C383.864 99.9389 423.302 97.3418 461.67 112.617C463.24 95.0137 441.602 76.7571 441.602 76.7571C447.24 73.5048 472.52 62.6589 492.586 68.0533C519.134 75.1903 534.601 94.3008 534.541 106.138C534.431 127.555 535.037 149.354 535.037 149.354C535.037 149.354 587.551 178.595 607.745 212C635.897 258.568 615.03 315.087 583.495 362.496C572.199 379.479 568.38 413.214 583.495 441.287C613.808 497.583 622.045 568.839 583.495 593.692C539.462 622.079 453.458 565.244 385.363 511.889C332.479 470.452 420.942 429.473 393.785 348.337C363.681 258.393 323.159 151.23 361.698 118.668Z" fill="#8b8b8b" fill-rule="nonzero" opacity="1" stroke="none" vectornator:layerName="Rectangle 1"/>
<path d="M352.758 121.697C374.925 102.967 400.219 102.291 438.587 117.566C440.157 99.9629 434.908 79.998 442.369 75.6935C448.748 72.0137 457.639 89.5318 471.341 95.2155C489.104 102.583 509.937 95.3072 509.882 106.171C509.772 127.588 511.953 154.303 511.953 154.303C511.953 154.303 597.348 202.403 568.868 209.55C540 216.793 512.81 333.916 528.834 398.514C548.614 478.251 613.668 572.188 569.635 600.575C525.602 628.963 400.646 601.258 362.28 516.838C334.483 455.674 397.858 434.422 370.702 353.286C361.735 326.495 353.099 298.007 346.41 270.348C330.643 205.148 325.699 144.56 352.758 121.697Z" fill="#adadad" fill-rule="nonzero" opacity="1" stroke="none" vectornator:layerName="Rectangle 2"/>
</g>
<g id="Layer-5" vectornator:layerName="Layer 5" visibility="hidden">
<path d="M413.195 789.623L413.195 972.59" fill="none" opacity="1" stroke="#88633e" stroke-linecap="round" stroke-linejoin="round" stroke-width="18.7846" vectornator:layerName="Line 2"/>
<path d="M230.284 691.766L231.108 864.443" fill="none" opacity="1" stroke="#88633e" stroke-linecap="round" stroke-linejoin="round" stroke-width="18.7846" vectornator:layerName="Line 3"/>
<path d="M900.488 511.973L900.488 694.94" fill="none" opacity="1" stroke="#88633e" stroke-linecap="round" stroke-linejoin="round" stroke-width="18.7846" vectornator:layerName="Line 1"/>
<path d="M205.11 691.917L725.078 392.051L932.959 512.1L413.274 811.924L205.11 691.917Z" fill="#d2a272" fill-rule="nonzero" opacity="1" stroke="none" vectornator:layerName="Rectangle 1"/>
<path d="M413.195 811.924L932.959 511.973L932.959 542.003L413.218 841.869L413.195 811.924Z" fill="#bc8f61" fill-rule="nonzero" opacity="1" stroke="none" vectornator:layerName="Rectangle 2"/>
<path d="M205.11 691.766L413.195 811.924L413.195 841.869L205.11 722.019L205.11 691.766Z" fill="#a57c53" fill-rule="nonzero" opacity="1" stroke="none" vectornator:layerName="Rectangle 3"/>
<path d="M299.452 714.447C299.452 693.722 345.097 676.921 401.401 676.921C457.706 676.921 503.351 693.722 503.351 714.447C503.351 735.171 457.706 751.972 401.401 751.972C345.097 751.972 299.452 735.171 299.452 714.447Z" fill="#c29466" fill-rule="nonzero" opacity="1" stroke="none" vectornator:layerName="Oval 2"/>
<path d="M467.086 622.609C467.086 601.29 505.138 584.008 552.077 584.008C599.017 584.008 637.069 601.29 637.069 622.609C637.069 643.928 599.017 661.211 552.077 661.211C505.138 661.211 467.086 643.928 467.086 622.609Z" fill="#c29466" fill-rule="nonzero" opacity="1" stroke="none" vectornator:layerName="Oval 4"/>
<path d="M617.529 538.786C617.529 513.81 664.833 493.564 723.185 493.564C781.538 493.564 828.841 513.81 828.841 538.786C828.841 563.761 781.538 584.008 723.185 584.008C664.833 584.008 617.529 563.761 617.529 538.786Z" fill="#c29466" fill-rule="nonzero" opacity="1" stroke="none" vectornator:layerName="Oval 3"/>
<g opacity="1" vectornator:layerName="Group 5">
<g opacity="1" vectornator:layerName="Group 2">
<g opacity="1" vectornator:layerName="Group 1">
<path d="M356.588 567.247L444.133 567.247C444.133 567.247 439.078 582.834 444.133 603.924C448.108 620.506 479.758 644.445 479.758 661.407C479.758 699.465 471.677 704.364 444.133 721.393C418.202 737.425 384.349 736.718 356.588 721.393C328.827 706.068 323.045 698.17 323.045 659.633C323.045 642.622 352.612 623.601 356.588 606.47C361.618 584.792 356.588 567.247 356.588 567.247Z" fill="#3e8791" fill-rule="nonzero" opacity="1" stroke="none" vectornator:layerName="Rectangle 4"/>
<path d="M356.605 569.049C355.933 554.034 374.979 541.055 399.144 540.061C423.31 539.066 443.444 550.431 444.116 565.446C444.787 580.461 425.742 593.44 401.576 594.434C377.411 595.429 357.277 584.063 356.605 569.049Z" fill="#3c727a" fill-rule="nonzero" opacity="1" stroke="#539ba5" stroke-linecap="butt" stroke-linejoin="round" stroke-width="5.77066" vectornator:layerName="Oval 1"/>
</g>
<path d="M357.648 605.983C357.648 605.983 380.535 618.311 401.401 619.024C423.004 619.762 443.002 603.456 443.002 603.456" fill="none" opacity="1" stroke="#539ba5" stroke-linecap="round" stroke-linejoin="round" stroke-width="2.15966" vectornator:layerName="Line 4"/>
<path d="M334.235 704.439C334.235 704.439 370.249 724.414 404.621 723.679C436.412 722.999 471.558 698.752 471.558 698.752" fill="none" opacity="1" stroke="#539ba5" stroke-linecap="round" stroke-linejoin="round" stroke-width="2.15966" vectornator:layerName="Line 5"/>
<path d="M329.603 645.263C329.603 645.263 365.772 672.323 402.896 671.67C443.002 670.965 473.005 646.955 473.005 646.955" fill="none" opacity="1" stroke="#539ba5" stroke-linecap="round" stroke-linejoin="round" stroke-width="2.15966" vectornator:layerName="Line 6"/>
</g>
<path d="M367.947 579.166C367.531 571.425 382.153 564.344 400.607 563.351C419.062 562.357 434.36 567.828 434.776 575.569C435.193 583.311 420.571 590.392 402.116 591.385C383.662 592.378 368.364 586.908 367.947 579.166Z" fill="#2e636a" fill-rule="nonzero" opacity="1" stroke="none" vectornator:layerName="Oval 1"/>
</g>
<g opacity="1" vectornator:layerName="Group 4">
<g opacity="1" vectornator:layerName="Group 3">
<path d="M508.041 425.086L598.213 425.086C598.213 425.086 594.346 442.134 583.845 472.556C569.909 512.933 612.981 562.987 604.624 601.715C596.267 640.442 579.015 645.041 553.406 644.626C527.796 644.212 509.205 638.578 502.187 600.057C495.17 561.536 536.532 515.462 525.337 473.626C522.197 461.893 508.041 425.086 508.041 425.086Z" fill="#875848" fill-rule="nonzero" opacity="1" stroke="none" vectornator:layerName="Rectangle 4"/>
<path d="M508.041 425.086C508.041 411.995 528.227 401.383 553.127 401.383C578.027 401.383 598.213 411.995 598.213 425.086C598.213 438.177 578.027 448.79 553.127 448.79C528.227 448.79 508.041 438.177 508.041 425.086Z" fill="#875848" fill-rule="nonzero" opacity="1" stroke="#bb8470" stroke-linecap="butt" stroke-linejoin="round" stroke-width="5.30056" vectornator:layerName="Oval 1"/>
</g>
<path d="M527.617 496.893C527.617 496.893 541.348 505.427 555.517 505.592C569.686 505.757 581.051 496.984 581.051 496.984" fill="none" opacity="1" stroke="#bb8470" stroke-linecap="round" stroke-linejoin="round" stroke-width="2.15966" vectornator:layerName="Line 4"/>
<path d="M526.311 474.972C526.311 474.972 540.976 482.768 554.334 482.681C567.693 482.593 582.389 474.5 582.389 474.5" fill="none" opacity="1" stroke="#bb8470" stroke-linecap="round" stroke-linejoin="round" stroke-width="2.15966" vectornator:layerName="Line 5"/>
<path d="M510.262 623.66C510.262 623.66 531.969 636.004 554.35 636.577C576.73 637.15 596.265 624.462 596.265 624.462" fill="none" opacity="1" stroke="#bb8470" stroke-linecap="round" stroke-linejoin="round" stroke-width="2.15966" vectornator:layerName="Line 6"/>
<path d="M519.586 433.574C519.586 426.752 534.891 421.221 553.772 421.221C572.653 421.221 587.958 426.752 587.958 433.574C587.958 440.397 572.653 445.928 553.772 445.928C534.891 445.928 519.586 440.397 519.586 433.574Z" fill="#6d4335" fill-rule="nonzero" opacity="1" stroke="none" vectornator:layerName="Oval 2"/>
</g>
<g opacity="1" vectornator:layerName="Group 6">
<path d="M637.558 478.759L809.301 478.759C809.301 478.759 809.301 529.717 783.319 548.385C751.968 570.91 716.013 572.56 673.077 551.472C630.141 530.385 637.558 478.759 637.558 478.759Z" fill="#b0624e" fill-rule="nonzero" opacity="1" stroke="none" vectornator:layerName="Rectangle 4"/>
<path d="M637.558 478.759C637.558 460.416 676.004 445.545 723.43 445.545C770.855 445.545 809.301 460.416 809.301 478.759C809.301 497.103 770.855 511.973 723.43 511.973C676.004 511.973 637.558 497.103 637.558 478.759Z" fill="#9c5441" fill-rule="nonzero" opacity="1" stroke="#d68570" stroke-linecap="butt" stroke-linejoin="round" stroke-width="6.59855" vectornator:layerName="Oval 1"/>
<path d="M655.485 489.686C655.485 480.317 685.957 472.722 723.546 472.722C761.135 472.722 791.607 480.317 791.607 489.686C791.607 499.055 761.135 506.65 723.546 506.65C685.957 506.65 655.485 499.055 655.485 489.686Z" fill="#824231" fill-rule="nonzero" opacity="1" stroke="none" vectornator:layerName="Oval 2"/>
<path d="M643.895 518.751C643.895 518.751 683.966 540 732.575 540C762.629 540 801.208 519.985 801.208 519.985" fill="none" opacity="1" stroke="#d68570" stroke-linecap="round" stroke-linejoin="round" stroke-width="2.25867" vectornator:layerName="Line 4"/>
</g>
</g>
<g id="Layer-6" vectornator:layerName="Layer 6">
<path d="M363.038 569.83L545.031 675.338L546.059 1005.19L362.676 901.74L363.038 569.83Z" fill="#adadad" fill-rule="nonzero" opacity="1" stroke="none" vectornator:layerName="Rectangle 1"/>
<path d="M544.981 675.373L726.935 569.83L726.341 901.004L546.059 1005.19L544.981 675.373Z" fill="#cecece" fill-rule="nonzero" opacity="1" stroke="none" vectornator:layerName="Rectangle 2"/>
<path d="M544.981 464.996L726.935 569.83L544.981 675.881L362.676 569.83L544.981 464.996Z" fill="#bebebe" fill-rule="nonzero" opacity="1" stroke="none" vectornator:layerName="Rectangle 3"/>
<path d="M408.381 570.27C408.113 535.517 466.834 506.889 539.54 506.327C612.245 505.766 671.402 533.484 671.671 568.238C671.939 602.991 613.217 631.619 540.512 632.18C467.806 632.742 408.649 605.024 408.381 570.27Z" fill="#afafaf" fill-rule="nonzero" opacity="0.593023" stroke="none" vectornator:layerName="Oval 5"/>
<path d="M418.925 500.969C418.553 449.362 631.385 336.288 658.457 377.815C688.7 424.207 662.611 491.739 624.812 546.018C597.665 584.999 534.684 623.283 483.893 613.47C433.103 603.657 419.411 568.35 418.925 500.969Z" fill="#ddd6cc" fill-rule="nonzero" opacity="1" stroke="none" vectornator:layerName="Rectangle 4"/>
<path d="M462.942 505.682C462.942 505.682 410.93 497.17 444.478 465.777C501.434 412.478 545.3 395.607 595.99 378.904C656.334 359.021 665.704 387.996 665.704 387.996C665.704 387.996 695.108 490.655 657.308 544.935C630.161 583.916 567.18 622.2 516.39 612.387C465.599 602.574 462.942 505.682 462.942 505.682Z" fill="#fff6e9" fill-rule="nonzero" opacity="1" stroke="none" vectornator:layerName="Rectangle 5"/>
<path d="M478.273 368.834C481.417 346.89 548.463 318.214 556.381 335.845C568.429 362.674 579.738 418.045 579.738 418.045C579.738 418.045 574.937 445.546 554.902 452.765C534.866 459.984 509.325 451.787 499.596 446.921C480.069 437.155 473.468 402.378 478.273 368.834Z" fill="#ddd6cc" fill-rule="nonzero" opacity="1" stroke="none" vectornator:layerName="Rectangle 6"/>
<path d="M487.992 371.934C491.631 349.989 552.697 324.043 561.863 341.674C575.812 368.503 579.738 417.057 579.738 417.057C579.738 417.057 570.646 438.747 550.985 448.503C531.323 458.258 501.091 456.079 501.091 456.079C501.091 456.079 482.429 405.478 487.992 371.934Z" fill="#fff6e9" fill-rule="nonzero" opacity="1" stroke="none" vectornator:layerName="Rectangle 7"/>
<path d="M395.229 196.664C410.94 179.54 420.034 172.142 435.311 169.548C448.073 167.382 448.638 167.338 473.612 177.125C525.233 158.924 541.25 204.796 541.25 204.796L493.069 284.93L473.821 292.052L408.27 319.699C408.27 319.699 368.186 285.481 392.91 239.005C392.91 239.005 381.487 213.725 385.045 208.93C388.002 204.944 391.384 200.856 395.229 196.664Z" fill="#ddd6cc" fill-rule="nonzero" opacity="1" stroke="none" vectornator:layerName="Rectangle 9"/>
<path d="M436.243 228.236C456.852 196.66 484.441 202.075 518.892 196.909C555.319 191.446 581.957 196.909 599.035 216.508C615.244 235.109 613.591 309.957 613.591 309.957C613.591 309.957 552.927 451.424 436.243 376.966C399.813 353.72 374.364 323.042 436.243 228.236Z" fill="#ddd6cc" fill-rule="nonzero" opacity="1" stroke="none" vectornator:layerName="Rectangle 8"/>
<path d="M438.453 308.005C425.781 246.835 475.706 194.31 523.798 193.573C571.89 192.836 611.653 242.874 612.61 305.336C612.95 327.558 616.517 349.426 609.414 367.558C596.551 400.393 565.314 422.49 534.331 422.965C486.239 423.702 452.714 376.845 438.453 308.005Z" fill="#ddd6cc" fill-rule="nonzero" opacity="1" stroke="none" vectornator:layerName="Oval 1"/>
<path d="M486.956 350.376C486.956 350.376 481.396 291.443 506.209 270.717C524.667 255.299 545.3 236.175 545.3 236.175C545.3 236.175 606.2 238.397 613.805 308.269C621.595 379.842 584.156 418.915 536.064 419.652C497.385 420.244 474.3 394.183 458.039 346.516C454.082 334.915 486.956 350.376 486.956 350.376Z" fill="#fff6e9" fill-rule="nonzero" opacity="1" stroke="none" vectornator:layerName="Oval 2"/>
<path d="M445.85 357.857C440.662 345.856 444.204 332.778 453.762 328.646C463.319 324.515 475.273 330.894 480.46 342.895C485.648 354.897 482.106 367.975 472.549 372.107C462.992 376.238 451.038 369.858 445.85 357.857Z" fill="#ddd6cc" fill-rule="nonzero" opacity="1" stroke="none" vectornator:layerName="Oval 3"/>
<path d="M452.295 359.019C447.416 347.733 450.716 335.447 459.664 331.579C468.613 327.711 479.822 333.724 484.701 345.01C489.58 356.296 486.281 368.581 477.332 372.449C468.383 376.318 457.174 370.305 452.295 359.019Z" fill="#fff6e9" fill-rule="nonzero" opacity="1" stroke="none" vectornator:layerName="Oval 4"/>
<path d="M573.441 319.699C573.441 319.699 574.112 321.893 579.738 330.406C583.732 336.448 588.132 341.973 590.595 346.129C597.603 357.953 578.131 357.592 578.131 357.592" fill="none" opacity="1" stroke="#ddd6cc" stroke-linecap="round" stroke-linejoin="round" stroke-width="2.25867" vectornator:layerName="Curve 1"/>
<path d="M534.808 190.057C534.808 190.057 480.965 210.389 454.782 230.199C424.13 253.389 398.992 308.269 398.992 308.269C398.992 308.269 395.583 285.704 415.987 254.693C432.115 230.181 443.961 219.348 476.278 201.852C508.595 184.355 534.808 190.057 534.808 190.057Z" fill="#fff6e9" fill-rule="nonzero" opacity="1" stroke="none" vectornator:layerName="Curve 2"/>
<path d="M571.486 690.007L701.514 615.026L701.595 735.168L571.613 810.033L571.486 690.007Z" fill="#ededed" fill-rule="nonzero" opacity="1" stroke="none" vectornator:layerName="Rectangle 11"/>
</g>
</svg>
