<svg id="Layer_3" data-name="Layer 3" xmlns="http://www.w3.org/2000/svg" xmlns:xlink="http://www.w3.org/1999/xlink" viewBox="0 0 511.6 1317.25"><defs><style>.cls-1{fill:none;}.cls-2{fill:#cb862a;}.cls-3{fill:#7c433e;}.cls-4{fill:#9b6027;}.cls-5{clip-path:url(#clip-path);}.cls-6{fill:#603835;}.cls-7{clip-path:url(#clip-path-2);}.cls-8{fill:#307f4c;}.cls-9{fill:#6b9660;}.cls-10{fill:#cd872a;}.cls-11{fill:#592b29;}.cls-12{fill:#48a075;}.cls-13{fill:#356654;}.cls-14{clip-path:url(#clip-path-3);}.cls-15{clip-path:url(#clip-path-4);}.cls-16{clip-path:url(#clip-path-5);}.cls-17{clip-path:url(#clip-path-6);}.cls-18{clip-path:url(#clip-path-7);}.cls-19{clip-path:url(#clip-path-8);}.cls-20{clip-path:url(#clip-path-9);}.cls-21{clip-path:url(#clip-path-10);}</style><clipPath id="clip-path" transform="translate(-204.74 -23.02)"><path class="cls-1" d="M307.8,130.23h-48V114.82h58.75a.81.81,0,0,1,.63,1.31Z"/></clipPath><clipPath id="clip-path-2" transform="translate(-204.74 -23.02)"><path class="cls-1" d="M307.8,366.43h-48V351h58.75a.81.81,0,0,1,.63,1.31Z"/></clipPath><clipPath id="clip-path-3" transform="translate(-204.74 -23.02)"><path class="cls-1" d="M308.57,704.23H260.11V688.66h59.35a.82.82,0,0,1,.63,1.33Z"/></clipPath><clipPath id="clip-path-4" transform="translate(-204.74 -23.02)"><path class="cls-1" d="M308.57,941.76H260.11V926.19h59.35a.82.82,0,0,1,.63,1.33Z"/></clipPath><clipPath id="clip-path-5" transform="translate(-204.74 -23.02)"><path class="cls-1" d="M308.76,1182.19H260.3v-15.56h59.34a.81.81,0,0,1,.64,1.32Z"/></clipPath><clipPath id="clip-path-6" transform="translate(-204.74 -23.02)"><path class="cls-1" d="M613.28,130.29h48V114.88H602.5a.81.81,0,0,0-.63,1.31Z"/></clipPath><clipPath id="clip-path-7" transform="translate(-204.74 -23.02)"><path class="cls-1" d="M613.28,366.49h48V351.08H602.5a.81.81,0,0,0-.63,1.31Z"/></clipPath><clipPath id="clip-path-8" transform="translate(-204.74 -23.02)"><path class="cls-1" d="M612.51,704.29H661V688.73H601.62a.81.81,0,0,0-.63,1.32Z"/></clipPath><clipPath id="clip-path-9" transform="translate(-204.74 -23.02)"><path class="cls-1" d="M612.51,941.82H661V926.26H601.62a.81.81,0,0,0-.63,1.32Z"/></clipPath><clipPath id="clip-path-10" transform="translate(-204.74 -23.02)"><path class="cls-1" d="M612.32,1182.25h48.46v-15.56H601.43a.81.81,0,0,0-.63,1.32Z"/></clipPath></defs><path class="cls-2" d="M259.83,117.7h48.09V76.89C309.3,65.49,314.56,61,314.56,61h-6.64V54.79H259.83Z" transform="translate(-204.74 -23.02)"/><path class="cls-3" d="M259.83,62.43H316s16.22.38,9.64-14c-4.76-10.41.65-12.89,4-13.46a6,6,0,0,0,3.84,10.62,5.37,5.37,0,0,0,.7,0h0s10-.46,8.38-12.75-14.35-9.52-14.35-9.52-11.13.76-12,11-37.88,11.27-37.88,11.27H259.83Z" transform="translate(-204.74 -23.02)"/><rect class="cls-2" x="55.09" y="106.85" width="46.88" height="167.61"/><path class="cls-4" d="M307.8,127.23h-48V111.82h58.75a.81.81,0,0,1,.63,1.31Z" transform="translate(-204.74 -23.02)"/><path class="cls-4" d="M55.09,103.85h47.55a3.25,3.25,0,0,1,3.25,3.25v0a3.25,3.25,0,0,1-3.25,3.25H55.09a0,0,0,0,1,0,0v-6.5A0,0,0,0,1,55.09,103.85Z"/><g class="cls-5"><path class="cls-6" d="M205,130.22h114v-8.65a8.63,8.63,0,0,0-7.13,3.75,8.63,8.63,0,0,0-14.25,0,8.64,8.64,0,0,0-14.26,0,8.63,8.63,0,0,0-14.25,0,8.65,8.65,0,0,0-14.26,0c-.13-.19-.28-.37-.43-.55l0,0c-.16-.19-.32-.37-.49-.54l-.11-.12c-.18-.17-.35-.33-.54-.48l-.08-.07a8.74,8.74,0,0,0-2.8-1.52l-.12,0a6,6,0,0,0-.73-.19l-.14,0a9,9,0,0,0-1.65-.17,8.61,8.61,0,0,0-6.5,3,8.12,8.12,0,0,0-.62.8,8.66,8.66,0,0,0-13.64-.8,8.12,8.12,0,0,0-.62.8,8.64,8.64,0,0,0-14.26,0,8.62,8.62,0,0,0-7.12-3.76Z" transform="translate(-204.74 -23.02)"/></g><path class="cls-4" d="M55.09,139.18h0a31,31,0,0,1,31,31v62.7a0,0,0,0,1,0,0h-31a0,0,0,0,1,0,0V139.18A0,0,0,0,1,55.09,139.18Z"/><path class="cls-6" d="M55.09,143.5h0a26,26,0,0,1,26,26v56.92a0,0,0,0,1,0,0h-26a0,0,0,0,1,0,0v-83a0,0,0,0,1,0,0Z"/><path class="cls-2" d="M259.83,367h46.81V317.21c1.35-13.91,6.47-19.36,6.47-19.36h-6.47v-7.61H259.83Z" transform="translate(-204.74 -23.02)"/><path class="cls-3" d="M259.83,297.79H316s16.22.38,9.64-14c-4.76-10.41.65-12.88,4-13.46A6,6,0,0,0,333.43,281c.24,0,.47,0,.7,0h0s10-.46,8.38-12.74-14.35-9.53-14.35-9.53-11.13.77-12,11-37.88,11.26-37.88,11.26H259.83Z" transform="translate(-204.74 -23.02)"/><rect class="cls-2" x="55.09" y="348.97" width="46.88" height="276.04"/><path class="cls-4" d="M307.8,366.43h-48V351h58.75a.81.81,0,0,1,.63,1.31Z" transform="translate(-204.74 -23.02)"/><path class="cls-4" d="M55.09,343.06h47.55a3.25,3.25,0,0,1,3.25,3.25v0a3.25,3.25,0,0,1-3.25,3.25H55.09a0,0,0,0,1,0,0v-6.5a0,0,0,0,1,0,0Z"/><g class="cls-7"><path class="cls-6" d="M205,366.42h114v-8.65a8.65,8.65,0,0,0-7.13,3.75,8.64,8.64,0,0,0-14.25,0,8.64,8.64,0,0,0-14.26,0,8.63,8.63,0,0,0-14.25,0,8.64,8.64,0,0,0-14.26,0,5.93,5.93,0,0,0-.43-.56l0-.05c-.16-.19-.32-.37-.49-.54l-.11-.11c-.18-.17-.35-.34-.54-.49l-.08-.07a8.53,8.53,0,0,0-2.8-1.51l-.12,0a6,6,0,0,0-.73-.19l-.14,0a9,9,0,0,0-1.65-.17,8.61,8.61,0,0,0-6.5,3,9.5,9.5,0,0,0-.62.8,8.66,8.66,0,0,0-13.64-.8,8.12,8.12,0,0,0-.62.8,8.65,8.65,0,0,0-14.26,0,8.62,8.62,0,0,0-7.12-3.76Z" transform="translate(-204.74 -23.02)"/></g><path class="cls-4" d="M55.09,370.94h0a31,31,0,0,1,31,31v62.7a0,0,0,0,1,0,0h-31a0,0,0,0,1,0,0V370.94A0,0,0,0,1,55.09,370.94Z"/><path class="cls-6" d="M55.09,375.27h0a26,26,0,0,1,26,26v56.92a0,0,0,0,1,0,0h-26a0,0,0,0,1,0,0v-83A0,0,0,0,1,55.09,375.27Z"/><path class="cls-8" d="M309.54,82.92a6.54,6.54,0,0,0-.33-1.6c-.29-.85-.44-.45-.44-.45-4.32,4.89-11.16,7.86-19,9.09-2.5.39-5,.74-7.56,1h0c-7.85.63-18.59-2.43-23.93-4.17L258,86.6l.19.13c-2-.64-3.16-1.09-3.16-1.09v3l-1,9.08c12.69,3.27,27.56-.5,27.56-.5l0,0a58.63,58.63,0,0,0,14-3.64c2.11-.84,4.12-1.81,6.08-2.82C305.9,88.55,309.84,86.71,309.54,82.92Z" transform="translate(-204.74 -23.02)"/><path class="cls-9" d="M298.23,88.38s-8.81.18-4-13C294.25,75.41,305.24,83.54,298.23,88.38Z" transform="translate(-204.74 -23.02)"/><path class="cls-9" d="M308.16,87.73s-.74-8.78,12.69-4.8C320.85,82.93,313.44,94.42,308.16,87.73Z" transform="translate(-204.74 -23.02)"/><path class="cls-9" d="M287.2,95s8.33-6.7,13.43,9.51C300.63,104.49,284.05,104.84,287.2,95Z" transform="translate(-204.74 -23.02)"/><path class="cls-9" d="M281.08,465.36s8.68.59,2.92,13.49C284,478.85,273.8,469.66,281.08,465.36Z" transform="translate(-204.74 -23.02)"/><path class="cls-8" d="M326,463.29c-.23-2.07-1.63-4.88-4.16-4.31a3.29,3.29,0,0,0-2.35,2.35,4.71,4.71,0,0,0,.76,3.69c.58.91,2,.07,1.45-.85a3,3,0,0,1-.55-2.51,1.48,1.48,0,0,1,1.39-1.07c.72.07,1.2.86,1.45,1.46a5.5,5.5,0,0,1-1.05,5.71,3.43,3.43,0,0,1-3.81.58c-3.52-1.56-4.64-6-5-9.5-.41-3.9-.06-7.84-.56-11.74a23.17,23.17,0,0,0-1.1-4.78,75.35,75.35,0,0,0-1.26-14.52c1.53-4.17,2.54-8.65.59-12.86-2-4.36-6.75-6.6-10.83-8.58l-.45-.21a89.93,89.93,0,0,0-15.22-15.8,39.25,39.25,0,0,0,9.8-3.22,55.12,55.12,0,0,0,5.3-3c3.72-2.34,7.16-4.3,7.16-8.72a10.64,10.64,0,0,0-.18-1.88c-.19-1-.33-.54-.33-.54-4,5.48-9.92,8.61-16.59,9.67a48.21,48.21,0,0,1-14.07.61l-1-.16c-10.75-7-19.72-10.48-20.38-11v15.29s13.61-3.13,31.69,16.35a10.22,10.22,0,0,1-.16,4.13c-.38,1.55-1.06,3.46-2.63,4.17s-3.14-.61-3.71-2a2.11,2.11,0,0,1,.2-2.14c.19-.21.55-.41.82-.25a.51.51,0,0,1,.22.58.68.68,0,0,0,.23.89.66.66,0,0,0,.89-.24,1.8,1.8,0,0,0-1.13-2.52A2.26,2.26,0,0,0,279,408c-.8,2.09.84,4.42,2.73,5.24a3.48,3.48,0,0,0,3.2-.21,5.65,5.65,0,0,0,2.16-2.55,12.2,12.2,0,0,0,1.15-5.12c1.29,1.46,2.61,3,3.94,4.75A69.48,69.48,0,0,1,304,434.18a23.41,23.41,0,0,1-7,11.73c-9.7,9.33-24.92,15.1-34.16,24.72-7,7.26-9.83,16.49-7.66,24.75a12.6,12.6,0,0,0,6,8.32c-1.75-5.09-3.23-10.49-1.33-15.79a21.07,21.07,0,0,1,3.85-6.34,14.75,14.75,0,0,0,2,10.59,11.81,11.81,0,0,0,4.69,4.12,12.83,12.83,0,0,0,6.86,1.45,7.38,7.38,0,0,0,5.21-3.1,7.54,7.54,0,0,0,1.16-5.89,7.37,7.37,0,0,0-4.32-5.42,4.26,4.26,0,0,0-5.58,2.31,1,1,0,0,0,.67,1.18,1,1,0,0,0,1.18-.67c.49-1.31,2.25-1.45,3.34-.92a5.65,5.65,0,0,1,2.83,3.88,5.53,5.53,0,0,1-4.84,6.74,11.09,11.09,0,0,1-5.47-1.18,10,10,0,0,1-3.91-3.22,13,13,0,0,1-1.87-10,19.86,19.86,0,0,1,.81-2.83c1-1,2.08-2,3.16-2.91a137.69,137.69,0,0,1,15.1-11.43c5.1-3.34,10.64-6.36,14.91-10.35a41.81,41.81,0,0,0,6.81-8.1,103.36,103.36,0,0,1,.5,26.88,90.39,90.39,0,0,0,5.16-23c.2,3.76-.05,7.54.62,11.27A14.52,14.52,0,0,0,315.1,467a7.51,7.51,0,0,0,5.1,3.31C324.06,470.74,326.39,466.72,326,463.29Zm-15.12-41.57a17.07,17.07,0,0,1-.55,2.76,68.1,68.1,0,0,0-7.52-15.08c.83.44,1.66.91,2.46,1.41a13.14,13.14,0,0,1,4.4,4.18A10.63,10.63,0,0,1,310.88,421.72Z" transform="translate(-204.74 -23.02)"/><path class="cls-9" d="M300,384.63s7.9-8.31,15.64,8.18C315.61,392.81,298,395.55,300,384.63Z" transform="translate(-204.74 -23.02)"/><path class="cls-9" d="M289.44,383.66s-10.71-4.1,1.54-17.58C291,366.08,300.27,381.25,289.44,383.66Z" transform="translate(-204.74 -23.02)"/><path class="cls-9" d="M312,437.37s7.9-8.31,15.64,8.19C327.66,445.56,310.08,448.3,312,437.37Z" transform="translate(-204.74 -23.02)"/><path class="cls-9" d="M289.83,452.48s-9.29,6.12-13.42-11.47C276.41,441,293.91,442.47,289.83,452.48Z" transform="translate(-204.74 -23.02)"/><path class="cls-9" d="M296.94,455.68s6.5,1.69.34,11C297.28,466.67,290.82,458,296.94,455.68Z" transform="translate(-204.74 -23.02)"/><path class="cls-8" d="M307.4,317.43a6.54,6.54,0,0,0-.33-1.6c-.3-.85-.44-.45-.44-.45-4.32,4.89-11.16,7.86-19,9.09-2.5.4-5,.75-7.56,1h0c-7.85.63-18.6-2.43-23.93-4.16l-.31-.17.19.13c-2-.64-3.16-1.1-3.16-1.1v3l-1,9.08c12.7,3.27,27.57-.5,27.57-.5l0,0a58.61,58.61,0,0,0,14-3.63c2.1-.85,4.12-1.82,6.08-2.83C303.76,323.07,307.7,321.22,307.4,317.43Z" transform="translate(-204.74 -23.02)"/><path class="cls-9" d="M296.08,322.89s-8.8.18-4-13C292.11,309.93,303.1,318.05,296.08,322.89Z" transform="translate(-204.74 -23.02)"/><path class="cls-9" d="M306,322.24s-.74-8.78,12.68-4.79C318.7,317.45,311.3,328.94,306,322.24Z" transform="translate(-204.74 -23.02)"/><path class="cls-9" d="M285.06,329.5s8.33-6.7,13.43,9.5C298.49,339,281.91,339.35,285.06,329.5Z" transform="translate(-204.74 -23.02)"/><path class="cls-10" d="M259.85,659.83h46.73v4H343.9s-34.61,3.51-37.49,19.69v16.28H259.85Z" transform="translate(-204.74 -23.02)"/><path class="cls-3" d="M396.92,634.14c-1.64-12.21-14.66-9.47-14.66-9.47s-11.38.77-12.31,10.93-38.71,11.2-38.71,11.2h-75v0H216.3v16.81H369.79s16.58.38,9.85-13.92c-4.86-10.34.66-12.8,4.1-13.37a5.86,5.86,0,0,0-2.22,4.59,6.06,6.06,0,0,0,6.14,6c.24,0,.47,0,.7,0h0S398.56,646.34,396.92,634.14Z" transform="translate(-204.74 -23.02)"/><path class="cls-2" d="M359.29,706H341.35l4,19.14a2.91,2.91,0,0,0,2.84,2.31H364a2.91,2.91,0,0,0,2.84-2.31l4-19.14Z" transform="translate(-204.74 -23.02)"/><polyline class="cls-6" points="164.55 690.5 166.14 682.02 154.55 682.02 148.2 682.02 136.62 682.02 138.2 690.5"/><path class="cls-11" d="M342,700.3a1.07,1.07,0,0,1-.39-.07,1.13,1.13,0,0,1-.67-1.45l14.28-38.47a1.12,1.12,0,1,1,2.11.78l-14.27,38.47A1.13,1.13,0,0,1,342,700.3Z" transform="translate(-204.74 -23.02)"/><path class="cls-11" d="M370.54,700.3a1.13,1.13,0,0,1-1.06-.74l-14.27-38.47a1.12,1.12,0,1,1,2.11-.78l14.28,38.47a1.12,1.12,0,0,1-1.06,1.52Z" transform="translate(-204.74 -23.02)"/><path class="cls-2" d="M130.5,675.56h41.75a1.17,1.17,0,0,1,1.17,1.17v4.18a7.38,7.38,0,0,1-7.38,7.38H136.71a7.38,7.38,0,0,1-7.38-7.38v-4.18A1.17,1.17,0,0,1,130.5,675.56Z"/><path class="cls-8" d="M366.51,694.57a6.76,6.76,0,0,1,3.54-3,6,6,0,0,1,3,0,11.64,11.64,0,0,1,4.69,2.72,16.3,16.3,0,0,0,4.37,3c.32.13.65.24,1,.35-2.2.53-4.34,1.3-6.53,1.83a13.91,13.91,0,0,1-6.54.28,7.68,7.68,0,0,1-2.24-1,3.89,3.89,0,0,1-2-2.66,1.63,1.63,0,0,1,.69-1.6" transform="translate(-204.74 -23.02)"/><path class="cls-12" d="M377.63,697.43a9.27,9.27,0,0,1-3.1-.95l-.65-.34a2.7,2.7,0,0,0,.57-.18c.4-.17.7-.25,1.1-.41a3.61,3.61,0,0,1,1.27-.22c.29,0,1,.06,1.28.1a7.63,7.63,0,0,0-1.32-.3,4.23,4.23,0,0,0-2,.42,7.57,7.57,0,0,1-1.28.4c-.53-.27-1-.51-1.61-.86a7,7,0,0,0-.82-.41l.32-.07a3,3,0,0,0,.58-.25c.38-.21.66-.32,1-.53a4.05,4.05,0,0,1,1.23-.35c.3,0,1,0,1.29,0a6.82,6.82,0,0,0-1.35-.16,4.26,4.26,0,0,0-1.93.62,5.53,5.53,0,0,1-1.59.62l-.25-.08a6.92,6.92,0,0,0-1.38-.31,3.13,3.13,0,0,0,.42-.29c.27-.24.49-.38.78-.62a3.41,3.41,0,0,1,1-.5c.24-.07.8-.19,1.07-.24a6.37,6.37,0,0,0-1.15.09,3.53,3.53,0,0,0-1.5.85,5.61,5.61,0,0,1-1,.68,2.77,2.77,0,0,0-1.84.52l-.19.16a1.65,1.65,0,0,1,1.15-.28,5.82,5.82,0,0,1,.73.07,4.74,4.74,0,0,1,.94,1.79,4.22,4.22,0,0,0,1,1.79,7.08,7.08,0,0,0,1.08.81c-.23-.21-.72-.68-.91-.91a3.85,3.85,0,0,1-.65-1.1c-.14-.42-.27-.69-.39-1.11a3,3,0,0,0-.26-.58,2.32,2.32,0,0,0-.49-.63,10.45,10.45,0,0,1,2.38.86,6.37,6.37,0,0,1,.72,1.24,4.24,4.24,0,0,0,1.18,1.66,7.55,7.55,0,0,0,1.16.69c-.25-.19-.79-.6-1-.8a3.92,3.92,0,0,1-.78-1c-.18-.39-.34-.65-.52-1a2.94,2.94,0,0,0-.25-.46l.94.5a10.93,10.93,0,0,0,4.86,1.66,17.68,17.68,0,0,0,3.41-.33C380.08,697.57,378.37,697.52,377.63,697.43Z" transform="translate(-204.74 -23.02)"/><path class="cls-13" d="M345.09,699.14a6.8,6.8,0,0,0-3.84-2.58,6,6,0,0,0-3,.35,11.43,11.43,0,0,0-4.36,3.21,16.17,16.17,0,0,1-4,3.5c-.3.17-.62.31-.93.46,2.24.28,4.45.81,6.69,1.09a13.94,13.94,0,0,0,6.53-.44,7.67,7.67,0,0,0,2.11-1.22,3.87,3.87,0,0,0,1.69-2.86,1.64,1.64,0,0,0-.87-1.51" transform="translate(-204.74 -23.02)"/><path class="cls-12" d="M344.11,698.32a2.87,2.87,0,0,0-1.49-.15c-.27-.09-.58-.19-.75-.23a4.24,4.24,0,0,0-1.93.18,4.21,4.21,0,0,1-1.92.21.64.64,0,0,1-.4-.2l.06.07a1.48,1.48,0,0,0,1.31.39,2.36,2.36,0,0,0,.59-.11c.4-.12.68-.16,1.08-.27a3.48,3.48,0,0,1,1.22-.08l.49.08a7.6,7.6,0,0,0-1.84.66,8.75,8.75,0,0,0-1.31.82l-.31.25a5.53,5.53,0,0,1-1.54.14,3.63,3.63,0,0,0-1.76.26,4.71,4.71,0,0,0-.89.62c.22-.12.72-.37.95-.46a3.43,3.43,0,0,1,1.1-.2c.4,0,.67,0,1.07,0a2.64,2.64,0,0,0,.56,0h.07c-.5.35-1,.67-1.54,1.09l-.24.16a5.69,5.69,0,0,1-1.25.07,3.89,3.89,0,0,0-1.76.26,5.79,5.79,0,0,0-.9.63c.23-.12.73-.37,1-.46a3.13,3.13,0,0,1,1.1-.2c.4,0,.67,0,1.06,0h.32a11.29,11.29,0,0,1-2.14.93c-.7.22-2.36.59-3.14.75a20.47,20.47,0,0,0,3.39-.39,8,8,0,0,0,2.24-.86c-.18.25-.34.45-.53.73a3.5,3.5,0,0,1-.88.85c-.23.15-.8.46-1.06.6a6.78,6.78,0,0,0,1.2-.47,4.12,4.12,0,0,0,1.34-1.38,8.33,8.33,0,0,1,.5-.67c.42-.27.83-.55,1.24-.84h0l.36-.26-.09.13a3.76,3.76,0,0,0-.25.54c-.13.4-.26.66-.4,1a3.43,3.43,0,0,1-.65,1c-.18.21-.66.65-.88.85a7.71,7.71,0,0,0,1-.75,4.09,4.09,0,0,0,1-1.67,4.43,4.43,0,0,1,.91-1.65l.31-.22.12,0h-.09c.36-.24.72-.48,1.09-.7a2.91,2.91,0,0,0-.27.69,4,4,0,0,0-.11.68c0,.48-.07.81-.1,1.29a4.21,4.21,0,0,1-.38,1.35c-.14.29-.52.93-.71,1.22a8,8,0,0,0,.92-1.17,4.66,4.66,0,0,0,.53-2.16,5.27,5.27,0,0,1,.46-2.09,7.71,7.71,0,0,1,2-.78,1.9,1.9,0,0,1,1.18,0Z" transform="translate(-204.74 -23.02)"/><path class="cls-13" d="M349.74,697.53a6.75,6.75,0,0,0-4.05.32,5.58,5.58,0,0,0-2,1.67,8.92,8.92,0,0,0-1.6,4.05,11.91,11.91,0,0,1-1.2,4.06c-.14.24-.3.49-.45.73,1.76-.92,3.63-1.67,5.39-2.59a13.54,13.54,0,0,0,4.52-3.44,6.28,6.28,0,0,0,.94-1.76,2.65,2.65,0,0,0-.17-2.55,1.41,1.41,0,0,0-1.36-.49" transform="translate(-204.74 -23.02)"/><path class="cls-12" d="M348.62,697.52a2.89,2.89,0,0,0-1.15.63l-.66.23a4,4,0,0,0-1.31,1,4.12,4.12,0,0,1-1.29,1.06.62.62,0,0,1-.39.07l.07,0a1.58,1.58,0,0,0,1.15-.4,3.06,3.06,0,0,0,.37-.35c.23-.27.42-.44.65-.7a3.33,3.33,0,0,1,.85-.63l.39-.19a6.45,6.45,0,0,0-1,1.29,6.82,6.82,0,0,0-.55,1.12,2.83,2.83,0,0,1-.11.31,5.19,5.19,0,0,1-1,.83,3.37,3.37,0,0,0-1.15,1,3.61,3.61,0,0,0-.35.81c.1-.18.35-.58.47-.74a3.22,3.22,0,0,1,.7-.66c.29-.18.48-.33.78-.51a2.82,2.82,0,0,0,.39-.29l0,0c-.19.45-.38.87-.58,1.4l-.09.21a5.89,5.89,0,0,1-.88.65,2.79,2.79,0,0,0-1.5,1.83c.11-.19.35-.58.47-.74a2.87,2.87,0,0,1,.71-.66c.29-.18.47-.33.77-.51l.23-.16a9.44,9.44,0,0,1-1.11,1.6c-.4.47-1.42,1.51-1.91,2a20.59,20.59,0,0,0,2.27-1.88,7.08,7.08,0,0,0,1.21-1.61c0,.24,0,.44,0,.7a2.65,2.65,0,0,1-.22.94c-.1.21-.36.67-.48.88a6.09,6.09,0,0,0,.64-.87,3,3,0,0,0,.3-1.49c0-.21,0-.43,0-.64.18-.37.33-.74.48-1.11h0l.13-.33v.12a2.23,2.23,0,0,0,.08.45c.1.3.13.52.22.83a2.33,2.33,0,0,1,0,.94c0,.21-.17.7-.23.93a5,5,0,0,0,.39-1,2.67,2.67,0,0,0-.11-1.48,2.91,2.91,0,0,1-.15-1.43l.12-.28a.3.3,0,0,1,.08-.08l-.07.05q.21-.5.45-1a2,2,0,0,0,.14.55,2.09,2.09,0,0,0,.26.46c.22.3.33.53.55.83a2.76,2.76,0,0,1,.38,1c0,.24.07.81.08,1.08a5.59,5.59,0,0,0,.1-1.15,3.11,3.11,0,0,0-.67-1.56,3.46,3.46,0,0,1-.69-1.48A6.94,6.94,0,0,1,348,698a1.79,1.79,0,0,1,.86-.56Z" transform="translate(-204.74 -23.02)"/><path class="cls-8" d="M349.05,695.49a8,8,0,0,0-3.48-4.21,7,7,0,0,0-3.51-.62,13.42,13.42,0,0,0-6,2.15,18.93,18.93,0,0,1-5.71,2.6c-.4.08-.8.14-1.21.2,2.44,1.07,4.75,2.42,7.19,3.5a16.63,16.63,0,0,0,7.52,1.7,9,9,0,0,0,2.79-.66,4.59,4.59,0,0,0,2.88-2.67,1.93,1.93,0,0,0-.47-2" transform="translate(-204.74 -23.02)"/><path class="cls-12" d="M347.68,694.26a3.26,3.26,0,0,0-1.71-.66l0,0,0,0a5.3,5.3,0,0,0-.8,0,6.34,6.34,0,0,1-1.59-.9,4.65,4.65,0,0,0-2-.95,6.08,6.08,0,0,0-1.35,0c.31,0,1,.13,1.29.2a3.83,3.83,0,0,1,1.27.56c.4.28.69.44,1.08.74a2.84,2.84,0,0,0,.6.35l.06,0a8.1,8.1,0,0,0-.86.13,8.64,8.64,0,0,0-1.67.48l-.15.06a7.08,7.08,0,0,1-1.45-.63,4.74,4.74,0,0,0-2.09-.69,6.46,6.46,0,0,0-1.34.19c.32,0,1,0,1.31,0a4.16,4.16,0,0,1,1.33.39c.43.23.74.35,1.17.6a3.23,3.23,0,0,0,.64.27h0c-.83.32-1.54.53-2.46.89a7.2,7.2,0,0,1-1.11.32,5.16,5.16,0,0,1-1.09-.46,3.43,3.43,0,0,0-1.54-.51,4.07,4.07,0,0,0-1,.14c.24,0,.74,0,1,0a3.3,3.3,0,0,1,1,.28c.32.17.54.26.86.44a2.87,2.87,0,0,0,.4.18,13.37,13.37,0,0,1-2,.21c-.82,0-2.72-.09-3.6-.16a23.58,23.58,0,0,0,3.74.64,11.86,11.86,0,0,0,4.95-.94,2.71,2.71,0,0,0-.36.4c-.33.43-.61.7-.95,1.12a4.52,4.52,0,0,1-1.25,1c-.32.18-1.09.52-1.45.67a9.39,9.39,0,0,0,1.62-.48,5.46,5.46,0,0,0,1.92-1.66,7.52,7.52,0,0,1,1.37-1.39c.36-.14.72-.27,1.09-.39h0c.4-.14.8-.26,1.21-.37a3.88,3.88,0,0,0-.53.68,3.26,3.26,0,0,0-.33.71c-.17.52-.34.86-.53,1.38a4.52,4.52,0,0,1-.85,1.36c-.24.27-.86.85-1.16,1.11a8.91,8.91,0,0,0,1.38-1,5.29,5.29,0,0,0,1.27-2.19,6,6,0,0,1,1.18-2.17,10.31,10.31,0,0,1,1.91-.25,2.64,2.64,0,0,0-.94,1,3.85,3.85,0,0,0-.34.71c-.16.52-.34.86-.52,1.37a4.46,4.46,0,0,1-.85,1.36,15.37,15.37,0,0,1-1.16,1.11,8.85,8.85,0,0,0,1.38-1,5.33,5.33,0,0,0,1.27-2.2,5.7,5.7,0,0,1,1.23-2.22l.18-.14h.27a2,2,0,0,1,1.25.39Z" transform="translate(-204.74 -23.02)"/><path class="cls-8" d="M365.8,697.86a5,5,0,0,1,3.3-1,4.38,4.38,0,0,1,2.08.88,8.69,8.69,0,0,1,2.44,3.24,12,12,0,0,0,2.12,3.36c.18.18.38.36.57.53-1.66-.28-3.36-.37-5-.65a10.41,10.41,0,0,1-4.57-1.71,5.8,5.8,0,0,1-1.26-1.32,2.94,2.94,0,0,1-.6-2.42,1.22,1.22,0,0,1,.95-.89" transform="translate(-204.74 -23.02)"/><path class="cls-12" d="M372.62,703.07a7.08,7.08,0,0,1-1.87-1.56l-.34-.43a2.28,2.28,0,0,0,.44,0c.33,0,.55,0,.88,0a2.6,2.6,0,0,1,.94.22c.2.08.64.32.85.44a5.86,5.86,0,0,0-.82-.59,3.29,3.29,0,0,0-1.49-.3,4.71,4.71,0,0,1-1-.1c-.28-.33-.55-.64-.86-1.06a4.11,4.11,0,0,0-.44-.51l.24,0a2.46,2.46,0,0,0,.47,0c.32,0,.55,0,.88-.06a2.81,2.81,0,0,1,.95.12,8.2,8.2,0,0,1,.89.35,5.41,5.41,0,0,0-.88-.5,3.34,3.34,0,0,0-1.51-.14,4.16,4.16,0,0,1-1.27,0l-.15-.13a5.33,5.33,0,0,0-.86-.61,1.53,1.53,0,0,0,.37-.08c.26-.08.45-.11.72-.19a2.32,2.32,0,0,1,.81-.07c.18,0,.61.1.8.14a4.77,4.77,0,0,0-.81-.26,2.66,2.66,0,0,0-1.28.14,4.59,4.59,0,0,1-.88.18A2.08,2.08,0,0,0,366,698l-.18.06a1.25,1.25,0,0,1,.88.14l.47.26a3.48,3.48,0,0,1,.13,1.51,3.08,3.08,0,0,0,.15,1.51,4.68,4.68,0,0,0,.5.87c-.1-.21-.29-.68-.36-.89a2.74,2.74,0,0,1-.12-1c0-.32,0-.55.05-.88a1.86,1.86,0,0,0,0-.47,1.6,1.6,0,0,0-.15-.57,7.32,7.32,0,0,1,1.39,1.28,5.4,5.4,0,0,1,.13,1.07,3.23,3.23,0,0,0,.32,1.48,4.41,4.41,0,0,0,.61.81c-.12-.2-.37-.64-.46-.84a2.69,2.69,0,0,1-.24-.93c0-.33,0-.55,0-.88a1.78,1.78,0,0,0,0-.39c.17.21.34.41.5.62a8.14,8.14,0,0,0,2.86,2.56,14.38,14.38,0,0,0,2.44.77C374.26,703.88,373.1,703.35,372.62,703.07Z" transform="translate(-204.74 -23.02)"/><path class="cls-13" d="M361,696.23a8.7,8.7,0,0,1,5.61-.62,5,5,0,0,1,2.49,2,10.9,10.9,0,0,1,1.42,5.79,16.25,16.25,0,0,0,.88,5.92c.14.33.32.66.49,1-2.29-.93-4.75-1.58-7-2.51a12,12,0,0,1-5.65-4.06,7,7,0,0,1-1-2.45,4.94,4.94,0,0,1,.76-4,2.62,2.62,0,0,1,2-1.12" transform="translate(-204.74 -23.02)"/><path class="cls-12" d="M366.64,704.52l.24.13a2.29,2.29,0,0,0,.46.17c.34.08.56.16.89.25a2.92,2.92,0,0,1,.9.46c.18.14.58.49.76.66a5.28,5.28,0,0,0-.7-.8,3.37,3.37,0,0,0-1.44-.68,4,4,0,0,1-1.32-.54,8.6,8.6,0,0,1-.67-1.41c-.05-.17-.11-.32-.16-.47l.18.07a3,3,0,0,0,.58.13c.41,0,.68.11,1.09.16a3.49,3.49,0,0,1,1.13.4c.24.13.76.49,1,.66a6.27,6.27,0,0,0-.94-.84,3.94,3.94,0,0,0-1.82-.57,6,6,0,0,1-1.33-.3c-.24-.63-.47-1.18-.69-1.91-.06-.17-.13-.36-.21-.54a3,3,0,0,0,.56.24,3.25,3.25,0,0,0,.62.13c.43,0,.73.11,1.16.16a3.65,3.65,0,0,1,1.22.41c.26.14.82.52,1.08.7a6.64,6.64,0,0,0-1-.89,4.24,4.24,0,0,0-1.95-.59,5,5,0,0,1-1.8-.46c-.09-.2-.19-.39-.28-.57s-.4-.65-.63-1a3.17,3.17,0,0,0,.44.12,2.64,2.64,0,0,0,.63,0c.43,0,.73,0,1.17,0a3.79,3.79,0,0,1,1.26.26c.27.11.88.41,1.16.56a7.21,7.21,0,0,0-1.13-.76,4.34,4.34,0,0,0-2-.34,5.06,5.06,0,0,1-1.78-.21,3.29,3.29,0,0,0-1.78-1.18l-.23,0a1.93,1.93,0,0,1,1,.65,7.08,7.08,0,0,1,.65.82s0,.07,0,.1a4.53,4.53,0,0,1-1,1.75,4.41,4.41,0,0,0-1,1.77,7.61,7.61,0,0,0-.12,1.35c.06-.31.21-1,.3-1.25a3.77,3.77,0,0,1,.59-1.14c.28-.34.45-.59.74-.92a3,3,0,0,0,.35-.52,2.19,2.19,0,0,0,.3-1,13,13,0,0,1,1.19,2.5,4.74,4.74,0,0,1-.78,1.75,4.3,4.3,0,0,0-.77,1.88,7.59,7.59,0,0,0,.05,1.35c0-.31.09-1,.14-1.27a3.61,3.61,0,0,1,.45-1.21c.23-.37.36-.64.61-1a3,3,0,0,0,.28-.57,2.49,2.49,0,0,0,.16-.55l.21.58a23.38,23.38,0,0,0,.87,2.17c0,.26-.1.52-.16.77a3.46,3.46,0,0,0-.13,1.62,5.9,5.9,0,0,0,.37,1c-.06-.24-.18-.77-.21-1a3.07,3.07,0,0,1,.05-1c.08-.34.12-.58.21-.91a.65.65,0,0,0,0-.13,7.66,7.66,0,0,0,1.32,1.89,20.86,20.86,0,0,0,2.58,2.22c-.55-.57-1.71-1.81-2.17-2.38C367.13,705.24,366.88,704.9,366.64,704.52Z" transform="translate(-204.74 -23.02)"/><path class="cls-8" d="M356.68,695.57a10.69,10.69,0,0,0-6.82,1.35,6.19,6.19,0,0,0-2.19,3.28c-.71,2.47-.18,5,.47,7.34s1.42,4.77,1.16,7.27c-.05.45-.13.9-.21,1.35,2.34-1.95,5-3.62,7.34-5.56s4.42-4.25,5.14-6.84a8.69,8.69,0,0,0,.23-3.24,6,6,0,0,0-2.35-4.38,3.19,3.19,0,0,0-2.77-.57" transform="translate(-204.74 -23.02)"/><path class="cls-12" d="M358.6,701.58a5.83,5.83,0,0,0-1.65-2.3,6.35,6.35,0,0,1-1.69-2.28,1.74,1.74,0,0,1-.07-.29,2.06,2.06,0,0,1,.84-1l-.26.12a3.75,3.75,0,0,0-1.4,1.52,5.31,5.31,0,0,1-2,.67,4.67,4.67,0,0,0-2.06.75,6.08,6.08,0,0,0-.93,1c.24-.2.79-.62,1-.78a3.89,3.89,0,0,1,1.28-.52c.48-.08.8-.18,1.28-.25a3.47,3.47,0,0,0,.67-.19,2.61,2.61,0,0,0,.53-.26,10.21,10.21,0,0,0-.62,2c-.05.27-.1.57-.14.88l-.05,0a5.09,5.09,0,0,1-2.08.72,4.75,4.75,0,0,0-2.06.74,5.66,5.66,0,0,0-.92,1,11,11,0,0,1,1-.79,3.8,3.8,0,0,1,1.28-.51c.48-.09.79-.18,1.28-.26a3,3,0,0,0,.67-.18,2.35,2.35,0,0,0,.82-.5,7.07,7.07,0,0,0,0,.76c0,.81,0,1.46-.08,2.16a8.25,8.25,0,0,1-1.33.77,4.74,4.74,0,0,0-1.79,1.26,6.48,6.48,0,0,0-.63,1.19c.18-.26.59-.81.79-1a4,4,0,0,1,1.1-.83c.44-.21.72-.39,1.17-.59a3.82,3.82,0,0,0,.59-.35l.08-.06c0,.31,0,.63-.05,1a12.43,12.43,0,0,1-.84,3.81c-.32.85-1.23,2.73-1.67,3.6a25.55,25.55,0,0,0,2.22-3.56,10.1,10.1,0,0,0,.62-1.63h0c.15.49.21.84.35,1.33a4.17,4.17,0,0,1,.11,1.5c0,.34-.19,1.12-.27,1.48a8.8,8.8,0,0,0,.5-1.5,5,5,0,0,0-.24-2.37,9.63,9.63,0,0,1-.28-1.18,15.61,15.61,0,0,0,.24-1.67h0c0-.32.05-.65.07-1a3.42,3.42,0,0,0,.13.34,4.15,4.15,0,0,0,.38.64c.31.4.48.71.78,1.13a4.29,4.29,0,0,1,.61,1.37c.08.34.2,1.12.25,1.49a8.45,8.45,0,0,0,0-1.59,5,5,0,0,0-1-2.14,5.63,5.63,0,0,1-1-2,1.93,1.93,0,0,0,0-.24c0-.12,0-.24,0-.36s0,0,0,0l0,0c0-.72.06-1.44.14-2.17a4.07,4.07,0,0,0,.52,1,4.42,4.42,0,0,0,.62.74c.5.45.79.81,1.27,1.28a6,6,0,0,1,1.1,1.64c.18.41.51,1.39.65,1.86a11.87,11.87,0,0,0-.4-2,6.66,6.66,0,0,0-1.82-2.53,7.13,7.13,0,0,1-1.86-2.51v0a10.34,10.34,0,0,1,.8-2.86,2.74,2.74,0,0,0,.56,1.5,4.57,4.57,0,0,0,.58.67c.45.41.71.74,1.15,1.16a5.37,5.37,0,0,1,1,1.5c.16.37.46,1.27.59,1.69A9.88,9.88,0,0,0,358.6,701.58Z" transform="translate(-204.74 -23.02)"/><path class="cls-13" d="M361.17,695a7.66,7.66,0,0,1-2.2-4.49,4.41,4.41,0,0,1,.93-2.68,9.57,9.57,0,0,1,4.41-2.93,14.5,14.5,0,0,0,4.66-2.51c.24-.22.46-.47.68-.71-.09,2.19.11,4.44,0,6.63A10.53,10.53,0,0,1,368,694.2a6,6,0,0,1-1.75,1.54,4.33,4.33,0,0,1-3.53.57,2.31,2.31,0,0,1-1.54-1.34" transform="translate(-204.74 -23.02)"/><path class="cls-12" d="M366.38,687.77a1.85,1.85,0,0,0,0-.23,1.62,1.62,0,0,0,0-.44c0-.3,0-.51-.05-.82a2.41,2.41,0,0,1,.11-.88c.06-.2.24-.63.33-.84a5.59,5.59,0,0,0-.47.82,3.05,3.05,0,0,0-.13,1.41,3.79,3.79,0,0,1,0,1.26,7,7,0,0,1-1,1l-.34.28v-.17a2.31,2.31,0,0,0-.06-.52c-.09-.35-.12-.6-.2-1a3.15,3.15,0,0,1,0-1.06c0-.24.19-.79.26-1a5.81,5.81,0,0,0-.42,1,3.47,3.47,0,0,0,.07,1.69,5.4,5.4,0,0,1,.15,1.2c-.45.39-.84.74-1.38,1.15l-.39.33a2.36,2.36,0,0,0,0-.53,2.1,2.1,0,0,0-.08-.56c-.1-.37-.13-.64-.22-1a3.33,3.33,0,0,1,0-1.13c0-.26.19-.84.26-1.11a6.86,6.86,0,0,0-.44,1.12,3.76,3.76,0,0,0,.1,1.79,4.4,4.4,0,0,1,.15,1.65l-.38.4a8.8,8.8,0,0,0-.62.82,2.6,2.6,0,0,0,0-.4,2.55,2.55,0,0,0-.15-.54c-.15-.36-.21-.62-.34-1a3.36,3.36,0,0,1-.17-1.12c0-.26.08-.86.12-1.14a6.67,6.67,0,0,0-.29,1.17,3.64,3.64,0,0,0,.32,1.77,4.67,4.67,0,0,1,.36,1.55,3,3,0,0,0-.46,1.83l0,.21a1.65,1.65,0,0,1,.25-1,6.36,6.36,0,0,1,.49-.78h.08a4,4,0,0,1,1.78.33,3.87,3.87,0,0,0,1.77.3,6.62,6.62,0,0,0,1.16-.31c-.27,0-.87.12-1.13.13a3.39,3.39,0,0,1-1.13-.15c-.36-.13-.62-.19-1-.34a3.41,3.41,0,0,0-.55-.14,2,2,0,0,0-.9,0,11.86,11.86,0,0,1,1.72-1.75,4.46,4.46,0,0,1,1.7.13,3.75,3.75,0,0,0,1.79.07,6.06,6.06,0,0,0,1.12-.44c-.27.07-.85.23-1.11.27a3.37,3.37,0,0,1-1.14,0c-.37-.09-.64-.11-1-.21a2.59,2.59,0,0,0-.55-.07,2.28,2.28,0,0,0-.52,0l.43-.35c.52-.44,1.06-.89,1.55-1.38.22-.05.46-.07.69-.1a3,3,0,0,0,1.39-.38,4.88,4.88,0,0,0,.73-.62,7,7,0,0,1-.77.48,2.41,2.41,0,0,1-.87.27c-.31,0-.52.08-.82.1h-.12a7.3,7.3,0,0,0,1.18-1.67,19.22,19.22,0,0,0,1.07-2.82c-.3.63-1,2-1.33,2.52A8.6,8.6,0,0,1,366.38,687.77Z" transform="translate(-204.74 -23.02)"/><path class="cls-8" d="M357.67,695.75a9.22,9.22,0,0,0,1.71-5.77,5.4,5.4,0,0,0-1.65-3,11.53,11.53,0,0,0-5.81-2.58,17.42,17.42,0,0,1-6-2c-.33-.22-.64-.46-1-.7.56,2.57.77,5.28,1.32,7.85s1.48,5.09,3.18,6.69a7.36,7.36,0,0,0,2.39,1.47,5.2,5.2,0,0,0,4.3,0,2.77,2.77,0,0,0,1.55-1.9" transform="translate(-204.74 -23.02)"/><path class="cls-12" d="M350.05,688.27c0-.09-.07-.18-.1-.27a3,3,0,0,1-.09-.52c0-.36-.07-.61-.1-1a3.28,3.28,0,0,0-.31-1c-.11-.22-.41-.7-.55-.92a6,6,0,0,1,.71.88,3.55,3.55,0,0,1,.44,1.64,4.41,4.41,0,0,0,.32,1.49,8.56,8.56,0,0,0,1.35,1l.47.27a1.55,1.55,0,0,1,0-.21,2.66,2.66,0,0,1,0-.63c0-.44,0-.74,0-1.17a3.71,3.71,0,0,0-.21-1.27c-.09-.27-.37-.89-.51-1.17a7.11,7.11,0,0,1,.71,1.15,4.26,4.26,0,0,1,.26,2,6.38,6.38,0,0,0,0,1.45c.62.37,1.16.72,1.88,1.09.17.09.35.2.53.32a3.83,3.83,0,0,1-.15-.63,3.1,3.1,0,0,1,0-.68c.05-.46,0-.78.06-1.25a4,4,0,0,0-.21-1.35,11.27,11.27,0,0,0-.53-1.26,7.62,7.62,0,0,1,.75,1.23,4.59,4.59,0,0,1,.24,2.15,5.45,5.45,0,0,0,.15,2,5.87,5.87,0,0,1,.54.41,7.86,7.86,0,0,1,.9.84,2.67,2.67,0,0,1,0-.48,3.91,3.91,0,0,1,.06-.68c.1-.45.12-.77.21-1.23a3.86,3.86,0,0,0,0-1.37c-.06-.31-.27-1-.37-1.32A7.35,7.35,0,0,1,357,689a4.55,4.55,0,0,1,0,2.17,5.6,5.6,0,0,0-.11,1.91,3.51,3.51,0,0,1,.9,2.08v.25a2,2,0,0,0-.5-1.15,7.22,7.22,0,0,0-.73-.83h-.11a4.77,4.77,0,0,0-2,.75,4.54,4.54,0,0,1-2.05.71,6.86,6.86,0,0,1-1.43-.13c.33,0,1.05,0,1.36-.07a3.79,3.79,0,0,0,1.31-.41c.41-.23.7-.35,1.1-.59a3.46,3.46,0,0,1,.62-.28,2.22,2.22,0,0,1,1.08-.12,13.18,13.18,0,0,0-2.4-1.73,5.15,5.15,0,0,0-2,.49,4.5,4.5,0,0,1-2.12.45,7,7,0,0,1-1.41-.31,13.2,13.2,0,0,0,1.37.1,3.86,3.86,0,0,0,1.35-.24c.43-.17.74-.26,1.17-.45a3.4,3.4,0,0,1,.64-.2,4.2,4.2,0,0,1,.61-.06l-.57-.32c-.71-.41-1.43-.84-2.11-1.32a7.85,7.85,0,0,0-.84,0,3.73,3.73,0,0,1-1.73-.17,6.63,6.63,0,0,1-1-.59,10.8,10.8,0,0,0,1,.42,3.28,3.28,0,0,0,1.09.14c.37,0,.62,0,1,0h.15a8.49,8.49,0,0,1-1.74-1.75,21.38,21.38,0,0,1-1.84-3.13c.49.69,1.57,2.14,2.09,2.73A11.08,11.08,0,0,0,350.05,688.27Z" transform="translate(-204.74 -23.02)"/><path class="cls-8" d="M358.49,693.09a6.77,6.77,0,0,1,3.54-3,5.87,5.87,0,0,1,3,0,11.51,11.51,0,0,1,4.69,2.71,16.08,16.08,0,0,0,4.37,3c.32.13.65.24,1,.36-2.2.52-4.34,1.3-6.53,1.82a14,14,0,0,1-6.54.29,7.78,7.78,0,0,1-2.23-1,3.87,3.87,0,0,1-2-2.66,1.62,1.62,0,0,1,.69-1.59" transform="translate(-204.74 -23.02)"/><path class="cls-12" d="M369.62,695.94a9.25,9.25,0,0,1-3.11-1l-.65-.34a3.43,3.43,0,0,0,.57-.17c.41-.18.7-.26,1.1-.42a3.86,3.86,0,0,1,1.27-.22c.29,0,1,.07,1.28.1a6.62,6.62,0,0,0-1.32-.29,4.22,4.22,0,0,0-2,.41,7.57,7.57,0,0,1-1.28.4c-.52-.26-1-.51-1.61-.86a7,7,0,0,0-.82-.4l.32-.08a3.72,3.72,0,0,0,.58-.24c.38-.22.66-.33,1.05-.53a3.81,3.81,0,0,1,1.24-.36c.29,0,1,0,1.28,0a7.66,7.66,0,0,0-1.34-.16,4.39,4.39,0,0,0-1.94.62,5.53,5.53,0,0,1-1.59.62l-.24-.08a7.18,7.18,0,0,0-1.39-.31,2.42,2.42,0,0,0,.42-.29c.28-.24.49-.38.78-.61a3.25,3.25,0,0,1,1-.51c.23-.07.8-.19,1.06-.24a6.38,6.38,0,0,0-1.15.1,3.61,3.61,0,0,0-1.5.84,5.61,5.61,0,0,1-1,.68,2.77,2.77,0,0,0-1.84.52l-.18.17a1.57,1.57,0,0,1,1.14-.29,5.82,5.82,0,0,1,.73.08,4.59,4.59,0,0,1,.94,1.79,4.25,4.25,0,0,0,1,1.78,6.48,6.48,0,0,0,1.08.81c-.23-.21-.71-.68-.9-.91a3.65,3.65,0,0,1-.66-1.1c-.13-.42-.26-.69-.39-1.11a3.76,3.76,0,0,0-.25-.58,3,3,0,0,0-.49-.63,10.2,10.2,0,0,1,2.37.86,5.9,5.9,0,0,1,.72,1.24,4.24,4.24,0,0,0,1.18,1.66,7.19,7.19,0,0,0,1.17.69c-.26-.19-.79-.6-1-.8a3.92,3.92,0,0,1-.78-1c-.18-.39-.34-.65-.51-1a3.57,3.57,0,0,0-.26-.46l.94.5a10.81,10.81,0,0,0,4.86,1.66,17.68,17.68,0,0,0,3.41-.33C372.06,696.09,370.35,696,369.62,695.94Z" transform="translate(-204.74 -23.02)"/><path class="cls-13" d="M356.81,694.11a5.22,5.22,0,0,0-3.34-1.21,4.54,4.54,0,0,0-2.17.81,8.8,8.8,0,0,0-2.65,3.18,12.28,12.28,0,0,1-2.33,3.34c-.2.18-.41.34-.61.51,1.71-.2,3.45-.21,5.17-.41a10.79,10.79,0,0,0,4.77-1.53,5.94,5.94,0,0,0,1.35-1.29,3,3,0,0,0,.73-2.44,1.25,1.25,0,0,0-.92-1" transform="translate(-204.74 -23.02)"/><path class="cls-12" d="M349.58,699.1a7.24,7.24,0,0,0,2-1.5l.37-.42a2.37,2.37,0,0,1-.46,0c-.33,0-.56,0-.9,0a2.74,2.74,0,0,0-1,.18c-.21.08-.68.3-.9.41a6.13,6.13,0,0,1,.87-.56,3.22,3.22,0,0,1,1.54-.23,7.11,7.11,0,0,0,1,0c.3-.33.6-.64.93-1.05a4.44,4.44,0,0,1,.48-.5l-.25,0a2,2,0,0,1-.49,0c-.33,0-.56,0-.89-.1a2.55,2.55,0,0,0-1,.08,8.45,8.45,0,0,0-.93.31,6.64,6.64,0,0,1,.92-.47,3.28,3.28,0,0,1,1.56-.06,4.36,4.36,0,0,0,1.3,0l.16-.13a5.63,5.63,0,0,1,.91-.58,2.66,2.66,0,0,1-.38-.1c-.26-.1-.45-.14-.72-.24a2.51,2.51,0,0,0-.83-.1c-.19,0-.62.07-.82.1a5.77,5.77,0,0,1,.84-.23,2.85,2.85,0,0,1,1.31.21,4.56,4.56,0,0,0,.88.23,2.14,2.14,0,0,1,1.47-.12l.17.07a1.29,1.29,0,0,0-.9.1,4.66,4.66,0,0,0-.5.25,3.43,3.43,0,0,0-.2,1.53,3.2,3.2,0,0,1-.23,1.54,5,5,0,0,1-.56.87,8.82,8.82,0,0,0,.41-.89,2.79,2.79,0,0,0,.18-1c0-.33,0-.56,0-.9a1.94,1.94,0,0,1,0-.48,1.87,1.87,0,0,1,.18-.58,8.26,8.26,0,0,0-1.48,1.24,5.65,5.65,0,0,0-.19,1.09,3.23,3.23,0,0,1-.4,1.5,5,5,0,0,1-.66.8,9.42,9.42,0,0,0,.51-.84,2.81,2.81,0,0,0,.29-.94c0-.34.07-.56.09-.9a1.89,1.89,0,0,1,.07-.39l-.55.6a8.29,8.29,0,0,1-3.05,2.48,14,14,0,0,1-2.54.67C347.85,699.85,349.07,699.36,349.58,699.1Z" transform="translate(-204.74 -23.02)"/><path class="cls-11" d="M356.11,661.21a1.11,1.11,0,0,1-1.05-.74,30.33,30.33,0,0,1-2.08-8.41,13.27,13.27,0,0,1,2.13-8.68,1.13,1.13,0,0,1,1.82,1.34,11,11,0,0,0-1.7,7.19,28.74,28.74,0,0,0,1.94,7.78,1.12,1.12,0,0,1-1.06,1.52Z" transform="translate(-204.74 -23.02)"/><rect class="cls-2" x="55.37" y="680.85" width="47.35" height="169.3"/><path class="cls-4" d="M308.57,704.23H260.11V688.66h59.35a.82.82,0,0,1,.63,1.33Z" transform="translate(-204.74 -23.02)"/><path class="cls-4" d="M55.37,680.85h48a3.28,3.28,0,0,1,3.28,3.28v0a3.28,3.28,0,0,1-3.28,3.28h-48a0,0,0,0,1,0,0v-6.57A0,0,0,0,1,55.37,680.85Z"/><g class="cls-14"><path class="cls-6" d="M204.74,704.22H319.93v-8.74a8.71,8.71,0,0,0-7.2,3.79,8.73,8.73,0,0,0-14.4,0,8.73,8.73,0,0,0-14.4,0,8.73,8.73,0,0,0-14.4,0,8.72,8.72,0,0,0-14.4,0c-.14-.2-.29-.38-.44-.56l0-.06c-.16-.19-.32-.37-.49-.54l-.12-.12c-.17-.17-.35-.33-.54-.49l-.08-.06a8.75,8.75,0,0,0-2.83-1.54l-.12,0-.74-.19-.14,0a8.27,8.27,0,0,0-1.66-.18,8.73,8.73,0,0,0-6.57,3,8,8,0,0,0-.63.81,8.73,8.73,0,0,0-13.77-.81,8,8,0,0,0-.63.81,8.73,8.73,0,0,0-14.4,0,8.73,8.73,0,0,0-7.2-3.79Z" transform="translate(-204.74 -23.02)"/></g><path class="cls-4" d="M55.37,713.5h0a31.29,31.29,0,0,1,31.29,31.29v63.33a0,0,0,0,1,0,0H55.37a0,0,0,0,1,0,0V713.5A0,0,0,0,1,55.37,713.5Z"/><path class="cls-6" d="M55.37,717.87h0a26.29,26.29,0,0,1,26.29,26.29v57.5a0,0,0,0,1,0,0H55.37a0,0,0,0,1,0,0V717.87A0,0,0,0,1,55.37,717.87Z"/><path class="cls-2" d="M260.11,936.82H307.4v-44c1.36-12.29,6.53-17.11,6.53-17.11H307.4V869H260.11Z" transform="translate(-204.74 -23.02)"/><path class="cls-3" d="M260.11,876H316.8s16.39.39,9.74-14.15c-4.81-10.51.65-13,4-13.59A6.06,6.06,0,0,0,334.46,859a5.37,5.37,0,0,0,.7,0h0s10.09-.46,8.46-12.87-14.49-9.62-14.49-9.62-11.25.78-12.18,11.11-38.26,11.38-38.26,11.38H260.11Z" transform="translate(-204.74 -23.02)"/><rect class="cls-2" x="55.37" y="918.38" width="47.35" height="169.3"/><path class="cls-4" d="M308.57,941.76H260.11V926.19h59.35a.82.82,0,0,1,.63,1.33Z" transform="translate(-204.74 -23.02)"/><path class="cls-4" d="M55.37,918.38h48a3.28,3.28,0,0,1,3.28,3.28v0a3.28,3.28,0,0,1-3.28,3.28h-48a0,0,0,0,1,0,0v-6.57a0,0,0,0,1,0,0Z"/><g class="cls-15"><path class="cls-6" d="M204.74,941.75H319.93V933a8.71,8.71,0,0,0-7.2,3.79,8.73,8.73,0,0,0-14.4,0,8.73,8.73,0,0,0-14.4,0,8.73,8.73,0,0,0-14.4,0,8.72,8.72,0,0,0-14.4,0c-.14-.2-.29-.38-.44-.56l0-.06c-.16-.19-.32-.37-.49-.54l-.12-.12c-.17-.17-.35-.33-.54-.49l-.08-.06a8.75,8.75,0,0,0-2.83-1.54l-.12,0-.74-.19-.14,0a8.27,8.27,0,0,0-1.66-.18,8.71,8.71,0,0,0-6.57,3,6.92,6.92,0,0,0-.63.8A8.73,8.73,0,0,0,227,936a8,8,0,0,0-.63.81,8.73,8.73,0,0,0-14.4,0,8.73,8.73,0,0,0-7.2-3.79Z" transform="translate(-204.74 -23.02)"/></g><path class="cls-4" d="M55.37,951h0a31.29,31.29,0,0,1,31.29,31.29v63.33a0,0,0,0,1,0,0H55.37a0,0,0,0,1,0,0V951A0,0,0,0,1,55.37,951Z"/><path class="cls-6" d="M55.37,955.4h0a26.29,26.29,0,0,1,26.29,26.29v57.5a0,0,0,0,1,0,0H55.37a0,0,0,0,1,0,0V955.4A0,0,0,0,1,55.37,955.4Z"/><path class="cls-9" d="M281.38,809.2s8.91.6,3,13.83C284.38,823,273.92,813.6,281.38,809.2Z" transform="translate(-204.74 -23.02)"/><path class="cls-8" d="M327.44,807.08c-.24-2.13-1.68-5-4.27-4.42a3.38,3.38,0,0,0-2.41,2.41,4.81,4.81,0,0,0,.78,3.78c.6.93,2.09.07,1.49-.87a3.09,3.09,0,0,1-.57-2.57,1.51,1.51,0,0,1,1.42-1.1c.74.07,1.24.88,1.49,1.5a5.64,5.64,0,0,1-1.07,5.85,3.52,3.52,0,0,1-3.91.59c-3.61-1.6-4.75-6.19-5.12-9.73-.41-4,0-8-.57-12a23.07,23.07,0,0,0-1.13-4.9,77.56,77.56,0,0,0-1.29-14.88c1.57-4.28,2.6-8.86.61-13.19s-6.92-6.76-11.11-8.79l-.46-.22a91.57,91.57,0,0,0-15.6-16.19,40.32,40.32,0,0,0,10-3.31,54.78,54.78,0,0,0,5.43-3.07c3.82-2.4,7.34-4.4,7.34-8.94a11.09,11.09,0,0,0-.18-1.92c-.2-1-.35-.56-.35-.56-4.06,5.62-10.16,8.83-17,9.92a49.25,49.25,0,0,1-14.43.62l-1-.16c-11-7.21-20.22-10.75-20.89-11.29v15.68s14-3.22,32.49,16.75a10.59,10.59,0,0,1-.17,4.24c-.39,1.58-1.08,3.54-2.69,4.27s-3.22-.62-3.8-2a2.13,2.13,0,0,1,.2-2.19.73.73,0,0,1,.84-.26.55.55,0,0,1,.23.6.69.69,0,0,0,.24.91.67.67,0,0,0,.9-.24,1.84,1.84,0,0,0-1.16-2.59,2.31,2.31,0,0,0-2.58,1.62c-.82,2.15.87,4.53,2.8,5.37a3.56,3.56,0,0,0,3.28-.22,5.79,5.79,0,0,0,2.22-2.6,12.7,12.7,0,0,0,1.17-5.26q2,2.25,4.05,4.87a71.52,71.52,0,0,1,12.16,24.69,24.09,24.09,0,0,1-7.21,12c-9.93,9.57-25.54,15.48-35,25.34-7.14,7.45-10.07,16.91-7.84,25.38A12.88,12.88,0,0,0,261,848.5c-1.79-5.22-3.3-10.76-1.35-16.19a21.65,21.65,0,0,1,3.94-6.49,15.13,15.13,0,0,0,2.06,10.85,12.13,12.13,0,0,0,4.81,4.23,13.15,13.15,0,0,0,7,1.48,7.57,7.57,0,0,0,5.34-3.18,7.71,7.71,0,0,0,1.19-6,7.55,7.55,0,0,0-4.42-5.56,4.38,4.38,0,0,0-5.73,2.37,1,1,0,1,0,1.89.52c.51-1.34,2.31-1.48,3.43-.94a5.75,5.75,0,0,1,2.9,4,5.67,5.67,0,0,1-4.95,6.92,11.36,11.36,0,0,1-5.61-1.22,10.17,10.17,0,0,1-4-3.3,13.32,13.32,0,0,1-1.91-10.25,19.92,19.92,0,0,1,.83-2.9c1-1,2.13-2,3.24-3a141,141,0,0,1,15.47-11.71c5.24-3.44,10.91-6.53,15.29-10.61a42.7,42.7,0,0,0,7-8.31,105.59,105.59,0,0,1,.51,27.55,92.24,92.24,0,0,0,5.29-23.59c.21,3.86,0,7.74.64,11.56a14.9,14.9,0,0,0,2.4,6.21,7.76,7.76,0,0,0,5.24,3.4C325.45,814.71,327.84,810.6,327.44,807.08Zm-15.5-42.61a18.43,18.43,0,0,1-.57,2.83,69.36,69.36,0,0,0-7.71-15.46q1.29.67,2.52,1.44a13.61,13.61,0,0,1,4.52,4.28A11,11,0,0,1,311.94,764.47Z" transform="translate(-204.74 -23.02)"/><path class="cls-9" d="M300.75,726.44s8.1-8.52,16,8.39C316.78,734.83,298.76,737.64,300.75,726.44Z" transform="translate(-204.74 -23.02)"/><path class="cls-9" d="M290,725.45s-11-4.2,1.59-18C291.54,707.42,301.06,723,290,725.45Z" transform="translate(-204.74 -23.02)"/><path class="cls-9" d="M313.1,780.51s8.1-8.53,16,8.39C329.13,788.9,311.11,791.71,313.1,780.51Z" transform="translate(-204.74 -23.02)"/><path class="cls-9" d="M290.36,796s-9.53,6.28-13.76-11.75C276.6,784.24,294.54,785.74,290.36,796Z" transform="translate(-204.74 -23.02)"/><path class="cls-9" d="M297.64,799.27s6.67,1.74.35,11.28C298,810.55,291.37,801.67,297.64,799.27Z" transform="translate(-204.74 -23.02)"/><path class="cls-8" d="M308.75,900.76a6.45,6.45,0,0,0-.34-1.62c-.29-.85-.44-.45-.44-.45-4.37,4.93-11.27,7.94-19.19,9.18-2.52.4-5.07.75-7.64,1h0c-7.93.63-18.79-2.45-24.18-4.21l-.31-.17.19.13c-2-.65-3.19-1.1-3.19-1.1v3l-1,9.18c12.82,3.3,27.85-.51,27.85-.51l0,0a58.72,58.72,0,0,0,14.12-3.67c2.12-.85,4.16-1.83,6.14-2.85C305.07,906.45,309.05,904.59,308.75,900.76Z" transform="translate(-204.74 -23.02)"/><path class="cls-9" d="M297.32,906.28s-8.9.17-4-13.1C293.3,893.18,304.41,901.38,297.32,906.28Z" transform="translate(-204.74 -23.02)"/><path class="cls-9" d="M307.35,905.62s-.74-8.87,12.82-4.85C320.17,900.77,312.69,912.38,307.35,905.62Z" transform="translate(-204.74 -23.02)"/><path class="cls-9" d="M286.18,912.94s8.42-6.76,13.57,9.61C299.75,922.55,283,922.9,286.18,912.94Z" transform="translate(-204.74 -23.02)"/><path class="cls-9" d="M280.55,1048s9.1.62,3.07,14.14C283.62,1062.11,272.92,1052.47,280.55,1048Z" transform="translate(-204.74 -23.02)"/><path class="cls-8" d="M327.62,1045.81c-.25-2.18-1.71-5.12-4.36-4.52a3.42,3.42,0,0,0-2.46,2.46,4.94,4.94,0,0,0,.79,3.87c.61,1,2.14.07,1.52-.89a3.16,3.16,0,0,1-.58-2.63A1.58,1.58,0,0,1,324,1043c.75.08,1.26.91,1.52,1.53a5.83,5.83,0,0,1-1.1,6,3.59,3.59,0,0,1-4,.6c-3.69-1.63-4.86-6.32-5.23-9.95-.43-4.08-.06-8.21-.59-12.3a23.62,23.62,0,0,0-1.15-5,79.48,79.48,0,0,0-1.32-15.21c1.6-4.36,2.66-9.06.62-13.47-2.1-4.57-7.07-6.92-11.35-9l-.47-.22A94.23,94.23,0,0,0,285,969.39,41.18,41.18,0,0,0,295.25,966a56.24,56.24,0,0,0,5.56-3.14c3.9-2.45,7.49-4.5,7.49-9.14a10.44,10.44,0,0,0-.18-2c-.2-1-.35-.57-.35-.57-4.15,5.74-10.39,9-17.38,10.13a50.34,50.34,0,0,1-14.74.64l-1-.16c-11.26-7.37-20.66-11-21.35-11.55v16s14.26-3.29,33.2,17.12a10.66,10.66,0,0,1-.16,4.33c-.4,1.62-1.11,3.63-2.76,4.37s-3.29-.64-3.88-2.06a2.2,2.2,0,0,1,.2-2.24c.2-.21.58-.42.86-.26a.57.57,0,0,1,.24.61.68.68,0,0,0,1.17.69A1.9,1.9,0,0,0,281,986.2a2.37,2.37,0,0,0-2.64,1.66c-.83,2.19.88,4.63,2.86,5.48a3.64,3.64,0,0,0,3.36-.22,6,6,0,0,0,2.26-2.66,12.88,12.88,0,0,0,1.2-5.37q2,2.29,4.13,5a73,73,0,0,1,12.43,25.24,24.49,24.49,0,0,1-7.36,12.29c-10.16,9.79-26.11,15.82-35.79,25.91-7.31,7.6-10.3,17.27-8,25.93a13.17,13.17,0,0,0,6.33,8.71c-1.83-5.33-3.38-11-1.39-16.54a22.14,22.14,0,0,1,4-6.64,15.48,15.48,0,0,0,2.1,11.09,12.3,12.3,0,0,0,4.92,4.32,13.4,13.4,0,0,0,7.18,1.51,7.71,7.71,0,0,0,5.46-3.24,7.94,7.94,0,0,0,1.22-6.17,7.74,7.74,0,0,0-4.53-5.68,4.47,4.47,0,0,0-5.85,2.42,1,1,0,0,0,.7,1.24,1,1,0,0,0,1.24-.7c.51-1.38,2.36-1.52,3.5-1a5.93,5.93,0,0,1,3,4.06,5.8,5.8,0,0,1-5.07,7.07,11.75,11.75,0,0,1-5.73-1.24,10.37,10.37,0,0,1-4.1-3.38,13.52,13.52,0,0,1-2-10.47,20,20,0,0,1,.85-3c1.06-1,2.18-2.06,3.31-3a145.34,145.34,0,0,1,15.81-12c5.35-3.5,11.15-6.67,15.63-10.84a43.41,43.41,0,0,0,7.13-8.49,108.2,108.2,0,0,1,.53,28.16,94.52,94.52,0,0,0,5.4-24.11c.22,3.94-.05,7.91.65,11.81a15.25,15.25,0,0,0,2.46,6.35,7.89,7.89,0,0,0,5.35,3.47C325.58,1053.61,328,1049.4,327.62,1045.81Zm-15.84-43.56a19.09,19.09,0,0,1-.58,2.9,71.11,71.11,0,0,0-7.88-15.8c.87.46,1.74.95,2.58,1.47a13.8,13.8,0,0,1,4.61,4.38A11.26,11.26,0,0,1,311.78,1002.25Z" transform="translate(-204.74 -23.02)"/><path class="cls-9" d="M300.35,963.39s8.27-8.71,16.38,8.58C316.73,972,298.31,974.84,300.35,963.39Z" transform="translate(-204.74 -23.02)"/><path class="cls-9" d="M289.31,962.38s-11.22-4.29,1.62-18.43C290.93,944,300.66,959.85,289.31,962.38Z" transform="translate(-204.74 -23.02)"/><path class="cls-9" d="M313,1018.65s8.27-8.71,16.38,8.57C329.35,1027.22,310.94,1030.09,313,1018.65Z" transform="translate(-204.74 -23.02)"/><path class="cls-9" d="M289.72,1034.47s-9.73,6.42-14.06-12C275.66,1022.47,294,1024,289.72,1034.47Z" transform="translate(-204.74 -23.02)"/><path class="cls-9" d="M297.16,1037.83s6.82,1.77.36,11.52C297.52,1049.35,290.75,1040.28,297.16,1037.83Z" transform="translate(-204.74 -23.02)"/><path class="cls-9" d="M281.43,605.64s8.69.59,2.93,13.5C284.36,619.14,274.15,609.94,281.43,605.64Z" transform="translate(-204.74 -23.02)"/><path class="cls-8" d="M326.36,603.58c-.24-2.08-1.64-4.89-4.17-4.32a3.32,3.32,0,0,0-2.35,2.35,4.73,4.73,0,0,0,.76,3.7c.58.9,2,.06,1.45-.85a3,3,0,0,1-.55-2.52,1.48,1.48,0,0,1,1.39-1.07c.72.07,1.2.86,1.45,1.46a5.52,5.52,0,0,1-1,5.72,3.44,3.44,0,0,1-3.81.57c-3.52-1.56-4.64-6-5-9.49-.41-3.91-.06-7.85-.56-11.74a23.27,23.27,0,0,0-1.1-4.79,75.44,75.44,0,0,0-1.26-14.52c1.53-4.17,2.54-8.64.6-12.86s-6.76-6.6-10.84-8.57l-.45-.22a89.93,89.93,0,0,0-15.22-15.8,38.85,38.85,0,0,0,9.8-3.22,53.07,53.07,0,0,0,5.3-3c3.72-2.34,7.16-4.29,7.16-8.72a10.64,10.64,0,0,0-.18-1.88c-.19-1-.33-.54-.33-.54-4,5.48-9.92,8.61-16.59,9.67a47.87,47.87,0,0,1-14.07.61c-.33,0-.65-.1-1-.15-10.75-7-19.72-10.49-20.38-11v15.3S269,524.54,287.09,544a10.22,10.22,0,0,1-.16,4.13c-.38,1.55-1.06,3.46-2.63,4.17s-3.14-.61-3.71-2a2.11,2.11,0,0,1,.2-2.14c.19-.21.55-.41.82-.25a.52.52,0,0,1,.22.59.65.65,0,0,0,1.12.65,1.81,1.81,0,0,0-1.13-2.53,2.26,2.26,0,0,0-2.52,1.59c-.8,2.09.84,4.41,2.73,5.23a3.48,3.48,0,0,0,3.2-.21,5.68,5.68,0,0,0,2.16-2.54,12.28,12.28,0,0,0,1.15-5.13c1.29,1.46,2.61,3,3.94,4.75a69.68,69.68,0,0,1,11.87,24.09,23.52,23.52,0,0,1-7,11.73c-9.7,9.34-24.92,15.1-34.16,24.73-7,7.26-9.83,16.48-7.66,24.75a12.66,12.66,0,0,0,6.05,8.32c-1.75-5.1-3.23-10.5-1.33-15.8a21.19,21.19,0,0,1,3.85-6.34,14.74,14.74,0,0,0,2,10.59,11.74,11.74,0,0,0,4.69,4.12,12.74,12.74,0,0,0,6.86,1.45,7.35,7.35,0,0,0,5.21-3.1A7.54,7.54,0,0,0,284,629a7.37,7.37,0,0,0-4.32-5.42,4.26,4.26,0,0,0-5.58,2.32,1,1,0,0,0,.67,1.17,1,1,0,0,0,1.18-.67c.49-1.31,2.25-1.44,3.34-.91a5.63,5.63,0,0,1,2.83,3.87,5.54,5.54,0,0,1-4.84,6.75,11.21,11.21,0,0,1-5.47-1.19,9.87,9.87,0,0,1-3.91-3.22,13,13,0,0,1-1.87-10,20.25,20.25,0,0,1,.81-2.83c1-1,2.08-2,3.16-2.9a136.44,136.44,0,0,1,15.1-11.43c5.1-3.35,10.64-6.37,14.91-10.35a42.1,42.1,0,0,0,6.81-8.1,103.28,103.28,0,0,1,.5,26.87,90.3,90.3,0,0,0,5.16-23c.2,3.76-.05,7.54.62,11.27a14.61,14.61,0,0,0,2.35,6.07,7.58,7.58,0,0,0,5.1,3.31C324.41,611,326.74,607,326.36,603.58ZM311.23,562a17.41,17.41,0,0,1-.55,2.77,67.67,67.67,0,0,0-7.52-15.08c.83.44,1.66.9,2.46,1.4a13.14,13.14,0,0,1,4.4,4.18A10.63,10.63,0,0,1,311.23,562Z" transform="translate(-204.74 -23.02)"/><path class="cls-9" d="M300.32,524.91s7.9-8.31,15.64,8.19C316,533.1,298.38,535.84,300.32,524.91Z" transform="translate(-204.74 -23.02)"/><path class="cls-9" d="M289.79,523.94s-10.71-4.09,1.54-17.58C291.33,506.36,300.62,521.53,289.79,523.94Z" transform="translate(-204.74 -23.02)"/><path class="cls-9" d="M312.37,577.65s7.9-8.31,15.64,8.19C328,585.84,310.43,588.58,312.37,577.65Z" transform="translate(-204.74 -23.02)"/><path class="cls-9" d="M290.18,592.76s-9.29,6.12-13.42-11.46C276.76,581.3,294.26,582.75,290.18,592.76Z" transform="translate(-204.74 -23.02)"/><path class="cls-9" d="M297.29,596s6.5,1.7.34,11C297.63,607,291.17,598.3,297.29,596Z" transform="translate(-204.74 -23.02)"/><path class="cls-2" d="M260.3,1177.25h47.29v-44c1.36-12.29,6.53-17.11,6.53-17.11h-6.53v-6.72H260.3Z" transform="translate(-204.74 -23.02)"/><path class="cls-3" d="M260.3,1116.41H317s16.39.39,9.74-14.15c-4.81-10.51.66-13,4-13.59a6.06,6.06,0,0,0,3.88,10.73,5.48,5.48,0,0,0,.7,0h0s10.09-.46,8.47-12.87-14.5-9.62-14.5-9.62-11.24.78-12.17,11.11-38.27,11.38-38.27,11.38H260.3Z" transform="translate(-204.74 -23.02)"/><rect class="cls-2" x="55.56" y="1158.81" width="47.35" height="158.37"/><path class="cls-4" d="M308.76,1182.19H260.3v-15.56h59.34a.81.81,0,0,1,.64,1.32Z" transform="translate(-204.74 -23.02)"/><path class="cls-4" d="M55.56,1158.81h48a3.28,3.28,0,0,1,3.28,3.28v0a3.28,3.28,0,0,1-3.28,3.28h-48a0,0,0,0,1,0,0v-6.57A0,0,0,0,1,55.56,1158.81Z"/><g class="cls-16"><path class="cls-6" d="M204.92,1182.18h115.2v-8.74a8.75,8.75,0,0,0-7.2,3.79,8.73,8.73,0,0,0-14.4,0,8.73,8.73,0,0,0-14.4,0,8.73,8.73,0,0,0-14.4,0,8.73,8.73,0,0,0-14.4,0,5.93,5.93,0,0,0-.43-.56l0-.06a6.28,6.28,0,0,0-.49-.54l-.11-.11c-.18-.18-.36-.34-.55-.5l-.08-.06a8.64,8.64,0,0,0-2.83-1.54l-.12,0a6.17,6.17,0,0,0-.74-.19l-.14,0a8.27,8.27,0,0,0-1.66-.18,8.77,8.77,0,0,0-7.2,3.8,8.73,8.73,0,0,0-13.77-.82q-.33.39-.63.81a8.73,8.73,0,0,0-14.4,0,8.71,8.71,0,0,0-7.2-3.79Z" transform="translate(-204.74 -23.02)"/></g><path class="cls-4" d="M55.56,1191.46h0a31.29,31.29,0,0,1,31.29,31.29v63.33a0,0,0,0,1,0,0H55.56a0,0,0,0,1,0,0v-94.62A0,0,0,0,1,55.56,1191.46Z"/><path class="cls-6" d="M55.56,1195.83h0a26.29,26.29,0,0,1,26.29,26.29v57.5a0,0,0,0,1,0,0H55.56a0,0,0,0,1,0,0v-83.79A0,0,0,0,1,55.56,1195.83Z"/><path class="cls-8" d="M308.93,1141.19a6.78,6.78,0,0,0-.33-1.62c-.3-.85-.44-.45-.44-.45-4.37,4.93-11.28,7.94-19.2,9.18-2.52.4-5.07.75-7.63,1h0c-7.93.64-18.79-2.45-24.17-4.21l-.32-.17a1.37,1.37,0,0,0,.2.13c-2-.64-3.2-1.1-3.2-1.1v3l-1,9.17c12.82,3.3,27.84-.5,27.84-.5l0,0a58.72,58.72,0,0,0,14.12-3.67c2.13-.85,4.16-1.83,6.14-2.85C305.26,1146.88,309.23,1145,308.93,1141.19Z" transform="translate(-204.74 -23.02)"/><path class="cls-9" d="M297.5,1146.71s-8.89.17-4-13.1C293.49,1133.61,304.59,1141.81,297.5,1146.71Z" transform="translate(-204.74 -23.02)"/><path class="cls-9" d="M307.54,1146.05s-.75-8.87,12.81-4.85C320.35,1141.2,312.87,1152.81,307.54,1146.05Z" transform="translate(-204.74 -23.02)"/><path class="cls-9" d="M286.37,1153.38s8.41-6.77,13.57,9.6C299.94,1163,283.18,1163.33,286.37,1153.38Z" transform="translate(-204.74 -23.02)"/><path class="cls-9" d="M280.73,1288.4s9.11.62,3.07,14.14C283.8,1302.54,273.11,1292.9,280.73,1288.4Z" transform="translate(-204.74 -23.02)"/><path class="cls-8" d="M327.8,1286.24c-.24-2.17-1.71-5.12-4.36-4.52a3.46,3.46,0,0,0-2.46,2.46,5,5,0,0,0,.79,3.87c.62,1,2.14.07,1.53-.89a3.16,3.16,0,0,1-.58-2.63,1.53,1.53,0,0,1,1.45-1.12c.76.07,1.27.9,1.53,1.53a5.48,5.48,0,0,1,.39,2.19,5.4,5.4,0,0,1-1.5,3.79,3.57,3.57,0,0,1-4,.6c-3.68-1.63-4.85-6.32-5.23-9.94-.42-4.09-.05-8.22-.58-12.3a24.21,24.21,0,0,0-1.16-5,78.65,78.65,0,0,0-1.32-15.21c1.61-4.36,2.66-9,.63-13.47s-7.07-6.92-11.35-9l-.48-.22a93.52,93.52,0,0,0-15.94-16.55,40.85,40.85,0,0,0,10.27-3.38,57.25,57.25,0,0,0,5.55-3.14c3.9-2.45,7.5-4.5,7.5-9.14a11,11,0,0,0-.19-2c-.2-1-.35-.57-.35-.57-4.15,5.74-10.38,9-17.38,10.13a50.33,50.33,0,0,1-14.74.64l-1-.16c-11.27-7.37-20.67-11-21.35-11.55v16s14.26-3.29,33.2,17.12a10.66,10.66,0,0,1-.17,4.33c-.4,1.62-1.11,3.63-2.75,4.37s-3.3-.64-3.89-2.06a2.16,2.16,0,0,1,.21-2.23c.2-.22.57-.43.86-.27a.56.56,0,0,1,.23.61.7.7,0,0,0,.24.93.69.69,0,0,0,.93-.24,1.89,1.89,0,0,0-1.18-2.65,2.36,2.36,0,0,0-2.64,1.66c-.84,2.19.88,4.63,2.85,5.49a3.64,3.64,0,0,0,3.36-.23,5.86,5.86,0,0,0,2.26-2.66,12.73,12.73,0,0,0,1.21-5.37q2,2.3,4.13,5a73,73,0,0,1,12.43,25.24,24.62,24.62,0,0,1-7.37,12.3c-10.15,9.78-26.1,15.81-35.79,25.9-7.3,7.61-10.29,17.27-8,25.93a13.22,13.22,0,0,0,6.34,8.71c-1.83-5.33-3.38-11-1.39-16.54a22.11,22.11,0,0,1,4-6.64,15.47,15.47,0,0,0,2.1,11.09,12.3,12.3,0,0,0,4.92,4.32,13.44,13.44,0,0,0,7.19,1.51,7.71,7.71,0,0,0,5.46-3.24,7.93,7.93,0,0,0,1.21-6.17,7.72,7.72,0,0,0-4.52-5.68,4.48,4.48,0,0,0-5.86,2.42,1,1,0,0,0,1.94.54c.52-1.38,2.36-1.52,3.5-1a6,6,0,0,1-2.1,11.12,11.67,11.67,0,0,1-5.73-1.24,10.37,10.37,0,0,1-4.1-3.38,13.55,13.55,0,0,1-1.95-10.47,20,20,0,0,1,.84-3c1.06-1,2.18-2.06,3.31-3a144.13,144.13,0,0,1,15.82-12c5.35-3.51,11.15-6.68,15.63-10.85a43.58,43.58,0,0,0,7.12-8.48,108.14,108.14,0,0,1,.53,28.15,94.48,94.48,0,0,0,5.41-24.11c.21,3.94,0,7.91.65,11.81a15.07,15.07,0,0,0,2.46,6.36,7.93,7.93,0,0,0,5.35,3.47C325.77,1294,328.21,1289.83,327.8,1286.24ZM312,1242.68a16.93,16.93,0,0,1-.58,2.9,70.69,70.69,0,0,0-7.88-15.8q1.32.69,2.58,1.47a13.83,13.83,0,0,1,4.62,4.38A11.2,11.2,0,0,1,312,1242.68Z" transform="translate(-204.74 -23.02)"/><path class="cls-9" d="M300.53,1203.82s8.27-8.71,16.39,8.58C316.92,1212.4,298.5,1215.27,300.53,1203.82Z" transform="translate(-204.74 -23.02)"/><path class="cls-9" d="M289.5,1202.81s-11.23-4.29,1.61-18.42C291.11,1184.39,300.84,1200.28,289.5,1202.81Z" transform="translate(-204.74 -23.02)"/><path class="cls-9" d="M313.15,1259.08s8.28-8.71,16.39,8.58C329.54,1267.66,311.12,1270.53,313.15,1259.08Z" transform="translate(-204.74 -23.02)"/><path class="cls-9" d="M289.91,1274.91s-9.74,6.41-14.06-12C275.85,1262.9,294.18,1264.42,289.91,1274.91Z" transform="translate(-204.74 -23.02)"/><path class="cls-9" d="M297.35,1278.26s6.82,1.78.36,11.52C297.71,1289.78,290.94,1280.71,297.35,1278.26Z" transform="translate(-204.74 -23.02)"/><path class="cls-2" d="M661.25,117.76H613.16V77c-1.39-11.4-6.65-15.86-6.65-15.86h6.65V54.85h48.09Z" transform="translate(-204.74 -23.02)"/><path class="cls-3" d="M661.25,62.49H605.13s-16.22.39-9.64-14c4.76-10.41-.65-12.89-4-13.46a6,6,0,0,1-3.84,10.63,5.34,5.34,0,0,1-.69,0h0s-10-.46-8.38-12.74,14.34-9.53,14.34-9.53,11.14.77,12.06,11,37.88,11.27,37.88,11.27h18.39Z" transform="translate(-204.74 -23.02)"/><rect class="cls-2" x="614.38" y="129.94" width="46.88" height="167.61" transform="translate(1070.89 404.46) rotate(-180)"/><path class="cls-4" d="M613.28,127.29h48V111.88H602.5a.81.81,0,0,0-.63,1.31Z" transform="translate(-204.74 -23.02)"/><path class="cls-4" d="M610.45,126.94H658a3.25,3.25,0,0,1,3.25,3.25v0a3.25,3.25,0,0,1-3.25,3.25H610.45a0,0,0,0,1,0,0v-6.5a0,0,0,0,1,0,0Z" transform="translate(1066.96 237.36) rotate(-180)"/><g class="cls-17"><path class="cls-6" d="M716.07,130.28H602v-8.65a8.65,8.65,0,0,1,7.12,3.75,8.65,8.65,0,0,1,14.26,0,8.64,8.64,0,0,1,14.25,0,8.64,8.64,0,0,1,14.26,0,8.64,8.64,0,0,1,14.26,0c.13-.2.28-.37.43-.56l0,0a6.28,6.28,0,0,1,.49-.54.57.57,0,0,1,.11-.11,6.28,6.28,0,0,1,.54-.49l.08-.06a8.55,8.55,0,0,1,2.8-1.52l.12,0c.24-.07.48-.14.73-.19l.14,0a8.85,8.85,0,0,1,1.64-.17,8.63,8.63,0,0,1,6.51,3c.22.26.43.53.62.8a8.65,8.65,0,0,1,13.63-.8,9.62,9.62,0,0,1,.63.8,8.64,8.64,0,0,1,14.25,0,8.63,8.63,0,0,1,7.13-3.75Z" transform="translate(-204.74 -23.02)"/></g><path class="cls-4" d="M630.28,162.26h31a0,0,0,0,1,0,0V225a31,31,0,0,1-31,31h0a0,0,0,0,1,0,0V162.26A0,0,0,0,1,630.28,162.26Z" transform="translate(1086.79 395.18) rotate(-180)"/><path class="cls-6" d="M635.22,166.59h26a0,0,0,0,1,0,0v56.92a26,26,0,0,1-26,26h0a0,0,0,0,1,0,0v-83a0,0,0,0,1,0,0Z" transform="translate(1091.73 393.1) rotate(-180)"/><path class="cls-2" d="M661.25,367.07H614.43v-49.8c-1.34-13.91-6.46-19.36-6.46-19.36h6.46v-7.6h46.82Z" transform="translate(-204.74 -23.02)"/><path class="cls-3" d="M661.25,297.85H605.13s-16.22.38-9.64-14c4.76-10.4-.65-12.88-4-13.45A6,6,0,0,1,587.64,281a5.32,5.32,0,0,1-.69,0h0s-10-.46-8.38-12.75,14.34-9.52,14.34-9.52,11.14.76,12.06,11S642.86,281,642.86,281h18.39Z" transform="translate(-204.74 -23.02)"/><rect class="cls-2" x="614.38" y="372.05" width="46.88" height="276.04" transform="translate(1070.89 997.12) rotate(-180)"/><path class="cls-4" d="M613.28,366.49h48V351.08H602.5a.81.81,0,0,0-.63,1.31Z" transform="translate(-204.74 -23.02)"/><path class="cls-4" d="M610.45,366.14H658a3.25,3.25,0,0,1,3.25,3.25v0a3.25,3.25,0,0,1-3.25,3.25H610.45a0,0,0,0,1,0,0v-6.5a0,0,0,0,1,0,0Z" transform="translate(1066.96 715.76) rotate(-180)"/><g class="cls-18"><path class="cls-6" d="M716.07,366.48H602v-8.65a8.63,8.63,0,0,1,7.12,3.76,8.65,8.65,0,0,1,14.26,0,8.64,8.64,0,0,1,14.25,0,8.65,8.65,0,0,1,14.26,0,8.64,8.64,0,0,1,14.26,0c.13-.19.28-.37.43-.55l0-.06c.15-.19.32-.36.49-.54a1.14,1.14,0,0,1,.11-.11c.17-.17.35-.33.54-.49l.08-.06a8.55,8.55,0,0,1,2.8-1.52l.12,0c.24-.07.48-.14.73-.19l.14,0a8.08,8.08,0,0,1,1.64-.18,8.64,8.64,0,0,1,6.51,3,8.12,8.12,0,0,1,.62.8,8.64,8.64,0,0,1,13.63-.81c.23.26.43.53.63.8a8.64,8.64,0,0,1,14.25,0,8.65,8.65,0,0,1,7.13-3.75Z" transform="translate(-204.74 -23.02)"/></g><path class="cls-4" d="M630.28,394h31a0,0,0,0,1,0,0v62.7a31,31,0,0,1-31,31h0a0,0,0,0,1,0,0V394A0,0,0,0,1,630.28,394Z" transform="translate(1086.79 858.71) rotate(-180)"/><path class="cls-6" d="M635.22,398.35h26a0,0,0,0,1,0,0v56.92a26,26,0,0,1-26,26h0a0,0,0,0,1,0,0v-83A0,0,0,0,1,635.22,398.35Z" transform="translate(1091.73 856.63) rotate(-180)"/><path class="cls-8" d="M611.54,83a6.54,6.54,0,0,1,.33-1.6c.29-.85.43-.45.43-.45,4.33,4.89,11.17,7.86,19,9.09,2.49.4,5,.75,7.56,1h0c7.85.63,18.6-2.43,23.94-4.16l.31-.17-.2.13c2-.64,3.17-1.1,3.17-1.1v3l1,9.08c-12.69,3.27-27.56-.5-27.56-.5l0,0a58.41,58.41,0,0,1-14-3.63c-2.11-.85-4.12-1.82-6.08-2.83C615.18,88.62,611.24,86.77,611.54,83Z" transform="translate(-204.74 -23.02)"/><path class="cls-9" d="M622.85,88.44s8.81.18,4-13C626.83,75.48,615.83,83.6,622.85,88.44Z" transform="translate(-204.74 -23.02)"/><path class="cls-9" d="M612.92,87.79S613.66,79,600.23,83C600.23,83,607.63,94.49,612.92,87.79Z" transform="translate(-204.74 -23.02)"/><path class="cls-9" d="M633.88,95.05s-8.33-6.7-13.44,9.5C620.44,104.55,637,104.9,633.88,95.05Z" transform="translate(-204.74 -23.02)"/><path class="cls-9" d="M640,465.42s-8.69.59-2.93,13.5C637.07,478.92,647.28,469.72,640,465.42Z" transform="translate(-204.74 -23.02)"/><path class="cls-8" d="M600.87,470.4a7.57,7.57,0,0,0,5.11-3.31,14.61,14.61,0,0,0,2.35-6.07c.67-3.73.41-7.51.62-11.27a89.88,89.88,0,0,0,5.16,23,103.28,103.28,0,0,1,.5-26.87,41.38,41.38,0,0,0,6.81,8.1c4.27,4,9.81,7,14.91,10.35a137.38,137.38,0,0,1,15.1,11.43c1.08.94,2.14,1.91,3.16,2.9a18.93,18.93,0,0,1,.8,2.83,13,13,0,0,1-1.86,10,9.87,9.87,0,0,1-3.91,3.22,11.22,11.22,0,0,1-5.48,1.19,5.53,5.53,0,0,1-4.83-6.75,5.63,5.63,0,0,1,2.83-3.87c1.09-.53,2.85-.39,3.34.92a1,1,0,0,0,1.18.66,1,1,0,0,0,.67-1.17,4.27,4.27,0,0,0-5.59-2.32,7.38,7.38,0,0,0-4.31,5.42,7.54,7.54,0,0,0,1.16,5.89,7.35,7.35,0,0,0,5.2,3.1,12.75,12.75,0,0,0,6.87-1.45,11.74,11.74,0,0,0,4.69-4.12,14.72,14.72,0,0,0,2-10.58A21,21,0,0,1,661.2,488c1.9,5.3.43,10.7-1.32,15.8a12.66,12.66,0,0,0,6-8.32c2.17-8.27-.69-17.49-7.66-24.75C649,461.07,633.8,455.31,624.11,446a23.44,23.44,0,0,1-7-11.73,69.65,69.65,0,0,1,11.86-24.09c1.34-1.71,2.65-3.29,3.95-4.75a12.28,12.28,0,0,0,1.15,5.13,5.68,5.68,0,0,0,2.16,2.54,3.48,3.48,0,0,0,3.2.21c1.88-.82,3.53-3.14,2.73-5.23a2.26,2.26,0,0,0-2.52-1.59,1.81,1.81,0,0,0-1.13,2.53.64.64,0,0,0,1.11-.65.54.54,0,0,1,.23-.59c.27-.16.63,0,.82.25a2.08,2.08,0,0,1,.19,2.14c-.56,1.35-2.22,2.62-3.71,2s-2.24-2.62-2.62-4.17a10.22,10.22,0,0,1-.16-4.13C652.41,384.32,666,387.46,666,387.46v-15.3c-.66.53-9.63,4-20.38,11l-1,.15a47.84,47.84,0,0,1-14.07-.61c-6.68-1.06-12.63-4.19-16.59-9.67,0,0-.14-.45-.33.54a10.64,10.64,0,0,0-.18,1.88c0,4.43,3.43,6.38,7.15,8.72a55.41,55.41,0,0,0,5.3,3,39.05,39.05,0,0,0,9.81,3.22,89.57,89.57,0,0,0-15.22,15.8l-.45.22c-4.09,2-8.83,4.21-10.84,8.57s-.93,8.69.6,12.86a75.44,75.44,0,0,0-1.26,14.52,22.63,22.63,0,0,0-1.1,4.79c-.51,3.89-.15,7.83-.56,11.74-.36,3.45-1.48,7.93-5,9.49a3.44,3.44,0,0,1-3.81-.57,5.15,5.15,0,0,1-1.43-3.62,5.08,5.08,0,0,1,.38-2.1c.24-.6.73-1.39,1.45-1.46a1.49,1.49,0,0,1,1.39,1.07,3.09,3.09,0,0,1-.55,2.52c-.59.91.86,1.75,1.45.85a4.77,4.77,0,0,0,.75-3.7,3.29,3.29,0,0,0-2.34-2.35c-2.53-.57-3.93,2.24-4.17,4.32C594.68,466.79,597,470.8,600.87,470.4Zm10.53-55.35a13.26,13.26,0,0,1,4.41-4.18c.8-.5,1.62-1,2.46-1.4a67.67,67.67,0,0,0-7.52,15.08,18.62,18.62,0,0,1-.56-2.77A10.76,10.76,0,0,1,611.4,415.05Z" transform="translate(-204.74 -23.02)"/><path class="cls-9" d="M621.11,384.69s-7.9-8.31-15.64,8.19C605.47,392.88,623,395.62,621.11,384.69Z" transform="translate(-204.74 -23.02)"/><path class="cls-9" d="M631.64,383.72s10.71-4.09-1.55-17.58C630.09,366.14,620.81,381.31,631.64,383.72Z" transform="translate(-204.74 -23.02)"/><path class="cls-9" d="M609.06,437.43s-7.9-8.31-15.64,8.19C593.42,445.62,611,448.36,609.06,437.43Z" transform="translate(-204.74 -23.02)"/><path class="cls-9" d="M631.24,452.54s9.3,6.12,13.43-11.46C644.67,441.08,627.17,442.53,631.24,452.54Z" transform="translate(-204.74 -23.02)"/><path class="cls-9" d="M624.14,455.74s-6.51,1.7-.34,11C623.8,466.74,630.26,458.08,624.14,455.74Z" transform="translate(-204.74 -23.02)"/><path class="cls-8" d="M613.68,317.49a6.62,6.62,0,0,1,.33-1.6c.29-.84.43-.45.43-.45,4.33,4.89,11.17,7.86,19,9.1,2.49.39,5,.74,7.56,1h0c7.86.62,18.6-2.44,23.94-4.17l.31-.17a1.37,1.37,0,0,1-.2.13c2-.64,3.17-1.09,3.17-1.09v3l1,9.08c-12.69,3.27-27.56-.49-27.56-.49l0,0a58.55,58.55,0,0,1-14-3.64c-2.11-.85-4.12-1.81-6.08-2.82C617.32,323.13,613.38,321.29,613.68,317.49Z" transform="translate(-204.74 -23.02)"/><path class="cls-9" d="M625,323s8.81.17,4-13C629,310,618,318.11,625,323Z" transform="translate(-204.74 -23.02)"/><path class="cls-9" d="M615.06,322.31s.74-8.78-12.69-4.8C602.37,317.51,609.78,329,615.06,322.31Z" transform="translate(-204.74 -23.02)"/><path class="cls-9" d="M636,329.56s-8.33-6.7-13.43,9.51C622.59,339.07,639.17,339.41,636,329.56Z" transform="translate(-204.74 -23.02)"/><path class="cls-10" d="M661.23,659.89H614.49v4H577.17s34.62,3.51,37.5,19.7v16.27h46.56Z" transform="translate(-204.74 -23.02)"/><path class="cls-3" d="M524.15,634.2c1.65-12.2,14.67-9.47,14.67-9.47s11.37.77,12.31,10.94,38.7,11.19,38.7,11.19h75v0h39.92v16.81H551.29s-16.58.38-9.86-13.92c4.87-10.34-.66-12.8-4.09-13.37a5.89,5.89,0,0,1,2.22,4.59,6.06,6.06,0,0,1-6.14,6c-.24,0-.48,0-.71,0h0S522.51,646.41,524.15,634.2Z" transform="translate(-204.74 -23.02)"/><path class="cls-2" d="M561.78,706.07h17.94l-4,19.15a2.89,2.89,0,0,1-2.84,2.3H557.08a2.9,2.9,0,0,1-2.84-2.3l-4-19.15Z" transform="translate(-204.74 -23.02)"/><polyline class="cls-6" points="347.05 690.57 345.46 682.08 357.05 682.08 363.4 682.08 374.98 682.08 373.4 690.57"/><path class="cls-11" d="M579.09,700.36a1.07,1.07,0,0,0,.39-.07,1.13,1.13,0,0,0,.67-1.45l-14.28-38.47a1.13,1.13,0,0,0-2.12.79L578,699.63A1.13,1.13,0,0,0,579.09,700.36Z" transform="translate(-204.74 -23.02)"/><path class="cls-11" d="M550.53,700.36a1.13,1.13,0,0,0,1.06-.73l14.28-38.47a1.13,1.13,0,0,0-2.12-.79l-14.27,38.47a1.12,1.12,0,0,0,.66,1.45A1.07,1.07,0,0,0,550.53,700.36Z" transform="translate(-204.74 -23.02)"/><path class="cls-2" d="M550.29,698.65h29.33A7.38,7.38,0,0,1,587,706v4.18a1.17,1.17,0,0,1-1.17,1.17H544.09a1.17,1.17,0,0,1-1.17-1.17V706a7.38,7.38,0,0,1,7.38-7.38Z" transform="translate(925.19 1387) rotate(-180)"/><path class="cls-8" d="M554.56,694.64a6.7,6.7,0,0,0-3.54-3,5.83,5.83,0,0,0-3,0,11.44,11.44,0,0,0-4.69,2.71,16.33,16.33,0,0,1-4.37,3l-1,.35c2.2.52,4.33,1.3,6.53,1.82a14,14,0,0,0,6.54.29,8,8,0,0,0,2.23-1,3.9,3.9,0,0,0,2-2.66,1.63,1.63,0,0,0-.7-1.59" transform="translate(-204.74 -23.02)"/><path class="cls-12" d="M543.44,697.49a9.25,9.25,0,0,0,3.11-1l.65-.34a3.54,3.54,0,0,1-.58-.17c-.4-.18-.69-.26-1.09-.42a3.86,3.86,0,0,0-1.27-.22c-.29,0-1,.07-1.28.1a6.47,6.47,0,0,1,1.32-.29,4.22,4.22,0,0,1,2,.41,7.3,7.3,0,0,0,1.28.4c.52-.26,1-.51,1.61-.86a7,7,0,0,1,.82-.4l-.32-.08a3.72,3.72,0,0,1-.58-.24c-.38-.22-.67-.33-1.05-.53a3.81,3.81,0,0,0-1.24-.36c-.29,0-1,0-1.28,0a7.54,7.54,0,0,1,1.34-.16,4.39,4.39,0,0,1,1.94.62,5.53,5.53,0,0,0,1.59.62l.24-.08a7.18,7.18,0,0,1,1.39-.31,2.42,2.42,0,0,1-.42-.29c-.28-.24-.49-.38-.78-.61a3,3,0,0,0-1-.5c-.24-.08-.8-.2-1.06-.25a6.2,6.2,0,0,1,1.14.1,3.71,3.71,0,0,1,1.51.84,5.61,5.61,0,0,0,1,.68,2.77,2.77,0,0,1,1.84.52l.18.17a1.58,1.58,0,0,0-1.15-.29,5.87,5.87,0,0,0-.72.08,4.66,4.66,0,0,0-.94,1.79,4.25,4.25,0,0,1-1,1.78,7.14,7.14,0,0,1-1.08.82c.23-.22.71-.69.9-.91a3.71,3.71,0,0,0,.66-1.11c.13-.42.26-.69.39-1.11a2.48,2.48,0,0,1,.25-.58,3,3,0,0,1,.49-.63,10.45,10.45,0,0,0-2.38.86,6.67,6.67,0,0,0-.72,1.25,4.25,4.25,0,0,1-1.17,1.65,7.64,7.64,0,0,1-1.17.69c.26-.19.79-.6,1-.8a3.64,3.64,0,0,0,.77-1c.19-.4.35-.66.52-1.06a3.57,3.57,0,0,1,.26-.46l-.94.5a10.85,10.85,0,0,1-4.86,1.66,17.68,17.68,0,0,1-3.41-.33C541,697.64,542.71,697.58,543.44,697.49Z" transform="translate(-204.74 -23.02)"/><path class="cls-13" d="M576,699.2a6.76,6.76,0,0,1,3.85-2.57,6,6,0,0,1,3,.34,11.53,11.53,0,0,1,4.36,3.22,16.2,16.2,0,0,0,4,3.5c.3.16.61.31.93.46-2.24.27-4.45.81-6.69,1.09a13.92,13.92,0,0,1-6.53-.45,7.71,7.71,0,0,1-2.12-1.21,3.94,3.94,0,0,1-1.69-2.87,1.64,1.64,0,0,1,.87-1.51" transform="translate(-204.74 -23.02)"/><path class="cls-12" d="M577,698.39a2.87,2.87,0,0,1,1.49-.15,6.56,6.56,0,0,1,.75-.23,4,4,0,0,1,1.93.18,4.49,4.49,0,0,0,1.92.21.63.63,0,0,0,.39-.21l-.05.08a1.48,1.48,0,0,1-1.31.38,2.8,2.8,0,0,1-.59-.1c-.4-.13-.69-.17-1.09-.28a3.46,3.46,0,0,0-1.22-.07l-.48.08a7.34,7.34,0,0,1,1.84.66,7.87,7.87,0,0,1,1.3.81l.32.25a5.11,5.11,0,0,0,1.53.14,3.74,3.74,0,0,1,1.76.26,4.48,4.48,0,0,1,.9.62,10.35,10.35,0,0,0-1-.45,3.09,3.09,0,0,0-1.1-.2c-.39,0-.66,0-1.06,0a3.44,3.44,0,0,1-.56,0l-.07,0c.5.36,1,.67,1.54,1.09l.23.17a7.43,7.43,0,0,0,1.26.07,3.78,3.78,0,0,1,1.76.26,4.71,4.71,0,0,1,.89.62,10.59,10.59,0,0,0-1-.46,3.31,3.31,0,0,0-1.09-.2c-.4,0-.67,0-1.07,0h-.32a11.63,11.63,0,0,0,2.15.93c.7.22,2.36.59,3.13.75a21.46,21.46,0,0,1-3.38-.38,8,8,0,0,1-2.24-.87c.17.26.33.45.53.74a3.45,3.45,0,0,0,.88.84,10.8,10.8,0,0,0,1.06.6,6.5,6.5,0,0,1-1.2-.47,4.15,4.15,0,0,1-1.35-1.38c-.16-.22-.32-.45-.49-.67-.43-.26-.84-.55-1.24-.84h0l-.36-.26.08.13a2.77,2.77,0,0,1,.26.55c.13.39.26.65.4,1a3.63,3.63,0,0,0,.65,1c.18.2.65.64.88.84a6.93,6.93,0,0,1-1.05-.75,4,4,0,0,1-1-1.67,4.49,4.49,0,0,0-.9-1.65l-.31-.22-.13,0h.09c-.35-.25-.71-.49-1.09-.71a3.7,3.7,0,0,1,.28.69,3.19,3.19,0,0,1,.1.69c0,.47.08.8.11,1.28a3.91,3.91,0,0,0,.38,1.35c.14.29.52.93.7,1.22a7.88,7.88,0,0,1-.91-1.16,4.61,4.61,0,0,1-.53-2.17,5.35,5.35,0,0,0-.46-2.09,8.41,8.41,0,0,0-2-.78,1.87,1.87,0,0,0-1.17,0Z" transform="translate(-204.74 -23.02)"/><path class="cls-13" d="M571.34,697.6a6.75,6.75,0,0,1,4,.31,5.77,5.77,0,0,1,2,1.67,8.79,8.79,0,0,1,1.59,4,12.09,12.09,0,0,0,1.21,4.06c.14.25.29.49.45.73-1.76-.92-3.63-1.67-5.39-2.59a13.31,13.31,0,0,1-4.52-3.44,6.19,6.19,0,0,1-1-1.76,2.67,2.67,0,0,1,.18-2.55,1.4,1.4,0,0,1,1.36-.48" transform="translate(-204.74 -23.02)"/><path class="cls-12" d="M572.45,697.58a2.93,2.93,0,0,1,1.16.63l.66.23a3.93,3.93,0,0,1,1.31,1,4.29,4.29,0,0,0,1.29,1.06.66.66,0,0,0,.39.06l-.08,0a1.49,1.49,0,0,1-1.14-.4,3.15,3.15,0,0,1-.38-.35c-.22-.27-.41-.43-.65-.7a3.22,3.22,0,0,0-.85-.63l-.39-.19a6.1,6.1,0,0,1,1,1.29,5.89,5.89,0,0,1,.55,1.13l.12.3a4.58,4.58,0,0,0,1,.83,3.58,3.58,0,0,1,1.15,1,4,4,0,0,1,.35.81c-.11-.18-.35-.57-.47-.74a2.86,2.86,0,0,0-.71-.65c-.29-.19-.47-.33-.77-.51a4,4,0,0,1-.39-.3l0,0c.19.46.38.87.58,1.41l.09.21a7.72,7.72,0,0,0,.88.65,3.57,3.57,0,0,1,1.15,1,4,4,0,0,1,.35.81c-.11-.18-.35-.58-.48-.74a3,3,0,0,0-.7-.65c-.29-.19-.47-.34-.77-.52a1.19,1.19,0,0,1-.23-.16,10.67,10.67,0,0,0,1.1,1.61c.41.47,1.43,1.5,1.91,2a21.57,21.57,0,0,1-2.26-1.87A6.65,6.65,0,0,1,576,703.6c0,.24,0,.44,0,.7a2.6,2.6,0,0,0,.23.94,9.54,9.54,0,0,0,.48.88,6.61,6.61,0,0,1-.64-.86,2.88,2.88,0,0,1-.31-1.49c0-.22,0-.43,0-.65-.18-.36-.34-.73-.49-1.1l0,0h0c0-.11-.09-.22-.13-.33a.49.49,0,0,1,0,.12,1.44,1.44,0,0,1-.08.46c-.09.3-.13.51-.21.82a2.34,2.34,0,0,0,0,.94,9.16,9.16,0,0,0,.23.94,6.1,6.1,0,0,1-.4-1,2.77,2.77,0,0,1,.12-1.48,3.07,3.07,0,0,0,.14-1.44c0-.09-.07-.19-.11-.28l-.08-.07.06,0a10.35,10.35,0,0,0-.45-1,2,2,0,0,1-.13.55,2.16,2.16,0,0,1-.26.47c-.22.29-.34.52-.55.82a2.63,2.63,0,0,0-.38,1c0,.24-.08.81-.09,1.07a5.58,5.58,0,0,1-.09-1.15,3.06,3.06,0,0,1,.67-1.56,3.58,3.58,0,0,0,.69-1.48,6.9,6.9,0,0,0-1.07-1.44,2,2,0,0,0-.86-.56Z" transform="translate(-204.74 -23.02)"/><path class="cls-8" d="M572,695.55a8,8,0,0,1,3.47-4.2,7,7,0,0,1,3.51-.63,13.51,13.51,0,0,1,6,2.16,18.8,18.8,0,0,0,5.71,2.59c.39.09.8.15,1.2.21-2.43,1.07-4.75,2.42-7.18,3.49a16.5,16.5,0,0,1-7.52,1.7,9.11,9.11,0,0,1-2.8-.66,4.56,4.56,0,0,1-2.87-2.66,2,2,0,0,1,.47-2" transform="translate(-204.74 -23.02)"/><path class="cls-12" d="M573.4,694.33a3.19,3.19,0,0,1,1.71-.67l0,0,0,0a7,7,0,0,1,.8,0,6.88,6.88,0,0,0,1.6-.89,4.67,4.67,0,0,1,2-1,6.08,6.08,0,0,1,1.35,0c-.32,0-1,.13-1.3.2a4.11,4.11,0,0,0-1.26.56c-.4.29-.69.45-1.09.74a2.81,2.81,0,0,1-.6.36l-.05,0c.29,0,.58.08.86.13a9.66,9.66,0,0,1,1.67.48l.14.06a8,8,0,0,0,1.46-.62,4.62,4.62,0,0,1,2.09-.69,5.42,5.42,0,0,1,1.34.19c-.32,0-1,0-1.31,0a4.09,4.09,0,0,0-1.33.39c-.43.23-.74.36-1.17.6a3.5,3.5,0,0,1-.64.27h0c.83.32,1.54.52,2.45.88a9.54,9.54,0,0,0,1.11.33,6.17,6.17,0,0,0,1.1-.47,3.39,3.39,0,0,1,1.53-.51,5.14,5.14,0,0,1,1,.14c-.23,0-.74,0-1,0a3,3,0,0,0-1,.29l-.86.43a2,2,0,0,1-.4.18,13.52,13.52,0,0,0,2,.22c.82,0,2.72-.1,3.6-.17a22.45,22.45,0,0,1-3.75.65,11.82,11.82,0,0,1-4.94-1,4.33,4.33,0,0,1,.36.4c.33.44.6.7.94,1.12a4.66,4.66,0,0,0,1.25,1c.32.18,1.1.52,1.46.67a9.13,9.13,0,0,1-1.62-.48,5.36,5.36,0,0,1-1.92-1.66,7.57,7.57,0,0,0-1.38-1.39l-1.08-.39h0c-.4-.13-.81-.26-1.22-.37a3.51,3.51,0,0,1,.54.68,3.62,3.62,0,0,1,.33.72c.17.52.34.85.53,1.37a4.39,4.39,0,0,0,.85,1.36c.24.27.86.85,1.15,1.11a10.06,10.06,0,0,1-1.37-1,5.33,5.33,0,0,1-1.27-2.2,5.83,5.83,0,0,0-1.18-2.16,8.86,8.86,0,0,0-1.92-.25,2.56,2.56,0,0,1,.95,1,3.81,3.81,0,0,1,.33.71c.17.52.34.86.53,1.38a4.52,4.52,0,0,0,.85,1.36c.24.27.86.85,1.15,1.11a9.33,9.33,0,0,1-1.37-1,5.33,5.33,0,0,1-1.27-2.2,5.61,5.61,0,0,0-1.24-2.21.75.75,0,0,0-.17-.14h-.27a2.11,2.11,0,0,0-1.25.39Z" transform="translate(-204.74 -23.02)"/><path class="cls-8" d="M555.28,697.92a5.11,5.11,0,0,0-3.31-1,4.43,4.43,0,0,0-2.08.89,8.52,8.52,0,0,0-2.43,3.23,12,12,0,0,1-2.13,3.37c-.18.18-.37.35-.56.52,1.66-.28,3.36-.37,5-.65a10.33,10.33,0,0,0,4.58-1.71,6,6,0,0,0,1.26-1.32,2.94,2.94,0,0,0,.59-2.42,1.22,1.22,0,0,0-.94-.89" transform="translate(-204.74 -23.02)"/><path class="cls-12" d="M548.46,703.13a6.89,6.89,0,0,0,1.86-1.56l.35-.42a2.3,2.3,0,0,1-.45.05c-.32,0-.55,0-.87,0a2.6,2.6,0,0,0-.94.22,8.6,8.6,0,0,0-.85.44,5.33,5.33,0,0,1,.82-.59,3.29,3.29,0,0,1,1.49-.3,5.55,5.55,0,0,0,1-.09c.28-.34.55-.65.85-1.06.13-.17.29-.35.45-.52l-.24,0a1.85,1.85,0,0,1-.47,0c-.33,0-.55,0-.88-.06a2.74,2.74,0,0,0-1,.12c-.21.07-.68.26-.9.35a6.41,6.41,0,0,1,.88-.5,3.24,3.24,0,0,1,1.52-.13,4.16,4.16,0,0,0,1.27,0l.14-.13a6,6,0,0,1,.87-.62,2.2,2.2,0,0,1-.37-.07c-.27-.09-.46-.12-.72-.2a2.33,2.33,0,0,0-.81-.06,5.59,5.59,0,0,0-.8.14,3.85,3.85,0,0,1,.81-.27,2.8,2.8,0,0,1,1.28.14,4.44,4.44,0,0,0,.88.18,2.07,2.07,0,0,1,1.42-.18l.17.06a1.22,1.22,0,0,0-.87.14,4.53,4.53,0,0,0-.48.27,3.43,3.43,0,0,0-.12,1.5,3.21,3.21,0,0,1-.15,1.51,5.87,5.87,0,0,1-.5.88c.09-.22.29-.68.35-.89a2.6,2.6,0,0,0,.13-1c0-.32,0-.55,0-.87a1.85,1.85,0,0,1,0-.47,1.92,1.92,0,0,1,.16-.58,7.66,7.66,0,0,0-1.39,1.28,5.49,5.49,0,0,0-.13,1.07,3.24,3.24,0,0,1-.33,1.48,5.39,5.39,0,0,1-.6.82c.12-.21.37-.65.46-.85a2.7,2.7,0,0,0,.23-.93c0-.33,0-.55,0-.88a1.65,1.65,0,0,1,.05-.38l-.5.61a8.07,8.07,0,0,1-2.87,2.56,13.83,13.83,0,0,1-2.44.77C546.82,703.94,548,703.41,548.46,703.13Z" transform="translate(-204.74 -23.02)"/><path class="cls-13" d="M560.08,696.29a8.64,8.64,0,0,0-5.61-.61,5,5,0,0,0-2.49,2,10.92,10.92,0,0,0-1.43,5.8,16,16,0,0,1-.87,5.91c-.15.34-.32.67-.49,1,2.29-.93,4.75-1.58,7-2.51a11.91,11.91,0,0,0,5.65-4,6.85,6.85,0,0,0,1-2.45,4.91,4.91,0,0,0-.75-4,2.62,2.62,0,0,0-2-1.12" transform="translate(-204.74 -23.02)"/><path class="cls-12" d="M554.43,704.58a1.71,1.71,0,0,1-.23.13,2,2,0,0,1-.46.17c-.34.08-.56.17-.89.26a2.92,2.92,0,0,0-.9.45c-.19.14-.58.5-.76.67a5.37,5.37,0,0,1,.69-.81,3.41,3.41,0,0,1,1.45-.68,3.92,3.92,0,0,0,1.32-.54,7.49,7.49,0,0,0,.66-1.41c.06-.16.12-.32.17-.47l-.19.07a2.77,2.77,0,0,1-.57.13c-.41,0-.69.11-1.09.16a3.47,3.47,0,0,0-1.14.4,11.63,11.63,0,0,0-1,.67,7,7,0,0,1,1-.85,4.06,4.06,0,0,1,1.81-.57,6,6,0,0,0,1.34-.29c.23-.63.46-1.19.69-1.91a4.61,4.61,0,0,1,.2-.55,3,3,0,0,1-.55.24,2.74,2.74,0,0,1-.62.13c-.44,0-.73.11-1.17.16a3.59,3.59,0,0,0-1.21.41c-.26.14-.82.52-1.08.7a6.64,6.64,0,0,1,1-.89,4.36,4.36,0,0,1,1.94-.59,5.09,5.09,0,0,0,1.81-.46,5.84,5.84,0,0,1,.28-.56,7.3,7.3,0,0,1,.63-1,3.54,3.54,0,0,1-.44.11,3.28,3.28,0,0,1-.63.06c-.44,0-.74,0-1.18,0a3.56,3.56,0,0,0-1.25.25c-.28.11-.88.42-1.16.56A7.81,7.81,0,0,1,554,698a4.27,4.27,0,0,1,2-.34,5.31,5.31,0,0,0,1.78-.22,3.36,3.36,0,0,1,1.77-1.18l.23,0a1.85,1.85,0,0,0-1,.64,7,7,0,0,0-.64.82s0,.07,0,.1a4.58,4.58,0,0,0,1,1.75,4.3,4.3,0,0,1,1,1.77,6.85,6.85,0,0,1,.12,1.35c-.06-.31-.2-1-.29-1.25a3.82,3.82,0,0,0-.6-1.14c-.28-.33-.44-.59-.73-.92a3.2,3.2,0,0,1-.36-.52,2.27,2.27,0,0,1-.29-1,13.68,13.68,0,0,0-1.2,2.5,5,5,0,0,0,.78,1.75,4.18,4.18,0,0,1,.77,1.88,6.88,6.88,0,0,1,0,1.36c0-.32-.08-1-.13-1.28a3.69,3.69,0,0,0-.45-1.21c-.23-.37-.36-.64-.61-1a3,3,0,0,1-.29-.56,5.15,5.15,0,0,1-.16-.56c-.07.19-.14.39-.2.58a23.38,23.38,0,0,1-.87,2.17c0,.26.1.52.16.78a3.32,3.32,0,0,1,.12,1.62,5.33,5.33,0,0,1-.37,1c.06-.24.18-.77.21-1a2.81,2.81,0,0,0,0-1c-.09-.33-.12-.57-.22-.91l0-.13a7.93,7.93,0,0,1-1.32,1.89,20.24,20.24,0,0,1-2.59,2.22c.56-.56,1.72-1.8,2.17-2.38A10.89,10.89,0,0,0,554.43,704.58Z" transform="translate(-204.74 -23.02)"/><path class="cls-8" d="M564.4,695.63a10.7,10.7,0,0,1,6.82,1.35,6.16,6.16,0,0,1,2.18,3.29c.72,2.46.18,5-.47,7.33s-1.41,4.78-1.15,7.27c.05.45.13.9.21,1.35-2.34-2-5-3.61-7.34-5.55s-4.42-4.25-5.14-6.85a8.47,8.47,0,0,1-.23-3.24,6,6,0,0,1,2.35-4.38,3.26,3.26,0,0,1,2.77-.57" transform="translate(-204.74 -23.02)"/><path class="cls-12" d="M562.47,701.65a6.07,6.07,0,0,1,1.66-2.31,6.5,6.5,0,0,0,1.69-2.28,2.46,2.46,0,0,0,.07-.29,2.11,2.11,0,0,0-.84-1l.26.13a3.63,3.63,0,0,1,1.39,1.51,5.19,5.19,0,0,0,2,.67,4.71,4.71,0,0,1,2.06.75,6.53,6.53,0,0,1,.93,1c-.25-.2-.79-.62-1.05-.78a3.74,3.74,0,0,0-1.27-.51c-.48-.09-.8-.19-1.29-.26a3.9,3.9,0,0,1-.67-.18,3.16,3.16,0,0,1-.52-.26,9.44,9.44,0,0,1,.61,2c.06.27.11.58.15.88l0,0a5.14,5.14,0,0,0,2.08.72,4.67,4.67,0,0,1,2.06.75,6.08,6.08,0,0,1,.93,1c-.24-.2-.79-.63-1-.79a4.12,4.12,0,0,0-1.28-.51c-.48-.09-.8-.18-1.28-.25a3.47,3.47,0,0,1-.67-.19,2.26,2.26,0,0,1-.82-.5,6.92,6.92,0,0,1,0,.76c0,.81,0,1.47.09,2.16a7.84,7.84,0,0,0,1.33.77,4.62,4.62,0,0,1,1.78,1.27,5.63,5.63,0,0,1,.64,1.18,11.76,11.76,0,0,0-.8-1,3.81,3.81,0,0,0-1.09-.84c-.44-.21-.72-.38-1.17-.58a3.29,3.29,0,0,1-.6-.36l-.07,0c0,.3,0,.62,0,1a12.87,12.87,0,0,0,.84,3.82c.33.84,1.23,2.73,1.67,3.59a24.92,24.92,0,0,1-2.21-3.56,8.28,8.28,0,0,1-.62-1.63h0c-.16.49-.21.84-.36,1.33a4.39,4.39,0,0,0-.1,1.5c0,.35.19,1.12.27,1.48a8,8,0,0,1-.5-1.5,5,5,0,0,1,.24-2.37,11.27,11.27,0,0,0,.28-1.18,13.43,13.43,0,0,1-.24-1.67h0c0-.32,0-.64-.07-1,0,.12-.09.23-.13.34a3.72,3.72,0,0,1-.38.64c-.31.41-.48.72-.79,1.13a4.29,4.29,0,0,0-.6,1.38c-.08.33-.2,1.12-.25,1.48a8.35,8.35,0,0,1,0-1.58,5,5,0,0,1,1-2.15,5.6,5.6,0,0,0,1-2,1.93,1.93,0,0,0,0-.24c0-.12,0-.24,0-.36l0,0,0,0c0-.72-.07-1.45-.15-2.17a3.72,3.72,0,0,1-.51,1,4.86,4.86,0,0,1-.63.73c-.49.46-.78.82-1.27,1.28a5.7,5.7,0,0,0-1.09,1.64c-.18.41-.51,1.4-.65,1.86a11,11,0,0,1,.4-2,6.46,6.46,0,0,1,1.82-2.53,6.94,6.94,0,0,0,1.85-2.5v0A10.34,10.34,0,0,0,566,697a2.68,2.68,0,0,1-.57,1.5,3.67,3.67,0,0,1-.57.67c-.45.41-.71.74-1.15,1.17a5.19,5.19,0,0,0-1,1.49c-.16.37-.46,1.27-.59,1.69A9.61,9.61,0,0,1,562.47,701.65Z" transform="translate(-204.74 -23.02)"/><path class="cls-13" d="M559.9,695a7.65,7.65,0,0,0,2.21-4.49,4.52,4.52,0,0,0-.93-2.68,9.67,9.67,0,0,0-4.41-2.93,14.31,14.31,0,0,1-4.66-2.51c-.24-.22-.46-.46-.69-.7.1,2.18-.11,4.43,0,6.62a10.65,10.65,0,0,0,1.68,5.93,6.31,6.31,0,0,0,1.76,1.54,4.36,4.36,0,0,0,3.53.56A2.29,2.29,0,0,0,559.9,695" transform="translate(-204.74 -23.02)"/><path class="cls-12" d="M554.69,687.84a2,2,0,0,1,0-.24,2.14,2.14,0,0,1,0-.44c0-.3,0-.51.06-.81a3,3,0,0,0-.11-.89c-.06-.2-.24-.63-.33-.83a4.72,4.72,0,0,1,.47.82,2.87,2.87,0,0,1,.12,1.4,3.6,3.6,0,0,0,.06,1.27,7.5,7.5,0,0,0,1,1c.13.09.24.19.35.28a1.09,1.09,0,0,1,0-.18,3.09,3.09,0,0,1,.07-.52c.09-.35.11-.6.19-.95a3,3,0,0,0,0-1.07c0-.24-.18-.78-.25-1a5.26,5.26,0,0,1,.42,1,3.68,3.68,0,0,1-.07,1.68,5.49,5.49,0,0,0-.16,1.2c.46.39.85.75,1.39,1.15.13.1.26.22.39.34a2.45,2.45,0,0,1,0-.54,2.51,2.51,0,0,1,.07-.55c.1-.38.13-.65.22-1a3.41,3.41,0,0,0,0-1.14c0-.26-.19-.84-.26-1.11a6.32,6.32,0,0,1,.43,1.12,3.8,3.8,0,0,1-.09,1.8,4.58,4.58,0,0,0-.16,1.64,3.62,3.62,0,0,1,.38.41,7.28,7.28,0,0,1,.63.81,2.69,2.69,0,0,1,0-.4,2.55,2.55,0,0,1,.15-.54c.14-.36.2-.62.34-1a3.17,3.17,0,0,0,.16-1.13,11.12,11.12,0,0,0-.12-1.13,5.82,5.82,0,0,1,.3,1.16,3.89,3.89,0,0,1-.32,1.77,4.78,4.78,0,0,0-.36,1.55,3,3,0,0,1,.45,1.84l0,.2a1.67,1.67,0,0,0-.24-1,7,7,0,0,0-.49-.79h-.09a4.07,4.07,0,0,0-1.77.33,3.75,3.75,0,0,1-1.77.3,5.67,5.67,0,0,1-1.16-.31,11.24,11.24,0,0,0,1.13.14,3.33,3.33,0,0,0,1.12-.16c.37-.13.63-.19,1-.33a2,2,0,0,1,.54-.14,1.86,1.86,0,0,1,.91,0,11.45,11.45,0,0,0-1.73-1.75,4.41,4.41,0,0,0-1.69.12,3.79,3.79,0,0,1-1.8.08,6.29,6.29,0,0,1-1.11-.45c.27.08.85.23,1.1.27a3.13,3.13,0,0,0,1.14,0c.38-.08.65-.11,1-.21a3.57,3.57,0,0,1,.56-.07,2.92,2.92,0,0,1,.51,0l-.42-.35a18.21,18.21,0,0,1-1.55-1.38l-.69-.09a3.11,3.11,0,0,1-1.39-.39,4.8,4.8,0,0,1-.74-.61c.19.12.59.38.78.47a2.56,2.56,0,0,0,.86.28c.31,0,.52.07.83.09H555a6.81,6.81,0,0,1-1.18-1.67,18.15,18.15,0,0,1-1.07-2.82c.3.63,1,2,1.33,2.52C554.24,687.21,554.45,687.52,554.69,687.84Z" transform="translate(-204.74 -23.02)"/><path class="cls-8" d="M563.4,695.82a9.31,9.31,0,0,1-1.7-5.77,5.38,5.38,0,0,1,1.64-3,11.75,11.75,0,0,1,5.81-2.58,17.27,17.27,0,0,0,6-2c.33-.22.64-.46.95-.7-.55,2.57-.76,5.28-1.31,7.85s-1.48,5.1-3.19,6.69a7.42,7.42,0,0,1-2.38,1.48,5.23,5.23,0,0,1-4.31,0,2.78,2.78,0,0,1-1.55-1.89" transform="translate(-204.74 -23.02)"/><path class="cls-12" d="M571,688.33a1.34,1.34,0,0,0,.09-.26,2.36,2.36,0,0,0,.1-.53c0-.36.07-.61.09-1a2.91,2.91,0,0,1,.32-1c.11-.22.4-.7.55-.92a6.05,6.05,0,0,0-.72.87,3.58,3.58,0,0,0-.43,1.65,4.36,4.36,0,0,1-.32,1.48,8.71,8.71,0,0,1-1.36,1l-.46.26a1.55,1.55,0,0,0,0-.21,3.29,3.29,0,0,0,0-.63c0-.43,0-.73,0-1.17a4,4,0,0,1,.2-1.26c.1-.28.38-.9.51-1.18a7.06,7.06,0,0,0-.7,1.15,4.15,4.15,0,0,0-.26,2,6.47,6.47,0,0,1-.06,1.46c-.61.36-1.15.71-1.87,1.08-.17.09-.35.2-.54.32a2.78,2.78,0,0,0,.16-.63,3.78,3.78,0,0,0,0-.67c0-.47,0-.79-.06-1.26a4,4,0,0,1,.2-1.35c.1-.3.39-1,.53-1.26a7.39,7.39,0,0,0-.74,1.24,4.58,4.58,0,0,0-.25,2.15,5,5,0,0,1-.15,2l-.53.41a8.87,8.87,0,0,0-.9.84,3.88,3.88,0,0,0,0-.48,3,3,0,0,0-.07-.67c-.1-.46-.12-.78-.21-1.24a4.11,4.11,0,0,1,0-1.37c.06-.3.26-1,.37-1.31a7.47,7.47,0,0,0-.59,1.32,4.64,4.64,0,0,0,0,2.16,5.62,5.62,0,0,1,.12,1.91,3.55,3.55,0,0,0-.91,2.08v.25a2,2,0,0,1,.49-1.15,8.42,8.42,0,0,1,.74-.83h.1a5,5,0,0,1,2,.75,4.64,4.64,0,0,0,2,.72,8.66,8.66,0,0,0,1.44-.13c-.34,0-1.06,0-1.37-.08a3.78,3.78,0,0,1-1.3-.4c-.41-.23-.71-.36-1.11-.6a3.08,3.08,0,0,0-.61-.28,2.35,2.35,0,0,0-1.08-.12,13.68,13.68,0,0,1,2.4-1.73,5.34,5.34,0,0,1,2,.49,4.47,4.47,0,0,0,2.11.46,8.23,8.23,0,0,0,1.41-.31c-.33,0-1.05.1-1.36.1a4.1,4.1,0,0,1-1.35-.24c-.43-.18-.74-.27-1.17-.46a3.61,3.61,0,0,0-.64-.19,2.56,2.56,0,0,0-.62-.06l.57-.33a24.83,24.83,0,0,0,2.12-1.32c.28,0,.56,0,.84,0a3.56,3.56,0,0,0,1.72-.17,6.2,6.2,0,0,0,1-.58c-.24.11-.78.33-1,.41a3.3,3.3,0,0,1-1.09.15c-.37,0-.63,0-1-.06h-.14a8.25,8.25,0,0,0,1.74-1.75,22.21,22.21,0,0,0,1.84-3.12c-.49.68-1.57,2.14-2.09,2.72A11.08,11.08,0,0,1,571,688.33Z" transform="translate(-204.74 -23.02)"/><path class="cls-8" d="M562.58,693.15a6.78,6.78,0,0,0-3.54-3,5.94,5.94,0,0,0-3,0,11.38,11.38,0,0,0-4.69,2.71,16.16,16.16,0,0,1-4.38,3c-.31.13-.64.24-1,.35,2.2.52,4.33,1.3,6.53,1.83a14.17,14.17,0,0,0,6.54.28,7.75,7.75,0,0,0,2.23-1,3.91,3.91,0,0,0,2-2.66,1.65,1.65,0,0,0-.7-1.59" transform="translate(-204.74 -23.02)"/><path class="cls-12" d="M551.46,696a9.28,9.28,0,0,0,3.11-.94l.64-.35a2.87,2.87,0,0,1-.57-.17c-.4-.18-.69-.25-1.1-.42a3.5,3.5,0,0,0-1.26-.21c-.3,0-1,.06-1.28.1a7.23,7.23,0,0,1,1.32-.3,4.34,4.34,0,0,1,2,.41,7,7,0,0,0,1.28.4c.52-.26,1-.5,1.61-.86a7,7,0,0,1,.82-.4l-.32-.08a2.71,2.71,0,0,1-.59-.24c-.38-.22-.66-.33-1-.53a3.54,3.54,0,0,0-1.24-.35c-.29,0-1,0-1.28,0a6.63,6.63,0,0,1,1.34-.15,4.15,4.15,0,0,1,1.94.62,5.4,5.4,0,0,0,1.59.61l.24-.08a7.81,7.81,0,0,1,1.39-.31,2,2,0,0,1-.42-.28c-.28-.25-.5-.39-.78-.62a3,3,0,0,0-1-.5c-.24-.08-.8-.2-1.06-.25a6.2,6.2,0,0,1,1.14.1,3.71,3.71,0,0,1,1.51.84,5.37,5.37,0,0,0,1,.68,2.73,2.73,0,0,1,1.85.53l.18.16a1.69,1.69,0,0,0-1.15-.29,5.87,5.87,0,0,0-.72.08,4.53,4.53,0,0,0-.94,1.79,4.24,4.24,0,0,1-1,1.78,7.68,7.68,0,0,1-1.08.82c.23-.22.71-.69.9-.91a3.58,3.58,0,0,0,.65-1.11c.14-.41.27-.69.4-1.11a2.48,2.48,0,0,1,.25-.58,2.68,2.68,0,0,1,.49-.63,10.45,10.45,0,0,0-2.38.86,7.37,7.37,0,0,0-.72,1.25A4.36,4.36,0,0,1,556,697a6.86,6.86,0,0,1-1.17.68c.25-.18.79-.6,1-.8a3.64,3.64,0,0,0,.77-1c.19-.4.35-.66.52-1.06a2.28,2.28,0,0,1,.26-.45l-.94.49a10.73,10.73,0,0,1-4.87,1.66,17.65,17.65,0,0,1-3.4-.33C549,696.15,550.72,696.1,551.46,696Z" transform="translate(-204.74 -23.02)"/><path class="cls-13" d="M564.27,694.17A5.19,5.19,0,0,1,567.6,693a4.47,4.47,0,0,1,2.17.81,8.81,8.81,0,0,1,2.65,3.19,12.5,12.5,0,0,0,2.34,3.33c.2.18.4.35.61.51-1.72-.2-3.46-.21-5.17-.41a10.66,10.66,0,0,1-4.77-1.53,5.74,5.74,0,0,1-1.35-1.29,3,3,0,0,1-.73-2.44,1.25,1.25,0,0,1,.92-1" transform="translate(-204.74 -23.02)"/><path class="cls-12" d="M571.5,699.16a7.24,7.24,0,0,1-2-1.5l-.37-.42a1.71,1.71,0,0,0,.45,0c.34,0,.57,0,.9,0a2.75,2.75,0,0,1,1,.18c.21.08.68.3.89.41a5.61,5.61,0,0,0-.87-.56,3.16,3.16,0,0,0-1.53-.23,5.83,5.83,0,0,1-1,0c-.31-.33-.6-.64-.93-1a3.78,3.78,0,0,0-.48-.51l.25,0a2.57,2.57,0,0,0,.48,0c.33-.06.56-.06.9-.11a3,3,0,0,1,1,.08c.21,0,.7.23.93.31a5.36,5.36,0,0,0-.93-.46,3.24,3.24,0,0,0-1.55-.07,4.43,4.43,0,0,1-1.31,0l-.15-.12a5.45,5.45,0,0,0-.91-.59,1.56,1.56,0,0,0,.37-.1c.27-.1.46-.14.73-.23a2.24,2.24,0,0,1,.82-.11,8.22,8.22,0,0,1,.83.11,4.11,4.11,0,0,0-.85-.23,2.67,2.67,0,0,0-1.3.2,4,4,0,0,1-.89.23,2.11,2.11,0,0,0-1.46-.11l-.18.07a1.31,1.31,0,0,1,.91.09l.5.25a3.78,3.78,0,0,1,.2,1.54,3.28,3.28,0,0,0,.22,1.53,5.61,5.61,0,0,0,.56.87c-.11-.21-.33-.68-.41-.89a3,3,0,0,1-.17-1c0-.33,0-.56,0-.9a2.58,2.58,0,0,0,0-.48,1.72,1.72,0,0,0-.19-.58,7.67,7.67,0,0,1,1.48,1.25,4.37,4.37,0,0,1,.19,1.08,3.24,3.24,0,0,0,.41,1.5,5,5,0,0,0,.65.8c-.13-.2-.4-.64-.51-.84a2.9,2.9,0,0,1-.28-.94c0-.33-.08-.56-.1-.89a1.84,1.84,0,0,0-.06-.4l.54.61a8.32,8.32,0,0,0,3.06,2.48,15,15,0,0,0,2.53.66C573.22,699.92,572,699.43,571.5,699.16Z" transform="translate(-204.74 -23.02)"/><path class="cls-11" d="M565,661.27a1.13,1.13,0,0,0,1.06-.74,30.33,30.33,0,0,0,2.08-8.41,13.28,13.28,0,0,0-2.14-8.68,1.13,1.13,0,0,0-1.81,1.34,11,11,0,0,1,1.69,7.19,28,28,0,0,1-1.94,7.78,1.13,1.13,0,0,0,.67,1.45A1.07,1.07,0,0,0,565,661.27Z" transform="translate(-204.74 -23.02)"/><rect class="cls-2" x="613.62" y="703.94" width="47.35" height="169.3" transform="translate(1069.84 1554.15) rotate(-180)"/><path class="cls-4" d="M612.51,704.29H661V688.73H601.62a.81.81,0,0,0-.63,1.32Z" transform="translate(-204.74 -23.02)"/><path class="cls-4" d="M609.65,703.94h48a3.28,3.28,0,0,1,3.28,3.28v0a3.28,3.28,0,0,1-3.28,3.28h-48a0,0,0,0,1,0,0v-6.57A0,0,0,0,1,609.65,703.94Z" transform="translate(1065.87 1391.42) rotate(180)"/><g class="cls-19"><path class="cls-6" d="M716.34,704.28H601.15v-8.74a8.72,8.72,0,0,1,7.2,3.8,8.73,8.73,0,0,1,14.4,0,8.73,8.73,0,0,1,14.4,0,8.73,8.73,0,0,1,14.4,0,8.73,8.73,0,0,1,14.4,0,5.93,5.93,0,0,1,.43-.56l0-.06c.15-.18.32-.36.49-.54l.11-.11c.18-.18.36-.34.55-.5l.08-.06a8.64,8.64,0,0,1,2.83-1.54l.12,0a6.17,6.17,0,0,1,.74-.19l.14,0a9.07,9.07,0,0,1,1.66-.18,8.77,8.77,0,0,1,7.2,3.8,8.72,8.72,0,0,1,13.77-.81,10.09,10.09,0,0,1,.63.8,8.73,8.73,0,0,1,14.4,0,8.71,8.71,0,0,1,7.2-3.79Z" transform="translate(-204.74 -23.02)"/></g><path class="cls-4" d="M629.68,736.59H661a0,0,0,0,1,0,0v63.33a31.29,31.29,0,0,1-31.29,31.29h0a0,0,0,0,1,0,0V736.59A0,0,0,0,1,629.68,736.59Z" transform="translate(1085.9 1544.77) rotate(-180)"/><path class="cls-6" d="M634.67,741H661a0,0,0,0,1,0,0v57.5a26.29,26.29,0,0,1-26.29,26.29h0a0,0,0,0,1,0,0V741A0,0,0,0,1,634.67,741Z" transform="translate(1090.9 1542.68) rotate(-180)"/><path class="cls-2" d="M661,936.88H613.68v-44c-1.36-12.29-6.54-17.1-6.54-17.1h6.54V869H661Z" transform="translate(-204.74 -23.02)"/><path class="cls-3" d="M661,876H604.28s-16.39.39-9.74-14.14c4.81-10.52-.66-13-4-13.6A6.07,6.07,0,0,1,586.62,859a5.36,5.36,0,0,1-.7,0h0s-10.09-.47-8.47-12.87S592,836.5,592,836.5s11.25.78,12.17,11.12S642.39,859,642.39,859H661Z" transform="translate(-204.74 -23.02)"/><rect class="cls-2" x="613.62" y="941.47" width="47.35" height="169.3" transform="translate(1069.84 2029.21) rotate(-180)"/><path class="cls-4" d="M612.51,941.82H661V926.26H601.62a.81.81,0,0,0-.63,1.32Z" transform="translate(-204.74 -23.02)"/><path class="cls-4" d="M609.65,941.47h48a3.28,3.28,0,0,1,3.28,3.28v0a3.28,3.28,0,0,1-3.28,3.28h-48a0,0,0,0,1,0,0v-6.57A0,0,0,0,1,609.65,941.47Z" transform="translate(1065.87 1866.48) rotate(180)"/><g class="cls-20"><path class="cls-6" d="M716.34,941.81H601.15v-8.74a8.72,8.72,0,0,1,7.2,3.8,8.73,8.73,0,0,1,14.4,0,8.73,8.73,0,0,1,14.4,0,8.73,8.73,0,0,1,14.4,0,8.73,8.73,0,0,1,14.4,0,5.93,5.93,0,0,1,.43-.56l0-.06c.15-.18.32-.36.49-.54l.11-.11c.18-.17.36-.34.55-.5l.08-.06a8.44,8.44,0,0,1,2.83-1.53l.12,0a6.17,6.17,0,0,1,.74-.19l.14,0a9.07,9.07,0,0,1,1.66-.17,8.7,8.7,0,0,1,6.57,3c.22.25.43.53.63.81a8.74,8.74,0,0,1,14.4,0,8.73,8.73,0,0,1,14.4,0,8.71,8.71,0,0,1,7.2-3.79Z" transform="translate(-204.74 -23.02)"/></g><path class="cls-4" d="M629.68,974.12H661a0,0,0,0,1,0,0v63.33a31.29,31.29,0,0,1-31.29,31.29h0a0,0,0,0,1,0,0V974.12A0,0,0,0,1,629.68,974.12Z" transform="translate(1085.9 2019.83) rotate(-180)"/><path class="cls-6" d="M634.67,978.49H661a0,0,0,0,1,0,0V1036a26.29,26.29,0,0,1-26.29,26.29h0a0,0,0,0,1,0,0V978.49A0,0,0,0,1,634.67,978.49Z" transform="translate(1090.9 2017.74) rotate(-180)"/><path class="cls-9" d="M639.69,809.26s-8.9.61-3,13.84C636.69,823.1,647.16,813.67,639.69,809.26Z" transform="translate(-204.74 -23.02)"/><path class="cls-8" d="M599.59,814.36a7.72,7.72,0,0,0,5.23-3.39,15,15,0,0,0,2.41-6.22c.68-3.82.42-7.7.63-11.56a92.39,92.39,0,0,0,5.29,23.6,105.91,105.91,0,0,1,.52-27.55,42.87,42.87,0,0,0,7,8.3c4.38,4.08,10.06,7.18,15.29,10.61a139,139,0,0,1,15.48,11.72c1.11,1,2.2,2,3.24,3a19.2,19.2,0,0,1,.82,2.9A13.21,13.21,0,0,1,653.56,836a10.24,10.24,0,0,1-4,3.31,11.52,11.52,0,0,1-5.61,1.21,5.67,5.67,0,0,1-5-6.91,5.77,5.77,0,0,1,2.91-4c1.11-.55,2.92-.41,3.42.94a1,1,0,0,0,1.21.68,1,1,0,0,0,.69-1.21,4.38,4.38,0,0,0-5.73-2.37,7.55,7.55,0,0,0-4.42,5.56,7.74,7.74,0,0,0,1.19,6,7.53,7.53,0,0,0,5.33,3.17,13.19,13.19,0,0,0,7-1.48,12.11,12.11,0,0,0,4.81-4.22,15.16,15.16,0,0,0,2.05-10.86,21.53,21.53,0,0,1,3.95,6.5c2,5.43.43,11-1.36,16.19a13,13,0,0,0,6.2-8.53c2.23-8.47-.7-17.93-7.85-25.37-9.47-9.87-25.08-15.78-35-25.35a24,24,0,0,1-7.2-12,71.39,71.39,0,0,1,12.16-24.7q2.05-2.62,4-4.87a12.55,12.55,0,0,0,1.18,5.26,5.79,5.79,0,0,0,2.22,2.6,3.56,3.56,0,0,0,3.28.22c1.93-.84,3.61-3.22,2.8-5.36a2.32,2.32,0,0,0-2.59-1.63,1.85,1.85,0,0,0-1.16,2.59.67.67,0,0,0,.91.24.68.68,0,0,0,.24-.91.53.53,0,0,1,.23-.6c.27-.16.64.05.84.26a2.15,2.15,0,0,1,.2,2.19c-.58,1.39-2.28,2.69-3.8,2s-2.31-2.68-2.7-4.27a10.41,10.41,0,0,1-.16-4.24c18.53-20,32.48-16.75,32.48-16.75V713.66c-.67.54-9.87,4.08-20.89,11.29l-1,.16a49.2,49.2,0,0,1-14.42-.62c-6.85-1.09-13-4.3-17-9.92,0,0-.14-.46-.34.56a10,10,0,0,0-.18,1.92c0,4.54,3.52,6.54,7.33,9a55.83,55.83,0,0,0,5.44,3.07,39.89,39.89,0,0,0,10.05,3.3,91.64,91.64,0,0,0-15.6,16.2l-.47.21c-4.18,2-9,4.33-11.1,8.8-2,4.32-1,8.91.61,13.18a76.74,76.74,0,0,0-1.29,14.88,23.81,23.81,0,0,0-1.14,4.91c-.51,4-.15,8-.56,12-.37,3.54-1.52,8.13-5.12,9.74a3.54,3.54,0,0,1-3.91-.59,5.7,5.7,0,0,1-1.08-5.86c.26-.62.76-1.43,1.49-1.5a1.52,1.52,0,0,1,1.43,1.1,3.12,3.12,0,0,1-.57,2.58c-.6.93.89,1.8,1.49.87a4.87,4.87,0,0,0,.77-3.79,3.36,3.36,0,0,0-2.4-2.41c-2.6-.58-4,2.3-4.27,4.42C593.24,810.66,595.63,814.78,599.59,814.36Zm10.79-56.73a13.33,13.33,0,0,1,4.52-4.28c.82-.52,1.66-1,2.52-1.45a69.36,69.36,0,0,0-7.71,15.46,17.1,17.1,0,0,1-.57-2.83A10.94,10.94,0,0,1,610.38,757.63Z" transform="translate(-204.74 -23.02)"/><path class="cls-9" d="M620.33,726.51s-8.1-8.53-16,8.39C604.29,734.9,622.31,737.71,620.33,726.51Z" transform="translate(-204.74 -23.02)"/><path class="cls-9" d="M631.12,725.51s11-4.2-1.58-18C629.54,707.49,620,723,631.12,725.51Z" transform="translate(-204.74 -23.02)"/><path class="cls-9" d="M608,780.57s-8.1-8.52-16,8.39C591.94,789,610,791.77,608,780.57Z" transform="translate(-204.74 -23.02)"/><path class="cls-9" d="M630.72,796.05s9.53,6.28,13.76-11.74C644.48,784.31,626.54,785.8,630.72,796.05Z" transform="translate(-204.74 -23.02)"/><path class="cls-9" d="M623.44,799.34s-6.67,1.73-.35,11.27C623.09,810.61,629.71,801.73,623.44,799.34Z" transform="translate(-204.74 -23.02)"/><path class="cls-8" d="M612.33,900.82a6.78,6.78,0,0,1,.33-1.62c.3-.85.44-.45.44-.45,4.37,4.94,11.28,7.94,19.2,9.18,2.52.4,5.07.76,7.63,1h0c7.93.64,18.79-2.45,24.18-4.21l.31-.16-.2.13c2-.65,3.2-1.11,3.2-1.11v3l1,9.17c-12.82,3.3-27.84-.5-27.84-.5l0,0a59.2,59.2,0,0,1-14.12-3.68c-2.13-.85-4.16-1.83-6.14-2.85C616,906.51,612,904.65,612.33,900.82Z" transform="translate(-204.74 -23.02)"/><path class="cls-9" d="M623.76,906.34s8.9.18,4-13.1C627.77,893.24,616.67,901.45,623.76,906.34Z" transform="translate(-204.74 -23.02)"/><path class="cls-9" d="M613.72,905.68s.75-8.87-12.81-4.84C600.91,900.84,608.39,912.44,613.72,905.68Z" transform="translate(-204.74 -23.02)"/><path class="cls-9" d="M634.9,913s-8.42-6.77-13.57,9.6C621.33,922.61,638.08,923,634.9,913Z" transform="translate(-204.74 -23.02)"/><path class="cls-9" d="M640.53,1048s-9.11.62-3.07,14.14C637.46,1062.17,648.15,1052.54,640.53,1048Z" transform="translate(-204.74 -23.02)"/><path class="cls-8" d="M599.54,1053.25a8,8,0,0,0,5.35-3.47,15.3,15.3,0,0,0,2.46-6.35c.7-3.91.43-7.88.64-11.82a94.64,94.64,0,0,0,5.41,24.12,108.22,108.22,0,0,1,.53-28.16,43.63,43.63,0,0,0,7.13,8.49c4.47,4.17,10.27,7.33,15.62,10.84a144.13,144.13,0,0,1,15.82,12c1.13,1,2.25,2,3.31,3.05a20.36,20.36,0,0,1,.84,3,13.59,13.59,0,0,1-1.95,10.48,10.34,10.34,0,0,1-4.1,3.37,11.67,11.67,0,0,1-5.73,1.24,5.79,5.79,0,0,1-5.07-7.06,5.9,5.9,0,0,1,3-4.06c1.14-.56,3-.41,3.5,1a1,1,0,1,0,1.94-.54,4.47,4.47,0,0,0-5.86-2.42,7.72,7.72,0,0,0-4.52,5.68,7.88,7.88,0,0,0,1.22,6.17,7.71,7.71,0,0,0,5.45,3.25,13.33,13.33,0,0,0,7.19-1.52,12.3,12.3,0,0,0,4.92-4.32,15.47,15.47,0,0,0,2.1-11.09,22.11,22.11,0,0,1,4,6.64c2,5.55.44,11.21-1.39,16.55a13.26,13.26,0,0,0,6.34-8.72c2.27-8.66-.72-18.32-8-25.93-9.68-10.08-25.64-16.12-35.79-25.9a24.51,24.51,0,0,1-7.36-12.3,72.84,72.84,0,0,1,12.42-25.23q2.1-2.68,4.14-5a12.72,12.72,0,0,0,1.2,5.37,5.94,5.94,0,0,0,2.26,2.67,3.66,3.66,0,0,0,3.36.22c2-.86,3.69-3.3,2.86-5.49a2.38,2.38,0,0,0-2.64-1.66,1.89,1.89,0,0,0-1.19,2.65.68.68,0,0,0,1.17-.68.57.57,0,0,1,.23-.62.76.76,0,0,1,.86.27,2.17,2.17,0,0,1,.21,2.24c-.59,1.41-2.33,2.75-3.89,2s-2.35-2.74-2.75-4.37a10.84,10.84,0,0,1-.17-4.33c18.94-20.41,33.2-17.12,33.2-17.12v-16c-.68.56-10.08,4.18-21.35,11.55l-1,.16a50,50,0,0,1-14.74-.64c-7-1.11-13.23-4.39-17.38-10.13,0,0-.15-.47-.35.57a11.08,11.08,0,0,0-.19,2c0,4.63,3.6,6.68,7.5,9.13a57.25,57.25,0,0,0,5.55,3.14,41,41,0,0,0,10.27,3.38A93.52,93.52,0,0,0,620.15,986l-.47.23c-4.28,2.06-9.26,4.41-11.36,9-2,4.42-1,9.11.63,13.47a78.65,78.65,0,0,0-1.32,15.21,24.21,24.21,0,0,0-1.16,5c-.52,4.08-.16,8.21-.58,12.3-.37,3.62-1.55,8.31-5.23,10a3.59,3.59,0,0,1-4-.61,5.75,5.75,0,0,1-1.1-6c.25-.63.76-1.46,1.52-1.53a1.53,1.53,0,0,1,1.45,1.12,3.15,3.15,0,0,1-.57,2.63c-.62,1,.9,1.84,1.52.89a4.93,4.93,0,0,0,.79-3.87,3.46,3.46,0,0,0-2.46-2.46c-2.65-.6-4.12,2.35-4.36,4.52C593.05,1049.46,595.49,1053.67,599.54,1053.25Zm11-58a13.68,13.68,0,0,1,4.61-4.37c.84-.53,1.7-1,2.58-1.48a70.69,70.69,0,0,0-7.88,15.8,19,19,0,0,1-.58-2.89A11.16,11.16,0,0,1,610.57,995.26Z" transform="translate(-204.74 -23.02)"/><path class="cls-9" d="M620.73,963.45s-8.27-8.7-16.38,8.58C604.35,972,622.76,974.9,620.73,963.45Z" transform="translate(-204.74 -23.02)"/><path class="cls-9" d="M631.77,962.44S643,958.15,630.15,944C630.15,944,620.42,959.92,631.77,962.44Z" transform="translate(-204.74 -23.02)"/><path class="cls-9" d="M608.11,1018.71s-8.28-8.71-16.39,8.58C591.72,1027.29,610.14,1030.16,608.11,1018.71Z" transform="translate(-204.74 -23.02)"/><path class="cls-9" d="M631.35,1034.54s9.74,6.41,14.07-12C645.42,1022.53,627.08,1024.05,631.35,1034.54Z" transform="translate(-204.74 -23.02)"/><path class="cls-9" d="M623.91,1037.89s-6.82,1.78-.36,11.52C623.55,1049.41,630.32,1040.34,623.91,1037.89Z" transform="translate(-204.74 -23.02)"/><path class="cls-9" d="M639.65,605.7s-8.69.6-2.93,13.5C636.72,619.2,646.93,610,639.65,605.7Z" transform="translate(-204.74 -23.02)"/><path class="cls-8" d="M600.52,610.68a7.51,7.51,0,0,0,5.11-3.31,14.52,14.52,0,0,0,2.35-6.06c.67-3.73.41-7.52.62-11.28a90,90,0,0,0,5.16,23,103.36,103.36,0,0,1,.5-26.88,41.34,41.34,0,0,0,6.8,8.1c4.28,4,9.81,7,14.92,10.35a137.38,137.38,0,0,1,15.1,11.43c1.08,1,2.14,1.91,3.16,2.91a18.28,18.28,0,0,1,.8,2.83,12.94,12.94,0,0,1-1.86,10,10,10,0,0,1-3.92,3.23,11.26,11.26,0,0,1-5.47,1.18,5.52,5.52,0,0,1-4.83-6.74,5.6,5.6,0,0,1,2.83-3.88c1.09-.53,2.85-.39,3.34.92a1,1,0,0,0,1.18.67A1,1,0,0,0,647,626a4.26,4.26,0,0,0-5.59-2.31,7.38,7.38,0,0,0-4.31,5.42,7.48,7.48,0,0,0,1.16,5.88,7.33,7.33,0,0,0,5.2,3.1,12.84,12.84,0,0,0,6.87-1.44,11.81,11.81,0,0,0,4.69-4.12,14.74,14.74,0,0,0,2-10.59,21.07,21.07,0,0,1,3.85,6.34c1.9,5.29.43,10.7-1.32,15.79a12.63,12.63,0,0,0,6.05-8.32c2.17-8.26-.69-17.49-7.66-24.75-9.24-9.63-24.47-15.39-34.16-24.72a23.46,23.46,0,0,1-7-11.74,69.65,69.65,0,0,1,11.86-24.09c1.34-1.7,2.65-3.28,3.95-4.75a12.24,12.24,0,0,0,1.15,5.13,5.58,5.58,0,0,0,2.16,2.54,3.45,3.45,0,0,0,3.2.21c1.88-.82,3.52-3.14,2.73-5.23a2.27,2.27,0,0,0-2.52-1.59,1.81,1.81,0,0,0-1.13,2.53.64.64,0,0,0,.88.23.66.66,0,0,0,.23-.88.55.55,0,0,1,.23-.59c.27-.15.63.05.82.26a2.06,2.06,0,0,1,.19,2.13c-.56,1.35-2.22,2.63-3.71,2s-2.24-2.62-2.62-4.17a10.22,10.22,0,0,1-.16-4.13c18.07-19.48,31.69-16.34,31.69-16.34v-15.3c-.66.53-9.63,4-20.38,11l-1,.15a47.83,47.83,0,0,1-14.07-.6c-6.68-1.06-12.63-4.2-16.59-9.67,0,0-.14-.46-.33.54a9.5,9.5,0,0,0-.18,1.87c0,4.43,3.43,6.38,7.15,8.73a55.31,55.31,0,0,0,5.3,3,38.65,38.65,0,0,0,9.81,3.22,89.92,89.92,0,0,0-15.22,15.8l-.45.22c-4.09,2-8.83,4.22-10.84,8.57s-.93,8.7.6,12.87a75.22,75.22,0,0,0-1.26,14.51,23.44,23.44,0,0,0-1.11,4.79c-.5,3.89-.15,7.84-.55,11.74-.36,3.46-1.48,7.93-5,9.49a3.42,3.42,0,0,1-3.81-.57,5.14,5.14,0,0,1-1.43-3.62,5.19,5.19,0,0,1,.37-2.09c.25-.6.74-1.4,1.46-1.46a1.47,1.47,0,0,1,1.39,1.07,3.07,3.07,0,0,1-.55,2.51c-.59.91.86,1.76,1.45.85a4.77,4.77,0,0,0,.75-3.7,3.28,3.28,0,0,0-2.34-2.34c-2.54-.57-3.93,2.23-4.17,4.31C594.33,607.07,596.66,611.08,600.52,610.68Zm10.53-55.35a13.14,13.14,0,0,1,4.41-4.17c.8-.51,1.62-1,2.46-1.41a67.67,67.67,0,0,0-7.52,15.08,17.54,17.54,0,0,1-.56-2.76A10.78,10.78,0,0,1,611.05,555.33Z" transform="translate(-204.74 -23.02)"/><path class="cls-9" d="M620.76,525s-7.9-8.31-15.64,8.19C605.12,533.16,622.69,535.9,620.76,525Z" transform="translate(-204.74 -23.02)"/><path class="cls-9" d="M631.29,524s10.71-4.1-1.55-17.59C629.74,506.42,620.45,521.6,631.29,524Z" transform="translate(-204.74 -23.02)"/><path class="cls-9" d="M608.71,577.71s-7.9-8.31-15.64,8.19C593.07,585.9,610.65,588.64,608.71,577.71Z" transform="translate(-204.74 -23.02)"/><path class="cls-9" d="M630.89,592.82s9.3,6.12,13.43-11.46C644.32,581.36,626.82,582.82,630.89,592.82Z" transform="translate(-204.74 -23.02)"/><path class="cls-9" d="M623.79,596s-6.51,1.7-.34,11C623.45,607,629.91,598.36,623.79,596Z" transform="translate(-204.74 -23.02)"/><path class="cls-2" d="M660.78,1177.31H613.49v-44c-1.36-12.29-6.53-17.1-6.53-17.1h6.53v-6.73h47.29Z" transform="translate(-204.74 -23.02)"/><path class="cls-3" d="M660.78,1116.47H604.09s-16.38.39-9.74-14.14c4.81-10.52-.65-13-4-13.6a6.07,6.07,0,0,1-3.88,10.74,5.36,5.36,0,0,1-.7,0h0s-10.08-.47-8.46-12.87,14.49-9.63,14.49-9.63,11.25.78,12.18,11.12,38.26,11.38,38.26,11.38h18.58Z" transform="translate(-204.74 -23.02)"/><rect class="cls-2" x="613.43" y="1181.9" width="47.35" height="158.37" transform="translate(1069.47 2499.14) rotate(-180)"/><path class="cls-4" d="M612.32,1182.25h48.46v-15.56H601.43a.81.81,0,0,0-.63,1.32Z" transform="translate(-204.74 -23.02)"/><path class="cls-4" d="M609.46,1181.9h48a3.28,3.28,0,0,1,3.28,3.28v0a3.28,3.28,0,0,1-3.28,3.28h-48a0,0,0,0,1,0,0v-6.57A0,0,0,0,1,609.46,1181.9Z" transform="translate(1065.5 2347.34) rotate(180)"/><g class="cls-21"><path class="cls-6" d="M716.15,1182.24H601v-8.73a8.73,8.73,0,0,1,7.2,3.79,8.72,8.72,0,0,1,14.4,0,8.73,8.73,0,0,1,14.4,0,8.72,8.72,0,0,1,14.39,0,8.73,8.73,0,0,1,14.4,0c.14-.19.29-.37.44-.56l0,0c.16-.19.33-.37.5-.55a1.14,1.14,0,0,1,.11-.11c.17-.17.35-.34.54-.5l.08-.06a8.54,8.54,0,0,1,2.83-1.53l.12,0a6.7,6.7,0,0,1,.74-.19l.15,0a9,9,0,0,1,1.66-.17,8.68,8.68,0,0,1,6.56,3,8,8,0,0,1,.63.81,8.72,8.72,0,0,1,13.77-.81,6.26,6.26,0,0,1,.63.81,8.73,8.73,0,0,1,14.4,0,8.73,8.73,0,0,1,7.2-3.79Z" transform="translate(-204.74 -23.02)"/></g><path class="cls-4" d="M629.49,1214.55h31.29a0,0,0,0,1,0,0v63.33a31.29,31.29,0,0,1-31.29,31.29h0a0,0,0,0,1,0,0v-94.62A0,0,0,0,1,629.49,1214.55Z" transform="translate(1085.54 2500.7) rotate(-180)"/><path class="cls-6" d="M634.49,1218.92h26.29a0,0,0,0,1,0,0v57.5a26.29,26.29,0,0,1-26.29,26.29h0a0,0,0,0,1,0,0v-83.79A0,0,0,0,1,634.49,1218.92Z" transform="translate(1090.53 2498.6) rotate(-180)"/><path class="cls-8" d="M612.14,1141.25a6.53,6.53,0,0,1,.34-1.62c.29-.85.44-.45.44-.45,4.37,4.94,11.28,7.94,19.19,9.19,2.53.39,5.08.75,7.64,1h0c7.93.63,18.78-2.46,24.17-4.21l.32-.17a1.37,1.37,0,0,0-.2.13c2-.65,3.2-1.11,3.2-1.11v3l1,9.17c-12.82,3.3-27.84-.5-27.84-.5l0,0a59.59,59.59,0,0,1-14.11-3.67c-2.13-.86-4.16-1.84-6.15-2.86C615.82,1146.94,611.84,1145.08,612.14,1141.25Z" transform="translate(-204.74 -23.02)"/><path class="cls-9" d="M623.57,1146.77s8.9.18,4-13.1C627.59,1133.67,616.48,1141.88,623.57,1146.77Z" transform="translate(-204.74 -23.02)"/><path class="cls-9" d="M613.54,1146.11s.75-8.87-12.82-4.84C600.72,1141.27,608.2,1152.87,613.54,1146.11Z" transform="translate(-204.74 -23.02)"/><path class="cls-9" d="M634.71,1153.44s-8.41-6.77-13.57,9.6C621.14,1163,637.89,1163.39,634.71,1153.44Z" transform="translate(-204.74 -23.02)"/><path class="cls-9" d="M640.34,1288.46s-9.1.62-3.07,14.14C637.27,1302.6,648,1293,640.34,1288.46Z" transform="translate(-204.74 -23.02)"/><path class="cls-8" d="M599.35,1293.68a7.87,7.87,0,0,0,5.35-3.47,15.3,15.3,0,0,0,2.46-6.35c.7-3.91.43-7.88.65-11.82a94.21,94.21,0,0,0,5.41,24.12,108.46,108.46,0,0,1,.52-28.16,43.7,43.7,0,0,0,7.13,8.49c4.48,4.17,10.28,7.33,15.63,10.84a143.89,143.89,0,0,1,15.82,12c1.13,1,2.24,2,3.3,3a19.33,19.33,0,0,1,.85,3,13.57,13.57,0,0,1-2,10.47,10.48,10.48,0,0,1-4.1,3.37,11.57,11.57,0,0,1-5.74,1.24,5.79,5.79,0,0,1-5.06-7.06,5.89,5.89,0,0,1,3-4.06c1.14-.56,3-.41,3.5,1a1,1,0,0,0,1.24.7,1,1,0,0,0,.7-1.23,4.46,4.46,0,0,0-5.85-2.43,7.72,7.72,0,0,0-4.52,5.68,7.88,7.88,0,0,0,1.21,6.17,7.75,7.75,0,0,0,5.46,3.25,13.37,13.37,0,0,0,7.19-1.52,12.48,12.48,0,0,0,4.92-4.31,15.5,15.5,0,0,0,2.09-11.1,22.14,22.14,0,0,1,4,6.64c2,5.55.44,11.21-1.39,16.55a13.21,13.21,0,0,0,6.33-8.72c2.28-8.65-.71-18.32-8-25.93-9.68-10.08-25.63-16.12-35.79-25.9a24.68,24.68,0,0,1-7.36-12.29,72.82,72.82,0,0,1,12.43-25.24c1.4-1.79,2.77-3.44,4.13-5a12.88,12.88,0,0,0,1.2,5.37,6,6,0,0,0,2.27,2.67,3.64,3.64,0,0,0,3.35.22c2-.86,3.7-3.29,2.86-5.49a2.37,2.37,0,0,0-2.64-1.66,1.88,1.88,0,0,0-1.18,2.65.67.67,0,0,0,.92.24.69.69,0,0,0,.25-.92.54.54,0,0,1,.23-.61c.28-.17.66,0,.86.26a2.17,2.17,0,0,1,.2,2.24c-.59,1.41-2.33,2.75-3.88,2s-2.35-2.74-2.76-4.37a10.79,10.79,0,0,1-.16-4.32c18.94-20.41,33.2-17.13,33.2-17.13v-16c-.69.55-10.09,4.17-21.35,11.54l-1,.16a50.39,50.39,0,0,1-14.75-.63c-7-1.12-13.23-4.4-17.38-10.14,0,0-.15-.47-.35.57a10.51,10.51,0,0,0-.18,2c0,4.63,3.6,6.68,7.49,9.14a56.15,56.15,0,0,0,5.56,3.13,40.71,40.71,0,0,0,10.27,3.38A94.26,94.26,0,0,0,620,1226.43l-.47.23c-4.28,2.06-9.25,4.42-11.35,9s-1,9.11.63,13.48a77.75,77.75,0,0,0-1.32,15.21,23.36,23.36,0,0,0-1.16,5c-.53,4.08-.16,8.21-.58,12.3-.38,3.62-1.55,8.31-5.23,9.95a3.61,3.61,0,0,1-4-.61,5.36,5.36,0,0,1-1.49-3.78,5.56,5.56,0,0,1,.39-2.2c.26-.63.77-1.46,1.52-1.53a1.55,1.55,0,0,1,1.46,1.12,3.16,3.16,0,0,1-.58,2.63c-.62,1,.91,1.84,1.52.89a4.93,4.93,0,0,0,.79-3.87,3.45,3.45,0,0,0-2.45-2.46c-2.66-.59-4.12,2.35-4.37,4.52C592.86,1289.9,595.31,1294.1,599.35,1293.68Zm11-58a13.8,13.8,0,0,1,4.62-4.37c.83-.53,1.7-1,2.58-1.48a71.14,71.14,0,0,0-7.89,15.8,19,19,0,0,1-.58-2.89A11.29,11.29,0,0,1,610.38,1235.69Z" transform="translate(-204.74 -23.02)"/><path class="cls-9" d="M620.55,1203.89s-8.28-8.71-16.39,8.57C604.16,1212.46,622.58,1215.33,620.55,1203.89Z" transform="translate(-204.74 -23.02)"/><path class="cls-9" d="M631.58,1202.87s11.22-4.29-1.62-18.42C630,1184.45,620.23,1200.35,631.58,1202.87Z" transform="translate(-204.74 -23.02)"/><path class="cls-9" d="M607.92,1259.14s-8.27-8.71-16.38,8.58C591.54,1267.72,610,1270.59,607.92,1259.14Z" transform="translate(-204.74 -23.02)"/><path class="cls-9" d="M631.17,1275s9.74,6.41,14.06-12C645.23,1263,626.9,1264.49,631.17,1275Z" transform="translate(-204.74 -23.02)"/><path class="cls-9" d="M623.73,1278.32s-6.82,1.78-.36,11.52C623.37,1289.84,630.14,1280.77,623.73,1278.32Z" transform="translate(-204.74 -23.02)"/></svg>