<svg id="Layer_7" data-name="Layer 7" xmlns="http://www.w3.org/2000/svg" xmlns:xlink="http://www.w3.org/1999/xlink" viewBox="0 0 785.77 1257.74"><defs><style>.cls-1{fill:none;}.cls-2{fill:#cc862a;}.cls-3{fill:#7d443f;}.cls-4{fill:#9b6126;}.cls-5{clip-path:url(#clip-path);}.cls-6{fill:#613936;}.cls-7{clip-path:url(#clip-path-2);}.cls-8{fill:#30804c;}.cls-9{fill:#6c9761;}.cls-10{fill:#cc872a;}.cls-11{fill:#5a2c2a;}.cls-12{fill:#4aa075;}.cls-13{fill:#376755;}.cls-14{clip-path:url(#clip-path-3);}.cls-15{clip-path:url(#clip-path-4);}.cls-16{clip-path:url(#clip-path-5);}.cls-17{clip-path:url(#clip-path-6);}</style><clipPath id="clip-path" transform="translate(-66.89 -55.96)"><path class="cls-1" d="M218.07,213.61H147.53V190.94h86.4a1.18,1.18,0,0,1,1.19,1.17,1.2,1.2,0,0,1-.28.77Z"/></clipPath><clipPath id="clip-path-2" transform="translate(-66.89 -55.96)"><path class="cls-1" d="M218.07,580.94H147.53V558.27h86.4a1.19,1.19,0,0,1,1.18,1.19,1.24,1.24,0,0,1-.27.74Z"/></clipPath><clipPath id="clip-path-3" transform="translate(-66.89 -55.96)"><path class="cls-1" d="M218.07,1065.22H147.53v-22.66h86.4a1.17,1.17,0,0,1,1.19,1.17,1.22,1.22,0,0,1-.28.77Z"/></clipPath><clipPath id="clip-path-4" transform="translate(-66.89 -55.96)"><path class="cls-1" d="M684.71,195.37a1.22,1.22,0,0,1-.28-.77,1.18,1.18,0,0,1,1.19-1.17H772v22.66H701.48Z"/></clipPath><clipPath id="clip-path-5" transform="translate(-66.89 -55.96)"><path class="cls-1" d="M684.71,562.68a1.18,1.18,0,0,1,.91-1.92H772v22.67H701.48Z"/></clipPath><clipPath id="clip-path-6" transform="translate(-66.89 -55.96)"><path class="cls-1" d="M684.71,1047a1.18,1.18,0,0,1-.28-.77,1.19,1.19,0,0,1,1.19-1.17H772v22.67H701.48Z"/></clipPath></defs><path class="cls-2" d="M147.53,196.66h68.84v-60c2-16.77,9.51-23.34,9.51-23.34h-9.51v-9.16H147.53Z" transform="translate(-66.89 -55.96)"/><path class="cls-3" d="M147.53,113.9h82.52s23.87.56,14.19-20.6c-7-15.3.95-19,5.88-19.8a8.85,8.85,0,0,0,5.65,15.64,8.51,8.51,0,0,0,1,0h0s14.69-.69,12.33-18.74S248,56.33,248,56.33s-16.33,1.13-17.71,16.19-55.72,16.57-55.72,16.57h-27Z" transform="translate(-66.89 -55.96)"/><rect class="cls-2" x="80.62" y="157.14" width="68.95" height="246.5"/><path class="cls-4" d="M218.07,213.61H147.53V190.94h86.4a1.18,1.18,0,0,1,1.19,1.17,1.2,1.2,0,0,1-.28.77Z" transform="translate(-66.89 -55.96)"/><path class="cls-4" d="M147.51,213.1h70a4.78,4.78,0,0,1,4.77,4.77h0a4.77,4.77,0,0,1-4.75,4.79h-70V213.1Z" transform="translate(-66.89 -55.96)"/><g class="cls-5"><path class="cls-6" d="M66.89,213.59H234.62v-12.7a12.7,12.7,0,0,0-10.49,5.44,12.7,12.7,0,0,0-17.66-3.3,12.94,12.94,0,0,0-3.3,3.3,12.7,12.7,0,0,0-17.66-3.3,12.94,12.94,0,0,0-3.3,3.3,12.7,12.7,0,0,0-21,0,12.71,12.71,0,0,0-21,0,7.88,7.88,0,0,0-.55-.74h0c-.21-.28-.47-.53-.7-.78l-.19-.17-.78-.72h-.11a12.83,12.83,0,0,0-4.28-2.4h-.16a10.2,10.2,0,0,0-1.09-.27h-.2a13.05,13.05,0,0,0-2.41-.25,12.47,12.47,0,0,0-10.49,5.31,12.82,12.82,0,0,0-20-1.16c-.33.38-.64.78-.93,1.18a12.81,12.81,0,0,0-21,0,12.7,12.7,0,0,0-10.49-5.44Z" transform="translate(-66.89 -55.96)"/></g><path class="cls-4" d="M147.51,260.63h0a45.55,45.55,0,0,1,45.55,45.56h0V398.4H147.51V260.63Z" transform="translate(-66.89 -55.96)"/><path class="cls-6" d="M147.51,267h0a38.28,38.28,0,0,1,38.28,38.28V389H147.51V267Z" transform="translate(-66.89 -55.96)"/><path class="cls-2" d="M147.53,558h68.84V498c2-16.75,9.51-23.32,9.51-23.32h-9.51V465.6H147.53Z" transform="translate(-66.89 -55.96)"/><path class="cls-3" d="M147.53,475.84h82.52s23.87.56,14.19-20.58c-7-15.32.95-19,5.88-19.8a8.84,8.84,0,0,0,5.65,15.63c.34,0,.67,0,1,0h0s14.69-.68,12.33-18.75-21.11-14-21.11-14-16.33,1.14-17.71,16.19-55.72,16.57-55.72,16.57h-27Z" transform="translate(-66.89 -55.96)"/><rect class="cls-2" x="80.62" y="524.48" width="68.95" height="408.13"/><path class="cls-4" d="M218.07,580.94H147.53V558.27h86.4a1.19,1.19,0,0,1,1.18,1.19,1.24,1.24,0,0,1-.27.74Z" transform="translate(-66.89 -55.96)"/><path class="cls-4" d="M147.51,580.45h70a4.78,4.78,0,0,1,4.77,4.77h0a4.78,4.78,0,0,1-4.77,4.78h-70v-9.55Z" transform="translate(-66.89 -55.96)"/><g class="cls-7"><path class="cls-6" d="M66.89,580.92H234.62v-12.7a12.7,12.7,0,0,0-10.49,5.44,12.71,12.71,0,0,0-17.66-3.3,12.94,12.94,0,0,0-3.3,3.3,12.71,12.71,0,0,0-17.66-3.3,12.94,12.94,0,0,0-3.3,3.3,12.7,12.7,0,0,0-21,0,12.71,12.71,0,0,0-21,0,9.5,9.5,0,0,0-.62-.8v-.09c-.22-.27-.47-.52-.71-.78l-.18-.18c-.25-.23-.51-.49-.78-.71l-.11-.09a12.22,12.22,0,0,0-4.14-2.23h-.16l-1.09-.29h-.2a13,13,0,0,0-2.48-.36,12.7,12.7,0,0,0-9.57,4.34c-.33.38-.63.78-.92,1.17a12.67,12.67,0,0,0-20-1.17c-.33.38-.64.78-.93,1.17a12.81,12.81,0,0,0-21,0,12.7,12.7,0,0,0-10.49-5.44Z" transform="translate(-66.89 -55.96)"/></g><path class="cls-4" d="M147.51,628h0a45.55,45.55,0,0,1,45.55,45.56h0v92.21H147.51V628Z" transform="translate(-66.89 -55.96)"/><path class="cls-6" d="M147.51,634.33h0a38.28,38.28,0,0,1,38.28,38.28v83.72H147.51v-122Z" transform="translate(-66.89 -55.96)"/><rect class="cls-2" x="80.62" y="1008.76" width="68.95" height="246.5"/><path class="cls-4" d="M147.51,1112.21h0a45.55,45.55,0,0,1,45.55,45.55V1250H147.51V1112.21Z" transform="translate(-66.89 -55.96)"/><path class="cls-6" d="M147.51,1118.62h0a38.27,38.27,0,0,1,38.28,38.27h0v83.72H147.51v-122Z" transform="translate(-66.89 -55.96)"/><path class="cls-8" d="M217.76,148.44a8.87,8.87,0,0,0-.49-2.34c-.41-1.26-.63-.68-.63-.68-6.37,7.26-16.43,11.56-27.95,13.38-3.63.58-7.39,1.09-11.13,1.43h0c-11.54.91-27.35-3.63-35.2-6.13l-.46-.26.29.2c-3-.92-4.72-1.52-4.72-1.52v4.41l-1.38,13.28c18.68,4.81,40.55-.74,40.55-.74h0a86.48,86.48,0,0,0,20.56-5.35c3.1-1.26,6.06-2.67,9-4.16C212.32,156.73,218.13,154,217.76,148.44Z" transform="translate(-66.89 -55.96)"/><path class="cls-9" d="M201.05,156.48s-13,.25-5.85-19.08C195.2,137.4,211.37,149.36,201.05,156.48Z" transform="translate(-66.89 -55.96)"/><path class="cls-9" d="M215.66,155.51s-1.09-12.9,18.66-7C234.32,148.47,223.43,165.37,215.66,155.51Z" transform="translate(-66.89 -55.96)"/><path class="cls-9" d="M184.84,166.19s12.25-9.86,19.75,14C204.59,180.18,180.2,180.69,184.84,166.19Z" transform="translate(-66.89 -55.96)"/><path class="cls-9" d="M175.73,743.26s13.67.93,4.61,21.24C180.34,764.5,164.28,750,175.73,743.26Z" transform="translate(-66.89 -55.96)"/><path class="cls-8" d="M246.42,740c-.36-3.27-2.58-7.7-6.55-6.79a5.16,5.16,0,0,0-3.63,3.63,7.46,7.46,0,0,0,1.18,5.82c.92,1.42,3.21.09,2.29-1.34a4.69,4.69,0,0,1-.88-4A2.35,2.35,0,0,1,241,735.7c1.15.1,1.82,1.36,2.29,2.3a8.62,8.62,0,0,1-1.65,9,5.44,5.44,0,0,1-6,.91c-5.45-2.45-7.26-9.49-7.86-14.93-.64-6.14,0-12.35-.87-18.48a36.12,36.12,0,0,0-1.82-7.53,117.52,117.52,0,0,0-1.9-22.78c2.41-6.57,4-13.61.94-20.23s-10.62-10.4-17.06-13.51l-.71-.32a141.24,141.24,0,0,0-23.93-24.87,60.41,60.41,0,0,0,15.42-5.08,84,84,0,0,0,8.33-4.7c5.86-3.63,11.27-6.77,11.27-13.74a15.26,15.26,0,0,0-.29-2.94c-.29-1.58-.52-.85-.52-.85a38.81,38.81,0,0,1-26.12,15.21,75.08,75.08,0,0,1-22.14,1l-1.53-.24a262.74,262.74,0,0,0-32.05-17.35V620.6s21.42-4.94,49.86,25.69a16.1,16.1,0,0,1-.26,6.52c-.59,2.43-1.67,5.44-4.13,6.55s-4.94-1-5.83-3.08a3.3,3.3,0,0,1,.31-3.36,1.13,1.13,0,0,1,1.29-.4.84.84,0,0,1,.34.93,1,1,0,0,0,.37,1.37,1,1,0,0,0,1.39-.35h0a2.82,2.82,0,0,0-1.3-3.78,2.64,2.64,0,0,0-.51-.19,3.62,3.62,0,0,0-4,2.5c-1.27,3.29,1.33,6.93,4.28,8.22a5.44,5.44,0,0,0,5.05-.32,8.81,8.81,0,0,0,3.39-4,19.41,19.41,0,0,0,1.82-8.07q3,3.46,6.21,7.47a109.59,109.59,0,0,1,18.65,37.9,37,37,0,0,1-11,18.47c-15.26,14.69-39.24,23.76-53.76,38.9-10.89,11.43-15.46,26-12,39a20,20,0,0,0,9.53,13.08c-2.76-8-5.08-16.52-2.09-24.85a33.34,33.34,0,0,1,6.06-10,23.22,23.22,0,0,0,3.14,16.66,18.63,18.63,0,0,0,7.39,6.5,20.19,20.19,0,0,0,10.89,2.27,11.64,11.64,0,0,0,8.2-4.88,11.83,11.83,0,0,0,1.82-9.26,11.64,11.64,0,0,0-6.79-8.53,6.73,6.73,0,0,0-8.8,3.63,1.48,1.48,0,1,0,2.87.76c.76-2.07,3.54-2.28,5.24-1.45a8.88,8.88,0,0,1,4.47,6.1A8.72,8.72,0,0,1,170.32,791a9.55,9.55,0,0,1-1.07.18,17.87,17.87,0,0,1-8.62-1.82,15.67,15.67,0,0,1-6.15-5.06,20.35,20.35,0,0,1-2.92-15.74,30,30,0,0,1,1.21-4.43c1.6-1.56,3.29-3.08,5-4.57a215,215,0,0,1,23.72-18c8-5.28,16.75-10,23.46-16.34a65.06,65.06,0,0,0,10.71-12.7,162.28,162.28,0,0,1,.8,42.29,141.48,141.48,0,0,0,8.11-36.21c.33,5.92,0,11.87,1,17.75a23,23,0,0,0,3.63,9.53,11.94,11.94,0,0,0,8,5.21C243.37,751.72,247,745.41,246.42,740Zm-23.79-65.34a29,29,0,0,1-.87,4.34,106.67,106.67,0,0,0-11.84-23.78c1.31.69,2.62,1.42,3.87,2.22a20.45,20.45,0,0,1,6.93,6.57,16.78,16.78,0,0,1,1.91,10.58Z" transform="translate(-66.89 -55.96)"/><path class="cls-9" d="M205.46,616.24s12.43-13.09,24.61,12.89C230.07,629.13,202.41,633.46,205.46,616.24Z" transform="translate(-66.89 -55.96)"/><path class="cls-9" d="M188.89,614.72S172,608.27,191.32,587C191.32,587,205.93,610.92,188.89,614.72Z" transform="translate(-66.89 -55.96)"/><path class="cls-9" d="M224.42,699.22s12.42-13.07,24.6,12.88C249,712.1,221.39,716.42,224.42,699.22Z" transform="translate(-66.89 -55.96)"/><path class="cls-9" d="M189.51,723s-14.63,9.64-21.13-18C168.38,705,196,707.24,189.51,723Z" transform="translate(-66.89 -55.96)"/><path class="cls-9" d="M200.69,728s10.23,2.67.52,17.31C201.21,745.33,191.05,731.7,200.69,728Z" transform="translate(-66.89 -55.96)"/><path class="cls-8" d="M217.49,513.28a10,10,0,0,0-.49-2.34c-.43-1.25-.63-.67-.63-.67-6.37,7.26-16.34,11.56-28,13.37-3.63.59-7.39,1.09-11.13,1.44h0c-11.54.92-27.35-3.63-35.19-6.12l-.45-.25.29.2c-2.91-.95-4.67-1.62-4.67-1.62v4.41l-1.45,13.36c18.66,4.81,40.53-.74,40.53-.74h0A87,87,0,0,0,196.91,529c3.09-1.25,6-2.67,8.93-4.15C212.14,521.58,217.93,518.87,217.49,513.28Z" transform="translate(-66.89 -55.96)"/><path class="cls-9" d="M200.85,521.32s-13,.26-5.85-19.07C195,502.25,211.16,514.19,200.85,521.32Z" transform="translate(-66.89 -55.96)"/><path class="cls-9" d="M215.46,520.36s-1.09-12.9,18.66-7C234.1,513.32,223.21,530.21,215.46,520.36Z" transform="translate(-66.89 -55.96)"/><path class="cls-9" d="M184.62,531s12.25-9.85,19.77,14C204.39,545,180,545.53,184.62,531Z" transform="translate(-66.89 -55.96)"/><path class="cls-9" d="M175.62,910.09s13.67.92,4.61,21.23C180.23,931.32,164.17,916.86,175.62,910.09Z" transform="translate(-66.89 -55.96)"/><path class="cls-8" d="M246.31,906.84c-.36-3.27-2.56-7.68-6.55-6.79a5.16,5.16,0,0,0-3.63,3.63,7.44,7.44,0,0,0,1.18,5.81c.93,1.43,3.21.11,2.29-1.34a4.76,4.76,0,0,1-.87-3.94,2.32,2.32,0,0,1,2.19-1.69c1.13.11,1.82,1.34,2.29,2.29a8.45,8.45,0,0,1,.58,3.3,8.15,8.15,0,0,1-2.23,5.7,5.47,5.47,0,0,1-6,.91c-5.54-2.47-7.26-9.51-7.86-15-.63-6.13,0-12.34-.87-18.47a35.27,35.27,0,0,0-1.82-7.52,117.58,117.58,0,0,0-2-22.85c2.41-6.55,4-13.59.94-20.23s-10.6-10.29-17.1-13.43l-.7-.33a140.65,140.65,0,0,0-24-24.86A61.59,61.59,0,0,0,197.8,787a86.81,86.81,0,0,0,8.35-4.72c5.84-3.63,11.25-6.75,11.25-13.72a17.33,17.33,0,0,0-.27-3c-.31-1.56-.53-.85-.53-.85A38.89,38.89,0,0,1,190.49,780a75.36,75.36,0,0,1-22.13.94l-1.52-.23a258.88,258.88,0,0,0-32.07-17.34v24.07s21.29-4.94,49.76,25.72a15.78,15.78,0,0,1-.25,6.49c-.6,2.44-1.65,5.45-4.12,6.56s-5-1-5.84-3.09a3.28,3.28,0,0,1,.3-3.36,1.18,1.18,0,0,1,1.29-.4.84.84,0,0,1,.35.93,1.07,1.07,0,0,0,.38,1.4,1,1,0,0,0,1.38-.37,2.83,2.83,0,0,0-1.28-3.79,3.5,3.5,0,0,0-.54-.2,3.63,3.63,0,0,0-3.95,2.51c-1.26,3.28,1.32,6.95,4.28,8.23a5.39,5.39,0,0,0,5-.34,8.92,8.92,0,0,0,3.4-4,19.24,19.24,0,0,0,1.81-8.06c2,2.29,4.1,4.77,6.21,7.46A109.48,109.48,0,0,1,211.65,861a36.88,36.88,0,0,1-11.06,18.46c-15.2,14.68-39.09,23.76-53.72,38.91-10.89,11.43-15.46,26-12,39a19.8,19.8,0,0,0,9.51,13.08c-2.81-8-5.08-16.53-2.09-24.81a32.87,32.87,0,0,1,6.07-10,23.22,23.22,0,0,0,3.14,16.66,18.69,18.69,0,0,0,7.38,6.48,20.19,20.19,0,0,0,10.89,2.27,11.66,11.66,0,0,0,8.1-4.92,11.94,11.94,0,0,0,1.81-9.27,11.56,11.56,0,0,0-6.79-8.53,6.71,6.71,0,0,0-8.78,3.61v0a1.5,1.5,0,0,0,1,1.81,1.55,1.55,0,0,0,1.82-1c.78-2.07,3.63-2.29,5.26-1.45a8.88,8.88,0,0,1,4.5,6.15,8.71,8.71,0,0,1-6.54,10.44,7.79,7.79,0,0,1-1.06.17,17.46,17.46,0,0,1-8.61-1.81,15.94,15.94,0,0,1-6.17-5.08,20.39,20.39,0,0,1-2.92-15.74,29.62,29.62,0,0,1,1.27-4.44c1.6-1.56,3.27-3.09,5-4.58a218.7,218.7,0,0,1,23.83-18c8-5.26,16.75-10,23.46-16.33a64.83,64.83,0,0,0,10.71-12.71,162.72,162.72,0,0,1,.8,42.29,141.63,141.63,0,0,0,8.11-36.3c.33,5.92,0,11.89,1,17.75a22.64,22.64,0,0,0,3.63,9.53,11.87,11.87,0,0,0,8,5.23C243.26,918.56,246.93,912.23,246.31,906.84ZM222.52,841.5a26.69,26.69,0,0,1-.87,4.34,106.24,106.24,0,0,0-11.84-23.72c1.33.69,2.62,1.42,3.89,2.21a20.74,20.74,0,0,1,6.93,6.57,16.92,16.92,0,0,1,1.89,10.53Z" transform="translate(-66.89 -55.96)"/><path class="cls-9" d="M205.35,783.06S217.78,770,230,796C230,796,202.3,800.27,205.35,783.06Z" transform="translate(-66.89 -55.96)"/><path class="cls-9" d="M188.73,781.54s-16.85-6.44,2.43-27.66C191.21,753.88,205.82,777.75,188.73,781.54Z" transform="translate(-66.89 -55.96)"/><path class="cls-9" d="M224.32,866.06s12.43-13.09,24.6,12.87C248.92,878.93,221.27,883.25,224.32,866.06Z" transform="translate(-66.89 -55.96)"/><path class="cls-9" d="M189.4,889.82s-14.52,9.63-21.11-18C168.29,871.79,195.82,874.08,189.4,889.82Z" transform="translate(-66.89 -55.96)"/><path class="cls-9" d="M200.58,894.81s10.23,2.66.54,17.29C201.12,912.16,191,898.53,200.58,894.81Z" transform="translate(-66.89 -55.96)"/><path class="cls-9" d="M175.57,1228.15s13.66.94,4.61,21.23C180.18,1249.38,164.12,1234.92,175.57,1228.15Z" transform="translate(-66.89 -55.96)"/><path class="cls-8" d="M246.26,1224.9c-.37-3.27-2.56-7.68-6.55-6.79a5.16,5.16,0,0,0-3.63,3.63,7.4,7.4,0,0,0,1.18,5.81c.92,1.43,3.21.11,2.28-1.33a4.71,4.71,0,0,1-.87-4,2.33,2.33,0,0,1,2.2-1.69c1.12.11,1.81,1.36,2.28,2.28a8.15,8.15,0,0,1,.58,3.31,8.07,8.07,0,0,1-2.37,5.77,5.46,5.46,0,0,1-6,.91c-5.54-2.47-7.26-9.51-7.86-15-.64-6.13,0-12.34-.87-18.46a35.65,35.65,0,0,0-1.82-7.53,118.36,118.36,0,0,0-2-22.85c2.41-6.55,4-13.59.94-20.23s-10.62-10.38-17-13.49L206,1135a140.94,140.94,0,0,0-23.94-24.87,61.22,61.22,0,0,0,15.43-5.06,86.81,86.81,0,0,0,8.35-4.72c5.84-3.63,11.25-6.75,11.25-13.72a16.4,16.4,0,0,0-.29-3c-.29-1.56-.53-.85-.53-.85a38.81,38.81,0,0,1-25.95,15.26,75.76,75.76,0,0,1-22.14,1,8.48,8.48,0,0,1-1.51-.24,260.15,260.15,0,0,0-32.07-17.33v24.06s21.44-5,49.86,25.68a16,16,0,0,1-.26,6.5c-.59,2.43-1.65,5.45-4.13,6.55s-4.94-.94-5.83-3.06a3.34,3.34,0,0,1,.31-3.38,1.13,1.13,0,0,1,1.29-.38.78.78,0,0,1,.34.91,1,1,0,0,0,1.76,1,2.85,2.85,0,0,0-1.32-3.81,4.09,4.09,0,0,0-.49-.18,3.64,3.64,0,0,0-4,2.5c-1.27,3.29,1.33,7,4.28,8.24a5.44,5.44,0,0,0,5.05-.32,8.94,8.94,0,0,0,3.39-4,19.1,19.1,0,0,0,1.82-8.06q3,3.45,6.21,7.47a109.24,109.24,0,0,1,18.65,37.9,37,37,0,0,1-11.05,18.46c-15.26,14.7-39.22,23.75-53.76,38.91-10.89,11.41-15.46,25.93-12.05,38.93a20,20,0,0,0,9.53,13.1c-2.76-8-5.08-16.52-2.09-24.86a33.11,33.11,0,0,1,6.07-10,23.22,23.22,0,0,0,3.14,16.66,18.48,18.48,0,0,0,7.38,6.48,20.39,20.39,0,0,0,10.89,2.29,11.71,11.71,0,0,0,8.19-4.88,12,12,0,0,0,1.81-9.28,11.7,11.7,0,0,0-6.79-8.53,6.73,6.73,0,0,0-8.78,3.62h0a1.51,1.51,0,0,0,1,1.82,1.55,1.55,0,0,0,1.82-1c.76-2.06,3.54-2.27,5.26-1.44a8.83,8.83,0,0,1,4.45,6.1,8.7,8.7,0,0,1-6.53,10.42,9.36,9.36,0,0,1-1.08.18,17.61,17.61,0,0,1-8.62-1.82,15.87,15.87,0,0,1-6.19-5.06,20.35,20.35,0,0,1-2.92-15.72,29.8,29.8,0,0,1,1.25-4.46c1.6-1.56,3.29-3.09,5-4.57a218.47,218.47,0,0,1,23.75-18c8-5.26,16.75-10,23.47-16.33a65.17,65.17,0,0,0,10.71-12.71,162.7,162.7,0,0,1,.83,42.23,141.4,141.4,0,0,0,8.11-36.2c.33,5.91,0,11.87,1,17.73a23.28,23.28,0,0,0,3.63,9.54,11.92,11.92,0,0,0,8.1,5.3C243.17,1236.62,246.8,1230.31,246.26,1224.9Zm-23.8-65.34a27.14,27.14,0,0,1-.87,4.36,105.93,105.93,0,0,0-11.83-23.74q2,1,3.87,2.21a20.63,20.63,0,0,1,6.93,6.5,16.64,16.64,0,0,1,1.9,10.6Z" transform="translate(-66.89 -55.96)"/><path class="cls-9" d="M205.3,1101.12s12.43-13.07,24.6,12.89C229.9,1114,202.25,1118.33,205.3,1101.12Z" transform="translate(-66.89 -55.96)"/><path class="cls-9" d="M188.73,1099.6s-16.85-6.45,2.43-27.66C191.16,1071.94,205.77,1095.82,188.73,1099.6Z" transform="translate(-66.89 -55.96)"/><path class="cls-9" d="M224.26,1184.12S236.67,1171,248.87,1197C248.87,1197,221.21,1201.3,224.26,1184.12Z" transform="translate(-66.89 -55.96)"/><path class="cls-9" d="M189.34,1207.87s-14.63,9.64-21.12-18C168.22,1189.85,195.77,1192.14,189.34,1207.87Z" transform="translate(-66.89 -55.96)"/><path class="cls-9" d="M200.52,1212.92s10.24,2.67.55,17.29C201.07,1230.21,190.88,1216.6,200.52,1212.92Z" transform="translate(-66.89 -55.96)"/><path class="cls-10" d="M147.55,1003.36h67.78v4.89h54.12s-50.2,4.32-54.45,24.14v19.95H147.55Z" transform="translate(-66.89 -55.96)"/><path class="cls-3" d="M360.85,966.53c-2.43-18.15-21.78-14-21.78-14s-16.88,1.15-18.26,16.23-57.42,16.6-57.42,16.6H92.86v25H320.59s24.6.56,14.52-20.65c-7.26-15.34,1-19,6.08-19.84a8.7,8.7,0,0,0-3.28,6.8,9,9,0,0,0,9.07,8.86h0a9.37,9.37,0,0,0,1.06,0h0S363.28,984.64,360.85,966.53Z" transform="translate(-66.89 -55.96)"/><path class="cls-2" d="M301.57,1076.29H274.21l6.15,29.22a4.43,4.43,0,0,0,4.34,3.52h24.06a4.44,4.44,0,0,0,4.34-3.52l6.15-29.22Z" transform="translate(-66.89 -55.96)"/><polyline class="cls-6" points="249.94 1031.86 252.36 1018.92 234.68 1018.92 224.99 1018.92 207.3 1018.92 209.73 1031.86"/><path class="cls-11" d="M275.17,1067.64a1.82,1.82,0,0,1-1.69-1.94,2.66,2.66,0,0,1,.07-.39l21.78-58.73a1.73,1.73,0,0,1,3.28,1.07.5.5,0,0,1-.05.13l-21.78,58.73A1.82,1.82,0,0,1,275.17,1067.64Z" transform="translate(-66.89 -55.96)"/><path class="cls-11" d="M318.74,1067.64a1.82,1.82,0,0,1-1.61-1.13l-21.78-58.73a1.72,1.72,0,0,1,3.18-1.33,1.12,1.12,0,0,1,.05.13l21.78,58.73a1.72,1.72,0,0,1-1,2.21h0A1.73,1.73,0,0,1,318.74,1067.64Z" transform="translate(-66.89 -55.96)"/><path class="cls-2" d="M265.2,1065h63a2.12,2.12,0,0,1,2.12,2.13v3.92a13.4,13.4,0,0,1-13.4,13.39H276.47a13.4,13.4,0,0,1-13.39-13.39h0v-3.92A2.12,2.12,0,0,1,265.2,1065Z" transform="translate(-66.89 -55.96)"/><path class="cls-8" d="M312.59,1058.89a10.45,10.45,0,0,1,5.45-4.56,9,9,0,0,1,4.62,0,17.75,17.75,0,0,1,7.15,4.14,24.74,24.74,0,0,0,6.68,4.65c.49.2,1,.36,1.49.52-3.36.8-6.62,2-10,2.8a21.74,21.74,0,0,1-10,.44,12.25,12.25,0,0,1-3.42-1.49,6,6,0,0,1-3.05-4.07,2.55,2.55,0,0,1,1.06-2.43" transform="translate(-66.89 -55.96)"/><path class="cls-12" d="M329.58,1063.25a14.85,14.85,0,0,1-4.74-1.47l-1-.51a5.19,5.19,0,0,0,.87-.28c.62-.27,1.07-.38,1.69-.63a5.74,5.74,0,0,1,1.92-.33c.46,0,1.49.09,2,.15a11.48,11.48,0,0,0-2-.46,6.44,6.44,0,0,0-3.05.64,13.27,13.27,0,0,1-1.94.62c-.8-.42-1.56-.78-2.47-1.33a11.8,11.8,0,0,0-1.23-.62,3.94,3.94,0,0,0,.47-.1,3.71,3.71,0,0,0,.89-.39c.58-.32,1-.49,1.61-.79a5.56,5.56,0,0,1,1.82-.55h2a10.91,10.91,0,0,0-2.05-.23,6.65,6.65,0,0,0-2.94.94,8.23,8.23,0,0,1-2.44.94l-.38-.12a12.53,12.53,0,0,0-2.1-.48,2.7,2.7,0,0,0,.63-.43c.42-.36.77-.58,1.2-.94a4.81,4.81,0,0,1,1.47-.77c.36-.11,1.22-.29,1.62-.38a9.27,9.27,0,0,0-1.82.17,5.27,5.27,0,0,0-2.28,1.28,10.38,10.38,0,0,1-1.51,1,4.15,4.15,0,0,0-2.83.8l-.27.23a2.57,2.57,0,0,1,1.81-.43,3.54,3.54,0,0,1,1.11.12,6.73,6.73,0,0,1,1.41,2.73,6.49,6.49,0,0,0,1.49,2.72,10.53,10.53,0,0,0,1.65,1.25c-.34-.33-1.09-1.05-1.38-1.4a5.81,5.81,0,0,1-1-1.68c-.2-.64-.4-1.06-.6-1.69a5.41,5.41,0,0,0-.38-.89,4.43,4.43,0,0,0-.75-1,16.78,16.78,0,0,1,3.63,1.32,10.2,10.2,0,0,1,1.09,1.82,6.45,6.45,0,0,0,1.81,2.54,9.9,9.9,0,0,0,1.82,1c-.38-.27-1.2-.91-1.53-1.21a5.82,5.82,0,0,1-1.19-1.56c-.28-.6-.53-1-.78-1.62a7.76,7.76,0,0,0-.4-.69l1.43.76a16.39,16.39,0,0,0,7.42,2.53,28.38,28.38,0,0,0,5.21-.49C333.32,1063.46,330.7,1063.39,329.58,1063.25Z" transform="translate(-66.89 -55.96)"/><path class="cls-13" d="M279.9,1065.86a10.31,10.31,0,0,0-5.88-3.94,9.26,9.26,0,0,0-4.57.53,17.51,17.51,0,0,0-6.66,4.92,25,25,0,0,1-6.12,5.29c-.47.26-.94.48-1.43.71,3.43.42,6.81,1.24,10.22,1.67a21.41,21.41,0,0,0,10-.69,11.66,11.66,0,0,0,3.23-1.81,5.94,5.94,0,0,0,2.63-4.38,2.49,2.49,0,0,0-1.32-2.3" transform="translate(-66.89 -55.96)"/><path class="cls-12" d="M278.4,1064.61a4.29,4.29,0,0,0-2.27-.22c-.42-.16-.89-.29-1.14-.36a6.24,6.24,0,0,0-2.94.29,6.82,6.82,0,0,1-2.94.3.82.82,0,0,1-.6-.3v.11a2.25,2.25,0,0,0,2,.59,3.87,3.87,0,0,0,.89-.16c.62-.18,1-.25,1.67-.42a5.06,5.06,0,0,1,1.82-.12l.74.12a10.75,10.75,0,0,0-2.81,1,11.67,11.67,0,0,0-2,1.23l-.47.38a7.42,7.42,0,0,1-2.34.22,5.62,5.62,0,0,0-2.69.4,7.21,7.21,0,0,0-1.38,1,14,14,0,0,1,1.47-.69,4.34,4.34,0,0,1,1.67-.31h1.64a4,4,0,0,0,.85,0h.11c-.77.54-1.49,1-2.36,1.67l-.35.25a11.19,11.19,0,0,1-1.92.11,5.75,5.75,0,0,0-2.69.38,9.82,9.82,0,0,0-1.36,1c.35-.18,1.11-.56,1.45-.7a4.94,4.94,0,0,1,1.69-.3h2.11a18.91,18.91,0,0,1-3.27,1.42c-1.07.33-3.63.89-4.79,1.14a30.78,30.78,0,0,0,5.15-.59,11.93,11.93,0,0,0,3.43-1.33l-.8,1.13a5.91,5.91,0,0,1-1.34,1.3,18.11,18.11,0,0,1-1.63.91,10.79,10.79,0,0,0,1.81-.71,6.12,6.12,0,0,0,2.05-2.12c.26-.35.49-.69.77-1a14.63,14.63,0,0,0,1.81-1.29h0l.55-.4-.15.2a5.28,5.28,0,0,0-.38.84c-.2.62-.4,1-.62,1.6a5.24,5.24,0,0,1-1,1.57,14.82,14.82,0,0,1-1.34,1.29,9.91,9.91,0,0,0,1.6-1.14,6.13,6.13,0,0,0,1.47-2.54,6.9,6.9,0,0,1,1.38-2.52l.47-.35h.05c.55-.36,1.11-.74,1.67-1.07a5,5,0,0,0-.42,1.05,5.43,5.43,0,0,0-.16,1.06c0,.72-.11,1.21-.16,2a6.34,6.34,0,0,1-.58,2.07c-.22.43-.8,1.39-1.07,1.81a12.09,12.09,0,0,0,1.39-1.81,7.08,7.08,0,0,0,.82-3.31,7.63,7.63,0,0,1,.69-3.19,11.77,11.77,0,0,1,3-1.18,2.71,2.71,0,0,1,1.82,0Z" transform="translate(-66.89 -55.96)"/><path class="cls-13" d="M287,1063.41a10.41,10.41,0,0,0-6.19.47,8.67,8.67,0,0,0-3.08,2.56,13.44,13.44,0,0,0-2.43,6.22,18.34,18.34,0,0,1-1.82,6.19q-.33.57-.69,1.11c2.69-1.4,5.45-2.54,8.22-4a20.36,20.36,0,0,0,6.92-5.24,9.8,9.8,0,0,0,1.43-2.69,4,4,0,0,0-.27-3.88,2.13,2.13,0,0,0-2.07-.74" transform="translate(-66.89 -55.96)"/><path class="cls-12" d="M285.3,1063.39a4.32,4.32,0,0,0-1.82,1c-.38.11-.78.26-1,.35a6.39,6.39,0,0,0-2,1.59,6.07,6.07,0,0,1-2,1.62,1,1,0,0,1-.58.11H278a2.28,2.28,0,0,0,1.81-.62,3.59,3.59,0,0,0,.58-.52c.35-.42.64-.66,1-1.08a5.77,5.77,0,0,1,1.29-1l.6-.29a10.53,10.53,0,0,0-1.54,2,9,9,0,0,0-.84,1.71c0,.16-.13.32-.18.47a7.58,7.58,0,0,1-1.6,1.27,5.26,5.26,0,0,0-1.81,1.54,6.88,6.88,0,0,0-.55,1.24c.17-.28.55-.88.73-1.13a4.42,4.42,0,0,1,1.07-1c.45-.29.73-.51,1.18-.78a4.27,4.27,0,0,0,.6-.45h0c-.29.71-.58,1.34-.89,2.16a.42.42,0,0,1-.15.31,8.75,8.75,0,0,1-1.34,1,5.52,5.52,0,0,0-1.81,1.55,6.16,6.16,0,0,0-.55,1.23c.17-.27.55-.87.73-1.12a4.42,4.42,0,0,1,1.07-1c.45-.29.72-.51,1.18-.78l.34-.24a13.15,13.15,0,0,1-1.68,2.43c-.6.73-2.16,2.31-2.91,3a32.64,32.64,0,0,0,3.47-2.85,10.9,10.9,0,0,0,1.81-2.47v1.07a4.16,4.16,0,0,1-.34,1.43c-.15.31-.55,1-.73,1.35a10.59,10.59,0,0,0,1-1.33,4.54,4.54,0,0,0,.46-2.27v-1a9.35,9.35,0,0,1,.74-1.69h0a4.34,4.34,0,0,0,.2-.5.67.67,0,0,0,0,.2,3.3,3.3,0,0,0,.11.69c.16.45.2.78.34,1.25a3.82,3.82,0,0,1,0,1.43,8.8,8.8,0,0,1-.34,1.44,10.31,10.31,0,0,0,.6-1.47,4.24,4.24,0,0,0-.18-2.26,4.65,4.65,0,0,1-.22-2.19,4.07,4.07,0,0,1,.18-.44l.11-.11h0a16.19,16.19,0,0,1,.69-1.47,2.77,2.77,0,0,0,.2.86,3.32,3.32,0,0,0,.4.71c.32.45.51.79.83,1.25a4.14,4.14,0,0,1,.58,1.52,13.1,13.1,0,0,1,.13,1.65,8.4,8.4,0,0,0,.14-1.81,4.57,4.57,0,0,0-1-2.38,5.2,5.2,0,0,1-1.05-2.27,11.13,11.13,0,0,1,1.61-2.19,3,3,0,0,1,1.33-.86Z" transform="translate(-66.89 -55.96)"/><path class="cls-8" d="M286,1060.29a12.29,12.29,0,0,0-5.32-6.43,10.73,10.73,0,0,0-5.44-.94,20.54,20.54,0,0,0-9.08,3.28,28.5,28.5,0,0,1-8.71,4c-.6.13-1.22.22-1.81.31,3.72,1.63,7.26,3.63,10.88,5.33a25.22,25.22,0,0,0,11.47,2.6,13.64,13.64,0,0,0,4.27-1,7,7,0,0,0,4.52-4.06,3,3,0,0,0-.71-3" transform="translate(-66.89 -55.96)"/><path class="cls-12" d="M283.86,1058.42a4.94,4.94,0,0,0-2.63-1H280a9.58,9.58,0,0,1-2.44-1.36,6.94,6.94,0,0,0-3-1.45,10,10,0,0,0-2,0,12,12,0,0,1,2,.31,5.62,5.62,0,0,1,1.92.85c.62.44,1.06.67,1.66,1.13a7.64,7.64,0,0,0,.92.54h0a8.22,8.22,0,0,0-1.32.18,14,14,0,0,0-2.54.75h-.22a11.87,11.87,0,0,1-2.23-.95,6.86,6.86,0,0,0-3.2-1.05,9.91,9.91,0,0,0-2,.27h2a6.08,6.08,0,0,1,2,.6c.65.34,1.12.53,1.81.91a5,5,0,0,0,1,.41h0c-1.27.49-2.36.8-3.75,1.35a10.25,10.25,0,0,1-1.69.51,7.76,7.76,0,0,1-1.67-.73,5.41,5.41,0,0,0-2.18-.62,5.93,5.93,0,0,0-1.51.22,12,12,0,0,1,1.47,0,4.83,4.83,0,0,1,1.49.44c.49.27.84.4,1.31.67a3.42,3.42,0,0,0,.62.27,22.1,22.1,0,0,1-3,.33c-1.26,0-4.16-.15-5.45-.26a33.53,33.53,0,0,0,5.72,1,18,18,0,0,0,7.55-1.43c-.2.2-.4.4-.57.6-.5.67-.9,1.07-1.43,1.81a7.67,7.67,0,0,1-1.81,1.55c-.49.27-1.67.79-2.24,1a13.39,13.39,0,0,0,2.49-.72,8.33,8.33,0,0,0,2.92-2.55,11.15,11.15,0,0,1,2.11-2.12l1.65-.58h0c.62-.2,1.23-.4,1.81-.56a5.88,5.88,0,0,0-.81,1,7.21,7.21,0,0,0-.51,1.09c-.26.78-.51,1.31-.8,2.09a6.9,6.9,0,0,1-1.29,2.08,22.8,22.8,0,0,1-1.81,1.69,14.83,14.83,0,0,0,2.1-1.5,8.22,8.22,0,0,0,1.8-3.43,9.08,9.08,0,0,1,1.81-3.31,14.41,14.41,0,0,1,2.93-.36,3.89,3.89,0,0,0-1.44,1.49,6.06,6.06,0,0,0-.52,1.09c-.26.79-.51,1.3-.8,2.08a6.83,6.83,0,0,1-1.29,2.09,23,23,0,0,1-1.82,1.69,13.21,13.21,0,0,0,2-1.51,8,8,0,0,0,2-3.26,8.61,8.61,0,0,1,1.81-3.4l.26-.22h.43a3.2,3.2,0,0,1,1.82.6Z" transform="translate(-66.89 -55.96)"/><path class="cls-8" d="M311.5,1063.9a7.71,7.71,0,0,1,5.05-1.56,6.53,6.53,0,0,1,3.17,1.36,13,13,0,0,1,3.63,4.94,18.41,18.41,0,0,0,3.31,5.13l.85.8c-2.54-.42-5.12-.56-7.66-1a16.15,16.15,0,0,1-7-2.61,8.7,8.7,0,0,1-1.88-2,4.42,4.42,0,0,1-.91-3.62,1.83,1.83,0,0,1,1.43-1.37" transform="translate(-66.89 -55.96)"/><path class="cls-12" d="M321.92,1071.85a10.86,10.86,0,0,1-2.85-2.38,5.67,5.67,0,0,0-.53-.63h2a4.4,4.4,0,0,1,1.43.34c.31.13,1,.49,1.31.67a9.14,9.14,0,0,0-1.25-.89,4.77,4.77,0,0,0-2.29-.45,8.62,8.62,0,0,1-1.52-.16c-.42-.51-.84-1-1.31-1.62a6.26,6.26,0,0,0-.67-.78h.36a3,3,0,0,0,.73,0h1.34a4.44,4.44,0,0,1,1.45.18l1.36.55a7.75,7.75,0,0,0-1.34-.77,4.89,4.89,0,0,0-2.31-.21,6.44,6.44,0,0,1-2,0l-.21-.2a8.56,8.56,0,0,0-1.31-1,2.14,2.14,0,0,0,.56-.11l1.09-.31a4.36,4.36,0,0,1,1.25,0,7.64,7.64,0,0,1,1.22.22,6.07,6.07,0,0,0-1.25-.4,4.25,4.25,0,0,0-1.94.2,6.91,6.91,0,0,1-1.35.29,3.1,3.1,0,0,0-2.18-.27h-.25a1.94,1.94,0,0,1,1.33.22,7.28,7.28,0,0,1,.72.4,5.42,5.42,0,0,1,.2,2.3,5,5,0,0,0,.18,2.31,8.52,8.52,0,0,0,.78,1.34c-.14-.33-.45-1-.54-1.36a4.21,4.21,0,0,1-.2-1.45v-1.35a3,3,0,0,0-.24-1.59,13.18,13.18,0,0,1,2.13,2,8.86,8.86,0,0,1,.2,1.63,4.74,4.74,0,0,0,.59,2.27,7.66,7.66,0,0,0,.93,1.25c-.18-.31-.56-1-.71-1.29a3.94,3.94,0,0,1-.34-1.43,6.61,6.61,0,0,0-.09-1.33,2.91,2.91,0,0,0,0-.59l.76.94a12.32,12.32,0,0,0,4.37,3.9,22.29,22.29,0,0,0,3.63,1.18C324.42,1073.1,322.65,1072.28,321.92,1071.85Z" transform="translate(-66.89 -55.96)"/><path class="cls-13" d="M304.19,1061.41a13.29,13.29,0,0,1,8.56-.94,7.73,7.73,0,0,1,3.8,3.08,16.78,16.78,0,0,1,2.18,8.84,24.39,24.39,0,0,0,1.32,9.08c.24.51.49,1,.74,1.5-3.48-1.41-7.26-2.41-10.72-3.83a18.31,18.31,0,0,1-8.62-6.18,10.38,10.38,0,0,1-1.49-3.74,7.63,7.63,0,0,1,1.14-6.07,4.09,4.09,0,0,1,3.09-1.7" transform="translate(-66.89 -55.96)"/><path class="cls-12" d="M312.79,1074.06l.36.2a3.8,3.8,0,0,0,.8.22c.51.11.86.25,1.36.38a4,4,0,0,1,1.36.69c.29.22.89.76,1.17,1a9.64,9.64,0,0,0-1.06-1.24,5,5,0,0,0-2.21-1,6.64,6.64,0,0,1-2-.84,12.23,12.23,0,0,1-1-2.16,2.36,2.36,0,0,0-.26-.71l.29.11a4.58,4.58,0,0,0,.89.2,13.55,13.55,0,0,1,1.66.24,5.12,5.12,0,0,1,1.81.62,16.67,16.67,0,0,1,1.52,1,8.92,8.92,0,0,0-1.45-1.29,5.86,5.86,0,0,0-2.76-.87,10.44,10.44,0,0,1-2.05-.45c-.36-1-.7-1.82-1.05-2.92a6,6,0,0,0-.31-.84,3.88,3.88,0,0,0,.86.38,4.91,4.91,0,0,0,.94.2,17,17,0,0,1,1.81.24,5.61,5.61,0,0,1,1.82.62c.4.21,1.25.79,1.65,1.07a12,12,0,0,0-1.56-1.37,6.65,6.65,0,0,0-3-.88,7.93,7.93,0,0,1-2.74-.71c-.14-.31-.29-.6-.43-.86a11,11,0,0,0-1-1.48l.67.18a5.13,5.13,0,0,0,1,0h1.81a5.83,5.83,0,0,1,1.93.4c.41.16,1.34.63,1.81.85a13.79,13.79,0,0,0-1.7-1.16,6.47,6.47,0,0,0-3.07-.51,8.33,8.33,0,0,1-2.72-.33,5.1,5.1,0,0,0-2.71-1.81h-.34a3,3,0,0,1,1.49,1,12,12,0,0,1,1,1.25v.14a7,7,0,0,1-1.58,2.67,6.65,6.65,0,0,0-1.53,2.71,11.89,11.89,0,0,0-.18,2.07,18.6,18.6,0,0,1,.45-1.82,5.15,5.15,0,0,1,.91-1.81c.42-.53.67-.91,1.13-1.42a5.34,5.34,0,0,0,.54-.8,3.35,3.35,0,0,0,.44-1.49,19.43,19.43,0,0,1,1.81,3.83,7,7,0,0,1-1.2,2.65,6.76,6.76,0,0,0-1.16,2.89,11.7,11.7,0,0,0,0,2.05,17.21,17.21,0,0,1,.2-1.94,5.66,5.66,0,0,1,.69-1.82c.37-.56.55-1,.93-1.54a4.52,4.52,0,0,0,.43-.85,4.27,4.27,0,0,0,.26-.86c.11.29.2.6.31.89.4,1.11.81,2.24,1.32,3.31a5,5,0,0,1-.24,1.19,5.18,5.18,0,0,0-.19,2.47,8.53,8.53,0,0,0,.56,1.56c0-.38-.27-1.18-.31-1.54a4.54,4.54,0,0,1,0-1.56c.14-.53.18-.89.34-1.4v-.2a12.19,12.19,0,0,0,2,2.89,29.6,29.6,0,0,0,3.94,3.39c-.86-.87-2.62-2.76-3.33-3.63A8.54,8.54,0,0,1,312.79,1074.06Z" transform="translate(-66.89 -55.96)"/><path class="cls-8" d="M297.62,1060.41a16.16,16.16,0,0,0-10.4,2.06,9.43,9.43,0,0,0-3.34,5,20.62,20.62,0,0,0,.71,11.2,30.7,30.7,0,0,1,1.81,11.11,12.45,12.45,0,0,1-.32,2c3.63-3,7.62-5.44,11.19-8.48a22.36,22.36,0,0,0,7.86-10.45,13.06,13.06,0,0,0,.35-4.94,9.19,9.19,0,0,0-3.63-6.67,4.92,4.92,0,0,0-4.25-.88" transform="translate(-66.89 -55.96)"/><path class="cls-12" d="M300.52,1069.6a9,9,0,0,0-2.52-3.52,9.78,9.78,0,0,1-2.58-3.49,2.28,2.28,0,0,1-.11-.45,3.23,3.23,0,0,1,1.29-1.47l-.4.18a5.92,5.92,0,0,0-2.12,2.32,8,8,0,0,1-3.07,1,7.54,7.54,0,0,0-3.14,1.14,10.45,10.45,0,0,0-1.41,1.49c.36-.31,1.19-.94,1.58-1.2a6,6,0,0,1,2-.78c.72-.12,1.21-.27,2-.4a4.58,4.58,0,0,0,1-.27,4,4,0,0,0,.8-.4,13.7,13.7,0,0,0-.92,3c-.1.41-.17.89-.24,1.34h0a7.74,7.74,0,0,1-3.16,1.09,7.06,7.06,0,0,0-3.16,1.14,9,9,0,0,0-1.41,1.49,18.39,18.39,0,0,1,1.59-1.2,5.79,5.79,0,0,1,1.95-.78c.74-.14,1.21-.29,2-.4a6.25,6.25,0,0,0,1-.27,3.77,3.77,0,0,0,1.24-.76v1.16a26.2,26.2,0,0,1-.13,3.28,13.25,13.25,0,0,1-2,1.18,6.85,6.85,0,0,0-2.73,1.93,10.56,10.56,0,0,0-1,1.81c.28-.4.91-1.23,1.22-1.58a6.31,6.31,0,0,1,1.67-1.27c.67-.32,1.11-.6,1.81-.9a6.05,6.05,0,0,0,.93-.53h.11V1075a19.38,19.38,0,0,1-1.27,5.82,58.08,58.08,0,0,1-2.56,5.45,38.61,38.61,0,0,0,3.37-5.45,13.26,13.26,0,0,0,.95-2.5h0c.25.74.33,1.27.54,2a6.79,6.79,0,0,1,.17,2.29,14.09,14.09,0,0,1-.42,2.25,13.15,13.15,0,0,0,.78-2.29,7.72,7.72,0,0,0-.38-3.63,14,14,0,0,1-.42-1.81,22.2,22.2,0,0,0,.36-2.56h0l.11-1.47a1.63,1.63,0,0,0,.2.51,6.47,6.47,0,0,0,.58,1c.47.61.73,1.09,1.2,1.81a6.87,6.87,0,0,1,.93,2.11,21.08,21.08,0,0,1,.36,2.25,12.23,12.23,0,0,0,0-2.42,7.49,7.49,0,0,0-1.56-3.26,8.77,8.77,0,0,1-1.6-3.11,2.16,2.16,0,0,1,0-.36v-.54h0a16.85,16.85,0,0,1,.22-3.31,6.55,6.55,0,0,0,.78,1.51,6,6,0,0,0,1,1.12c.76.69,1.2,1.24,1.94,2a8.71,8.71,0,0,1,1.67,2.49c.28.64.78,2.14,1,2.85a18.33,18.33,0,0,0-.62-3.12,10.19,10.19,0,0,0-2.77-3.85,10.92,10.92,0,0,1-3.05-3.86h0a15.88,15.88,0,0,1,1.23-4.38,4.16,4.16,0,0,0,.86,2.29,6.09,6.09,0,0,0,.87,1c.69.62,1.1,1.13,1.81,1.82a7.76,7.76,0,0,1,1.53,2.27c.25.58.7,1.94.9,2.57A14.18,14.18,0,0,0,300.52,1069.6Z" transform="translate(-66.89 -55.96)"/><path class="cls-13" d="M304.44,1059.49a11.75,11.75,0,0,1-3.36-6.79,6.84,6.84,0,0,1,1.42-4.08,14.7,14.7,0,0,1,6.73-4.47,21.74,21.74,0,0,0,7.12-3.83c.36-.34.71-.7,1-1.09-.14,3.34.16,6.77,0,10.11a16.11,16.11,0,0,1-2.56,9.08,9.6,9.6,0,0,1-2.7,2.25,6.64,6.64,0,0,1-5.45.87,3.66,3.66,0,0,1-2.36-2" transform="translate(-66.89 -55.96)"/><path class="cls-12" d="M312.41,1048.51v-.36a3.86,3.86,0,0,0,0-.68,5.67,5.67,0,0,0-.09-1.23,3.92,3.92,0,0,1,.18-1.36,5.43,5.43,0,0,1,.49-1.27,7.33,7.33,0,0,0-.71,1.25,4.65,4.65,0,0,0-.2,2.16,5.63,5.63,0,0,1,0,1.92,11.65,11.65,0,0,1-1.49,1.49c-.18.14-.35.28-.52.44v-.27a3.09,3.09,0,0,0-.11-.8c-.13-.53-.16-.91-.29-1.45a5,5,0,0,1,0-1.64,8.72,8.72,0,0,1,.4-1.58,9.29,9.29,0,0,0-.66,1.6,5.68,5.68,0,0,0,.11,2.56,9.19,9.19,0,0,1,.26,1.81c-.71.6-1.31,1.15-2.13,1.82-.2.16-.4.33-.59.51a5.61,5.61,0,0,0,0-.82,4.85,4.85,0,0,0-.13-.85c-.15-.57-.2-1-.33-1.55a4.6,4.6,0,0,1,0-1.81,9.41,9.41,0,0,1,.4-1.69,9.63,9.63,0,0,0-.67,1.71,5.91,5.91,0,0,0,.14,2.74,7,7,0,0,1,.24,2.5l-.58.62a14.07,14.07,0,0,0-.94,1.25c0-.2,0-.41,0-.61a4.5,4.5,0,0,0-.22-.82c-.24-.55-.33-.95-.53-1.51a4.65,4.65,0,0,1-.25-1.81c0-.4.13-1.31.18-1.82a9.5,9.5,0,0,0-.45,1.82,5.72,5.72,0,0,0,.49,2.7,6.88,6.88,0,0,1,.54,2.36,4.58,4.58,0,0,0-.69,2.81v.31a2.52,2.52,0,0,1,.36-1.54,8.3,8.3,0,0,1,.75-1.2h.12a6.44,6.44,0,0,1,2.71.51,5.65,5.65,0,0,0,2.72.45,8.21,8.21,0,0,0,1.82-.45c-.42,0-1.33.18-1.82.2a5,5,0,0,1-1.72-.24c-.55-.2-.95-.29-1.51-.5a4.27,4.27,0,0,0-2.2-.22,18.51,18.51,0,0,1,2.64-2.67,7,7,0,0,1,2.57.18,5.65,5.65,0,0,0,2.74.13,10.54,10.54,0,0,0,1.71-.69c-.42.13-1.29.34-1.69.42a5.5,5.5,0,0,1-1.81,0c-.58-.13-1-.17-1.56-.31a3.46,3.46,0,0,0-.84-.11,2.55,2.55,0,0,0-.78,0l.64-.55c.79-.65,1.61-1.34,2.36-2.08l1.07-.17a4.41,4.41,0,0,0,2.12-.58,7.08,7.08,0,0,0,1.11-.94,11.1,11.1,0,0,1-1.18.74,4.21,4.21,0,0,1-1.33.42c-.47,0-.78.11-1.25.13h-.18a11.08,11.08,0,0,0,1.81-2.54,28.2,28.2,0,0,0,1.64-4.32c-.46,1-1.51,3-2,3.86A4.09,4.09,0,0,1,312.41,1048.51Z" transform="translate(-66.89 -55.96)"/><path class="cls-8" d="M299.11,1060.69a14,14,0,0,0,2.59-8.81,8,8,0,0,0-2.5-4.62,17.78,17.78,0,0,0-8.84-3.89,26.37,26.37,0,0,1-9.2-3.1,15.49,15.49,0,0,1-1.45-1.07c.83,3.94,1.16,8.06,2,12a19.42,19.42,0,0,0,4.87,10.2,10.69,10.69,0,0,0,3.63,2.25,7.93,7.93,0,0,0,6.57,0,4.22,4.22,0,0,0,2.35-2.9" transform="translate(-66.89 -55.96)"/><path class="cls-12" d="M287.47,1049.27c-.05-.14-.1-.27-.14-.42a3.37,3.37,0,0,1-.15-.78c0-.56-.11-.94-.14-1.5a5.22,5.22,0,0,0-.47-1.56c-.19-.35-.64-1.07-.86-1.42a8.75,8.75,0,0,1,1.09,1.34,5.5,5.5,0,0,1,.67,2.51,6.55,6.55,0,0,0,.49,2.27,12.52,12.52,0,0,0,2.07,1.47l.71.41a1.71,1.71,0,0,1,0-.32,5.13,5.13,0,0,1,0-1v-1.82a5.44,5.44,0,0,0-.31-1.92c-.14-.42-.56-1.36-.78-1.82a11.53,11.53,0,0,1,1.09,1.82,6.8,6.8,0,0,1,.38,3.06,10.3,10.3,0,0,0,0,2.22c.94.56,1.82,1.09,2.87,1.67.25.12.52.29.82.47a3.22,3.22,0,0,1-.24-1,3.49,3.49,0,0,1,0-1,13.36,13.36,0,0,1,.09-1.9,6.26,6.26,0,0,0-.31-2.07,19.92,19.92,0,0,0-.82-1.93,10.52,10.52,0,0,1,1.15,1.82,7,7,0,0,1,.36,3.28,8.56,8.56,0,0,0,.24,3c.29.19.56.41.81.61a14,14,0,0,1,1.38,1.29v-.74a5,5,0,0,1,.11-1c.15-.71.18-1.2.31-1.81a6.11,6.11,0,0,0,0-2.09c-.11-.47-.42-1.53-.58-2a10.69,10.69,0,0,1,.89,2,7.08,7.08,0,0,1,0,3.3,8.71,8.71,0,0,0-.18,2.92,5.34,5.34,0,0,1,1.38,3.18v.38a3,3,0,0,0-.77-1.81,11.3,11.3,0,0,0-1.12-1.27h-.15a7.5,7.5,0,0,0-3.12,1.14,6.87,6.87,0,0,1-3.1,1.09,10.18,10.18,0,0,1-2.2-.2,20.74,20.74,0,0,0,2.09-.11,6.46,6.46,0,0,0,2-.62c.61-.36,1.07-.54,1.67-.91a4.39,4.39,0,0,1,.94-.41,3.44,3.44,0,0,1,1.65-.2,20.35,20.35,0,0,0-3.63-2.63,8.08,8.08,0,0,0-3,.74,6.79,6.79,0,0,1-3.23.69,10.53,10.53,0,0,1-2.16-.47c.51,0,1.61.16,2.09.16a6.25,6.25,0,0,0,2-.38c.67-.27,1.14-.4,1.81-.69a3.4,3.4,0,0,1,1.91-.29l-.86-.51a34.77,34.77,0,0,1-3.23-2h-1.28a5.64,5.64,0,0,1-2.64-.27,10,10,0,0,1-1.52-.88c.38.17,1.18.51,1.54.62a5.15,5.15,0,0,0,1.65.24,8.62,8.62,0,0,0,1.53-.09h.22a12.65,12.65,0,0,1-2.65-2.67,31.69,31.69,0,0,1-3-4.88c.74,1,2.4,3.26,3.18,4.15A16.34,16.34,0,0,0,287.47,1049.27Z" transform="translate(-66.89 -55.96)"/><path class="cls-8" d="M300.36,1056.62a10.2,10.2,0,0,1,5.44-4.55,9,9,0,0,1,4.61,0,17.61,17.61,0,0,1,7.26,4.13,24.58,24.58,0,0,0,6.68,4.65l1.49.53c-3.36.79-6.62,2-10,2.79a21.42,21.42,0,0,1-10,.44,12.19,12.19,0,0,1-3.41-1.49,6,6,0,0,1-3.07-4.07,2.51,2.51,0,0,1,1.08-2.43" transform="translate(-66.89 -55.96)"/><path class="cls-12" d="M317.33,1061a14.35,14.35,0,0,1-4.74-1.46l-1-.52a4.36,4.36,0,0,0,.87-.26c.62-.27,1-.38,1.67-.63a5.59,5.59,0,0,1,1.94-.35c.46,0,1.47.11,2,.17a10.75,10.75,0,0,0-2-.46,6.34,6.34,0,0,0-3,.64,11.1,11.1,0,0,1-2,.6c-.8-.4-1.54-.76-2.45-1.31a9.69,9.69,0,0,0-1.25-.62l.49-.1a5,5,0,0,0,.89-.39c.58-.32,1-.49,1.59-.79a5.56,5.56,0,0,1,1.82-.55h2a10.91,10.91,0,0,0-2.05-.23,6.45,6.45,0,0,0-3,.94,8.28,8.28,0,0,1-2.43.94l-.36-.12a11.3,11.3,0,0,0-2.13-.48,2.88,2.88,0,0,0,.66-.43c.41-.36.74-.58,1.17-1a4.67,4.67,0,0,1,1.49-.76c.37-.11,1.22-.29,1.62-.38a10.09,10.09,0,0,0-1.82.16,5.51,5.51,0,0,0-2.3,1.28,8.85,8.85,0,0,1-1.51,1,4.11,4.11,0,0,0-2.81.8l-.27.23a2.47,2.47,0,0,1,1.81-.43,7,7,0,0,1,1.11.12,6.77,6.77,0,0,1,1.43,2.73,6.49,6.49,0,0,0,1.49,2.72,10.53,10.53,0,0,0,1.65,1.25c-.36-.33-1.09-1.05-1.38-1.4a5.51,5.51,0,0,1-1-1.68c-.21-.64-.41-1.06-.59-1.69a4.75,4.75,0,0,0-.4-.89,3.89,3.89,0,0,0-.75-1,15.62,15.62,0,0,1,3.63,1.32,10.54,10.54,0,0,1,1.11,1.82,6.55,6.55,0,0,0,1.81,2.54,10.52,10.52,0,0,0,1.82,1,16.39,16.39,0,0,1-1.54-1.21,5.68,5.68,0,0,1-1.18-1.57c-.29-.59-.53-1-.8-1.61a5.76,5.76,0,0,0-.38-.69l1.43.76a16.55,16.55,0,0,0,7.44,2.62,26.63,26.63,0,0,0,5.19-.51C321.07,1061.19,318.45,1061.12,317.33,1061Z" transform="translate(-66.89 -55.96)"/><path class="cls-13" d="M297.78,1058.15a7.87,7.87,0,0,0-5.08-1.82,7,7,0,0,0-3.32,1.23,13.13,13.13,0,0,0-4,4.87,19.11,19.11,0,0,1-3.63,5.1c-.29.27-.62.52-.93.78,2.62-.31,5.27-.33,7.9-.64a16.28,16.28,0,0,0,7.26-2.34,8.87,8.87,0,0,0,2.05-2,4.55,4.55,0,0,0,1.12-3.74,1.91,1.91,0,0,0-1.41-1.45" transform="translate(-66.89 -55.96)"/><path class="cls-12" d="M286.73,1065.8a11.44,11.44,0,0,0,3-2.21l.56-.63h-2.07a3.72,3.72,0,0,0-1.47.27c-.33.11-1,.45-1.36.61a8.35,8.35,0,0,1,1.33-.85,4.92,4.92,0,0,1,2.34-.34,10.21,10.21,0,0,0,1.56-.09,21,21,0,0,0,1.41-1.58,7.92,7.92,0,0,1,.75-.78H291.7c-.49-.09-.85-.09-1.36-.17a4.4,4.4,0,0,0-1.49.11,6.73,6.73,0,0,0-1.43.49,9.3,9.3,0,0,1,1.41-.71,5,5,0,0,1,2.38-.1,6.7,6.7,0,0,0,2,0l.23-.2a9.25,9.25,0,0,1,1.38-.89,2.73,2.73,0,0,1-.56-.15c-.42-.16-.71-.22-1.11-.36a3.64,3.64,0,0,0-1.27-.17,9.35,9.35,0,0,0-1.25.17,6.48,6.48,0,0,1,1.29-.35,4.2,4.2,0,0,1,2.07.28,8,8,0,0,0,1.36.34,3.18,3.18,0,0,1,2.23-.16h.27a2,2,0,0,0-1.38.16l-.76.36a5.82,5.82,0,0,0-.31,2.34,5,5,0,0,1-.34,2.36,8.35,8.35,0,0,1-.85,1.33c.16-.33.5-1,.63-1.36a4.59,4.59,0,0,0,.26-1.47v-1.38a4.69,4.69,0,0,1,0-.75,2.94,2.94,0,0,1,.27-.89,12.85,12.85,0,0,0-2.25,1.91,7.14,7.14,0,0,0-.29,1.65,5,5,0,0,1-.62,2.31,8.93,8.93,0,0,1-1,1.21c.2-.31.62-1,.78-1.29a4.75,4.75,0,0,0,.44-1.43c0-.51.11-.85.14-1.36a3,3,0,0,1,0-.6l-.83.93a12.54,12.54,0,0,1-4.65,3.77,21.73,21.73,0,0,1-3.88,1A19.46,19.46,0,0,0,286.73,1065.8Z" transform="translate(-66.89 -55.96)"/><path class="cls-11" d="M296.73,1008a1.81,1.81,0,0,1-1.62-1.12A47.39,47.39,0,0,1,291.94,994a20.33,20.33,0,0,1,3.26-13.27,1.73,1.73,0,0,1,2.93,1.83,1.84,1.84,0,0,1-.17.22,16.73,16.73,0,0,0-2.57,10.89,43.55,43.55,0,0,0,2.95,11.89,1.8,1.8,0,0,1-1.22,2.25,1.78,1.78,0,0,1-.39.07Z" transform="translate(-66.89 -55.96)"/><path class="cls-4" d="M218.07,1065.22H147.53v-22.66h86.4a1.17,1.17,0,0,1,1.19,1.17,1.22,1.22,0,0,1-.28.77Z" transform="translate(-66.89 -55.96)"/><path class="cls-4" d="M147.51,1064.72h70a4.77,4.77,0,0,1,4.77,4.77h0a4.78,4.78,0,0,1-4.75,4.79h-70v-9.56Z" transform="translate(-66.89 -55.96)"/><g class="cls-14"><path class="cls-6" d="M66.89,1065.21H234.62V1052.5a12.71,12.71,0,0,0-10.49,5.45,12.69,12.69,0,0,0-21,0,12.69,12.69,0,0,0-21,0,12.69,12.69,0,0,0-21,0,12.69,12.69,0,0,0-21,0,7.05,7.05,0,0,0-.62-.82V1057c-.22-.27-.47-.53-.71-.78l-.18-.17-.78-.72h-.11a12.78,12.78,0,0,0-4.14-2.23h-.16l-1.11-.44h-.2a13,13,0,0,0-2.41-.25,12.69,12.69,0,0,0-9.56,4.35,14.75,14.75,0,0,0-.93,1.16,12.76,12.76,0,0,0-20-1.1c-.32.38-.63.78-.92,1.18a12.8,12.8,0,0,0-21,0A12.71,12.71,0,0,0,67,1052.59Z" transform="translate(-66.89 -55.96)"/></g><path class="cls-2" d="M772,106.62H703.19v9.17h-9.51s7.53,6.57,9.51,23.34v60H772Z" transform="translate(-66.89 -55.96)"/><path class="cls-3" d="M772,91.58H745S690.65,90.07,689.27,75s-17.72-16.19-17.72-16.19-18.74-4-21.1,14.06,12.32,18.75,12.32,18.75h0a8.68,8.68,0,0,0,1,0A8.85,8.85,0,0,0,669.43,76c4.94.85,12.89,4.5,5.88,19.8-9.67,21.16,14.19,20.6,14.19,20.6H772Z" transform="translate(-66.89 -55.96)"/><rect class="cls-2" x="636.2" y="159.63" width="68.95" height="246.5"/><path class="cls-4" d="M684.71,195.37a1.22,1.22,0,0,1-.28-.77,1.18,1.18,0,0,1,1.19-1.17H772v22.66H701.48Z" transform="translate(-66.89 -55.96)"/><path class="cls-4" d="M772,215.59v9.56H702a4.77,4.77,0,0,1-4.76-4.79h0a4.77,4.77,0,0,1,4.78-4.77Z" transform="translate(-66.89 -55.96)"/><g class="cls-15"><path class="cls-6" d="M852.66,203.37a12.71,12.71,0,0,0-10.49,5.45,12.8,12.8,0,0,0-21,0c-.29-.4-.6-.8-.93-1.18a12.79,12.79,0,0,0-20,1.16,14.75,14.75,0,0,0-.93-1.16,12.7,12.7,0,0,0-9.56-4.16,13.17,13.17,0,0,0-2.42.26h-.2a10.83,10.83,0,0,0-1.09.27h-.16a12.81,12.81,0,0,0-4.28,2.39h-.11l-.78.73-.18.16c-.24.26-.49.51-.71.78h0a8,8,0,0,0-.55.75,12.52,12.52,0,0,0-3.32-3.33,12.71,12.71,0,0,0-17.66,3.33,12.33,12.33,0,0,0-3.3-3.3,12.7,12.7,0,0,0-17.66,3.3,12.33,12.33,0,0,0-3.3-3.3,12.7,12.7,0,0,0-17.66,3.3,12.7,12.7,0,0,0-21,0,12.71,12.71,0,0,0-10.49-5.45v12.71H852.66Z" transform="translate(-66.89 -55.96)"/></g><path class="cls-4" d="M772,263.12V400.89H726.49V308.67h0A45.55,45.55,0,0,1,772,263.12Z" transform="translate(-66.89 -55.96)"/><path class="cls-6" d="M772,269.49v122H733.77V307.76A38.27,38.27,0,0,1,772,269.49Z" transform="translate(-66.89 -55.96)"/><path class="cls-2" d="M772,468.09H703.19v9.08h-9.51s7.53,6.57,9.51,23.32v60H772Z" transform="translate(-66.89 -55.96)"/><path class="cls-3" d="M772,453.57H745s-54.33-1.52-55.71-16.57-17.72-16.19-17.72-16.19-18.74-4.06-21.1,14,12.32,18.75,12.32,18.75h0a8.68,8.68,0,0,0,1,0A8.83,8.83,0,0,0,669.43,438c4.94.83,12.89,4.48,5.88,19.8-9.67,21.14,14.19,20.58,14.19,20.58H772Z" transform="translate(-66.89 -55.96)"/><rect class="cls-2" x="636.2" y="526.96" width="68.95" height="408.13"/><path class="cls-4" d="M684.71,562.68a1.18,1.18,0,0,1,.91-1.92H772v22.67H701.48Z" transform="translate(-66.89 -55.96)"/><path class="cls-4" d="M772,582.94v9.54H702a4.77,4.77,0,0,1-4.78-4.77h0a4.77,4.77,0,0,1,4.78-4.77Z" transform="translate(-66.89 -55.96)"/><g class="cls-16"><path class="cls-6" d="M852.62,570.69a12.7,12.7,0,0,0-10.49,5.44,12.81,12.81,0,0,0-21,0c-.29-.4-.6-.8-.92-1.18a12.66,12.66,0,0,0-20,1.18c-.29-.4-.6-.8-.93-1.18a12.7,12.7,0,0,0-9.56-4.34,13.13,13.13,0,0,0-2.49.37h-.2l-1.09.29h-.16a12.14,12.14,0,0,0-4.14,2.23l-.11.09c-.27.22-.52.47-.78.71a1.53,1.53,0,0,0-.18.18c-.24.25-.49.51-.71.78v.09a8.12,8.12,0,0,0-.62.8,12.48,12.48,0,0,0-3.32-3.32,12.71,12.71,0,0,0-17.66,3.32,12.33,12.33,0,0,0-3.3-3.3,12.7,12.7,0,0,0-17.66,3.3,12.33,12.33,0,0,0-3.3-3.3,12.7,12.7,0,0,0-17.66,3.3,12.7,12.7,0,0,0-21,0,12.71,12.71,0,0,0-10.49-5.45v12.71H852.66Z" transform="translate(-66.89 -55.96)"/></g><path class="cls-4" d="M772,630.45V768.22H726.49V676h0A45.56,45.56,0,0,1,772,630.45Z" transform="translate(-66.89 -55.96)"/><path class="cls-6" d="M772,636.82v122H733.77V675.1A38.27,38.27,0,0,1,772,636.82Z" transform="translate(-66.89 -55.96)"/><rect class="cls-2" x="636.2" y="1011.25" width="68.95" height="246.5"/><path class="cls-4" d="M772,1114.7v137.76H726.49v-92.21A45.55,45.55,0,0,1,772,1114.7Z" transform="translate(-66.89 -55.96)"/><path class="cls-6" d="M772,1121.1v122H733.77v-83.72h0A38.27,38.27,0,0,1,772,1121.1Z" transform="translate(-66.89 -55.96)"/><path class="cls-8" d="M713.4,162.45c2.89,1.49,5.85,2.9,9,4.15A86.15,86.15,0,0,0,742.91,172h0s21.87,5.55,40.55.74l-1.38-13.28V155s-1.76.59-4.72,1.52l.29-.2-.45.25c-7.86,2.51-23.67,7-35.21,6.14h0c-3.74-.35-7.5-.85-11.13-1.43-11.52-1.82-21.58-6.12-28-13.38,0,0-.21-.58-.63.67a9.38,9.38,0,0,0-.49,2.34C701.43,156.51,707.23,159.22,713.4,162.45Z" transform="translate(-66.89 -55.96)"/><path class="cls-9" d="M724.35,139.89c7.11,19.33-5.85,19.07-5.85,19.07C708.18,151.85,724.35,139.89,724.35,139.89Z" transform="translate(-66.89 -55.96)"/><path class="cls-9" d="M685.24,151c19.74-5.86,18.65,7,18.65,7C696.13,167.86,685.24,151,685.24,151Z" transform="translate(-66.89 -55.96)"/><path class="cls-9" d="M715,182.66c7.49-23.84,19.74-14,19.74-14C739.36,183.17,715,182.66,715,182.66Z" transform="translate(-66.89 -55.96)"/><path class="cls-9" d="M739.21,767c-9.05-20.3,4.61-21.23,4.61-21.23C755.27,752.5,739.21,767,739.21,767Z" transform="translate(-66.89 -55.96)"/><path class="cls-8" d="M682.35,753.57a11.88,11.88,0,0,0,8-5.21,22.91,22.91,0,0,0,3.63-9.53c1-5.88.66-11.83,1-17.74a141.4,141.4,0,0,0,8.11,36.2,163.08,163.08,0,0,1,.8-42.28,65.06,65.06,0,0,0,10.71,12.7c6.72,6.32,15.43,11,23.47,16.33a217,217,0,0,1,23.72,18c1.69,1.49,3.37,3,5,4.57a29.33,29.33,0,0,1,1.22,4.43,20.37,20.37,0,0,1-2.93,15.73,15.79,15.79,0,0,1-6.15,5.07,17.72,17.72,0,0,1-8.62,1.81,7.55,7.55,0,0,1-1.06-.17,8.71,8.71,0,0,1-6.54-10.44,8.85,8.85,0,0,1,4.46-6.1c1.71-.84,4.48-.62,5.25,1.45a1.48,1.48,0,0,0,2.86-.76,6.72,6.72,0,0,0-8.8-3.63,11.62,11.62,0,0,0-6.79,8.53,11.85,11.85,0,0,0,1.82,9.25,11.64,11.64,0,0,0,8.2,4.89,20.27,20.27,0,0,0,10.89-2.27,18.7,18.7,0,0,0,7.39-6.5,23.22,23.22,0,0,0,3.14-16.66,33.13,33.13,0,0,1,6.06,10c3,8.33.67,16.82-2.09,24.85A20,20,0,0,0,784.62,793c3.41-13-1.16-27.51-12-39-14.52-15.13-38.49-24.21-53.76-38.89a37.12,37.12,0,0,1-11-18.47,109.44,109.44,0,0,1,18.66-37.9q3.15-4,6.2-7.48a19.46,19.46,0,0,0,1.82,8.08,8.9,8.9,0,0,0,3.39,4,5.47,5.47,0,0,0,5,.33c3-1.29,5.55-4.94,4.28-8.22a3.63,3.63,0,0,0-3.95-2.51,2.84,2.84,0,0,0-1.82,4h0a1,1,0,0,0,1.76-1,.82.82,0,0,1,.35-.92c.43-.26,1,.07,1.28.39a3.26,3.26,0,0,1,.31,3.36c-.89,2.13-3.35,4.19-5.82,3.09s-3.54-4.12-4.14-6.55a16.11,16.11,0,0,1-.26-6.52c28.44-30.63,49.86-25.7,49.86-25.7V599a262.11,262.11,0,0,0-32.05,17.35l-1.53.23a74.76,74.76,0,0,1-22.14-1,38.75,38.75,0,0,1-26.11-15.21s-.24-.72-.53.86a16.1,16.1,0,0,0-.29,2.94c0,7,5.41,10.11,11.27,13.74a86.32,86.32,0,0,0,8.33,4.7,61.14,61.14,0,0,0,15.43,5.08,140.54,140.54,0,0,0-23.94,24.86l-.71.33c-6.44,3.1-14,6.88-17.06,13.5s-1.47,13.67.94,20.24a118.27,118.27,0,0,0-1.9,22.77,36.85,36.85,0,0,0-1.82,7.54c-.87,6.13-.23,12.34-.87,18.47-.6,5.45-2.41,12.49-7.86,14.94a5.42,5.42,0,0,1-6-.91,8.65,8.65,0,0,1-1.66-9c.48-1,1.15-2.2,2.29-2.31a2.33,2.33,0,0,1,2.18,1.69,4.73,4.73,0,0,1-.87,4c-.93,1.43,1.36,2.75,2.28,1.34a7.45,7.45,0,0,0,1.18-5.83,5.14,5.14,0,0,0-3.63-3.63c-4-.9-6.18,3.52-6.55,6.79C672.52,747.89,676.18,754.21,682.35,753.57Zm14.58-76.48a16.71,16.71,0,0,1,1.9-10.58,20.65,20.65,0,0,1,6.93-6.57c1.26-.8,2.56-1.52,3.87-2.21A106.35,106.35,0,0,0,697.8,681.5a26.78,26.78,0,0,1-.87-4.33Z" transform="translate(-66.89 -55.96)"/><path class="cls-9" d="M689.48,631.61c12.18-26,24.61-12.88,24.61-12.88C717.14,636,689.48,631.61,689.48,631.61Z" transform="translate(-66.89 -55.96)"/><path class="cls-9" d="M728.23,589.52c19.29,21.24,2.43,27.68,2.43,27.68C713.62,613.41,728.23,589.52,728.23,589.52Z" transform="translate(-66.89 -55.96)"/><path class="cls-9" d="M670.54,714.59c12.18-26,24.59-12.89,24.59-12.89C698.16,718.91,670.54,714.59,670.54,714.59Z" transform="translate(-66.89 -55.96)"/><path class="cls-9" d="M751.17,707.44c-6.49,27.67-21.12,18-21.12,18C723.57,709.72,751.17,707.44,751.17,707.44Z" transform="translate(-66.89 -55.96)"/><path class="cls-9" d="M718.34,747.82c-9.71-14.65.53-17.32.53-17.32C728.5,734.19,718.34,747.82,718.34,747.82Z" transform="translate(-66.89 -55.96)"/><path class="cls-8" d="M713.71,527.29c2.89,1.49,5.85,2.91,8.93,4.16a86.55,86.55,0,0,0,20.57,5.35h0s21.86,5.56,40.52.75l-1.45-13.36v-4.41s-1.76.67-4.66,1.61l.29-.2-.46.26c-7.84,2.48-23.65,7-35.19,6.11h0c-3.74-.34-7.49-.85-11.12-1.43-11.62-1.81-21.58-6.12-27.95-13.37,0,0-.2-.59-.64.67a10.37,10.37,0,0,0-.49,2.34C701.63,521.36,707.42,524.06,713.71,527.29Z" transform="translate(-66.89 -55.96)"/><path class="cls-9" d="M724.55,504.73c7.11,19.33-5.85,19.08-5.85,19.08C708.4,516.68,724.55,504.73,724.55,504.73Z" transform="translate(-66.89 -55.96)"/><path class="cls-9" d="M685.44,515.8c19.74-5.86,18.65,7.05,18.65,7.05C696.34,532.7,685.46,515.8,685.44,515.8Z" transform="translate(-66.89 -55.96)"/><path class="cls-9" d="M715.17,547.51c7.51-23.85,19.76-14,19.76-14C739.56,548,715.17,547.51,715.17,547.51Z" transform="translate(-66.89 -55.96)"/><path class="cls-9" d="M739.32,933.81c-9.06-20.31,4.61-21.24,4.61-21.24C755.38,919.34,739.32,933.81,739.32,933.81Z" transform="translate(-66.89 -55.96)"/><path class="cls-8" d="M682.37,920.32a11.86,11.86,0,0,0,8-5.22,22.64,22.64,0,0,0,3.63-9.53c1-5.86.66-11.83,1-17.75a142.14,142.14,0,0,0,8.11,36.3,163.15,163.15,0,0,1,.8-42.29,65.06,65.06,0,0,0,10.71,12.7c6.72,6.32,15.43,11.07,23.47,16.34a219.35,219.35,0,0,1,23.83,18c1.68,1.49,3.35,3,5,4.57a30.08,30.08,0,0,1,1.27,4.45,20.33,20.33,0,0,1-2.92,15.73,15.81,15.81,0,0,1-6.17,5.09,17.55,17.55,0,0,1-8.6,1.81,7.71,7.71,0,0,1-1.07-.18,8.7,8.7,0,0,1-6.54-10.44,8.91,8.91,0,0,1,4.5-6.15c1.64-.83,4.49-.62,5.27,1.45a1.55,1.55,0,0,0,1.81,1.06,1.52,1.52,0,0,0,1.05-1.82h0a6.73,6.73,0,0,0-8.78-3.62,11.56,11.56,0,0,0-6.79,8.53,11.92,11.92,0,0,0,1.82,9.28,11.61,11.61,0,0,0,8.09,4.91,20.19,20.19,0,0,0,10.89-2.26,18.81,18.81,0,0,0,7.39-6.48,23.32,23.32,0,0,0,3.14-16.66,32.72,32.72,0,0,1,6.06,10c3,8.27.72,16.79-2.09,24.81a19.79,19.79,0,0,0,9.51-13.09c3.43-13-1.14-27.51-12-38.94C758.05,905.73,734.17,896.66,719,882a36.76,36.76,0,0,1-11.05-18.45,109.42,109.42,0,0,1,18.65-37.92q3.16-4,6.21-7.45a19.47,19.47,0,0,0,1.81,8.05,8.89,8.89,0,0,0,3.4,4,5.45,5.45,0,0,0,5,.34c3-1.29,5.54-4.95,4.29-8.24a3.64,3.64,0,0,0-4-2.5,2.62,2.62,0,0,0-.53.2,2.82,2.82,0,0,0-1.28,3.79,1,1,0,0,0,1.37.36,1.06,1.06,0,0,0,.39-1.39.81.81,0,0,1,.34-.93c.42-.24,1,.07,1.29.4a3.3,3.3,0,0,1,.31,3.36c-.89,2.14-3.38,4.19-5.85,3.08s-3.52-4.12-4.12-6.55a16,16,0,0,1-.25-6.5c28.48-30.65,49.76-25.71,49.76-25.71V765.84a259.3,259.3,0,0,0-32.06,17.33l-1.53.24a75.64,75.64,0,0,1-22.12-.95A38.86,38.86,0,0,1,703,767.24s-.22-.71-.53.85a18.41,18.41,0,0,0-.27,3c0,7,5.41,10.09,11.25,13.72a90.29,90.29,0,0,0,8.35,4.72,61.57,61.57,0,0,0,15.59,5.06,140,140,0,0,0-24,24.87l-.71.32c-6.5,3.14-14,6.79-17.1,13.43s-1.47,13.69.95,20.24a117.52,117.52,0,0,0-2,22.85,35.94,35.94,0,0,0-1.82,7.51c-.87,6.14-.23,12.34-.87,18.48-.6,5.44-2.32,12.48-7.86,15a5.42,5.42,0,0,1-6-.91,8.14,8.14,0,0,1-2.24-5.69,8.5,8.5,0,0,1,.58-3.31c.48-.94,1.17-2.18,2.29-2.28a2.31,2.31,0,0,1,2.2,1.68,4.75,4.75,0,0,1-.87,3.94c-.93,1.45,1.36,2.78,2.28,1.34a7.41,7.41,0,0,0,1.18-5.8,5.16,5.16,0,0,0-3.63-3.63c-4-.89-6.19,3.52-6.55,6.78C672.62,914.72,676.29,921.05,682.37,920.32ZM697,843.92a17,17,0,0,1,1.89-10.53,20.74,20.74,0,0,1,6.93-6.57c1.28-.8,2.56-1.52,3.89-2.21a106.21,106.21,0,0,0-11.83,23.72A27.82,27.82,0,0,1,697,844Z" transform="translate(-66.89 -55.96)"/><path class="cls-9" d="M689.59,798.44c12.18-26,24.61-12.89,24.61-12.89C717.25,802.76,689.59,798.44,689.59,798.44Z" transform="translate(-66.89 -55.96)"/><path class="cls-9" d="M728.4,756.37c19.27,21.21,2.43,27.66,2.43,27.66C713.73,780.23,728.34,756.37,728.4,756.37Z" transform="translate(-66.89 -55.96)"/><path class="cls-9" d="M670.63,881.41c12.18-25.95,24.61-12.87,24.61-12.87C698.29,885.73,670.63,881.41,670.63,881.41Z" transform="translate(-66.89 -55.96)"/><path class="cls-9" d="M751.26,874.28c-6.58,27.66-21.1,18-21.1,18C723.73,876.57,751.26,874.28,751.26,874.28Z" transform="translate(-66.89 -55.96)"/><path class="cls-9" d="M718.43,914.59c-9.69-14.63.55-17.3.55-17.3C728.6,901,718.43,914.64,718.43,914.59Z" transform="translate(-66.89 -55.96)"/><path class="cls-9" d="M739.38,1251.87c-9.06-20.29,4.61-21.24,4.61-21.24C755.44,1237.4,739.38,1251.87,739.38,1251.87Z" transform="translate(-66.89 -55.96)"/><path class="cls-8" d="M682.42,1238.49a12,12,0,0,0,8.1-5.3,23,23,0,0,0,3.63-9.55c1-5.86.65-11.81,1-17.73a141.38,141.38,0,0,0,8.11,36.21,162.26,162.26,0,0,1,.84-42.23,65.36,65.36,0,0,0,10.7,12.7c6.72,6.32,15.43,11.07,23.47,16.34a217.22,217.22,0,0,1,23.76,18c1.69,1.49,3.37,3,5,4.57a29.09,29.09,0,0,1,1.25,4.47,20.35,20.35,0,0,1-2.92,15.72,15.79,15.79,0,0,1-6.19,5.06,17.5,17.5,0,0,1-8.62,1.81,8.08,8.08,0,0,1-1.08-.17A8.69,8.69,0,0,1,742.9,1268a8.79,8.79,0,0,1,4.44-6.1c1.73-.84,4.5-.62,5.27,1.43a1.53,1.53,0,0,0,1.81,1,1.5,1.5,0,0,0,1.05-1.81h0a6.71,6.71,0,0,0-8.78-3.62,11.7,11.7,0,0,0-6.79,8.53,11.89,11.89,0,0,0,1.82,9.27,11.7,11.7,0,0,0,8.18,4.89,20.39,20.39,0,0,0,10.89-2.29,18.65,18.65,0,0,0,7.39-6.48,23.22,23.22,0,0,0,3.14-16.66,33,33,0,0,1,6.06,10c3,8.35.67,16.84-2.09,24.87a20,20,0,0,0,9.53-13.11c3.41-13-1.16-27.51-12.05-38.93-14.54-15.15-38.49-24.21-53.76-38.91a37,37,0,0,1-11-18.45,109.26,109.26,0,0,1,18.66-37.9q3.15-4,6.2-7.48a19.33,19.33,0,0,0,1.82,8.06,8.84,8.84,0,0,0,3.39,4,5.47,5.47,0,0,0,5.05.33c3-1.29,5.55-5,4.28-8.24a3.63,3.63,0,0,0-4-2.51,2.92,2.92,0,0,0-.49.19,2.85,2.85,0,0,0-1.32,3.81,1,1,0,0,0,1.4.36,1.05,1.05,0,0,0,.36-1.4.76.76,0,0,1,.35-.9c.41-.26,1,0,1.28.38a3.3,3.3,0,0,1,.31,3.37c-.89,2.13-3.34,4.18-5.82,3.07s-3.54-4.12-4.14-6.55a16,16,0,0,1-.26-6.5C763.5,1103,784.93,1108,784.93,1108v-24.07a261.56,261.56,0,0,0-32.07,17.34,8.47,8.47,0,0,1-1.51.23,75.45,75.45,0,0,1-22.14-.94,38.81,38.81,0,0,1-26-15.26s-.24-.71-.53.85a17.16,17.16,0,0,0-.29,3c0,7,5.41,10.09,11.26,13.72a88.84,88.84,0,0,0,8.34,4.72,61.76,61.76,0,0,0,15.43,5.06,141.94,141.94,0,0,0-23.94,24.86l-.72.35c-6.43,3.1-14,6.84-17,13.48s-1.47,13.69,1,20.24a118.3,118.3,0,0,0-2,22.85,36.76,36.76,0,0,0-1.82,7.53c-.87,6.12-.23,12.32-.87,18.46-.6,5.44-2.32,12.48-7.85,14.95a5.44,5.44,0,0,1-6-.91,8,8,0,0,1-2.38-5.77,8.27,8.27,0,0,1,.58-3.3c.47-.93,1.16-2.18,2.29-2.29a2.34,2.34,0,0,1,2.19,1.69,4.73,4.73,0,0,1-.87,4c-.92,1.43,1.36,2.76,2.29,1.32a7.42,7.42,0,0,0,1.18-5.8,5.17,5.17,0,0,0-3.63-3.63c-4-.89-6.19,3.52-6.55,6.78C672.75,1232.79,676.38,1239.11,682.42,1238.49ZM697.09,1162a16.74,16.74,0,0,1,1.9-10.59,20.56,20.56,0,0,1,6.94-6.5c1.25-.78,2.54-1.53,3.86-2.22A106.56,106.56,0,0,0,698,1166.4a26.8,26.8,0,0,1-.87-4.35Z" transform="translate(-66.89 -55.96)"/><path class="cls-9" d="M689.65,1116.49c12.18-26,24.61-12.88,24.61-12.88C717.31,1120.81,689.65,1116.49,689.65,1116.49Z" transform="translate(-66.89 -55.96)"/><path class="cls-9" d="M728.4,1074.42c19.27,21.22,2.43,27.66,2.43,27.66C713.79,1098.31,728.4,1074.42,728.4,1074.42Z" transform="translate(-66.89 -55.96)"/><path class="cls-9" d="M670.68,1199.49c12.2-26,24.61-12.89,24.61-12.89C698.34,1203.79,670.68,1199.49,670.68,1199.49Z" transform="translate(-66.89 -55.96)"/><path class="cls-9" d="M751.34,1192.34c-6.5,27.66-21.13,18-21.13,18C723.79,1194.62,751.34,1192.34,751.34,1192.34Z" transform="translate(-66.89 -55.96)"/><path class="cls-9" d="M718.49,1232.7c-9.7-14.63.54-17.3.54-17.3C728.67,1219.09,718.49,1232.7,718.49,1232.7Z" transform="translate(-66.89 -55.96)"/><path class="cls-10" d="M772,1054.82H699.53v-21.37C695,1012.22,641,1007.6,641,1007.6h58.15v-5.24H772Z" transform="translate(-66.89 -55.96)"/><path class="cls-3" d="M571.52,987.93h0a9.19,9.19,0,0,0,1.05,0h0a9,9,0,0,0,9.07-8.86,8.68,8.68,0,0,0-3.28-6.8c5.1.85,13.34,4.5,6.08,19.83-10.07,21.22,14.52,20.66,14.52,20.66H826.69v-25H656.16s-56-1.52-57.42-16.61S580.48,955,580.48,955s-19.34-4.1-21.78,14S571.52,987.93,571.52,987.93Z" transform="translate(-66.89 -55.96)"/><path class="cls-2" d="M600.3,1078.78l6.15,29.22a4.45,4.45,0,0,0,4.34,3.52h24.07a4.43,4.43,0,0,0,4.33-3.52l6.16-29.22H600.3Z" transform="translate(-66.89 -55.96)"/><polyline class="cls-6" points="576.04 1034.35 578.47 1021.41 560.78 1021.41 551.09 1021.41 533.41 1021.41 535.82 1034.35"/><path class="cls-11" d="M642.77,1069,621,1010.27s0-.09,0-.13a1.73,1.73,0,1,1,3.28-1.07L646,1067.8a1.78,1.78,0,0,1,.07.39,1.71,1.71,0,0,1-3.3.81Z" transform="translate(-66.89 -55.96)"/><path class="cls-11" d="M600.21,1070h0a1.71,1.71,0,0,1-1-2.2L621,1009.07s0-.09,0-.13a1.72,1.72,0,1,1,3.18,1.33L602.42,1069a1.8,1.8,0,0,1-1.61,1.12A1.52,1.52,0,0,1,600.21,1070Z" transform="translate(-66.89 -55.96)"/><path class="cls-2" d="M656.47,1069.63v3.92h0a13.39,13.39,0,0,1-13.39,13.4H602.59a13.4,13.4,0,0,1-13.4-13.4v-3.92a2.12,2.12,0,0,1,2.13-2.12h63A2.12,2.12,0,0,1,656.47,1069.63Z" transform="translate(-66.89 -55.96)"/><path class="cls-8" d="M606.93,1061.38a2.55,2.55,0,0,1,1.05,2.43,6,6,0,0,1-3.05,4.06,11.53,11.53,0,0,1-3.41,1.49,21.59,21.59,0,0,1-10-.43c-3.34-.8-6.61-2-10-2.8.51-.16,1-.33,1.49-.53a24.33,24.33,0,0,0,6.68-4.64,17.81,17.81,0,0,1,7.15-4.14,9.08,9.08,0,0,1,4.63,0,10.38,10.38,0,0,1,5.44,4.56" transform="translate(-66.89 -55.96)"/><path class="cls-12" d="M585,1065.93a27.61,27.61,0,0,0,5.21.49,16.26,16.26,0,0,0,7.42-2.52l1.44-.76a5.9,5.9,0,0,0-.4.69c-.26.61-.51,1-.78,1.61a5.91,5.91,0,0,1-1.2,1.56c-.33.31-1.15,1-1.53,1.22a10,10,0,0,0,1.82-1,6.31,6.31,0,0,0,1.81-2.54,10.36,10.36,0,0,1,1.09-1.81,17.57,17.57,0,0,1,3.63-1.33,4.56,4.56,0,0,0-.74,1,5.29,5.29,0,0,0-.38.89c-.2.64-.4,1.06-.6,1.69a5.76,5.76,0,0,1-1,1.69c-.29.34-1,1.07-1.38,1.4a9.61,9.61,0,0,0,1.65-1.26,6.43,6.43,0,0,0,1.49-2.72,6.77,6.77,0,0,1,1.42-2.72,3.19,3.19,0,0,1,1.1-.13,2.61,2.61,0,0,1,1.82.44l-.27-.24a4.24,4.24,0,0,0-2.84-.8,9.5,9.5,0,0,1-1.5-1,5.39,5.39,0,0,0-2.29-1.29,9.23,9.23,0,0,0-1.81-.16c.4.09,1.25.27,1.61.38a4.78,4.78,0,0,1,1.47.76c.44.36.78.58,1.2.94a2.74,2.74,0,0,0,.63.44,13.84,13.84,0,0,0-2.1.47l-.38.13a8.07,8.07,0,0,1-2.43-.94,6.71,6.71,0,0,0-2.94-1,10.83,10.83,0,0,0-2,.24h2a5.49,5.49,0,0,1,1.81.54c.6.31,1,.47,1.62.8a3.84,3.84,0,0,0,.88.38,2.77,2.77,0,0,0,.48.11,9.56,9.56,0,0,0-1.24.62c-.91.54-1.67.91-2.47,1.32a13.22,13.22,0,0,1-1.94-.61,6.42,6.42,0,0,0-3-.64,11.46,11.46,0,0,0-2,.45c.47-.05,1.51-.14,2-.14a5.25,5.25,0,0,1,1.92.33c.62.25,1.07.36,1.69.63a6.28,6.28,0,0,0,.87.27l-1,.51a14.3,14.3,0,0,1-4.74,1.47A47.07,47.07,0,0,1,585,1065.93Z" transform="translate(-66.89 -55.96)"/><path class="cls-13" d="M639.59,1068.34a2.52,2.52,0,0,0-1.32,2.31,6,6,0,0,0,2.63,4.37,11.44,11.44,0,0,0,3.23,1.82,21.42,21.42,0,0,0,10,.69c3.42-.44,6.79-1.25,10.22-1.67-.49-.24-1-.46-1.43-.71a24.82,24.82,0,0,1-6.12-5.3,17.54,17.54,0,0,0-6.66-4.92,9.13,9.13,0,0,0-4.57-.52,10.36,10.36,0,0,0-5.88,3.93" transform="translate(-66.89 -55.96)"/><path class="cls-12" d="M641,1067.27a2.81,2.81,0,0,1,1.81,0,12.14,12.14,0,0,1,3,1.18,7.56,7.56,0,0,1,.69,3.2,7,7,0,0,0,.82,3.3,11.75,11.75,0,0,0,1.4,1.82,21.09,21.09,0,0,1-1.07-1.82,6,6,0,0,1-.58-2.07c-.06-.74-.17-1.23-.17-2a5.33,5.33,0,0,0-.16-1.05,4.8,4.8,0,0,0-.42-1c.56.32,1.13.7,1.67,1.07h.06l.47.34a7,7,0,0,1,1.38,2.53,6.09,6.09,0,0,0,1.47,2.54,10,10,0,0,0,1.59,1.14c-.47-.41-.91-.84-1.34-1.29a5.5,5.5,0,0,1-1-1.58c-.22-.6-.42-1-.62-1.6a4.74,4.74,0,0,0-.38-.83,1.43,1.43,0,0,1-.14-.2l.54.4h0a15.9,15.9,0,0,0,1.82,1.29c.27.32.5.67.76,1a6.15,6.15,0,0,0,2.05,2.13,11.72,11.72,0,0,0,1.81.71c-.41-.2-1.27-.68-1.63-.91a6,6,0,0,1-1.34-1.31l-.8-1.12a12,12,0,0,0,3.43,1.32,30.79,30.79,0,0,0,5.15.6c-1.16-.25-3.72-.82-4.79-1.14a19.26,19.26,0,0,1-3.26-1.42h2.1a5.09,5.09,0,0,1,1.69.29c.34.15,1.11.53,1.45.71a9.26,9.26,0,0,0-1.36-1,5.49,5.49,0,0,0-2.69-.38,11.25,11.25,0,0,1-1.92-.11l-.34-.26c-.88-.65-1.6-1.12-2.36-1.67h.1a3.1,3.1,0,0,0,.86,0h1.63a4.54,4.54,0,0,1,1.67.31q.75.32,1.47.69a7.3,7.3,0,0,0-1.38-.94,5.6,5.6,0,0,0-2.68-.4,7.76,7.76,0,0,1-2.35-.22l-.47-.38a11.35,11.35,0,0,0-2-1.23,11,11,0,0,0-2.82-1l.75-.13a5.26,5.26,0,0,1,1.81.13c.62.16,1,.24,1.67.42a3.87,3.87,0,0,0,.89.16,2.28,2.28,0,0,0,2-.6v-.11a.88.88,0,0,1-.6.31,6.66,6.66,0,0,1-2.94-.31,6.26,6.26,0,0,0-2.94-.29c-.26.07-.73.2-1.15.36a4.4,4.4,0,0,0-2.27.22Z" transform="translate(-66.89 -55.96)"/><path class="cls-13" d="M632.53,1065.93a2.11,2.11,0,0,0-2.07.75,4,4,0,0,0-.27,3.88,9.77,9.77,0,0,0,1.44,2.68,20.32,20.32,0,0,0,6.91,5.25c2.78,1.42,5.54,2.56,8.22,4-.23-.37-.47-.73-.69-1.11a18.39,18.39,0,0,1-1.81-6.19,13.66,13.66,0,0,0-2.43-6.22,8.6,8.6,0,0,0-3.09-2.56,10.41,10.41,0,0,0-6.19-.48" transform="translate(-66.89 -55.96)"/><path class="cls-12" d="M634.17,1065.75a3,3,0,0,1,1.32.85,11.25,11.25,0,0,1,1.62,2.2,5.33,5.33,0,0,1-1.06,2.27,4.62,4.62,0,0,0-1,2.37,8.54,8.54,0,0,0,.14,1.82,13.1,13.1,0,0,1,.13-1.65,4.25,4.25,0,0,1,.58-1.53c.33-.45.51-.8.84-1.25a3.81,3.81,0,0,0,.4-.71,2.76,2.76,0,0,0,.19-.85,16.19,16.19,0,0,1,.69,1.47h0l.11.11a3.93,3.93,0,0,1,.18.43,4.69,4.69,0,0,1-.21,2.2,4.11,4.11,0,0,0-.18,2.25,8.52,8.52,0,0,0,.59,1.47,8.7,8.7,0,0,1-.34-1.43,3.87,3.87,0,0,1,0-1.44c.14-.47.18-.79.34-1.25a2.62,2.62,0,0,0,.11-.69.67.67,0,0,0,0-.2c.06.18.13.35.2.51h0a8.92,8.92,0,0,1,.75,1.69v1a4.58,4.58,0,0,0,.45,2.27,10.49,10.49,0,0,0,1,1.32c-.18-.32-.58-1-.73-1.34a4.4,4.4,0,0,1-.34-1.43v-1.08a10.52,10.52,0,0,0,1.82,2.47,29.43,29.43,0,0,0,3.46,2.85c-.74-.71-2.3-2.28-2.9-3a13.54,13.54,0,0,1-1.69-2.43l.34.23c.46.28.73.49,1.18.78a5.14,5.14,0,0,1,1.08,1c.18.26.56.85.72,1.13a6.21,6.21,0,0,0-.54-1.24,5.51,5.51,0,0,0-1.82-1.54,9.93,9.93,0,0,1-1.34-1,.42.42,0,0,1-.15-.31c-.31-.81-.6-1.45-.89-2.16h0a4.35,4.35,0,0,0,.6.46c.46.27.73.49,1.18.78a4.42,4.42,0,0,1,1.07,1c.19.25.57.85.73,1.12a6.75,6.75,0,0,0-.54-1.23,5.23,5.23,0,0,0-1.82-1.55,7.52,7.52,0,0,1-1.6-1.27,1.48,1.48,0,0,1-.18-.47,8.36,8.36,0,0,0-.83-1.7,10.26,10.26,0,0,0-1.55-2l.6.29a5.29,5.29,0,0,1,1.29,1c.36.42.65.65,1,1.07a4.14,4.14,0,0,0,.58.53,2.3,2.3,0,0,0,1.82.61h.1a1,1,0,0,1-.58-.1,6.18,6.18,0,0,1-2-1.62,6.34,6.34,0,0,0-2-1.6c-.24-.09-.64-.23-1-.34a4.35,4.35,0,0,0-1.81-1Z" transform="translate(-66.89 -55.96)"/><path class="cls-8" d="M633.53,1062.77a3,3,0,0,0-.71,3,7,7,0,0,0,4.52,4.07,14.22,14.22,0,0,0,4.27,1,25.22,25.22,0,0,0,11.47-2.6c3.63-1.71,7.17-3.7,10.89-5.34-.6-.09-1.22-.18-1.82-.3a28.85,28.85,0,0,1-8.71-4,20.55,20.55,0,0,0-9.07-3.29,10.75,10.75,0,0,0-5.45.95,12.4,12.4,0,0,0-5.32,6.42" transform="translate(-66.89 -55.96)"/><path class="cls-12" d="M635.56,1061.25a3.22,3.22,0,0,1,1.82-.6h.43l.26.22a8.64,8.64,0,0,1,1.81,3.39,8,8,0,0,0,2,3.27A13.15,13.15,0,0,0,644,1069c-.49-.39-1.43-1.27-1.82-1.68a6.92,6.92,0,0,1-1.28-2.09c-.29-.78-.55-1.29-.8-2.09a6.45,6.45,0,0,0-.53-1.09,3.84,3.84,0,0,0-1.43-1.48,14.4,14.4,0,0,1,2.92.36,9,9,0,0,1,1.81,3.3,8.28,8.28,0,0,0,1.8,3.43,14.22,14.22,0,0,0,2.11,1.51,23,23,0,0,1-1.82-1.69,7.16,7.16,0,0,1-1.29-2.09c-.29-.78-.54-1.3-.8-2.08a6,6,0,0,0-.5-1.09,6.52,6.52,0,0,0-.82-1.06c.58.17,1.2.37,1.81.57h0l1.66.58a11.1,11.1,0,0,1,2.1,2.12A8.21,8.21,0,0,0,650,1067a12.9,12.9,0,0,0,2.49.73c-.56-.22-1.74-.75-2.23-1a7.27,7.27,0,0,1-1.82-1.54c-.52-.75-.92-1.14-1.43-1.82-.17-.2-.36-.4-.56-.6a17.92,17.92,0,0,0,7.55,1.44,33.42,33.42,0,0,0,5.71-1c-1.29.11-4.19.25-5.44.25a20.48,20.48,0,0,1-3-.32,4.22,4.22,0,0,0,.61-.28c.48-.27.82-.4,1.31-.67a4.81,4.81,0,0,1,1.49-.43,12,12,0,0,1,1.47,0,5.93,5.93,0,0,0-1.51-.22,5.41,5.41,0,0,0-2.18.62,7.65,7.65,0,0,1-1.66.72,9.7,9.7,0,0,1-1.69-.51c-1.4-.54-2.49-.85-3.76-1.34h0a4.46,4.46,0,0,0,1-.42c.69-.38,1.16-.56,1.82-.9a5.54,5.54,0,0,1,2-.6h2a9.2,9.2,0,0,0-2-.28,6.76,6.76,0,0,0-3.19,1.06,12.12,12.12,0,0,1-2.23.94h-.22a15.34,15.34,0,0,0-2.54-.74,7.34,7.34,0,0,0-1.33-.18h0a7.32,7.32,0,0,0,.93-.55c.6-.45,1-.69,1.65-1.12a5.45,5.45,0,0,1,1.92-.86,12.17,12.17,0,0,1,2-.31,10,10,0,0,0-2.05,0,7,7,0,0,0-3,1.46,10.17,10.17,0,0,1-2.43,1.36h-1.24a5,5,0,0,0-2.63,1Z" transform="translate(-66.89 -55.96)"/><path class="cls-8" d="M608.05,1066.53a1.79,1.79,0,0,1,1.43,1.36,4.43,4.43,0,0,1-.9,3.63,8.7,8.7,0,0,1-1.89,1.94,16,16,0,0,1-7,2.62c-2.54.41-5.12.56-7.66,1l.86-.8a18.43,18.43,0,0,0,3.3-5.14,13,13,0,0,1,3.63-4.93,6.63,6.63,0,0,1,3.18-1.37,7.81,7.81,0,0,1,5,1.56" transform="translate(-66.89 -55.96)"/><path class="cls-12" d="M594.33,1076a23,23,0,0,0,3.63-1.18,12.32,12.32,0,0,0,4.37-3.9l.77-1a3,3,0,0,0,0,.6,6.61,6.61,0,0,0-.09,1.33,4.17,4.17,0,0,1-.35,1.43c-.14.29-.53,1-.71,1.29a6.65,6.65,0,0,0,.93-1.25,4.9,4.9,0,0,0,.6-2.27,7.58,7.58,0,0,1,.2-1.64,12.71,12.71,0,0,1,2.12-2,3.31,3.31,0,0,0-.24.87,4.45,4.45,0,0,0,0,.73v1.34a4.23,4.23,0,0,1-.2,1.46c-.09.3-.39,1-.54,1.36a9.09,9.09,0,0,0,.78-1.35,4.85,4.85,0,0,0,.18-2.3,5.48,5.48,0,0,1,.2-2.31c.24-.14.48-.28.73-.4a1.9,1.9,0,0,1,1.32-.21h-.25a3,3,0,0,0-2.18.27,6.66,6.66,0,0,1-1.34-.29,4.13,4.13,0,0,0-1.94-.2,6,6,0,0,0-1.26.4,7.85,7.85,0,0,1,1.22-.22,3.75,3.75,0,0,1,1.25,0l1.09.31a3.47,3.47,0,0,0,.56.11,8.6,8.6,0,0,0-1.3.94l-.22.2a6.44,6.44,0,0,1-2,0,5,5,0,0,0-2.31.22,8.41,8.41,0,0,0-1.34.76l1.36-.54a4.44,4.44,0,0,1,1.45-.18h1.35a4.33,4.33,0,0,0,.72,0h.37a6.34,6.34,0,0,0-.68.78c-.47.63-.88,1.1-1.3,1.61a7.79,7.79,0,0,1-1.53.16,4.72,4.72,0,0,0-2.28.46,8,8,0,0,0-1.26.89c.33-.18,1-.55,1.31-.67a4.48,4.48,0,0,1,1.43-.35h1.33a4,4,0,0,0,.69,0c-.18.2-.35.4-.53.64a10.66,10.66,0,0,1-2.85,2.37C596.91,1074.77,595.13,1075.59,594.33,1076Z" transform="translate(-66.89 -55.96)"/><path class="cls-13" d="M615.36,1063.93a4.1,4.1,0,0,1,3.09,1.71,7.61,7.61,0,0,1,1.14,6.06,10.36,10.36,0,0,1-1.48,3.74,18.36,18.36,0,0,1-8.63,6.19c-3.46,1.42-7.24,2.41-10.72,3.83.25-.49.51-1,.74-1.51a24.52,24.52,0,0,0,1.33-9.07A16.69,16.69,0,0,1,603,1066a7.78,7.78,0,0,1,3.79-3.09,13.29,13.29,0,0,1,8.56,1" transform="translate(-66.89 -55.96)"/><path class="cls-12" d="M605.62,1078c-.71.87-2.47,2.76-3.32,3.63a30.32,30.32,0,0,0,3.94-3.4,12.38,12.38,0,0,0,2-2.88v.2c.16.51.2.87.34,1.4a4.54,4.54,0,0,1,0,1.56c0,.36-.31,1.16-.31,1.54a8.84,8.84,0,0,0,.57-1.56,5.3,5.3,0,0,0-.2-2.47,5.67,5.67,0,0,1-.24-1.2c.51-1.07.93-2.19,1.33-3.3.11-.29.2-.6.31-.89a4.15,4.15,0,0,0,.25.85,4.65,4.65,0,0,0,.44.86c.38.56.56,1,.92,1.54a5.61,5.61,0,0,1,.69,1.81,17.39,17.39,0,0,1,.2,2,11.81,11.81,0,0,0,0-2.06,6.55,6.55,0,0,0-1.16-2.88,7.07,7.07,0,0,1-1.2-2.65,18.67,18.67,0,0,1,1.82-3.83,3.29,3.29,0,0,0,.43,1.49,5.41,5.41,0,0,0,.55.8c.45.5.7.89,1.12,1.41a5.19,5.19,0,0,1,.91,1.82,18.4,18.4,0,0,1,.45,1.81,12.06,12.06,0,0,0-.18-2.07,6.71,6.71,0,0,0-1.52-2.7,6.72,6.72,0,0,1-1.58-2.67V1066a9.9,9.9,0,0,1,1-1.26,3.07,3.07,0,0,1,1.49-1h-.35a5.05,5.05,0,0,0-2.7,1.82,8.42,8.42,0,0,1-2.73.33,6.42,6.42,0,0,0-3.06.5,14.34,14.34,0,0,0-1.71,1.17c.47-.22,1.4-.69,1.82-.86a6,6,0,0,1,1.92-.4h1.81a3.94,3.94,0,0,0,1,0l.67-.18a11.12,11.12,0,0,0-1,1.49c-.15.25-.29.55-.44.85a7.87,7.87,0,0,1-2.74.71,6.67,6.67,0,0,0-3,.89,13.45,13.45,0,0,0-1.56,1.36c.4-.27,1.25-.85,1.65-1.07a5.86,5.86,0,0,1,1.82-.62,17.24,17.24,0,0,1,1.81-.23,6.17,6.17,0,0,0,1-.2,3.81,3.81,0,0,0,.85-.38,8.29,8.29,0,0,0-.31.83c-.34,1.11-.69,2-1,2.92a9.65,9.65,0,0,1-2.05.46,5.75,5.75,0,0,0-2.76.87,8.47,8.47,0,0,0-1.45,1.29c.36-.27,1.16-.82,1.52-1a5.31,5.31,0,0,1,1.82-.62,13.1,13.1,0,0,1,1.65-.23,5.45,5.45,0,0,0,.89-.2l.29-.11a2.27,2.27,0,0,0-.26.71,11.87,11.87,0,0,1-1,2.16,6.28,6.28,0,0,1-2,.83,5,5,0,0,0-2.21,1,8.75,8.75,0,0,0-1,1.23c.27-.25.87-.8,1.16-1a4,4,0,0,1,1.36-.69c.51-.13.85-.28,1.36-.38a4.52,4.52,0,0,0,.8-.22l.36-.2A8.54,8.54,0,0,1,605.62,1078Z" transform="translate(-66.89 -55.96)"/><path class="cls-8" d="M622,1062.9a4.86,4.86,0,0,0-4.24.87,9.18,9.18,0,0,0-3.63,6.68,12.87,12.87,0,0,0,.34,4.94,22.36,22.36,0,0,0,7.86,10.45c3.57,3,7.57,5.52,11.2,8.48a11.47,11.47,0,0,1-.33-2.06,30.44,30.44,0,0,1,1.82-11.1,20.63,20.63,0,0,0,.7-11.2,9.4,9.4,0,0,0-3.34-5,16.2,16.2,0,0,0-10.4-2" transform="translate(-66.89 -55.96)"/><path class="cls-12" d="M618.36,1075c.2-.64.65-2,.91-2.58a7.73,7.73,0,0,1,1.52-2.27c.71-.69,1.13-1.19,1.82-1.81a7.27,7.27,0,0,0,.87-1,4.19,4.19,0,0,0,.85-2.28,15.47,15.47,0,0,1,1.23,4.37h0a10.84,10.84,0,0,1-3,3.87,10.1,10.1,0,0,0-2.78,3.84,18.64,18.64,0,0,0-.62,3.13c.22-.71.73-2.22,1-2.85a8.92,8.92,0,0,1,1.67-2.49c.74-.73,1.18-1.27,1.94-2a6,6,0,0,0,1-1.12,6.37,6.37,0,0,0,.78-1.51,16.75,16.75,0,0,1,.22,3.3h0v.55a2.16,2.16,0,0,1,0,.36,8.65,8.65,0,0,1-1.6,3.1,7.69,7.69,0,0,0-1.56,3.27,12.13,12.13,0,0,0,0,2.41c.09-.75.21-1.5.37-2.25a6.69,6.69,0,0,1,.92-2.1c.47-.73.73-1.2,1.2-1.82a5.06,5.06,0,0,0,.58-1,1.47,1.47,0,0,0,.2-.51l.11,1.47h0c.08.86.2,1.72.36,2.56a14.12,14.12,0,0,1-.42,1.82,7.85,7.85,0,0,0-.38,3.63,13.44,13.44,0,0,0,.78,2.29,15.38,15.38,0,0,1-.41-2.26,6.74,6.74,0,0,1,.16-2.28c.22-.76.29-1.29.54-2h0a13.26,13.26,0,0,0,1,2.5,38.51,38.51,0,0,0,3.37,5.44,56.77,56.77,0,0,1-2.56-5.44,20.08,20.08,0,0,1-1.27-5.83V1076h.11a5.66,5.66,0,0,0,.93.52c.71.31,1.14.58,1.81.91a5.92,5.92,0,0,1,1.67,1.27,19.45,19.45,0,0,1,1.22,1.58,9.67,9.67,0,0,0-1-1.82,7,7,0,0,0-2.72-1.92,13.85,13.85,0,0,1-2-1.18,28.36,28.36,0,0,1-.12-3.28v-1.17a3.5,3.5,0,0,0,1.23.77,6.11,6.11,0,0,0,1,.27c.74.11,1.21.25,2,.4a5.46,5.46,0,0,1,1.94.78c.55.37,1.08.77,1.6,1.2a9.11,9.11,0,0,0-1.42-1.49,7.19,7.19,0,0,0-3.16-1.15,7.58,7.58,0,0,1-3.16-1.08h0c-.07-.46-.14-.93-.23-1.35a14.2,14.2,0,0,0-.93-3,4.6,4.6,0,0,0,.8.4,5.11,5.11,0,0,0,1,.27c.74.13,1.23.27,2,.4a5.84,5.84,0,0,1,2,.78c.38.25,1.21.89,1.58,1.2a9.55,9.55,0,0,0-1.42-1.49,7.4,7.4,0,0,0-3.14-1.14,8.19,8.19,0,0,1-3.07-1,5.72,5.72,0,0,0-2.12-2.32l-.4-.19a3.29,3.29,0,0,1,1.29,1.47,1.82,1.82,0,0,1-.11.46,9.52,9.52,0,0,1-2.58,3.48,9.21,9.21,0,0,0-2.52,3.52A15.15,15.15,0,0,0,618.36,1075Z" transform="translate(-66.89 -55.96)"/><path class="cls-13" d="M615.22,1062a3.65,3.65,0,0,1-2.36,2.06,6.63,6.63,0,0,1-5.44-.88,9.47,9.47,0,0,1-2.71-2.25,16.1,16.1,0,0,1-2.56-9.07c-.16-3.34.15-6.77,0-10.11.35.38.69.74,1.06,1.09a21.69,21.69,0,0,0,7.11,3.83,14.63,14.63,0,0,1,6.73,4.46,6.81,6.81,0,0,1,1.42,4.09,11.7,11.7,0,0,1-3.36,6.78" transform="translate(-66.89 -55.96)"/><path class="cls-12" d="M606.31,1049.38c-.53-.85-1.58-2.9-2-3.87a27.4,27.4,0,0,0,1.63,4.32,10.87,10.87,0,0,0,1.81,2.54h-.18c-.47,0-.78-.12-1.25-.12a4.33,4.33,0,0,1-1.32-.42,10.18,10.18,0,0,1-1.18-.74,6.59,6.59,0,0,0,1.1.94,4.65,4.65,0,0,0,2.13.58l1.07.16a28.92,28.92,0,0,0,2.36,2.09l.63.54a3.39,3.39,0,0,0-.78,0,3.85,3.85,0,0,0-.83.11c-.58.15-1,.19-1.56.31a5.06,5.06,0,0,1-1.82,0c-.4-.07-1.27-.29-1.69-.42a10.54,10.54,0,0,0,1.71.69,5.53,5.53,0,0,0,2.74-.12,6.79,6.79,0,0,1,2.58-.18,18.9,18.9,0,0,1,2.63,2.66,2.93,2.93,0,0,0-1.38,0,3.31,3.31,0,0,0-.82.22c-.56.22-1,.31-1.5.51a5.07,5.07,0,0,1-1.73.24c-.49,0-1.4-.2-1.81-.2a8.56,8.56,0,0,0,1.81.45,5.75,5.75,0,0,0,2.72-.45,6.32,6.32,0,0,1,2.71-.51h.13a7.29,7.29,0,0,1,.74,1.2,2.45,2.45,0,0,1,.36,1.54v-.31a4.48,4.48,0,0,0-.69-2.81,6.78,6.78,0,0,1,.55-2.36,6,6,0,0,0,.49-2.71,10.44,10.44,0,0,0-.46-1.81c.06.51.18,1.41.18,1.81a4.49,4.49,0,0,1-.25,1.82c-.2.56-.29,1-.53,1.5a4,4,0,0,0-.21.82,3.21,3.21,0,0,0,0,.62,11.74,11.74,0,0,0-1-1.25l-.58-.62a7.11,7.11,0,0,1,.24-2.51,5.9,5.9,0,0,0,.14-2.74,8.59,8.59,0,0,0-.67-1.7,9.41,9.41,0,0,1,.4,1.69,4.6,4.6,0,0,1,0,1.81c-.13.58-.18,1-.33,1.54a5,5,0,0,0-.12.86,3.66,3.66,0,0,0,0,.81,7.34,7.34,0,0,0-.6-.51c-.82-.67-1.42-1.21-2.12-1.81a8.67,8.67,0,0,1,.25-1.82,5.63,5.63,0,0,0,.11-2.55,9,9,0,0,0-.66-1.6,8.52,8.52,0,0,1,.4,1.58,5,5,0,0,1,0,1.63c-.12.55-.16.93-.29,1.45a3.09,3.09,0,0,0-.11.8v.27a5.4,5.4,0,0,0-.52-.43,12.33,12.33,0,0,1-1.49-1.49,5.63,5.63,0,0,1,0-1.92,4.52,4.52,0,0,0-.2-2.16,7.13,7.13,0,0,0-.71-1.26,5.43,5.43,0,0,1,.49,1.27,4,4,0,0,1,.18,1.37,5.67,5.67,0,0,0-.09,1.23c0,.22,0,.45,0,.67v.36A4.12,4.12,0,0,1,606.31,1049.38Z" transform="translate(-66.89 -55.96)"/><path class="cls-8" d="M620.43,1063.23a4.26,4.26,0,0,0,2.36,2.9,8,8,0,0,0,6.57,0,11,11,0,0,0,3.63-2.25,19.41,19.41,0,0,0,4.86-10.2c.84-3.94,1.16-8.06,2-12a16.39,16.39,0,0,1-1.45,1.07,26.37,26.37,0,0,1-9.21,3.11,17.77,17.77,0,0,0-8.83,3.88,8.11,8.11,0,0,0-2.51,4.63,14,14,0,0,0,2.6,8.8" transform="translate(-66.89 -55.96)"/><path class="cls-12" d="M633.48,1050.27c.78-.89,2.43-3.1,3.17-4.16a31.94,31.94,0,0,1-3,4.88,12.66,12.66,0,0,1-2.65,2.67h.22a8.51,8.51,0,0,0,1.52.09,4.85,4.85,0,0,0,1.65-.23c.36-.11,1.16-.46,1.54-.62a9.18,9.18,0,0,1-1.52.87,5.36,5.36,0,0,1-2.63.27h-1.29a37.13,37.13,0,0,1-3.23,2l-.85.51a4.71,4.71,0,0,1,.92,0,3.69,3.69,0,0,1,1,.29c.67.29,1.14.41,1.82.69a6.76,6.76,0,0,0,2.05.38c.47,0,1.58-.17,2.08-.17a11.26,11.26,0,0,1-2.16.48,6.85,6.85,0,0,1-3.23-.69,7.86,7.86,0,0,0-3-.75,21.39,21.39,0,0,0-3.63,2.63,3.55,3.55,0,0,1,1.65.2,4.23,4.23,0,0,1,1,.42c.6.36,1,.55,1.67.91a6.58,6.58,0,0,0,2,.62,20.89,20.89,0,0,0,2.09.1,9.54,9.54,0,0,1-2.2.2,6.91,6.91,0,0,1-3.1-1.09,7.74,7.74,0,0,0-3.12-1.14H622a12.26,12.26,0,0,0-1.12,1.27,3,3,0,0,0-.76,1.82v-.38a5.23,5.23,0,0,1,1.38-3.18,8.68,8.68,0,0,0-.19-2.92,7.12,7.12,0,0,1,0-3.31,11.28,11.28,0,0,1,.89-2c-.16.49-.47,1.54-.58,2a6.11,6.11,0,0,0,0,2.09c.13.62.17,1.11.31,1.82a4.88,4.88,0,0,1,.11,1v.75a12,12,0,0,1,1.38-1.29c.25-.2.53-.42.82-.62a8.25,8.25,0,0,0,.23-3,7.21,7.21,0,0,1,.36-3.29,10.66,10.66,0,0,1,1.15-1.81c-.22.45-.67,1.47-.82,1.92a6.62,6.62,0,0,0-.31,2.07,13.57,13.57,0,0,1,.09,1.91,3.42,3.42,0,0,1,0,1,3.61,3.61,0,0,1-.23,1q.43-.29.81-.48c1.06-.58,1.93-1.1,2.87-1.67a10.21,10.21,0,0,0,0-2.21,6.82,6.82,0,0,1,.38-3.07,12.78,12.78,0,0,1,1.09-1.81c-.22.45-.63,1.4-.78,1.81a5.74,5.74,0,0,0-.31,1.93v1.81a5.13,5.13,0,0,1,0,1,1.82,1.82,0,0,1,0,.33l.71-.42a12,12,0,0,0,2.07-1.47,6.33,6.33,0,0,0,.49-2.27,5.49,5.49,0,0,1,.67-2.5,8.75,8.75,0,0,1,1.09-1.34c-.22.34-.67,1.07-.85,1.41a5,5,0,0,0-.47,1.56c0,.57-.15,1-.15,1.51a4.26,4.26,0,0,1-.14.78c-.05.14-.09.28-.15.42A17.89,17.89,0,0,0,633.48,1050.27Z" transform="translate(-66.89 -55.96)"/><path class="cls-8" d="M619.07,1059.11a2.5,2.5,0,0,1,1.07,2.43,6,6,0,0,1-3.07,4.06,11.53,11.53,0,0,1-3.41,1.49,21.51,21.51,0,0,1-10-.43c-3.36-.8-6.63-2-10-2.8l1.49-.52a24.58,24.58,0,0,0,6.68-4.65,17.63,17.63,0,0,1,7.26-4.14,9,9,0,0,1,4.61,0,10.22,10.22,0,0,1,5.44,4.56" transform="translate(-66.89 -55.96)"/><path class="cls-12" d="M597.27,1063.75a25.17,25.17,0,0,0,5.19.51,16.5,16.5,0,0,0,7.44-2.61l1.44-.76a3.85,3.85,0,0,0-.39.69c-.27.61-.5,1-.79,1.61a5.64,5.64,0,0,1-1.18,1.56,16.63,16.63,0,0,1-1.55,1.22,10.57,10.57,0,0,0,1.82-1,6.48,6.48,0,0,0,1.81-2.54,10.45,10.45,0,0,1,1.11-1.81,15.65,15.65,0,0,1,3.63-1.33,3.8,3.8,0,0,0-.74,1,4.18,4.18,0,0,0-.4.89c-.18.64-.38,1.06-.6,1.69a5.55,5.55,0,0,1-1,1.69c-.29.34-1,1.07-1.38,1.4a11.25,11.25,0,0,0,1.65-1.26,6.43,6.43,0,0,0,1.49-2.72,6.79,6.79,0,0,1,1.43-2.72,8.39,8.39,0,0,1,1.11-.13,2.51,2.51,0,0,1,1.82.44l-.28-.24a4.16,4.16,0,0,0-2.81-.8,8.68,8.68,0,0,1-1.51-1,5.49,5.49,0,0,0-2.3-1.27,9.26,9.26,0,0,0-1.82-.16c.4.09,1.26.27,1.62.38a4.67,4.67,0,0,1,1.49.76c.43.36.76.58,1.18.94a3.1,3.1,0,0,0,.65.44,11.81,11.81,0,0,0-2.12.47l-.37.13a8.88,8.88,0,0,1-2.43-.94,6.35,6.35,0,0,0-3-1,11.94,11.94,0,0,0-2,.24h2a5.47,5.47,0,0,1,1.82.54c.58.31,1,.47,1.6.8a4.67,4.67,0,0,0,.89.38l.49.11a8.18,8.18,0,0,0-1.26.62c-.9.54-1.65.91-2.45,1.3a10.52,10.52,0,0,1-2-.59,6.34,6.34,0,0,0-3-.64,10.63,10.63,0,0,0-2,.45c.47-.05,1.49-.16,1.94-.16a5.59,5.59,0,0,1,1.94.35c.62.25,1.05.36,1.67.63a4.33,4.33,0,0,0,.87.25l-1,.53a14.05,14.05,0,0,1-4.73,1.45C601.1,1063.61,598.49,1063.68,597.27,1063.75Z" transform="translate(-66.89 -55.96)"/><path class="cls-13" d="M621.84,1060.67a1.91,1.91,0,0,0-1.41,1.45,4.6,4.6,0,0,0,1.12,3.74,9.08,9.08,0,0,0,2.05,2,16.45,16.45,0,0,0,7.26,2.34c2.64.31,5.29.33,7.9.63-.31-.25-.64-.5-.93-.78a19,19,0,0,1-3.63-5.1,13.08,13.08,0,0,0-4-4.86,6.85,6.85,0,0,0-3.32-1.23,7.86,7.86,0,0,0-5.08,1.81" transform="translate(-66.89 -55.96)"/><path class="cls-12" d="M636.34,1069.63a22.59,22.59,0,0,1-3.88-1,12.64,12.64,0,0,1-4.65-3.78l-.83-.92a2,2,0,0,1,0,.6c0,.5.15.85.15,1.36a4.82,4.82,0,0,0,.43,1.43c.16.31.58,1,.78,1.29a9,9,0,0,1-1-1.22,5,5,0,0,1-.61-2.3,7.61,7.61,0,0,0-.29-1.65,13.62,13.62,0,0,0-2.25-1.91,3.4,3.4,0,0,1,.27.89,4.57,4.57,0,0,1,0,.74v1.38a4.33,4.33,0,0,0,.25,1.47c.13.33.47,1,.64,1.36a7.67,7.67,0,0,1-.86-1.32,5,5,0,0,1-.34-2.36,5.65,5.65,0,0,0-.31-2.34l-.76-.36a2,2,0,0,0-1.38-.17H622a3.13,3.13,0,0,1,2.23.17,7.75,7.75,0,0,0,1.36-.35,4.19,4.19,0,0,1,2.07-.27,7,7,0,0,1,1.29.34,11.26,11.26,0,0,0-1.25-.16,3.89,3.89,0,0,0-1.27.16c-.4.15-.69.2-1.11.37a3.53,3.53,0,0,1-.56.14,9,9,0,0,1,1.38.89l.23.2a6.7,6.7,0,0,0,2,0,5,5,0,0,1,2.38.11,8.09,8.09,0,0,1,1.41.71,6.06,6.06,0,0,0-1.43-.49,4.4,4.4,0,0,0-1.49-.11c-.51.07-.87.07-1.36.16a4.57,4.57,0,0,1-.74,0h-.38c.26.25.51.51.74.78.45.55.92,1.08,1.42,1.58a8.08,8.08,0,0,0,1.56.09,4.82,4.82,0,0,1,2.34.35,7.62,7.62,0,0,1,1.32.85c-.32-.16-1-.51-1.36-.62a4.12,4.12,0,0,0-1.47-.27H629.9a4,4,0,0,1-.69,0l.56.64a11.44,11.44,0,0,0,3.05,2.21A19.72,19.72,0,0,0,636.34,1069.63Z" transform="translate(-66.89 -55.96)"/><path class="cls-11" d="M622.82,1010.38a1.59,1.59,0,0,1-.38-.07,1.83,1.83,0,0,1-1.23-2.26,43.5,43.5,0,0,0,3-11.88,16.79,16.79,0,0,0-2.58-10.89,1.77,1.77,0,0,1-.16-.22,1.72,1.72,0,1,1,2.92-1.83,20.32,20.32,0,0,1,3.27,13.26,46.86,46.86,0,0,1-3.18,12.83,1.82,1.82,0,0,1-1.62,1.13Z" transform="translate(-66.89 -55.96)"/><path class="cls-4" d="M684.71,1047a1.18,1.18,0,0,1-.28-.77,1.19,1.19,0,0,1,1.19-1.17H772v22.67H701.48Z" transform="translate(-66.89 -55.96)"/><path class="cls-4" d="M772,1067.2v9.57H702a4.78,4.78,0,0,1-4.76-4.8h0a4.78,4.78,0,0,1,4.78-4.77Z" transform="translate(-66.89 -55.96)"/><g class="cls-17"><path class="cls-6" d="M852.61,1055.08a12.69,12.69,0,0,0-10.49,5.44,12.82,12.82,0,0,0-21,0c-.29-.4-.59-.8-.92-1.18a12.77,12.77,0,0,0-20,1.11c-.29-.4-.6-.79-.92-1.16a12.72,12.72,0,0,0-9.57-4.36,13,13,0,0,0-2.41.26h-.2l-1.11.43h-.16a13,13,0,0,0-4.14,2.23h-.11l-.78.73-.18.16c-.24.26-.49.51-.71.78v.1a7.21,7.21,0,0,0-.62.81,12.71,12.71,0,0,0-21,0,12.7,12.7,0,0,0-21,0,12.7,12.7,0,0,0-21,0,12.94,12.94,0,0,0-3.3-3.3,12.71,12.71,0,0,0-17.66,3.3,12.7,12.7,0,0,0-10.49-5.44v12.7H852.66Z" transform="translate(-66.89 -55.96)"/></g></svg>