<svg id="Layer_1" data-name="Layer 1" xmlns="http://www.w3.org/2000/svg" viewBox="0 0 315.87 226.31"><defs><style>.cls-1{fill:#c95643;}.cls-2{fill:#b7d47f;}.cls-3{fill:#e97358;}</style></defs><path class="cls-1" d="M127.33,133c-5.8-6.42-20.89-12.66-30.74-11.56-7.42.83-14.29,4.4-19.91,8.82-11.43,9-18.2,21.3-24.12,33.38S41.09,188.23,31.3,198.51c-1.77,1.85-3.66,3.62-5.55,5.39,15.78-2.53,31.78-3.05,47.56-5.57S105.14,191,117,181.47a59.39,59.39,0,0,0,12.31-13.6c5.15-7.79,8.45-16.81,6.53-25.23-1-4.2-3.69-8.47-8.55-9.6" transform="translate(0 0)"/><path class="cls-1" d="M187.1,140c5.33-6.81,20-14.11,29.85-13.71,7.45.31,14.56,3.38,20.48,7.39,12,8.16,19.67,20,26.43,31.58S277,189,287.53,198.52c1.9,1.72,3.91,3.35,5.92,5-15.92-1.41-31.91-.79-47.83-2.18s-32.27-5-44.82-13.72a59.27,59.27,0,0,1-13.24-12.69c-5.69-7.4-9.62-16.17-8.3-24.7.66-4.26,3.08-8.72,7.84-10.19" transform="translate(0 0)"/><path class="cls-1" d="M155.37,125.69c5.44-11.19,7.43-33.81,2.72-45.34a40.39,40.39,0,0,0-17.16-19.21C126.51,52.57,109.88,51.83,93.8,52S61.29,53.07,46,47.33c-2.77-1-5.48-2.29-8.18-3.53,8.42,18,14.59,37.52,23,55.53s19.56,34.94,34.79,43.76a55.25,55.25,0,0,0,20.06,6.79c10.84,1.55,22.46,0,31.57-7.61,4.54-3.8,8.55-9.85,8.18-16.58" transform="translate(0 0)"/><path class="cls-2" d="M86.56,83.62c-.41-.6-.8-1.21-1.14-1.82a18.66,18.66,0,0,1-1.56-3.68c-.75-2.65-1.55-4.39-2.39-7a23.43,23.43,0,0,0-4-7c-1.19-1.42-4.21-4.45-5.65-5.82a45,45,0,0,1,6.76,5.23c3.12,3,4.63,7.25,6,11.35,1.22,3.64,2.49,7.4,4.87,10.36A63.9,63.9,0,0,0,101,90c1.35.39,2.61.78,3.84,1.16q-.34-.73-.63-1.47A21.73,21.73,0,0,1,103,85.08c-.48-3.26-1.14-5.43-1.72-8.68a27.7,27.7,0,0,0-3.65-9c-1.17-1.87-4.26-5.92-5.74-7.77A53.92,53.92,0,0,1,99,66.93c3.21,4,4.32,9.29,5.29,14.34a50.11,50.11,0,0,0,2.89,10.61c5.16,1.66,9.69,3.28,15.63,4.8,1.41.36,2.93.87,4.47,1.42a22.28,22.28,0,0,1-2.18-4.37,23.93,23.93,0,0,1-1.29-4.92c-.47-3.49-1.15-5.82-1.72-9.29a29.79,29.79,0,0,0-3.79-9.62c-1.23-2-4.48-6.39-6-8.38a57.8,57.8,0,0,1,7.56,7.84c3.38,4.34,4.5,10,5.47,15.4.89,4.94,1.84,10,4.46,14.29,1.61.66,3.2,1.36,4.62,2.07a70.15,70.15,0,0,1,8.06,4.66,27,27,0,0,1-1.12-3.48,23.86,23.86,0,0,1-.67-5c0-3.52-.43-5.92-.56-9.44a29.64,29.64,0,0,0-2.57-10c-1-2.15-3.65-6.89-5-9.06a57.21,57.21,0,0,1,6.53,8.71c2.82,4.73,3.23,10.46,3.53,16,.27,4.83.55,9.83,2.42,14.24,4.81,3.72,8.76,8.28,10.19,13.78l.37,1.83c-.66-3-3.1-5.55-5.58-7.61a57.17,57.17,0,0,0-6.84-4.87c-.26.06-.51.11-.75.18-5.3,1.5-9.59,5.3-13.7,9s-8.47,7.4-13.82,8.73a57,57,0,0,1-10.78,1.5c2.46-.6,7.71-2,9.93-2.86a29.76,29.76,0,0,0,8.91-5.22c2.59-2.38,4.57-3.8,7.09-6.25a23.29,23.29,0,0,1,4.06-3.07,17.42,17.42,0,0,1,7.74-2.76,104.73,104.73,0,0,0-20.57-8.62c-5,1-9.46,4-13.72,7-4.54,3.11-9.34,6.28-14.8,6.93a57.44,57.44,0,0,1-10.89.13c2.51-.29,7.91-1.05,10.2-1.59a30.11,30.11,0,0,0,9.51-4.06c2.87-2,5-3.19,7.82-5.31a23.82,23.82,0,0,1,4.41-2.54,23.32,23.32,0,0,1,4.41-1.48L113.5,99a186.78,186.78,0,0,1-17.79-6.1,63,63,0,0,0-6.18,1.6c-4.22,1.25-8.64,2.48-13,1.63a45.18,45.18,0,0,1-8.31-2.57c2,.4,6.27,1.15,8.15,1.3a24,24,0,0,0,8.23-.76c2.68-.84,4.59-1.19,7.25-2.12q.48-.17,1-.3a63.07,63.07,0,0,1-15.73-9.89C72.34,77.5,62.06,67.13,58.34,61.89c4.76,4.21,15.19,13,20,16.5C80.53,80,83.4,81.82,86.56,83.62Z" transform="translate(0 0)"/><path class="cls-3" d="M176.59,138.54c1.83-11,12.72-27.45,22.85-32.14,7.63-3.53,16.34-3.54,24.34-1.79,16.27,3.56,30,13.8,42.74,24.3s25.42,21.69,40.85,27.74c2.79,1.09,5.64,2,8.5,2.91-16.68,6.62-32.39,15.73-49.06,22.38s-34.94,10.79-52,6.87a64.78,64.78,0,0,1-19.79-8.4c-9.53-6-18-14.48-21.05-25.47-1.53-5.49-1.4-12.13,2.62-16.4" transform="translate(0 0)"/><path class="cls-2" d="M208.29,166.63c-4.82-4.22-7.6-10-10.16-15.61s-5.24-11.4-9.94-15.74A12.86,12.86,0,0,0,186.6,134c-2.8-.11-5.65.15-7.6,1.56l1.31-1c3.3-2.18,7.54-2.95,12.08-2.87,3.48-1.77,6-5.26,8.36-8.65s5.16-7.16,8.94-8.69a35,35,0,0,1,7.82-2c-1.74.7-5.44,2.31-7,3.19a19.32,19.32,0,0,0-5.83,5.25c-1.56,2.29-2.82,3.68-4.31,6a16.11,16.11,0,0,1-2.55,3,14.52,14.52,0,0,1-2.7,2,68.37,68.37,0,0,1,13.05,2.58c1.75.51,3.66,1.15,5.56,1.86l.34-.13c3.72-1.68,6.32-5.36,8.81-8.89s5.16-7.16,8.94-8.69a35.07,35.07,0,0,1,7.81-2,76.37,76.37,0,0,0-6.95,3.19,19.23,19.23,0,0,0-5.84,5.25c-1.56,2.29-2.81,3.68-4.31,6a16.39,16.39,0,0,1-2.54,3,11.51,11.51,0,0,1-4.74,2.85c1.63.65,3.22,1.34,4.62,2,4.8,2.42,8.81,4.12,13,5.95a39.79,39.79,0,0,0,7.48-4.75c3.51-2.61,7.21-5.26,11.45-5.69a39.06,39.06,0,0,1,8.44.14c-1.95.19-6.13.73-7.91,1.15a20.86,20.86,0,0,0-7.35,3.32c-2.21,1.71-3.87,2.67-6,4.45a16.9,16.9,0,0,1-3.4,2.11c-.16.08-.33.14-.5.21,1.88.83,3.82,1.7,5.93,2.7,7.79,3.69,18.14,6,24.56,6.88,5.74.78,19,1.59,25.1,1.84-5.88,1.11-19.83,1.43-26,1.16a61.38,61.38,0,0,1-11.09-1.59h0c2.56,2.29,4.53,3.62,7.16,5.84a34,34,0,0,0,8.72,5c2.12.83,7.09,2.33,9.41,3a59.05,59.05,0,0,1-10.06-1.8c-5-1.42-9.43-4.92-13.59-8.34-2.08-1.71-4.2-3.46-6.43-5-3.53-1-7-2.32-10.48-3.71h0q-3-1.22-5.92-2.51c.6.56,1.19,1.13,1.72,1.71a26.32,26.32,0,0,1,3,3.89c1.74,2.87,3.22,4.7,5,7.53a34.1,34.1,0,0,0,6.9,7.31c1.81,1.43,6.23,4.39,8.31,5.72a64.37,64.37,0,0,1-9.37-4.91c-4.52-2.91-7.64-7.45-10.56-11.84-2.79-4.2-5.7-8.55-9.83-11.57l-1.48-.67-2.14-1-.33,0,.23,0c-4.36-2-8.78-4-13.27-5.7a34.34,34.34,0,0,1,7.82,11.2c1.63,4,3.15,6.58,4.89,10.52a42.79,42.79,0,0,0,7.4,10.67c2.06,2.19,7.21,6.87,9.65,9a87.24,87.24,0,0,1-11.26-8.2c-5.29-4.63-8.35-11-11.16-17.15S212.19,143.27,207,138.5l-.13-.11a74.12,74.12,0,0,0-18.79-4.26c3.11,1.5,5.73,4.54,7.71,7.45a29.17,29.17,0,0,1,2.76,5c1.48,3.61,2.87,6,4.45,9.58a39.09,39.09,0,0,0,6.73,9.71c1.88,2,6.57,6.25,8.79,8.18A79.07,79.07,0,0,1,208.29,166.63Z" transform="translate(0 0)"/><path class="cls-3" d="M139.28,134.17c-1.83-11-12.73-27.45-22.86-32.14-7.62-3.54-16.34-3.55-24.33-1.8-16.27,3.56-30,13.8-42.75,24.3S23.93,146.22,8.49,152.27c-2.78,1.09-5.64,2-8.49,2.92,16.68,6.62,32.39,15.73,49.06,22.37s34.94,10.8,52,6.88a64.94,64.94,0,0,0,19.8-8.4c9.52-6,18-14.49,21-25.47,1.54-5.49,1.41-12.13-2.61-16.4" transform="translate(0 0)"/><path class="cls-2" d="M107.58,162.25c4.82-4.21,7.59-10,10.16-15.61s5.24-11.4,9.94-15.74a11.3,11.3,0,0,1,1.59-1.24c2.8-.11,5.65.15,7.59,1.55l-1.3-1c-3.3-2.19-7.55-2.95-12.09-2.88-3.47-1.76-6-5.26-8.36-8.64-2.49-3.54-5.16-7.16-8.93-8.69a34.1,34.1,0,0,0-7.82-2,73.94,73.94,0,0,1,7,3.19,19.28,19.28,0,0,1,5.83,5.24c1.56,2.3,2.82,3.69,4.31,6a16.12,16.12,0,0,0,2.55,3,14.73,14.73,0,0,0,2.69,2,68.29,68.29,0,0,0-13,2.59c-1.75.5-3.67,1.14-5.56,1.85l-.34-.13c-3.72-1.68-6.32-5.35-8.81-8.88s-5.16-7.16-8.94-8.69a34,34,0,0,0-7.82-2,73.94,73.94,0,0,1,7,3.19A19.28,19.28,0,0,1,89,120.62c1.56,2.29,2.82,3.68,4.31,6a16.51,16.51,0,0,0,2.55,3,11.62,11.62,0,0,0,4.74,2.85c-1.63.65-3.22,1.33-4.62,2-4.81,2.41-8.81,4.11-13,5.94a40.51,40.51,0,0,1-7.47-4.74c-3.51-2.61-7.21-5.26-11.45-5.7a39.69,39.69,0,0,0-8.44.15c1.94.19,6.12.72,7.9,1.14a21,21,0,0,1,7.35,3.33c2.22,1.71,3.88,2.66,6,4.45a17.25,17.25,0,0,0,3.41,2.11l.49.21c-1.87.82-3.81,1.69-5.92,2.69-7.79,3.69-18.15,6-24.56,6.88-5.74.79-19,1.6-25.1,1.85C31,154,45,154.29,51.21,154a60.51,60.51,0,0,0,11.09-1.59l0,0c-2.57,2.28-4.53,3.62-7.16,5.84a34.07,34.07,0,0,1-8.73,5c-2.11.83-7.09,2.33-9.4,3a59.15,59.15,0,0,0,10-1.81c5.05-1.41,9.44-4.92,13.59-8.33,2.08-1.72,4.21-3.46,6.44-5,3.53-1,7-2.32,10.48-3.72l0,0,0,0q3-1.2,5.92-2.51c-.61.56-1.19,1.14-1.73,1.72a26.64,26.64,0,0,0-3,3.89c-1.74,2.86-3.22,4.69-5,7.52a34.08,34.08,0,0,1-6.89,7.31c-1.81,1.43-6.23,4.39-8.31,5.72a64.31,64.31,0,0,0,9.37-4.9c4.52-2.91,7.64-7.45,10.55-11.85,2.79-4.19,5.71-8.54,9.84-11.56l1.48-.68,2.14-1c.11,0,.22,0,.33,0l-.23,0c4.36-2,8.78-4,13.27-5.7a31.6,31.6,0,0,0-4.79,5.66,32.51,32.51,0,0,0-3,5.53c-1.62,4-3.14,6.59-4.88,10.53a43.06,43.06,0,0,1-7.4,10.67c-2.06,2.19-7.22,6.86-9.66,9a85.66,85.66,0,0,0,11.27-8.19c5.29-4.64,8.34-11,11.16-17.15s5.75-12.53,10.92-17.3L109,134a74,74,0,0,1,18.79-4.25c-3.11,1.5-5.73,4.54-7.71,7.45a29.09,29.09,0,0,0-2.76,5c-1.48,3.62-2.87,6-4.45,9.59a39,39,0,0,1-6.74,9.71c-1.87,2-6.56,6.25-8.79,8.18A78.57,78.57,0,0,0,107.58,162.25Z" transform="translate(0 0)"/><path class="cls-1" d="M185,119.56c-10.2-5.19-30.95-7.38-41.63-3.25a37.1,37.1,0,0,0-17.93,15.46c-8.12,13.12-9.07,28.4-9.17,43.18s.45,29.89-5.08,43.89c-1,2.53-2.19,5-3.38,7.47,16.68-7.45,34.73-12.8,51.42-20.23s32.44-17.41,40.8-31.27a51,51,0,0,0,6.57-18.33c1.59-9.93.38-20.64-6.48-29.13-3.43-4.25-8.92-8-15.12-7.79" transform="translate(0 0)"/><path class="cls-2" d="M145.22,182.11a16.49,16.49,0,0,1-1.69,1,17.31,17.31,0,0,1-3.4,1.38c-2.46.65-4.07,1.35-6.5,2.08a21.43,21.43,0,0,0-6.54,3.59c-1.33,1.06-4.16,3.79-5.44,5.09a40.73,40.73,0,0,1,4.91-6.13c2.81-2.82,6.74-4.13,10.53-5.33,3.36-1.06,6.85-2.16,9.61-4.31a59.05,59.05,0,0,0,4.61-10.58c.38-1.23.75-2.39,1.12-3.51-.45.2-.91.39-1.36.56a20,20,0,0,1-4.24,1.09c-3,.38-5,1-8,1.43a26,26,0,0,0-8.29,3.21c-1.74,1.05-5.51,3.83-7.23,5.16a48.13,48.13,0,0,1,6.77-6.46c3.76-2.89,8.61-3.83,13.27-4.64a45.73,45.73,0,0,0,9.8-2.48c1.61-4.71,3.17-8.85,4.67-14.29.36-1.29.84-2.68,1.38-4.08a21.44,21.44,0,0,1-4,1.93A22.23,22.23,0,0,1,150.6,148c-3.21.37-5.37,1-8.57,1.43a27.22,27.22,0,0,0-8.9,3.32c-1.87,1.09-5.94,4-7.8,5.41a52.59,52.59,0,0,1,7.33-6.81c4.05-3,9.25-4,14.24-4.79,4.56-.73,9.27-1.52,13.21-3.86.63-1.47,1.3-2.92,2-4.22a64.45,64.45,0,0,1,4.41-7.33,22.66,22.66,0,0,1-3.21,1,20.87,20.87,0,0,1-4.65.54c-3.23,0-5.45.3-8.68.36a27.57,27.57,0,0,0-9.25,2.2c-2,.85-6.39,3.25-8.4,4.41a52.12,52.12,0,0,1,8.11-5.86c4.39-2.51,9.67-2.8,14.73-3,4.44-.16,9-.33,13.13-2,3.49-4.36,7.75-7.92,12.83-9.15l1.68-.31c-2.77.56-5.14,2.76-7.08,5a51.43,51.43,0,0,0-4.58,6.21c0,.23.09.47.15.69,1.29,4.9,4.71,8.9,8,12.74s6.66,7.91,7.8,12.84a52.94,52.94,0,0,1,1.2,9.94c-.52-2.27-1.74-7.13-2.47-9.17a27.36,27.36,0,0,0-4.66-8.28c-2.14-2.42-3.41-4.27-5.62-6.63a21.35,21.35,0,0,1-2.76-3.77,15.92,15.92,0,0,1-2.4-7.16,95.6,95.6,0,0,0-8.26,18.76c.87,4.64,3.56,8.76,6.17,12.73,2.79,4.22,5.62,8.69,6.12,13.72a53.13,53.13,0,0,1,0,10c-.23-2.32-.83-7.29-1.3-9.41a27.22,27.22,0,0,0-3.58-8.8c-1.82-2.67-2.85-4.66-4.75-7.27a22.12,22.12,0,0,1-2.26-4.1,21.54,21.54,0,0,1-1.29-4.08c-.48,1.45-1,2.9-1.41,4.34a171.07,171.07,0,0,1-5.9,16.25,55.65,55.65,0,0,0,1.38,5.7c1.08,3.9,2.14,8,1.28,11.94a41,41,0,0,1-2.5,7.6c.4-1.82,1.16-5.74,1.33-7.47a22,22,0,0,0-.56-7.57c-.74-2.48-1-4.25-1.83-6.71-.1-.29-.19-.61-.27-.94a57.75,57.75,0,0,1-9.34,14.3c-4,4.38-13.69,13.65-18.57,17,4-4.3,12.24-13.75,15.49-18.1A84.89,84.89,0,0,0,145.22,182.11Z" transform="translate(0 0)"/><path class="cls-1" d="M171.69,111.4c-3.54-7.89-3.17-24.22,1.8-32.79,3.74-6.45,9.78-11.31,16.09-14.67,12.83-6.84,26.82-8.09,40.26-8.65s27.1-.61,40.44-5.44c2.41-.87,4.79-1.89,7.17-2.91-8.67,13.42-15.59,27.86-24.24,41.29s-19.5,26.2-33,33.25a59.22,59.22,0,0,1-17.4,5.79c-9.21,1.58-18.79,1-25.72-4.18-3.47-2.57-6.28-6.79-5.36-11.69" transform="translate(0 0)"/><path class="cls-3" d="M155.39,121.42c-9.54-5.8-20.73-22-21.32-33.18-.43-8.39,2.8-16.48,7.4-23.25,9.37-13.77,24-22.68,38.48-30.62s29.59-15.5,41-27.57c2.05-2.18,4-4.49,5.87-6.8-.07,17.94,2.53,35.92,2.49,53.86s-3,36.45-13,50.81a65,65,0,0,1-15.17,15.25C192,126.54,181,131.2,169.63,130c-5.66-.62-11.77-3.22-14.24-8.54" transform="translate(0 0)"/><path class="cls-2" d="M193.26,102.47c-5.71,2.9-12.13,3.31-18.27,3.61s-12.53.61-18.31,3.36a13.24,13.24,0,0,0-1.75,1c-1.14,2.56-2,5.3-1.38,7.63l-.43-1.58c-.8-3.87.07-8.09,1.83-12.28-.34-3.88-2.66-7.5-4.91-11s-4.72-7.46-4.73-11.53a34.42,34.42,0,0,1,1-8,73.59,73.59,0,0,0,.36,7.65,19.44,19.44,0,0,0,2.7,7.36c1.55,2.3,2.37,4,4,6.25a16.61,16.61,0,0,1,1.84,3.48,15.12,15.12,0,0,1,.86,3.25,69.41,69.41,0,0,1,7.26-11.14c1.12-1.44,2.43-3,3.8-4.47,0-.12,0-.24,0-.36-.17-4.08-2.61-7.86-5-11.49s-4.72-7.45-4.74-11.53a35,35,0,0,1,1-8,76.42,76.42,0,0,0,.37,7.65,19.24,19.24,0,0,0,2.69,7.36c1.55,2.3,2.37,4,4,6.25a16.16,16.16,0,0,1,1.84,3.48,11.46,11.46,0,0,1,.88,5.47c1.21-1.27,2.44-2.5,3.62-3.54,4-3.55,7.1-6.64,10.37-9.88a39.6,39.6,0,0,0-1.61-8.71c-1.12-4.23-2.2-8.65-1-12.75a40.23,40.23,0,0,1,3.28-7.78c-.54,1.88-1.61,6-1.88,7.77a21,21,0,0,0,.35,8.06c.76,2.69,1,4.58,1.88,7.26a17.32,17.32,0,0,1,.69,4c0,.17,0,.36,0,.53,1.46-1.43,3-2.91,4.71-4.49C195,59.46,201,50.72,204.19,45.09c2.87-5,8.55-17,11.06-22.6-1.16,5.86-6.06,18.92-8.63,24.59A59.85,59.85,0,0,1,201,56.79h0c3.07-1.53,5.05-2.86,8.08-4.47A34.08,34.08,0,0,0,217,46.08c1.56-1.65,4.8-5.71,6.26-7.63a58.19,58.19,0,0,1-5.42,8.67c-3.19,4.15-8.08,6.92-12.8,9.5-2.36,1.3-4.77,2.62-7,4.12-2.29,2.89-4.77,5.66-7.35,8.34,0,0,0,0,0,0v0q-2.24,2.32-4.54,4.56c.75-.35,1.5-.68,2.24-1a25.72,25.72,0,0,1,4.72-1.32c3.31-.55,5.56-1.24,8.86-1.88a33.73,33.73,0,0,0,9.36-3.68c2-1.14,6.39-4.14,8.4-5.58a65.53,65.53,0,0,1-8,6.88c-4.39,3.11-9.77,4.31-14.93,5.38-4.93,1-10.05,2.11-14.4,4.82l-1.17,1.12-1.71,1.62a2.75,2.75,0,0,0-.14.3l.06-.22c-3.47,3.3-6.94,6.67-10.23,10.19a31.46,31.46,0,0,1,7-2.34,32.83,32.83,0,0,1,6.26-.76c4.29,0,7.29-.46,11.59-.61a42.55,42.55,0,0,0,12.66-2.89c2.8-1.1,9.06-4.14,11.94-5.62a85.09,85.09,0,0,1-11.81,7.4c-6.27,3.19-13.32,3.65-20.07,4s-13.76.67-20.12,3.69l-.15.08a74.59,74.59,0,0,0-10.95,15.85c2.56-2.33,6.36-3.63,9.79-4.38a29.38,29.38,0,0,1,5.7-.69c3.91,0,6.63-.42,10.55-.56a38.8,38.8,0,0,0,11.52-2.63c2.55-1,8.25-3.77,10.87-5.11A79.85,79.85,0,0,1,193.26,102.47Z" transform="translate(0 0)"/></svg>