<svg id="Layer_1" data-name="Layer 1" xmlns="http://www.w3.org/2000/svg" viewBox="0 0 315.87 226.31"><defs><style>.cls-1{fill:#c95643;}.cls-2{fill:#b7d47f;}.cls-3{fill:#e97358;}</style></defs><path class="cls-1" d="M188.54,133c5.79-6.42,20.89-12.66,30.74-11.56,7.41.83,14.29,4.4,19.91,8.82,11.43,9,18.2,21.3,24.12,33.38s11.47,24.55,21.26,34.83c1.76,1.85,3.65,3.62,5.55,5.39-15.78-2.53-31.78-3.05-47.56-5.57s-31.83-7.31-43.74-16.86a59.57,59.57,0,0,1-12.3-13.6c-5.15-7.79-8.45-16.81-6.53-25.23,1-4.2,3.69-8.47,8.55-9.6"/><path class="cls-1" d="M128.76,140c-5.32-6.81-19.94-14.11-29.84-13.71-7.45.31-14.57,3.38-20.48,7.39-12,8.16-19.67,20-26.43,31.58S38.83,189,28.33,198.52c-1.89,1.72-3.9,3.35-5.91,5,15.91-1.41,31.91-.79,47.83-2.18s32.27-5,44.82-13.72a59.22,59.22,0,0,0,13.23-12.69c5.7-7.4,9.63-16.17,8.31-24.7-.66-4.26-3.08-8.72-7.85-10.19"/><path class="cls-1" d="M160.5,125.69c-5.44-11.19-7.43-33.81-2.73-45.34,3.54-8.68,10.08-15,17.17-19.21C189.35,52.57,206,51.83,222.07,52s32.5,1.06,47.84-4.68c2.76-1,5.47-2.29,8.18-3.53-8.43,18-14.59,37.52-23,55.53s-19.55,34.94-34.78,43.76a55.3,55.3,0,0,1-20.07,6.79c-10.83,1.55-22.46,0-31.56-7.61-4.55-3.8-8.55-9.85-8.18-16.58"/><path class="cls-2" d="M229.3,83.62a21,21,0,0,0,1.14-1.82A18.08,18.08,0,0,0,232,78.12c.76-2.65,1.56-4.39,2.39-7a23.65,23.65,0,0,1,4-7c1.18-1.42,4.2-4.45,5.64-5.82a46.06,46.06,0,0,0-6.76,5.23c-3.11,3-4.62,7.25-6,11.35-1.22,3.64-2.49,7.4-4.87,10.36A63.9,63.9,0,0,1,214.84,90c-1.35.39-2.61.78-3.85,1.16.23-.49.45-1,.64-1.47a22.34,22.34,0,0,0,1.27-4.59c.47-3.26,1.14-5.43,1.71-8.68a27.93,27.93,0,0,1,3.65-9c1.18-1.87,4.27-5.92,5.75-7.77a53.92,53.92,0,0,0-7.16,7.25c-3.21,4-4.32,9.29-5.3,14.34a49.5,49.5,0,0,1-2.88,10.61c-5.16,1.66-9.69,3.28-15.63,4.8-1.41.36-2.93.87-4.47,1.42a23.45,23.45,0,0,0,2.18-4.37A23.93,23.93,0,0,0,192,88.81c.47-3.49,1.15-5.82,1.72-9.29a30,30,0,0,1,3.78-9.62c1.23-2,4.48-6.39,6.05-8.38A57.2,57.2,0,0,0,196,69.36c-3.38,4.34-4.5,10-5.48,15.4-.89,4.94-1.83,10-4.45,14.29-1.62.66-3.2,1.36-4.63,2.07a71.88,71.88,0,0,0-8.06,4.66,24.25,24.25,0,0,0,1.12-3.48,23.24,23.24,0,0,0,.68-5c0-3.52.42-5.92.56-9.44a29.88,29.88,0,0,1,2.56-10c1-2.15,3.66-6.89,5-9.06a58.56,58.56,0,0,0-6.53,8.71c-2.81,4.73-3.23,10.46-3.53,16-.26,4.83-.54,9.83-2.41,14.24-4.81,3.72-8.77,8.28-10.2,13.78l-.37,1.83c.67-3,3.1-5.55,5.58-7.61a57.28,57.28,0,0,1,6.85-4.87c.25.06.51.11.75.18,5.3,1.5,9.58,5.3,13.7,9s8.47,7.4,13.81,8.73a57.09,57.09,0,0,0,10.79,1.5c-2.46-.6-7.72-2-9.93-2.86a29.76,29.76,0,0,1-8.91-5.22c-2.59-2.38-4.58-3.8-7.1-6.25a23.21,23.21,0,0,0-4-3.07A17.46,17.46,0,0,0,174,110a104.9,104.9,0,0,1,20.56-8.62c5,1,9.47,4,13.73,7,4.54,3.11,9.34,6.28,14.8,6.93a57.44,57.44,0,0,0,10.89.13c-2.52-.29-7.91-1.05-10.21-1.59a30.07,30.07,0,0,1-9.5-4.06c-2.87-2-5-3.19-7.82-5.31A23.82,23.82,0,0,0,202,101.9a23.19,23.19,0,0,0-4.42-1.48L202.37,99a186.78,186.78,0,0,0,17.79-6.1,63,63,0,0,1,6.18,1.6c4.21,1.25,8.64,2.48,13,1.63a45.42,45.42,0,0,0,8.31-2.57c-2,.4-6.27,1.15-8.15,1.3a24,24,0,0,1-8.23-.76c-2.68-.84-4.6-1.19-7.25-2.12-.32-.11-.67-.21-1-.3a63.25,63.25,0,0,0,15.73-9.89c4.84-4.26,15.11-14.63,18.84-19.87-4.76,4.21-15.19,13-20,16.5A96.48,96.48,0,0,1,229.3,83.62Z"/><path class="cls-3" d="M139.28,138.54c-1.83-11-12.73-27.45-22.86-32.14-7.62-3.53-16.34-3.54-24.33-1.79-16.27,3.56-30,13.8-42.75,24.3S23.93,150.6,8.49,156.65c-2.78,1.09-5.64,2-8.49,2.91,16.68,6.62,32.39,15.73,49.06,22.38s34.94,10.79,52,6.87a64.94,64.94,0,0,0,19.8-8.4c9.52-6,18-14.48,21-25.47,1.54-5.49,1.41-12.13-2.61-16.4"/><path class="cls-2" d="M107.58,166.63c4.82-4.22,7.59-10,10.16-15.61s5.24-11.4,9.94-15.74a12.16,12.16,0,0,1,1.59-1.25c2.8-.11,5.65.15,7.59,1.56l-1.3-1c-3.3-2.18-7.55-2.95-12.09-2.87-3.47-1.77-6-5.26-8.36-8.65s-5.16-7.16-8.93-8.69a35.16,35.16,0,0,0-7.82-2c1.74.7,5.44,2.31,7,3.19a19.32,19.32,0,0,1,5.83,5.25c1.56,2.29,2.82,3.68,4.31,6a15.74,15.74,0,0,0,2.55,3,14.78,14.78,0,0,0,2.69,2,68.27,68.27,0,0,0-13,2.58c-1.75.51-3.67,1.15-5.56,1.86l-.34-.13c-3.72-1.68-6.32-5.36-8.81-8.89s-5.16-7.16-8.94-8.69a35,35,0,0,0-7.82-2c1.74.7,5.44,2.31,7,3.19A19.32,19.32,0,0,1,89,125c1.56,2.29,2.82,3.68,4.31,6a16.44,16.44,0,0,0,2.55,3,11.51,11.51,0,0,0,4.74,2.85c-1.63.65-3.22,1.34-4.62,2-4.81,2.42-8.81,4.12-13,5.95a40,40,0,0,1-7.47-4.75c-3.51-2.61-7.21-5.26-11.45-5.69a39,39,0,0,0-8.44.14c1.94.19,6.12.73,7.9,1.15a20.78,20.78,0,0,1,7.35,3.32c2.22,1.71,3.88,2.67,6,4.45a17.25,17.25,0,0,0,3.41,2.11c.16.08.33.14.49.21-1.87.83-3.81,1.7-5.92,2.7-7.79,3.69-18.15,6-24.56,6.88-5.74.78-19,1.59-25.1,1.84C31,158.35,45,158.67,51.21,158.4a61.38,61.38,0,0,0,11.09-1.59h0c-2.57,2.29-4.53,3.62-7.16,5.84a34.07,34.07,0,0,1-8.73,5c-2.11.83-7.09,2.33-9.4,3a59.12,59.12,0,0,0,10-1.8c5.05-1.42,9.44-4.92,13.59-8.34,2.08-1.71,4.21-3.46,6.44-5,3.53-1,7-2.32,10.48-3.71h0q3-1.22,5.92-2.51c-.61.56-1.19,1.13-1.73,1.71a27.76,27.76,0,0,0-3,3.89c-1.74,2.87-3.22,4.7-5,7.53a34.32,34.32,0,0,1-6.89,7.31c-1.81,1.43-6.23,4.39-8.31,5.72a64.37,64.37,0,0,0,9.37-4.91c4.52-2.91,7.64-7.45,10.55-11.84,2.79-4.2,5.71-8.55,9.84-11.57l1.48-.67,2.14-1,.33,0-.23,0c4.36-2,8.78-4,13.27-5.7a31.32,31.32,0,0,0-4.79,5.67,32.14,32.14,0,0,0-3,5.53c-1.62,4-3.14,6.58-4.88,10.52a43.06,43.06,0,0,1-7.4,10.67c-2.06,2.19-7.22,6.87-9.66,9a86.65,86.65,0,0,0,11.27-8.2c5.29-4.63,8.34-11,11.16-17.15s5.75-12.52,10.92-17.29l.13-.11a74,74,0,0,1,18.79-4.26c-3.11,1.5-5.73,4.54-7.71,7.45a29.17,29.17,0,0,0-2.76,5c-1.48,3.61-2.87,6-4.45,9.58a38.84,38.84,0,0,1-6.74,9.71c-1.87,2-6.56,6.25-8.79,8.18A78.49,78.49,0,0,0,107.58,166.63Z"/><path class="cls-3" d="M176.59,134.17c1.83-11,12.72-27.45,22.85-32.14,7.63-3.54,16.34-3.55,24.34-1.8,16.27,3.56,30,13.8,42.74,24.3s25.42,21.69,40.85,27.74c2.79,1.09,5.64,2,8.5,2.92-16.68,6.62-32.39,15.73-49.06,22.37s-34.94,10.8-52,6.88A64.78,64.78,0,0,1,195,176c-9.53-6-18-14.49-21.05-25.47-1.53-5.49-1.4-12.13,2.62-16.4"/><path class="cls-2" d="M208.29,162.25c-4.82-4.21-7.6-10-10.16-15.61s-5.24-11.4-9.94-15.74a11.91,11.91,0,0,0-1.59-1.24c-2.8-.11-5.65.15-7.6,1.55l1.31-1c3.3-2.19,7.54-2.95,12.08-2.88,3.48-1.76,6-5.26,8.36-8.64,2.5-3.54,5.16-7.16,8.94-8.69a34,34,0,0,1,7.82-2,73.94,73.94,0,0,0-7,3.19,19.28,19.28,0,0,0-5.83,5.24c-1.56,2.3-2.82,3.69-4.31,6a16.51,16.51,0,0,1-2.55,3,14.47,14.47,0,0,1-2.7,2,68.39,68.39,0,0,1,13.05,2.59c1.75.5,3.66,1.14,5.56,1.85l.34-.13c3.72-1.68,6.32-5.35,8.81-8.88s5.16-7.16,8.94-8.69a34,34,0,0,1,7.81-2,73.75,73.75,0,0,0-6.95,3.19,19.19,19.19,0,0,0-5.84,5.24c-1.56,2.29-2.81,3.68-4.31,6a16.46,16.46,0,0,1-2.54,3,11.62,11.62,0,0,1-4.74,2.85c1.63.65,3.22,1.33,4.62,2,4.8,2.41,8.81,4.11,13,5.94a40.25,40.25,0,0,0,7.48-4.74c3.51-2.61,7.21-5.26,11.45-5.7a39.71,39.71,0,0,1,8.44.15c-1.95.19-6.13.72-7.91,1.14a21.08,21.08,0,0,0-7.35,3.33c-2.21,1.71-3.87,2.66-6,4.45a16.9,16.9,0,0,1-3.4,2.11l-.5.21c1.88.82,3.82,1.69,5.93,2.69,7.79,3.69,18.14,6,24.56,6.88,5.74.79,19,1.6,25.1,1.85-5.88,1.1-19.83,1.42-26,1.15a60.51,60.51,0,0,1-11.09-1.59l0,0c2.56,2.28,4.53,3.62,7.16,5.84a34,34,0,0,0,8.72,5c2.12.83,7.09,2.33,9.41,3a59.08,59.08,0,0,1-10.06-1.81c-5-1.41-9.43-4.92-13.59-8.33-2.08-1.72-4.2-3.46-6.43-5-3.53-1-7-2.32-10.48-3.72l0,0,0,0q-3-1.2-5.92-2.51c.6.56,1.19,1.14,1.72,1.72a25.32,25.32,0,0,1,3,3.89c1.74,2.86,3.22,4.69,5,7.52a33.87,33.87,0,0,0,6.9,7.31c1.81,1.43,6.23,4.39,8.31,5.72a64.31,64.31,0,0,1-9.37-4.9c-4.52-2.91-7.64-7.45-10.56-11.85-2.79-4.19-5.7-8.54-9.83-11.56l-1.48-.68-2.14-1c-.11,0-.22,0-.33,0l.23,0c-4.36-2-8.78-4-13.27-5.7a34.17,34.17,0,0,1,7.82,11.19c1.63,4,3.15,6.59,4.89,10.53a42.79,42.79,0,0,0,7.4,10.67c2.06,2.19,7.21,6.86,9.65,9a86.23,86.23,0,0,1-11.26-8.19c-5.29-4.64-8.35-11-11.16-17.15s-5.75-12.53-10.92-17.3l-.13-.11a74.1,74.1,0,0,0-18.79-4.25c3.11,1.5,5.73,4.54,7.71,7.45a29.09,29.09,0,0,1,2.76,5c1.48,3.62,2.87,6,4.45,9.59a39.27,39.27,0,0,0,6.73,9.71c1.88,2,6.57,6.25,8.79,8.18A79.15,79.15,0,0,1,208.29,162.25Z"/><path class="cls-1" d="M130.85,119.56c10.2-5.19,31-7.38,41.63-3.25a37.13,37.13,0,0,1,17.94,15.46c8.12,13.12,9.07,28.4,9.17,43.18s-.45,29.89,5.08,43.89c1,2.53,2.19,5,3.37,7.47-16.67-7.45-34.72-12.8-51.42-20.23s-32.43-17.41-40.79-31.27a51,51,0,0,1-6.57-18.33c-1.6-9.93-.38-20.64,6.48-29.13,3.43-4.25,8.92-8,15.11-7.79"/><path class="cls-2" d="M170.65,182.11a16.49,16.49,0,0,0,1.69,1,17.31,17.31,0,0,0,3.4,1.38c2.46.65,4.06,1.35,6.5,2.08a21.55,21.55,0,0,1,6.54,3.59c1.33,1.06,4.16,3.79,5.44,5.09a40.8,40.8,0,0,0-4.92-6.13c-2.8-2.82-6.73-4.13-10.52-5.33-3.37-1.06-6.85-2.16-9.61-4.31a59.05,59.05,0,0,1-4.61-10.58c-.38-1.23-.75-2.39-1.13-3.51.46.2.92.39,1.37.56a20,20,0,0,0,4.24,1.09c3,.38,5,1,8,1.43a26,26,0,0,1,8.29,3.21c1.74,1.05,5.51,3.83,7.23,5.16a48.75,48.75,0,0,0-6.78-6.46c-3.75-2.89-8.6-3.83-13.27-4.64a45.64,45.64,0,0,1-9.79-2.48c-1.62-4.71-3.18-8.85-4.67-14.29-.36-1.29-.85-2.68-1.38-4.08a21.44,21.44,0,0,0,4.05,1.93,22.23,22.23,0,0,0,4.55,1.11c3.21.37,5.37,1,8.57,1.43a27.31,27.31,0,0,1,8.9,3.32c1.87,1.09,5.94,4,7.8,5.41a53.15,53.15,0,0,0-7.33-6.81c-4.05-3-9.25-4-14.25-4.79-4.55-.73-9.27-1.52-13.2-3.86-.63-1.47-1.3-2.92-2-4.22a66,66,0,0,0-4.42-7.33,23.19,23.19,0,0,0,3.22,1,20.8,20.8,0,0,0,4.65.54c3.23,0,5.45.3,8.68.36a27.51,27.51,0,0,1,9.24,2.2c2,.85,6.4,3.25,8.41,4.41a52.12,52.12,0,0,0-8.11-5.86c-4.4-2.51-9.67-2.8-14.73-3-4.44-.16-9.05-.33-13.13-2-3.5-4.36-7.75-7.92-12.83-9.15l-1.69-.31c2.78.56,5.15,2.76,7.09,5a52.53,52.53,0,0,1,4.58,6.21c0,.23-.09.47-.15.69-1.29,4.9-4.71,8.9-8,12.74s-6.67,7.91-7.8,12.84a52.94,52.94,0,0,0-1.2,9.94c.51-2.27,1.74-7.13,2.46-9.17a27.58,27.58,0,0,1,4.66-8.28c2.15-2.42,3.41-4.27,5.63-6.63a21.35,21.35,0,0,0,2.76-3.77,16.17,16.17,0,0,0,2.4-7.16,96.19,96.19,0,0,1,8.26,18.76c-.87,4.64-3.56,8.76-6.17,12.73-2.79,4.22-5.62,8.69-6.13,13.72a53.13,53.13,0,0,0,.06,10c.22-2.32.83-7.29,1.29-9.41a27.68,27.68,0,0,1,3.58-8.8c1.83-2.67,2.85-4.66,4.76-7.27a22.72,22.72,0,0,0,2.26-4.1,22.28,22.28,0,0,0,1.29-4.08c.48,1.45.94,2.9,1.41,4.34a168.36,168.36,0,0,0,5.9,16.25,58.4,58.4,0,0,1-1.38,5.7c-1.08,3.9-2.14,8-1.29,11.94a41.78,41.78,0,0,0,2.51,7.6c-.4-1.82-1.16-5.74-1.33-7.47a22,22,0,0,1,.56-7.57c.73-2.48,1-4.25,1.83-6.71.1-.29.18-.61.26-.94a58.08,58.08,0,0,0,9.35,14.3c4,4.38,13.69,13.65,18.57,17-4-4.3-12.25-13.75-15.49-18.1A82.7,82.7,0,0,1,170.65,182.11Z"/><path class="cls-1" d="M144.17,111.4c3.55-7.89,3.18-24.22-1.79-32.79-3.75-6.45-9.78-11.31-16.09-14.67C113.45,57.1,99.47,55.85,86,55.29s-27.1-.61-40.45-5.44C43.18,49,40.8,48,38.42,46.94,47.09,60.36,54,74.8,62.66,88.23s19.5,26.2,33,33.25a59.22,59.22,0,0,0,17.4,5.79c9.21,1.58,18.79,1,25.72-4.18,3.46-2.57,6.27-6.79,5.35-11.69"/><path class="cls-3" d="M160.48,121.42c9.53-5.8,20.73-22,21.31-33.18.44-8.39-2.8-16.48-7.4-23.25-9.36-13.77-24-22.68-38.47-30.62S106.32,18.87,95,6.8c-2-2.18-4-4.49-5.87-6.8.07,17.94-2.53,35.92-2.49,53.86s3,36.45,13,50.81a64.79,64.79,0,0,0,15.17,15.25c9.08,6.62,20.14,11.28,31.47,10,5.67-.62,11.78-3.22,14.25-8.54"/><path class="cls-2" d="M122.6,102.47c5.71,2.9,12.14,3.31,18.28,3.61s12.53.61,18.31,3.36a12.52,12.52,0,0,1,1.74,1c1.15,2.56,2,5.3,1.39,7.63l.43-1.58c.79-3.87-.08-8.09-1.83-12.28.34-3.88,2.65-7.5,4.9-11s4.73-7.46,4.74-11.53a35,35,0,0,0-1-8,76.42,76.42,0,0,1-.37,7.65,19.24,19.24,0,0,1-2.69,7.36c-1.55,2.3-2.37,4-4,6.25a16.16,16.16,0,0,0-1.84,3.48,15.14,15.14,0,0,0-.87,3.25,68.68,68.68,0,0,0-7.25-11.14c-1.13-1.44-2.43-3-3.8-4.47,0-.12,0-.24,0-.36.17-4.08,2.61-7.86,5-11.49s4.72-7.45,4.73-11.53a34.41,34.41,0,0,0-1-8,76.42,76.42,0,0,1-.37,7.65,19.27,19.27,0,0,1-2.7,7.36c-1.54,2.3-2.36,4-4,6.25a16.2,16.2,0,0,0-1.85,3.48,11.7,11.7,0,0,0-.88,5.47c-1.21-1.27-2.43-2.5-3.61-3.54-4-3.55-7.1-6.64-10.38-9.88a40.21,40.21,0,0,1,1.62-8.71c1.12-4.23,2.2-8.65,1-12.75A39,39,0,0,0,133,42.24c.55,1.88,1.61,6,1.89,7.77a21.17,21.17,0,0,1-.35,8.06c-.76,2.69-1,4.58-1.88,7.26a17.32,17.32,0,0,0-.69,4c0,.17,0,.36,0,.53-1.47-1.43-3-2.91-4.71-4.49-6.33-5.86-12.33-14.6-15.54-20.23-2.86-5-8.54-17-11-22.6,1.16,5.86,6,18.92,8.63,24.59a60.54,60.54,0,0,0,5.6,9.71h0c-3.07-1.53-5-2.86-8.09-4.47a34.22,34.22,0,0,1-7.9-6.23c-1.56-1.65-4.81-5.71-6.26-7.63A58.19,58.19,0,0,0,98,47.12c3.19,4.15,8.08,6.92,12.8,9.5,2.36,1.3,4.77,2.62,7,4.12,2.29,2.89,4.77,5.66,7.35,8.34,0,0,0,0,0,0v0q2.24,2.32,4.53,4.56c-.74-.35-1.49-.68-2.23-1a25.82,25.82,0,0,0-4.73-1.32c-3.3-.55-5.55-1.24-8.86-1.88a33.66,33.66,0,0,1-9.35-3.68c-2-1.14-6.39-4.14-8.4-5.58a64.8,64.8,0,0,0,8,6.88c4.38,3.11,9.76,4.31,14.92,5.38,4.94,1,10.06,2.11,14.4,4.82l1.18,1.12,1.71,1.62a2.75,2.75,0,0,1,.14.3l-.07-.22c3.47,3.3,6.95,6.67,10.24,10.19A31.54,31.54,0,0,0,139.63,88a32.64,32.64,0,0,0-6.26-.76c-4.29,0-7.28-.46-11.59-.61a42.55,42.55,0,0,1-12.65-2.89c-2.8-1.1-9.06-4.14-11.94-5.62A85.58,85.58,0,0,0,109,85.5c6.28,3.19,13.33,3.65,20.08,4s13.76.67,20.11,3.69l.15.08a73.87,73.87,0,0,1,10.95,15.85c-2.55-2.33-6.35-3.63-9.78-4.38a29.38,29.38,0,0,0-5.7-.69c-3.91,0-6.63-.42-10.55-.56a38.8,38.8,0,0,1-11.52-2.63c-2.55-1-8.25-3.77-10.87-5.11A80.37,80.37,0,0,0,122.6,102.47Z"/></svg>