<svg id="Layer_1" data-name="Layer 1" xmlns="http://www.w3.org/2000/svg" viewBox="0 0 313.92 120.76"><defs><style>.cls-1{fill:#307f4c;}.cls-2{fill:#6b9660;}</style></defs><path class="cls-1" d="M169.12,100.7c-1.33,0-2.67,0-4,0a147.42,147.42,0,0,1-97-40.82c-3.71-3.58-7-7.19-10.2-10.67C52.61,43.37,47.61,37.9,41.18,33,31.73,25.8,17.45,19.27,5.71,22.55a4.5,4.5,0,0,1-2.42-8.67c14.92-4.17,32.17,3.45,43.34,12,7.08,5.39,12.59,11.42,17.92,17.25,3.09,3.38,6.29,6.88,9.8,10.27a138.29,138.29,0,0,0,91,38.29,138.12,138.12,0,0,0,93.06-33c16.23-14,29.24-31.88,41.83-49.21l5.52-7.58a4.5,4.5,0,0,1,7.26,5.32q-2.76,3.77-5.5,7.55c-12.89,17.75-26.22,36.1-43.24,50.74A147.48,147.48,0,0,1,169.12,100.7Z"/><path class="cls-2" d="M199.76,93.75s20.3-16.33,32.74,23.17C232.5,116.92,192.08,117.77,199.76,93.75Z"/><path class="cls-2" d="M214.33,87.19s-17.21-9.23,6.4-29.38C220.73,57.81,233.15,85.45,214.33,87.19Z"/><path class="cls-2" d="M83.92,64.17s-4.7-20.74,28.72-15.71C112.64,48.46,98.78,78.4,83.92,64.17Z"/><path class="cls-2" d="M128.69,91s20.39-1,10.15,29.74C138.84,120.76,112.78,102.75,128.69,91Z"/><path class="cls-2" d="M156.08,94.33s-17-19.72,22-33.53C178.1,60.8,180.35,101.17,156.08,94.33Z"/><path class="cls-2" d="M78.54,65s24.86,7.79-1.05,40.1C77.49,105.13,54.3,72,78.54,65Z"/><path class="cls-2" d="M256,70.14s15.32-13.5,26.45,17C282.45,87.12,250.84,89.21,256,70.14Z"/><path class="cls-2" d="M270.38,50.35s-24.83-7.9,1.22-40.09C271.6,10.26,294.64,43.47,270.38,50.35Z"/><path class="cls-2" d="M38.85,24.07s2.81-25.91,39.54-6.76C78.39,17.31,50.4,46.48,38.85,24.07Z"/></svg>