<svg width="264" height="3387" viewBox="0 0 264 3387" fill="none" xmlns="http://www.w3.org/2000/svg">
<g clip-path="url(#clip0_117_921)">
<path d="M-23.6577 331.994H138.891V190.386C143.563 150.82 161.342 135.343 161.342 135.343H138.891V113.702H-23.6577V331.994Z" fill="#CB862A"/>
<path d="M-23.6576 136.739H171.201C171.201 136.739 227.53 138.063 204.679 88.1454C188.154 52.0386 206.93 43.4391 218.583 41.4458C213.982 45.2757 211.047 51.0277 211.047 57.4774C211.047 68.9957 220.378 78.3214 231.904 78.3214C232.716 78.3214 233.513 78.2644 234.311 78.179L234.297 78.1932C234.297 78.1932 268.972 76.5986 263.387 33.9852C257.803 -8.62815 213.569 0.925329 213.569 0.925329C213.569 0.925329 174.905 3.58777 171.714 39.1108C168.523 74.6196 40.1935 78.2075 40.1935 78.2075H-23.6719V136.739H-23.6576Z" fill="#7C433E"/>
<path d="M139.09 370.778H-23.6577V952.373H139.09V370.778Z" fill="#CB862A"/>
<path d="M142.908 371.988H-23.6577V318.525H180.332C182.683 318.525 183.979 321.245 182.512 323.081L142.908 371.988Z" fill="#9B6027"/>
<path d="M141.441 393.344H-23.6719V370.778H141.441C147.68 370.778 152.724 375.832 152.724 382.054C152.738 388.29 147.68 393.344 141.441 393.344Z" fill="#9B6027"/>
<mask id="mask0_117_921" style="mask-type:luminance" maskUnits="userSpaceOnUse" x="-24" y="318" width="208" height="54">
<path d="M142.908 371.988H-23.6577V318.525H180.332C182.683 318.525 183.979 321.245 182.512 323.081L142.908 371.988Z" fill="white"/>
</mask>
<g mask="url(#mask0_117_921)">
<path d="M-214 371.959L181.957 371.988L181.971 341.975C171.699 341.975 162.639 347.143 157.225 355.002C151.812 347.129 142.751 341.975 132.48 341.975C122.208 341.975 113.148 347.143 107.734 355.002C102.321 347.129 93.2602 341.975 82.9888 341.975C72.7173 341.975 63.6568 347.143 58.2433 355.002C52.8297 347.129 43.7692 341.975 33.4977 341.975C23.2263 341.975 14.1658 347.143 8.75224 355.002C3.33871 347.129 -5.7218 341.975 -15.9933 341.975C-26.2647 341.975 -35.3252 347.143 -40.7388 355.002C-41.1946 354.333 -41.7218 353.721 -42.2346 353.08C-42.2916 353.023 -42.3343 352.952 -42.3913 352.881C-42.9327 352.226 -43.5025 351.614 -44.0866 351.016C-44.2148 350.888 -44.343 350.76 -44.4713 350.631C-45.0696 350.033 -45.6964 349.478 -46.3375 348.937C-46.423 348.866 -46.5227 348.795 -46.6082 348.724C-49.4716 346.403 -52.7482 344.595 -56.3525 343.456C-56.495 343.413 -56.6232 343.37 -56.7657 343.327C-57.5919 343.071 -58.4467 342.858 -59.3015 342.672C-59.4582 342.644 -59.6291 342.616 -59.8001 342.573C-61.6521 342.217 -63.5468 341.975 -65.4985 341.975C-74.5021 341.975 -82.5796 345.947 -88.0786 352.226C-88.8479 353.109 -89.5745 354.034 -90.244 355.002C-95.6576 347.129 -104.718 341.975 -114.99 341.975C-123.993 341.975 -132.071 345.947 -137.57 352.226C-138.339 353.109 -139.065 354.034 -139.735 355.002C-145.149 347.129 -154.209 341.975 -164.481 341.975C-174.752 341.975 -183.813 347.143 -189.226 355.002C-194.64 347.129 -203.7 341.975 -213.972 341.975L-214 371.959Z" fill="#603835"/>
</g>
<path d="M83.8863 807.988H-23.6577V482.942H6.07399C49.0545 482.942 83.9005 517.767 83.9005 560.723V807.988H83.8863Z" fill="#9B6027"/>
<path d="M66.7197 785.792H-23.6577V497.948H1.33003C37.4439 497.948 66.734 527.207 66.734 563.314V785.792H66.7197Z" fill="#603835"/>
<path d="M-23.6577 1184.62H138.891V1043.01C143.563 1003.44 161.342 987.967 161.342 987.967H138.891V966.326H-23.6577V1184.62Z" fill="#CB862A"/>
<path d="M-23.6576 990.729H171.201C171.201 990.729 227.53 992.053 204.679 942.136C188.154 906.029 206.93 897.429 218.583 895.436C213.982 899.266 211.047 905.018 211.047 911.468C211.047 922.986 220.378 932.312 231.904 932.312C232.716 932.312 233.513 932.255 234.311 932.169L234.297 932.184C234.297 932.184 268.972 930.589 263.387 887.976C257.803 845.362 213.569 854.916 213.569 854.916C213.569 854.916 174.905 857.578 171.714 893.101C168.523 928.61 40.1935 932.198 40.1935 932.198H-23.6719V990.729H-23.6576Z" fill="#7C433E"/>
<path d="M139 1237H-24V1947H139V1237Z" fill="#CB862A"/>
<path d="M142.908 1238.66H-23.6577V1185.2H180.332C182.683 1185.2 183.979 1187.92 182.512 1189.76L142.908 1238.66Z" fill="#9B6027"/>
<path d="M141.441 1260.02H-23.6719V1237.45H141.441C147.68 1237.45 152.724 1242.51 152.724 1248.73C152.738 1254.97 147.68 1260.02 141.441 1260.02Z" fill="#9B6027"/>
<mask id="mask1_117_921" style="mask-type:luminance" maskUnits="userSpaceOnUse" x="-24" y="1185" width="208" height="54">
<path d="M142.908 1238.66H-23.6577V1185.2H180.332C182.683 1185.2 183.979 1187.92 182.512 1189.76L142.908 1238.66Z" fill="white"/>
</mask>
<g mask="url(#mask1_117_921)">
<path d="M-214 1238.64L181.957 1238.66L181.971 1208.65C171.699 1208.65 162.639 1213.82 157.225 1221.68C151.812 1213.81 142.751 1208.65 132.48 1208.65C122.208 1208.65 113.148 1213.82 107.734 1221.68C102.321 1213.81 93.2602 1208.65 82.9888 1208.65C72.7173 1208.65 63.6568 1213.82 58.2433 1221.68C52.8297 1213.81 43.7692 1208.65 33.4977 1208.65C23.2263 1208.65 14.1658 1213.82 8.75224 1221.68C3.33871 1213.81 -5.7218 1208.65 -15.9933 1208.65C-26.2647 1208.65 -35.3252 1213.82 -40.7388 1221.68C-41.1946 1221.01 -41.7218 1220.4 -42.2346 1219.76C-42.2916 1219.7 -42.3343 1219.63 -42.3913 1219.56C-42.9327 1218.9 -43.5025 1218.29 -44.0866 1217.69C-44.2148 1217.56 -44.343 1217.44 -44.4713 1217.31C-45.0696 1216.71 -45.6964 1216.15 -46.3375 1215.61C-46.423 1215.54 -46.5227 1215.47 -46.6082 1215.4C-49.4716 1213.08 -52.7482 1211.27 -56.3525 1210.13C-56.495 1210.09 -56.6232 1210.05 -56.7657 1210C-57.5919 1209.75 -58.4467 1209.53 -59.3015 1209.35C-59.4582 1209.32 -59.6291 1209.29 -59.8001 1209.25C-61.6521 1208.89 -63.5468 1208.65 -65.4985 1208.65C-74.5021 1208.65 -82.5796 1212.62 -88.0786 1218.9C-88.8479 1219.79 -89.5745 1220.71 -90.244 1221.68C-95.6576 1213.81 -104.718 1208.65 -114.99 1208.65C-123.993 1208.65 -132.071 1212.62 -137.57 1218.9C-138.339 1219.79 -139.065 1220.71 -139.735 1221.68C-145.149 1213.81 -154.209 1208.65 -164.481 1208.65C-174.752 1208.65 -183.813 1213.82 -189.226 1221.68C-194.64 1213.81 -203.7 1208.65 -213.972 1208.65L-214 1238.64Z" fill="#603835"/>
</g>
<path d="M83.8863 1674.66H-23.6577V1349.62H6.07399C49.0545 1349.62 83.9005 1384.44 83.9005 1427.4V1674.66H83.8863Z" fill="#9B6027"/>
<path d="M66.7197 1652.47H-23.6577V1364.62H1.33003C37.4439 1364.62 66.734 1393.88 66.734 1429.99V1652.47H66.7197Z" fill="#603835"/>
<path d="M-24 2094H135.912V2042C135.912 1977 265 1961.57 265 1961.57H135.912V1947H-24V2094Z" fill="#CB862A"/>
<path d="M139.09 2118.03H-23.6577V2699.62H139.09V2118.03Z" fill="#CB862A"/>
<path d="M142.908 2119.24H-23.6577V2065.77H180.332C182.683 2065.77 183.979 2068.49 182.512 2070.33L142.908 2119.24Z" fill="#9B6027"/>
<path d="M141.441 2140.58H-23.6719V2118.01H141.441C147.68 2118.01 152.724 2123.07 152.724 2129.29C152.738 2135.54 147.68 2140.58 141.441 2140.58Z" fill="#9B6027"/>
<mask id="mask2_117_921" style="mask-type:luminance" maskUnits="userSpaceOnUse" x="-24" y="2065" width="208" height="55">
<path d="M142.908 2119.24H-23.6577V2065.77H180.332C182.683 2065.77 183.979 2068.49 182.512 2070.33L142.908 2119.24Z" fill="white"/>
</mask>
<g mask="url(#mask2_117_921)">
<path d="M-214 2119.21L181.957 2119.24L181.971 2089.22C171.699 2089.22 162.639 2094.39 157.225 2102.25C151.812 2094.38 142.751 2089.22 132.48 2089.22C122.208 2089.22 113.148 2094.39 107.734 2102.25C102.321 2094.38 93.2602 2089.22 82.9888 2089.22C72.7173 2089.22 63.6568 2094.39 58.2433 2102.25C52.8297 2094.38 43.7692 2089.22 33.4977 2089.22C23.2263 2089.22 14.1658 2094.39 8.75224 2102.25C3.33871 2094.38 -5.7218 2089.22 -15.9933 2089.22C-26.2647 2089.22 -35.3252 2094.39 -40.7388 2102.25C-41.1946 2101.58 -41.7218 2100.97 -42.2346 2100.33C-42.2916 2100.27 -42.3343 2100.2 -42.3913 2100.13C-42.9327 2099.47 -43.5025 2098.86 -44.0866 2098.26C-44.2148 2098.14 -44.343 2098.01 -44.4713 2097.88C-45.0696 2097.28 -45.6964 2096.73 -46.3375 2096.19C-46.423 2096.11 -46.5227 2096.04 -46.6082 2095.97C-49.4716 2093.65 -52.7482 2091.84 -56.3525 2090.7C-56.495 2090.66 -56.6232 2090.62 -56.7657 2090.58C-57.5919 2090.32 -58.4467 2090.11 -59.3015 2089.92C-59.4582 2089.89 -59.6291 2089.86 -59.8001 2089.82C-61.6521 2089.47 -63.5468 2089.22 -65.4985 2089.22C-74.5021 2089.22 -82.5796 2093.2 -88.0786 2099.47C-88.8479 2100.36 -89.5745 2101.28 -90.244 2102.25C-95.6576 2094.38 -104.718 2089.22 -114.99 2089.22C-123.993 2089.22 -132.071 2093.2 -137.57 2099.47C-138.339 2100.36 -139.065 2101.28 -139.735 2102.25C-145.149 2094.38 -154.209 2089.22 -164.481 2089.22C-174.752 2089.22 -183.813 2094.39 -189.226 2102.25C-194.64 2094.38 -203.7 2089.22 -213.972 2089.22L-214 2119.21Z" fill="#603835"/>
</g>
<path d="M83.8863 2555.24H-23.6577V2230.19H6.07399C49.0545 2230.19 83.9005 2265.02 83.9005 2307.97V2555.24H83.8863Z" fill="#9B6027"/>
<path d="M66.7197 2533.03H-23.6577V2245.18H1.33003C37.4439 2245.18 66.734 2274.44 66.734 2310.55V2533.03H66.7197Z" fill="#603835"/>
<path d="M-23.6577 2942.29H138.891V2800.68C143.563 2761.11 161.342 2745.64 161.342 2745.64H138.891V2724H-23.6577V2942.29Z" fill="#CB862A"/>
<path d="M-23.9858 2745.73H170.873C170.873 2745.73 227.202 2747.05 204.351 2697.14C187.826 2661.03 206.602 2652.43 218.255 2650.44C213.654 2654.27 210.719 2660.02 210.719 2666.47C210.719 2677.99 220.05 2687.31 231.575 2687.31C232.387 2687.31 233.185 2687.25 233.983 2687.17L233.969 2687.18C233.969 2687.18 268.644 2685.59 263.059 2642.98C257.475 2600.36 213.241 2609.92 213.241 2609.92C213.241 2609.92 174.577 2612.58 171.386 2648.1C168.194 2683.61 39.8653 2687.2 39.8653 2687.2H-24V2745.73H-23.9858Z" fill="#7C433E"/>
<path d="M139.09 2992.41H-23.6577V3574H139.09V2992.41Z" fill="#CB862A"/>
<path d="M142.908 2993.62H-23.6577V2940.15H180.332C182.683 2940.15 183.979 2942.87 182.512 2944.71L142.908 2993.62Z" fill="#9B6027"/>
<path d="M141.441 3014.97H-23.6719V2992.41H141.441C147.68 2992.41 152.724 2997.46 152.724 3003.68C152.738 3009.92 147.68 3014.97 141.441 3014.97Z" fill="#9B6027"/>
<mask id="mask3_117_921" style="mask-type:luminance" maskUnits="userSpaceOnUse" x="-24" y="2940" width="208" height="54">
<path d="M142.908 2993.62H-23.6577V2940.15H180.332C182.683 2940.15 183.979 2942.87 182.512 2944.71L142.908 2993.62Z" fill="white"/>
</mask>
<g mask="url(#mask3_117_921)">
<path d="M-214 2993.59L181.957 2993.62L181.971 2963.6C171.699 2963.6 162.639 2968.77 157.225 2976.63C151.812 2968.76 142.751 2963.6 132.48 2963.6C122.208 2963.6 113.148 2968.77 107.734 2976.63C102.321 2968.76 93.2602 2963.6 82.9888 2963.6C72.7173 2963.6 63.6568 2968.77 58.2433 2976.63C52.8297 2968.76 43.7692 2963.6 33.4977 2963.6C23.2263 2963.6 14.1658 2968.77 8.75224 2976.63C3.33871 2968.76 -5.7218 2963.6 -15.9933 2963.6C-26.2647 2963.6 -35.3252 2968.77 -40.7388 2976.63C-41.1946 2975.96 -41.7218 2975.35 -42.2346 2974.71C-42.2916 2974.65 -42.3343 2974.58 -42.3913 2974.51C-42.9327 2973.85 -43.5025 2973.24 -44.0866 2972.64C-44.2148 2972.51 -44.343 2972.39 -44.4713 2972.26C-45.0696 2971.66 -45.6964 2971.11 -46.3375 2970.56C-46.423 2970.49 -46.5227 2970.42 -46.6082 2970.35C-49.4716 2968.03 -52.7482 2966.22 -56.3525 2965.08C-56.495 2965.04 -56.6232 2965 -56.7657 2964.95C-57.5919 2964.7 -58.4467 2964.48 -59.3015 2964.3C-59.4582 2964.27 -59.6291 2964.24 -59.8001 2964.2C-61.6521 2963.84 -63.5468 2963.6 -65.4985 2963.6C-74.5021 2963.6 -82.5796 2967.57 -88.0786 2973.85C-88.8479 2974.74 -89.5745 2975.66 -90.244 2976.63C-95.6576 2968.76 -104.718 2963.6 -114.99 2963.6C-123.993 2963.6 -132.071 2967.57 -137.57 2973.85C-138.339 2974.74 -139.065 2975.66 -139.735 2976.63C-145.149 2968.76 -154.209 2963.6 -164.481 2963.6C-174.752 2963.6 -183.813 2968.77 -189.226 2976.63C-194.64 2968.76 -203.7 2963.6 -213.972 2963.6L-214 2993.59Z" fill="#603835"/>
</g>
<path d="M83.8863 3429.62H-23.6577V3104.57H6.07399C49.0545 3104.57 83.9005 3139.39 83.9005 3182.35V3429.62H83.8863Z" fill="#9B6027"/>
<path d="M66.7197 3407.42H-23.6577V3119.58H1.33003C37.4439 3119.58 66.734 3148.83 66.734 3184.94V3407.42H66.7197Z" fill="#603835"/>
<path d="M142.01 218.235C142.01 218.235 141.868 215.616 140.857 212.683C139.845 209.75 139.346 211.131 139.346 211.131C124.317 228.088 100.583 238.41 73.3727 242.681C64.6968 244.048 55.9354 245.258 47.1171 246.084C47.1028 246.084 47.1028 246.084 47.0886 246.084C19.8358 248.263 -17.4891 237.641 -36.009 231.619L-37.0917 231.035C-36.878 231.192 -36.6358 231.334 -36.4079 231.491C-43.2318 229.27 -47.3917 227.703 -47.3917 227.703V238.097L-50.8392 269.605C-6.76174 280.952 44.8662 267.882 44.8662 267.882C44.8662 267.882 44.9089 267.854 44.9801 267.811C61.9473 265.519 78.4158 261.262 93.5024 255.196C100.811 252.263 107.791 248.903 114.615 245.401C129.36 237.798 143.036 231.405 142.01 218.235Z" fill="#307F4C"/>
<path d="M102.72 237.2C102.72 237.2 72.1332 237.812 88.9152 192.195C88.9152 192.209 127.081 220.399 102.72 237.2Z" fill="#6B9660"/>
<path d="M137.21 234.95C137.21 234.95 134.645 204.482 181.259 218.307C181.259 218.292 155.544 258.172 137.21 234.95Z" fill="#6B9660"/>
<path d="M64.4261 260.108C64.4261 260.108 93.36 236.858 111.068 293.111C111.068 293.111 53.4993 294.307 64.4261 260.108Z" fill="#6B9660"/>
<path d="M42.943 1621.66C42.943 1621.66 75.2104 1623.85 53.8128 1671.76C53.8128 1671.76 15.8896 1637.6 42.943 1621.66Z" fill="#6B9660"/>
<path d="M209.822 1613.98C208.953 1606.28 203.753 1595.86 194.351 1597.98C190.162 1598.92 186.715 1602.59 185.646 1606.69C184.421 1611.42 185.874 1616.4 188.453 1620.4C190.618 1623.77 196.032 1620.65 193.852 1617.26C192.114 1614.57 190.732 1611.15 191.801 1607.93C192.485 1605.84 194.607 1603.73 196.958 1603.96C199.636 1604.22 201.431 1607.15 202.357 1609.38C203.411 1611.92 203.782 1614.48 203.753 1617.17C203.696 1622.06 201.987 1627.18 198.454 1630.6C194.778 1634.16 189.194 1634.91 184.293 1632.73C171.229 1626.93 167.084 1610.31 165.745 1597.48C164.249 1582.99 165.559 1568.37 163.679 1553.9C162.91 1547.92 161.627 1541.87 159.576 1536.13C159.69 1511.07 156.841 1492.12 154.903 1482.24C160.587 1466.77 164.334 1450.15 157.126 1434.49C149.675 1418.32 132.052 1409.99 116.88 1402.65C116.325 1402.38 115.755 1402.13 115.199 1401.86C98.2322 1378.96 78.5298 1359.49 58.6707 1343.2C71.2643 1340.83 83.5444 1336.82 95.0838 1331.24C101.879 1327.95 108.39 1324.13 114.786 1320.12C128.605 1311.42 141.355 1304.17 141.355 1287.73C141.355 1287.73 141.412 1284.47 140.7 1280.77C139.988 1277.06 139.46 1278.76 139.46 1278.76C124.744 1299.09 102.648 1310.72 77.846 1314.66C60.5654 1317.41 42.9145 1319.31 25.577 1316.91C24.3803 1316.74 23.1836 1316.56 21.987 1316.35C-17.9449 1290.23 -51.2808 1277.42 -53.7169 1275.44V1332.23C-53.7169 1332.23 -3.15744 1320.59 63.9845 1392.92C64.882 1398.03 64.5828 1403.45 63.4004 1408.25C61.9758 1414 59.4685 1421.11 53.6418 1423.73C48.1428 1426.2 41.96 1421.48 39.8658 1416.45C38.8401 1413.99 38.6977 1410.63 40.5924 1408.52C41.2905 1407.74 42.6296 1407 43.6411 1407.58C44.2964 1407.96 44.7807 1409.09 44.4673 1409.74C43.9117 1410.91 44.1397 1412.34 45.3221 1413.03C46.3621 1413.65 48.0431 1413.35 48.6129 1412.18C50.3225 1408.58 48.5417 1403.72 44.4103 1402.78C40.1365 1401.81 36.5038 1404.87 35.0507 1408.68C32.0875 1416.44 38.1848 1425.06 45.1796 1428.11C49.1115 1429.82 53.3854 1429.49 57.0751 1427.33C60.7221 1425.19 63.3434 1421.66 65.0957 1417.89C67.8452 1411.99 69.3695 1405.4 69.3553 1398.85C74.1705 1404.29 79.0569 1410.14 84.0146 1416.49C105.754 1444.28 119.487 1475.55 128.078 1505.92C125.229 1517.55 119.231 1532.89 101.979 1549.49C65.9647 1584.14 9.40763 1605.54 -24.9113 1641.26C-50.8107 1668.22 -61.4098 1702.47 -53.3465 1733.15C-50.2124 1745.1 -43.8301 1757.04 -30.8804 1764.03C-37.3766 1745.13 -42.8614 1725.07 -35.8095 1705.4C-32.8321 1697.1 -27.7462 1689.29 -21.5064 1681.88C-23.7003 1695.39 -21.7629 1709.62 -14.07 1721.19C-9.69641 1727.77 -3.74153 1733.04 3.36729 1736.48C11.0744 1740.22 20.2347 1742.88 28.8536 1741.85C36.7887 1740.91 43.5556 1736.84 48.1998 1730.35C52.7158 1724.04 54.0407 1716.03 52.5022 1708.48C50.7499 1699.84 44.8377 1691.59 36.4753 1688.36C28.412 1685.24 18.8386 1688.65 15.7187 1696.95C15.0491 1698.74 16.4737 1700.85 18.2117 1701.33C20.2062 1701.89 21.9157 1700.65 22.5995 1698.84C24.423 1693.97 30.962 1693.46 35.0079 1695.44C40.5924 1698.16 44.1966 1703.89 45.5358 1709.82C48.1856 1721.63 39.9228 1733.96 27.5714 1734.85C20.6763 1735.35 13.4393 1733.41 7.24223 1730.45C1.47255 1727.7 -3.59906 1723.74 -7.2888 1718.49C-14.8535 1707.72 -16.7625 1694.13 -14.2124 1681.38C-13.5001 1677.81 -12.4744 1674.29 -11.2207 1670.88C-7.45977 1667.19 -3.49934 1663.59 0.518063 1660.09C17.8129 1644.98 36.575 1630.77 56.605 1617.64C75.5666 1605.21 96.138 1594.01 112.008 1579.23C123.861 1568.2 131.995 1557.5 137.281 1549.16C145.487 1604.81 139.147 1648.94 139.147 1648.94C150.558 1617.81 156.071 1588.7 158.308 1563.5C159.077 1577.46 158.123 1591.52 160.602 1605.36C162.012 1613.21 164.534 1621.36 169.32 1627.85C173.908 1634.07 180.361 1639.33 188.296 1640.15C202.599 1641.63 211.261 1626.73 209.822 1613.98ZM153.65 1459.66C153.265 1463.14 152.524 1466.55 151.598 1469.91C144.461 1449.47 134.845 1430.84 123.647 1413.93C126.767 1415.57 129.83 1417.29 132.793 1419.16C139.176 1423.18 145.23 1428.11 149.162 1434.66C153.678 1442.19 154.604 1451.06 153.65 1459.66Z" fill="#307F4C"/>
<path d="M113.119 1321.95C113.119 1321.95 142.452 1291.1 171.215 1352.35C171.215 1352.35 105.925 1362.52 113.119 1321.95Z" fill="#6B9660"/>
<path d="M73.9995 1318.37C73.9995 1318.37 34.2101 1303.16 79.7407 1253.09C79.7407 1253.09 114.231 1309.41 73.9995 1318.37Z" fill="#6B9660"/>
<path d="M157.881 1517.75C157.881 1517.75 187.213 1486.9 215.976 1548.15C215.962 1548.13 150.672 1558.31 157.881 1517.75Z" fill="#6B9660"/>
<path d="M75.4669 1573.83C75.4669 1573.83 40.9485 1596.56 25.6055 1531.29C25.6055 1531.28 90.6105 1536.69 75.4669 1573.83Z" fill="#6B9660"/>
<path d="M101.836 1585.71C101.836 1585.71 126.012 1592 103.104 1626.53C103.119 1626.54 79.1139 1594.39 101.836 1585.71Z" fill="#6B9660"/>
<path d="M141.512 1079.06C141.512 1079.06 141.369 1076.44 140.358 1073.51C139.346 1070.57 138.848 1071.96 138.848 1071.96C123.818 1088.91 100.084 1099.23 72.8741 1103.51C64.1982 1104.87 55.4368 1106.08 46.6185 1106.91C46.6042 1106.91 46.6042 1106.91 46.59 1106.91C19.3372 1109.09 -17.9877 1098.47 -36.5076 1092.44L-37.5903 1091.86C-37.3766 1092.02 -37.1345 1092.16 -36.9065 1092.32C-43.7304 1090.09 -47.8903 1088.53 -47.8903 1088.53V1098.92L-51.3378 1130.43C-7.26034 1141.78 44.3676 1128.71 44.3676 1128.71C44.3676 1128.71 44.4103 1128.68 44.4816 1128.64C61.4487 1126.34 77.9172 1122.09 93.0038 1116.02C100.312 1113.09 107.293 1109.73 114.117 1106.23C128.876 1098.61 142.538 1092.23 141.512 1079.06Z" fill="#307F4C"/>
<path d="M102.221 1098.01C102.221 1098.01 71.6347 1098.62 88.4166 1053C88.4166 1053.02 126.596 1081.21 102.221 1098.01Z" fill="#6B9660"/>
<path d="M136.711 1095.76C136.711 1095.76 134.147 1065.29 180.76 1079.12C180.76 1079.12 155.06 1118.98 136.711 1095.76Z" fill="#6B9660"/>
<path d="M63.9418 1120.92C63.9418 1120.92 92.8756 1097.67 110.584 1153.92C110.584 1153.92 53.0007 1155.12 63.9418 1120.92Z" fill="#6B9660"/>
<path d="M43.9972 2502.22C43.9972 2502.22 76.2646 2504.41 54.8669 2552.32C54.8669 2552.32 16.9438 2518.18 43.9972 2502.22Z" fill="#6B9660"/>
<path d="M210.876 2494.56C210.007 2486.85 204.807 2476.43 195.405 2478.55C191.217 2479.49 187.769 2483.17 186.701 2487.27C185.475 2491.99 186.928 2496.98 189.507 2500.98C191.672 2504.34 197.086 2501.22 194.906 2497.83C193.168 2495.14 191.786 2491.72 192.855 2488.5C193.539 2486.41 195.661 2484.3 198.012 2484.53C200.69 2484.79 202.485 2487.72 203.411 2489.96C204.465 2492.49 204.836 2495.05 204.807 2497.74C204.75 2502.63 203.041 2507.75 199.508 2511.17C195.832 2514.73 190.248 2515.49 185.347 2513.31C172.283 2507.5 168.138 2490.88 166.799 2478.05C165.303 2463.56 166.614 2448.94 164.733 2434.47C163.964 2428.49 162.682 2422.44 160.63 2416.7C160.744 2391.65 157.895 2372.7 155.957 2362.81C161.642 2347.34 165.388 2330.72 158.18 2315.06C150.729 2298.89 133.107 2290.56 117.935 2283.23C117.379 2282.96 116.809 2282.7 116.254 2282.43C99.2864 2259.53 79.584 2240.06 59.7249 2223.77C72.3185 2221.41 84.5986 2217.39 96.138 2211.81C102.933 2208.52 109.444 2204.7 115.84 2200.69C129.659 2191.99 142.409 2184.74 142.409 2168.31C142.409 2168.31 142.466 2165.05 141.754 2161.35C141.042 2157.65 140.515 2159.34 140.515 2159.34C125.798 2179.68 103.703 2191.31 78.9002 2195.25C61.6196 2198 43.9687 2199.89 26.6312 2197.5C25.4345 2197.33 24.2378 2197.14 23.0412 2196.93C-16.8907 2170.82 -50.2266 2158.01 -52.6627 2156.03V2212.82C-52.6627 2212.82 -2.10326 2201.17 65.0387 2273.5C65.9362 2278.61 65.637 2284.04 64.4546 2288.84C63.03 2294.59 60.5227 2301.69 54.696 2304.31C49.197 2306.79 43.0142 2302.06 40.92 2297.04C39.8943 2294.57 39.7518 2291.21 41.6466 2289.11C42.3446 2288.32 43.6838 2287.58 44.6952 2288.17C45.3506 2288.55 45.8349 2289.68 45.5215 2290.33C44.9659 2291.5 45.1939 2292.92 46.3763 2293.62C47.4163 2294.23 49.0973 2293.93 49.6671 2292.76C51.3767 2289.16 49.5959 2284.31 45.4645 2283.37C41.1907 2282.4 37.5579 2285.46 36.1048 2289.26C33.1416 2297.02 39.239 2305.65 46.2338 2308.7C50.1657 2310.41 54.4396 2310.08 58.1293 2307.91C61.7763 2305.78 64.3976 2302.25 66.1499 2298.47C68.8994 2292.58 70.4237 2285.99 70.4095 2279.44C75.2247 2284.88 80.1111 2290.73 85.0687 2297.08C106.808 2324.87 120.542 2356.14 129.132 2386.51C126.283 2398.14 120.285 2413.47 103.033 2430.07C67.0189 2464.73 10.4618 2486.13 -23.8571 2521.85C-49.7565 2548.8 -60.3556 2583.06 -52.2923 2613.74C-49.1582 2625.68 -42.7759 2637.63 -29.8262 2644.62C-36.3224 2625.71 -41.8072 2605.65 -34.7554 2585.99C-31.7779 2577.69 -26.692 2569.87 -20.4522 2562.47C-22.6461 2575.98 -20.7087 2590.2 -13.0158 2601.78C-8.64221 2608.36 -2.68733 2613.63 4.42149 2617.07C12.1286 2620.8 21.2889 2623.46 29.9078 2622.44C37.8429 2621.5 44.6098 2617.43 49.254 2610.93C53.77 2604.63 55.0949 2596.61 53.5563 2589.07C51.8041 2580.42 45.8919 2572.18 37.5294 2568.95C29.4661 2565.83 19.8928 2569.23 16.7729 2577.53C16.1033 2579.33 17.5279 2581.43 19.2659 2581.92C21.2604 2582.47 22.9699 2581.23 23.6537 2579.43C25.4772 2574.56 32.0162 2574.04 36.0621 2576.02C41.6466 2578.74 45.2508 2584.48 46.59 2590.4C49.2398 2602.22 40.977 2614.55 28.6256 2615.43C21.7305 2615.93 14.4935 2614 8.29641 2611.03C2.52673 2608.29 -2.54488 2604.33 -6.23463 2599.07C-13.7993 2588.31 -15.7083 2574.71 -13.1582 2561.97C-12.4459 2558.4 -11.4202 2554.88 -10.1665 2551.46C-6.40557 2547.78 -2.44514 2544.17 1.57226 2540.67C18.8671 2525.57 37.6292 2511.36 57.6592 2498.23C76.6208 2485.8 97.1922 2474.59 113.062 2459.82C124.915 2448.78 133.05 2438.09 138.335 2429.75C146.541 2485.4 140.201 2529.52 140.201 2529.52C151.612 2498.4 157.126 2469.28 159.362 2444.08C160.132 2458.05 159.177 2472.1 161.656 2485.94C163.066 2493.8 165.588 2501.94 170.375 2508.44C174.962 2514.66 181.415 2519.91 189.35 2520.74C203.653 2522.19 212.315 2507.28 210.876 2494.56ZM154.704 2340.22C154.319 2343.69 153.578 2347.11 152.652 2350.47C145.515 2330.03 135.899 2311.4 124.701 2294.49C127.821 2296.13 130.884 2297.85 133.847 2299.71C140.23 2303.74 146.284 2308.67 150.216 2315.22C154.732 2322.76 155.658 2331.63 154.704 2340.22Z" fill="#307F4C"/>
<path d="M114.174 2202.53C114.174 2202.53 143.506 2171.67 172.269 2232.92C172.269 2232.92 106.979 2243.09 114.174 2202.53Z" fill="#6B9660"/>
<path d="M75.0537 2198.94C75.0537 2198.94 35.2643 2183.73 80.7949 2133.66C80.7949 2133.66 115.285 2189.98 75.0537 2198.94Z" fill="#6B9660"/>
<path d="M158.935 2398.32C158.935 2398.32 188.268 2367.47 217.031 2428.72C217.016 2428.71 151.726 2438.89 158.935 2398.32Z" fill="#6B9660"/>
<path d="M76.5211 2454.41C76.5211 2454.41 42.0027 2477.13 26.6597 2411.86C26.6597 2411.85 91.6647 2417.26 76.5211 2454.41Z" fill="#6B9660"/>
<path d="M102.891 2466.28C102.891 2466.28 127.066 2472.57 104.159 2507.1C104.173 2507.1 80.1681 2474.95 102.891 2466.28Z" fill="#6B9660"/>
<path d="M143.521 2842.47C143.521 2842.47 143.378 2839.85 142.367 2836.92C141.355 2833.98 140.857 2835.36 140.857 2835.36C125.827 2852.32 102.093 2862.64 74.8828 2866.91C66.2069 2868.28 57.4456 2869.49 48.6272 2870.32C48.613 2870.32 48.613 2870.32 48.5987 2870.32C21.3459 2872.5 -15.9789 2861.87 -34.4989 2855.85L-35.5816 2855.27C-35.3679 2855.42 -35.1257 2855.57 -34.8978 2855.72C-41.7217 2853.5 -45.8815 2851.92 -45.8815 2851.92V2862.32L-49.3291 2893.82C-5.25161 2905.17 46.3763 2892.1 46.3763 2892.1C46.3763 2892.1 46.4191 2892.07 46.4903 2892.03C63.4574 2889.74 79.9259 2885.48 95.0126 2879.41C102.321 2876.48 109.301 2873.12 116.125 2869.62C130.87 2862.02 144.546 2855.62 143.521 2842.47Z" fill="#307F4C"/>
<path d="M104.23 2861.42C104.23 2861.42 73.6434 2862.03 90.4253 2816.41C90.4253 2816.43 128.591 2844.62 104.23 2861.42Z" fill="#6B9660"/>
<path d="M138.72 2859.17C138.72 2859.17 136.155 2828.7 182.769 2842.53C182.769 2842.51 157.069 2882.39 138.72 2859.17Z" fill="#6B9660"/>
<path d="M65.9505 2884.33C65.9505 2884.33 94.8844 2861.08 112.592 2917.33C112.592 2917.33 55.0095 2918.53 65.9505 2884.33Z" fill="#6B9660"/>
<path d="M42.6865 3376.61C42.6865 3376.61 74.954 3378.8 53.5563 3426.71C53.5706 3426.71 15.6474 3392.56 42.6865 3376.61Z" fill="#6B9660"/>
<path d="M209.58 3368.93C208.711 3361.23 203.511 3350.81 194.109 3352.93C189.92 3353.87 186.473 3357.54 185.404 3361.65C184.179 3366.37 185.632 3371.36 188.211 3375.36C190.376 3378.72 195.79 3375.6 193.61 3372.21C191.872 3369.52 190.49 3366.1 191.558 3362.88C192.242 3360.79 194.365 3358.68 196.716 3358.91C199.394 3359.17 201.189 3362.1 202.115 3364.34C203.169 3366.87 203.539 3369.43 203.511 3372.12C203.454 3377.01 201.744 3382.13 198.211 3385.55C194.536 3389.11 188.951 3389.86 184.051 3387.69C170.987 3381.88 166.842 3365.26 165.502 3352.43C164.007 3337.94 165.317 3323.32 163.437 3308.85C162.667 3302.87 161.385 3296.82 159.334 3291.08C159.448 3266.02 156.599 3247.07 154.661 3237.19C160.345 3221.72 164.092 3205.1 156.883 3189.44C149.433 3173.27 131.81 3164.94 116.638 3157.6C116.083 3157.33 115.513 3157.08 114.957 3156.81C97.99 3133.91 78.2876 3114.44 58.4285 3098.15C71.0221 3095.78 83.3022 3091.77 94.8416 3086.19C101.637 3082.9 108.147 3079.08 114.544 3075.07C128.363 3066.37 141.113 3059.12 141.113 3042.68C141.113 3042.68 141.17 3039.42 140.458 3035.72C139.745 3032.01 139.218 3033.71 139.218 3033.71C124.502 3054.04 102.406 3065.67 77.6038 3069.62C60.3233 3072.36 42.6723 3074.26 25.3348 3071.87C24.1381 3071.69 22.9414 3071.51 21.7448 3071.3C-18.1871 3045.18 -51.523 3032.37 -53.9591 3030.39V3087.19C-53.9591 3087.19 -3.39963 3075.54 63.7423 3147.87C64.6398 3152.98 64.3407 3158.4 63.1582 3163.2C61.7336 3168.95 59.2263 3176.06 53.3996 3178.68C47.9006 3181.15 41.7178 3176.43 39.6236 3171.4C38.5979 3168.94 38.4555 3165.58 40.3502 3163.47C41.0482 3162.69 42.3874 3161.95 43.3988 3162.53C44.0542 3162.92 44.5385 3164.04 44.2251 3164.7C43.6695 3165.86 43.8975 3167.29 45.0799 3167.98C46.1199 3168.6 47.8009 3168.3 48.3708 3167.13C50.0803 3163.53 48.2995 3158.67 44.1682 3157.73C39.8943 3156.77 36.2616 3159.83 34.8084 3163.63C31.8453 3171.39 37.9426 3180.01 44.9374 3183.06C48.8694 3184.77 53.1432 3184.44 56.833 3182.28C60.48 3180.14 63.1012 3176.61 64.8535 3172.84C67.603 3166.94 69.1273 3160.35 69.1131 3153.8C73.9283 3159.24 78.8147 3165.11 83.7724 3171.44C105.512 3199.24 119.245 3230.5 127.836 3260.87C124.986 3272.5 118.989 3287.84 101.737 3304.44C65.7225 3339.09 9.16544 3360.49 -25.1535 3396.21C-51.0529 3423.17 -61.652 3457.42 -53.5887 3488.1C-50.4546 3500.05 -44.0723 3512 -31.1226 3518.99C-37.6188 3500.08 -43.1036 3480.02 -36.0517 3460.35C-33.0743 3452.05 -27.9884 3444.24 -21.7486 3436.83C-23.9425 3450.35 -22.0051 3464.57 -14.3122 3476.14C-9.9386 3482.72 -3.98372 3487.99 3.1251 3491.44C10.8322 3495.17 19.9925 3497.83 28.6114 3496.8C36.5465 3495.86 43.3134 3491.79 47.9576 3485.3C52.4736 3478.99 53.7985 3470.98 52.2599 3463.43C50.5077 3454.79 44.5955 3446.54 36.2331 3443.31C28.1698 3440.19 18.5964 3443.6 15.4765 3451.9C14.8069 3453.69 16.2315 3455.8 17.9696 3456.28C19.964 3456.84 21.6735 3455.6 22.3574 3453.79C24.1809 3448.92 30.7198 3448.41 34.7657 3450.39C40.3502 3453.11 43.9545 3458.85 45.2936 3464.77C47.9434 3476.59 39.6806 3488.92 27.3292 3489.8C20.4341 3490.3 13.1971 3488.36 7.00005 3485.4C1.23037 3482.65 -3.84127 3478.69 -7.53101 3473.44C-15.0957 3462.68 -17.0047 3449.08 -14.4546 3436.34C-13.7423 3432.76 -12.7166 3429.25 -11.4629 3425.83C-7.70196 3422.14 -3.74153 3418.54 0.275875 3415.04C17.5707 3399.93 36.3328 3385.72 56.3628 3372.59C75.3244 3360.16 95.8958 3348.96 111.766 3334.18C123.619 3323.15 131.753 3312.45 137.039 3304.11C145.244 3359.77 138.905 3403.89 138.905 3403.89C150.316 3372.76 155.829 3343.65 158.066 3318.45C158.835 3332.42 157.881 3346.47 160.359 3360.31C161.77 3368.17 164.291 3376.31 169.078 3382.8C173.665 3389.02 180.119 3394.28 188.054 3395.1C202.357 3396.57 211.019 3381.68 209.58 3368.93ZM153.407 3214.61C153.023 3218.09 152.282 3221.5 151.356 3224.86C144.219 3204.42 134.603 3185.8 123.405 3168.88C126.525 3170.52 129.588 3172.24 132.551 3174.11C138.933 3178.14 144.988 3183.06 148.92 3189.61C153.436 3197.14 154.348 3206.01 153.407 3214.61Z" fill="#307F4C"/>
<path d="M112.877 3076.91C112.877 3076.91 142.21 3046.05 170.973 3107.3C170.973 3107.3 105.669 3117.47 112.877 3076.91Z" fill="#6B9660"/>
<path d="M73.7573 3073.32C73.7573 3073.32 33.9679 3058.11 79.4985 3008.04C79.4985 3008.04 113.988 3064.36 73.7573 3073.32Z" fill="#6B9660"/>
<path d="M157.624 3272.7C157.624 3272.7 186.957 3241.85 215.72 3303.1C215.72 3303.09 150.43 3313.27 157.624 3272.7Z" fill="#6B9660"/>
<path d="M75.2104 3328.78C75.2104 3328.78 40.6921 3351.51 25.349 3286.24C25.3632 3286.23 90.3683 3291.64 75.2104 3328.78Z" fill="#6B9660"/>
<path d="M101.594 3340.66C101.594 3340.66 125.77 3346.95 102.862 3381.48C102.876 3381.49 78.8717 3349.34 101.594 3340.66Z" fill="#6B9660"/>
</g>
<defs>
<clipPath id="clip0_117_921">
<rect width="478" height="3574" fill="white" transform="translate(-214)"/>
</clipPath>
</defs>
</svg>
