<svg id="Layer_4" data-name="Layer 4" xmlns="http://www.w3.org/2000/svg" xmlns:xlink="http://www.w3.org/1999/xlink" viewBox="0 0 509.98 1287.86"><defs><style>.cls-1{fill:none;}.cls-2{fill:#cb862a;}.cls-3{fill:#7c433e;}.cls-4{fill:#9b6027;}.cls-5{clip-path:url(#clip-path);}.cls-6{fill:#603835;}.cls-7{clip-path:url(#clip-path-2);}.cls-8{fill:#307f4c;}.cls-9{fill:#6b9660;}.cls-10{fill:#cd872a;}.cls-11{clip-path:url(#clip-path-3);}.cls-12{clip-path:url(#clip-path-4);}.cls-13{clip-path:url(#clip-path-5);}.cls-14{fill:#592b29;}.cls-15{fill:#48a075;}.cls-16{fill:#356654;}.cls-17{clip-path:url(#clip-path-6);}.cls-18{clip-path:url(#clip-path-7);}.cls-19{clip-path:url(#clip-path-8);}.cls-20{clip-path:url(#clip-path-9);}.cls-21{clip-path:url(#clip-path-10);}</style><clipPath id="clip-path" transform="translate(-206.31 -49.82)"><path class="cls-1" d="M307.87,154.12H260.75V139h57.71a.79.79,0,0,1,.62,1.29Z"/></clipPath><clipPath id="clip-path-2" transform="translate(-206.31 -49.82)"><path class="cls-1" d="M307.87,396.13H260.75V381h57.71a.79.79,0,0,1,.62,1.29Z"/></clipPath><clipPath id="clip-path-3" transform="translate(-206.31 -49.82)"><path class="cls-1" d="M308.63,934.94H261V919.65h58.29A.8.8,0,0,1,320,921Z"/></clipPath><clipPath id="clip-path-4" transform="translate(-206.31 -49.82)"><path class="cls-1" d="M308.63,1178.26H261V1163h58.29a.8.8,0,0,1,.63,1.3Z"/></clipPath><clipPath id="clip-path-5" transform="translate(-206.31 -49.82)"><path class="cls-1" d="M308.3,694.11H260.7V678.83H319a.8.8,0,0,1,.62,1.3Z"/></clipPath><clipPath id="clip-path-6" transform="translate(-206.31 -49.82)"><path class="cls-1" d="M614.72,154.6h47.12V139.47H604.13a.78.78,0,0,0-.61,1.28Z"/></clipPath><clipPath id="clip-path-7" transform="translate(-206.31 -49.82)"><path class="cls-1" d="M614.72,396.61h47.12V381.48H604.13a.79.79,0,0,0-.61,1.29Z"/></clipPath><clipPath id="clip-path-8" transform="translate(-206.31 -49.82)"><path class="cls-1" d="M614,935.42h47.6V920.13H603.27a.79.79,0,0,0-.62,1.3Z"/></clipPath><clipPath id="clip-path-9" transform="translate(-206.31 -49.82)"><path class="cls-1" d="M614,1178.73h47.6v-15.28H603.27a.79.79,0,0,0-.62,1.3Z"/></clipPath><clipPath id="clip-path-10" transform="translate(-206.31 -49.82)"><path class="cls-1" d="M614.29,694.59h47.6V679.3H603.6a.8.8,0,0,0-.62,1.3Z"/></clipPath></defs><path class="cls-2" d="M260.75,142.82H308V102.74c1.36-11.2,6.53-15.59,6.53-15.59H308V81H260.75Z" transform="translate(-206.31 -49.82)"/><path class="cls-3" d="M260.75,88.53h55.12s15.94.38,9.48-13.76c-4.68-10.22.63-12.65,3.93-13.22A5.9,5.9,0,0,0,333.05,72a5.07,5.07,0,0,0,.68,0h0s9.81-.45,8.23-12.52-14.1-9.36-14.1-9.36-10.93.76-11.84,10.81S278.82,72,278.82,72H260.75Z" transform="translate(-206.31 -49.82)"/><rect class="cls-2" x="54.44" y="104.96" width="46.04" height="164.63"/><path class="cls-4" d="M307.87,154.18H260.75V139h57.71a.79.79,0,0,1,.62,1.29Z" transform="translate(-206.31 -49.82)"/><path class="cls-4" d="M54.44,104h46.71a3.19,3.19,0,0,1,3.19,3.19v0a3.19,3.19,0,0,1-3.19,3.19H54.44a0,0,0,0,1,0,0V104a0,0,0,0,1,0,0Z"/><g class="cls-5"><path class="cls-6" d="M206.9,154.12h112v-8.49a8.48,8.48,0,0,0-7,3.69,8.49,8.49,0,0,0-14,0,8.48,8.48,0,0,0-14,0,8.48,8.48,0,0,0-14,0,8.49,8.49,0,0,0-14,0c-.13-.19-.28-.37-.42-.54l0-.06c-.15-.18-.32-.36-.48-.53a.57.57,0,0,1-.11-.11c-.17-.17-.35-.33-.53-.48l-.08-.06A8.35,8.35,0,0,0,251.5,146l-.12,0q-.34-.1-.72-.18l-.14,0a8.34,8.34,0,0,0-8,2.73,7.9,7.9,0,0,0-.61.79,8.49,8.49,0,0,0-13.39-.79,9.1,9.1,0,0,0-.61.78,8.51,8.51,0,0,0-14,0,8.49,8.49,0,0,0-7-3.69Z" transform="translate(-206.31 -49.82)"/></g><path class="cls-4" d="M54.44,136.71h0a30.43,30.43,0,0,1,30.43,30.43v61.59a0,0,0,0,1,0,0H54.44a0,0,0,0,1,0,0v-92A0,0,0,0,1,54.44,136.71Z"/><path class="cls-6" d="M54.44,141h0A25.57,25.57,0,0,1,80,166.52v55.91a0,0,0,0,1,0,0H54.44a0,0,0,0,1,0,0V141A0,0,0,0,1,54.44,141Z"/><path class="cls-2" d="M260.75,387.7h46V338.79c1.32-13.66,6.35-19,6.35-19h-6.35V312.3h-46Z" transform="translate(-206.31 -49.82)"/><path class="cls-3" d="M260.75,326.71h54.16s15.65.37,9.3-13.51c-4.59-10.05.63-12.44,3.87-13a5.79,5.79,0,0,0,3.7,10.25,4.92,4.92,0,0,0,.67,0h0s9.64-.45,8.08-12.3-13.84-9.19-13.84-9.19-10.75.74-11.63,10.61-36.56,10.88-36.56,10.88H260.75Z" transform="translate(-206.31 -49.82)"/><rect class="cls-2" x="54.44" y="342.77" width="46.04" height="294.47"/><path class="cls-4" d="M307.87,396.13H260.75V381h57.71a.79.79,0,0,1,.62,1.29Z" transform="translate(-206.31 -49.82)"/><path class="cls-4" d="M54.44,346h46.71a3.19,3.19,0,0,1,3.19,3.19v0a3.19,3.19,0,0,1-3.19,3.19H54.44a0,0,0,0,1,0,0V346A0,0,0,0,1,54.44,346Z"/><g class="cls-7"><path class="cls-6" d="M206.9,396.13h112v-8.49a8.48,8.48,0,0,0-7,3.69,8.49,8.49,0,0,0-14,0,8.5,8.5,0,0,0-14,0,8.48,8.48,0,0,0-14,0,8.49,8.49,0,0,0-14,0c-.13-.19-.28-.37-.42-.54l0-.06c-.15-.18-.32-.36-.48-.53a.57.57,0,0,1-.11-.11c-.17-.16-.35-.33-.53-.48l-.08-.06a8.35,8.35,0,0,0-2.75-1.49l-.12,0q-.34-.11-.72-.18l-.14,0a8.34,8.34,0,0,0-8,2.73,7.9,7.9,0,0,0-.61.79,8.49,8.49,0,0,0-13.39-.79,7.9,7.9,0,0,0-.61.79,8.5,8.5,0,0,0-14,0,8.49,8.49,0,0,0-7-3.69Z" transform="translate(-206.31 -49.82)"/></g><path class="cls-4" d="M54.44,364.36h0a30.43,30.43,0,0,1,30.43,30.43v61.59a0,0,0,0,1,0,0H54.44a0,0,0,0,1,0,0v-92A0,0,0,0,1,54.44,364.36Z"/><path class="cls-6" d="M54.44,368.61h0A25.57,25.57,0,0,1,80,394.18v55.91a0,0,0,0,1,0,0H54.44a0,0,0,0,1,0,0V368.61A0,0,0,0,1,54.44,368.61Z"/><path class="cls-8" d="M309.58,109.65a6.6,6.6,0,0,0-.32-1.57c-.29-.83-.43-.44-.43-.44-4.25,4.8-11,7.72-18.67,8.93-2.45.39-4.93.73-7.42,1h0c-7.71.61-18.27-2.39-23.51-4.1l-.3-.16.19.12c-1.93-.63-3.11-1.07-3.11-1.07v2.94l-1,8.92c12.47,3.21,27.08-.49,27.08-.49l0,0a57.13,57.13,0,0,0,13.73-3.57c2.07-.83,4-1.78,6-2.77C306,115.19,309.87,113.38,309.58,109.65Z" transform="translate(-206.31 -49.82)"/><path class="cls-9" d="M298.47,115s-8.66.17-3.91-12.74C294.56,102.28,305.36,110.26,298.47,115Z" transform="translate(-206.31 -49.82)"/><path class="cls-9" d="M308.22,114.38s-.72-8.62,12.47-4.71C320.69,109.67,313.41,121,308.22,114.38Z" transform="translate(-206.31 -49.82)"/><path class="cls-9" d="M287.64,121.51s8.18-6.58,13.19,9.34C300.83,130.85,284.54,131.19,287.64,121.51Z" transform="translate(-206.31 -49.82)"/><path class="cls-9" d="M278.35,497.36s9.55.61,3.22,13.94C281.57,511.3,270.36,501.8,278.35,497.36Z" transform="translate(-206.31 -49.82)"/><path class="cls-8" d="M327.7,495.22c-.26-2.14-1.79-5-4.58-4.45a3.49,3.49,0,0,0-2.57,2.42,4.62,4.62,0,0,0,.83,3.82c.64.94,2.24.07,1.59-.88a3,3,0,0,1-.61-2.59,1.64,1.64,0,0,1,1.53-1.11c.79.07,1.33.89,1.6,1.51a5.07,5.07,0,0,1,.41,2.16,5.16,5.16,0,0,1-1.57,3.74,3.94,3.94,0,0,1-4.18.59c-3.87-1.61-5.09-6.23-5.49-9.81-.44-4-.05-8.1-.61-12.12a22,22,0,0,0-1.21-4.95,73.87,73.87,0,0,0-1.38-15c1.68-4.3,2.78-8.93.65-13.28s-7.41-6.82-11.9-8.86l-.49-.22A95.63,95.63,0,0,0,283,419.86a44.54,44.54,0,0,0,10.77-3.32,62.27,62.27,0,0,0,5.82-3.1c4.09-2.42,7.86-4.44,7.86-9a10.32,10.32,0,0,0-.2-1.94c-.2-1-.36-.56-.36-.56-4.35,5.66-10.89,8.9-18.22,10a55.7,55.7,0,0,1-15.46.63l-1.06-.16c-11.81-7.27-21.66-10.83-22.38-11.38v15.8s15-3.24,34.8,16.89a9.84,9.84,0,0,1-.17,4.26c-.42,1.6-1.16,3.58-2.89,4.31s-3.45-.63-4.07-2a2,2,0,0,1,.21-2.21.82.82,0,0,1,.91-.26.53.53,0,0,1,.24.6.67.67,0,0,0,.25.92.75.75,0,0,0,1-.24,1.84,1.84,0,0,0-1.24-2.62,2.49,2.49,0,0,0-2.76,1.64c-.88,2.16.92,4.56,3,5.41a4,4,0,0,0,3.52-.22,5.91,5.91,0,0,0,2.37-2.63,11.87,11.87,0,0,0,1.26-5.29c1.43,1.51,2.87,3.14,4.34,4.91a70.17,70.17,0,0,1,13,24.88c-.84,3.24-2.61,7.5-7.71,12.12-10.65,9.65-27.37,15.6-37.52,25.55-7.66,7.5-10.8,17-8.41,25.57a13.11,13.11,0,0,0,6.64,8.59c-1.92-5.26-3.54-10.85-1.46-16.32a21.63,21.63,0,0,1,4.23-6.54,14.55,14.55,0,0,0,2.2,10.94,12.86,12.86,0,0,0,5.16,4.25,14.85,14.85,0,0,0,7.54,1.5,8.25,8.25,0,0,0,5.72-3.21,7.43,7.43,0,0,0,1.27-6.08,7.76,7.76,0,0,0-4.74-5.6,4.8,4.8,0,0,0-6.14,2.39,1,1,0,0,0,.74,1.22,1.08,1.08,0,0,0,1.29-.69c.54-1.36,2.48-1.5,3.67-1a5.84,5.84,0,0,1,3.11,4,5.77,5.77,0,0,1-5.31,7,12.94,12.94,0,0,1-6-1.22,11,11,0,0,1-4.3-3.33,12.73,12.73,0,0,1-2-10.33,18.85,18.85,0,0,1,.88-2.92q1.68-1.55,3.47-3a150.56,150.56,0,0,1,16.58-11.8c5.61-3.46,11.69-6.58,16.39-10.7a43.75,43.75,0,0,0,7.47-8.36,100.33,100.33,0,0,1,.55,27.76,88.71,88.71,0,0,0,5.67-23.78c.22,3.89-.06,7.8.68,11.65a14.41,14.41,0,0,0,2.58,6.27,8.33,8.33,0,0,0,5.61,3.42C325.56,502.91,328.13,498.77,327.7,495.22Zm-16.61-43a16.56,16.56,0,0,1-.61,2.86,68.5,68.5,0,0,0-8.26-15.58c.92.45,1.83.93,2.7,1.45a14.2,14.2,0,0,1,4.84,4.32A10.44,10.44,0,0,1,311.09,452.27Z" transform="translate(-206.31 -49.82)"/><path class="cls-9" d="M299.11,414s8.67-8.58,17.17,8.46C316.28,422.41,297,425.24,299.11,414Z" transform="translate(-206.31 -49.82)"/><path class="cls-9" d="M287.54,413s-11.77-4.24,1.69-18.17C289.23,394.79,299.44,410.46,287.54,413Z" transform="translate(-206.31 -49.82)"/><path class="cls-9" d="M312.34,468.44s8.67-8.59,17.18,8.46C329.52,476.9,310.21,479.73,312.34,468.44Z" transform="translate(-206.31 -49.82)"/><path class="cls-9" d="M288,484.05s-10.21,6.32-14.74-11.84C273.23,472.21,292.45,473.71,288,484.05Z" transform="translate(-206.31 -49.82)"/><path class="cls-9" d="M295.77,487.35s7.15,1.76.38,11.36C296.15,498.71,289.05,489.77,295.77,487.35Z" transform="translate(-206.31 -49.82)"/><path class="cls-8" d="M307.48,348a6.39,6.39,0,0,0-.33-1.58c-.29-.83-.42-.44-.42-.44-4.25,4.8-11,7.72-18.67,8.93-2.45.39-4.93.74-7.43,1h0c-7.71.61-18.27-2.39-23.51-4.1l-.31-.16.19.13c-1.93-.63-3.1-1.08-3.1-1.08v2.95l-1,8.91c12.47,3.22,27.08-.48,27.08-.48l0,0a57.61,57.61,0,0,0,13.73-3.58c2.06-.83,4-1.78,6-2.77C303.9,353.54,307.77,351.73,307.48,348Z" transform="translate(-206.31 -49.82)"/><path class="cls-9" d="M296.36,353.37s-8.65.18-3.9-12.73C292.46,340.64,303.26,348.62,296.36,353.37Z" transform="translate(-206.31 -49.82)"/><path class="cls-9" d="M306.12,352.73s-.72-8.62,12.46-4.71C318.58,348,311.31,359.31,306.12,352.73Z" transform="translate(-206.31 -49.82)"/><path class="cls-9" d="M285.53,359.86s8.19-6.58,13.2,9.34C298.73,369.2,282.44,369.54,285.53,359.86Z" transform="translate(-206.31 -49.82)"/><path class="cls-10" d="M260.77,882.33h45.91v3.92h36.66s-34,3.45-36.84,19.34v16H260.77Z" transform="translate(-206.31 -49.82)"/><rect class="cls-2" x="54.72" y="875.77" width="46.51" height="166.3"/><path class="cls-4" d="M308.63,934.94H261V919.65h58.29A.8.8,0,0,1,320,921Z" transform="translate(-206.31 -49.82)"/><path class="cls-4" d="M54.72,884.77h47.18a3.23,3.23,0,0,1,3.23,3.23v0a3.23,3.23,0,0,1-3.23,3.23H54.72a0,0,0,0,1,0,0v-6.45a0,0,0,0,1,0,0Z"/><g class="cls-11"><path class="cls-6" d="M206.64,934.93H319.79v-8.58a8.59,8.59,0,0,0-7.07,3.72,8.58,8.58,0,0,0-14.14,0,8.59,8.59,0,0,0-14.15,0,8.57,8.57,0,0,0-14.14,0,8.57,8.57,0,0,0-14.15,0c-.13-.19-.28-.37-.42-.55l-.05-.06c-.15-.18-.31-.36-.48-.53l-.11-.11c-.17-.17-.35-.33-.54-.49l-.07-.06a8.67,8.67,0,0,0-2.79-1.51l-.11,0c-.24-.07-.48-.13-.73-.18l-.14,0a8.75,8.75,0,0,0-1.63-.17,8.57,8.57,0,0,0-6.45,2.93,9.36,9.36,0,0,0-.62.79,8.57,8.57,0,0,0-13.52-.79,7.68,7.68,0,0,0-.62.79,8.59,8.59,0,0,0-14.15,0,8.56,8.56,0,0,0-7.07-3.73Z" transform="translate(-206.31 -49.82)"/></g><path class="cls-4" d="M54.72,907.84h0a30.73,30.73,0,0,1,30.73,30.73v62.21a0,0,0,0,1,0,0H54.72a0,0,0,0,1,0,0V907.84A0,0,0,0,1,54.72,907.84Z"/><path class="cls-6" d="M54.72,912.13h0A25.83,25.83,0,0,1,80.55,938v56.48a0,0,0,0,1,0,0H54.72a0,0,0,0,1,0,0v-82.3A0,0,0,0,1,54.72,912.13Z"/><path class="cls-2" d="M261,1166.4h46.45v-43.22c1.34-12.08,6.42-16.81,6.42-16.81h-6.42v-6.6H261Z" transform="translate(-206.31 -49.82)"/><path class="cls-3" d="M261,1106.64h55.68s16.1.38,9.57-13.89c-4.73-10.33.64-12.78,4-13.35a6,6,0,0,0,3.81,10.54c.23,0,.46,0,.69,0h0s9.91-.45,8.32-12.64-14.24-9.45-14.24-9.45-11.05.76-12,10.91-37.58,11.18-37.58,11.18H261Z" transform="translate(-206.31 -49.82)"/><rect class="cls-2" x="54.72" y="1121.09" width="46.51" height="166.3"/><path class="cls-4" d="M308.63,1178.26H261V1163h58.29a.8.8,0,0,1,.63,1.3Z" transform="translate(-206.31 -49.82)"/><path class="cls-4" d="M54.72,1128.09h47.18a3.23,3.23,0,0,1,3.23,3.23v0a3.23,3.23,0,0,1-3.23,3.23H54.72a0,0,0,0,1,0,0v-6.45A0,0,0,0,1,54.72,1128.09Z"/><g class="cls-12"><path class="cls-6" d="M206.64,1178.25H319.79v-8.58a8.57,8.57,0,0,0-7.07,3.72,8.57,8.57,0,0,0-14.14,0,8.57,8.57,0,0,0-14.15,0,8.57,8.57,0,0,0-14.14,0,8.59,8.59,0,0,0-14.15,0c-.13-.19-.28-.37-.42-.55l-.05,0a6,6,0,0,0-.48-.53l-.11-.12a6.17,6.17,0,0,0-.54-.48l-.07-.06a8.48,8.48,0,0,0-2.79-1.51l-.11,0-.73-.19-.14,0a8.75,8.75,0,0,0-1.63-.17,8.53,8.53,0,0,0-6.45,2.93,8,8,0,0,0-.62.79,8.56,8.56,0,0,0-13.52-.8,7.79,7.79,0,0,0-.62.8,8.57,8.57,0,0,0-14.15,0,8.56,8.56,0,0,0-7.07-3.73Z" transform="translate(-206.31 -49.82)"/></g><path class="cls-4" d="M54.72,1153.16h0a30.73,30.73,0,0,1,30.73,30.73v62.21a0,0,0,0,1,0,0H54.72a0,0,0,0,1,0,0v-92.94A0,0,0,0,1,54.72,1153.16Z"/><path class="cls-6" d="M54.72,1157.45h0a25.83,25.83,0,0,1,25.83,25.83v56.48a0,0,0,0,1,0,0H54.72a0,0,0,0,1,0,0v-82.3A0,0,0,0,1,54.72,1157.45Z"/><path class="cls-9" d="M281.92,1039.05s8.75.59,2.95,13.59C284.87,1052.64,274.59,1043.38,281.92,1039.05Z" transform="translate(-206.31 -49.82)"/><path class="cls-8" d="M327.16,1037c-.24-2.09-1.64-4.92-4.19-4.34a3.3,3.3,0,0,0-2.36,2.36,4.74,4.74,0,0,0,.76,3.72c.58.91,2.05.07,1.46-.85a3.05,3.05,0,0,1-.56-2.53,1.49,1.49,0,0,1,1.4-1.08c.73.07,1.22.86,1.46,1.47a5.57,5.57,0,0,1-1.05,5.75,3.46,3.46,0,0,1-3.84.58c-3.54-1.57-4.67-6.08-5-9.56-.41-3.93,0-7.9-.56-11.82a22.92,22.92,0,0,0-1.11-4.82,75.32,75.32,0,0,0-1.27-14.62c1.54-4.2,2.56-8.7.6-13s-6.79-6.65-10.91-8.63l-.45-.22a90.45,90.45,0,0,0-15.32-15.91,39.53,39.53,0,0,0,9.87-3.24,54.85,54.85,0,0,0,5.33-3c3.75-2.36,7.21-4.33,7.21-8.78a10.72,10.72,0,0,0-.18-1.89c-.19-1-.34-.55-.34-.55-4,5.52-10,8.67-16.7,9.74a48.19,48.19,0,0,1-14.17.61l-1-.15c-10.83-7.09-19.86-10.56-20.52-11.1v15.4s13.7-3.15,31.9,16.46a10.19,10.19,0,0,1-.15,4.16c-.39,1.56-1.07,3.49-2.65,4.2s-3.17-.61-3.74-2a2.12,2.12,0,0,1,.2-2.16c.19-.21.56-.41.83-.25a.52.52,0,0,1,.22.59.65.65,0,0,0,1.13.66,1.82,1.82,0,0,0-1.14-2.55,2.28,2.28,0,0,0-2.54,1.6c-.8,2.1.85,4.44,2.75,5.27a3.5,3.5,0,0,0,3.22-.22,5.67,5.67,0,0,0,2.18-2.56,12.19,12.19,0,0,0,1.15-5.16c1.31,1.48,2.63,3.07,4,4.79A70,70,0,0,1,305,1007.65a23.61,23.61,0,0,1-7.08,11.82c-9.76,9.4-25.09,15.2-34.39,24.89-7,7.31-9.9,16.6-7.71,24.92a12.71,12.71,0,0,0,6.09,8.38c-1.76-5.13-3.25-10.57-1.34-15.9a21.4,21.4,0,0,1,3.88-6.39,14.85,14.85,0,0,0,2,10.67,11.87,11.87,0,0,0,4.72,4.14,12.81,12.81,0,0,0,6.91,1.46,7.42,7.42,0,0,0,5.25-3.12,7.63,7.63,0,0,0,1.17-5.93,7.47,7.47,0,0,0-4.35-5.46,4.31,4.31,0,0,0-5.63,2.33,1,1,0,0,0,1.86.52c.5-1.32,2.27-1.46,3.37-.93a5.69,5.69,0,0,1,2.85,3.9,5.56,5.56,0,0,1-4.87,6.79,11.23,11.23,0,0,1-5.51-1.19,10,10,0,0,1-3.94-3.24,13,13,0,0,1-1.88-10.07,18.92,18.92,0,0,1,.82-2.85c1-1,2.09-2,3.18-2.92a137.34,137.34,0,0,1,15.2-11.51c5.14-3.38,10.71-6.41,15-10.42a42.18,42.18,0,0,0,6.85-8.16,104.21,104.21,0,0,1,.5,27.06,90.49,90.49,0,0,0,5.2-23.17c.21,3.78-.05,7.6.62,11.35a14.58,14.58,0,0,0,2.37,6.1,7.6,7.6,0,0,0,5.14,3.34C325.2,1044.47,327.55,1040.42,327.16,1037Zm-15.22-41.86a18.75,18.75,0,0,1-.56,2.78,68.16,68.16,0,0,0-7.58-15.18c.85.44,1.68.91,2.48,1.42a13.32,13.32,0,0,1,4.44,4.2A10.84,10.84,0,0,1,311.94,995.11Z" transform="translate(-206.31 -49.82)"/><path class="cls-9" d="M301,957.76s7.95-8.37,15.75,8.24C316.7,966,299,968.76,301,957.76Z" transform="translate(-206.31 -49.82)"/><path class="cls-9" d="M290.34,956.79s-10.78-4.13,1.56-17.71C291.9,939.08,301.25,954.36,290.34,956.79Z" transform="translate(-206.31 -49.82)"/><path class="cls-9" d="M313.08,1010.87s7.95-8.37,15.75,8.24C328.83,1019.11,311.13,1021.87,313.08,1010.87Z" transform="translate(-206.31 -49.82)"/><path class="cls-9" d="M290.74,1026.08s-9.36,6.16-13.52-11.54C277.22,1014.54,294.85,1016,290.74,1026.08Z" transform="translate(-206.31 -49.82)"/><path class="cls-9" d="M297.89,1029.3s6.55,1.71.35,11.07C298.24,1040.37,291.73,1031.65,297.89,1029.3Z" transform="translate(-206.31 -49.82)"/><path class="cls-8" d="M308.8,1134a6.39,6.39,0,0,0-.33-1.58c-.29-.84-.43-.45-.43-.45-4.29,4.85-11.07,7.8-18.85,9-2.48.39-5,.74-7.5,1h0c-7.79.63-18.45-2.41-23.74-4.13l-.31-.17.19.13c-1.95-.64-3.14-1.08-3.14-1.08v3l-1,9c12.6,3.24,27.35-.5,27.35-.5l0,0a58.09,58.09,0,0,0,13.86-3.6c2.09-.84,4.09-1.8,6-2.8C305.19,1139.57,309.1,1137.75,308.8,1134Z" transform="translate(-206.31 -49.82)"/><path class="cls-9" d="M297.58,1139.4s-8.74.18-3.95-12.86C293.63,1126.54,304.54,1134.6,297.58,1139.4Z" transform="translate(-206.31 -49.82)"/><path class="cls-9" d="M307.43,1138.76s-.73-8.71,12.59-4.76C320,1134,312.68,1145.4,307.43,1138.76Z" transform="translate(-206.31 -49.82)"/><path class="cls-9" d="M286.64,1146s8.26-6.64,13.33,9.44C300,1155.39,283.51,1155.73,286.64,1146Z" transform="translate(-206.31 -49.82)"/><path class="cls-9" d="M281.11,1282.58s8.94.61,3,13.89C284.12,1296.47,273.61,1287,281.11,1282.58Z" transform="translate(-206.31 -49.82)"/><path class="cls-8" d="M327.34,1280.46c-.24-2.13-1.68-5-4.29-4.44a3.39,3.39,0,0,0-2.41,2.42,4.85,4.85,0,0,0,.78,3.8c.6.93,2.1.07,1.49-.87a3.14,3.14,0,0,1-.57-2.59,1.51,1.51,0,0,1,1.43-1.1c.74.07,1.24.88,1.5,1.5a5.67,5.67,0,0,1-1.08,5.88,3.53,3.53,0,0,1-3.93.59c-3.61-1.61-4.76-6.21-5.13-9.77-.42-4-.06-8.07-.57-12.08a24,24,0,0,0-1.14-4.93,77.19,77.19,0,0,0-1.3-14.94c1.58-4.29,2.62-8.89.62-13.23-2.07-4.49-6.95-6.8-11.15-8.83l-.47-.22a92.67,92.67,0,0,0-15.66-16.26,39.93,39.93,0,0,0,10.09-3.31A57.44,57.44,0,0,0,301,1199c3.82-2.42,7.36-4.43,7.36-9a11.16,11.16,0,0,0-.18-1.93c-.2-1-.35-.56-.35-.56-4.08,5.64-10.2,8.86-17.07,10a49.61,49.61,0,0,1-14.48.63l-1-.16c-11.07-7.24-20.3-10.79-21-11.34v15.74s14-3.23,32.61,16.82a10.45,10.45,0,0,1-.16,4.25c-.39,1.6-1.09,3.57-2.7,4.29s-3.24-.62-3.82-2a2.13,2.13,0,0,1,.2-2.19c.19-.22.57-.43.85-.26a.53.53,0,0,1,.22.6.69.69,0,0,0,.24.91.67.67,0,0,0,.91-.24,1.85,1.85,0,0,0-1.16-2.6,2.32,2.32,0,0,0-2.59,1.63c-.82,2.15.86,4.54,2.8,5.39a3.6,3.6,0,0,0,3.3-.22,5.73,5.73,0,0,0,2.22-2.62,12.44,12.44,0,0,0,1.18-5.27q2,2.25,4.06,4.89a71.52,71.52,0,0,1,12.21,24.78,24.11,24.11,0,0,1-7.23,12.08c-10,9.61-25.64,15.54-35.16,25.44-7.17,7.48-10.11,17-7.87,25.47a12.92,12.92,0,0,0,6.22,8.56c-1.8-5.24-3.32-10.8-1.37-16.25a21.89,21.89,0,0,1,4-6.52,15.22,15.22,0,0,0,2.06,10.9,12.21,12.21,0,0,0,4.83,4.24,13.27,13.27,0,0,0,7.06,1.49,7.57,7.57,0,0,0,5.36-3.19,7.79,7.79,0,0,0,1.2-6.06,7.6,7.6,0,0,0-4.45-5.58,4.4,4.4,0,0,0-5.75,2.38,1,1,0,0,0,.69,1.21,1,1,0,0,0,1.21-.69c.51-1.34,2.32-1.49,3.44-.94a5.79,5.79,0,0,1,2.92,4,5.7,5.7,0,0,1-5,6.94,11.49,11.49,0,0,1-5.63-1.22,10.24,10.24,0,0,1-4-3.32,13.31,13.31,0,0,1-1.91-10.28,19.78,19.78,0,0,1,.82-2.92q1.57-1.53,3.26-3a142.08,142.08,0,0,1,15.53-11.76c5.26-3.45,10.95-6.55,15.35-10.65a42.24,42.24,0,0,0,7-8.34,106.2,106.2,0,0,1,.52,27.66,92.7,92.7,0,0,0,5.31-23.68c.21,3.87-.05,7.76.64,11.6a15,15,0,0,0,2.41,6.24,7.81,7.81,0,0,0,5.26,3.41C325.34,1288.12,327.74,1284,327.34,1280.46Zm-15.56-42.78a18.31,18.31,0,0,1-.57,2.84,69.89,69.89,0,0,0-7.74-15.52c.86.46,1.71.93,2.53,1.45a13.64,13.64,0,0,1,4.54,4.3A11,11,0,0,1,311.78,1237.68Z" transform="translate(-206.31 -49.82)"/><path class="cls-9" d="M300.55,1199.51s8.13-8.56,16.09,8.42C316.64,1207.93,298.55,1210.75,300.55,1199.51Z" transform="translate(-206.31 -49.82)"/><path class="cls-9" d="M289.71,1198.51s-11-4.21,1.59-18.1C291.3,1180.41,300.86,1196,289.71,1198.51Z" transform="translate(-206.31 -49.82)"/><path class="cls-9" d="M313,1253.78s8.13-8.55,16.09,8.43C329,1262.21,311,1265,313,1253.78Z" transform="translate(-206.31 -49.82)"/><path class="cls-9" d="M290.12,1269.33s-9.57,6.3-13.82-11.8C276.3,1257.53,294.31,1259,290.12,1269.33Z" transform="translate(-206.31 -49.82)"/><path class="cls-9" d="M297.43,1272.62s6.69,1.75.35,11.32C297.78,1283.94,291.13,1275,297.43,1272.62Z" transform="translate(-206.31 -49.82)"/><path class="cls-9" d="M279,634.24s9.55.61,3.22,14C282.2,648.19,271,638.68,279,634.24Z" transform="translate(-206.31 -49.82)"/><path class="cls-8" d="M328.33,632.11c-.26-2.14-1.8-5-4.58-4.46a3.52,3.52,0,0,0-2.57,2.43,4.62,4.62,0,0,0,.83,3.82c.64.93,2.24.06,1.59-.88a3,3,0,0,1-.61-2.6,1.62,1.62,0,0,1,1.53-1.1c.79.07,1.33.89,1.6,1.5a5.46,5.46,0,0,1-1.16,5.91,3.94,3.94,0,0,1-4.18.59c-3.87-1.61-5.09-6.24-5.49-9.81-.44-4-.05-8.1-.61-12.13a22,22,0,0,0-1.21-4.94,73.78,73.78,0,0,0-1.38-15c1.68-4.3,2.78-8.93.65-13.28-2.2-4.51-7.41-6.82-11.9-8.86l-.49-.22a95.27,95.27,0,0,0-16.72-16.33,44.13,44.13,0,0,0,10.77-3.33,59.91,59.91,0,0,0,5.82-3.09c4.09-2.42,7.86-4.44,7.86-9a10.32,10.32,0,0,0-.2-1.94c-.2-1-.36-.56-.36-.56-4.35,5.66-10.89,8.89-18.22,10a56.09,56.09,0,0,1-15.46.63l-1.06-.16C261,542,251.12,538.44,250.4,537.9v15.8s15-3.24,34.8,16.88a9.88,9.88,0,0,1-.17,4.27c-.42,1.6-1.16,3.58-2.89,4.31s-3.45-.63-4.07-2a2,2,0,0,1,.21-2.2.82.82,0,0,1,.91-.26.53.53,0,0,1,.24.6.65.65,0,0,0,.25.91.74.74,0,0,0,1-.24,1.83,1.83,0,0,0-1.24-2.61,2.48,2.48,0,0,0-2.76,1.64c-.88,2.16.92,4.56,3,5.41a4.07,4.07,0,0,0,3.52-.22,6,6,0,0,0,2.37-2.63,11.9,11.9,0,0,0,1.26-5.29c1.43,1.51,2.87,3.14,4.34,4.9a70.29,70.29,0,0,1,13,24.89c-.84,3.24-2.61,7.5-7.71,12.12-10.65,9.65-27.37,15.6-37.52,25.54-7.66,7.5-10.8,17-8.41,25.57a13.1,13.1,0,0,0,6.64,8.6c-1.92-5.27-3.54-10.85-1.46-16.32a21.79,21.79,0,0,1,4.23-6.55,14.54,14.54,0,0,0,2.2,10.94,12.8,12.8,0,0,0,5.16,4.26,14.74,14.74,0,0,0,7.54,1.49,8.2,8.2,0,0,0,5.72-3.2,7.44,7.44,0,0,0,1.27-6.08,7.74,7.74,0,0,0-4.74-5.6,4.8,4.8,0,0,0-6.14,2.39,1,1,0,0,0,.74,1.22,1.08,1.08,0,0,0,1.29-.7c.54-1.35,2.48-1.49,3.67-.94a5.84,5.84,0,0,1,3.11,4,5.77,5.77,0,0,1-5.31,7,12.94,12.94,0,0,1-6-1.22,11,11,0,0,1-4.3-3.33,12.73,12.73,0,0,1-2-10.33,18.53,18.53,0,0,1,.88-2.92q1.68-1.55,3.47-3A150.63,150.63,0,0,1,283,633.12c5.61-3.46,11.69-6.57,16.39-10.69a43.46,43.46,0,0,0,7.47-8.37,100.39,100.39,0,0,1,.55,27.77,88.71,88.71,0,0,0,5.67-23.78c.22,3.89-.06,7.8.68,11.65a14.37,14.37,0,0,0,2.58,6.26,8.33,8.33,0,0,0,5.61,3.42C326.19,639.8,328.76,635.65,328.33,632.11Zm-16.61-43a16.56,16.56,0,0,1-.61,2.86,68.29,68.29,0,0,0-8.26-15.58c.92.45,1.83.93,2.7,1.45a14.1,14.1,0,0,1,4.84,4.32A10.44,10.44,0,0,1,311.72,589.16Z" transform="translate(-206.31 -49.82)"/><path class="cls-9" d="M299.74,550.84s8.67-8.59,17.17,8.46C316.91,559.3,297.61,562.13,299.74,550.84Z" transform="translate(-206.31 -49.82)"/><path class="cls-9" d="M288.17,549.84s-11.77-4.23,1.69-18.16C289.86,531.68,300.06,547.35,288.17,549.84Z" transform="translate(-206.31 -49.82)"/><path class="cls-9" d="M313,605.33s8.67-8.59,17.18,8.46C330.15,613.79,310.84,616.62,313,605.33Z" transform="translate(-206.31 -49.82)"/><path class="cls-9" d="M288.6,620.93s-10.21,6.33-14.74-11.84C273.86,609.09,293.08,610.6,288.6,620.93Z" transform="translate(-206.31 -49.82)"/><path class="cls-9" d="M296.4,624.24s7.15,1.75.38,11.36C296.78,635.6,289.68,626.66,296.4,624.24Z" transform="translate(-206.31 -49.82)"/><rect class="cls-2" x="54.39" y="643.94" width="46.51" height="178.67"/><path class="cls-4" d="M308.3,694.11H260.7V678.83H319a.8.8,0,0,1,.62,1.3Z" transform="translate(-206.31 -49.82)"/><path class="cls-4" d="M54.39,643.94h47.18a3.23,3.23,0,0,1,3.23,3.23v0a3.23,3.23,0,0,1-3.23,3.23H54.39a0,0,0,0,1,0,0v-6.45a0,0,0,0,1,0,0Z"/><g class="cls-13"><path class="cls-6" d="M206.31,694.1H319.46v-8.58a8.56,8.56,0,0,0-7.07,3.73,8.58,8.58,0,0,0-14.15,0,8.58,8.58,0,0,0-14.14,0,8.58,8.58,0,0,0-14.14,0,8.57,8.57,0,0,0-14.15,0c-.13-.19-.28-.37-.42-.55,0,0,0,0,0-.05a6.17,6.17,0,0,0-.48-.54.57.57,0,0,1-.11-.11c-.18-.17-.35-.33-.54-.49l-.08-.06a8.31,8.31,0,0,0-2.78-1.5l-.12,0c-.23-.07-.47-.14-.72-.19l-.14,0a8.75,8.75,0,0,0-1.63-.17,8.57,8.57,0,0,0-6.45,2.93,9.5,9.5,0,0,0-.62.8,8.58,8.58,0,0,0-13.53-.8,8.12,8.12,0,0,0-.62.8,8.57,8.57,0,0,0-14.14,0,8.57,8.57,0,0,0-7.07-3.72Z" transform="translate(-206.31 -49.82)"/></g><path class="cls-4" d="M54.39,676h0a30.73,30.73,0,0,1,30.73,30.73V769a0,0,0,0,1,0,0H54.39a0,0,0,0,1,0,0V676A0,0,0,0,1,54.39,676Z"/><path class="cls-6" d="M54.39,680.31h0a25.83,25.83,0,0,1,25.83,25.83v56.48a0,0,0,0,1,0,0H54.39a0,0,0,0,1,0,0v-82.3A0,0,0,0,1,54.39,680.31Z"/><path class="cls-9" d="M280.77,802.44s8.94.61,3,13.89C283.79,816.33,273.28,806.86,280.77,802.44Z" transform="translate(-206.31 -49.82)"/><path class="cls-8" d="M327,800.32c-.24-2.14-1.68-5-4.29-4.44a3.38,3.38,0,0,0-2.41,2.41,4.87,4.87,0,0,0,.78,3.81c.6.93,2.1.06,1.49-.88a3.11,3.11,0,0,1-.57-2.58,1.53,1.53,0,0,1,1.43-1.11c.74.08,1.24.89,1.5,1.51a5.31,5.31,0,0,1,.38,2.15,5.24,5.24,0,0,1-1.47,3.73,3.55,3.55,0,0,1-3.92.59c-3.62-1.61-4.77-6.22-5.14-9.77-.41-4-.05-8.08-.57-12.09a23.39,23.39,0,0,0-1.13-4.92,77.1,77.1,0,0,0-1.3-14.94c1.58-4.29,2.61-8.9.62-13.23-2.07-4.49-7-6.8-11.15-8.83l-.47-.22a92.33,92.33,0,0,0-15.66-16.26,40,40,0,0,0,10.09-3.32,54.05,54.05,0,0,0,5.45-3.08c3.83-2.41,7.36-4.42,7.36-9a10.23,10.23,0,0,0-.18-1.94c-.19-1-.34-.55-.34-.55-4.08,5.63-10.2,8.86-17.07,10A49.26,49.26,0,0,1,276,718c-.33,0-.67-.1-1-.16-11.06-7.23-20.3-10.79-21-11.33v15.74S268,719,286.6,739a10.46,10.46,0,0,1-.16,4.25c-.4,1.59-1.09,3.56-2.71,4.29s-3.23-.63-3.81-2a2.13,2.13,0,0,1,.2-2.2c.19-.21.56-.42.84-.26a.54.54,0,0,1,.23.61.67.67,0,0,0,1.15.67,1.87,1.87,0,0,0-1.16-2.61,2.34,2.34,0,0,0-2.6,1.64c-.82,2.15.87,4.54,2.81,5.38a3.57,3.57,0,0,0,3.3-.21,5.85,5.85,0,0,0,2.22-2.62,12.61,12.61,0,0,0,1.18-5.28c1.33,1.51,2.69,3.14,4.06,4.89a71.74,71.74,0,0,1,12.21,24.79,24.11,24.11,0,0,1-7.23,12.08c-10,9.6-25.65,15.54-35.16,25.44-7.17,7.47-10.11,17-7.88,25.47a13,13,0,0,0,6.23,8.56c-1.8-5.24-3.32-10.8-1.37-16.25a21.77,21.77,0,0,1,4-6.52A15.15,15.15,0,0,0,265,830a12.06,12.06,0,0,0,4.83,4.24,13.06,13.06,0,0,0,7.06,1.49,7.59,7.59,0,0,0,5.36-3.19,7.74,7.74,0,0,0,1.19-6.06,7.57,7.57,0,0,0-4.44-5.57,4.39,4.39,0,0,0-5.75,2.38,1,1,0,0,0,.69,1.21,1,1,0,0,0,1.21-.69c.51-1.35,2.32-1.49,3.44-.94a5.77,5.77,0,0,1,2.92,4,5.69,5.69,0,0,1-5,6.94,11.46,11.46,0,0,1-5.63-1.21,10.25,10.25,0,0,1-4-3.32A13.38,13.38,0,0,1,264.93,819a19.69,19.69,0,0,1,.83-2.91c1.05-1,2.14-2,3.25-3a140,140,0,0,1,15.54-11.76c5.25-3.45,10.95-6.56,15.35-10.65a42.89,42.89,0,0,0,7-8.34,106.2,106.2,0,0,1,.52,27.66,92.67,92.67,0,0,0,5.31-23.69c.21,3.87-.05,7.77.64,11.61a15,15,0,0,0,2.41,6.23,7.75,7.75,0,0,0,5.26,3.41C325,808,327.41,803.85,327,800.32Zm-15.56-42.79a18.44,18.44,0,0,1-.57,2.85,69.89,69.89,0,0,0-7.74-15.52c.86.45,1.71.93,2.53,1.45a13.32,13.32,0,0,1,4.53,4.3A11,11,0,0,1,311.45,757.53Z" transform="translate(-206.31 -49.82)"/><path class="cls-9" d="M300.22,719.36s8.13-8.55,16.09,8.43C316.31,727.79,298.22,730.61,300.22,719.36Z" transform="translate(-206.31 -49.82)"/><path class="cls-9" d="M289.38,718.37s-11-4.22,1.59-18.1C291,700.27,300.53,715.89,289.38,718.37Z" transform="translate(-206.31 -49.82)"/><path class="cls-9" d="M312.62,773.64s8.12-8.56,16.09,8.42C328.71,782.06,310.62,784.88,312.62,773.64Z" transform="translate(-206.31 -49.82)"/><path class="cls-9" d="M289.78,789.18s-9.56,6.3-13.81-11.79C276,777.39,294,778.89,289.78,789.18Z" transform="translate(-206.31 -49.82)"/><path class="cls-9" d="M297.09,792.48s6.7,1.74.36,11.32C297.45,803.8,290.8,794.88,297.09,792.48Z" transform="translate(-206.31 -49.82)"/><path class="cls-3" d="M395.41,857.1c-1.61-12-14.4-9.3-14.4-9.3s-11.17.75-12.09,10.74-38,11-38,11H257.21v0H218V886H368.76s16.29.38,9.68-13.67c-4.78-10.15.65-12.57,4-13.13a5.77,5.77,0,0,0-2.18,4.51,6,6,0,0,0,6,5.86c.24,0,.47,0,.7,0h0S397,869.08,395.41,857.1Z" transform="translate(-206.31 -49.82)"/><path class="cls-2" d="M358.45,927.69H340.83l4,18.81a2.85,2.85,0,0,0,2.79,2.26h15.48a2.85,2.85,0,0,0,2.79-2.26l4-18.81Z" transform="translate(-206.31 -49.82)"/><polyline class="cls-6" points="161.96 885.25 163.52 876.92 152.14 876.92 145.9 876.92 134.53 876.92 136.08 885.25"/><path class="cls-14" d="M341.46,922.08a1.07,1.07,0,0,1-.39-.07,1.1,1.1,0,0,1-.65-1.42l14-37.79a1.11,1.11,0,0,1,2.08.77l-14,37.79A1.11,1.11,0,0,1,341.46,922.08Z" transform="translate(-206.31 -49.82)"/><path class="cls-14" d="M369.5,922.08a1.11,1.11,0,0,1-1-.72l-14-37.79a1.11,1.11,0,0,1,2.08-.77l14,37.79a1.11,1.11,0,0,1-.65,1.42A1.07,1.07,0,0,1,369.5,922.08Z" transform="translate(-206.31 -49.82)"/><path class="cls-2" d="M128.54,870.58h41a1.17,1.17,0,0,1,1.17,1.17v4a7.38,7.38,0,0,1-7.38,7.38H134.75a7.38,7.38,0,0,1-7.38-7.38v-4a1.17,1.17,0,0,1,1.17-1.17Z"/><path class="cls-8" d="M365.54,916.46a6.68,6.68,0,0,1,3.48-2.94,5.86,5.86,0,0,1,3,0,11.35,11.35,0,0,1,4.61,2.67,16.11,16.11,0,0,0,4.29,3l1,.34c-2.16.52-4.25,1.28-6.41,1.8a13.8,13.8,0,0,1-6.42.28,7.69,7.69,0,0,1-2.2-1,3.83,3.83,0,0,1-2-2.62,1.6,1.6,0,0,1,.68-1.56" transform="translate(-206.31 -49.82)"/><path class="cls-15" d="M376.47,919.26a9.23,9.23,0,0,1-3.06-.93l-.63-.34a2.14,2.14,0,0,0,.56-.17c.4-.17.68-.24,1.08-.4a3.48,3.48,0,0,1,1.25-.22c.28,0,.95.06,1.25.1a6.34,6.34,0,0,0-1.29-.29,4.21,4.21,0,0,0-2,.4,7.09,7.09,0,0,1-1.26.4c-.51-.26-1-.5-1.58-.85a6.62,6.62,0,0,0-.8-.39l.31-.08a2.22,2.22,0,0,0,.57-.24c.38-.21.65-.32,1-.52a3.64,3.64,0,0,1,1.22-.34c.28,0,.95,0,1.26,0a6.51,6.51,0,0,0-1.32-.15,4.13,4.13,0,0,0-1.9.61,5.72,5.72,0,0,1-1.56.6l-.25-.08A7.55,7.55,0,0,0,368,916a2.86,2.86,0,0,0,.4-.28c.28-.24.49-.38.77-.61a3.08,3.08,0,0,1,1-.49c.24-.07.79-.19,1-.24a6,6,0,0,0-1.12.09,3.7,3.7,0,0,0-1.48.83,4.93,4.93,0,0,1-1,.67,2.73,2.73,0,0,0-1.81.51l-.18.16a1.69,1.69,0,0,1,1.13-.28,5.87,5.87,0,0,1,.72.08,4.62,4.62,0,0,1,.91,1.76,4.35,4.35,0,0,0,1,1.75,7.55,7.55,0,0,0,1.06.8c-.22-.21-.7-.68-.89-.9a3.59,3.59,0,0,1-.64-1.08c-.13-.41-.26-.68-.38-1.09a3.64,3.64,0,0,0-.25-.57,2.44,2.44,0,0,0-.49-.62,10,10,0,0,1,2.34.85,6.71,6.71,0,0,1,.71,1.22,4.21,4.21,0,0,0,1.15,1.63,7.34,7.34,0,0,0,1.15.67c-.25-.18-.78-.59-1-.78a3.56,3.56,0,0,1-.76-1c-.18-.39-.34-.64-.51-1a3.37,3.37,0,0,0-.25-.45l.92.49a10.5,10.5,0,0,0,4.78,1.63,17.75,17.75,0,0,0,3.34-.32C378.87,919.4,377.19,919.35,376.47,919.26Z" transform="translate(-206.31 -49.82)"/><path class="cls-16" d="M344.51,920.94a6.72,6.72,0,0,0-3.79-2.53,5.84,5.84,0,0,0-3,.34,11.22,11.22,0,0,0-4.28,3.16,16.21,16.21,0,0,1-3.94,3.44c-.3.16-.61.3-.91.45,2.2.27,4.37.8,6.57,1.07a13.7,13.7,0,0,0,6.41-.43,7.71,7.71,0,0,0,2.08-1.2,3.86,3.86,0,0,0,1.66-2.82,1.64,1.64,0,0,0-.85-1.48" transform="translate(-206.31 -49.82)"/><path class="cls-15" d="M343.54,920.14a2.89,2.89,0,0,0-1.46-.15c-.27-.09-.57-.18-.75-.22a4,4,0,0,0-1.89.18,4.2,4.2,0,0,1-1.89.2.59.59,0,0,1-.38-.2l.05.07a1.44,1.44,0,0,0,1.29.38,2.94,2.94,0,0,0,.58-.1c.39-.12.67-.16,1.06-.27a3.63,3.63,0,0,1,1.2-.08l.48.08a7.36,7.36,0,0,0-1.81.65,7.64,7.64,0,0,0-1.28.8l-.31.25a5,5,0,0,1-1.51.13,3.76,3.76,0,0,0-1.73.26,4.59,4.59,0,0,0-.88.61c.22-.12.71-.36.94-.45a3.27,3.27,0,0,1,1.08-.19c.39,0,.65,0,1.05,0a3.38,3.38,0,0,0,.55,0l.06,0c-.49.35-.95.66-1.51,1.08l-.23.16a6.19,6.19,0,0,1-1.23.06,3.78,3.78,0,0,0-1.73.26,5.31,5.31,0,0,0-.88.61c.23-.12.72-.36.94-.45a3.32,3.32,0,0,1,1.08-.19c.39,0,.66,0,1.05,0h.31a11.27,11.27,0,0,1-2.11.91c-.69.21-2.31.58-3.08.73a19.62,19.62,0,0,0,3.33-.37,7.75,7.75,0,0,0,2.2-.86c-.17.26-.33.45-.52.73a3.51,3.51,0,0,1-.86.83c-.23.15-.79.46-1.05.59a6.27,6.27,0,0,0,1.18-.46,4,4,0,0,0,1.33-1.36c.15-.22.31-.45.48-.66.42-.26.82-.54,1.22-.82h0l.35-.26-.08.13a2.2,2.2,0,0,0-.25.54c-.13.38-.26.64-.4,1a3.35,3.35,0,0,1-.63,1c-.18.2-.65.63-.87.83a6.25,6.25,0,0,0,1-.74,3.86,3.86,0,0,0,.95-1.64,4.42,4.42,0,0,1,.89-1.62l.3-.22.13,0h-.09c.35-.24.7-.48,1.07-.69a2.84,2.84,0,0,0-.27.68,3,3,0,0,0-.1.67c0,.47-.08.79-.11,1.26a4.09,4.09,0,0,1-.37,1.33c-.14.28-.51.91-.69,1.19a7.65,7.65,0,0,0,.9-1.14,4.65,4.65,0,0,0,.52-2.12,5,5,0,0,1,.45-2.06,7.68,7.68,0,0,1,1.95-.76,1.81,1.81,0,0,1,1.15,0Z" transform="translate(-206.31 -49.82)"/><path class="cls-16" d="M349.06,919.37a6.49,6.49,0,0,0-4,.31,5.45,5.45,0,0,0-2,1.63,8.65,8.65,0,0,0-1.57,4,11.83,11.83,0,0,1-1.18,4q-.21.36-.45.72c1.73-.91,3.56-1.64,5.3-2.55a13.25,13.25,0,0,0,4.44-3.37,6.32,6.32,0,0,0,.92-1.73,2.62,2.62,0,0,0-.17-2.51,1.36,1.36,0,0,0-1.34-.47" transform="translate(-206.31 -49.82)"/><path class="cls-15" d="M348,919.35a2.92,2.92,0,0,0-1.13.62c-.25.08-.51.17-.65.23a3.77,3.77,0,0,0-1.29,1,4,4,0,0,1-1.27,1,.58.58,0,0,1-.38.07l.08,0a1.49,1.49,0,0,0,1.12-.4,3,3,0,0,0,.37-.34c.22-.27.41-.43.64-.68a3.31,3.31,0,0,1,.83-.63l.39-.18a6.22,6.22,0,0,0-1,1.26,6.67,6.67,0,0,0-.54,1.11c0,.1-.07.2-.11.3a4.92,4.92,0,0,1-1,.81,3.27,3.27,0,0,0-1.13,1,3.67,3.67,0,0,0-.35.79c.11-.18.35-.56.47-.72a3.13,3.13,0,0,1,.69-.65c.29-.18.46-.32.76-.5a2.72,2.72,0,0,0,.38-.29l0,0c-.18.45-.37.86-.57,1.38l-.09.21a5.82,5.82,0,0,1-.86.64,3.55,3.55,0,0,0-1.13,1,3.7,3.7,0,0,0-.34.8c.1-.18.34-.57.46-.73a3.1,3.1,0,0,1,.69-.64c.29-.19.47-.33.76-.51.08,0,.15-.1.23-.15a9.68,9.68,0,0,1-1.09,1.57c-.39.47-1.4,1.48-1.87,1.94a19.71,19.71,0,0,0,2.22-1.84,6.83,6.83,0,0,0,1.19-1.58c0,.23,0,.43,0,.68a2.59,2.59,0,0,1-.22.93c-.09.2-.34.65-.47.86a5.66,5.66,0,0,0,.63-.85,2.87,2.87,0,0,0,.3-1.46c0-.21,0-.43,0-.64a11.47,11.47,0,0,0,.48-1.08l0,0h0c0-.11.08-.21.13-.32v.12a1.63,1.63,0,0,0,.08.44c.09.3.12.51.21.81a2.43,2.43,0,0,1,0,.92c0,.22-.16.7-.23.92a4.55,4.55,0,0,0,.39-.94,2.65,2.65,0,0,0-.11-1.45,3,3,0,0,1-.15-1.41l.12-.28a.27.27,0,0,1,.08-.07l-.07,0c.14-.31.28-.63.44-.94a2,2,0,0,0,.14.54,2.05,2.05,0,0,0,.25.46c.22.29.33.51.54.81a2.75,2.75,0,0,1,.38,1c0,.24.07.8.08,1.06a5.33,5.33,0,0,0,.09-1.13,3.11,3.11,0,0,0-.65-1.53,3.32,3.32,0,0,1-.68-1.46,7.21,7.21,0,0,1,1-1.41,1.82,1.82,0,0,1,.85-.55Z" transform="translate(-206.31 -49.82)"/><path class="cls-8" d="M348.39,917.36a7.82,7.82,0,0,0-3.41-4.13,6.89,6.89,0,0,0-3.45-.62,13.26,13.26,0,0,0-5.9,2.12,18.75,18.75,0,0,1-5.61,2.55c-.39.08-.78.14-1.18.2,2.39,1,4.66,2.38,7.06,3.43a16.12,16.12,0,0,0,7.38,1.67,9,9,0,0,0,2.75-.64,4.52,4.52,0,0,0,2.82-2.62,1.89,1.89,0,0,0-.46-2" transform="translate(-206.31 -49.82)"/><path class="cls-15" d="M347,916.15a3.23,3.23,0,0,0-1.68-.65l0,0,0,0a5.17,5.17,0,0,0-.79,0,6.09,6.09,0,0,1-1.56-.88,4.64,4.64,0,0,0-1.95-.94,5.9,5.9,0,0,0-1.33,0c.31,0,1,.12,1.28.19a4,4,0,0,1,1.24.55c.39.28.68.44,1.07.73a3.53,3.53,0,0,0,.59.35l.05,0q-.43,0-.84.12a8.87,8.87,0,0,0-1.64.48l-.15.06a7.12,7.12,0,0,1-1.43-.62,4.55,4.55,0,0,0-2.05-.67,5.75,5.75,0,0,0-1.32.18c.32,0,1,0,1.29,0a4.2,4.2,0,0,1,1.31.38c.42.23.72.35,1.15.59a3.15,3.15,0,0,0,.63.27h0c-.82.31-1.52.52-2.42.87a8.2,8.2,0,0,1-1.09.32,5.56,5.56,0,0,1-1.08-.46,3.38,3.38,0,0,0-1.5-.5,4.36,4.36,0,0,0-1,.14c.23,0,.72,0,.94,0a2.69,2.69,0,0,1,1,.28c.31.17.53.25.84.43a2,2,0,0,0,.4.17,11.83,11.83,0,0,1-2,.21c-.81,0-2.67-.09-3.53-.16a22.73,22.73,0,0,0,3.67.64,11.76,11.76,0,0,0,4.86-.93,3.26,3.26,0,0,0-.36.39c-.32.43-.59.68-.92,1.1a4.5,4.5,0,0,1-1.23,1c-.31.18-1.07.51-1.43.66a8.8,8.8,0,0,0,1.59-.47,5.28,5.28,0,0,0,1.89-1.63,7.3,7.3,0,0,1,1.35-1.37l1.06-.38h0c.39-.13.79-.26,1.19-.36a2.81,2.81,0,0,0-.52.67,3,3,0,0,0-.33.7c-.17.51-.34.84-.52,1.34a4.65,4.65,0,0,1-.83,1.34c-.24.27-.85.84-1.14,1.09a8.48,8.48,0,0,0,1.35-1,5.32,5.32,0,0,0,1.25-2.16,5.67,5.67,0,0,1,1.16-2.13,9,9,0,0,1,1.88-.24,2.46,2.46,0,0,0-.93,1,3.26,3.26,0,0,0-.33.71c-.17.51-.33.84-.52,1.34a4.44,4.44,0,0,1-.83,1.34c-.24.27-.85.83-1.14,1.09a8.54,8.54,0,0,0,1.35-1,5.25,5.25,0,0,0,1.25-2.16,5.72,5.72,0,0,1,1.22-2.18,1.09,1.09,0,0,1,.17-.13H346a2,2,0,0,1,1.23.39Z" transform="translate(-206.31 -49.82)"/><path class="cls-8" d="M364.84,919.68a5,5,0,0,1,3.25-1,4.47,4.47,0,0,1,2,.87,8.44,8.44,0,0,1,2.39,3.18,11.85,11.85,0,0,0,2.09,3.3c.18.18.37.35.56.52-1.64-.27-3.3-.36-4.94-.63a10.4,10.4,0,0,1-4.5-1.69,5.59,5.59,0,0,1-1.23-1.3,2.86,2.86,0,0,1-.59-2.37,1.23,1.23,0,0,1,.93-.88" transform="translate(-206.31 -49.82)"/><path class="cls-15" d="M371.54,924.8a6.8,6.8,0,0,1-1.83-1.53l-.34-.42a2.2,2.2,0,0,0,.44,0c.32,0,.54,0,.86,0a2.7,2.7,0,0,1,.92.22c.2.08.63.32.83.43a5,5,0,0,0-.8-.57,3.18,3.18,0,0,0-1.47-.3,5.41,5.41,0,0,1-1-.09c-.27-.33-.54-.64-.84-1a4,4,0,0,0-.43-.51l.23,0a2.46,2.46,0,0,0,.47,0c.31,0,.54,0,.86-.06a2.66,2.66,0,0,1,.93.12c.21.06.67.25.88.34a6.59,6.59,0,0,0-.86-.49,3.12,3.12,0,0,0-1.49-.13,4,4,0,0,1-1.25,0l-.14-.13a5.66,5.66,0,0,0-.85-.6A1.45,1.45,0,0,0,367,920c.26-.08.45-.11.71-.19a2.25,2.25,0,0,1,.8-.06,7.54,7.54,0,0,1,.78.14,4.18,4.18,0,0,0-.8-.27,2.83,2.83,0,0,0-1.25.14,4.49,4.49,0,0,1-.87.18,2,2,0,0,0-1.39-.18l-.17.06a1.16,1.16,0,0,1,.85.14,3.54,3.54,0,0,1,.47.26,3.2,3.2,0,0,1,.12,1.48,3.21,3.21,0,0,0,.15,1.48,4.94,4.94,0,0,0,.5.86,8.79,8.79,0,0,1-.35-.87,2.71,2.71,0,0,1-.13-.94c0-.32,0-.54.05-.86a1.77,1.77,0,0,0,0-.46,2.18,2.18,0,0,0-.15-.57,8.07,8.07,0,0,1,1.36,1.26,5.29,5.29,0,0,1,.13,1.05,3.06,3.06,0,0,0,.32,1.46,4.51,4.51,0,0,0,.59.79c-.12-.19-.36-.63-.45-.82a2.7,2.7,0,0,1-.23-.92c0-.32-.05-.54-.05-.86a2.45,2.45,0,0,0,0-.38l.49.6a8.06,8.06,0,0,0,2.81,2.52,13.36,13.36,0,0,0,2.4.75C373.15,925.6,372,925.07,371.54,924.8Z" transform="translate(-206.31 -49.82)"/><path class="cls-16" d="M360.12,918.09a8.5,8.5,0,0,1,5.52-.61,4.89,4.89,0,0,1,2.44,2,10.6,10.6,0,0,1,1.4,5.69,16.11,16.11,0,0,0,.86,5.81c.15.33.31.65.48,1-2.24-.92-4.66-1.56-6.91-2.47a11.8,11.8,0,0,1-5.55-4,6.83,6.83,0,0,1-.95-2.41,4.87,4.87,0,0,1,.74-3.9,2.57,2.57,0,0,1,2-1.09" transform="translate(-206.31 -49.82)"/><path class="cls-15" d="M365.67,926.23a2.53,2.53,0,0,0,.23.12,2,2,0,0,0,.46.17c.33.08.54.16.87.25a2.9,2.9,0,0,1,.88.45c.18.13.57.49.75.65a5.67,5.67,0,0,0-.68-.79,3.31,3.31,0,0,0-1.42-.66,4,4,0,0,1-1.3-.54,7.2,7.2,0,0,1-.65-1.38c-.06-.16-.11-.32-.17-.46l.19.07a2.66,2.66,0,0,0,.56.12c.4,0,.67.11,1.07.16a3.43,3.43,0,0,1,1.12.39c.23.13.74.49,1,.66a6.65,6.65,0,0,0-.93-.83,3.81,3.81,0,0,0-1.78-.56,6.38,6.38,0,0,1-1.31-.29c-.24-.62-.46-1.16-.68-1.88a5.21,5.21,0,0,0-.2-.54,2.87,2.87,0,0,0,.54.24,3.32,3.32,0,0,0,.61.13c.43,0,.72.11,1.15.15a3.55,3.55,0,0,1,1.19.41c.26.14.81.51,1.06.68a6.93,6.93,0,0,0-1-.87,4.09,4.09,0,0,0-1.91-.57,5,5,0,0,1-1.77-.46c-.09-.2-.19-.38-.28-.55a9.19,9.19,0,0,0-.62-1,3.45,3.45,0,0,0,.43.12,3.24,3.24,0,0,0,.62.05c.43,0,.73,0,1.16,0a3.67,3.67,0,0,1,1.23.25c.27.11.86.41,1.14.55a7.65,7.65,0,0,0-1.11-.74,4.19,4.19,0,0,0-2-.34,5.18,5.18,0,0,1-1.76-.2,3.2,3.2,0,0,0-1.74-1.16l-.22,0a1.84,1.84,0,0,1,1,.64,6.92,6.92,0,0,1,.63.8s0,.06,0,.09a4.46,4.46,0,0,1-1,1.73,4.2,4.2,0,0,0-1,1.74,5.85,5.85,0,0,0-.12,1.32c.06-.3.2-1,.29-1.23a3.76,3.76,0,0,1,.58-1.12c.27-.33.44-.58.72-.9a2.56,2.56,0,0,0,.35-.51,2.1,2.1,0,0,0,.29-1,12.52,12.52,0,0,1,1.17,2.45,4.73,4.73,0,0,1-.76,1.72,4.29,4.29,0,0,0-.76,1.85,7.4,7.4,0,0,0,.05,1.33c0-.31.08-1,.13-1.26a3.74,3.74,0,0,1,.44-1.18c.23-.36.36-.63.6-1a2.89,2.89,0,0,0,.29-.55,3.17,3.17,0,0,0,.15-.55l.21.57a21.47,21.47,0,0,0,.85,2.13c0,.26-.1.52-.16.77a3.32,3.32,0,0,0-.12,1.59,6,6,0,0,0,.36,1c-.06-.24-.18-.76-.21-1a3,3,0,0,1,.05-1c.08-.33.12-.56.21-.89l0-.13a8.19,8.19,0,0,0,1.3,1.86,22,22,0,0,0,2.54,2.18c-.54-.56-1.68-1.78-2.13-2.34C366.15,926.94,365.91,926.6,365.67,926.23Z" transform="translate(-206.31 -49.82)"/><path class="cls-8" d="M355.88,917.44a10.47,10.47,0,0,0-6.7,1.32A6.07,6.07,0,0,0,347,922c-.7,2.42-.18,4.87.46,7.2s1.39,4.69,1.13,7.14c0,.44-.12.89-.2,1.33,2.3-1.91,4.91-3.55,7.21-5.46s4.34-4.17,5.05-6.72a8.37,8.37,0,0,0,.22-3.18,5.91,5.91,0,0,0-2.3-4.3,3.17,3.17,0,0,0-2.73-.56" transform="translate(-206.31 -49.82)"/><path class="cls-15" d="M357.77,923.34a5.9,5.9,0,0,0-1.62-2.26,6.27,6.27,0,0,1-1.66-2.24,1.37,1.37,0,0,1-.07-.29,2.13,2.13,0,0,1,.82-.95l-.25.12a3.63,3.63,0,0,0-1.37,1.5,5.21,5.21,0,0,1-2,.65,4.61,4.61,0,0,0-2,.74,6.34,6.34,0,0,0-.92.95c.24-.19.78-.61,1-.77a3.71,3.71,0,0,1,1.25-.5c.48-.09.79-.18,1.26-.25a4.24,4.24,0,0,0,.66-.18,3.16,3.16,0,0,0,.52-.26,9.15,9.15,0,0,0-.6,1.93c-.06.27-.11.57-.15.86l0,0a4.86,4.86,0,0,1-2.05.71,4.46,4.46,0,0,0-2,.74,5.83,5.83,0,0,0-.91,1c.24-.2.77-.61,1-.77a4.09,4.09,0,0,1,1.26-.51c.47-.08.78-.17,1.26-.25a3.08,3.08,0,0,0,.66-.18,2.11,2.11,0,0,0,.8-.49,6.63,6.63,0,0,0,0,.75c0,.79,0,1.44-.09,2.12a7.87,7.87,0,0,1-1.3.75,4.8,4.8,0,0,0-1.76,1.25,6.18,6.18,0,0,0-.62,1.16c.18-.25.58-.79.78-1a3.68,3.68,0,0,1,1.08-.82c.43-.21.7-.38,1.15-.58a3.08,3.08,0,0,0,.58-.35.18.18,0,0,0,.07,0c0,.3,0,.61,0,1a12.65,12.65,0,0,1-.82,3.74c-.32.83-1.21,2.68-1.65,3.54a24.68,24.68,0,0,0,2.18-3.5,8.73,8.73,0,0,0,.61-1.61h0c.15.48.21.82.35,1.3a4.28,4.28,0,0,1,.1,1.48c0,.33-.19,1.1-.26,1.45a8.28,8.28,0,0,0,.49-1.48,4.87,4.87,0,0,0-.24-2.32,11.48,11.48,0,0,1-.27-1.16,15,15,0,0,0,.23-1.64h0c0-.32.05-.63.07-1a3.24,3.24,0,0,0,.13.33,3.06,3.06,0,0,0,.37.63c.31.4.48.7.77,1.11a4.16,4.16,0,0,1,.6,1.35c.08.33.2,1.1.24,1.46a8.12,8.12,0,0,0,0-1.56,5,5,0,0,0-1-2.11,5.31,5.31,0,0,1-1-2,1.93,1.93,0,0,1,0-.24c0-.11,0-.23,0-.35l0,0,0,0c0-.71.06-1.42.14-2.14a4.31,4.31,0,0,0,.5,1,4.71,4.71,0,0,0,.62.72c.49.45.78.8,1.25,1.26a5.7,5.7,0,0,1,1.07,1.61c.18.4.51,1.37.64,1.82a10.56,10.56,0,0,0-.39-2,6.42,6.42,0,0,0-1.79-2.48,7,7,0,0,1-1.82-2.47v0a10.34,10.34,0,0,1,.79-2.81,2.65,2.65,0,0,0,.56,1.47,3.56,3.56,0,0,0,.56.66c.44.41.7.73,1.13,1.15a5.12,5.12,0,0,1,1,1.46c.16.37.46,1.25.58,1.66A9.61,9.61,0,0,0,357.77,923.34Z" transform="translate(-206.31 -49.82)"/><path class="cls-16" d="M360.3,916.85a7.61,7.61,0,0,1-2.17-4.42,4.45,4.45,0,0,1,.92-2.63,9.44,9.44,0,0,1,4.33-2.88,14.09,14.09,0,0,0,4.58-2.46c.23-.22.45-.46.67-.69-.09,2.15.11,4.35,0,6.5a10.42,10.42,0,0,1-1.65,5.82,6.06,6.06,0,0,1-1.72,1.52,4.27,4.27,0,0,1-3.47.55,2.24,2.24,0,0,1-1.51-1.31" transform="translate(-206.31 -49.82)"/><path class="cls-15" d="M365.42,909.78a3.11,3.11,0,0,0,0-.66c0-.3,0-.51-.06-.8a2.94,2.94,0,0,1,.11-.88c.06-.19.23-.62.32-.81a4.88,4.88,0,0,0-.46.8,2.93,2.93,0,0,0-.12,1.38,3.42,3.42,0,0,1-.06,1.24,6.73,6.73,0,0,1-.95,1l-.34.27v-.17a2.16,2.16,0,0,0-.06-.51c-.09-.35-.11-.59-.19-.94a3.09,3.09,0,0,1,0-1c0-.23.18-.77.25-1a5.31,5.31,0,0,0-.41,1,3.3,3.3,0,0,0,.07,1.65,5.3,5.3,0,0,1,.15,1.18c-.45.38-.83.74-1.36,1.13l-.39.33a3,3,0,0,0,0-.52,3.31,3.31,0,0,0-.08-.55c-.1-.37-.13-.63-.22-1a3.54,3.54,0,0,1,0-1.12c0-.25.18-.82.26-1.09a5.46,5.46,0,0,0-.43,1.1,3.67,3.67,0,0,0,.09,1.77,4.21,4.21,0,0,1,.15,1.61c-.13.13-.26.27-.37.4a8,8,0,0,0-.61.8,2.45,2.45,0,0,0,0-.39,1.88,1.88,0,0,0-.14-.53c-.14-.36-.2-.61-.34-1a3.27,3.27,0,0,1-.16-1.11c0-.25.08-.84.12-1.11a6.57,6.57,0,0,0-.29,1.14,3.76,3.76,0,0,0,.31,1.74,4.61,4.61,0,0,1,.36,1.53,2.89,2.89,0,0,0-.45,1.8l0,.2a1.65,1.65,0,0,1,.24-1,7.62,7.62,0,0,1,.48-.77H361a4.07,4.07,0,0,1,1.74.32,3.63,3.63,0,0,0,1.74.3,6.16,6.16,0,0,0,1.14-.3c-.27,0-.85.12-1.11.13a3.25,3.25,0,0,1-1.11-.15c-.36-.13-.61-.19-1-.33a3.18,3.18,0,0,0-.53-.14,1.91,1.91,0,0,0-.89.05,11.52,11.52,0,0,1,1.7-1.72,4.26,4.26,0,0,1,1.66.12,3.63,3.63,0,0,0,1.76.08,7,7,0,0,0,1.1-.44c-.27.07-.84.22-1.09.26a3,3,0,0,1-1.12,0c-.37-.08-.63-.1-1-.2a2.43,2.43,0,0,0-.55-.07,2.89,2.89,0,0,0-.5,0l.42-.35a19.08,19.08,0,0,0,1.52-1.35c.22,0,.45-.07.68-.09a3,3,0,0,0,1.36-.38,4.72,4.72,0,0,0,.73-.61,7.83,7.83,0,0,1-.76.47,2.56,2.56,0,0,1-.86.27c-.3,0-.5.07-.81.09h-.11a7.14,7.14,0,0,0,1.16-1.64,18.54,18.54,0,0,0,1.05-2.77c-.3.62-1,1.94-1.31,2.48A9.26,9.26,0,0,1,365.42,909.78Z" transform="translate(-206.31 -49.82)"/><path class="cls-8" d="M356.86,917.62a9,9,0,0,0,1.67-5.67,5.17,5.17,0,0,0-1.61-2.94,11.44,11.44,0,0,0-5.71-2.54,17.18,17.18,0,0,1-5.93-2q-.48-.33-.93-.69c.54,2.53.75,5.18,1.29,7.72s1.45,5,3.13,6.56a7.16,7.16,0,0,0,2.34,1.45,5.12,5.12,0,0,0,4.23,0,2.73,2.73,0,0,0,1.52-1.86" transform="translate(-206.31 -49.82)"/><path class="cls-15" d="M349.37,910.27a1.43,1.43,0,0,1-.09-.27,1.76,1.76,0,0,1-.09-.51c0-.36-.07-.6-.1-1a3.08,3.08,0,0,0-.3-1c-.11-.22-.41-.69-.55-.9a5.26,5.26,0,0,1,.7.86,3.42,3.42,0,0,1,.43,1.61,4.25,4.25,0,0,0,.32,1.46,8.34,8.34,0,0,0,1.33,1l.45.26c0-.07,0-.14,0-.21a2.56,2.56,0,0,1,0-.62c0-.42,0-.72,0-1.15a3.36,3.36,0,0,0-.2-1.24c-.09-.27-.37-.88-.5-1.15a6.48,6.48,0,0,1,.7,1.13,4.21,4.21,0,0,1,.25,2,6.8,6.8,0,0,0,.05,1.43c.61.36,1.14.7,1.84,1.07a4.26,4.26,0,0,1,.53.31,3.5,3.5,0,0,1-.15-.62,2.92,2.92,0,0,1,0-.66c0-.46,0-.77.06-1.23a3.8,3.8,0,0,0-.2-1.33c-.1-.29-.38-.94-.52-1.24a7.78,7.78,0,0,1,.73,1.21,4.58,4.58,0,0,1,.24,2.12,5.47,5.47,0,0,0,.14,1.94c.19.13.37.27.53.4a9.71,9.71,0,0,1,.89.82,3.24,3.24,0,0,1,0-1.13c.1-.45.12-.76.2-1.21a3.76,3.76,0,0,0,0-1.35c-.06-.3-.26-1-.36-1.29a7.54,7.54,0,0,1,.57,1.3,4.47,4.47,0,0,1,0,2.12,5.44,5.44,0,0,0-.11,1.88,3.47,3.47,0,0,1,.89,2.05v.24a1.93,1.93,0,0,0-.48-1.13,8.07,8.07,0,0,0-.73-.82h-.1a4.82,4.82,0,0,0-2,.74,4.49,4.49,0,0,1-2,.7,6.76,6.76,0,0,1-1.42-.13c.33,0,1,0,1.35-.07a3.68,3.68,0,0,0,1.28-.4c.4-.22.69-.35,1.08-.58a2.77,2.77,0,0,1,.61-.27,2.27,2.27,0,0,1,1.06-.13,13.54,13.54,0,0,0-2.36-1.69,5,5,0,0,0-1.94.48,4.48,4.48,0,0,1-2.08.44,7.23,7.23,0,0,1-1.38-.3c.32,0,1,.1,1.34.1a3.7,3.7,0,0,0,1.32-.24c.42-.17.73-.26,1.15-.44a2.72,2.72,0,0,1,.63-.2,3,3,0,0,1,.6,0l-.56-.33a22.28,22.28,0,0,1-2.07-1.29,7.61,7.61,0,0,0-.83,0,3.57,3.57,0,0,1-1.69-.17,5.58,5.58,0,0,1-1-.57c.24.11.76.33,1,.4a2.92,2.92,0,0,0,1.07.15c.36,0,.62,0,1-.06h.14a8.15,8.15,0,0,1-1.71-1.71,21.06,21.06,0,0,1-1.8-3.07c.48.67,1.54,2.1,2.05,2.67A10.58,10.58,0,0,0,349.37,910.27Z" transform="translate(-206.31 -49.82)"/><path class="cls-8" d="M357.67,915a6.65,6.65,0,0,1,3.47-2.94,5.9,5.9,0,0,1,3,0,11.41,11.41,0,0,1,4.6,2.66,15.81,15.81,0,0,0,4.3,3c.31.12.63.23,1,.34-2.16.52-4.26,1.28-6.42,1.8a13.79,13.79,0,0,1-6.42.27,7.34,7.34,0,0,1-2.19-1,3.87,3.87,0,0,1-2-2.62,1.61,1.61,0,0,1,.69-1.56" transform="translate(-206.31 -49.82)"/><path class="cls-15" d="M368.59,917.8a9.18,9.18,0,0,1-3-.93l-.64-.34a2.21,2.21,0,0,0,.57-.17c.39-.17.68-.25,1.08-.41a3.63,3.63,0,0,1,1.24-.21c.29,0,.95.06,1.26.1a6.43,6.43,0,0,0-1.3-.29,4.14,4.14,0,0,0-1.95.4,7.09,7.09,0,0,1-1.26.4c-.52-.26-1-.5-1.58-.85a5.53,5.53,0,0,0-.81-.39l.31-.08a2.45,2.45,0,0,0,.58-.24c.37-.21.65-.32,1-.52a3.87,3.87,0,0,1,1.21-.35c.29,0,1,0,1.26,0a6.43,6.43,0,0,0-1.32-.15,4.13,4.13,0,0,0-1.9.61,5.6,5.6,0,0,1-1.56.6l-.24-.08a7.66,7.66,0,0,0-1.36-.3,3,3,0,0,0,.41-.28c.27-.24.48-.38.77-.61a3.08,3.08,0,0,1,1-.49c.23-.07.78-.19,1-.24a6.15,6.15,0,0,0-1.13.09,3.66,3.66,0,0,0-1.47.83,5.25,5.25,0,0,1-1,.67,2.73,2.73,0,0,0-1.81.51l-.18.16a1.63,1.63,0,0,1,1.13-.28,5.71,5.71,0,0,1,.71.08,4.5,4.5,0,0,1,.92,1.76,4.21,4.21,0,0,0,1,1.75,7.64,7.64,0,0,0,1.07.8,12.55,12.55,0,0,1-.89-.9,3.51,3.51,0,0,1-.64-1.08c-.14-.41-.27-.68-.39-1.09a2.9,2.9,0,0,0-.25-.57,2.64,2.64,0,0,0-.48-.62,10,10,0,0,1,2.33.85,5.9,5.9,0,0,1,.71,1.22,4.32,4.32,0,0,0,1.15,1.63,7.83,7.83,0,0,0,1.15.67c-.25-.18-.77-.59-1-.79a3.53,3.53,0,0,1-.77-1c-.18-.39-.34-.64-.51-1a2.53,2.53,0,0,0-.25-.45l.92.49a10.62,10.62,0,0,0,4.78,1.63,17.93,17.93,0,0,0,3.35-.32C371,917.94,369.32,917.89,368.59,917.8Z" transform="translate(-206.31 -49.82)"/><path class="cls-16" d="M356,916a5.08,5.08,0,0,0-3.27-1.19,4.48,4.48,0,0,0-2.14.8,8.68,8.68,0,0,0-2.6,3.13,12,12,0,0,1-2.3,3.28l-.59.5c1.68-.2,3.39-.21,5.08-.41a10.56,10.56,0,0,0,4.68-1.5,6,6,0,0,0,1.33-1.27,3,3,0,0,0,.72-2.4A1.24,1.24,0,0,0,356,916" transform="translate(-206.31 -49.82)"/><path class="cls-15" d="M348.91,920.91a7.21,7.21,0,0,0,1.94-1.48l.37-.41a3.4,3.4,0,0,1-.45,0c-.33,0-.55,0-.88,0a2.93,2.93,0,0,0-.95.17c-.21.08-.67.3-.88.41a5.94,5.94,0,0,1,.85-.56,3.24,3.24,0,0,1,1.52-.22,5.59,5.59,0,0,0,1-.05c.3-.32.59-.62.91-1a5.49,5.49,0,0,1,.48-.49l-.25,0a1.85,1.85,0,0,1-.47,0c-.33,0-.55,0-.88-.1a2.65,2.65,0,0,0-1,.08c-.22,0-.7.22-.92.3a5.5,5.5,0,0,1,.91-.45,3.16,3.16,0,0,1,1.53-.07,4.23,4.23,0,0,0,1.28,0l.15-.12a5.54,5.54,0,0,1,.9-.58,2.22,2.22,0,0,1-.37-.09c-.26-.1-.45-.14-.71-.23a2.27,2.27,0,0,0-.82-.11c-.18,0-.61.07-.81.11a4.1,4.1,0,0,1,.83-.23,2.7,2.7,0,0,1,1.28.2,4.56,4.56,0,0,0,.88.23,2,2,0,0,1,1.43-.11l.18.06a1.26,1.26,0,0,0-.89.1,4.44,4.44,0,0,0-.49.24,3.5,3.5,0,0,0-.2,1.51,3.22,3.22,0,0,1-.22,1.51,6,6,0,0,1-.55.86c.11-.22.33-.68.4-.88a2.69,2.69,0,0,0,.17-.95c0-.33,0-.56,0-.89a2.48,2.48,0,0,1,0-.47,2.23,2.23,0,0,1,.18-.57,8,8,0,0,0-1.45,1.22,5.45,5.45,0,0,0-.19,1.07,3.22,3.22,0,0,1-.39,1.47,5.46,5.46,0,0,1-.65.79c.13-.2.4-.63.5-.83a2.62,2.62,0,0,0,.28-.92c0-.33.08-.55.1-.88a1.85,1.85,0,0,1,.06-.39l-.53.6a8.25,8.25,0,0,1-3,2.43,12.86,12.86,0,0,1-2.49.65C347.22,921.64,348.41,921.16,348.91,920.91Z" transform="translate(-206.31 -49.82)"/><path class="cls-14" d="M355.33,883.69a1.11,1.11,0,0,1-1-.73,30,30,0,0,1-2-8.26,13.09,13.09,0,0,1,2.09-8.53,1.13,1.13,0,0,1,1.56-.23,1.11,1.11,0,0,1,.23,1.55,10.84,10.84,0,0,0-1.67,7.06,28.17,28.17,0,0,0,1.91,7.64,1.12,1.12,0,0,1-.66,1.43A1.22,1.22,0,0,1,355.33,883.69Z" transform="translate(-206.31 -49.82)"/><path class="cls-8" d="M309.54,903a6.13,6.13,0,0,0-.31-1.48c-.28-.79-.41-.42-.41-.42-4,4.54-10.37,7.3-17.65,8.45-2.32.36-4.67.69-7,.91h0c-7.3.58-17.28-2.26-22.24-3.87l-.29-.16.18.12c-1.82-.6-2.94-1-2.94-1v2.79l-.92,8.43c11.79,3,25.61-.46,25.61-.46l0,0a54.61,54.61,0,0,0,13-3.37c1.95-.79,3.82-1.69,5.64-2.63C306.15,908.24,309.81,906.53,309.54,903Z" transform="translate(-206.31 -49.82)"/><path class="cls-9" d="M299,908.08s-8.18.16-3.69-12.05C295.33,896,305.54,903.58,299,908.08Z" transform="translate(-206.31 -49.82)"/><path class="cls-9" d="M308.25,907.48s-.69-8.16,11.79-4.46C320,903,313.16,913.69,308.25,907.48Z" transform="translate(-206.31 -49.82)"/><path class="cls-9" d="M288.78,914.21s7.74-6.22,12.48,8.84C301.26,923.05,285.85,923.37,288.78,914.21Z" transform="translate(-206.31 -49.82)"/><path class="cls-2" d="M661.84,143.3H614.6V103.21c-1.36-11.2-6.53-15.58-6.53-15.58h6.53V81.5h47.24Z" transform="translate(-206.31 -49.82)"/><path class="cls-3" d="M661.84,89H606.72s-15.94.37-9.47-13.76C601.92,65,596.61,62.6,593.31,62a5.9,5.9,0,0,1-3.77,10.44c-.23,0-.46,0-.68,0h0s-9.81-.45-8.23-12.51,14.1-9.36,14.1-9.36,10.93.75,11.84,10.81,37.21,11.06,37.21,11.06h18.06Z" transform="translate(-206.31 -49.82)"/><rect class="cls-2" x="615.8" y="155.26" width="46.04" height="164.63" transform="translate(1071.33 425.33) rotate(-180)"/><path class="cls-4" d="M614.72,154.65h47.12V139.52H604.13a.79.79,0,0,0-.61,1.29Z" transform="translate(-206.31 -49.82)"/><path class="cls-4" d="M611.94,154.31h46.71a3.19,3.19,0,0,1,3.19,3.19v0a3.19,3.19,0,0,1-3.19,3.19H611.94a0,0,0,0,1,0,0v-6.39a0,0,0,0,1,0,0Z" transform="translate(1067.47 265.18) rotate(180)"/><g class="cls-17"><path class="cls-6" d="M715.69,154.59h-112v-8.49a8.5,8.5,0,0,1,7,3.68,8.48,8.48,0,0,1,14,0,8.48,8.48,0,0,1,14,0,8.49,8.49,0,0,1,14,0,8.48,8.48,0,0,1,14,0c.13-.19.28-.37.42-.55a.1.1,0,0,0,0-.05c.16-.19.32-.36.48-.53a1.14,1.14,0,0,0,.11-.11c.17-.17.35-.33.53-.48l.08-.06a8.56,8.56,0,0,1,2.75-1.5l.12,0c.24-.07.47-.14.72-.19l.14,0a8.34,8.34,0,0,1,8,2.73,9.1,9.1,0,0,1,.61.78,8.49,8.49,0,0,1,13.39-.79,9.24,9.24,0,0,1,.61.79,8.49,8.49,0,0,1,14,0,8.47,8.47,0,0,1,7-3.69Z" transform="translate(-206.31 -49.82)"/></g><path class="cls-4" d="M631.42,187h30.43a0,0,0,0,1,0,0V248.6A30.43,30.43,0,0,1,631.42,279h0a0,0,0,0,1,0,0V187A0,0,0,0,1,631.42,187Z" transform="translate(1086.95 416.21) rotate(-180)"/><path class="cls-6" d="M636.27,191.25h25.57a0,0,0,0,1,0,0v55.91a25.57,25.57,0,0,1-25.57,25.57h0a0,0,0,0,1,0,0V191.25A0,0,0,0,1,636.27,191.25Z" transform="translate(1091.81 414.17) rotate(-180)"/><path class="cls-2" d="M661.84,388.18h-46V339.27c-1.33-13.67-6.36-19-6.36-19h6.36v-7.47h46Z" transform="translate(-206.31 -49.82)"/><path class="cls-3" d="M661.84,327.19H607.68s-15.65.37-9.3-13.52c4.59-10-.63-12.43-3.87-13a5.8,5.8,0,0,1-3.7,10.26c-.23,0-.45,0-.67,0h0s-9.64-.44-8.08-12.29,13.84-9.2,13.84-9.2,10.75.75,11.63,10.62,36.56,10.87,36.56,10.87h17.75Z" transform="translate(-206.31 -49.82)"/><rect class="cls-2" x="615.8" y="393.07" width="46.04" height="294.47" transform="translate(1071.33 1030.8) rotate(-180)"/><path class="cls-4" d="M614.72,396.61h47.12V381.48H604.13a.79.79,0,0,0-.61,1.29Z" transform="translate(-206.31 -49.82)"/><path class="cls-4" d="M611.94,396.27h46.71a3.19,3.19,0,0,1,3.19,3.19v0a3.19,3.19,0,0,1-3.19,3.19H611.94a0,0,0,0,1,0,0v-6.39A0,0,0,0,1,611.94,396.27Z" transform="translate(1067.47 749.1) rotate(-180)"/><g class="cls-18"><path class="cls-6" d="M715.69,396.6h-112v-8.49a8.5,8.5,0,0,1,7,3.68,8.48,8.48,0,0,1,14,0,8.48,8.48,0,0,1,14,0,8.49,8.49,0,0,1,14,0,8.48,8.48,0,0,1,14,0c.13-.19.28-.37.42-.55a.1.1,0,0,0,0-.05l.48-.53a1.14,1.14,0,0,0,.11-.11c.17-.17.35-.33.53-.48l.08-.06a8.35,8.35,0,0,1,2.75-1.49l.12,0c.24-.07.47-.14.72-.19l.14,0a8.34,8.34,0,0,1,8,2.73,9.1,9.1,0,0,1,.61.78,8.49,8.49,0,0,1,13.39-.78,9.1,9.1,0,0,1,.61.78,8.49,8.49,0,0,1,14,0,8.47,8.47,0,0,1,7-3.69Z" transform="translate(-206.31 -49.82)"/></g><path class="cls-4" d="M631.42,414.66h30.43a0,0,0,0,1,0,0v61.59a30.43,30.43,0,0,1-30.43,30.43h0a0,0,0,0,1,0,0v-92A0,0,0,0,1,631.42,414.66Z" transform="translate(1086.95 871.51) rotate(-180)"/><path class="cls-6" d="M636.27,418.91h25.57a0,0,0,0,1,0,0v55.91a25.57,25.57,0,0,1-25.57,25.57h0a0,0,0,0,1,0,0V418.91a0,0,0,0,1,0,0Z" transform="translate(1091.81 869.47) rotate(-180)"/><path class="cls-8" d="M613,110.13a6.36,6.36,0,0,1,.33-1.57c.28-.83.42-.44.42-.44,4.25,4.8,11,7.72,18.67,8.93,2.45.39,4.93.73,7.42,1h0c7.71.62,18.27-2.39,23.51-4.09l.31-.17-.2.13c1.93-.63,3.11-1.07,3.11-1.07v2.94l1,8.92c-12.47,3.21-27.08-.49-27.08-.49l0,0a57.6,57.6,0,0,1-13.73-3.57c-2.07-.83-4-1.78-6-2.77C616.58,115.67,612.72,113.86,613,110.13Z" transform="translate(-206.31 -49.82)"/><path class="cls-9" d="M624.12,115.5s8.66.17,3.91-12.74C628,102.76,617.23,110.74,624.12,115.5Z" transform="translate(-206.31 -49.82)"/><path class="cls-9" d="M614.37,114.86s.72-8.62-12.47-4.71C601.9,110.15,609.18,121.43,614.37,114.86Z" transform="translate(-206.31 -49.82)"/><path class="cls-9" d="M635,122s-8.18-6.58-13.19,9.34C621.76,131.32,638.05,131.66,635,122Z" transform="translate(-206.31 -49.82)"/><path class="cls-9" d="M644.24,497.83s-9.54.61-3.22,13.95C641,511.78,652.23,502.27,644.24,497.83Z" transform="translate(-206.31 -49.82)"/><path class="cls-8" d="M601.26,503a8.33,8.33,0,0,0,5.61-3.42,14.37,14.37,0,0,0,2.58-6.26c.74-3.85.46-7.76.68-11.65a88.71,88.71,0,0,0,5.67,23.78,100.39,100.39,0,0,1,.55-27.77,43.23,43.23,0,0,0,7.48,8.37c4.69,4.11,10.77,7.23,16.38,10.69a150.63,150.63,0,0,1,16.58,11.81c1.19,1,2.36,2,3.47,3a19,19,0,0,1,.88,2.93,12.7,12.7,0,0,1-2,10.32,10.72,10.72,0,0,1-4.3,3.33,12.83,12.83,0,0,1-6,1.23,5.79,5.79,0,0,1-2.2-11c1.19-.55,3.13-.41,3.67.94a1.08,1.08,0,0,0,1.29.7,1,1,0,0,0,.74-1.22,4.8,4.8,0,0,0-6.14-2.39,7.74,7.74,0,0,0-4.74,5.6,7.44,7.44,0,0,0,1.27,6.08,8.2,8.2,0,0,0,5.73,3.2,14.73,14.73,0,0,0,7.53-1.49,12.8,12.8,0,0,0,5.16-4.26,14.54,14.54,0,0,0,2.2-10.94,21.79,21.79,0,0,1,4.23,6.55c2.08,5.47.46,11-1.46,16.32a13.1,13.1,0,0,0,6.64-8.6c2.39-8.53-.75-18.07-8.41-25.57-10.15-9.94-26.87-15.89-37.52-25.54-5.1-4.62-6.87-8.88-7.71-12.12a70.29,70.29,0,0,1,13-24.89c1.47-1.76,2.91-3.39,4.34-4.9a11.9,11.9,0,0,0,1.26,5.29,6,6,0,0,0,2.37,2.63,4.07,4.07,0,0,0,3.52.22c2.07-.85,3.87-3.25,3-5.41a2.48,2.48,0,0,0-2.76-1.64,1.83,1.83,0,0,0-1.24,2.61.74.74,0,0,0,1,.24.65.65,0,0,0,.25-.91.54.54,0,0,1,.25-.61c.29-.16.69.05.9.26a2,2,0,0,1,.21,2.21c-.62,1.4-2.44,2.71-4.07,2s-2.47-2.71-2.89-4.31a9.89,9.89,0,0,1-.17-4.27c19.85-20.12,34.8-16.88,34.8-16.88V401.48c-.72.55-10.57,4.12-22.38,11.39l-1.06.16a56.09,56.09,0,0,1-15.46-.63c-7.33-1.1-13.86-4.33-18.22-10,0,0-.15-.47-.36.56a10.32,10.32,0,0,0-.2,1.94c0,4.57,3.77,6.59,7.86,9a61.1,61.1,0,0,0,5.82,3.09,44.56,44.56,0,0,0,10.77,3.33,95.56,95.56,0,0,0-16.72,16.32l-.49.23c-4.49,2-9.7,4.35-11.9,8.85s-1,9,.65,13.29a73.78,73.78,0,0,0-1.38,15,21.88,21.88,0,0,0-1.21,4.94c-.56,4-.17,8.1-.61,12.13-.4,3.57-1.62,8.2-5.48,9.81a4,4,0,0,1-4.19-.59,5.46,5.46,0,0,1-1.16-5.91c.27-.61.81-1.43,1.6-1.5a1.62,1.62,0,0,1,1.53,1.1,3,3,0,0,1-.61,2.6c-.65.94,1,1.81,1.59.88a4.62,4.62,0,0,0,.83-3.82,3.52,3.52,0,0,0-2.57-2.43c-2.78-.59-4.32,2.32-4.58,4.46C594.46,499.24,597,503.39,601.26,503Zm11.57-57.17a14.1,14.1,0,0,1,4.84-4.32c.88-.52,1.78-1,2.7-1.45a68.29,68.29,0,0,0-8.26,15.58,16.56,16.56,0,0,1-.61-2.86A10.44,10.44,0,0,1,612.83,445.8Z" transform="translate(-206.31 -49.82)"/><path class="cls-9" d="M623.49,414.43s-8.68-8.59-17.18,8.46C606.31,422.89,625.61,425.72,623.49,414.43Z" transform="translate(-206.31 -49.82)"/><path class="cls-9" d="M635.05,413.43s11.77-4.23-1.69-18.16C633.36,395.27,623.16,410.94,635.05,413.43Z" transform="translate(-206.31 -49.82)"/><path class="cls-9" d="M610.25,468.92s-8.67-8.59-17.18,8.45C593.07,477.37,612.38,480.21,610.25,468.92Z" transform="translate(-206.31 -49.82)"/><path class="cls-9" d="M634.62,484.52s10.21,6.33,14.74-11.84C649.36,472.68,630.14,474.19,634.62,484.52Z" transform="translate(-206.31 -49.82)"/><path class="cls-9" d="M626.82,487.83s-7.15,1.75-.38,11.36C626.44,499.19,633.54,490.24,626.82,487.83Z" transform="translate(-206.31 -49.82)"/><path class="cls-8" d="M615.11,348.48a6.36,6.36,0,0,1,.33-1.57c.29-.83.42-.44.42-.44,4.25,4.8,11,7.72,18.67,8.93,2.45.39,4.93.73,7.43,1h0c7.72.62,18.27-2.38,23.51-4.09l.31-.16-.19.12c1.93-.63,3.11-1.07,3.11-1.07v2.94l1,8.92c-12.47,3.21-27.07-.49-27.07-.49l0,0a57.6,57.6,0,0,1-13.73-3.57c-2.06-.83-4-1.78-6-2.77C618.69,354,614.82,352.21,615.11,348.48Z" transform="translate(-206.31 -49.82)"/><path class="cls-9" d="M626.23,353.85s8.65.17,3.9-12.74C630.13,341.11,619.33,349.09,626.23,353.85Z" transform="translate(-206.31 -49.82)"/><path class="cls-9" d="M616.47,353.21s.72-8.62-12.46-4.71C604,348.5,611.28,359.79,616.47,353.21Z" transform="translate(-206.31 -49.82)"/><path class="cls-9" d="M637.06,360.33s-8.19-6.58-13.2,9.35C623.86,369.68,640.15,370,637.06,360.33Z" transform="translate(-206.31 -49.82)"/><path class="cls-10" d="M661.82,882.81H615.91v3.92H579.25s34,3.44,36.84,19.34v16h45.73Z" transform="translate(-206.31 -49.82)"/><rect class="cls-2" x="615.05" y="926.07" width="46.51" height="166.3" transform="translate(1070.31 1968.62) rotate(-180)"/><path class="cls-4" d="M614,935.42h47.6V920.13H603.27a.79.79,0,0,0-.62,1.3Z" transform="translate(-206.31 -49.82)"/><path class="cls-4" d="M611.15,935.07h47.18a3.23,3.23,0,0,1,3.23,3.23v0a3.23,3.23,0,0,1-3.23,3.23H611.15a0,0,0,0,1,0,0v-6.45A0,0,0,0,1,611.15,935.07Z" transform="translate(1066.41 1826.77) rotate(-180)"/><g class="cls-19"><path class="cls-6" d="M716,935.41H602.8v-8.58a8.57,8.57,0,0,1,7.07,3.72,8.57,8.57,0,0,1,14.14,0,8.57,8.57,0,0,1,14.15,0,8.57,8.57,0,0,1,14.14,0,8.58,8.58,0,0,1,14.15,0c.13-.19.28-.36.42-.54l0-.06a6,6,0,0,1,.48-.53l.11-.11a6.28,6.28,0,0,1,.54-.49l.07-.06a8.48,8.48,0,0,1,2.79-1.51l.11,0c.24-.07.48-.13.73-.18l.14,0a8.75,8.75,0,0,1,1.63-.17,8.53,8.53,0,0,1,6.45,2.93,8,8,0,0,1,.62.79,8.58,8.58,0,0,1,13.53-.79,7.9,7.9,0,0,1,.61.79,8.57,8.57,0,0,1,14.15,0,8.58,8.58,0,0,1,7.07-3.73Z" transform="translate(-206.31 -49.82)"/></g><path class="cls-4" d="M630.83,958.14h30.73a0,0,0,0,1,0,0v62.21a30.73,30.73,0,0,1-30.73,30.73h0a0,0,0,0,1,0,0V958.14A0,0,0,0,1,630.83,958.14Z" transform="translate(1086.08 1959.4) rotate(-180)"/><path class="cls-6" d="M635.73,962.43h25.83a0,0,0,0,1,0,0v56.48a25.83,25.83,0,0,1-25.83,25.83h0a0,0,0,0,1,0,0v-82.3A0,0,0,0,1,635.73,962.43Z" transform="translate(1090.99 1957.35) rotate(-180)"/><path class="cls-2" d="M661.56,1166.88H615.11v-43.23c-1.34-12.07-6.42-16.8-6.42-16.8h6.42v-6.6h46.45Z" transform="translate(-206.31 -49.82)"/><path class="cls-3" d="M661.56,1107.12H605.88s-16.1.38-9.57-13.89c4.73-10.33-.64-12.79-4-13.36a6,6,0,0,1-3.81,10.55,5.34,5.34,0,0,1-.69-.05h0s-9.91-.46-8.32-12.64,14.24-9.46,14.24-9.46,11.05.77,12,10.92,37.58,11.18,37.58,11.18h18.25Z" transform="translate(-206.31 -49.82)"/><rect class="cls-2" x="615.05" y="1171.39" width="46.51" height="166.3" transform="translate(1070.31 2459.25) rotate(-180)"/><path class="cls-4" d="M614,1178.73h47.6v-15.28H603.27a.79.79,0,0,0-.62,1.3Z" transform="translate(-206.31 -49.82)"/><path class="cls-4" d="M611.15,1178.39h47.18a3.23,3.23,0,0,1,3.23,3.23v0a3.23,3.23,0,0,1-3.23,3.23H611.15a0,0,0,0,1,0,0v-6.45A0,0,0,0,1,611.15,1178.39Z" transform="translate(1066.41 2313.4) rotate(180)"/><g class="cls-20"><path class="cls-6" d="M716,1178.73H602.8v-8.58a8.58,8.58,0,0,1,7.07,3.73,8.57,8.57,0,0,1,14.14,0,8.58,8.58,0,0,1,14.15,0,8.58,8.58,0,0,1,14.14,0,8.59,8.59,0,0,1,14.15,0c.13-.19.28-.37.42-.55l0,0a6.17,6.17,0,0,1,.48-.54,1.14,1.14,0,0,0,.11-.11,6.17,6.17,0,0,1,.54-.48l.07-.07a8.46,8.46,0,0,1,2.79-1.5l.11,0c.24-.07.48-.14.73-.19l.14,0a8.75,8.75,0,0,1,1.63-.17,8.57,8.57,0,0,1,6.45,2.93,9.5,9.5,0,0,1,.62.8,8.58,8.58,0,0,1,13.53-.8,8,8,0,0,1,.61.8,8.58,8.58,0,0,1,14.15,0,8.57,8.57,0,0,1,7.07-3.72Z" transform="translate(-206.31 -49.82)"/></g><path class="cls-4" d="M630.83,1203.46h30.73a0,0,0,0,1,0,0v62.21a30.73,30.73,0,0,1-30.73,30.73h0a0,0,0,0,1,0,0v-92.94A0,0,0,0,1,630.83,1203.46Z" transform="translate(1086.08 2450.03) rotate(-180)"/><path class="cls-6" d="M635.73,1207.75h25.83a0,0,0,0,1,0,0v56.48a25.83,25.83,0,0,1-25.83,25.83h0a0,0,0,0,1,0,0v-82.3A0,0,0,0,1,635.73,1207.75Z" transform="translate(1090.99 2447.98) rotate(-180)"/><path class="cls-9" d="M640.67,1039.53s-8.75.59-2.95,13.58C637.72,1053.11,648,1043.85,640.67,1039.53Z" transform="translate(-206.31 -49.82)"/><path class="cls-8" d="M601.27,1044.54a7.6,7.6,0,0,0,5.14-3.34,14.58,14.58,0,0,0,2.37-6.1c.67-3.76.41-7.57.62-11.36a90.46,90.46,0,0,0,5.2,23.18,104.21,104.21,0,0,1,.5-27.06A42.24,42.24,0,0,0,622,1028c4.31,4,9.88,7,15,10.42a137.34,137.34,0,0,1,15.2,11.51c1.09,1,2.16,1.93,3.18,2.93a18.92,18.92,0,0,1,.82,2.85,13,13,0,0,1-1.88,10.06,10,10,0,0,1-3.94,3.25,11.23,11.23,0,0,1-5.51,1.19,5.57,5.57,0,0,1-4.87-6.79,5.66,5.66,0,0,1,2.85-3.9c1.1-.54,2.87-.4,3.37.92a1,1,0,1,0,1.86-.51,4.31,4.31,0,0,0-5.63-2.33,7.41,7.41,0,0,0-4.34,5.46,7.59,7.59,0,0,0,1.16,5.93,7.45,7.45,0,0,0,5.25,3.12,12.9,12.9,0,0,0,6.91-1.46,11.82,11.82,0,0,0,4.72-4.15,14.84,14.84,0,0,0,2-10.66,21.35,21.35,0,0,1,3.88,6.38c1.91,5.33.42,10.78-1.34,15.9a12.67,12.67,0,0,0,6.09-8.37c2.19-8.32-.69-17.61-7.71-24.92-9.3-9.69-24.63-15.5-34.39-24.9a23.59,23.59,0,0,1-7.08-11.81,70.18,70.18,0,0,1,11.94-24.26c1.35-1.72,2.67-3.31,4-4.78a12.22,12.22,0,0,0,1.15,5.16,5.72,5.72,0,0,0,2.18,2.56,3.5,3.5,0,0,0,3.22.22c1.9-.83,3.55-3.17,2.75-5.28a2.26,2.26,0,0,0-2.54-1.59,1.81,1.81,0,0,0-1.14,2.54.65.65,0,1,0,1.13-.65.52.52,0,0,1,.22-.59.73.73,0,0,1,.83.25,2.1,2.1,0,0,1,.2,2.15c-.57,1.36-2.25,2.65-3.74,2s-2.26-2.63-2.65-4.19a10.2,10.2,0,0,1-.15-4.16c18.2-19.62,31.9-16.46,31.9-16.46v-15.4c-.66.53-9.69,4-20.52,11.09l-1,.16a48.53,48.53,0,0,1-14.17-.61c-6.72-1.07-12.71-4.22-16.7-9.74,0,0-.15-.46-.34.55A10.64,10.64,0,0,0,614,949c0,4.46,3.46,6.43,7.21,8.79a53.76,53.76,0,0,0,5.34,3A39,39,0,0,0,636.4,964a90.45,90.45,0,0,0-15.32,15.91l-.45.21c-4.12,2-8.89,4.25-10.91,8.64s-.94,8.75.6,13a75.32,75.32,0,0,0-1.27,14.62,22.83,22.83,0,0,0-1.11,4.81c-.51,3.93-.15,7.89-.56,11.82-.36,3.49-1.49,8-5,9.57a3.46,3.46,0,0,1-3.83-.58,5.22,5.22,0,0,1-1.44-3.65,5.15,5.15,0,0,1,.38-2.11c.25-.6.74-1.4,1.46-1.47a1.5,1.5,0,0,1,1.4,1.08,3,3,0,0,1-.56,2.53c-.59.92.88,1.77,1.46.86a4.75,4.75,0,0,0,.77-3.72,3.32,3.32,0,0,0-2.37-2.37c-2.55-.57-4,2.26-4.19,4.35C595,1040.9,597.39,1044.94,601.27,1044.54Zm10.6-55.73a13.25,13.25,0,0,1,4.44-4.21c.8-.51,1.63-1,2.48-1.42a68.24,68.24,0,0,0-7.58,15.19,19,19,0,0,1-.56-2.78A10.84,10.84,0,0,1,611.87,988.81Z" transform="translate(-206.31 -49.82)"/><path class="cls-9" d="M621.64,958.24s-7.95-8.37-15.74,8.24C605.9,966.48,623.59,969.24,621.64,958.24Z" transform="translate(-206.31 -49.82)"/><path class="cls-9" d="M632.25,957.26s10.78-4.12-1.56-17.7C630.69,939.56,621.34,954.84,632.25,957.26Z" transform="translate(-206.31 -49.82)"/><path class="cls-9" d="M609.51,1011.34s-8-8.37-15.75,8.25C593.76,1019.59,611.46,1022.34,609.51,1011.34Z" transform="translate(-206.31 -49.82)"/><path class="cls-9" d="M631.85,1026.55s9.36,6.17,13.52-11.54C645.37,1015,627.75,1016.48,631.85,1026.55Z" transform="translate(-206.31 -49.82)"/><path class="cls-9" d="M624.7,1029.78s-6.55,1.7-.35,11.07C624.35,1040.85,630.86,1032.13,624.7,1029.78Z" transform="translate(-206.31 -49.82)"/><path class="cls-8" d="M613.79,1134.46a6.51,6.51,0,0,1,.33-1.59c.29-.84.43-.44.43-.44,4.29,4.85,11.08,7.8,18.85,9,2.48.39,5,.74,7.5,1h0c7.79.62,18.45-2.41,23.74-4.13l.32-.17-.2.13c2-.64,3.14-1.09,3.14-1.09v3l1,9c-12.6,3.25-27.35-.49-27.35-.49l0,0a57.63,57.63,0,0,1-13.86-3.61c-2.09-.84-4.09-1.8-6-2.8C617.4,1140.05,613.49,1138.22,613.79,1134.46Z" transform="translate(-206.31 -49.82)"/><path class="cls-9" d="M625,1139.88s8.74.18,4-12.87C629,1127,618.05,1135.08,625,1139.88Z" transform="translate(-206.31 -49.82)"/><path class="cls-9" d="M615.16,1139.24s.73-8.71-12.59-4.76C602.57,1134.48,609.92,1145.88,615.16,1139.24Z" transform="translate(-206.31 -49.82)"/><path class="cls-9" d="M636,1146.43s-8.26-6.65-13.33,9.44C622.62,1155.87,639.08,1156.21,636,1146.43Z" transform="translate(-206.31 -49.82)"/><path class="cls-9" d="M641.48,1283.06s-8.94.61-3,13.89C638.47,1297,649,1287.49,641.48,1283.06Z" transform="translate(-206.31 -49.82)"/><path class="cls-8" d="M601.22,1288.18a7.75,7.75,0,0,0,5.26-3.41,15,15,0,0,0,2.41-6.23c.69-3.84.43-7.74.64-11.61a92.67,92.67,0,0,0,5.31,23.69,106.2,106.2,0,0,1,.52-27.66,42.53,42.53,0,0,0,7,8.34c4.4,4.09,10.09,7.2,15.35,10.65a140,140,0,0,1,15.54,11.76c1.11,1,2.2,2,3.25,3a19.66,19.66,0,0,1,.82,2.91,13.33,13.33,0,0,1-1.91,10.29,10.32,10.32,0,0,1-4,3.32,11.48,11.48,0,0,1-5.63,1.21,5.69,5.69,0,0,1-5-6.94,5.77,5.77,0,0,1,2.92-4c1.12-.55,2.93-.41,3.44.94a1,1,0,0,0,1.21.69,1,1,0,0,0,.69-1.21,4.39,4.39,0,0,0-5.75-2.38,7.57,7.57,0,0,0-4.44,5.57,7.74,7.74,0,0,0,1.19,6.06,7.57,7.57,0,0,0,5.36,3.19,13.06,13.06,0,0,0,7.06-1.49,12.06,12.06,0,0,0,4.83-4.24,15.19,15.19,0,0,0,2.06-10.89,21.77,21.77,0,0,1,4,6.52c2,5.45.43,11-1.37,16.25a13,13,0,0,0,6.22-8.56c2.24-8.5-.7-18-7.87-25.47-9.51-9.9-25.18-15.84-35.16-25.44A24.11,24.11,0,0,1,617.9,1251a71.74,71.74,0,0,1,12.21-24.79q2.05-2.62,4.06-4.89a12.45,12.45,0,0,0,1.18,5.28,5.85,5.85,0,0,0,2.22,2.62,3.57,3.57,0,0,0,3.3.21c1.94-.84,3.63-3.23,2.8-5.38a2.33,2.33,0,0,0-2.59-1.64,1.86,1.86,0,0,0-1.16,2.61.67.67,0,0,0,.91.24.69.69,0,0,0,.24-.91.55.55,0,0,1,.22-.61c.28-.16.66,0,.85.26a2.13,2.13,0,0,1,.2,2.2c-.58,1.39-2.29,2.7-3.81,2s-2.32-2.7-2.71-4.29a10.46,10.46,0,0,1-.16-4.25c18.6-20.05,32.61-16.82,32.61-16.82v-15.74c-.68.54-9.91,4.1-21,11.34l-1,.15a49.26,49.26,0,0,1-14.48-.62c-6.87-1.09-13-4.32-17.07-10,0,0-.15-.47-.35.55a11.31,11.31,0,0,0-.18,1.94c0,4.55,3.54,6.56,7.36,9a55.33,55.33,0,0,0,5.46,3.08,40,40,0,0,0,10.09,3.32,92.33,92.33,0,0,0-15.66,16.26l-.47.22c-4.2,2-9.08,4.34-11.15,8.83-2,4.33-1,8.94.62,13.23a77.1,77.1,0,0,0-1.3,14.94,24,24,0,0,0-1.14,4.93c-.51,4-.15,8.06-.57,12.08-.36,3.55-1.52,8.16-5.13,9.77a3.57,3.57,0,0,1-3.93-.59,5.74,5.74,0,0,1-1.08-5.88c.26-.62.76-1.43,1.5-1.51a1.53,1.53,0,0,1,1.43,1.11,3.11,3.11,0,0,1-.57,2.58c-.61.94.89,1.81,1.49.88a4.87,4.87,0,0,0,.78-3.81,3.39,3.39,0,0,0-2.41-2.41c-2.61-.59-4,2.3-4.29,4.44C594.85,1284.47,597.25,1288.6,601.22,1288.18Zm10.84-57a13.32,13.32,0,0,1,4.53-4.3c.82-.52,1.67-1,2.53-1.45a69.89,69.89,0,0,0-7.74,15.52,18.55,18.55,0,0,1-.57-2.84A11,11,0,0,1,612.06,1231.23Z" transform="translate(-206.31 -49.82)"/><path class="cls-9" d="M622,1200s-8.13-8.55-16.09,8.43C606,1208.41,624,1211.23,622,1200Z" transform="translate(-206.31 -49.82)"/><path class="cls-9" d="M632.88,1199s11-4.22-1.59-18.1C631.29,1180.89,621.73,1196.51,632.88,1199Z" transform="translate(-206.31 -49.82)"/><path class="cls-9" d="M609.64,1254.26s-8.13-8.56-16.09,8.42C593.55,1262.68,611.64,1265.5,609.64,1254.26Z" transform="translate(-206.31 -49.82)"/><path class="cls-9" d="M632.47,1269.8s9.57,6.3,13.82-11.79C646.29,1258,628.28,1259.51,632.47,1269.8Z" transform="translate(-206.31 -49.82)"/><path class="cls-9" d="M625.16,1273.1s-6.69,1.74-.35,11.32C624.81,1284.42,631.46,1275.5,625.16,1273.1Z" transform="translate(-206.31 -49.82)"/><path class="cls-9" d="M643.61,634.72s-9.54.61-3.22,13.94C640.39,648.66,651.6,639.16,643.61,634.72Z" transform="translate(-206.31 -49.82)"/><path class="cls-8" d="M600.63,639.86a8.33,8.33,0,0,0,5.61-3.42,14.37,14.37,0,0,0,2.58-6.26c.74-3.85.46-7.77.68-11.65a88.8,88.8,0,0,0,5.67,23.78,100.39,100.39,0,0,1,.55-27.77,43.52,43.52,0,0,0,7.48,8.37c4.69,4.11,10.77,7.23,16.38,10.69a149.3,149.3,0,0,1,16.58,11.81c1.19,1,2.36,2,3.47,3a18.64,18.64,0,0,1,.88,2.93,12.7,12.7,0,0,1-2,10.32,10.81,10.81,0,0,1-4.3,3.33,12.82,12.82,0,0,1-6,1.22,5.76,5.76,0,0,1-5.31-7,5.86,5.86,0,0,1,3.11-4c1.19-.54,3.13-.4,3.67,1a1.07,1.07,0,0,0,1.29.69,1,1,0,0,0,.74-1.21,4.79,4.79,0,0,0-6.14-2.39,7.74,7.74,0,0,0-4.74,5.6,7.44,7.44,0,0,0,1.27,6.08,8.2,8.2,0,0,0,5.73,3.2,14.73,14.73,0,0,0,7.53-1.49,12.8,12.8,0,0,0,5.16-4.26,14.54,14.54,0,0,0,2.2-10.94A21.67,21.67,0,0,1,666.9,658c2.08,5.47.46,11.05-1.46,16.31a13.08,13.08,0,0,0,6.64-8.59c2.39-8.54-.75-18.07-8.41-25.57-10.15-9.94-26.87-15.9-37.52-25.54-5.1-4.62-6.87-8.89-7.71-12.12a70.13,70.13,0,0,1,13-24.89c1.47-1.76,2.91-3.39,4.34-4.91a11.91,11.91,0,0,0,1.26,5.3,6,6,0,0,0,2.37,2.63,4,4,0,0,0,3.52.21c2.07-.84,3.87-3.24,3-5.4a2.48,2.48,0,0,0-2.76-1.64,1.83,1.83,0,0,0-1.24,2.61.74.74,0,0,0,1,.24.65.65,0,0,0,.25-.91.54.54,0,0,1,.25-.61c.29-.16.69.05.9.26a2,2,0,0,1,.21,2.21c-.62,1.4-2.44,2.71-4.07,2s-2.47-2.7-2.89-4.3a9.89,9.89,0,0,1-.17-4.27c19.85-20.12,34.8-16.88,34.8-16.88V538.37c-.72.55-10.57,4.12-22.38,11.39l-1.06.15a56.08,56.08,0,0,1-15.46-.62c-7.33-1.1-13.86-4.33-18.22-10,0,0-.15-.47-.36.56a10.25,10.25,0,0,0-.2,1.93c0,4.58,3.77,6.6,7.86,9a63.46,63.46,0,0,0,5.82,3.09A45,45,0,0,0,639,557.23a95.56,95.56,0,0,0-16.72,16.32l-.49.22c-4.49,2-9.7,4.36-11.9,8.86s-1,9,.65,13.29a73.7,73.7,0,0,0-1.38,15,21.88,21.88,0,0,0-1.21,4.94c-.56,4-.17,8.1-.61,12.13-.4,3.57-1.62,8.19-5.48,9.81a4,4,0,0,1-4.19-.59,5.17,5.17,0,0,1-1.57-3.74,5.11,5.11,0,0,1,.41-2.17c.27-.62.81-1.43,1.6-1.51a1.64,1.64,0,0,1,1.53,1.11,3,3,0,0,1-.61,2.6c-.65.94,1,1.81,1.59.87a4.6,4.6,0,0,0,.83-3.81,3.5,3.5,0,0,0-2.57-2.43c-2.78-.59-4.32,2.31-4.58,4.46C593.83,636.13,596.4,640.28,600.63,639.86Zm11.57-57.17a14,14,0,0,1,4.84-4.32c.88-.52,1.78-1,2.7-1.46a68.5,68.5,0,0,0-8.26,15.58,16.25,16.25,0,0,1-.61-2.85A10.44,10.44,0,0,1,612.2,582.69Z" transform="translate(-206.31 -49.82)"/><path class="cls-9" d="M622.86,551.32s-8.68-8.59-17.18,8.46C605.68,559.78,625,562.61,622.86,551.32Z" transform="translate(-206.31 -49.82)"/><path class="cls-9" d="M634.42,550.32s11.77-4.23-1.69-18.17C632.73,532.15,622.53,547.83,634.42,550.32Z" transform="translate(-206.31 -49.82)"/><path class="cls-9" d="M609.62,605.8s-8.67-8.58-17.18,8.46C592.44,614.26,611.75,617.09,609.62,605.8Z" transform="translate(-206.31 -49.82)"/><path class="cls-9" d="M634,621.41s10.21,6.33,14.74-11.84C648.73,609.57,629.51,611.08,634,621.41Z" transform="translate(-206.31 -49.82)"/><path class="cls-9" d="M626.19,624.72s-7.15,1.75-.38,11.36C625.81,636.08,632.91,627.13,626.19,624.72Z" transform="translate(-206.31 -49.82)"/><rect class="cls-2" x="615.38" y="694.24" width="46.51" height="178.67" transform="translate(1070.97 1517.33) rotate(-180)"/><path class="cls-4" d="M614.29,694.59h47.6V679.3H603.6a.8.8,0,0,0-.62,1.3Z" transform="translate(-206.31 -49.82)"/><path class="cls-4" d="M611.49,694.24h47.18a3.23,3.23,0,0,1,3.23,3.23v0a3.23,3.23,0,0,1-3.23,3.23H611.49a0,0,0,0,1,0,0v-6.45A0,0,0,0,1,611.49,694.24Z" transform="translate(1067.07 1345.11) rotate(-180)"/><g class="cls-21"><path class="cls-6" d="M716.28,694.58H603.13V686a8.58,8.58,0,0,1,7.07,3.72,8.59,8.59,0,0,1,14.15,0,8.58,8.58,0,0,1,14.14,0,8.57,8.57,0,0,1,14.14,0,8.57,8.57,0,0,1,14.15,0c.13-.19.28-.37.43-.55l0-.06c.15-.18.32-.36.48-.53l.11-.11c.18-.17.35-.33.54-.49l.08-.06a8.52,8.52,0,0,1,2.78-1.51l.12,0q.35-.11.72-.18l.14,0a8.75,8.75,0,0,1,1.63-.17,8.55,8.55,0,0,1,6.45,2.93,7.68,7.68,0,0,1,.62.79,8.58,8.58,0,0,1,13.53-.79,9.36,9.36,0,0,1,.62.79,8.58,8.58,0,0,1,14.14,0,8.58,8.58,0,0,1,7.07-3.73Z" transform="translate(-206.31 -49.82)"/></g><path class="cls-4" d="M631.16,726.31h30.73a0,0,0,0,1,0,0v62.21a30.73,30.73,0,0,1-30.73,30.73h0a0,0,0,0,1,0,0V726.31A0,0,0,0,1,631.16,726.31Z" transform="translate(1086.75 1495.75) rotate(-180)"/><path class="cls-6" d="M636.07,730.6h25.83a0,0,0,0,1,0,0v56.48a25.83,25.83,0,0,1-25.83,25.83h0a0,0,0,0,1,0,0V730.6A0,0,0,0,1,636.07,730.6Z" transform="translate(1091.65 1493.69) rotate(-180)"/><path class="cls-9" d="M641.82,802.92s-8.94.61-3,13.89C638.8,816.81,649.31,807.34,641.82,802.92Z" transform="translate(-206.31 -49.82)"/><path class="cls-8" d="M601.55,808a7.75,7.75,0,0,0,5.26-3.41,15.05,15.05,0,0,0,2.42-6.24c.68-3.83.42-7.73.63-11.6a92.67,92.67,0,0,0,5.31,23.69,106.22,106.22,0,0,1,.52-27.66,42.87,42.87,0,0,0,7,8.33c4.4,4.1,10.1,7.21,15.35,10.65a141.33,141.33,0,0,1,15.54,11.77c1.11,1,2.2,2,3.25,3a19.69,19.69,0,0,1,.83,2.91,13.34,13.34,0,0,1-1.92,10.29,10.23,10.23,0,0,1-4,3.31,11.46,11.46,0,0,1-5.63,1.22,5.7,5.7,0,0,1-5-6.94,5.81,5.81,0,0,1,2.92-4c1.12-.54,2.93-.4,3.44.95a1,1,0,1,0,1.9-.53,4.39,4.39,0,0,0-5.75-2.38,7.59,7.59,0,0,0-4.44,5.58,7.78,7.78,0,0,0,1.19,6.06,7.59,7.59,0,0,0,5.36,3.19,13.15,13.15,0,0,0,7.06-1.49,12.14,12.14,0,0,0,4.83-4.24,15.16,15.16,0,0,0,2.06-10.9,21.94,21.94,0,0,1,4,6.53c2,5.45.43,11-1.37,16.25a13,13,0,0,0,6.23-8.56c2.23-8.51-.71-18-7.88-25.47-9.51-9.91-25.18-15.84-35.16-25.45a24.13,24.13,0,0,1-7.23-12.07A71.66,71.66,0,0,1,630.44,746c1.37-1.76,2.73-3.38,4.06-4.89a12.64,12.64,0,0,0,1.18,5.28A5.82,5.82,0,0,0,637.9,749a3.57,3.57,0,0,0,3.3.22c1.94-.84,3.63-3.23,2.81-5.39a2.34,2.34,0,0,0-2.6-1.63,1.86,1.86,0,0,0-1.16,2.6.67.67,0,0,0,.91.24.68.68,0,0,0,.24-.91.53.53,0,0,1,.23-.6.73.73,0,0,1,.84.26,2.12,2.12,0,0,1,.2,2.2c-.58,1.39-2.29,2.7-3.81,2s-2.31-2.7-2.71-4.29a10.46,10.46,0,0,1-.16-4.25c18.6-20,32.61-16.82,32.61-16.82V706.94c-.67.55-9.91,4.1-21,11.34l-1,.16a49.6,49.6,0,0,1-14.48-.62c-6.87-1.1-13-4.32-17.07-10,0,0-.15-.46-.34.56a10.15,10.15,0,0,0-.18,1.93c0,4.56,3.53,6.57,7.36,9a57.28,57.28,0,0,0,5.45,3.08,40.36,40.36,0,0,0,10.09,3.32A92,92,0,0,0,621.8,742l-.46.22c-4.21,2-9.09,4.34-11.16,8.82s-.95,9,.62,13.24a77.1,77.1,0,0,0-1.3,14.94,24,24,0,0,0-1.13,4.92c-.52,4-.16,8.07-.57,12.08-.37,3.56-1.52,8.17-5.14,9.78a3.53,3.53,0,0,1-3.92-.6,5.29,5.29,0,0,1-1.47-3.72,5.39,5.39,0,0,1,.38-2.16c.26-.61.76-1.43,1.5-1.5a1.54,1.54,0,0,1,1.43,1.1,3.14,3.14,0,0,1-.57,2.59c-.6.94.89,1.81,1.5.87a4.89,4.89,0,0,0,.77-3.8,3.36,3.36,0,0,0-2.41-2.41c-2.61-.59-4,2.3-4.29,4.43C595.18,804.32,597.58,808.46,601.55,808Zm10.84-57a13.48,13.48,0,0,1,4.53-4.29c.82-.52,1.67-1,2.54-1.45a69.28,69.28,0,0,0-7.75,15.52,18.67,18.67,0,0,1-.57-2.85A11,11,0,0,1,612.39,751.08Z" transform="translate(-206.31 -49.82)"/><path class="cls-9" d="M622.37,719.84s-8.12-8.55-16.09,8.43C606.28,728.27,624.37,731.09,622.37,719.84Z" transform="translate(-206.31 -49.82)"/><path class="cls-9" d="M633.21,718.84s11-4.21-1.59-18.09C631.62,700.75,622.06,716.36,633.21,718.84Z" transform="translate(-206.31 -49.82)"/><path class="cls-9" d="M610,774.12s-8.12-8.56-16.09,8.42C593.88,782.54,612,785.36,610,774.12Z" transform="translate(-206.31 -49.82)"/><path class="cls-9" d="M632.81,789.66s9.56,6.3,13.81-11.79C646.62,777.87,628.61,779.37,632.81,789.66Z" transform="translate(-206.31 -49.82)"/><path class="cls-9" d="M625.5,793s-6.7,1.74-.35,11.31C625.15,804.27,631.79,795.36,625.5,793Z" transform="translate(-206.31 -49.82)"/><path class="cls-3" d="M527.18,857.57c1.61-12,14.4-9.3,14.4-9.3s11.17.75,12.09,10.74,38,11,38,11h73.69v0h39.21v16.51H553.83s-16.28.37-9.68-13.67c4.78-10.16-.65-12.58-4-13.14a5.8,5.8,0,0,1,2.18,4.51,6,6,0,0,1-6,5.87,5.36,5.36,0,0,1-.7,0h0S525.56,869.56,527.18,857.57Z" transform="translate(-206.31 -49.82)"/><path class="cls-2" d="M564.14,928.17h17.62l-4,18.8a2.86,2.86,0,0,1-2.79,2.27H559.52a2.86,2.86,0,0,1-2.79-2.27l-4-18.8Z" transform="translate(-206.31 -49.82)"/><polyline class="cls-6" points="348.01 885.73 346.46 877.39 357.83 877.39 364.07 877.39 375.45 877.39 373.89 885.73"/><path class="cls-14" d="M581.14,922.56a1.06,1.06,0,0,0,.38-.07,1.09,1.09,0,0,0,.65-1.42l-14-37.79a1.1,1.1,0,0,0-1.42-.66,1.12,1.12,0,0,0-.66,1.43l14,37.79A1.1,1.1,0,0,0,581.14,922.56Z" transform="translate(-206.31 -49.82)"/><path class="cls-14" d="M553.09,922.56a1.12,1.12,0,0,0,1-.72l14-37.79a1.11,1.11,0,1,0-2.08-.77l-14,37.79a1.11,1.11,0,0,0,.65,1.42A1.07,1.07,0,0,0,553.09,922.56Z" transform="translate(-206.31 -49.82)"/><path class="cls-2" d="M553,920.88h28.55a7.38,7.38,0,0,1,7.38,7.38v4a1.17,1.17,0,0,1-1.17,1.17h-41a1.17,1.17,0,0,1-1.17-1.17v-4A7.38,7.38,0,0,1,553,920.88Z" transform="translate(928.21 1804.43) rotate(-180)"/><path class="cls-8" d="M557.05,916.94a6.68,6.68,0,0,0-3.48-2.94,5.86,5.86,0,0,0-3,0,11.29,11.29,0,0,0-4.61,2.66,15.66,15.66,0,0,1-4.29,3c-.32.13-.64.24-1,.35,2.16.51,4.25,1.28,6.41,1.8a13.8,13.8,0,0,0,6.42.27,7.42,7.42,0,0,0,2.2-1,3.82,3.82,0,0,0,2-2.61,1.6,1.6,0,0,0-.68-1.56" transform="translate(-206.31 -49.82)"/><path class="cls-15" d="M546.12,919.74a9.23,9.23,0,0,0,3.06-.93l.63-.34a2.78,2.78,0,0,1-.56-.17c-.4-.17-.68-.25-1.08-.41a3.66,3.66,0,0,0-1.24-.21c-.29,0-1,.06-1.26.1a6.34,6.34,0,0,1,1.29-.29,4.21,4.21,0,0,1,2,.4,6.33,6.33,0,0,0,1.26.39c.51-.25,1-.49,1.58-.84a7.46,7.46,0,0,1,.8-.4l-.31-.07a2.64,2.64,0,0,1-.57-.24c-.38-.21-.65-.32-1-.52a3.92,3.92,0,0,0-1.22-.35c-.28,0-.95,0-1.26,0a6.51,6.51,0,0,1,1.32-.15,4.09,4.09,0,0,1,1.9.61,5.66,5.66,0,0,0,1.57.6l.24-.08a6.72,6.72,0,0,1,1.36-.3,2.46,2.46,0,0,1-.41-.28c-.28-.24-.49-.38-.77-.61a3.08,3.08,0,0,0-1-.49,8.74,8.74,0,0,0-1-.24,5.29,5.29,0,0,1,1.12.09,3.58,3.58,0,0,1,1.48.83,6,6,0,0,0,1,.67,2.73,2.73,0,0,1,1.81.51l.18.16a1.58,1.58,0,0,0-1.13-.28,5.51,5.51,0,0,0-.71.08,4.46,4.46,0,0,0-.92,1.75,4.32,4.32,0,0,1-1,1.76,7.55,7.55,0,0,1-1.06.8c.23-.21.7-.68.89-.9a3.65,3.65,0,0,0,.64-1.09c.13-.4.26-.67.38-1.08a2.94,2.94,0,0,1,.26-.57,2.2,2.2,0,0,1,.48-.62,10.56,10.56,0,0,0-2.34.84,6.79,6.79,0,0,0-.71,1.23,4.21,4.21,0,0,1-1.15,1.63,6.91,6.91,0,0,1-1.15.67c.25-.18.78-.59,1-.79a3.51,3.51,0,0,0,.76-1c.18-.39.34-.65.51-1a2.85,2.85,0,0,1,.25-.45l-.92.49a10.74,10.74,0,0,1-4.78,1.63,17.75,17.75,0,0,1-3.34-.32C543.72,919.88,545.4,919.83,546.12,919.74Z" transform="translate(-206.31 -49.82)"/><path class="cls-16" d="M578.09,921.42a6.66,6.66,0,0,1,3.78-2.53,5.84,5.84,0,0,1,3,.34,11.22,11.22,0,0,1,4.28,3.16,16.21,16.21,0,0,0,3.94,3.44c.3.16.61.3.92.45-2.21.27-4.38.79-6.58,1.07a13.83,13.83,0,0,1-6.41-.44,7.68,7.68,0,0,1-2.08-1.19,3.86,3.86,0,0,1-1.66-2.82,1.62,1.62,0,0,1,.86-1.48" transform="translate(-206.31 -49.82)"/><path class="cls-15" d="M579.05,920.62a2.81,2.81,0,0,1,1.47-.15c.26-.09.56-.18.74-.22a4,4,0,0,1,1.89.17,4.37,4.37,0,0,0,1.89.21.59.59,0,0,0,.38-.2l0,.07a1.47,1.47,0,0,1-1.29.38,2.94,2.94,0,0,1-.58-.1c-.39-.12-.67-.17-1.06-.28a3.6,3.6,0,0,0-1.2-.07l-.48.08a7,7,0,0,1,1.81.65,7.64,7.64,0,0,1,1.28.8l.31.24a4.68,4.68,0,0,0,1.51.14,3.63,3.63,0,0,1,1.73.26,4.59,4.59,0,0,1,.88.61,9,9,0,0,0-.94-.45,3,3,0,0,0-1.08-.2c-.39,0-.65,0-1,0a2.59,2.59,0,0,1-.56,0h-.06c.49.35.95.65,1.51,1.07a1.88,1.88,0,0,0,.23.16,5.51,5.51,0,0,0,1.23.07,3.76,3.76,0,0,1,1.73.26,4.93,4.93,0,0,1,.88.61c-.23-.12-.72-.36-.94-.45a3.3,3.3,0,0,0-1.08-.2c-.39,0-.66,0-1,0h-.31a10.65,10.65,0,0,0,2.11.91c.69.22,2.32.59,3.08.74a20.71,20.71,0,0,1-3.33-.38,7.73,7.73,0,0,1-2.2-.85c.17.25.33.45.52.73a3.92,3.92,0,0,0,.86.83c.23.15.79.45,1,.59a8.48,8.48,0,0,1-1.18-.46,4,4,0,0,1-1.32-1.36c-.16-.22-.32-.45-.49-.66-.42-.26-.82-.54-1.22-.82h0l-.35-.25a.57.57,0,0,1,.08.13,2.14,2.14,0,0,1,.25.53c.13.39.26.64.4,1a3.48,3.48,0,0,0,.63,1c.18.2.65.63.87.83a6.9,6.9,0,0,1-1-.74,4.09,4.09,0,0,1-.95-1.64,4.35,4.35,0,0,0-.89-1.62l-.3-.22-.13,0h.09c-.35-.25-.7-.48-1.07-.7a3,3,0,0,1,.27.68,3.1,3.1,0,0,1,.1.67c0,.48.08.8.11,1.27a4.16,4.16,0,0,0,.37,1.33c.14.28.51.91.69,1.19a8.36,8.36,0,0,1-.9-1.14,4.69,4.69,0,0,1-.52-2.13,4.94,4.94,0,0,0-.45-2,8.09,8.09,0,0,0-2-.77,1.81,1.81,0,0,0-1.15,0Z" transform="translate(-206.31 -49.82)"/><path class="cls-16" d="M573.53,919.84a6.68,6.68,0,0,1,4,.31,5.75,5.75,0,0,1,2,1.64,8.71,8.71,0,0,1,1.56,4,11.75,11.75,0,0,0,1.19,4c.13.24.29.48.44.72-1.73-.91-3.56-1.65-5.3-2.55a13.38,13.38,0,0,1-4.44-3.37,6.32,6.32,0,0,1-.92-1.73,2.62,2.62,0,0,1,.17-2.51,1.36,1.36,0,0,1,1.34-.48" transform="translate(-206.31 -49.82)"/><path class="cls-15" d="M574.62,919.83a2.79,2.79,0,0,1,1.13.62,6,6,0,0,1,.65.22,3.92,3.92,0,0,1,1.29,1,4,4,0,0,0,1.27,1,.65.65,0,0,0,.38.07l-.08,0a1.53,1.53,0,0,1-1.12-.4,3.06,3.06,0,0,1-.37-.35c-.22-.26-.4-.42-.64-.68a3.26,3.26,0,0,0-.83-.62l-.38-.19a6.92,6.92,0,0,1,1,1.27,6,6,0,0,1,.54,1.11l.11.3a5.27,5.27,0,0,0,1,.81,3.35,3.35,0,0,1,1.13,1,4,4,0,0,1,.35.8c-.11-.18-.35-.57-.47-.73a2.89,2.89,0,0,0-.69-.64c-.28-.18-.46-.33-.76-.5a3.8,3.8,0,0,1-.38-.29l0,0c.18.45.37.86.57,1.38l.09.21a5.79,5.79,0,0,0,.86.63,3.7,3.7,0,0,1,1.13,1,3.62,3.62,0,0,1,.34.79c-.1-.18-.34-.56-.46-.72a3.13,3.13,0,0,0-.69-.65c-.29-.18-.47-.32-.76-.5-.08,0-.15-.1-.23-.15a10.65,10.65,0,0,0,1.09,1.57c.39.46,1.4,1.47,1.87,1.94a19.71,19.71,0,0,1-2.22-1.84,6.67,6.67,0,0,1-1.19-1.59c0,.24,0,.43,0,.69a2.49,2.49,0,0,0,.22.92c.09.21.35.66.47.87a5.66,5.66,0,0,1-.63-.85,2.9,2.9,0,0,1-.3-1.47q0-.31,0-.63c-.18-.36-.33-.72-.48-1.09h0l-.14-.33V924a1.33,1.33,0,0,1-.08.45c-.09.29-.12.51-.21.81a2.43,2.43,0,0,0,0,.92c0,.21.16.7.23.92a5.48,5.48,0,0,1-.39-.94,2.65,2.65,0,0,1,.11-1.45,3,3,0,0,0,.15-1.41l-.12-.28a.27.27,0,0,0-.08-.07l.07,0c-.14-.32-.28-.63-.44-.94a2,2,0,0,1-.14.54,2.05,2.05,0,0,1-.25.46c-.22.29-.33.51-.54.81a2.68,2.68,0,0,0-.38,1c0,.24-.07.8-.08,1.06a5.39,5.39,0,0,1-.09-1.13,3.07,3.07,0,0,1,.65-1.53,3.32,3.32,0,0,0,.68-1.46,6.93,6.93,0,0,0-1-1.41,1.82,1.82,0,0,0-.85-.55Z" transform="translate(-206.31 -49.82)"/><path class="cls-8" d="M574.2,917.84a7.85,7.85,0,0,1,3.42-4.14,6.83,6.83,0,0,1,3.44-.61,13.26,13.26,0,0,1,5.9,2.12,18.75,18.75,0,0,0,5.61,2.55c.39.08.79.14,1.18.2-2.39,1-4.66,2.37-7.06,3.43a16.25,16.25,0,0,1-7.38,1.67,9.08,9.08,0,0,1-2.75-.65,4.49,4.49,0,0,1-2.82-2.62,1.88,1.88,0,0,1,.46-1.95" transform="translate(-206.31 -49.82)"/><path class="cls-15" d="M575.55,916.63a3.07,3.07,0,0,1,1.68-.65l0,0,0,0a5.17,5.17,0,0,1,.79,0,6.4,6.4,0,0,0,1.56-.88,4.52,4.52,0,0,1,1.95-.94,5.91,5.91,0,0,1,1.33,0c-.31,0-1,.13-1.28.2a4,4,0,0,0-1.24.55c-.39.28-.68.43-1.06.73a3.28,3.28,0,0,1-.6.34l-.05,0q.43,0,.84.12a9.2,9.2,0,0,1,1.65.48l.14.06a7.74,7.74,0,0,0,1.43-.62,4.69,4.69,0,0,1,2-.68,6.37,6.37,0,0,1,1.32.19c-.32,0-1,0-1.29,0a3.78,3.78,0,0,0-1.31.38c-.42.23-.72.35-1.15.59a3.8,3.8,0,0,1-.63.26h0c.82.31,1.52.52,2.42.87a8.2,8.2,0,0,0,1.09.32,6.25,6.25,0,0,0,1.08-.46,3.26,3.26,0,0,1,1.5-.5,3.84,3.84,0,0,1,1,.14,7.34,7.34,0,0,0-.94,0,2.74,2.74,0,0,0-1,.28c-.31.16-.53.25-.84.43a2.4,2.4,0,0,1-.4.17,13,13,0,0,0,2,.21c.81,0,2.67-.09,3.54-.16a22.83,22.83,0,0,1-3.68.63,11.6,11.6,0,0,1-4.86-.93,4.33,4.33,0,0,1,.36.4c.32.42.59.68.92,1.1a4.69,4.69,0,0,0,1.23,1c.31.18,1.07.51,1.43.66a8.8,8.8,0,0,1-1.59-.47,5.31,5.31,0,0,1-1.89-1.64,7.25,7.25,0,0,0-1.35-1.36l-1.06-.38h0c-.4-.14-.8-.26-1.2-.37a3.72,3.72,0,0,1,.53.67,4.58,4.58,0,0,1,.33.71c.16.51.33.84.51,1.34a4.65,4.65,0,0,0,.83,1.34c.24.27.85.83,1.14,1.09a8.54,8.54,0,0,1-1.35-1,5.37,5.37,0,0,1-1.25-2.16,5.56,5.56,0,0,0-1.16-2.12,9,9,0,0,0-1.88-.24,2.46,2.46,0,0,1,.93,1,3.19,3.19,0,0,1,.33.7c.17.51.33.84.52,1.35a4.57,4.57,0,0,0,.83,1.34c.24.26.85.83,1.14,1.09a9.23,9.23,0,0,1-1.35-1,5.25,5.25,0,0,1-1.25-2.16,5.72,5.72,0,0,0-1.22-2.18l-.16-.14h-.27a2,2,0,0,0-1.23.38Z" transform="translate(-206.31 -49.82)"/><path class="cls-8" d="M557.75,920.16a5,5,0,0,0-3.25-1,4.26,4.26,0,0,0-2,.87,8.36,8.36,0,0,0-2.39,3.18,11.85,11.85,0,0,1-2.09,3.3c-.18.18-.37.35-.56.52,1.64-.28,3.31-.36,4.94-.64a10.26,10.26,0,0,0,4.5-1.68,5.79,5.79,0,0,0,1.23-1.3,2.86,2.86,0,0,0,.59-2.37,1.23,1.23,0,0,0-.93-.88" transform="translate(-206.31 -49.82)"/><path class="cls-15" d="M551.05,925.28a7,7,0,0,0,1.83-1.53l.34-.42a2.2,2.2,0,0,1-.44,0c-.32,0-.54,0-.86,0a2.7,2.7,0,0,0-.92.22c-.2.08-.63.32-.83.43a5.84,5.84,0,0,1,.8-.58,3.17,3.17,0,0,1,1.47-.29,4.66,4.66,0,0,0,1-.1c.27-.32.54-.63.84-1a3.94,3.94,0,0,1,.44-.5l-.24,0a2.44,2.44,0,0,1-.47,0c-.31,0-.54,0-.86-.06a2.66,2.66,0,0,0-.93.12c-.21.06-.67.25-.88.34a4.89,4.89,0,0,1,.86-.49,3.26,3.26,0,0,1,1.49-.14,4.35,4.35,0,0,0,1.25,0l.14-.13a6.55,6.55,0,0,1,.85-.61,1.44,1.44,0,0,1-.36-.07c-.26-.08-.45-.12-.71-.19a2.25,2.25,0,0,0-.8-.06,7.46,7.46,0,0,0-.78.13,4.16,4.16,0,0,1,.8-.26,2.73,2.73,0,0,1,1.26.14,4.25,4.25,0,0,0,.86.18,2,2,0,0,1,1.39-.18l.17.06a1.16,1.16,0,0,0-.85.14,2.68,2.68,0,0,0-.47.26,3.17,3.17,0,0,0-.12,1.47,3.25,3.25,0,0,1-.15,1.49,4.94,4.94,0,0,1-.5.86,8,8,0,0,0,.35-.88,2.65,2.65,0,0,0,.13-.93c0-.32,0-.54,0-.86a2.46,2.46,0,0,1,0-.47,2.11,2.11,0,0,1,.15-.56,8.07,8.07,0,0,0-1.36,1.26,5.29,5.29,0,0,0-.13,1,3.1,3.1,0,0,1-.31,1.45,4.77,4.77,0,0,1-.6.8c.12-.2.36-.63.45-.83a2.64,2.64,0,0,0,.23-.91c0-.32,0-.54,0-.86a2.72,2.72,0,0,1,0-.39l-.49.61a8,8,0,0,1-2.81,2.52,13.36,13.36,0,0,1-2.4.75C549.44,926.08,550.58,925.55,551.05,925.28Z" transform="translate(-206.31 -49.82)"/><path class="cls-16" d="M562.47,918.56A8.5,8.5,0,0,0,557,918a4.92,4.92,0,0,0-2.44,2,10.66,10.66,0,0,0-1.4,5.7,16.11,16.11,0,0,1-.86,5.81c-.14.33-.31.65-.48,1,2.24-.92,4.66-1.55,6.91-2.47a11.66,11.66,0,0,0,5.55-4,6.7,6.7,0,0,0,.95-2.4,4.82,4.82,0,0,0-.74-3.9,2.58,2.58,0,0,0-2-1.1" transform="translate(-206.31 -49.82)"/><path class="cls-15" d="M556.92,926.7l-.23.13a2.29,2.29,0,0,1-.46.17c-.33.07-.54.16-.87.25a2.6,2.6,0,0,0-.88.45c-.18.13-.57.48-.75.65a5.67,5.67,0,0,1,.68-.79,3.39,3.39,0,0,1,1.42-.67,4,4,0,0,0,1.3-.53,7.81,7.81,0,0,0,.65-1.38c.06-.17.11-.32.17-.47l-.19.07a2.68,2.68,0,0,1-.56.13c-.4,0-.67.11-1.07.16a3.43,3.43,0,0,0-1.12.39c-.23.13-.74.48-1,.65a6.65,6.65,0,0,1,.93-.83,4,4,0,0,1,1.78-.56,5.78,5.78,0,0,0,1.31-.29c.24-.61.46-1.16.68-1.87,0-.17.13-.36.2-.54a2.87,2.87,0,0,1-.54.24,3.32,3.32,0,0,1-.61.13c-.43,0-.72.1-1.15.15a3.55,3.55,0,0,0-1.19.41,11.14,11.14,0,0,0-1.06.68,6.93,6.93,0,0,1,1-.87,4.22,4.22,0,0,1,1.91-.58,5,5,0,0,0,1.77-.45c.09-.2.19-.39.28-.56a9.07,9.07,0,0,1,.62-1,2.26,2.26,0,0,1-.43.11,3.26,3.26,0,0,1-.62.06c-.43,0-.72,0-1.15,0a3.5,3.5,0,0,0-1.24.25c-.27.1-.86.4-1.14.55a6.31,6.31,0,0,1,1.11-.74,4.07,4.07,0,0,1,2-.34,5.19,5.19,0,0,0,1.76-.21,3.25,3.25,0,0,1,1.74-1.16l.22,0a1.82,1.82,0,0,0-1,.63,8,8,0,0,0-.63.81s0,.06,0,.09a4.53,4.53,0,0,0,1,1.73,4.08,4.08,0,0,1,1,1.73,6.64,6.64,0,0,1,.11,1.33c-.06-.3-.2-1-.29-1.23a3.34,3.34,0,0,0-.58-1.12c-.27-.33-.43-.58-.72-.9a2.89,2.89,0,0,1-.35-.51,2.14,2.14,0,0,1-.29-1,12.82,12.82,0,0,0-1.17,2.45,4.73,4.73,0,0,0,.76,1.72,4.24,4.24,0,0,1,.76,1.85,7.26,7.26,0,0,1-.05,1.32c0-.3-.08-1-.13-1.25a3.65,3.65,0,0,0-.44-1.18c-.23-.37-.36-.63-.6-1a2.89,2.89,0,0,1-.29-.55,3.44,3.44,0,0,1-.15-.55l-.21.57a21.47,21.47,0,0,1-.85,2.13c0,.26.1.51.16.77a3.31,3.31,0,0,1,.12,1.59,5.56,5.56,0,0,1-.36,1c.06-.23.18-.75.21-1a2.94,2.94,0,0,0-.05-1c-.08-.33-.11-.57-.21-.9l0-.12a7.89,7.89,0,0,1-1.3,1.86A21,21,0,0,1,554.1,930c.54-.55,1.68-1.77,2.13-2.33A10.7,10.7,0,0,0,556.92,926.7Z" transform="translate(-206.31 -49.82)"/><path class="cls-8" d="M566.71,917.91a10.54,10.54,0,0,1,6.7,1.33,6,6,0,0,1,2.14,3.22c.7,2.43.18,4.88-.46,7.21s-1.39,4.69-1.13,7.14c0,.44.12.88.2,1.32-2.3-1.91-4.91-3.54-7.21-5.45s-4.34-4.17-5.05-6.72a8.38,8.38,0,0,1-.22-3.18,5.93,5.93,0,0,1,2.3-4.31,3.2,3.2,0,0,1,2.73-.56" transform="translate(-206.31 -49.82)"/><path class="cls-15" d="M564.82,923.82a5.9,5.9,0,0,1,1.62-2.26,6.45,6.45,0,0,0,1.66-2.24,1.53,1.53,0,0,0,.07-.29,2.13,2.13,0,0,0-.82-.95l.25.12a3.66,3.66,0,0,1,1.37,1.49,5.22,5.22,0,0,0,2,.66,4.58,4.58,0,0,1,2,.74,6.28,6.28,0,0,1,.91.95c-.24-.2-.78-.61-1-.77a3.92,3.92,0,0,0-1.25-.51c-.48-.08-.79-.17-1.26-.25a2.79,2.79,0,0,1-.66-.18,2.49,2.49,0,0,1-.52-.25,9.81,9.81,0,0,1,.61,1.93c.05.26.1.56.14.86l0,0a5.15,5.15,0,0,0,2,.71,4.57,4.57,0,0,1,2,.73,5.89,5.89,0,0,1,.91,1c-.24-.2-.77-.62-1-.78a4.24,4.24,0,0,0-1.26-.5c-.47-.08-.78-.18-1.26-.25a3.08,3.08,0,0,1-.66-.18,2.24,2.24,0,0,1-.8-.49,6.63,6.63,0,0,1,0,.75c0,.79,0,1.43.09,2.11a7.26,7.26,0,0,0,1.3.76,4.58,4.58,0,0,1,1.76,1.25,6.18,6.18,0,0,1,.62,1.16c-.18-.26-.58-.8-.78-1a4.06,4.06,0,0,0-1.08-.82c-.43-.2-.7-.38-1.14-.57a3.82,3.82,0,0,1-.59-.35l-.07-.06c0,.31,0,.62,0,1a12.72,12.72,0,0,0,.82,3.75c.32.83,1.21,2.68,1.65,3.53a26.14,26.14,0,0,1-2.18-3.49,8.73,8.73,0,0,1-.61-1.61h0c-.15.48-.21.83-.35,1.31a4.26,4.26,0,0,0-.1,1.48c0,.33.19,1.1.27,1.45a7.82,7.82,0,0,1-.5-1.48,4.86,4.86,0,0,1,.24-2.32,9.29,9.29,0,0,0,.27-1.16,15,15,0,0,1-.23-1.64h0c0-.32,0-.64-.07-1,0,.11-.08.22-.13.33a3,3,0,0,1-.37.62c-.31.4-.48.71-.77,1.12a4.07,4.07,0,0,0-.6,1.35c-.08.33-.19,1.1-.24,1.45a8,8,0,0,1,0-1.55,5,5,0,0,1,1-2.11,5.39,5.39,0,0,0,1-2,1.93,1.93,0,0,0,0-.24c0-.12,0-.23,0-.35s0,0,0,0l0,0c0-.71-.06-1.43-.14-2.14a3.71,3.71,0,0,1-.5,1,4.35,4.35,0,0,1-.62.73c-.49.44-.77.8-1.25,1.26a5.43,5.43,0,0,0-1.07,1.61c-.18.4-.51,1.37-.64,1.82a10.56,10.56,0,0,1,.39-2,6.53,6.53,0,0,1,1.79-2.49,7,7,0,0,0,1.82-2.46v0a10.34,10.34,0,0,0-.79-2.81,2.65,2.65,0,0,1-.56,1.47,3.91,3.91,0,0,1-.56.66c-.44.41-.7.73-1.13,1.15a5,5,0,0,0-1,1.46c-.16.37-.46,1.25-.58,1.66A9.46,9.46,0,0,1,564.82,923.82Z" transform="translate(-206.31 -49.82)"/><path class="cls-16" d="M562.29,917.33a7.64,7.64,0,0,0,2.17-4.42,4.43,4.43,0,0,0-.92-2.63,9.46,9.46,0,0,0-4.32-2.88,14,14,0,0,1-4.59-2.46c-.23-.22-.45-.46-.67-.7.09,2.15-.1,4.36,0,6.51a10.44,10.44,0,0,0,1.65,5.82,6.06,6.06,0,0,0,1.72,1.52,4.3,4.3,0,0,0,3.47.55,2.27,2.27,0,0,0,1.51-1.31" transform="translate(-206.31 -49.82)"/><path class="cls-15" d="M557.18,910.26a2.23,2.23,0,0,1,0-.23,2.16,2.16,0,0,1,0-.44c0-.29,0-.5.06-.8a2.36,2.36,0,0,0-.11-.87c-.06-.19-.23-.62-.32-.82a5,5,0,0,1,.46.81,2.93,2.93,0,0,1,.12,1.38,3.43,3.43,0,0,0,.06,1.24,6.64,6.64,0,0,0,1,1l.34.28v-.17a2.16,2.16,0,0,1,.06-.51c.09-.35.11-.6.19-.94a2.86,2.86,0,0,0,0-1c0-.24-.18-.77-.25-1a5.31,5.31,0,0,1,.41,1,3.42,3.42,0,0,1-.06,1.65,5.32,5.32,0,0,0-.16,1.18c.45.38.83.73,1.36,1.13q.19.15.39.33a3.15,3.15,0,0,1,0-.53,3.2,3.2,0,0,1,.08-.54c.1-.37.13-.63.22-1a3.54,3.54,0,0,0,0-1.12c0-.25-.18-.83-.26-1.09a5.46,5.46,0,0,1,.43,1.1A3.63,3.63,0,0,1,561,912a4.28,4.28,0,0,0-.15,1.62c.13.13.26.27.37.4a5.44,5.44,0,0,1,.61.8,2.71,2.71,0,0,1,0-.4,2.08,2.08,0,0,1,.14-.53c.14-.35.2-.61.34-1a3.27,3.27,0,0,0,.16-1.11c0-.26-.08-.84-.12-1.11a6.35,6.35,0,0,1,.29,1.14,3.76,3.76,0,0,1-.31,1.74,4.61,4.61,0,0,0-.36,1.53,2.89,2.89,0,0,1,.45,1.8l0,.19a1.64,1.64,0,0,0-.24-1,6.65,6.65,0,0,0-.48-.77h-.08a4.09,4.09,0,0,0-1.75.32,3.75,3.75,0,0,1-1.74.3,7.35,7.35,0,0,1-1.14-.3c.27,0,.86.12,1.11.13a3.27,3.27,0,0,0,1.11-.16c.36-.12.61-.18,1-.32a2,2,0,0,1,.53-.14,1.91,1.91,0,0,1,.89.05,10.64,10.64,0,0,0-1.7-1.72,4.26,4.26,0,0,0-1.66.12,3.76,3.76,0,0,1-1.76.08,6.2,6.2,0,0,1-1.1-.45c.27.08.84.23,1.09.27a3,3,0,0,0,1.12,0c.37-.08.63-.11,1-.2a2.51,2.51,0,0,1,.55-.07,2.85,2.85,0,0,1,.5,0l-.41-.34a19.44,19.44,0,0,1-1.53-1.35c-.22,0-.45-.07-.68-.1a3,3,0,0,1-1.36-.37,5.36,5.36,0,0,1-.73-.61c.18.12.58.38.76.47a2.56,2.56,0,0,0,.86.27c.3,0,.51.07.81.09h.11a7,7,0,0,1-1.15-1.64,18.59,18.59,0,0,1-1.06-2.77c.3.62,1,1.94,1.31,2.48A9,9,0,0,0,557.18,910.26Z" transform="translate(-206.31 -49.82)"/><path class="cls-8" d="M565.73,918.09a9,9,0,0,1-1.67-5.66,5.17,5.17,0,0,1,1.61-2.94,11.44,11.44,0,0,1,5.71-2.54,17,17,0,0,0,5.93-2c.32-.21.63-.45.93-.68-.54,2.53-.75,5.18-1.29,7.71s-1.45,5-3.13,6.57a7.16,7.16,0,0,1-2.34,1.45,5.16,5.16,0,0,1-4.23,0,2.73,2.73,0,0,1-1.52-1.87" transform="translate(-206.31 -49.82)"/><path class="cls-15" d="M573.22,910.74a1.14,1.14,0,0,0,.09-.26,1.76,1.76,0,0,0,.09-.51c0-.36.07-.6.1-1a2.86,2.86,0,0,1,.31-1c.1-.22.4-.69.54-.91a6.27,6.27,0,0,0-.7.86,3.5,3.5,0,0,0-.43,1.62,4.25,4.25,0,0,1-.32,1.46,8.34,8.34,0,0,1-1.33,1l-.45.25a1.18,1.18,0,0,0,0-.2,2.58,2.58,0,0,0,0-.62c0-.43,0-.72,0-1.15a3.54,3.54,0,0,1,.2-1.24c.09-.27.37-.88.5-1.16a7.32,7.32,0,0,0-.7,1.13,4.41,4.41,0,0,0-.25,2,6.23,6.23,0,0,1,0,1.43c-.61.36-1.14.7-1.84,1.06l-.53.31a3.2,3.2,0,0,0,.15-.61,3,3,0,0,0,0-.67c0-.45,0-.77-.06-1.22a4,4,0,0,1,.2-1.33c.1-.3.38-1,.52-1.24a7.72,7.72,0,0,0-.72,1.21,4.43,4.43,0,0,0-.25,2.11,5.53,5.53,0,0,1-.14,2c-.19.13-.37.26-.53.39a9.84,9.84,0,0,0-.89.83,2.56,2.56,0,0,0,0-.47,2.42,2.42,0,0,0-.06-.66c-.1-.45-.12-.76-.2-1.21a3.76,3.76,0,0,1,0-1.35c.06-.3.26-1,.36-1.29a7.44,7.44,0,0,0-.57,1.29,4.51,4.51,0,0,0,0,2.13,5.42,5.42,0,0,1,.11,1.88,3.45,3.45,0,0,0-.89,2v.25a1.91,1.91,0,0,1,.48-1.13,7.23,7.23,0,0,1,.73-.82h.1a4.8,4.8,0,0,1,2,.73,4.39,4.39,0,0,0,2,.71,7.5,7.5,0,0,0,1.42-.13c-.33,0-1,0-1.35-.07a4.16,4.16,0,0,1-1.28-.4c-.4-.23-.69-.35-1.08-.59a4.18,4.18,0,0,0-.61-.27,2.26,2.26,0,0,0-1.06-.12,14.14,14.14,0,0,1,2.36-1.7,5.1,5.1,0,0,1,1.94.49,4.48,4.48,0,0,0,2.08.44,8.19,8.19,0,0,0,1.39-.3c-.33,0-1,.1-1.34.1a4.21,4.21,0,0,1-1.33-.24c-.42-.18-.73-.26-1.15-.45a3.28,3.28,0,0,0-.63-.19,3.93,3.93,0,0,0-.6-.06l.56-.32c.7-.4,1.41-.82,2.07-1.29a5.72,5.72,0,0,1,.83,0,3.68,3.68,0,0,0,1.69-.17,5.58,5.58,0,0,0,1-.57c-.24.1-.76.32-1,.4a3.16,3.16,0,0,1-1.07.14c-.36,0-.62,0-1,0h-.14a8.2,8.2,0,0,0,1.71-1.72,21.5,21.5,0,0,0,1.81-3.07c-.48.68-1.55,2.1-2.06,2.68A10.6,10.6,0,0,1,573.22,910.74Z" transform="translate(-206.31 -49.82)"/><path class="cls-8" d="M564.92,915.47a6.64,6.64,0,0,0-3.47-2.93,5.9,5.9,0,0,0-3,0,11.19,11.19,0,0,0-4.6,2.66,15.78,15.78,0,0,1-4.3,3c-.31.13-.63.24-1,.35,2.16.51,4.26,1.28,6.42,1.79a13.67,13.67,0,0,0,6.42.28,7.53,7.53,0,0,0,2.2-1,3.82,3.82,0,0,0,2-2.61,1.63,1.63,0,0,0-.69-1.57" transform="translate(-206.31 -49.82)"/><path class="cls-15" d="M554,918.28a9.18,9.18,0,0,0,3-.93c.23-.13.43-.24.64-.34a3.43,3.43,0,0,1-.57-.17c-.39-.17-.68-.25-1.08-.41a3.63,3.63,0,0,0-1.24-.21c-.29,0-.95.06-1.26.1a7.21,7.21,0,0,1,1.3-.3,4.35,4.35,0,0,1,2,.41,6,6,0,0,0,1.25.39,17.73,17.73,0,0,0,1.58-.84,6.79,6.79,0,0,1,.81-.4l-.31-.07a3.72,3.72,0,0,1-.58-.24c-.37-.22-.65-.32-1-.52a3.4,3.4,0,0,0-1.21-.35c-.29,0-.95,0-1.26,0a7.32,7.32,0,0,1,1.32-.16,4.38,4.38,0,0,1,1.9.61,5.33,5.33,0,0,0,1.56.61l.24-.08a6.87,6.87,0,0,1,1.36-.3,3,3,0,0,1-.41-.28c-.27-.25-.48-.38-.77-.61a3,3,0,0,0-1-.49,10.54,10.54,0,0,0-1-.25,6.09,6.09,0,0,1,1.13.1,3.48,3.48,0,0,1,1.47.83,6.44,6.44,0,0,0,1,.67,2.72,2.72,0,0,1,1.81.51l.18.16a1.57,1.57,0,0,0-1.12-.28c-.25,0-.48,0-.72.07a4.57,4.57,0,0,0-.92,1.76,4.09,4.09,0,0,1-.95,1.75,6.35,6.35,0,0,1-1.07.8,12.45,12.45,0,0,0,.89-.89,3.45,3.45,0,0,0,.64-1.09c.14-.4.27-.67.39-1.08a2.87,2.87,0,0,1,.73-1.19,10.49,10.49,0,0,0-2.33.84,6.47,6.47,0,0,0-.71,1.22,4.17,4.17,0,0,1-1.15,1.63,7.89,7.89,0,0,1-1.15.68c.25-.19.77-.59,1-.79a3.86,3.86,0,0,0,.76-1c.18-.39.34-.65.51-1a2.23,2.23,0,0,1,.25-.45c-.31.16-.62.32-.92.49a10.74,10.74,0,0,1-4.78,1.63,17.14,17.14,0,0,1-3.35-.33C551.59,918.42,553.28,918.37,554,918.28Z" transform="translate(-206.31 -49.82)"/><path class="cls-16" d="M566.58,916.48a5.08,5.08,0,0,1,3.27-1.19,4.47,4.47,0,0,1,2.14.79,8.68,8.68,0,0,1,2.6,3.13,11.89,11.89,0,0,0,2.3,3.28c.19.18.39.34.59.5-1.68-.2-3.39-.2-5.08-.4a10.56,10.56,0,0,1-4.68-1.5,6,6,0,0,1-1.33-1.27,3,3,0,0,1-.71-2.4,1.21,1.21,0,0,1,.9-.94" transform="translate(-206.31 -49.82)"/><path class="cls-15" d="M573.68,921.38a7,7,0,0,1-1.94-1.47c-.13-.15-.25-.29-.37-.41a2.26,2.26,0,0,0,.45,0c.33,0,.56,0,.88,0a2.68,2.68,0,0,1,.95.18c.21.08.67.3.88.4a5.87,5.87,0,0,0-.85-.55,3.35,3.35,0,0,0-1.51-.23,5.65,5.65,0,0,1-1,0c-.3-.33-.59-.63-.91-1a5.55,5.55,0,0,0-.48-.5l.25,0a1.83,1.83,0,0,0,.47,0c.33,0,.55-.06.88-.1a2.67,2.67,0,0,1,1,.07c.22.06.7.23.92.31a6.47,6.47,0,0,0-.91-.46,3.29,3.29,0,0,0-1.53-.06,4.23,4.23,0,0,1-1.28,0l-.15-.12a5.54,5.54,0,0,0-.9-.58,2.22,2.22,0,0,0,.37-.09c.26-.1.45-.14.71-.24a2.48,2.48,0,0,1,.82-.1c.18,0,.61.07.81.1a4.84,4.84,0,0,0-.83-.22,2.7,2.7,0,0,0-1.28.2,4.53,4.53,0,0,1-.88.22,2.09,2.09,0,0,0-1.43-.11l-.17.07a1.19,1.19,0,0,1,.88.1,4.44,4.44,0,0,1,.49.24,3.46,3.46,0,0,1,.2,1.51,3.22,3.22,0,0,0,.22,1.51,5.87,5.87,0,0,0,.55.85c-.11-.21-.32-.67-.4-.88a2.69,2.69,0,0,1-.17-1c0-.32,0-.55,0-.88a2.42,2.42,0,0,0,0-.47,2,2,0,0,0-.18-.58,8.08,8.08,0,0,1,1.45,1.23,5.48,5.48,0,0,1,.19,1.06,3.23,3.23,0,0,0,.39,1.48,5.46,5.46,0,0,0,.65.79c-.13-.2-.4-.63-.5-.83a2.69,2.69,0,0,1-.28-.92c0-.33-.08-.55-.1-.88a1.76,1.76,0,0,0-.06-.39c.18.19.36.39.53.59a8.18,8.18,0,0,0,3,2.44,14.48,14.48,0,0,0,2.49.65C575.37,922.12,574.18,921.64,573.68,921.38Z" transform="translate(-206.31 -49.82)"/><path class="cls-14" d="M567.26,884.16a1.11,1.11,0,0,0,1-.72,29.77,29.77,0,0,0,2-8.26,13.09,13.09,0,0,0-2.09-8.53,1.11,1.11,0,0,0-1.79,1.32,10.83,10.83,0,0,1,1.67,7,28.15,28.15,0,0,1-1.91,7.65,1.1,1.1,0,0,0,.66,1.42A1,1,0,0,0,567.26,884.16Z" transform="translate(-206.31 -49.82)"/><path class="cls-8" d="M613.06,903.48a5.71,5.71,0,0,1,.31-1.49c.27-.78.4-.41.4-.41,4,4.54,10.37,7.3,17.65,8.44,2.32.37,4.67.7,7,.92h0c7.3.58,17.28-2.26,22.24-3.88l.29-.15-.18.12c1.82-.6,2.94-1,2.94-1v2.79l.92,8.43c-11.79,3-25.61-.46-25.61-.46l0,0a54,54,0,0,1-13-3.38c-2-.78-3.83-1.68-5.65-2.62C616.44,908.72,612.78,907,613.06,903.48Z" transform="translate(-206.31 -49.82)"/><path class="cls-9" d="M623.57,908.56s8.18.16,3.69-12C627.26,896.51,617.05,904.06,623.57,908.56Z" transform="translate(-206.31 -49.82)"/><path class="cls-9" d="M614.34,908s.69-8.15-11.79-4.45C602.55,903.5,609.43,914.17,614.34,908Z" transform="translate(-206.31 -49.82)"/><path class="cls-9" d="M633.81,914.69s-7.74-6.22-12.48,8.83C621.33,923.52,636.74,923.85,633.81,914.69Z" transform="translate(-206.31 -49.82)"/></svg>