<svg xmlns="http://www.w3.org/2000/svg" xmlns:xlink="http://www.w3.org/1999/xlink" viewBox="0 0 511.6 809.22"><defs><style>.cls-1{fill:none;}.cls-2{fill:#cb862a;}.cls-3{fill:#7c433e;}.cls-4{fill:#9b6027;}.cls-5{clip-path:url(#clip-path);}.cls-6{fill:#603835;}.cls-7{clip-path:url(#clip-path-2);}.cls-8{fill:#307f4c;}.cls-9{fill:#6b9660;}.cls-10{clip-path:url(#clip-path-3);}.cls-11{clip-path:url(#clip-path-4);}.cls-12{clip-path:url(#clip-path-5);}.cls-13{clip-path:url(#clip-path-6);}</style><clipPath id="clip-path" transform="translate(-210.38 -30.39)"><path class="cls-1" d="M313.44,137.6h-48V122.19h58.76a.8.8,0,0,1,.62,1.31Z"/></clipPath><clipPath id="clip-path-2" transform="translate(-210.38 -30.39)"><path class="cls-1" d="M313.44,373.8h-48V358.39h58.76a.8.8,0,0,1,.62,1.31Z"/></clipPath><clipPath id="clip-path-3" transform="translate(-210.38 -30.39)"><path class="cls-1" d="M314.21,670.6H265.75V655H325.1a.81.81,0,0,1,.63,1.32Z"/></clipPath><clipPath id="clip-path-4" transform="translate(-210.38 -30.39)"><path class="cls-1" d="M618.91,137.66h48V122.25H608.13a.8.8,0,0,0-.62,1.31Z"/></clipPath><clipPath id="clip-path-5" transform="translate(-210.38 -30.39)"><path class="cls-1" d="M618.91,373.86h48V358.45H608.13a.81.81,0,0,0-.62,1.32Z"/></clipPath><clipPath id="clip-path-6" transform="translate(-210.38 -30.39)"><path class="cls-1" d="M618.14,670.66H666.6V655.1H607.26a.81.81,0,0,0-.64,1.32Z"/></clipPath></defs><g id="Layer_6" data-name="Layer 6"><path class="cls-2" d="M265.46,125.07h48.1V84.26c1.38-11.4,6.64-15.86,6.64-15.86h-6.64V62.16h-48.1Z" transform="translate(-210.38 -30.39)"/><path class="cls-3" d="M265.46,69.8h56.12s16.23.38,9.65-14c-4.77-10.41.64-12.89,4-13.46A6,6,0,0,0,339.07,53a5.34,5.34,0,0,0,.69,0h0s10-.46,8.38-12.74-14.35-9.53-14.35-9.53-11.14.77-12.05,11-37.88,11.27-37.88,11.27h-18.4Z" transform="translate(-210.38 -30.39)"/><rect class="cls-2" x="55.09" y="106.85" width="46.88" height="167.61"/><path class="cls-4" d="M313.44,134.6h-48V119.19h58.76a.8.8,0,0,1,.62,1.31Z" transform="translate(-210.38 -30.39)"/><path class="cls-4" d="M55.09,103.85h47.55a3.25,3.25,0,0,1,3.25,3.25v0a3.25,3.25,0,0,1-3.25,3.25H55.09a0,0,0,0,1,0,0v-6.5A0,0,0,0,1,55.09,103.85Z"/><g class="cls-5"><path class="cls-6" d="M210.64,137.59h114V129a8.65,8.65,0,0,0-7.13,3.75,8.64,8.64,0,0,0-14.25,0,8.64,8.64,0,0,0-14.26,0,8.64,8.64,0,0,0-14.26,0,8.64,8.64,0,0,0-14.25,0c-.13-.19-.28-.37-.43-.55l0,0c-.16-.19-.32-.37-.49-.54l-.12-.11c-.17-.17-.35-.34-.53-.49a.27.27,0,0,1-.08-.07,8.79,8.79,0,0,0-2.81-1.52l-.11,0a6.54,6.54,0,0,0-.73-.19l-.15,0a8.85,8.85,0,0,0-1.64-.17,8.61,8.61,0,0,0-6.5,2.95,9.62,9.62,0,0,0-.63.8,8.65,8.65,0,0,0-13.63-.8,8.12,8.12,0,0,0-.62.8,8.65,8.65,0,0,0-14.26,0,8.64,8.64,0,0,0-7.13-3.76Z" transform="translate(-210.38 -30.39)"/></g><path class="cls-4" d="M55.09,139.18h0a31,31,0,0,1,31,31v62.7a0,0,0,0,1,0,0h-31a0,0,0,0,1,0,0V139.18A0,0,0,0,1,55.09,139.18Z"/><path class="cls-6" d="M55.09,143.5h0a26,26,0,0,1,26,26v56.92a0,0,0,0,1,0,0h-26a0,0,0,0,1,0,0v-83A0,0,0,0,1,55.09,143.5Z"/><path class="cls-2" d="M265.46,374.38h46.82v-49.8c1.35-13.91,6.47-19.36,6.47-19.36h-6.47v-7.61H265.46Z" transform="translate(-210.38 -30.39)"/><path class="cls-3" d="M265.46,305.16h56.12s16.23.38,9.65-14c-4.77-10.4.64-12.88,4-13.46a6,6,0,0,0,3.84,10.63c.23,0,.46,0,.69,0h0s10-.46,8.38-12.74S333.79,266,333.79,266s-11.14.77-12.05,11-37.88,11.26-37.88,11.26h-18.4Z" transform="translate(-210.38 -30.39)"/><rect class="cls-2" x="55.09" y="348.97" width="46.88" height="276.04"/><path class="cls-4" d="M313.44,373.8h-48V358.39h58.76a.8.8,0,0,1,.62,1.31Z" transform="translate(-210.38 -30.39)"/><path class="cls-4" d="M55.09,343.06h47.55a3.25,3.25,0,0,1,3.25,3.25v0a3.25,3.25,0,0,1-3.25,3.25H55.09a0,0,0,0,1,0,0v-6.5a0,0,0,0,1,0,0Z"/><g class="cls-7"><path class="cls-6" d="M210.64,373.79h114v-8.65a8.65,8.65,0,0,0-7.13,3.75,8.64,8.64,0,0,0-14.25,0,8.65,8.65,0,0,0-14.26,0,8.64,8.64,0,0,0-14.26,0,8.63,8.63,0,0,0-14.25,0c-.13-.2-.28-.37-.43-.56a.1.1,0,0,1,0,0c-.16-.19-.32-.37-.49-.54l-.12-.11c-.17-.17-.35-.34-.53-.49l-.08-.06a8.6,8.6,0,0,0-2.81-1.52l-.11,0c-.24-.07-.49-.14-.73-.19l-.15,0a8.85,8.85,0,0,0-1.64-.17,8.61,8.61,0,0,0-6.5,2.95c-.23.26-.43.53-.63.8a8.65,8.65,0,0,0-13.63-.8,9.5,9.5,0,0,0-.62.8,8.65,8.65,0,0,0-14.26,0,8.63,8.63,0,0,0-7.13-3.75Z" transform="translate(-210.38 -30.39)"/></g><path class="cls-4" d="M55.09,370.94h0a31,31,0,0,1,31,31v62.7a0,0,0,0,1,0,0h-31a0,0,0,0,1,0,0V370.94A0,0,0,0,1,55.09,370.94Z"/><path class="cls-6" d="M55.09,375.27h0a26,26,0,0,1,26,26v56.92a0,0,0,0,1,0,0h-26a0,0,0,0,1,0,0v-83A0,0,0,0,1,55.09,375.27Z"/><path class="cls-8" d="M315.18,90.29a6.3,6.3,0,0,0-.34-1.6c-.29-.85-.43-.45-.43-.45-4.33,4.89-11.16,7.86-19,9.09-2.5.39-5,.75-7.56,1h0c-7.85.63-18.6-2.43-23.93-4.17L263.6,94l.19.13c-2-.65-3.16-1.1-3.16-1.1v3l-1,9.08c12.7,3.27,27.57-.5,27.57-.5l0,0a58.63,58.63,0,0,0,14-3.64c2.1-.84,4.11-1.81,6.08-2.82C311.54,95.92,315.47,94.08,315.18,90.29Z" transform="translate(-210.38 -30.39)"/><path class="cls-9" d="M303.86,95.75s-8.81.18-4-13C299.89,82.78,310.88,90.91,303.86,95.75Z" transform="translate(-210.38 -30.39)"/><path class="cls-9" d="M313.8,95.1s-.74-8.78,12.68-4.8C326.48,90.3,319.08,101.8,313.8,95.1Z" transform="translate(-210.38 -30.39)"/><path class="cls-9" d="M292.84,102.35s8.33-6.7,13.43,9.51C306.27,111.86,289.69,112.21,292.84,102.35Z" transform="translate(-210.38 -30.39)"/><path class="cls-9" d="M286.71,472.73s8.69.59,2.93,13.5C289.64,486.23,279.43,477,286.71,472.73Z" transform="translate(-210.38 -30.39)"/><path class="cls-8" d="M331.64,470.66c-.23-2.07-1.63-4.88-4.16-4.31a3.3,3.3,0,0,0-2.35,2.35,4.71,4.71,0,0,0,.76,3.69c.58.91,2,.07,1.45-.84a3,3,0,0,1-.55-2.52,1.47,1.47,0,0,1,1.39-1.07c.71.07,1.2.86,1.45,1.46a5.21,5.21,0,0,1,.37,2.1,5.12,5.12,0,0,1-1.42,3.61,3.43,3.43,0,0,1-3.81.58c-3.52-1.56-4.64-6-5-9.5-.4-3.9,0-7.84-.55-11.74a22.57,22.57,0,0,0-1.11-4.78,74.53,74.53,0,0,0-1.26-14.52c1.53-4.17,2.54-8.64.6-12.86s-6.75-6.6-10.83-8.58l-.46-.21A89.53,89.53,0,0,0,291,397.72a39.39,39.39,0,0,0,9.8-3.22,56.36,56.36,0,0,0,5.3-3c3.72-2.34,7.15-4.29,7.15-8.72a10.06,10.06,0,0,0-.17-1.88c-.19-1-.34-.54-.34-.54-4,5.48-9.91,8.61-16.59,9.67a48.18,48.18,0,0,1-14.07.61l-1-.16c-10.75-7-19.73-10.48-20.38-11v15.29s13.61-3.13,31.69,16.35a10.22,10.22,0,0,1-.16,4.13c-.38,1.55-1.06,3.46-2.63,4.17s-3.14-.61-3.71-2a2.08,2.08,0,0,1,.2-2.14c.19-.21.55-.41.82-.25a.51.51,0,0,1,.22.58.65.65,0,0,0,1.12.66,1.81,1.81,0,0,0-1.13-2.53,2.26,2.26,0,0,0-2.52,1.58c-.8,2.1.84,4.42,2.72,5.24a3.51,3.51,0,0,0,3.21-.21,5.72,5.72,0,0,0,2.16-2.55,12.2,12.2,0,0,0,1.15-5.12c1.29,1.46,2.61,3,3.94,4.75a69.48,69.48,0,0,1,11.86,24.09,23.48,23.48,0,0,1-7,11.73c-9.7,9.34-24.92,15.1-34.17,24.72-7,7.27-9.82,16.49-7.65,24.76a12.57,12.57,0,0,0,6,8.31c-1.75-5.09-3.23-10.49-1.33-15.79a21.19,21.19,0,0,1,3.85-6.34,14.79,14.79,0,0,0,2,10.59,11.84,11.84,0,0,0,4.7,4.12,12.81,12.81,0,0,0,6.86,1.45,7.35,7.35,0,0,0,5.21-3.1,7.58,7.58,0,0,0,1.16-5.89,7.37,7.37,0,0,0-4.32-5.42,4.27,4.27,0,0,0-5.59,2.31,1,1,0,1,0,1.85.51c.49-1.31,2.25-1.45,3.34-.91a5.62,5.62,0,0,1,2.84,3.87,5.55,5.55,0,0,1-4.84,6.75A11.18,11.18,0,0,1,277.1,502a10,10,0,0,1-3.91-3.22,12.92,12.92,0,0,1-1.87-10,18.64,18.64,0,0,1,.81-2.83c1-1,2.08-2,3.16-2.9a137.63,137.63,0,0,1,15.09-11.44c5.11-3.34,10.64-6.36,14.92-10.34a41.64,41.64,0,0,0,6.8-8.11,103.64,103.64,0,0,1,.51,26.88,90.3,90.3,0,0,0,5.16-23c.2,3.76,0,7.54.61,11.27a14.52,14.52,0,0,0,2.35,6.06,7.6,7.6,0,0,0,5.11,3.32C329.7,478.11,332,474.09,331.64,470.66Zm-15.12-41.57a17.07,17.07,0,0,1-.55,2.76,67.7,67.7,0,0,0-7.53-15.08c.84.44,1.67.91,2.47,1.41a13.33,13.33,0,0,1,4.4,4.18A10.63,10.63,0,0,1,316.52,429.09Z" transform="translate(-210.38 -30.39)"/><path class="cls-9" d="M305.61,392s7.9-8.31,15.64,8.19C321.25,400.19,303.67,402.93,305.61,392Z" transform="translate(-210.38 -30.39)"/><path class="cls-9" d="M295.08,391s-10.71-4.09,1.54-17.58C296.62,373.45,305.91,388.62,295.08,391Z" transform="translate(-210.38 -30.39)"/><path class="cls-9" d="M317.66,444.74s7.9-8.31,15.64,8.19C333.3,452.93,315.72,455.67,317.66,444.74Z" transform="translate(-210.38 -30.39)"/><path class="cls-9" d="M295.47,459.85s-9.29,6.12-13.42-11.46C282.05,448.39,299.55,449.84,295.47,459.85Z" transform="translate(-210.38 -30.39)"/><path class="cls-9" d="M302.57,463.05s6.51,1.69.34,11C302.91,474,296.45,465.38,302.57,463.05Z" transform="translate(-210.38 -30.39)"/><path class="cls-8" d="M313,324.8a6.39,6.39,0,0,0-.34-1.6c-.29-.84-.43-.45-.43-.45-4.33,4.89-11.17,7.86-19,9.09-2.5.4-5,.75-7.56,1h0c-7.85.63-18.6-2.43-23.93-4.16l-.32-.17a1.37,1.37,0,0,1,.2.13c-2-.64-3.17-1.09-3.17-1.09v3l-1,9.08c12.69,3.27,27.57-.5,27.57-.5l0,0a58.61,58.61,0,0,0,14-3.63c2.1-.85,4.11-1.81,6.08-2.83C309.4,330.44,313.33,328.6,313,324.8Z" transform="translate(-210.38 -30.39)"/><path class="cls-9" d="M301.72,330.26s-8.81.18-4-13C297.75,317.3,308.74,325.42,301.72,330.26Z" transform="translate(-210.38 -30.39)"/><path class="cls-9" d="M311.65,329.61s-.73-8.77,12.69-4.79C324.34,324.82,316.94,336.31,311.65,329.61Z" transform="translate(-210.38 -30.39)"/><path class="cls-9" d="M290.69,336.87s8.34-6.7,13.44,9.51C304.13,346.38,287.54,346.72,290.69,336.87Z" transform="translate(-210.38 -30.39)"/><rect class="cls-2" x="55.37" y="639.85" width="47.35" height="169.3"/><path class="cls-4" d="M314.21,670.6H265.75V655H325.1a.81.81,0,0,1,.63,1.32Z" transform="translate(-210.38 -30.39)"/><path class="cls-4" d="M55.37,639.85h48a3.28,3.28,0,0,1,3.28,3.28v0a3.28,3.28,0,0,1-3.28,3.28h-48a0,0,0,0,1,0,0v-6.57a0,0,0,0,1,0,0Z"/><g class="cls-10"><path class="cls-6" d="M210.38,670.59H325.57v-8.74a8.75,8.75,0,0,0-7.2,3.79,8.73,8.73,0,0,0-14.4,0,8.73,8.73,0,0,0-14.4,0,8.73,8.73,0,0,0-14.4,0,8.72,8.72,0,0,0-14.4,0,5.93,5.93,0,0,0-.43-.56l0-.06c-.16-.19-.33-.37-.5-.54a.57.57,0,0,0-.11-.11c-.17-.18-.36-.34-.54-.5l-.08-.06a8.69,8.69,0,0,0-2.84-1.54l-.12,0c-.24-.07-.48-.13-.73-.18l-.15,0a8.27,8.27,0,0,0-1.66-.18,8.69,8.69,0,0,0-6.56,3,6.92,6.92,0,0,0-.63.8,8.73,8.73,0,0,0-13.77-.81,8,8,0,0,0-.63.81,8.73,8.73,0,0,0-14.4,0,8.74,8.74,0,0,0-7.2-3.79Z" transform="translate(-210.38 -30.39)"/></g><path class="cls-4" d="M55.37,672.5h0a31.29,31.29,0,0,1,31.29,31.29v63.33a0,0,0,0,1,0,0H55.37a0,0,0,0,1,0,0V672.5A0,0,0,0,1,55.37,672.5Z"/><path class="cls-6" d="M55.37,676.87h0a26.29,26.29,0,0,1,26.29,26.29v57.5a0,0,0,0,1,0,0H55.37a0,0,0,0,1,0,0V676.87A0,0,0,0,1,55.37,676.87Z"/><path class="cls-9" d="M287,775.57s8.91.6,3,13.83C290,789.4,279.56,780,287,775.57Z" transform="translate(-210.38 -30.39)"/><path class="cls-8" d="M333.07,773.45c-.24-2.12-1.67-5-4.27-4.42a3.38,3.38,0,0,0-2.4,2.41,4.87,4.87,0,0,0,.77,3.79c.6.92,2.1.06,1.49-.87a3.08,3.08,0,0,1-.56-2.58,1.51,1.51,0,0,1,1.42-1.1c.74.07,1.24.88,1.49,1.5a5.62,5.62,0,0,1-1.08,5.85,3.48,3.48,0,0,1-3.9.59c-3.61-1.6-4.76-6.19-5.12-9.73-.42-4-.06-8-.57-12a23.78,23.78,0,0,0-1.13-4.91,76.52,76.52,0,0,0-1.3-14.88c1.57-4.27,2.61-8.86.62-13.19s-6.92-6.76-11.11-8.79l-.46-.22a91.57,91.57,0,0,0-15.6-16.19,39.78,39.78,0,0,0,10.05-3.31,54.78,54.78,0,0,0,5.43-3.07c3.81-2.4,7.33-4.4,7.33-8.94a10,10,0,0,0-.18-1.92c-.19-1-.34-.56-.34-.56-4.06,5.62-10.16,8.83-17,9.92a49.25,49.25,0,0,1-14.43.62l-1-.16c-11-7.21-20.22-10.75-20.89-11.29v15.68s14-3.22,32.48,16.75a10.41,10.41,0,0,1-.16,4.24c-.39,1.58-1.08,3.55-2.69,4.27s-3.23-.62-3.8-2a2.11,2.11,0,0,1,.2-2.19c.19-.21.56-.42.84-.26a.56.56,0,0,1,.23.6.68.68,0,0,0,.23.91.67.67,0,0,0,.91-.24,1.84,1.84,0,0,0-1.16-2.59,2.32,2.32,0,0,0-2.58,1.62c-.82,2.15.86,4.53,2.79,5.37a3.58,3.58,0,0,0,3.29-.22,5.77,5.77,0,0,0,2.21-2.6,12.55,12.55,0,0,0,1.18-5.26q2,2.25,4,4.87a71.34,71.34,0,0,1,12.16,24.69,24,24,0,0,1-7.2,12c-9.94,9.57-25.55,15.48-35,25.35-7.15,7.44-10.07,16.9-7.85,25.37a12.93,12.93,0,0,0,6.2,8.52c-1.79-5.22-3.3-10.76-1.36-16.18a21.81,21.81,0,0,1,4-6.5,15.13,15.13,0,0,0,2,10.85,12.08,12.08,0,0,0,4.82,4.23,13.13,13.13,0,0,0,7,1.48,7.53,7.53,0,0,0,5.34-3.18,7.75,7.75,0,0,0,1.19-6,7.56,7.56,0,0,0-4.43-5.56,4.38,4.38,0,0,0-5.73,2.37,1,1,0,0,0,.69,1.21,1,1,0,0,0,1.21-.69c.5-1.34,2.31-1.48,3.43-.94a5.8,5.8,0,0,1,2.9,4,5.67,5.67,0,0,1-5,6.91,11.52,11.52,0,0,1-5.61-1.21,10.24,10.24,0,0,1-4-3.31,13.25,13.25,0,0,1-1.91-10.24,19.69,19.69,0,0,1,.83-2.91c1-1,2.13-2,3.23-3a140.85,140.85,0,0,1,15.48-11.72c5.23-3.44,10.91-6.53,15.29-10.61a42.7,42.7,0,0,0,7-8.31,106.21,106.21,0,0,1,.51,27.56,92.39,92.39,0,0,0,5.29-23.6c.21,3.86-.05,7.74.63,11.56a14.91,14.91,0,0,0,2.41,6.21,7.76,7.76,0,0,0,5.24,3.4C331.08,781.08,333.47,777,333.07,773.45Zm-15.5-42.61a18.4,18.4,0,0,1-.56,2.83,69.38,69.38,0,0,0-7.72-15.46c.86.45,1.71.93,2.53,1.44a13.51,13.51,0,0,1,4.51,4.29A10.92,10.92,0,0,1,317.57,730.84Z" transform="translate(-210.38 -30.39)"/><path class="cls-9" d="M306.39,692.81s8.09-8.52,16,8.4C322.42,701.21,304.4,704,306.39,692.81Z" transform="translate(-210.38 -30.39)"/><path class="cls-9" d="M295.59,691.82s-11-4.2,1.59-18C297.18,673.8,306.7,689.35,295.59,691.82Z" transform="translate(-210.38 -30.39)"/><path class="cls-9" d="M318.74,746.88s8.09-8.52,16,8.39C334.77,755.27,316.75,758.08,318.74,746.88Z" transform="translate(-210.38 -30.39)"/><path class="cls-9" d="M296,762.36s-9.53,6.28-13.76-11.75C282.24,750.61,300.18,752.11,296,762.36Z" transform="translate(-210.38 -30.39)"/><path class="cls-9" d="M303.28,765.64s6.67,1.74.35,11.28C303.63,776.92,297,768,303.28,765.64Z" transform="translate(-210.38 -30.39)"/><path class="cls-9" d="M287.06,613s8.69.59,2.93,13.5C290,626.51,279.78,617.31,287.06,613Z" transform="translate(-210.38 -30.39)"/><path class="cls-8" d="M332,611c-.23-2.08-1.63-4.89-4.16-4.32a3.32,3.32,0,0,0-2.35,2.35,4.73,4.73,0,0,0,.76,3.7c.58.9,2,.06,1.45-.85a3,3,0,0,1-.55-2.51,1.47,1.47,0,0,1,1.39-1.08c.72.07,1.2.86,1.45,1.46a5.27,5.27,0,0,1,.37,2.1,5.13,5.13,0,0,1-1.42,3.62,3.42,3.42,0,0,1-3.81.57c-3.52-1.56-4.64-6-5-9.49-.4-3.91-.05-7.85-.55-11.74a22.8,22.8,0,0,0-1.11-4.79,74.62,74.62,0,0,0-1.26-14.52c1.53-4.16,2.54-8.64.6-12.86S311.05,556,307,554l-.45-.22A89.93,89.93,0,0,0,291.3,538a39,39,0,0,0,9.8-3.22,56.27,56.27,0,0,0,5.3-3c3.72-2.35,7.16-4.3,7.15-8.73a9.93,9.93,0,0,0-.17-1.87c-.19-1-.34-.55-.34-.55-4,5.48-9.91,8.61-16.58,9.68a47.92,47.92,0,0,1-14.08.6l-1-.15c-10.75-7-19.73-10.49-20.38-11v15.3s13.61-3.14,31.69,16.34a10.22,10.22,0,0,1-.16,4.13c-.38,1.55-1.06,3.46-2.63,4.17s-3.14-.61-3.71-2a2.09,2.09,0,0,1,.2-2.14c.19-.21.55-.41.82-.25a.53.53,0,0,1,.22.59.66.66,0,0,0,.23.88.65.65,0,0,0,.89-.23,1.81,1.81,0,0,0-1.13-2.53,2.26,2.26,0,0,0-2.52,1.59c-.8,2.09.84,4.41,2.72,5.23a3.51,3.51,0,0,0,3.21-.21,5.74,5.74,0,0,0,2.16-2.54,12.28,12.28,0,0,0,1.15-5.13c1.29,1.46,2.61,3,3.94,4.75A69.65,69.65,0,0,1,310,581.83a23.48,23.48,0,0,1-7,11.73c-9.7,9.34-24.92,15.1-34.17,24.73-7,7.26-9.82,16.49-7.65,24.75a12.59,12.59,0,0,0,6.05,8.32c-1.75-5.1-3.23-10.5-1.33-15.8a21,21,0,0,1,3.85-6.33,14.8,14.8,0,0,0,2,10.59,11.84,11.84,0,0,0,4.7,4.12,12.8,12.8,0,0,0,6.86,1.44,7.35,7.35,0,0,0,5.21-3.1,7.58,7.58,0,0,0,1.16-5.89,7.38,7.38,0,0,0-4.32-5.42,4.27,4.27,0,0,0-5.59,2.32,1,1,0,0,0,.67,1.18,1,1,0,0,0,1.18-.67c.49-1.31,2.26-1.45,3.34-.92a5.62,5.62,0,0,1,2.84,3.87,5.54,5.54,0,0,1-4.84,6.75,11.21,11.21,0,0,1-5.47-1.19,9.87,9.87,0,0,1-3.91-3.22,12.9,12.9,0,0,1-1.87-10,19.5,19.5,0,0,1,.81-2.83c1-1,2.08-2,3.16-2.91a136.31,136.31,0,0,1,15.09-11.43c5.11-3.35,10.65-6.37,14.92-10.35a41.34,41.34,0,0,0,6.8-8.1,103.66,103.66,0,0,1,.51,26.88,90.46,90.46,0,0,0,5.16-23c.2,3.76-.05,7.55.62,11.28a14.42,14.42,0,0,0,2.34,6.06,7.58,7.58,0,0,0,5.11,3.31C330.05,618.39,332.38,614.38,332,611Zm-15.12-41.58a17.41,17.41,0,0,1-.55,2.77,67.27,67.27,0,0,0-7.53-15.08c.84.44,1.67.9,2.47,1.41a13,13,0,0,1,4.4,4.17A10.63,10.63,0,0,1,316.87,569.37Z" transform="translate(-210.38 -30.39)"/><path class="cls-9" d="M306,532.28s7.9-8.31,15.64,8.19C321.6,540.47,304,543.21,306,532.28Z" transform="translate(-210.38 -30.39)"/><path class="cls-9" d="M295.43,531.31s-10.71-4.09,1.54-17.58C297,513.73,306.26,528.9,295.43,531.31Z" transform="translate(-210.38 -30.39)"/><path class="cls-9" d="M318,585s7.9-8.31,15.64,8.19C333.65,593.21,316.07,596,318,585Z" transform="translate(-210.38 -30.39)"/><path class="cls-9" d="M295.82,600.13s-9.29,6.12-13.42-11.46C282.4,588.67,299.9,590.12,295.82,600.13Z" transform="translate(-210.38 -30.39)"/><path class="cls-9" d="M302.92,603.33s6.51,1.7.35,11C303.27,614.33,296.8,605.67,302.92,603.33Z" transform="translate(-210.38 -30.39)"/><path class="cls-2" d="M666.89,125.13h-48.1V84.32c-1.38-11.4-6.64-15.86-6.64-15.86h6.64V62.22h48.1Z" transform="translate(-210.38 -30.39)"/><path class="cls-3" d="M666.89,69.86H610.77s-16.23.39-9.64-14c4.76-10.41-.65-12.88-4-13.46A6,6,0,0,1,593.28,53c-.23,0-.46,0-.69,0h0s-10-.46-8.38-12.74,14.35-9.53,14.35-9.53,11.14.77,12.06,11S648.5,53,648.5,53h18.39Z" transform="translate(-210.38 -30.39)"/><rect class="cls-2" x="620.01" y="137.31" width="46.88" height="167.61" transform="translate(1076.53 411.83) rotate(-180)"/><path class="cls-4" d="M618.91,134.66h48V119.25H608.13a.8.8,0,0,0-.62,1.31Z" transform="translate(-210.38 -30.39)"/><path class="cls-4" d="M616.08,134.31h47.55a3.25,3.25,0,0,1,3.25,3.25v0a3.25,3.25,0,0,1-3.25,3.25H616.08a0,0,0,0,1,0,0v-6.5A0,0,0,0,1,616.08,134.31Z" transform="translate(1072.6 244.73) rotate(-180)"/><g class="cls-11"><path class="cls-6" d="M721.71,137.65h-114V129a8.64,8.64,0,0,1,7.13,3.76,8.65,8.65,0,0,1,14.26,0,8.64,8.64,0,0,1,14.25,0,8.65,8.65,0,0,1,14.26,0,8.63,8.63,0,0,1,14.25,0c.14-.19.29-.37.43-.55l0-.06c.15-.19.32-.36.49-.54a1.14,1.14,0,0,1,.11-.11c.17-.17.35-.33.54-.49l.07-.06a8.6,8.6,0,0,1,2.81-1.52l.12,0c.24-.07.48-.14.73-.19l.14,0a8.85,8.85,0,0,1,1.64-.17,8.6,8.6,0,0,1,6.5,3,6.92,6.92,0,0,1,.63.8A8.64,8.64,0,0,1,699.7,132a9.5,9.5,0,0,1,.62.8,8.65,8.65,0,0,1,14.26,0,8.63,8.63,0,0,1,7.13-3.75Z" transform="translate(-210.38 -30.39)"/></g><path class="cls-4" d="M635.91,169.63h31a0,0,0,0,1,0,0v62.7a31,31,0,0,1-31,31h0a0,0,0,0,1,0,0V169.63A0,0,0,0,1,635.91,169.63Z" transform="translate(1092.43 402.55) rotate(-180)"/><path class="cls-6" d="M640.86,174h26a0,0,0,0,1,0,0v56.92a26,26,0,0,1-26,26h0a0,0,0,0,1,0,0V174A0,0,0,0,1,640.86,174Z" transform="translate(1097.37 400.48) rotate(-180)"/><path class="cls-2" d="M666.89,374.44H620.07v-49.8c-1.34-13.91-6.46-19.35-6.46-19.35h6.46v-7.61h46.82Z" transform="translate(-210.38 -30.39)"/><path class="cls-3" d="M666.89,305.22H610.77s-16.23.38-9.64-14c4.76-10.41-.65-12.89-4-13.46a6,6,0,0,1-3.84,10.62,5.32,5.32,0,0,1-.69,0h0s-10-.46-8.38-12.75,14.35-9.52,14.35-9.52,11.14.77,12.06,11,37.88,11.27,37.88,11.27h18.39Z" transform="translate(-210.38 -30.39)"/><rect class="cls-2" x="620.01" y="379.42" width="46.88" height="276.04" transform="translate(1076.53 1004.49) rotate(-180)"/><path class="cls-4" d="M618.91,373.86h48V358.45H608.13a.81.81,0,0,0-.62,1.32Z" transform="translate(-210.38 -30.39)"/><path class="cls-4" d="M616.08,373.51h47.55a3.25,3.25,0,0,1,3.25,3.25v0a3.25,3.25,0,0,1-3.25,3.25H616.08a0,0,0,0,1,0,0v-6.5A0,0,0,0,1,616.08,373.51Z" transform="translate(1072.6 723.13) rotate(-180)"/><g class="cls-12"><path class="cls-6" d="M721.71,373.85h-114v-8.65a8.64,8.64,0,0,1,7.13,3.76,8.64,8.64,0,0,1,14.26,0,8.64,8.64,0,0,1,14.25,0,8.65,8.65,0,0,1,14.26,0,8.64,8.64,0,0,1,14.25,0c.14-.19.29-.37.43-.55l0-.06c.15-.19.32-.36.49-.54l.11-.11c.17-.17.35-.33.54-.49l.07-.06a8.6,8.6,0,0,1,2.81-1.52l.12,0,.73-.19.14,0a8.08,8.08,0,0,1,1.64-.18,8.6,8.6,0,0,1,6.5,3,6.92,6.92,0,0,1,.63.8,8.64,8.64,0,0,1,13.63-.81,9.65,9.65,0,0,1,.62.81,8.65,8.65,0,0,1,14.26,0,8.65,8.65,0,0,1,7.13-3.75Z" transform="translate(-210.38 -30.39)"/></g><path class="cls-4" d="M635.91,401.4h31a0,0,0,0,1,0,0v62.7a31,31,0,0,1-31,31h0a0,0,0,0,1,0,0V401.4A0,0,0,0,1,635.91,401.4Z" transform="translate(1092.43 866.08) rotate(-180)"/><path class="cls-6" d="M640.86,405.72h26a0,0,0,0,1,0,0v56.92a26,26,0,0,1-26,26h0a0,0,0,0,1,0,0v-83A0,0,0,0,1,640.86,405.72Z" transform="translate(1097.37 864) rotate(-180)"/><path class="cls-8" d="M617.17,90.35a6.39,6.39,0,0,1,.34-1.6c.29-.84.43-.45.43-.45,4.33,4.89,11.17,7.86,19,9.09,2.5.4,5,.75,7.56,1h0c7.85.63,18.6-2.43,23.93-4.16l.32-.17a1.37,1.37,0,0,0-.2.13c2-.64,3.17-1.09,3.17-1.09v3l1,9.08c-12.69,3.27-27.57-.5-27.57-.5l0,0a58.61,58.61,0,0,1-14-3.63c-2.1-.85-4.11-1.81-6.08-2.83C620.81,96,616.88,94.15,617.17,90.35Z" transform="translate(-210.38 -30.39)"/><path class="cls-9" d="M628.49,95.82s8.81.17,4-13C632.46,82.85,621.47,91,628.49,95.82Z" transform="translate(-210.38 -30.39)"/><path class="cls-9" d="M618.56,95.16s.73-8.77-12.69-4.79C605.87,90.37,613.27,101.86,618.56,95.16Z" transform="translate(-210.38 -30.39)"/><path class="cls-9" d="M639.52,102.42s-8.34-6.7-13.44,9.51C626.08,111.93,642.67,112.27,639.52,102.42Z" transform="translate(-210.38 -30.39)"/><path class="cls-9" d="M645.64,472.79s-8.69.59-2.93,13.5C642.71,486.29,652.92,477.09,645.64,472.79Z" transform="translate(-210.38 -30.39)"/><path class="cls-8" d="M606.51,477.77a7.56,7.56,0,0,0,5.11-3.31A14.57,14.57,0,0,0,614,468.4c.66-3.73.41-7.52.62-11.28a89.61,89.61,0,0,0,5.16,23,103.36,103.36,0,0,1,.5-26.88,41.34,41.34,0,0,0,6.8,8.1c4.28,4,9.81,7,14.92,10.35a137.38,137.38,0,0,1,15.1,11.43c1.08.94,2.14,1.91,3.15,2.91a18.31,18.31,0,0,1,.81,2.83,12.94,12.94,0,0,1-1.86,10,9.9,9.9,0,0,1-3.92,3.22,11.16,11.16,0,0,1-5.47,1.19,5.54,5.54,0,0,1-4.84-6.75,5.62,5.62,0,0,1,2.84-3.87c1.09-.53,2.85-.39,3.34.92a1,1,0,0,0,1.18.67,1,1,0,0,0,.67-1.18,4.27,4.27,0,0,0-5.59-2.32,7.41,7.41,0,0,0-4.32,5.42,7.58,7.58,0,0,0,1.16,5.89,7.37,7.37,0,0,0,5.21,3.1,12.8,12.8,0,0,0,6.86-1.44,11.84,11.84,0,0,0,4.7-4.12A14.79,14.79,0,0,0,663,489a21,21,0,0,1,3.85,6.33c1.9,5.3.42,10.7-1.32,15.8a12.61,12.61,0,0,0,6-8.32c2.17-8.26-.68-17.49-7.65-24.75-9.24-9.63-24.47-15.39-34.16-24.73a23.44,23.44,0,0,1-7-11.73,69.65,69.65,0,0,1,11.86-24.09c1.33-1.71,2.65-3.28,3.95-4.75a12.27,12.27,0,0,0,1.14,5.13,5.74,5.74,0,0,0,2.16,2.54,3.51,3.51,0,0,0,3.21.21c1.88-.82,3.52-3.14,2.73-5.23a2.26,2.26,0,0,0-2.52-1.59,1.79,1.79,0,0,0-1.13,2.53.64.64,0,0,0,.88.23.66.66,0,0,0,.23-.88.54.54,0,0,1,.22-.59c.27-.16.64,0,.82.25a2.09,2.09,0,0,1,.2,2.14c-.56,1.35-2.23,2.63-3.71,2s-2.24-2.62-2.63-4.17a10,10,0,0,1-.15-4.13c18.07-19.48,31.68-16.34,31.68-16.34v-15.3c-.65.53-9.62,4-20.38,11-.32.05-.64.11-1,.15a47.83,47.83,0,0,1-14.07-.6c-6.68-1.07-12.63-4.2-16.59-9.68,0,0-.15-.45-.34.55a9.93,9.93,0,0,0-.17,1.87c0,4.43,3.43,6.38,7.15,8.73a54.12,54.12,0,0,0,5.3,3,39,39,0,0,0,9.8,3.22,89.53,89.53,0,0,0-15.21,15.8c-.15.08-.31.14-.45.22-4.09,2-8.83,4.21-10.84,8.57s-.93,8.7.6,12.86a75.44,75.44,0,0,0-1.26,14.52,23.44,23.44,0,0,0-1.11,4.79c-.5,3.89-.15,7.83-.55,11.74-.36,3.45-1.48,7.93-5,9.49a3.44,3.44,0,0,1-3.82-.57,5.13,5.13,0,0,1-1.42-3.62,5.27,5.27,0,0,1,.37-2.1c.25-.6.74-1.39,1.46-1.46a1.49,1.49,0,0,1,1.39,1.08,3,3,0,0,1-.56,2.51c-.59.91.87,1.75,1.46.85a4.77,4.77,0,0,0,.75-3.7,3.33,3.33,0,0,0-2.34-2.35c-2.54-.57-3.94,2.24-4.17,4.32C600.32,474.16,602.65,478.17,606.51,477.77ZM617,422.42a13.14,13.14,0,0,1,4.41-4.17c.79-.51,1.62-1,2.46-1.41a67.27,67.27,0,0,0-7.53,15.08,17.41,17.41,0,0,1-.55-2.77A10.76,10.76,0,0,1,617,422.42Z" transform="translate(-210.38 -30.39)"/><path class="cls-9" d="M626.74,392.06s-7.9-8.31-15.64,8.19C611.1,400.25,628.68,403,626.74,392.06Z" transform="translate(-210.38 -30.39)"/><path class="cls-9" d="M637.28,391.09S648,387,635.73,373.51C635.73,373.51,626.44,388.68,637.28,391.09Z" transform="translate(-210.38 -30.39)"/><path class="cls-9" d="M614.69,444.8s-7.89-8.31-15.64,8.19C599.05,453,616.63,455.73,614.69,444.8Z" transform="translate(-210.38 -30.39)"/><path class="cls-9" d="M636.88,459.91s9.3,6.12,13.42-11.46C650.3,448.45,632.8,449.9,636.88,459.91Z" transform="translate(-210.38 -30.39)"/><path class="cls-9" d="M629.78,463.11s-6.51,1.7-.34,11C629.44,474.11,635.9,465.45,629.78,463.11Z" transform="translate(-210.38 -30.39)"/><path class="cls-8" d="M619.31,324.86a7,7,0,0,1,.34-1.6c.29-.84.43-.44.43-.44,4.33,4.88,11.17,7.85,19,9.09,2.5.39,5,.74,7.57,1h0c7.85.62,18.6-2.43,23.93-4.17l.32-.17-.2.13c2-.64,3.17-1.09,3.17-1.09v3l1,9.08c-12.69,3.27-27.57-.49-27.57-.49l0,0a58.42,58.42,0,0,1-14-3.64c-2.11-.85-4.12-1.81-6.09-2.82C623,330.5,619,328.66,619.31,324.86Z" transform="translate(-210.38 -30.39)"/><path class="cls-9" d="M630.63,330.33s8.81.17,4-13C634.61,317.36,623.61,325.48,630.63,330.33Z" transform="translate(-210.38 -30.39)"/><path class="cls-9" d="M620.7,329.68s.74-8.78-12.69-4.8C608,324.88,615.41,336.37,620.7,329.68Z" transform="translate(-210.38 -30.39)"/><path class="cls-9" d="M641.66,336.93s-8.33-6.7-13.44,9.51C628.22,346.44,644.81,346.79,641.66,336.93Z" transform="translate(-210.38 -30.39)"/><rect class="cls-2" x="619.25" y="670.31" width="47.35" height="169.3" transform="translate(1075.48 1479.52) rotate(-180)"/><path class="cls-4" d="M618.14,670.66H666.6V655.1H607.26a.81.81,0,0,0-.64,1.32Z" transform="translate(-210.38 -30.39)"/><path class="cls-4" d="M615.28,670.31h48a3.28,3.28,0,0,1,3.28,3.28v0a3.28,3.28,0,0,1-3.28,3.28h-48a0,0,0,0,1,0,0v-6.57a0,0,0,0,1,0,0Z" transform="translate(1071.51 1316.79) rotate(180)"/><g class="cls-13"><path class="cls-6" d="M722,670.65H606.78v-8.73a8.73,8.73,0,0,1,7.2,3.79,8.72,8.72,0,0,1,14.4,0,8.73,8.73,0,0,1,14.4,0,8.73,8.73,0,0,1,14.4,0,8.73,8.73,0,0,1,14.4,0c.13-.19.28-.38.43-.56l0,0c.16-.19.33-.37.5-.55l.11-.11c.18-.17.36-.34.55-.5l.07-.06a8.58,8.58,0,0,1,2.84-1.53l.12,0a6,6,0,0,1,.73-.19l.15,0a9.07,9.07,0,0,1,1.66-.17,8.7,8.7,0,0,1,6.57,3q.33.39.63.81a8.74,8.74,0,0,1,14.4,0,8.73,8.73,0,0,1,14.4,0,8.71,8.71,0,0,1,7.2-3.79Z" transform="translate(-210.38 -30.39)"/></g><path class="cls-4" d="M635.31,703H666.6a0,0,0,0,1,0,0v63.33a31.29,31.29,0,0,1-31.29,31.29h0a0,0,0,0,1,0,0V703A0,0,0,0,1,635.31,703Z" transform="translate(1091.54 1470.15) rotate(-180)"/><path class="cls-6" d="M640.31,707.33H666.6a0,0,0,0,1,0,0v57.5a26.29,26.29,0,0,1-26.29,26.29h0a0,0,0,0,1,0,0V707.33A0,0,0,0,1,640.31,707.33Z" transform="translate(1096.54 1468.05) rotate(-180)"/><path class="cls-9" d="M645.33,775.63s-8.9.61-3,13.84C642.33,789.47,652.79,780,645.33,775.63Z" transform="translate(-210.38 -30.39)"/><path class="cls-8" d="M605.22,780.73a7.74,7.74,0,0,0,5.24-3.39,15,15,0,0,0,2.41-6.22c.68-3.82.42-7.7.63-11.55a92.24,92.24,0,0,0,5.29,23.59,105.91,105.91,0,0,1,.52-27.55,42.51,42.51,0,0,0,7,8.3c4.38,4.08,10.06,7.18,15.29,10.61a140.21,140.21,0,0,1,15.48,11.72c1.1,1,2.2,2,3.23,3a19.23,19.23,0,0,1,.83,2.9,13.24,13.24,0,0,1-1.91,10.25,10.21,10.21,0,0,1-4,3.3,11.4,11.4,0,0,1-5.61,1.21,5.67,5.67,0,0,1-5-6.91,5.74,5.74,0,0,1,2.91-4c1.11-.55,2.92-.41,3.42.94a1,1,0,0,0,1.9-.53,4.38,4.38,0,0,0-5.73-2.37,7.6,7.6,0,0,0-4.43,5.56,7.78,7.78,0,0,0,1.19,6,7.55,7.55,0,0,0,5.34,3.17,13.09,13.09,0,0,0,7-1.48,12.17,12.17,0,0,0,4.81-4.22,15.16,15.16,0,0,0,2-10.86,21.73,21.73,0,0,1,4,6.5c1.95,5.43.43,11-1.36,16.19a13,13,0,0,0,6.2-8.53c2.22-8.47-.7-17.93-7.85-25.37-9.47-9.87-25.08-15.78-35-25.34a24.1,24.1,0,0,1-7.2-12A71.39,71.39,0,0,1,634,719c1.37-1.75,2.71-3.36,4-4.87a12.55,12.55,0,0,0,1.18,5.26,5.8,5.8,0,0,0,2.21,2.61,3.55,3.55,0,0,0,3.29.21c1.93-.84,3.61-3.22,2.79-5.36a2.31,2.31,0,0,0-2.58-1.63,1.85,1.85,0,0,0-1.16,2.59.67.67,0,0,0,.91.24.68.68,0,0,0,.24-.91.54.54,0,0,1,.22-.6c.28-.16.65,0,.84.26a2.13,2.13,0,0,1,.21,2.19c-.58,1.39-2.29,2.69-3.81,2s-2.3-2.68-2.69-4.27a10.4,10.4,0,0,1-.16-4.24c18.53-20,32.48-16.75,32.48-16.75V680c-.67.54-9.87,4.08-20.89,11.29-.33.06-.66.12-1,.16a49.18,49.18,0,0,1-14.42-.62c-6.85-1.09-13-4.3-17-9.91,0,0-.15-.47-.34.55a10.1,10.1,0,0,0-.18,1.93c0,4.53,3.52,6.54,7.33,8.94a56.87,56.87,0,0,0,5.43,3.07,40.15,40.15,0,0,0,10,3.3,91.64,91.64,0,0,0-15.6,16.2l-.46.22c-4.19,2-9,4.32-11.11,8.79-2,4.32-1,8.91.62,13.18A75.93,75.93,0,0,0,613.15,752a23.32,23.32,0,0,0-1.14,4.91c-.51,4-.15,8-.57,12-.36,3.55-1.51,8.13-5.11,9.74a3.53,3.53,0,0,1-3.91-.59,5.25,5.25,0,0,1-1.46-3.71,5.31,5.31,0,0,1,.38-2.15c.25-.61.75-1.43,1.49-1.5a1.54,1.54,0,0,1,1.43,1.1,3.12,3.12,0,0,1-.57,2.58c-.6.93.89,1.8,1.49.87a4.87,4.87,0,0,0,.77-3.79,3.38,3.38,0,0,0-2.4-2.41c-2.6-.58-4,2.3-4.27,4.42C598.88,777,601.27,781.15,605.22,780.73ZM616,724a13.39,13.39,0,0,1,4.51-4.28c.82-.52,1.67-1,2.53-1.45a69.6,69.6,0,0,0-7.72,15.46,18.16,18.16,0,0,1-.56-2.83A10.94,10.94,0,0,1,616,724Z" transform="translate(-210.38 -30.39)"/><path class="cls-9" d="M626,692.88s-8.09-8.52-16,8.39C609.93,701.27,628,704.08,626,692.88Z" transform="translate(-210.38 -30.39)"/><path class="cls-9" d="M636.76,691.88s11-4.19-1.58-18C635.18,673.86,625.66,689.41,636.76,691.88Z" transform="translate(-210.38 -30.39)"/><path class="cls-9" d="M613.61,746.94s-8.09-8.52-16,8.39C597.58,755.33,615.6,758.14,613.61,746.94Z" transform="translate(-210.38 -30.39)"/><path class="cls-9" d="M636.36,762.43s9.52,6.27,13.76-11.75C650.12,750.68,632.18,752.17,636.36,762.43Z" transform="translate(-210.38 -30.39)"/><path class="cls-9" d="M629.08,765.71s-6.67,1.74-.36,11.27C628.72,777,635.35,768.1,629.08,765.71Z" transform="translate(-210.38 -30.39)"/><path class="cls-9" d="M645.29,613.08s-8.69.59-2.93,13.49C642.36,626.57,652.57,617.37,645.29,613.08Z" transform="translate(-210.38 -30.39)"/><path class="cls-8" d="M606.16,618.05a7.55,7.55,0,0,0,5.11-3.31,14.52,14.52,0,0,0,2.35-6.06c.66-3.73.41-7.52.61-11.28a90.46,90.46,0,0,0,5.16,23,103.66,103.66,0,0,1,.51-26.88,41.34,41.34,0,0,0,6.8,8.1c4.28,4,9.81,7,14.92,10.35a138.65,138.65,0,0,1,15.1,11.43c1.08,1,2.14,1.92,3.15,2.91a18.64,18.64,0,0,1,.81,2.83,12.94,12.94,0,0,1-1.86,10,10,10,0,0,1-3.92,3.23,11.17,11.17,0,0,1-5.47,1.18,5.54,5.54,0,0,1-4.84-6.74,5.64,5.64,0,0,1,2.84-3.88c1.09-.53,2.85-.39,3.34.92a1,1,0,1,0,1.85-.51A4.26,4.26,0,0,0,647,631a7.39,7.39,0,0,0-4.32,5.42,7.58,7.58,0,0,0,1.16,5.89,7.39,7.39,0,0,0,5.21,3.09,12.8,12.8,0,0,0,6.86-1.44,11.84,11.84,0,0,0,4.7-4.12,14.79,14.79,0,0,0,2-10.59,21.07,21.07,0,0,1,3.85,6.34c1.9,5.29.42,10.7-1.32,15.79a12.59,12.59,0,0,0,6-8.32c2.17-8.26-.68-17.49-7.65-24.75-9.24-9.62-24.47-15.39-34.16-24.72a23.46,23.46,0,0,1-7-11.74,69.65,69.65,0,0,1,11.86-24.09q2-2.55,3.95-4.75a12.08,12.08,0,0,0,1.14,5.13,5.64,5.64,0,0,0,2.16,2.54,3.45,3.45,0,0,0,3.21.21c1.88-.81,3.52-3.14,2.72-5.23a2.26,2.26,0,0,0-2.52-1.59,1.81,1.81,0,0,0-1.13,2.53.65.65,0,0,0,1.12-.65.54.54,0,0,1,.22-.59.74.74,0,0,1,.82.26,2.07,2.07,0,0,1,.2,2.13c-.57,1.36-2.23,2.63-3.71,2s-2.25-2.62-2.63-4.16a10.1,10.1,0,0,1-.15-4.14c18.07-19.48,31.68-16.34,31.68-16.34v-15.3c-.65.53-9.62,4-20.38,11l-1,.15a47.83,47.83,0,0,1-14.07-.6c-6.68-1.06-12.63-4.2-16.59-9.67,0,0-.15-.46-.34.54a10.06,10.06,0,0,0-.17,1.88c0,4.42,3.43,6.38,7.15,8.72a54.12,54.12,0,0,0,5.3,3,39,39,0,0,0,9.8,3.23,89.19,89.19,0,0,0-15.21,15.8l-.46.21c-4.08,2-8.83,4.22-10.83,8.58s-.93,8.69.6,12.86A75.22,75.22,0,0,0,613.89,590a22.8,22.8,0,0,0-1.11,4.79c-.5,3.89-.15,7.84-.55,11.74-.36,3.46-1.48,7.93-5,9.5a3.46,3.46,0,0,1-3.82-.58,5.13,5.13,0,0,1-1.42-3.62,5.19,5.19,0,0,1,.37-2.09c.25-.6.74-1.39,1.46-1.46a1.49,1.49,0,0,1,1.39,1.07,3,3,0,0,1-.56,2.51c-.59.92.87,1.76,1.45.85a4.71,4.71,0,0,0,.76-3.69,3.29,3.29,0,0,0-2.34-2.35c-2.54-.57-3.94,2.24-4.17,4.31C600,614.44,602.3,618.46,606.16,618.05Zm10.53-55.34a13.07,13.07,0,0,1,4.41-4.18c.79-.51,1.62-1,2.46-1.41A67.48,67.48,0,0,0,616,572.2a17.51,17.51,0,0,1-.55-2.76A10.67,10.67,0,0,1,616.69,562.71Z" transform="translate(-210.38 -30.39)"/><path class="cls-9" d="M626.39,532.35s-7.9-8.32-15.64,8.18C610.75,540.53,628.33,543.27,626.39,532.35Z" transform="translate(-210.38 -30.39)"/><path class="cls-9" d="M636.92,531.38s10.72-4.1-1.54-17.59C635.38,513.79,626.09,529,636.92,531.38Z" transform="translate(-210.38 -30.39)"/><path class="cls-9" d="M614.34,585.09s-7.89-8.32-15.64,8.18C598.7,593.27,616.28,596,614.34,585.09Z" transform="translate(-210.38 -30.39)"/><path class="cls-9" d="M636.53,600.19s9.3,6.12,13.42-11.46C650,588.73,632.45,590.19,636.53,600.19Z" transform="translate(-210.38 -30.39)"/><path class="cls-9" d="M629.43,603.39s-6.51,1.7-.34,11C629.09,614.39,635.55,605.73,629.43,603.39Z" transform="translate(-210.38 -30.39)"/></g></svg>