<svg width="40" height="40" viewBox="0 0 40 40" fill="none" xmlns="http://www.w3.org/2000/svg">
<path d="M37.3703 0.748215C35.9743 0.510138 34.5608 0.387591 33.1444 0.381844C28.3116 0.377921 23.5796 1.75009 19.5125 4.3348C15.4348 1.78403 10.7036 0.445537 5.88054 0.478258C4.46408 0.484005 3.05056 0.606552 1.65465 0.844629C1.1974 0.922682 0.783334 1.15982 0.487 1.51334C0.190667 1.86686 0.0315447 2.31352 0.03829 2.7729V25.9121C0.0341192 26.1955 0.0930633 26.4762 0.210928 26.7344C0.328793 26.9926 0.502682 27.222 0.720223 27.4061C0.937763 27.5902 1.19361 27.7245 1.46955 27.7996C1.7455 27.8747 2.03477 27.8886 2.31677 27.8404C5.10745 27.362 7.96661 27.4414 10.7258 28.0739C13.4851 28.7064 16.0886 29.8793 18.3829 31.5234L18.6166 31.6584H18.8309C19.0468 31.7475 19.2785 31.7934 19.5125 31.7934C19.7464 31.7934 19.9781 31.7475 20.194 31.6584H20.4083L20.642 31.5234C22.9203 29.8425 25.5164 28.6316 28.2761 27.9626C31.0359 27.2935 33.9032 27.1798 36.7081 27.6283C36.9901 27.6765 37.2794 27.6626 37.5553 27.5875C37.8313 27.5124 38.0871 27.378 38.3047 27.1939C38.5222 27.0098 38.6961 26.7805 38.814 26.5223C38.9318 26.2641 38.9908 25.9834 38.9866 25.7V2.56079C38.9663 2.12144 38.795 1.70215 38.501 1.37247C38.207 1.04279 37.808 0.822525 37.3703 0.748215ZM17.565 26.3749C13.9621 24.4981 9.95165 23.5186 5.88054 23.5211C5.23789 23.5211 4.59524 23.5211 3.93312 23.5211V4.23838C4.58172 4.20137 5.23194 4.20137 5.88054 4.23838C10.0351 4.23384 14.0991 5.44103 17.565 7.70927V26.3749ZM35.0918 23.5982C34.4297 23.5982 33.787 23.5982 33.1444 23.5982C29.0733 23.5957 25.0628 24.5752 21.4599 26.452V7.70927C24.9258 5.44103 28.9898 4.23384 33.1444 4.23838C33.793 4.20137 34.4432 4.20137 35.0918 4.23838V23.5982ZM37.3703 31.6005C35.9743 31.3625 34.5608 31.2399 33.1444 31.2342C28.3116 31.2302 23.5796 32.6024 19.5125 35.1871C15.4453 32.6024 10.7133 31.2302 5.88054 31.2342C4.46408 31.2399 3.05056 31.3625 1.65465 31.6005C1.40114 31.6404 1.1581 31.7294 0.939481 31.8626C0.720863 31.9958 0.530989 32.1704 0.380775 32.3765C0.230562 32.5826 0.122974 32.816 0.0641979 33.0634C0.00542165 33.3108 -0.00338306 33.5673 0.03829 33.818C0.137255 34.3188 0.432623 34.7603 0.859691 35.0458C1.28676 35.3313 1.81071 35.4376 2.31677 35.3414C5.10745 34.8629 7.96661 34.9423 10.7258 35.5748C13.4851 36.2074 16.0886 37.3802 18.3829 39.0244C18.7128 39.2569 19.1076 39.3818 19.5125 39.3818C19.9173 39.3818 20.3121 39.2569 20.642 39.0244C22.9364 37.3802 25.5398 36.2074 28.2991 35.5748C31.0583 34.9423 33.9174 34.8629 36.7081 35.3414C37.2142 35.4376 37.7381 35.3313 38.1652 35.0458C38.5923 34.7603 38.8876 34.3188 38.9866 33.818C39.0283 33.5673 39.0195 33.3108 38.9607 33.0634C38.9019 32.816 38.7943 32.5826 38.6441 32.3765C38.4939 32.1704 38.304 31.9958 38.0854 31.8626C37.8668 31.7294 37.6238 31.6404 37.3703 31.6005Z" fill="#9991B9"/>
</svg>
