<svg id="Layer_1" data-name="Layer 1" xmlns="http://www.w3.org/2000/svg" viewBox="0 0 142.88 39.28"><defs><style>.cls-1{fill:#2b4c41;}</style></defs><path class="cls-1" d="M141.86,24.65c-1.69-1.95-5.85-2.59-8.08-1a4.64,4.64,0,0,0-.59-5.28,10.46,10.46,0,0,0-5.73-3.29c-2.38-.57-5.51-.36-6.69,1.28a6.75,6.75,0,0,0-2.26-7.34,13.32,13.32,0,0,0-9.4-2.8,17,17,0,0,0-10.83,5.36,4.53,4.53,0,0,0-.64-1.18A8.46,8.46,0,0,0,91.28,7.6,20.46,20.46,0,0,0,86,8.4c.14-1.9-1.34-3.82-3.66-4.73A9.54,9.54,0,0,0,74.86,4c-.47-2.34-3.77-4.07-7-4a10.75,10.75,0,0,0-8,3.6c-1.37-1-3.7-.56-5.3.2-2.82,1.36-4.7,3.7-4.92,6.14-2.3-.17-4.3.3-5.22,1.47a16.1,16.1,0,0,0-2.31-2,16.52,16.52,0,0,0-8.32-3.14,13.27,13.27,0,0,0-9.4,2.81,6.74,6.74,0,0,0-2.26,7.33c-1.18-1.64-4.31-1.84-6.69-1.27a10.43,10.43,0,0,0-5.73,3.28,4.64,4.64,0,0,0-.59,5.28c-2.22-1.63-6.39-1-8.08,1s-1.15,4.65.7,6.52,4.76,3,7.75,3.7a20.2,20.2,0,0,0,7.14.51c5.8,4.43,16,5.12,22.81,1.54a3.08,3.08,0,0,1,1.86-.53,3,3,0,0,1,1.14.54,16.77,16.77,0,0,0,9.87,2.31,24,24,0,0,0,7.55-1.7,4.44,4.44,0,0,0,5-.65c.54-.45,3.09,1.51,5.66,1.48.31,0,.62,0,.93-.05s.66.05,1,.05c2.58,0,5.13-1.93,5.66-1.48a4.46,4.46,0,0,0,5,.65,23.83,23.83,0,0,0,7.53,1.7,16.84,16.84,0,0,0,9.87-2.31,3,3,0,0,1,1.14-.55,3.15,3.15,0,0,1,1.86.53c6.77,3.59,17,2.9,22.81-1.54a19.94,19.94,0,0,0,7.14-.5c3-.69,5.9-1.83,7.75-3.7S143.55,26.6,141.86,24.65Z" transform="translate(0 0)"/></svg>