<svg id="Layer_1" data-name="Layer 1" xmlns="http://www.w3.org/2000/svg" viewBox="0 0 143.9 102.81"><defs><style>.cls-1{fill:#497c63;}.cls-2{fill:#426f5b;}.cls-3{fill:#5a9b79;}</style></defs><path class="cls-1" d="M79.73,80.4s32.9-4.7,24.41-64.95C104.14,15.45,59.77,59,79.73,80.4Z" transform="translate(0 0)"/><path class="cls-1" d="M74.93,97.64S118,73.76,71.34,0C71.34,0,34.77,80.57,74.93,97.64Z" transform="translate(0 0)"/><path class="cls-2" d="M71.7,101.28S102,62.43,30.11,12.87C30.11,12.87,28.07,101.33,71.7,101.28Z" transform="translate(0 0)"/><path class="cls-2" d="M86.23,100.47S63.94,56.56,143.9,21.6C143.9,21.6,129.05,108.83,86.23,100.47Z" transform="translate(0 0)"/><path class="cls-2" d="M85.29,98.33S78.79,60.78,142.17,61C142.17,61,113.61,117.35,85.29,98.33Z" transform="translate(0 0)"/><path class="cls-3" d="M80.24,102.81S125,103.8,118,51C118,51,72.32,75.86,80.24,102.81Z" transform="translate(0 0)"/><path class="cls-2" d="M48.17,87.11S64.83,49.82,0,37.12C0,37.12,14.15,100.92,48.17,87.11Z" transform="translate(0 0)"/><path class="cls-1" d="M59.94,99.33s16.67-37.3-48.17-50C11.77,49.34,25.93,113.14,59.94,99.33Z" transform="translate(0 0)"/><path class="cls-3" d="M70.33,102.81s29.26-25.76-17.8-79.43C52.53,23.38,37,94.62,70.33,102.81Z" transform="translate(0 0)"/></svg>