<svg id="Layer_1" data-name="Layer 1" xmlns="http://www.w3.org/2000/svg" viewBox="0 0 494.5 73.16"><defs><style>.cls-1{fill:#2b4c41;}</style></defs><path class="cls-1" d="M248,68.3c.82,0,6-.71,5.89-1.52h0a7.91,7.91,0,0,0,7.3.08,42.29,42.29,0,0,0,13.43,3c6.3.33,12.86-1,17.59-4.12a5.1,5.1,0,0,1,2-1,5.49,5.49,0,0,1,3.29,1c10.58,5.59,25.9,5.33,36.47-.13a3.28,3.28,0,0,0,1.36,2.16c6.64,3.84,7.36.63,8.7.61,0,0,5.74,5.36,11.48.52,1-.8,5.5,2.69,10.09,2.63a29.67,29.67,0,0,0,12.83-3.29,6.22,6.22,0,0,1,2.9-.91,5.94,5.94,0,0,1,2.56.86,43.59,43.59,0,0,0,17.51,4.9c6.29.33,12.86-1,17.59-4.12a5,5,0,0,1,2-1,5.53,5.53,0,0,1,3.3.94c12.06,6.38,30.31,5.15,40.62-2.74a35.88,35.88,0,0,0,12.73-.91c5.31-1.22,10.5-3.25,13.8-6.58s4.26-8.15,1.24-11.62-10.43-4.63-14.38-1.72a8.26,8.26,0,0,0-1.06-9.4c-2.23-2.81-6-4.84-10.2-5.85s-9.82-.65-11.92,2.27c1.59-4.49,0-9.53-4-13.07s-10.51-5.45-16.73-5A29.3,29.3,0,0,0,419.54,20a26.89,26.89,0,0,0-9.05,10.86c-3.84-2.89-9.95-4.38-15-2.79s-7.72,6.8-4.48,10.07c-3.82-1.39-7.87-2.8-12.11-2.57s-8.56,2.79-8.21,5.94a23.25,23.25,0,0,0-12.41-9.08,24.59,24.59,0,0,0-9.14-.94,20.09,20.09,0,0,0-8.93-4.5c-4.24-1-9.81-.65-11.92,2.27,1.59-4.5,0-9.54-4-13.07s-10.52-5.45-16.74-5a29.3,29.3,0,0,0-14.82,5.59,29.67,29.67,0,0,0-4.11,3.57c-1.64-2.08-5.2-2.91-9.29-2.6-.39-4.36-3.73-8.53-8.76-10.94-2.85-1.36-7-2.07-9.45-.36A19,19,0,0,0,247.57,0V0h-.64V0a19,19,0,0,0-13.55,6.38c-2.46-1.71-6.6-1-9.45.36-5,2.41-8.37,6.58-8.77,10.94-4.09-.31-7.64.52-9.28,2.6a30.26,30.26,0,0,0-4.11-3.57A29.33,29.33,0,0,0,187,11.15c-6.22-.46-12.68,1.46-16.74,5s-5.61,8.57-4,13.07c-2.11-2.92-7.68-3.29-11.92-2.27a20.09,20.09,0,0,0-8.93,4.5,24.57,24.57,0,0,0-9.14.94,23.25,23.25,0,0,0-12.41,9.08c.35-3.15-4-5.7-8.21-5.94s-8.29,1.18-12.12,2.57C106.71,34.82,104,29.62,99,28s-11.14-.1-15,2.79A26.89,26.89,0,0,0,75,20a29.3,29.3,0,0,0-14.82-5.59c-6.22-.46-12.68,1.46-16.74,5s-5.61,8.58-4,13.07c-2.11-2.92-7.68-3.29-11.92-2.27s-8,3-10.21,5.85a8.28,8.28,0,0,0-1.05,9.4c-4-2.91-11.37-1.75-14.38,1.72S-.24,55.41,3.06,58.74s8.49,5.36,13.8,6.58a35.84,35.84,0,0,0,12.72.91C39.9,74.12,58.14,75.35,70.2,69A5.53,5.53,0,0,1,73.5,68a5.09,5.09,0,0,1,2,1c4.73,3.12,11.29,4.45,17.59,4.12a43.64,43.64,0,0,0,17.51-4.9,5.94,5.94,0,0,1,2.56-.86,6.26,6.26,0,0,1,2.9.91,29.64,29.64,0,0,0,12.83,3.29c4.59.06,9.13-3.43,10.08-2.63,5.75,4.84,11.49-.52,11.49-.52,1.34,0,2.06,3.23,8.7-.61a3.27,3.27,0,0,0,1.35-2.16c10.57,5.46,25.9,5.72,36.47.13a5.54,5.54,0,0,1,3.3-1,5.1,5.1,0,0,1,2,1c4.72,3.11,11.29,4.45,17.59,4.12a42.29,42.29,0,0,0,13.43-3,7.91,7.91,0,0,0,7.3-.08h0c-.07.81,4.94,1.5,5.76,1.52Z" transform="translate(0 0)"/></svg>