<svg id="Layer_1" data-name="Layer 1" xmlns="http://www.w3.org/2000/svg" viewBox="0 0 134.41 197.35"><defs><style>.cls-1{fill:#284c3f;}.cls-2{fill:#137241;}.cls-3{fill:#d3caae;}.cls-4{fill:#b5ac94;}</style></defs><path class="cls-1" d="M3.38,50.36S33.43,28.92,59.45,66.05c0,0,5.55,7.27,7.47,15.12h4S53.33-1.69,3.38,50.36Z"/><path class="cls-2" d="M0,81.17S15.79,49.52,54.45,69.65c0,0,7.95,3.74,13.09,9.59l3.39-1.79S18.88,14.55,0,81.17Z"/><path class="cls-2" d="M134.41,66.45S112,40.74,80.63,68.55c0,0-6.55,5.35-9.95,12l-3.61-.86S100.65,9,134.41,66.45Z"/><path class="cls-1" d="M130.91,23.62s-33-16.57-53,24.1c0,0-4.37,8-5.06,16.09l-4,.61S73.57-20.16,130.91,23.62Z"/><path class="cls-1" d="M95.94,14.71S77.84-4.17,70.69,34.51A73.21,73.21,0,0,0,69.33,50l-2,.3S63.33-32.91,95.94,14.71Z"/><path class="cls-2" d="M9.1,20.6S48.16,7.55,63.42,56c0,0,3.46,9.63,2.88,18.67L70.57,76S79.5-18.7,9.1,20.6Z"/><path class="cls-2" d="M124.33,33.17S89.59,20.7,74.63,63.5c0,0-3.37,8.5-3.08,16.58l-3.87,1.09S62.12-3.36,124.33,33.17Z"/><rect class="cls-3" x="64.14" y="75.95" width="9.65" height="121.4" rx="4.83"/><path class="cls-4" d="M69.52,76h0a4.83,4.83,0,0,1,4.83,4.83V192.53a4.82,4.82,0,0,1-4.83,4.82h0"/></svg>