<?xml version="1.0" encoding="utf-8"?>
<!-- Generator: Adobe Illustrator 25.2.0, SVG Export Plug-In . SVG Version: 6.00 Build 0)  -->
<svg version="1.1" id="Layer_1" xmlns="http://www.w3.org/2000/svg" xmlns:xlink="http://www.w3.org/1999/xlink" x="0px" y="0px"
	 viewBox="0 0 171.04 141.99" style="enable-background:new 0 0 171.04 141.99;" xml:space="preserve">
<style type="text/css">
	.st0{fill:#CB862A;}
	.st1{fill:#603835;}
	.st2{fill:#307F4C;}
	.st3{fill:#48A075;}
	.st4{fill:#356654;}
</style>
<path class="st0" d="M97.18,75.5h-19.7h-35.9l12.52,59.35c0.88,4.16,4.55,7.14,8.81,7.14h14.58h19.7h14.58
	c4.26,0,7.93-2.98,8.81-7.14l12.52-59.35H97.18z"/>
<polyline class="st1" points="128.17,98.81 133.09,72.5 97.18,72.5 77.48,72.5 41.58,72.5 46.49,98.81 "/>
<path class="st0" d="M121.61,91.93H53.05C34.25,91.93,19,76.69,19,57.88v0c0-2.98,2.41-5.39,5.39-5.39h125.89
	c2.98,0,5.39,2.41,5.39,5.39v0C155.66,76.69,140.42,91.93,121.61,91.93z"/>
<g>
	<g>
		<path class="st2" d="M119.56,40.05c1.48-3.31,6.79-8.07,10.97-9.26c3.15-0.9,6.47-0.7,9.38,0.02c5.93,1.47,10.42,4.91,14.53,8.41
			c4.11,3.5,8.12,7.21,13.56,9.41c0.98,0.4,2,0.74,3.02,1.09c-6.81,1.63-13.44,4.03-20.25,5.67c-6.81,1.63-14.05,2.47-20.26,0.88
			c-2.57-0.66-4.89-1.72-6.93-3.02c-3.2-2.04-5.81-4.84-6.19-8.25C117.21,43.28,117.73,41.26,119.56,40.05"/>
	</g>
	<g>
		<path class="st3" d="M154.04,48.9c-2.56-0.32-6.64-1.27-9.64-2.94c-0.7-0.39-1.36-0.74-2-1.07c0.58-0.11,1.25-0.3,1.77-0.54
			c1.24-0.54,2.15-0.79,3.41-1.29s2.91-0.68,3.93-0.68c0.91,0,3,0.2,3.97,0.32c-0.92-0.37-3.11-0.81-4.09-0.92
			c-2.11-0.24-4.19,0.51-6.17,1.28c-1.29,0.5-2.62,1-3.97,1.25c-1.62-0.82-3.16-1.57-4.99-2.66c-0.75-0.45-1.64-0.88-2.54-1.25
			c0.34-0.06,0.67-0.14,0.98-0.24c0.58-0.17,1.28-0.45,1.81-0.75c1.18-0.67,2.05-1.01,3.25-1.65c1.2-0.64,2.82-0.98,3.83-1.09
			c0.91-0.1,3-0.12,3.98-0.11c-0.95-0.27-3.18-0.47-4.17-0.48c-2.12-0.02-4.11,0.96-6,1.92c-1.57,0.81-3.2,1.63-4.93,1.91
			c-0.26-0.09-0.51-0.18-0.76-0.26c-1.36-0.43-2.83-0.79-4.29-0.96c0.44-0.24,0.93-0.56,1.29-0.88c0.86-0.76,1.54-1.19,2.42-1.92
			c0.89-0.73,2.18-1.29,3-1.55c0.74-0.23,2.48-0.61,3.29-0.76c-0.84-0.07-2.72,0.14-3.54,0.3c-1.77,0.34-3.25,1.49-4.66,2.61
			c-0.97,0.77-1.96,1.56-3.06,2.11c-2.09-0.06-4.11,0.35-5.72,1.62l-0.57,0.51c0.95-0.82,2.31-0.94,3.56-0.89
			c0.76,0.03,1.51,0.12,2.25,0.24c1.48,1.49,2.21,3.56,2.9,5.55c0.7,2,1.47,4.08,3.02,5.53c0.72,0.68,2.47,2.07,3.35,2.53
			c-0.71-0.66-2.22-2.13-2.81-2.82c-0.66-0.78-1.6-2.14-2.02-3.43c-0.43-1.29-0.83-2.13-1.22-3.43c-0.17-0.58-0.49-1.27-0.79-1.79
			c-0.4-0.7-0.91-1.41-1.52-1.95c2.54,0.53,4.99,1.52,7.37,2.67c0.91,1.15,1.59,2.52,2.23,3.86c0.93,1.91,1.93,3.88,3.64,5.14
			c0.8,0.59,2.7,1.77,3.62,2.12c-0.79-0.58-2.45-1.86-3.11-2.48c-0.74-0.69-1.83-1.94-2.41-3.17c-0.57-1.23-1.07-2.02-1.61-3.27
			c-0.2-0.46-0.5-0.97-0.8-1.42c0.98,0.5,1.95,1.02,2.91,1.54c4.73,2.54,9.71,5.1,15.08,5.15c2.5,0.02,8.15-0.38,10.56-1.03
			C161.63,49.35,156.32,49.19,154.04,48.9z"/>
	</g>
</g>
<g>
	<g>
		<path class="st4" d="M53.17,54.21c-1.84-3.13-7.64-7.26-11.93-7.98c-3.23-0.54-6.5,0.02-9.32,1.06
			c-5.74,2.11-9.81,6.03-13.51,9.97s-7.27,8.06-12.44,10.86c-0.93,0.5-1.91,0.96-2.88,1.42c6.95,0.86,13.8,2.52,20.75,3.39
			s14.24,0.9,20.23-1.38c2.48-0.94,4.67-2.25,6.56-3.77c2.95-2.38,5.23-5.45,5.24-8.89C55.87,57.16,55.12,55.21,53.17,54.21"/>
	</g>
	<g>
		<path class="st3" d="M50.11,51.68c-1.43-0.59-3.01-0.68-4.61-0.47c-0.85-0.3-1.79-0.58-2.34-0.71c-1.97-0.45-4.01,0.05-5.96,0.56
			c-1.95,0.51-3.98,1.04-5.96,0.65c-0.46-0.09-0.95-0.25-1.22-0.64l0.16,0.23c0.9,1.15,2.61,1.3,4.07,1.2
			c0.58-0.04,1.28-0.16,1.84-0.33c1.23-0.38,2.11-0.52,3.36-0.86c1.24-0.35,2.82-0.34,3.78-0.23c0.36,0.04,0.91,0.14,1.5,0.25
			c-1.97,0.38-3.95,1.18-5.69,2.04c-1.34,0.67-2.91,1.62-4.05,2.53c-0.34,0.27-0.66,0.52-0.98,0.76c-1.44,0.46-3.12,0.45-4.75,0.44
			c-1.92-0.02-3.92-0.01-5.46,0.81c-0.72,0.38-2.24,1.37-2.78,1.93c0.71-0.38,2.26-1.15,2.97-1.41c0.8-0.3,2.18-0.65,3.41-0.62
			c1.23,0.03,2.06-0.05,3.29,0.02c0.56,0.03,1.22-0.02,1.74-0.11c0.07-0.01,0.14-0.03,0.21-0.04c-1.55,1.1-3.02,2.07-4.77,3.39
			c-0.23,0.17-0.48,0.34-0.72,0.5c-1.23,0.24-2.57,0.23-3.89,0.22c-1.92-0.02-3.92-0.01-5.46,0.81c-0.72,0.38-2.24,1.37-2.78,1.93
			c0.71-0.38,2.26-1.15,2.97-1.41c0.8-0.3,2.18-0.65,3.41-0.62c1.23,0.03,2.06-0.05,3.29,0.02c0.31,0.02,0.65,0.01,0.99-0.02
			c-2.27,1.29-4.84,2.31-6.65,2.88c-2.17,0.68-7.31,1.84-9.71,2.32c2.48,0.07,8.05-0.69,10.49-1.19c2.49-0.51,4.78-1.49,6.95-2.69
			c-0.54,0.79-1.04,1.41-1.64,2.28c-0.72,1.07-1.93,2.08-2.73,2.62c-0.72,0.48-2.47,1.44-3.3,1.86c0.92-0.19,2.88-1.02,3.72-1.45
			c1.79-0.93,3.03-2.63,4.18-4.29c0.49-0.7,0.99-1.41,1.53-2.07c1.31-0.82,2.59-1.71,3.83-2.6c0.03,0,0.07,0,0.1,0.01l-0.08-0.02
			c0.37-0.27,0.74-0.54,1.11-0.81c-0.09,0.14-0.18,0.27-0.27,0.41c-0.3,0.49-0.61,1.14-0.79,1.69c-0.4,1.23-0.8,2.02-1.24,3.24
			c-0.44,1.21-1.36,2.49-2,3.21c-0.58,0.64-2.04,2-2.74,2.62c0.84-0.41,2.54-1.7,3.25-2.32c1.51-1.34,2.29-3.3,3-5.19
			c0.69-1.84,1.42-3.74,2.81-5.12c0.32-0.23,0.64-0.45,0.96-0.68c0.12-0.04,0.25-0.07,0.38-0.07l-0.28,0
			c1.1-0.77,2.23-1.51,3.38-2.19c-0.38,0.67-0.65,1.42-0.85,2.14c-0.17,0.64-0.31,1.45-0.33,2.12c-0.05,1.48-0.24,2.49-0.33,3.98
			c-0.09,1.48-0.7,3.19-1.18,4.2c-0.43,0.9-1.61,2.87-2.18,3.77c0.8-0.73,2.27-2.69,2.84-3.61c1.24-1.97,1.47-4.38,1.64-6.7
			c0.17-2.22,0.36-4.52,1.41-6.48c1.93-1.05,3.97-1.91,6.17-2.43c1.21-0.28,2.56-0.45,3.64,0.05L50.11,51.68z"/>
	</g>
</g>
<g>
	<g>
		<path class="st4" d="M67.56,49.23c-2.86-1-9.09-0.67-12.56,0.98c-2.61,1.24-4.71,3.17-6.25,5.17c-3.13,4.06-4.18,8.4-4.95,12.57
			c-0.76,4.17-1.35,8.39-3.73,12.59c-0.43,0.76-0.92,1.51-1.4,2.25c5.47-2.85,11.25-5.18,16.71-8.03
			c5.47-2.85,10.77-6.37,14.02-10.65c1.34-1.77,2.29-3.62,2.92-5.46c0.98-2.87,1.14-5.83-0.53-7.91
			C70.95,49.7,69.46,48.88,67.56,49.23"/>
	</g>
	<g>
		<path class="st3" d="M64.1,49.19c-1.33,0.34-2.52,1.05-3.58,1.96c-0.76,0.23-1.59,0.52-2.05,0.71c-1.65,0.68-2.89,1.98-4.06,3.23
			c-1.17,1.26-2.38,2.56-4.01,3.29c-0.38,0.17-0.81,0.31-1.2,0.21l0.23,0.06c1.22,0.26,2.53-0.48,3.54-1.25
			c0.4-0.31,0.85-0.72,1.17-1.09c0.71-0.83,1.28-1.34,2.01-2.15c0.73-0.81,1.88-1.57,2.63-1.97c0.28-0.15,0.73-0.36,1.21-0.58
			c-1.25,1.19-2.29,2.63-3.14,4c-0.65,1.06-1.32,2.39-1.71,3.49c-0.11,0.33-0.23,0.64-0.34,0.94c-0.82,0.98-2.05,1.79-3.24,2.57
			c-1.4,0.92-2.85,1.9-3.57,3.14c-0.34,0.58-0.96,1.91-1.08,2.51c0.33-0.57,1.08-1.79,1.47-2.29c0.43-0.57,1.26-1.45,2.17-2.03
			c0.91-0.58,1.47-1.03,2.4-1.59c0.42-0.25,0.87-0.61,1.21-0.91c0.04-0.04,0.09-0.08,0.13-0.13c-0.58,1.42-1.18,2.71-1.81,4.36
			c-0.08,0.21-0.18,0.43-0.28,0.65c-0.77,0.74-1.75,1.39-2.71,2.02c-1.4,0.92-2.85,1.9-3.57,3.14c-0.34,0.58-0.96,1.91-1.08,2.51
			c0.33-0.57,1.08-1.79,1.47-2.29c0.43-0.57,1.26-1.45,2.17-2.03c0.91-0.58,1.47-1.03,2.4-1.59c0.23-0.14,0.48-0.31,0.71-0.49
			c-1.02,1.88-2.39,3.75-3.43,4.97c-1.25,1.46-4.41,4.66-5.92,6.12c1.83-1.16,5.51-4.32,7.03-5.81c1.56-1.52,2.75-3.22,3.73-5
			c-0.01,0.74-0.07,1.35-0.07,2.17c0,1-0.39,2.19-0.71,2.91c-0.29,0.64-1.09,2.07-1.48,2.72c0.57-0.56,1.6-2.01,1.99-2.68
			c0.85-1.43,0.91-3.06,0.94-4.62c0.01-0.66,0.03-1.33,0.1-2c0.55-1.13,1.05-2.28,1.51-3.43c0.03-0.01,0.05-0.03,0.08-0.04
			l-0.07,0.03c0.14-0.34,0.28-0.68,0.41-1.02c0,0.13,0,0.25,0.01,0.38c0.02,0.44,0.11,0.98,0.25,1.4c0.31,0.93,0.4,1.61,0.68,2.55
			c0.28,0.94,0.23,2.16,0.11,2.91c-0.1,0.67-0.5,2.2-0.71,2.91c0.41-0.66,1.02-2.26,1.22-2.98c0.44-1.54,0.05-3.1-0.35-4.58
			c-0.39-1.44-0.79-2.94-0.46-4.45c0.12-0.29,0.24-0.58,0.37-0.87c0.07-0.09,0.15-0.16,0.24-0.23l-0.2,0.13
			c0.43-1,0.88-1.99,1.39-2.96c0.05,0.59,0.22,1.17,0.43,1.7c0.19,0.47,0.48,1.03,0.79,1.44c0.69,0.92,1.05,1.62,1.7,2.56
			c0.66,0.94,1.05,2.27,1.19,3.11c0.13,0.75,0.23,2.51,0.26,3.34c0.22-0.83,0.33-2.73,0.3-3.56c-0.06-1.79-1.07-3.36-2.07-4.84
			c-0.96-1.42-1.94-2.91-2.14-4.59c0.89-1.57,1.95-3.08,3.29-4.46c0.74-0.76,1.64-1.51,2.66-1.74L64.1,49.19z"/>
	</g>
</g>
<g>
	<g>
		<path class="st2" d="M65.42,42.9c-1.02-4.15-6.17-10.78-10.77-13.04c-3.46-1.7-7.35-2.17-10.88-1.95
			c-7.19,0.45-13.11,3.5-18.61,6.69s-10.93,6.64-17.7,8.05c-1.22,0.25-2.48,0.44-3.73,0.63c7.55,3.32,14.72,7.5,22.27,10.83
			s15.77,5.82,23.3,5.28c3.11-0.22,6.03-0.96,8.67-2.05c4.14-1.69,7.75-4.38,8.92-8.26C67.47,47.13,67.29,44.68,65.42,42.9"/>
	</g>
	<g>
		<path class="st3" d="M61.18,39.09c-1.46-1.22-3.33-1.82-5.31-2.05l0.07-0.07c-0.03,0.03-0.07,0.04-0.1,0.07
			c-0.81-0.09-1.65-0.12-2.48-0.1c-1.71-0.56-3.35-1.68-4.94-2.78c-1.95-1.35-4.01-2.73-6.15-2.96c-1-0.11-3.24-0.15-4.19,0.05
			c0.98,0.1,3.1,0.39,4.02,0.61c1.03,0.25,2.68,0.85,3.92,1.73c1.24,0.89,2.14,1.38,3.36,2.31c0.55,0.41,1.27,0.82,1.86,1.1
			c0.06,0.03,0.12,0.05,0.18,0.08c-0.91,0.09-1.81,0.23-2.67,0.39c-1.66,0.31-3.65,0.86-5.18,1.51c-0.16,0.07-0.3,0.12-0.45,0.18
			c-1.52-0.41-3.04-1.19-4.52-1.95c-2.11-1.09-4.33-2.18-6.48-2.14c-1,0.02-3.23,0.27-4.15,0.59c0.99-0.02,3.13-0.01,4.07,0.09
			c1.05,0.11,2.77,0.49,4.11,1.21c1.34,0.72,2.3,1.09,3.63,1.85c0.6,0.34,1.36,0.65,1.99,0.84c0.02,0.01,0.04,0.01,0.06,0.02
			c-2.58,0.99-4.78,1.63-7.61,2.73c-1.07,0.41-2.24,0.74-3.44,1.01c-1.15-0.29-2.29-0.88-3.41-1.45c-1.55-0.8-3.17-1.6-4.75-1.57
			c-0.74,0.01-2.37,0.2-3.04,0.43c0.72-0.02,2.29-0.01,2.98,0.06c0.77,0.08,2.03,0.36,3.01,0.89c0.98,0.53,1.69,0.8,2.66,1.35
			c0.38,0.21,0.84,0.41,1.25,0.55c-2.27,0.42-4.51,0.62-6.17,0.66c-2.55,0.06-8.43-0.29-11.16-0.51c2.62,0.86,8.84,1.79,11.61,2.01
			c5.3,0.41,10.43-1.15,15.33-2.93c-0.41,0.39-0.82,0.82-1.13,1.23c-1.02,1.35-1.86,2.17-2.93,3.48c-1.06,1.32-2.76,2.51-3.87,3.13
			c-0.99,0.55-3.39,1.61-4.52,2.07c1.23-0.15,3.88-1.01,5.02-1.49c2.45-1.02,4.25-3.11,5.95-5.15c1.29-1.56,2.63-3.16,4.27-4.31
			c1.11-0.41,2.23-0.81,3.35-1.2c0.01,0,0.03,0,0.05,0.01l-0.03-0.01c1.24-0.42,2.5-0.81,3.76-1.15c-0.64,0.62-1.2,1.37-1.65,2.11
			c-0.4,0.65-0.81,1.49-1.04,2.22c-0.52,1.61-1.05,2.66-1.63,4.25c-0.57,1.59-1.78,3.27-2.63,4.22c-0.76,0.85-2.68,2.63-3.59,3.44
			c1.11-0.54,3.34-2.23,4.26-3.05c1.98-1.76,3-4.33,3.94-6.81c0.91-2.4,1.86-4.89,3.67-6.7c1.95-0.44,3.92-0.73,5.93-0.77
			c-1.22,0.62-2.2,1.85-2.92,3.04c-0.4,0.65-0.81,1.49-1.04,2.22c-0.52,1.61-1.05,2.66-1.63,4.25c-0.57,1.59-1.78,3.27-2.63,4.22
			c-0.76,0.85-2.68,2.63-3.59,3.44c1.11-0.54,3.34-2.23,4.26-3.05c1.98-1.76,3-4.33,3.94-6.81c0.94-2.48,1.91-5.06,3.83-6.88
			c0.16-0.16,0.35-0.3,0.53-0.43c0.28,0,0.57,0.01,0.85,0.02c1.39,0.07,2.88,0.32,3.87,1.2L61.18,39.09z"/>
	</g>
</g>
<g>
	<g>
		<path class="st2" d="M117.35,50.23c1.98-1.85,7.02-3.57,10.25-3.17c2.43,0.3,4.65,1.41,6.45,2.75c3.65,2.74,5.74,6.42,7.54,10.02
			c1.81,3.61,3.49,7.33,6.59,10.43c0.56,0.56,1.16,1.1,1.76,1.63c-5.16-0.87-10.42-1.15-15.58-2.01c-5.16-0.86-10.39-2.4-14.19-5.31
			c-1.57-1.2-2.86-2.61-3.89-4.1c-1.6-2.34-2.58-5.02-1.85-7.49C114.79,51.77,115.73,50.53,117.35,50.23"/>
	</g>
	<g>
		<path class="st3" d="M138.48,66.38c-1.67-0.96-4.2-2.81-5.77-4.83c-0.37-0.48-0.72-0.91-1.06-1.32c0.43,0.09,0.95,0.15,1.38,0.15
			c1.01-0.01,1.71,0.09,2.72,0.1c1.01,0.02,2.2,0.38,2.9,0.68c0.63,0.27,2.01,1.01,2.64,1.37c-0.52-0.52-1.9-1.46-2.55-1.83
			c-1.38-0.78-3.03-0.87-4.62-0.92c-1.03-0.03-2.09-0.08-3.09-0.3c-0.88-1.03-1.71-2-2.65-3.29c-0.39-0.53-0.87-1.08-1.38-1.6
			c0.25,0.05,0.5,0.09,0.75,0.12c0.45,0.05,1.01,0.06,1.47,0.01c1.01-0.12,1.71-0.09,2.72-0.18c1.01-0.09,2.23,0.15,2.95,0.37
			c0.65,0.2,2.1,0.79,2.77,1.09c-0.57-0.47-2.05-1.25-2.73-1.55c-1.45-0.63-3.11-0.54-4.69-0.43c-1.32,0.1-2.68,0.19-3.95-0.12
			c-0.15-0.14-0.3-0.27-0.45-0.4c-0.81-0.69-1.71-1.37-2.67-1.91c0.37-0.04,0.8-0.12,1.15-0.23c0.82-0.27,1.4-0.37,2.23-0.61
			c0.82-0.25,1.87-0.25,2.52-0.19c0.57,0.06,1.88,0.3,2.48,0.44c-0.56-0.29-1.91-0.7-2.53-0.83c-1.31-0.28-2.67,0.08-3.97,0.44
			c-0.89,0.25-1.81,0.5-2.72,0.56c-1.42-0.65-2.93-0.96-4.41-0.55l-0.54,0.18c0.89-0.28,1.86,0.03,2.71,0.43
			c0.51,0.24,1.01,0.52,1.48,0.82c0.58,1.46,0.48,3.09,0.38,4.66c-0.1,1.58-0.18,3.24,0.46,4.68c0.3,0.68,1.1,2.14,1.57,2.71
			c-0.3-0.66-0.9-2.11-1.11-2.76c-0.23-0.73-0.47-1.94-0.39-2.95c0.08-1.01,0.05-1.71,0.16-2.72c0.05-0.45,0.04-1.01-0.02-1.47
			c-0.07-0.6-0.21-1.24-0.47-1.79c1.59,1.11,2.99,2.5,4.29,3.99c0.29,1.06,0.36,2.2,0.41,3.3c0.08,1.58,0.19,3.24,1,4.6
			c0.38,0.64,1.34,2,1.87,2.52c-0.37-0.63-1.14-1.99-1.42-2.61c-0.31-0.69-0.69-1.87-0.73-2.89c-0.04-1.01-0.15-1.71-0.15-2.72
			c0-0.38-0.06-0.82-0.14-1.21c0.53,0.63,1.04,1.27,1.56,1.91c2.51,3.12,5.19,6.34,8.87,7.94c1.71,0.75,5.72,2.12,7.57,2.38
			C143.58,68.91,139.97,67.24,138.48,66.38z"/>
	</g>
</g>
<g>
	<g>
		<path class="st4" d="M102.46,45.19c4.2-2.31,12.87-3.5,17.4-1.91c3.41,1.2,5.96,3.59,7.72,6.24c3.58,5.39,4.18,11.78,4.41,17.97
			c0.24,6.19,0.21,12.53,2.71,18.33c0.45,1.05,0.98,2.06,1.51,3.08c-7.09-2.9-14.72-4.9-21.82-7.8
			c-7.09-2.89-13.82-6.86-17.51-12.56c-1.52-2.35-2.48-4.95-3-7.59c-0.8-4.14-0.43-8.65,2.33-12.29
			C97.61,46.83,99.86,45.17,102.46,45.19"/>
	</g>
	<g>
		<path class="st3" d="M119.97,70.88c0.24,0.15,0.48,0.28,0.72,0.4c0.43,0.21,0.98,0.42,1.44,0.53c1.04,0.24,1.72,0.51,2.75,0.79
			c1.03,0.27,2.15,0.94,2.79,1.42c0.57,0.43,1.79,1.53,2.35,2.06c-0.4-0.66-1.58-1.97-2.14-2.5c-1.21-1.14-2.88-1.64-4.48-2.09
			c-1.42-0.4-2.9-0.82-4.08-1.68c-0.83-1.41-1.58-2.93-2.07-4.37c-0.17-0.51-0.35-0.99-0.52-1.46c0.19,0.08,0.39,0.15,0.58,0.22
			c0.54,0.18,1.22,0.35,1.79,0.4c1.26,0.12,2.11,0.34,3.37,0.5c1.26,0.16,2.68,0.77,3.52,1.23c0.74,0.42,2.36,1.53,3.1,2.07
			c-0.58-0.72-2.17-2.08-2.92-2.62c-1.61-1.16-3.66-1.49-5.62-1.77c-1.4-0.2-2.83-0.41-4.14-0.91c-0.74-1.95-1.45-3.67-2.15-5.92
			c-0.17-0.54-0.39-1.11-0.63-1.69c0.54,0.32,1.14,0.57,1.72,0.75c0.58,0.19,1.31,0.35,1.92,0.4c1.35,0.11,2.26,0.33,3.61,0.49
			c1.35,0.15,2.88,0.79,3.77,1.27c0.8,0.43,2.54,1.6,3.34,2.17c-0.63-0.76-2.35-2.19-3.16-2.76c-1.74-1.22-3.93-1.54-6.03-1.81
			c-1.92-0.25-3.9-0.52-5.59-1.44c-0.28-0.61-0.58-1.21-0.88-1.74c-0.57-1.01-1.22-2.04-1.95-3.01c0.45,0.16,0.91,0.28,1.36,0.37
			c0.6,0.12,1.35,0.19,1.95,0.16c1.36-0.06,2.29,0.05,3.64,0.04c1.36-0.02,2.95,0.43,3.9,0.8c0.85,0.33,2.72,1.28,3.58,1.74
			c-0.72-0.68-2.6-1.88-3.48-2.35c-1.87-0.99-4.09-1.04-6.21-1.06c-1.86-0.01-3.8-0.02-5.53-0.66c-1.52-1.78-3.35-3.22-5.5-3.66
			l-0.71-0.11c1.17,0.2,2.19,1.09,3.04,2c0.74,0.8,1.4,1.66,2,2.54c-0.02,0.1-0.03,0.2-0.05,0.29c-0.48,2.07-1.86,3.79-3.19,5.44
			c-1.33,1.65-2.69,3.4-3.1,5.48c-0.19,0.97-0.45,3.19-0.37,4.18c0.18-0.96,0.63-3.01,0.91-3.87c0.31-0.97,0.98-2.49,1.84-3.53
			c0.87-1.04,1.37-1.83,2.27-2.85c0.4-0.46,0.82-1.08,1.11-1.62c0.49-0.92,0.91-2,0.91-3.03c1.56,2.42,2.7,5.07,3.71,7.75
			c-0.3,1.96-1.38,3.72-2.42,5.42c-1.11,1.81-2.24,3.71-2.38,5.83c-0.07,0.99-0.04,3.22,0.16,4.19c0.06-0.97,0.25-3.06,0.42-3.96
			c0.18-1,0.65-2.59,1.38-3.74c0.73-1.14,1.13-1.99,1.89-3.11c0.34-0.5,0.68-1.18,0.89-1.75c0.21-0.54,0.39-1.14,0.49-1.73
			c0.22,0.6,0.43,1.2,0.65,1.8c0.8,2.25,1.64,4.54,2.69,6.73c-0.11,0.81-0.31,1.62-0.5,2.41c-0.4,1.65-0.79,3.37-0.38,5.02
			c0.19,0.77,0.76,2.46,1.15,3.15c-0.19-0.76-0.56-2.39-0.66-3.11c-0.11-0.81-0.14-2.13,0.14-3.18c0.27-1.05,0.37-1.79,0.68-2.83
			c0.04-0.13,0.07-0.26,0.1-0.4c1.09,2.12,2.41,4.12,4.11,5.87c1.73,1.78,5.92,5.54,8.01,6.88c-1.71-1.75-5.31-5.6-6.73-7.38
			C121.48,73.13,120.72,72.06,119.97,70.88z"/>
	</g>
</g>
<g>
	<g>
		<path class="st2" d="M89.08,43.14c-5.79-1.16-16.42,0.64-21.15,4.18c-3.56,2.67-5.68,6.42-6.76,10.18
			c-2.21,7.65-0.56,15.38,1.45,22.74c2.01,7.36,4.38,14.8,3.58,22.53c-0.14,1.39-0.39,2.79-0.64,4.18
			c7.25-6.03,15.48-11.2,22.75-17.21s13.7-13.17,15.93-21.22c0.92-3.33,1.09-6.73,0.72-10.03c-0.59-5.16-2.68-10.32-7.28-13.58
			C95.38,43.28,92.12,42.16,89.08,43.14"/>
	</g>
	<g>
		<path class="st3" d="M95.04,61.78c-0.88-2.83-3.03-5.05-5.12-7.14c-2.09-2.09-4.27-4.28-5.24-7.07c-0.1-0.29-0.18-0.6-0.22-0.9
			c0.62-1.23,1.44-2.41,2.59-3l-0.8,0.39c-1.86,1.04-3.26,2.73-4.32,4.71c-1.7,1.19-4,1.65-6.22,2.08
			c-2.32,0.45-4.73,0.96-6.39,2.32c-0.77,0.63-2.36,2.2-2.88,3.01c0.76-0.63,2.44-1.94,3.23-2.44c0.89-0.56,2.47-1.32,3.96-1.59
			c1.49-0.27,2.47-0.56,3.98-0.79c0.68-0.1,1.47-0.33,2.08-0.57c0.56-0.22,1.13-0.49,1.63-0.81c-0.88,1.95-1.48,4.08-1.9,6.09
			c-0.18,0.85-0.33,1.78-0.44,2.73c-0.05,0.04-0.1,0.08-0.15,0.12c-1.72,1.31-4.13,1.78-6.45,2.23c-2.32,0.45-4.73,0.96-6.39,2.32
			c-0.77,0.63-2.36,2.2-2.88,3.01c0.76-0.63,2.44-1.94,3.23-2.44c0.89-0.56,2.47-1.32,3.96-1.59c1.49-0.27,2.47-0.56,3.98-0.79
			c0.68-0.1,1.47-0.33,2.08-0.57c0.94-0.37,1.9-0.87,2.53-1.54c-0.08,0.82-0.13,1.63-0.13,2.36c0.01,2.5-0.14,4.53-0.27,6.68
			c-1.21,0.93-2.68,1.67-4.11,2.39c-2.12,1.05-4.3,2.18-5.54,3.93c-0.58,0.82-1.69,2.75-1.97,3.67c0.56-0.81,1.84-2.52,2.47-3.21
			c0.71-0.78,2.03-1.93,3.39-2.58c1.37-0.65,2.23-1.2,3.62-1.82c0.63-0.28,1.33-0.71,1.85-1.1c0.07-0.06,0.15-0.12,0.22-0.17
			c-0.05,0.95-0.1,1.95-0.13,3.03c-0.09,4.02-1.48,8.89-2.61,11.82c-1.01,2.61-3.82,8.46-5.18,11.15c1.96-2.34,5.49-8.3,6.87-11.03
			c0.82-1.64,1.44-3.34,1.92-5.07c0,0,0,0.01,0,0.01c0.49,1.51,0.66,2.6,1.1,4.12c0.44,1.53,0.45,3.47,0.32,4.65
			c-0.11,1.06-0.59,3.47-0.84,4.59c0.54-1.02,1.31-3.53,1.56-4.66c0.53-2.43-0.1-4.94-0.76-7.34c-0.33-1.2-0.66-2.42-0.85-3.65
			c0.35-1.71,0.58-3.44,0.73-5.18c0.01,0,0.01-0.01,0.02-0.02l-0.02,0.01c0.09-1,0.16-2,0.22-3c0.12,0.36,0.26,0.71,0.42,1.05
			c0.29,0.65,0.73,1.41,1.17,1.98c0.97,1.26,1.5,2.22,2.43,3.5c0.93,1.29,1.59,3.11,1.88,4.27c0.26,1.03,0.62,3.46,0.77,4.6
			c0.16-1.15,0.04-3.76-0.11-4.91c-0.32-2.46-1.77-4.61-3.2-6.65c-1.36-1.95-2.77-3.97-3.24-6.29c0.01-0.25,0.02-0.5,0.03-0.76
			c0.01-0.37,0.03-0.73,0.04-1.1c0.02-0.05,0.04-0.1,0.07-0.15l-0.07,0.1c0.09-2.23,0.2-4.49,0.45-6.73
			c0.36,1.09,0.96,2.14,1.59,3.07c0.53,0.77,1.26,1.66,1.95,2.29c1.54,1.4,2.44,2.52,3.93,3.97s2.76,3.65,3.39,5.08
			c0.56,1.28,1.59,4.33,2.03,5.76c-0.05-1.52-0.8-4.86-1.25-6.31c-0.97-3.1-3.33-5.55-5.63-7.85c-2.3-2.3-4.69-4.7-5.76-7.77
			c-0.01-0.02-0.01-0.05-0.02-0.08c0.44-3.03,1.17-6.01,2.48-8.86c-0.02,1.61,0.82,3.28,1.75,4.64c0.48,0.7,1.15,1.51,1.78,2.08
			c1.4,1.28,2.22,2.3,3.58,3.61c1.36,1.32,2.51,3.32,3.09,4.62c0.51,1.16,1.45,3.94,1.84,5.24C96.14,66.15,95.45,63.1,95.04,61.78z"
			/>
	</g>
</g>
<g>
	<g>
		<path class="st4" d="M103.01,41.28c-3.19-2.81-6.79-9.68-6.82-13.93c-0.03-3.2,1.2-6.05,2.88-8.31c3.42-4.6,8.56-7.02,13.66-9.08
			s10.39-3.94,14.46-7.77c0.74-0.69,1.43-1.44,2.12-2.19c-0.29,6.78,0.34,13.75,0.06,20.53s-1.57,13.59-5.21,18.37
			c-1.5,1.98-3.38,3.56-5.43,4.78c-3.21,1.91-7.08,2.96-10.95,1.75C105.84,44.84,103.78,43.46,103.01,41.28"/>
	</g>
	<g>
		<path class="st3" d="M119.16,18.97c0.05-0.24,0.09-0.49,0.12-0.72c0.05-0.42,0.06-0.94,0.01-1.36c-0.11-0.94-0.09-1.59-0.17-2.53
			c-0.08-0.94,0.14-2.07,0.34-2.75c0.18-0.61,0.74-1.96,1.01-2.58c-0.43,0.53-1.17,1.91-1.44,2.54c-0.59,1.35-0.5,2.89-0.4,4.37
			c0.09,1.31,0.19,2.66-0.17,3.91c-0.93,1.11-1.97,2.2-3.02,3.04c-0.38,0.3-0.72,0.59-1.06,0.87c0.01-0.18,0.01-0.37,0.01-0.55
			c-0.01-0.51-0.08-1.12-0.2-1.61c-0.28-1.09-0.35-1.86-0.6-2.96c-0.25-1.1-0.17-2.47-0.03-3.3c0.12-0.74,0.56-2.43,0.79-3.2
			c-0.43,0.7-1.08,2.44-1.3,3.23c-0.48,1.69-0.14,3.5,0.22,5.22c0.25,1.22,0.51,2.48,0.49,3.72c-1.41,1.2-2.62,2.31-4.29,3.57
			c-0.4,0.3-0.81,0.66-1.22,1.04c0.1-0.55,0.13-1.12,0.11-1.66c-0.02-0.54-0.1-1.2-0.24-1.72c-0.31-1.16-0.4-1.99-0.68-3.16
			c-0.28-1.17-0.21-2.64-0.07-3.53c0.12-0.8,0.57-2.6,0.8-3.43c-0.45,0.75-1.12,2.62-1.35,3.46c-0.49,1.81-0.1,3.74,0.3,5.57
			c0.37,1.67,0.74,3.41,0.48,5.09c-0.42,0.42-0.83,0.85-1.19,1.26c-0.67,0.78-1.34,1.63-1.93,2.53c0-0.42-0.04-0.84-0.1-1.24
			c-0.08-0.53-0.25-1.18-0.45-1.68c-0.45-1.11-0.65-1.92-1.07-3.05c-0.42-1.13-0.53-2.59-0.51-3.49c0.02-0.81,0.25-2.65,0.37-3.51
			c-0.35,0.8-0.79,2.74-0.91,3.6c-0.27,1.86,0.36,3.72,0.99,5.49c0.55,1.56,1.12,3.17,1.11,4.81c-1.03,1.8-1.67,3.76-1.4,5.68
			l0.12,0.62c-0.19-1.04,0.25-2.16,0.76-3.13c0.45-0.86,0.96-1.67,1.52-2.43c0.09-0.02,0.17-0.03,0.26-0.04
			c1.87-0.23,3.72,0.41,5.5,1.02c1.78,0.61,3.65,1.22,5.5,0.93c0.87-0.13,2.8-0.59,3.6-0.95c-0.85,0.13-2.7,0.38-3.5,0.41
			c-0.9,0.03-2.37-0.07-3.5-0.47c-1.13-0.41-1.94-0.59-3.06-1.04c-0.5-0.2-1.15-0.36-1.68-0.43c-0.92-0.13-1.94-0.16-2.8,0.15
			c1.55-2.03,3.42-3.78,5.35-5.42c1.72-0.33,3.51,0.03,5.24,0.39c1.84,0.38,3.77,0.75,5.58,0.24c0.84-0.24,2.7-0.94,3.45-1.39
			c-0.83,0.24-2.63,0.71-3.43,0.84c-0.89,0.15-2.36,0.23-3.53-0.03c-1.17-0.26-2-0.35-3.16-0.64c-0.52-0.13-1.18-0.21-1.72-0.22
			c-0.52-0.01-1.06,0.02-1.59,0.11c0.44-0.36,0.87-0.72,1.31-1.08c1.63-1.35,3.29-2.73,4.8-4.26c0.71-0.15,1.44-0.23,2.16-0.31
			c1.49-0.16,3.05-0.35,4.3-1.19c0.58-0.39,1.82-1.37,2.28-1.91c-0.57,0.39-1.83,1.19-2.4,1.48c-0.64,0.33-1.74,0.76-2.69,0.84
			c-0.96,0.09-1.61,0.23-2.56,0.29c-0.12,0.01-0.24,0.02-0.36,0.04c1.44-1.55,2.71-3.24,3.66-5.19c0.97-1.98,2.84-6.6,3.33-8.74
			c-0.95,1.95-3.07,6.11-4.13,7.83C120.58,17.03,119.92,17.99,119.16,18.97z"/>
	</g>
</g>
<g>
	<g>
		<path class="st2" d="M92.17,43.71c3.21-3.98,6.1-12.84,5.28-17.89c-0.61-3.8-2.65-6.93-5.09-9.27c-4.98-4.76-11.57-6.6-18.02-8.01
			c-6.45-1.41-13.11-2.58-18.71-6.29c-1.01-0.67-1.98-1.42-2.95-2.17c1.71,7.98,2.37,16.36,4.07,24.35
			c1.7,7.98,4.6,15.79,9.88,20.73c2.18,2.04,4.72,3.54,7.4,4.57c4.19,1.62,8.99,2.08,13.33-0.13
			C89.53,48.49,91.69,46.44,92.17,43.71"/>
	</g>
	<g>
		<path class="st3" d="M68.52,20.52c-0.11-0.28-0.21-0.56-0.29-0.83c-0.14-0.49-0.26-1.11-0.29-1.62c-0.06-1.13-0.22-1.9-0.31-3.03
			c-0.09-1.13-0.58-2.43-0.96-3.19c-0.34-0.68-1.27-2.17-1.72-2.85c0.62,0.55,1.77,2.03,2.22,2.72c0.97,1.49,1.18,3.33,1.35,5.09
			c0.15,1.57,0.31,3.19,0.99,4.6c1.33,1.13,2.78,2.21,4.2,3c0.51,0.28,0.98,0.55,1.43,0.82c-0.05-0.22-0.09-0.44-0.12-0.65
			c-0.09-0.6-0.13-1.35-0.08-1.95c0.11-1.35,0.04-2.28,0.12-3.63c0.07-1.35-0.3-2.96-0.63-3.92c-0.3-0.86-1.16-2.76-1.58-3.64
			c0.65,0.74,1.77,2.67,2.2,3.56c0.91,1.91,0.87,4.12,0.79,6.23c-0.05,1.5-0.1,3.05,0.18,4.51c1.91,1.14,3.57,2.21,5.81,3.37
			c0.53,0.27,1.09,0.62,1.66,0.98c-0.23-0.63-0.38-1.31-0.47-1.95c-0.09-0.64-0.12-1.44-0.06-2.09c0.14-1.44,0.08-2.44,0.17-3.88
			c0.09-1.44-0.28-3.17-0.63-4.2c-0.31-0.92-1.2-2.97-1.64-3.91c0.68,0.8,1.86,2.88,2.3,3.83c0.95,2.05,0.88,4.41,0.77,6.67
			c-0.1,2.06-0.19,4.19,0.46,6.13c0.59,0.41,1.16,0.84,1.66,1.26c0.95,0.78,1.91,1.66,2.79,2.61c-0.08-0.5-0.12-1.01-0.13-1.5
			c-0.01-0.65,0.06-1.45,0.2-2.08c0.31-1.41,0.38-2.41,0.65-3.83c0.27-1.42,0.11-3.18-0.1-4.24c-0.19-0.95-0.83-3.1-1.15-4.08
			c0.58,0.88,1.49,3.09,1.81,4.09c0.69,2.15,0.33,4.49-0.06,6.71c-0.34,1.96-0.69,3.99-0.35,5.92c1.58,1.93,2.74,4.12,2.81,6.46
			l-0.02,0.77c0.01-1.27-0.73-2.51-1.53-3.56c-0.7-0.93-1.47-1.78-2.29-2.58c-0.11,0-0.21,0-0.32,0c-2.26,0.11-4.32,1.24-6.31,2.32
			c-1.98,1.08-4.08,2.18-6.34,2.22c-1.05,0.02-3.43-0.13-4.45-0.4c1.04-0.01,3.27-0.1,4.24-0.23c1.08-0.14,2.79-0.55,4.05-1.27
			c1.26-0.71,2.18-1.1,3.42-1.85c0.56-0.34,1.29-0.65,1.91-0.85c1.06-0.34,2.27-0.58,3.35-0.39c-2.24-2.09-4.81-3.79-7.43-5.35
			c-2.11-0.05-4.16,0.74-6.14,1.52c-2.1,0.83-4.32,1.65-6.56,1.4c-1.05-0.11-3.39-0.56-4.37-0.95c1.03,0.12,3.26,0.31,4.23,0.31
			c1.08-0.01,2.84-0.2,4.18-0.75c1.34-0.55,2.3-0.81,3.62-1.4c0.59-0.26,1.36-0.49,2-0.61c0.61-0.12,1.26-0.19,1.91-0.19
			c-0.59-0.34-1.18-0.68-1.77-1.02c-2.21-1.27-4.45-2.58-6.55-4.09c-0.87-0.03-1.75,0.02-2.62,0.07c-1.8,0.11-3.69,0.19-5.34-0.54
			c-0.77-0.34-2.44-1.26-3.09-1.8c0.76,0.34,2.4,1.04,3.14,1.27c0.83,0.26,2.21,0.55,3.36,0.46c1.15-0.09,1.95-0.05,3.1-0.18
			c0.14-0.01,0.29-0.02,0.44-0.03c-2.01-1.54-3.86-3.3-5.38-5.41c-1.54-2.15-4.7-7.25-5.7-9.69c1.51,2.13,4.87,6.63,6.47,8.45
			C66.44,18.5,67.42,19.51,68.52,20.52z"/>
	</g>
</g>
<g>
	<g>
		<path class="st2" d="M94.71,35.44c1.48-3.31,6.79-8.07,10.97-9.26c3.15-0.9,6.47-0.7,9.38,0.02c5.93,1.47,10.42,4.91,14.53,8.41
			c4.11,3.5,8.12,7.21,13.56,9.41c0.98,0.4,2,0.74,3.02,1.09c-6.81,1.63-13.44,4.03-20.25,5.67c-6.81,1.63-14.05,2.47-20.26,0.88
			c-2.57-0.66-4.89-1.72-6.93-3.02c-3.2-2.04-5.81-4.84-6.19-8.25C92.35,38.67,92.88,36.65,94.71,35.44"/>
	</g>
	<g>
		<path class="st3" d="M129.18,44.29c-2.56-0.32-6.64-1.27-9.64-2.94c-0.7-0.39-1.36-0.74-2-1.07c0.58-0.11,1.25-0.3,1.77-0.54
			c1.24-0.54,2.15-0.79,3.41-1.29c1.26-0.51,2.91-0.68,3.93-0.68c0.91,0,3,0.2,3.97,0.32c-0.92-0.37-3.11-0.81-4.09-0.92
			c-2.11-0.24-4.19,0.51-6.17,1.28c-1.29,0.5-2.62,1-3.97,1.25c-1.62-0.82-3.16-1.57-4.99-2.66c-0.75-0.45-1.64-0.88-2.54-1.25
			c0.34-0.06,0.67-0.14,0.98-0.24c0.58-0.17,1.28-0.45,1.81-0.75c1.18-0.67,2.05-1.01,3.25-1.65c1.2-0.64,2.82-0.98,3.83-1.09
			c0.91-0.1,3-0.12,3.98-0.11c-0.95-0.27-3.18-0.47-4.17-0.48c-2.12-0.02-4.11,0.96-6,1.92c-1.57,0.81-3.2,1.63-4.93,1.91
			c-0.26-0.09-0.51-0.18-0.76-0.26c-1.36-0.43-2.83-0.79-4.29-0.96c0.44-0.24,0.93-0.56,1.29-0.88c0.86-0.76,1.54-1.19,2.42-1.92
			c0.89-0.73,2.18-1.29,3-1.55c0.74-0.23,2.48-0.61,3.29-0.76c-0.84-0.07-2.72,0.14-3.54,0.3c-1.77,0.34-3.25,1.49-4.66,2.61
			c-0.97,0.77-1.96,1.56-3.06,2.11c-2.09-0.06-4.11,0.35-5.72,1.62l-0.57,0.51c0.95-0.82,2.31-0.94,3.56-0.89
			c0.76,0.03,1.51,0.12,2.25,0.24c1.48,1.49,2.21,3.56,2.9,5.55c0.7,2,1.47,4.08,3.02,5.53c0.72,0.68,2.47,2.07,3.35,2.53
			c-0.71-0.66-2.22-2.13-2.81-2.82c-0.66-0.78-1.6-2.14-2.02-3.43c-0.43-1.29-0.83-2.13-1.22-3.43c-0.17-0.58-0.49-1.27-0.79-1.79
			c-0.4-0.7-0.91-1.41-1.52-1.95c2.54,0.53,4.99,1.52,7.37,2.67c0.91,1.15,1.59,2.52,2.23,3.86c0.93,1.91,1.93,3.88,3.64,5.14
			c0.8,0.59,2.7,1.77,3.62,2.12c-0.79-0.58-2.45-1.86-3.11-2.48c-0.74-0.69-1.83-1.94-2.41-3.17c-0.57-1.23-1.07-2.02-1.61-3.27
			c-0.2-0.46-0.5-0.97-0.8-1.42c0.98,0.5,1.95,1.02,2.91,1.54c4.73,2.54,9.71,5.1,15.08,5.15c2.5,0.02,8.15-0.38,10.56-1.03
			C136.78,44.74,131.47,44.58,129.18,44.29z"/>
	</g>
</g>
<g>
	<g>
		<path class="st4" d="M89.48,38.61c-1.94-1.99-7.01-4-10.33-3.75c-2.5,0.19-4.83,1.21-6.73,2.5c-3.87,2.62-6.19,6.28-8.21,9.88
			c-2.02,3.6-3.93,7.32-7.25,10.35c-0.6,0.55-1.24,1.06-1.88,1.58c5.32-0.63,10.72-0.66,16.04-1.29s10.75-1.94,14.78-4.73
			c1.67-1.15,3.06-2.53,4.18-4.01c1.76-2.31,2.89-5.01,2.26-7.57C92.02,40.31,91.11,38.99,89.48,38.61"/>
	</g>
	<g>
		<path class="st3" d="M67.06,54.09c1.75-0.9,4.43-2.67,6.14-4.66c0.4-0.47,0.78-0.89,1.15-1.29c-0.44,0.07-0.98,0.11-1.41,0.08
			c-1.04-0.06-1.75,0-2.79-0.03c-1.04-0.03-2.27,0.28-3,0.55c-0.65,0.24-2.1,0.94-2.77,1.28c0.56-0.51,2.02-1.4,2.7-1.75
			c1.45-0.73,3.14-0.74,4.77-0.72c1.06,0.02,2.14,0.03,3.18-0.16c0.95-1.01,1.85-1.96,2.88-3.23c0.42-0.52,0.95-1.07,1.49-1.57
			c-0.26,0.04-0.52,0.07-0.77,0.09c-0.47,0.03-1.04,0.01-1.5-0.06c-1.02-0.17-1.74-0.18-2.77-0.32c-1.03-0.14-2.28,0.04-3.04,0.23
			c-0.68,0.17-2.19,0.71-2.89,0.98c0.61-0.45,2.16-1.18,2.87-1.45c1.52-0.58,3.21-0.4,4.82-0.21c1.34,0.16,2.73,0.32,4.05,0.07
			c0.16-0.13,0.32-0.26,0.48-0.39c0.86-0.67,1.82-1.31,2.83-1.82c-0.38-0.06-0.81-0.16-1.16-0.29c-0.82-0.32-1.42-0.44-2.25-0.74
			c-0.83-0.29-1.9-0.35-2.56-0.32c-0.59,0.03-1.94,0.22-2.56,0.32c0.58-0.27,1.99-0.62,2.63-0.72c1.36-0.22,2.73,0.21,4.04,0.64
			c0.9,0.3,1.82,0.6,2.76,0.71c1.48-0.6,3.04-0.84,4.53-0.35l0.54,0.21c-0.9-0.33-1.91-0.06-2.79,0.31
			c-0.54,0.22-1.05,0.48-1.56,0.77c-0.67,1.47-0.64,3.14-0.62,4.75c0.03,1.62,0.03,3.32-0.7,4.77c-0.34,0.68-1.23,2.14-1.74,2.7
			c0.34-0.67,1.03-2.12,1.27-2.77c0.27-0.73,0.58-1.96,0.54-3c-0.03-1.04,0.03-1.75-0.03-2.79c-0.03-0.47,0.01-1.04,0.09-1.5
			c0.1-0.61,0.28-1.25,0.57-1.8c-1.68,1.05-3.18,2.41-4.59,3.87c-0.35,1.07-0.47,2.23-0.58,3.36c-0.16,1.62-0.36,3.3-1.25,4.66
			c-0.42,0.63-1.47,1.98-2.04,2.48c0.41-0.62,1.27-1.98,1.58-2.6c0.35-0.7,0.8-1.88,0.89-2.92c0.09-1.03,0.23-1.74,0.29-2.77
			c0.02-0.38,0.1-0.83,0.2-1.23c-0.57,0.62-1.13,1.25-1.69,1.88c-2.73,3.07-5.63,6.23-9.47,7.69c-1.79,0.68-5.95,1.88-7.86,2.06
			C61.72,56.42,65.49,54.9,67.06,54.09z"/>
	</g>
</g>
</svg>
