<svg id="Layer_1" data-name="Layer 1" xmlns="http://www.w3.org/2000/svg" viewBox="0 0 131.85 82.79"><defs><style>.cls-1{fill:#6b9660;}.cls-2{fill:#a7cc60;}</style></defs><path class="cls-1" d="M9.3,17.11c-34,32.23,36,65.42,36,65.42l3.22-1.87S54.07,3.37,9.3,17.11Z"/><path class="cls-2" d="M30.26,51.05l6.36-19.36a.76.76,0,0,0-1.45-.48l-6,18.29L24.7,42.13l6.2-17.84a.76.76,0,0,0-.47-1,.75.75,0,0,0-1,.47L23.68,40.44,20.26,34.8s0,0,0-.06L25,20.3a.75.75,0,0,0-.49-.95.76.76,0,0,0-1,.49L19.23,33.1l-3.62-6a.9.9,0,0,0,.12-.24l2.46-8.48a.76.76,0,0,0-.52-.95.77.77,0,0,0-.94.52l-2.16,7.44-4.08-6.73c-.36-.6-.9-.28-.56.33l3.77,6.7L6.41,24a.77.77,0,0,0-.35,1.49l8.6,2h0l3.4,6L4.7,30.81a.76.76,0,0,0-.9.6.75.75,0,0,0,.59.89l14.7,3,3.22,5.73L5.21,38a.76.76,0,0,0-.28,1.5l18.35,3.32,4.21,7.51L8.87,46.57a.78.78,0,0,0-.9.6.76.76,0,0,0,.6.89l19.91,4,3.6,6.41L14.76,55.16a.76.76,0,0,0-.28,1.5l18.57,3.51,3.7,6.58L24.26,64.24a.75.75,0,0,0-.89.59.76.76,0,0,0,.59.9L37.73,68.5l7.55,13.43c.15.26.4.4.56.31l2-1.2c.16-.09.16-.38,0-.64l-7.9-13,4.43-13.59A.76.76,0,1,0,43,53.3L39,65.65,35.05,59.2,41.2,41.06a.77.77,0,0,0-.48-1,.76.76,0,0,0-1,.48L34,57.5l-3.83-6.32S30.24,51.1,30.26,51.05Z"/><path class="cls-1" d="M66.27,0c-45.58,10.76-1.76,74.67-1.76,74.67h3.72S111.87,10.64,66.27,0Z"/><path class="cls-2" d="M67.3,39.87,82.54,26.34a.77.77,0,0,0,.06-1.08.76.76,0,0,0-1.07-.06L67.14,38,67,29.37l14.33-12.3A.77.77,0,0,0,81.41,16a.78.78,0,0,0-1.08-.08L67,27.39l-.11-6.59.06,0L78.18,10.63a.77.77,0,0,0,.06-1.08.76.76,0,0,0-1.07-.05L66.8,18.81l-.12-7a.78.78,0,0,0,.22-.15l6.4-6.09a.77.77,0,0,0,0-1.08.76.76,0,0,0-1.07,0L66.64,9.83,66.5,2c0-.7-.64-.7-.65,0l-.12,7.69L60.3,4.5a.76.76,0,0,0-1,1.11l6.41,6.07s0,0,0,0l-.11,6.93L55.39,9.53a.75.75,0,0,0-1.07.06.76.76,0,0,0,.06,1.07l11.18,10-.1,6.58L52.24,16a.76.76,0,0,0-1,1.16l14.18,12.1-.13,8.61L51.07,25.24a.75.75,0,0,0-1.07.07.76.76,0,0,0,.06,1.07L65.27,39.82l-.11,7.36L51.84,35.63a.76.76,0,1,0-1,1.15L65.13,49.17,65,56.7l-9.53-8.45a.75.75,0,0,0-1.07.07.76.76,0,0,0,.06,1.07L65,58.71l-.24,15.4c0,.31.15.56.33.56h2.38c.19,0,.33-.26.33-.56l-.27-15.24,10.66-9.51a.75.75,0,0,0,.07-1.07.76.76,0,0,0-1.08-.07l-9.69,8.65-.14-7.54L81.78,36.74a.76.76,0,0,0,.08-1.07.77.77,0,0,0-1.08-.08L67.31,47.34,67.18,40A.83.83,0,0,0,67.3,39.87Z"/><path class="cls-1" d="M119.55,12.64C73.21,5.87,90.43,81.42,90.43,81.42l3.46,1.37S158,39.32,119.55,12.64Z"/><path class="cls-2" d="M105.84,50.1l19.15-7a.76.76,0,0,0,.45-1,.77.77,0,0,0-1-.46l-18.08,6.59,3-8.07,17.86-6.16a.75.75,0,0,0,.47-1,.77.77,0,0,0-1-.48l-16.66,5.76,2.31-6.17.07,0,14.23-5.27a.76.76,0,0,0-.53-1.43l-13.07,4.85,2.46-6.54a.85.85,0,0,0,.26-.05L124,20.43a.76.76,0,0,0-.57-1.41l-7.18,2.9L119,14.55c.25-.65-.34-.88-.6-.24l-2.94,7.11-3.16-6.79a.77.77,0,0,0-1-.37.78.78,0,0,0-.37,1l3.73,8s0,0,0,0l-2.65,6.41L105.93,17.5a.75.75,0,0,0-1-.34.76.76,0,0,0-.34,1l6.72,13.41-2.51,6.08-8.14-15.36a.76.76,0,1,0-1.35.71L108,39.5l-3.29,8L96.13,30.52a.76.76,0,0,0-1-.33.75.75,0,0,0-.34,1L104,49.3l-2.81,6.8L93,40.47a.75.75,0,0,0-1-.33.78.78,0,0,0-.33,1l8.73,16.77-2.88,7L91.77,53.54a.76.76,0,0,0-1-.33.75.75,0,0,0-.34,1l6.34,12.53L90.87,81c-.12.28-.08.57.1.63l2.21.88c.17.06.4-.12.51-.4L99,67.84l13.42-4.92a.76.76,0,1,0-.52-1.42L99.75,66l2.65-7.06,18.06-6.38a.76.76,0,0,0-.51-1.44L103.1,57l2.59-6.92A.39.39,0,0,0,105.84,50.1Z"/></svg>