<svg id="Layer_1" data-name="Layer 1" xmlns="http://www.w3.org/2000/svg" viewBox="0 0 267.54 98.5"><defs><style>.cls-1{fill:#307f4c;}.cls-2{fill:#356654;}.cls-3{fill:#48a075;}</style></defs><path class="cls-1" d="M190.57,10.81C194,6.14,203.85.51,210.77.05a29.45,29.45,0,0,1,14.6,3.17c8.76,4.27,14.6,11.14,19.83,18s10.25,13.94,18,19.19c1.4,1,2.87,1.83,4.35,2.71-11.16.26-22.28,1.79-33.44,2.06s-22.72-.85-31.86-5.41a38.17,38.17,0,0,1-9.79-7c-4.3-4.25-7.43-9.48-6.89-14.93a8.11,8.11,0,0,1,5-7" transform="translate(0 0)"/><path class="cls-2" d="M107.3,21.08C100,17.79,85.36,17,78,20.2A26.06,26.06,0,0,0,66,31.65c-5.25,9.46-5.4,20.2-5,30.57s1.32,20.93-2.08,30.93C58.3,95,57.55,96.73,56.8,98.5c11.43-5.79,23.9-10.14,35.35-15.91s22.15-13.3,27.54-23.29a35.7,35.7,0,0,0,4-13.07c.78-7-.43-14.48-5.52-20.2-2.55-2.86-6.53-5.33-10.86-5" transform="translate(0 0)"/><path class="cls-3" d="M81.52,66.26c-.38.28-.77.54-1.15.77A12.09,12.09,0,0,1,78,68.11c-1.7.54-2.8,1.09-4.49,1.68a15.32,15.32,0,0,0-4.46,2.73c-.9.79-2.79,2.8-3.64,3.76a28.36,28.36,0,0,1,3.24-4.46c1.87-2.07,4.58-3.13,7.2-4.09a21.26,21.26,0,0,0,6.59-3.35,41.53,41.53,0,0,0,2.87-7.57c.22-.88.45-1.7.67-2.5-.31.16-.62.31-.94.44a14.22,14.22,0,0,1-2.93.91c-2.09.37-3.48.84-5.56,1.27a17.86,17.86,0,0,0-5.7,2.53c-1.19.79-3.74,2.87-4.9,3.86a34.54,34.54,0,0,1,4.53-4.76c2.54-2.15,5.91-3,9.15-3.7a32,32,0,0,0,6.78-2.06c1-3.36,1.93-6.32,2.79-10.17.21-.92.51-1.91.83-2.91a14.79,14.79,0,0,1-2.77,1.48,14.43,14.43,0,0,1-3.15.93c-2.24.37-3.73.86-6,1.29a19.44,19.44,0,0,0-6.13,2.63c-1.27.83-4,3-5.28,4.06a36.39,36.39,0,0,1,4.91-5C74.41,42.82,78,42,81.5,41.26c3.17-.68,6.44-1.39,9.13-3.15.39-1.06.81-2.1,1.24-3a45.38,45.38,0,0,1,2.85-5.29,16.39,16.39,0,0,1-2.22.79,14.93,14.93,0,0,1-3.24.54c-2.27.09-3.81.39-6.08.54a19.3,19.3,0,0,0-6.4,1.85c-1.37.67-4.37,2.49-5.74,3.38a36.81,36.81,0,0,1,5.48-4.38c3-1.91,6.69-2.29,10.22-2.59,3.12-.27,6.34-.54,9.14-1.84,2.31-3.17,5.17-5.81,8.69-6.84l1.17-.28c-1.93.49-3.52,2.11-4.8,3.75a35.66,35.66,0,0,0-3,4.51c0,.16.08.33.13.48,1.07,3.39,3.6,6.08,6,8.66s4.94,5.32,5.9,8.74A36.27,36.27,0,0,1,111.18,54c-.43-1.57-1.45-4.93-2-6.34A19.53,19.53,0,0,0,105.61,42c-1.59-1.62-2.54-2.87-4.17-4.45A14.91,14.91,0,0,1,99.38,35a11.26,11.26,0,0,1-1.93-4.93,68.11,68.11,0,0,0-5.16,13.43c.77,3.22,2.79,6,4.76,8.71,2.1,2.87,4.23,5.9,4.76,9.41a37.48,37.48,0,0,1,.29,7c-.23-1.62-.83-5.08-1.22-6.55a19.19,19.19,0,0,0-2.81-6c-1.37-1.81-2.15-3.17-3.57-4.94a14.54,14.54,0,0,1-1.72-2.79,15.12,15.12,0,0,1-1-2.82l-.84,3.09A118.9,118.9,0,0,1,87.3,60.18c.3,1.34.73,2.66,1.16,4,.89,2.69,1.77,5.52,1.3,8.32a29.47,29.47,0,0,1-1.49,5.41c.21-1.28.61-4.06.67-5.28a15.3,15.3,0,0,0-.65-5.29c-.59-1.71-.85-2.94-1.5-4.63-.08-.21-.15-.43-.22-.66A40.46,40.46,0,0,1,80.5,72.35c-2.65,3.2-9.13,10-12.44,12.54,2.62-3.15,8.12-10,10.25-13.21A61.92,61.92,0,0,0,81.52,66.26Z" transform="translate(0 0)"/><path class="cls-3" d="M197.84,8.23a13.41,13.41,0,0,1,7.7.18l0-.13a.67.67,0,0,0,.09.14,25,25,0,0,1,3.16,1.16,27.34,27.34,0,0,0,7.61-.93c3.14-.68,6.42-1.34,9.22-.54a25.45,25.45,0,0,1,5.21,2.22C229.5,10,226.7,9.22,225.43,9a16.6,16.6,0,0,0-5.79.15c-2,.46-3.39.62-5.39,1.15a15.35,15.35,0,0,1-2.9.41h-.26c1.09.58,2.14,1.22,3.13,1.86a36.78,36.78,0,0,1,5.7,4.56l.48.46a32.27,32.27,0,0,0,6.65-.1c3.2-.27,6.53-.5,9.21.66A25.74,25.74,0,0,1,241.14,21c-1.23-.54-3.91-1.63-5.14-2a16.76,16.76,0,0,0-5.76-.61c-2.05.21-3.44.18-5.5.45a15,15,0,0,1-2.92,0h-.09c2.72,2.56,5.14,4.5,8.12,7.34a32.39,32.39,0,0,0,3.78,3,23.39,23.39,0,0,0,5-.06c2.34-.2,4.78-.37,6.74.49a18.18,18.18,0,0,1,3.58,2.1c-.9-.4-2.86-1.19-3.76-1.46a12.36,12.36,0,0,0-4.23-.44c-1.5.15-2.52.13-4,.32a10.38,10.38,0,0,1-1.85,0,54.79,54.79,0,0,0,7.37,4c3.16,1.38,10.69,4,14.22,5.11-3.72-.28-12-2.32-15.55-3.47-6.84-2.22-12.44-6.82-17.66-11.57a14.07,14.07,0,0,1,.78,2.12c.58,2.22,1.21,3.67,1.86,5.87a19.54,19.54,0,0,0,3.22,5.91c1,1.2,3.42,3.76,4.59,4.92a37.47,37.47,0,0,1-5.52-4.45c-2.54-2.54-3.72-6.09-4.79-9.51a31.56,31.56,0,0,0-3.11-7.59q-1.75-1.64-3.58-3.23h0c-1.34-1.17-2.7-2.3-4.12-3.38a14.49,14.49,0,0,1,1,3.5,15.19,15.19,0,0,1,.16,3.3c-.17,2.29-.05,3.87-.16,6.16a19.59,19.59,0,0,0,1.12,6.63c.51,1.45,2,4.67,2.72,6.15a36.5,36.5,0,0,1-3.76-6c-1.57-3.22-1.52-7-1.41-10.54s.19-7.08-1.13-10.28a40,40,0,0,0-7-4,10.94,10.94,0,0,1,2.09,5.32,15.85,15.85,0,0,1,.16,3.3c-.18,2.29-.05,3.87-.16,6.16a19.4,19.4,0,0,0,1.11,6.63c.52,1.45,2,4.67,2.73,6.15a36.92,36.92,0,0,1-3.76-6c-1.57-3.22-1.52-7-1.42-10.55s.22-7.31-1.25-10.58a5.31,5.31,0,0,0-.44-.81c-.36-.14-.71-.28-1.08-.41-1.77-.63-3.76-1.09-5.46-.49Z" transform="translate(0 0)"/><path class="cls-2" d="M160,18.66c4.56-4,16-7.54,23.15-6.43a30.76,30.76,0,0,1,14.26,6.58c8,6.37,12.43,14.73,16.25,22.92s7.33,16.63,14.07,23.78c1.21,1.29,2.53,2.53,3.84,3.76C220,67,208.27,66,196.76,63.78s-23.1-6.05-31.43-12.8a40.17,40.17,0,0,1-8.44-9.44c-3.44-5.33-5.46-11.41-3.67-16.88a8.51,8.51,0,0,1,6.73-6" transform="translate(0 0)"/><path class="cls-1" d="M128.34,19.14c7.32-3.29,21.94-4.13,29.28-.87a26,26,0,0,1,12,11.44c5.25,9.46,5.4,20.2,5,30.57s-1.32,20.94,2.09,30.93c.61,1.81,1.36,3.58,2.11,5.35-11.44-5.78-23.91-10.14-35.36-15.91s-22.14-13.29-27.54-23.29a35.88,35.88,0,0,1-4-13.07c-.79-7,.43-14.48,5.52-20.2,2.54-2.86,6.52-5.32,10.86-4.95" transform="translate(0 0)"/><path class="cls-3" d="M126.08,45.65c.32-4,2.49-7.61,4.62-11s4.36-7,4.8-11a5.89,5.89,0,0,0,0-1.26,8.89,8.89,0,0,0-4.35-3.19l1.17.27a15.5,15.5,0,0,1,7.16,4.92c2.61,1.06,5.8,1,8.87.87s6.56-.16,9.17,1.14a25.91,25.91,0,0,1,4.72,3.12c-1.19-.6-3.82-1.83-5-2.25a16.68,16.68,0,0,0-5.73-.9c-2.06.09-3.44,0-5.51.15a14.14,14.14,0,0,1-2.92-.12,13.2,13.2,0,0,1-2.41-.57A40.43,40.43,0,0,1,145,33.33c.49,1.07,1,2.27,1.41,3.48l.24.12c2.66,1.21,6,1.11,9.22,1s6.55-.16,9.16,1.14a25.65,25.65,0,0,1,4.73,3.12c-1.2-.6-3.82-1.83-5-2.25a16.89,16.89,0,0,0-5.72-.91c-2.06.1-3.45,0-5.52.16a14.17,14.17,0,0,1-2.92-.12,9.4,9.4,0,0,1-3.82-1.28,31.28,31.28,0,0,1,.88,3.09c.75,3.31,1.56,5.95,2.39,8.76a33.61,33.61,0,0,0,6.17,1.92c3.13.75,6.36,1.58,8.53,3.53a25.32,25.32,0,0,1,3.73,4.26c-1-.9-3.19-2.78-4.24-3.5a17,17,0,0,0-5.29-2.4c-2-.45-3.32-.91-5.35-1.31a14.1,14.1,0,0,1-2.78-.89l-.35-.16c.36,1.24.72,2.54,1.09,4a53.32,53.32,0,0,0,7,14.87c2.13,3.16,7.62,10.06,10.25,13.21-3.31-2.51-9.8-9.34-12.45-12.54a37.05,37.05,0,0,1-4.07-6.13h0c-.19,2.15-.09,3.64-.21,5.8a18.2,18.2,0,0,0,1,6.26c.46,1.37,1.83,4.42,2.5,5.82a34.89,34.89,0,0,1-3.48-5.7c-1.45-3-1.36-6.58-1.22-10a45.67,45.67,0,0,0,0-5.1A68.26,68.26,0,0,1,148.38,55l0,0h0c-.43-1.29-.82-2.6-1.2-3.9a14.84,14.84,0,0,1-.23,1.51,14.08,14.08,0,0,1-.95,3c-.9,2-1.31,3.4-2.16,5.38a18.56,18.56,0,0,0-1.2,6.23c0,1.45.23,4.78.38,6.32a35.3,35.3,0,0,1-1.34-6.54c-.32-3.36.95-6.65,2.22-9.78s2.47-6.1,2.39-9.31c-.09-.33-.19-.66-.27-1l-.39-1.45s-.09-.12-.14-.17l.12.11c-.8-2.93-1.63-5.89-2.63-8.79a17.23,17.23,0,0,1-1.18,4.55,18.88,18.88,0,0,1-1.89,3.62c-1.61,2.32-2.47,4.08-4,6.45a24.19,24.19,0,0,0-3,7.76c-.36,1.86-.79,6.21-.94,8.24a46.38,46.38,0,0,1-.25-8.74c.34-4.41,2.73-8.36,5.08-12.11s4.79-7.64,5.27-12v-.11a43.49,43.49,0,0,0-6-11,11.58,11.58,0,0,1-.92,6.69,17.17,17.17,0,0,1-1.72,3.29c-1.46,2.12-2.24,3.72-3.64,5.88a21.64,21.64,0,0,0-2.69,7.06c-.33,1.69-.72,5.65-.86,7.5A42.31,42.31,0,0,1,126.08,45.65Z" transform="translate(0 0)"/><path class="cls-3" d="M166.13,16.24a15,15,0,0,1,7.58,1.67c1.51,0,3.16,0,4.09.1,3.37.32,6.36,2.18,9.19,4s5.79,3.74,9.14,4.16a3.2,3.2,0,0,0,2.28-.37l-.39.29c-2,1.35-4.83.7-7.1-.23a14.55,14.55,0,0,1-2.74-1.49c-1.75-1.25-3.09-1.93-4.88-3.13a18.3,18.3,0,0,0-5.89-2.34c-.59-.13-1.53-.26-2.52-.39a38.13,38.13,0,0,1,8,6.23A40.1,40.1,0,0,1,188,30.91c.4.6.78,1.17,1.17,1.73a25.79,25.79,0,0,0,7.32,3.19c3.06,1,6.23,2,8.25,4.14a25.29,25.29,0,0,1,3.41,4.52c-.92-1-3-3-4-3.8a16.41,16.41,0,0,0-5.09-2.77c-2-.6-3.25-1.16-5.24-1.7a14.47,14.47,0,0,1-2.72-1.1l-.31-.17c1.88,2.56,3.71,4.86,5.8,7.88.28.4.58.79.89,1.18a33.1,33.1,0,0,0,6.06,2.39c3.06,1,6.22,2,8.25,4.14a25.23,25.23,0,0,1,3.4,4.52c-.92-1-3-3-4-3.8a16.59,16.59,0,0,0-5.1-2.77c-2-.6-3.24-1.16-5.24-1.7a15.37,15.37,0,0,1-1.56-.55,60.19,60.19,0,0,0,9.07,8.06c3.09,2.21,10.66,6.75,14.22,8.78-4-1.19-12.44-5.31-16.05-7.39a41.27,41.27,0,0,1-9.64-7.92c.45,1.55.93,2.79,1.41,4.49a18,18,0,0,0,3,5.6c.88,1.15,3.17,3.59,4.26,4.69a35.46,35.46,0,0,1-5.15-4.25c-2.36-2.42-3.43-5.78-4.4-9-.41-1.37-.83-2.76-1.35-4.1-1.66-2-3.22-4.07-4.73-6.15l-.16,0h.14l-1.34-1.86c.07.26.14.53.2.79a14.14,14.14,0,0,1,.38,3.1c0,2.16.22,3.64.27,5.79A18.31,18.31,0,0,0,190.93,53c.57,1.33,2.19,4.26,3,5.6a35.56,35.56,0,0,1-3.94-5.4c-1.69-2.92-1.9-6.44-2.05-9.81s-.3-6.69-1.78-9.61L185,32.19a2.16,2.16,0,0,0-.58-.31l.44.14c-1.34-1.8-2.74-3.56-4.23-5.25a16.11,16.11,0,0,1,.23,3.85,17.21,17.21,0,0,1-.59,3.55c-.7,2.38-.93,4.08-1.56,6.49a20.87,20.87,0,0,0-.33,7.29c.21,1.66,1.05,5.41,1.49,7.15a40.11,40.11,0,0,1-2.62-7.24c-.93-3.77,0-7.73.9-11.51.89-3.62,1.79-7.38,1.15-11a41.14,41.14,0,0,0-8.52-7.1c-1.78-1.08-3.83-2-5.81-1.83Z" transform="translate(0 0)"/><path class="cls-1" d="M71.57,18.66c-4.56-4-16-7.54-23.16-6.43a30.77,30.77,0,0,0-14.25,6.58c-8,6.37-12.44,14.73-16.25,22.92S10.58,58.36,3.84,65.51C2.62,66.8,1.31,68,0,69.27,11.5,67,23.25,66,34.75,63.78S57.86,57.73,66.19,51a40.39,40.39,0,0,0,8.44-9.44c3.44-5.33,5.46-11.41,3.66-16.88a8.5,8.5,0,0,0-6.72-6" transform="translate(0 0)"/><path class="cls-3" d="M25.29,56.17C29,53.91,34.51,49.62,37.9,45c.8-1.08,1.56-2.07,2.3-3a15.42,15.42,0,0,1-3.07.42c-2.27,0-3.82.3-6.09.41a19.43,19.43,0,0,0-6.44,1.71c-1.39.64-4.43,2.39-5.82,3.25a37.25,37.25,0,0,1,5.58-4.26c3-1.85,6.74-2.14,10.28-2.36a38,38,0,0,0,6.91-.88c1.89-2.37,3.71-4.59,5.73-7.52a33.63,33.63,0,0,1,3-3.68c-.55.13-1.11.24-1.66.32a15,15,0,0,1-3.28.12c-2.26-.21-3.82-.11-6.09-.24a19.3,19.3,0,0,0-6.59,1c-1.44.49-4.65,1.91-6.13,2.61a38.15,38.15,0,0,1,6-3.64C35.73,27.73,39.44,27.83,43,28a29,29,0,0,0,8.83-.52c.33-.32.66-.63,1-.92a38.12,38.12,0,0,1,5.86-4.45,12.31,12.31,0,0,1-2.59-.45c-1.84-.55-3.16-.73-5-1.22a16.2,16.2,0,0,0-5.64-.27c-1.28.16-4.19.8-5.54,1.13a31.49,31.49,0,0,1,5.61-2c2.92-.71,6,0,8.91.72a30,30,0,0,0,6.13,1.08,14.34,14.34,0,0,1,9.83-1.53l1.21.38c-2-.58-4.16.18-6,1.13A30.58,30.58,0,0,0,62.26,23c-1.21,3.3-.87,7-.54,10.46S62.33,40.68,61,44a37.56,37.56,0,0,1-3.34,6.18c.63-1.51,1.89-4.79,2.3-6.25a19.61,19.61,0,0,0,.69-6.64c-.25-2.25-.23-3.82-.55-6.07A15.64,15.64,0,0,1,60,27.91a13.39,13.39,0,0,1,1-4,54.28,54.28,0,0,0-9.36,9.2,35.29,35.29,0,0,0-.71,7.42c-.07,3.55-.22,7.26-1.94,10.36a37.18,37.18,0,0,1-4,5.76c.8-1.43,2.43-4.54,3-5.95a19.4,19.4,0,0,0,1.45-6.51c0-2.26.22-3.82.16-6.09a14.88,14.88,0,0,1,.23-2.71c-1.14,1.44-2.25,2.91-3.36,4.37C41,46.89,35.22,54.26,27.09,58.08c-3.79,1.78-12.66,5.1-16.79,5.81C14.05,62.15,22,58.2,25.29,56.17Z" transform="translate(0 0)"/></svg>