<svg id="Layer_1" data-name="Layer 1" xmlns="http://www.w3.org/2000/svg" viewBox="0 0 143.9 102.81"><defs><style>.cls-1{fill:#497c63;}.cls-2{fill:#426f5b;}.cls-3{fill:#5a9b79;}</style></defs><path class="cls-1" d="M64.17,80.4s-32.89-4.7-24.4-64.95C39.77,15.45,84.13,59,64.17,80.4Z"/><path class="cls-1" d="M69,97.64S25.92,73.76,72.57,0C72.57,0,109.13,80.57,69,97.64Z"/><path class="cls-2" d="M72.21,101.28S42,62.43,113.79,12.87C113.79,12.87,115.84,101.33,72.21,101.28Z"/><path class="cls-2" d="M57.68,100.47S80,56.56,0,21.6C0,21.6,14.85,108.83,57.68,100.47Z"/><path class="cls-2" d="M58.61,98.33S65.12,60.78,1.73,61C1.73,61,30.3,117.35,58.61,98.33Z"/><path class="cls-3" d="M63.66,102.81S18.91,103.8,26,51C26,51,71.58,75.86,63.66,102.81Z"/><path class="cls-2" d="M95.74,87.11s-16.67-37.29,48.16-50C143.9,37.12,129.75,100.92,95.74,87.11Z"/><path class="cls-1" d="M84,99.33S67.3,62,132.13,49.34C132.13,49.34,118,113.14,84,99.33Z"/><path class="cls-3" d="M73.57,102.81S44.31,77.05,91.37,23.38C91.37,23.38,106.93,94.62,73.57,102.81Z"/></svg>