<svg id="Layer_1" data-name="Layer 1" xmlns="http://www.w3.org/2000/svg" xmlns:xlink="http://www.w3.org/1999/xlink" viewBox="0 0 335.53 2510.24"><defs><style>.cls-1{fill:none;}.cls-2{clip-path:url(#clip-path);}.cls-3{fill:#cb862a;}.cls-4{fill:#7c433e;}.cls-5{fill:#9b6027;}.cls-6{clip-path:url(#clip-path-2);}.cls-7{fill:#603835;}.cls-8{clip-path:url(#clip-path-3);}.cls-9{clip-path:url(#clip-path-4);}.cls-10{clip-path:url(#clip-path-5);}.cls-11{fill:#307f4c;}.cls-12{fill:#6b9660;}</style><clipPath id="clip-path" transform="translate(133.61)"><rect class="cls-1" width="201.92" height="2510.24"/></clipPath><clipPath id="clip-path-2" transform="translate(133.61)"><path class="cls-1" d="M116.92,261.27H0V223.72H143.19a2,2,0,0,1,1.53,3.2Z"/></clipPath><clipPath id="clip-path-3" transform="translate(133.61)"><path class="cls-1" d="M116.92,870H0V832.44H143.19a2,2,0,0,1,1.53,3.2Z"/></clipPath><clipPath id="clip-path-4" transform="translate(133.61)"><path class="cls-1" d="M116.92,1488.47H0v-37.55H143.19a2,2,0,0,1,1.53,3.19Z"/></clipPath><clipPath id="clip-path-5" transform="translate(133.61)"><path class="cls-1" d="M116.92,2102.6H0v-37.55H143.19a2,2,0,0,1,1.53,3.2Z"/></clipPath></defs><g class="cls-2"><path class="cls-3" d="M0,233.18H114.1V133.72c3.28-27.78,15.76-38.66,15.76-38.66H114.1V79.86H0Z" transform="translate(133.61)"/><path class="cls-4" d="M0,96H136.78s39.54.94,23.5-34.13c-11.61-25.36,1.58-31.4,9.76-32.8A14.64,14.64,0,0,0,179.39,55a15.65,15.65,0,0,0,1.69-.1h0s24.34-1.12,20.42-31.06-35-23.22-35-23.22-27.13,1.88-29.37,26.82S44.83,54.92,44.83,54.92H0Z" transform="translate(133.61)"/><rect class="cls-3" x="133.61" y="260.42" width="114.24" height="408.49"/><path class="cls-5" d="M116.92,261.27H0V223.72H143.19a2,2,0,0,1,1.53,3.2Z" transform="translate(133.61)"/><path class="cls-5" d="M133.61,260.42H249.5a7.92,7.92,0,0,1,7.92,7.92v0a7.92,7.92,0,0,1-7.92,7.92H133.61a0,0,0,0,1,0,0V260.42A0,0,0,0,1,133.61,260.42Z"/><g class="cls-6"><path class="cls-7" d="M-133.61,261.25l277.94,0V240.2A21,21,0,0,0,127,249.34a21.06,21.06,0,0,0-34.74,0,21.06,21.06,0,0,0-34.74,0,21.07,21.07,0,0,0-34.75,0,21.06,21.06,0,0,0-34.74,0c-.32-.47-.69-.91-1.05-1.35a1.71,1.71,0,0,1-.11-.14c-.37-.45-.77-.88-1.19-1.31l-.27-.27c-.42-.42-.86-.82-1.31-1.19l-.19-.16a21.09,21.09,0,0,0-6.84-3.7l-.28-.09c-.59-.18-1.18-.33-1.78-.46l-.35-.07a21.11,21.11,0,0,0-4-.42,21,21,0,0,0-15.85,7.2,18.91,18.91,0,0,0-1.52,1.95,21.08,21.08,0,0,0-17.38-9.15A21.05,21.05,0,0,0-80,247.36a22.29,22.29,0,0,0-1.52,2,21,21,0,0,0-17.37-9.16,21.06,21.06,0,0,0-17.37,9.15,21.06,21.06,0,0,0-17.38-9.15Z" transform="translate(133.61)"/></g><path class="cls-5" d="M133.61,339.2h20.87a54.63,54.63,0,0,1,54.63,54.63V567.5a0,0,0,0,1,0,0H133.61a0,0,0,0,1,0,0V339.2A0,0,0,0,1,133.61,339.2Z"/><path class="cls-7" d="M133.61,349.74h17.54A45.91,45.91,0,0,1,197,395.65V551.91a0,0,0,0,1,0,0H133.61a0,0,0,0,1,0,0V349.74A0,0,0,0,1,133.61,349.74Z"/><path class="cls-3" d="M0,832H114.1V732.57c3.28-27.78,15.76-38.66,15.76-38.66H114.1v-15.2H0Z" transform="translate(133.61)"/><path class="cls-4" d="M0,695.85H136.78s39.54.93,23.5-34.13c-11.61-25.37,1.58-31.41,9.76-32.81a14.64,14.64,0,0,0,9.35,25.91,15.64,15.64,0,0,0,1.69-.11h0s24.34-1.12,20.42-31.05-35-23.22-35-23.22-27.13,1.87-29.37,26.81-92.32,27.46-92.32,27.46H0Z" transform="translate(133.61)"/><rect class="cls-3" x="133.61" y="869.14" width="114.24" height="408.49"/><path class="cls-5" d="M116.92,870H0V832.44H143.19a2,2,0,0,1,1.53,3.2Z" transform="translate(133.61)"/><path class="cls-5" d="M133.61,869.14H249.5a7.92,7.92,0,0,1,7.92,7.92v0A7.92,7.92,0,0,1,249.5,885H133.61a0,0,0,0,1,0,0V869.14A0,0,0,0,1,133.61,869.14Z"/><g class="cls-8"><path class="cls-7" d="M-133.61,870l277.94,0V848.91A21.06,21.06,0,0,0,127,858.06a21.06,21.06,0,0,0-34.74,0,21.06,21.06,0,0,0-34.74,0,21.07,21.07,0,0,0-34.75,0A21.07,21.07,0,0,0-12,858c-.32-.47-.69-.9-1.05-1.34l-.11-.14c-.37-.45-.77-.89-1.19-1.31l-.27-.27c-.42-.42-.86-.82-1.31-1.2l-.19-.15a21.09,21.09,0,0,0-6.84-3.7l-.28-.09c-.59-.18-1.18-.33-1.78-.46l-.35-.07a21.11,21.11,0,0,0-4-.42,21,21,0,0,0-15.85,7.2A18.91,18.91,0,0,0-46.74,858a21,21,0,0,0-17.38-9.15A21,21,0,0,0-80,856.08a20.9,20.9,0,0,0-1.52,2,21,21,0,0,0-17.37-9.16A21.06,21.06,0,0,0-116.23,858a21.06,21.06,0,0,0-17.38-9.15Z" transform="translate(133.61)"/></g><path class="cls-5" d="M133.61,947.92h20.87a54.63,54.63,0,0,1,54.63,54.63v173.68a0,0,0,0,1,0,0H133.61a0,0,0,0,1,0,0V947.92A0,0,0,0,1,133.61,947.92Z"/><path class="cls-7" d="M133.61,958.46h17.54A45.91,45.91,0,0,1,197,1004.36v156.26a0,0,0,0,1,0,0H133.61a0,0,0,0,1,0,0V958.46A0,0,0,0,1,133.61,958.46Z"/><path class="cls-3" d="M0,1453.9H114.1v-99.46c3.28-27.79,15.76-38.67,15.76-38.67H114.1v-15.2H0Z" transform="translate(133.61)"/><path class="cls-4" d="M0,1316.76H136.78s39.54.93,23.5-34.13c-11.61-25.37,1.58-31.41,9.76-32.81a14.64,14.64,0,0,0,9.35,25.9,15.65,15.65,0,0,0,1.69-.1h0s24.34-1.12,20.42-31.05-35-23.22-35-23.22-27.13,1.87-29.37,26.81-92.32,27.46-92.32,27.46H0Z" transform="translate(133.61)"/><rect class="cls-3" x="133.61" y="1487.62" width="114.24" height="408.49"/><path class="cls-5" d="M116.92,1488.47H0v-37.55H143.19a2,2,0,0,1,1.53,3.19Z" transform="translate(133.61)"/><path class="cls-5" d="M133.61,1487.62H249.5a7.92,7.92,0,0,1,7.92,7.92v0a7.92,7.92,0,0,1-7.92,7.92H133.61a0,0,0,0,1,0,0v-15.85A0,0,0,0,1,133.61,1487.62Z"/><g class="cls-9"><path class="cls-7" d="M-133.61,1488.45l277.94,0v-21.08a21.06,21.06,0,0,0-17.37,9.15,21.06,21.06,0,0,0-34.74,0,21.06,21.06,0,0,0-34.74,0,21.07,21.07,0,0,0-34.75,0,21.06,21.06,0,0,0-34.74,0c-.32-.47-.69-.9-1.05-1.34a1.71,1.71,0,0,0-.11-.14,16.35,16.35,0,0,0-1.19-1.31l-.27-.27c-.42-.42-.86-.82-1.31-1.2l-.19-.15a21.09,21.09,0,0,0-6.84-3.7l-.28-.1c-.59-.17-1.18-.33-1.78-.45l-.35-.07a21.11,21.11,0,0,0-4-.42,21,21,0,0,0-15.85,7.2,18.91,18.91,0,0,0-1.52,2,21.06,21.06,0,0,0-17.38-9.16,21,21,0,0,0-15.85,7.2,22.14,22.14,0,0,0-1.52,2,21.06,21.06,0,0,0-17.37-9.15,21.06,21.06,0,0,0-17.37,9.15,21,21,0,0,0-17.38-9.15Z" transform="translate(133.61)"/></g><path class="cls-5" d="M133.61,1566.4h20.87A54.63,54.63,0,0,1,209.1,1621V1794.7a0,0,0,0,1,0,0H133.61a0,0,0,0,1,0,0V1566.4A0,0,0,0,1,133.61,1566.4Z"/><path class="cls-7" d="M133.61,1576.93h17.54A45.91,45.91,0,0,1,197,1622.84V1779.1a0,0,0,0,1,0,0H133.61a0,0,0,0,1,0,0V1576.93A0,0,0,0,1,133.61,1576.93Z"/><path class="cls-3" d="M0,2066.55H114.1v-99.46c3.28-27.78,15.76-38.66,15.76-38.66H114.1v-15.2H0Z" transform="translate(133.61)"/><path class="cls-4" d="M0,1929.41H136.78s39.54.94,23.5-34.13c-11.61-25.36,1.58-31.4,9.76-32.8a14.64,14.64,0,0,0,9.35,25.9,15.65,15.65,0,0,0,1.69-.1h0s24.34-1.12,20.42-31.06-35-23.22-35-23.22-27.13,1.88-29.37,26.82-92.32,27.46-92.32,27.46H0Z" transform="translate(133.61)"/><rect class="cls-3" x="133.61" y="2101.75" width="114.24" height="408.49"/><path class="cls-5" d="M116.92,2102.6H0v-37.55H143.19a2,2,0,0,1,1.53,3.2Z" transform="translate(133.61)"/><path class="cls-5" d="M133.61,2101.75H249.5a7.92,7.92,0,0,1,7.92,7.92v0a7.92,7.92,0,0,1-7.92,7.92H133.61a0,0,0,0,1,0,0v-15.85A0,0,0,0,1,133.61,2101.75Z"/><g class="cls-10"><path class="cls-7" d="M-133.61,2102.58l277.94,0v-21.08a21.06,21.06,0,0,0-17.37,9.15,21.06,21.06,0,0,0-34.74,0,21.06,21.06,0,0,0-34.74,0,21.07,21.07,0,0,0-34.75,0,21.07,21.07,0,0,0-34.74,0c-.32-.47-.69-.9-1.05-1.34l-.11-.14c-.37-.45-.77-.89-1.19-1.31l-.27-.27c-.42-.42-.86-.82-1.31-1.2l-.19-.15a21.09,21.09,0,0,0-6.84-3.7l-.28-.09c-.59-.18-1.18-.33-1.78-.46l-.35-.07a21.11,21.11,0,0,0-4-.42,21,21,0,0,0-15.85,7.2,18.91,18.91,0,0,0-1.52,2,21,21,0,0,0-17.38-9.15A21,21,0,0,0-80,2088.69a20.9,20.9,0,0,0-1.52,2,21,21,0,0,0-17.37-9.16,21.06,21.06,0,0,0-17.37,9.15,21.06,21.06,0,0,0-17.38-9.15Z" transform="translate(133.61)"/></g><path class="cls-5" d="M133.61,2180.53h20.87a54.63,54.63,0,0,1,54.63,54.63v173.68a0,0,0,0,1,0,0H133.61a0,0,0,0,1,0,0v-228.3A0,0,0,0,1,133.61,2180.53Z"/><path class="cls-7" d="M133.61,2191.07h17.54A45.91,45.91,0,0,1,197,2237v156.26a0,0,0,0,1,0,0H133.61a0,0,0,0,1,0,0V2191.07A0,0,0,0,1,133.61,2191.07Z"/><path class="cls-11" d="M116.29,153.28a16,16,0,0,0-.81-3.89c-.71-2.06-1.06-1.1-1.06-1.1-10.54,11.91-27.21,19.16-46.31,22.16-6.09,1-12.24,1.82-18.43,2.39h0c-19.13,1.53-45.32-5.93-58.32-10.16l-.76-.41.47.32c-4.79-1.56-7.71-2.67-7.71-2.67v7.31l-2.42,22.13c30.93,8,67.18-1.22,67.18-1.22l.08,0a142.09,142.09,0,0,0,34.06-8.86c5.13-2.06,10-4.41,14.82-6.88C107.42,167,117,162.53,116.29,153.28Z" transform="translate(133.61)"/><path class="cls-12" d="M88.71,166.6S67.24,167,79,135C79,135,105.82,154.8,88.71,166.6Z" transform="translate(133.61)"/><path class="cls-12" d="M112.92,165s-1.8-21.4,30.92-11.7C143.84,153.32,125.8,181.33,112.92,165Z" transform="translate(133.61)"/><path class="cls-12" d="M61.84,182.69s20.3-16.33,32.74,23.18C94.58,205.87,54.16,206.71,61.84,182.69Z" transform="translate(133.61)"/><path class="cls-12" d="M46.32,529.3S69,530.85,54,564.49C54,564.49,27.33,540.51,46.32,529.3Z" transform="translate(133.61)"/><path class="cls-11" d="M163.46,523.92c-.61-5.41-4.26-12.73-10.86-11.25a8.59,8.59,0,0,0-6.12,6.13,12.37,12.37,0,0,0,2,9.63c1.53,2.36,5.32.17,3.79-2.21-1.22-1.9-2.19-4.3-1.44-6.56.48-1.46,2-2.95,3.62-2.79,1.88.18,3.15,2.24,3.79,3.81a14.42,14.42,0,0,1-2.74,14.9,9,9,0,0,1-9.94,1.5c-9.17-4.08-12.08-15.75-13-24.77-1-10.17-.13-20.45-1.44-30.61a59.23,59.23,0,0,0-2.89-12.47,195.41,195.41,0,0,0-3.28-37.86c4-10.86,6.62-22.54,1.56-33.53-5.23-11.36-17.6-17.21-28.25-22.36L97,374.92a233.73,233.73,0,0,0-39.68-41.2,101.38,101.38,0,0,0,25.56-8.4,142.52,142.52,0,0,0,13.83-7.81c9.69-6.1,18.65-11.2,18.65-22.74a27.65,27.65,0,0,0-.46-4.89c-.5-2.6-.88-1.42-.88-1.42-10.33,14.29-25.84,22.45-43.25,25.22-12.13,1.93-24.52,3.26-36.69,1.58-.84-.12-1.68-.25-2.52-.4-28-18.34-51.43-27.34-53.13-28.73V326S14,317.84,61.08,368.63a26.72,26.72,0,0,1-.41,10.78c-1,4-2.76,9-6.86,10.86-3.86,1.74-8.19-1.58-9.67-5.11-.72-1.73-.82-4.09.52-5.57.49-.54,1.43-1.07,2.14-.66a1.37,1.37,0,0,1,.57,1.53,1.73,1.73,0,0,0,.61,2.3,1.69,1.69,0,0,0,2.3-.6c1.2-2.53-.05-5.94-2.94-6.6s-5.56,1.48-6.57,4.14c-2.08,5.46,2.2,11.52,7.11,13.65a9.08,9.08,0,0,0,8.35-.55,14.67,14.67,0,0,0,5.63-6.63,31.88,31.88,0,0,0,3-13.37c3.37,3.82,6.81,7.94,10.28,12.39,15.26,19.52,24.91,41.47,30.93,62.81-2,8.17-6.21,18.93-18.32,30.59-25.28,24.34-65,39.37-89.07,64.47-18.18,18.93-25.62,43-20,64.53,2.2,8.4,6.68,16.78,15.76,21.69C-10.07,616-13.93,601.91-9,588.1a55.18,55.18,0,0,1,10-16.52c-1.55,9.49-.18,19.48,5.22,27.61a30.83,30.83,0,0,0,12.24,10.74c5.41,2.63,11.84,4.49,17.89,3.77A19.19,19.19,0,0,0,50,605.62a19.67,19.67,0,0,0,3-15.35c-1.23-6.07-5.38-11.86-11.26-14.13-5.66-2.19-12.38.2-14.57,6A2.52,2.52,0,0,0,29,585.24,2.55,2.55,0,0,0,32,583.5c1.29-3.42,5.88-3.78,8.71-2.4,3.92,1.92,6.46,5.95,7.39,10.11,1.87,8.29-3.94,16.95-12.61,17.58a29.24,29.24,0,0,1-14.27-3.08A26.06,26.06,0,0,1,11,597.3c-5.31-7.56-6.65-17.11-4.86-26.06a49.68,49.68,0,0,1,2.1-7.38c2.65-2.59,5.42-5.11,8.24-7.58a357.47,357.47,0,0,1,39.36-29.8c13.32-8.73,27.75-16.61,38.89-27a108.55,108.55,0,0,0,17.75-21.12c5.76,39.09,1.31,70.08,1.31,70.08a235.4,235.4,0,0,0,13.45-60c.53,9.8-.13,19.68,1.61,29.4,1,5.52,2.76,11.24,6.13,15.8,3.22,4.38,7.75,8.06,13.31,8.64C158.39,543.33,164.47,532.86,163.46,523.92ZM124,415.52a44.46,44.46,0,0,1-1.44,7.21A176.41,176.41,0,0,0,103,383.41c2.19,1.15,4.34,2.35,6.42,3.67,4.48,2.83,8.73,6.29,11.49,10.89C124.05,403.26,124.7,409.49,124,415.52Z" transform="translate(133.61)"/><path class="cls-12" d="M95.58,318.81s20.59-21.68,40.78,21.35C136.36,340.16,90.53,347.3,95.58,318.81Z" transform="translate(133.61)"/><path class="cls-12" d="M68.12,316.29s-27.93-10.68,4-45.85C72.15,270.44,96.36,310,68.12,316.29Z" transform="translate(133.61)"/><path class="cls-12" d="M127,456.32s20.59-21.67,40.77,21.35C167.77,477.67,121.94,484.81,127,456.32Z" transform="translate(133.61)"/><path class="cls-12" d="M69.15,495.71s-24.24,16-35-29.88C34.15,465.83,79.78,469.63,69.15,495.71Z" transform="translate(133.61)"/><path class="cls-12" d="M87.66,504.06s17,4.42.9,28.67C88.56,532.73,71.71,510.15,87.66,504.06Z" transform="translate(133.61)"/><path class="cls-12" d="M46.75,1139s22.65,1.54,7.63,35.19C54.38,1174.18,27.77,1150.19,46.75,1139Z" transform="translate(133.61)"/><path class="cls-11" d="M163.89,1133.6c-.61-5.41-4.25-12.73-10.86-11.24a8.58,8.58,0,0,0-6.11,6.12,12.28,12.28,0,0,0,2,9.63c1.52,2.37,5.32.17,3.78-2.21-1.22-1.89-2.18-4.29-1.44-6.55.49-1.47,2-3,3.63-2.8,1.87.18,3.14,2.25,3.79,3.81a13.55,13.55,0,0,1,1,5.47,13.41,13.41,0,0,1-3.72,9.43,9,9,0,0,1-9.94,1.5c-9.16-4.08-12.08-15.75-13-24.76-1.06-10.18-.14-20.46-1.45-30.61a59.92,59.92,0,0,0-2.88-12.48,195,195,0,0,0-3.29-37.85c4-10.87,6.63-22.54,1.57-33.54-5.23-11.36-17.61-17.21-28.26-22.36l-1.17-.55a233.74,233.74,0,0,0-39.68-41.2A101.71,101.71,0,0,0,83.34,935a143.44,143.44,0,0,0,13.83-7.81c9.7-6.11,18.65-11.21,18.65-22.75a26.57,26.57,0,0,0-.46-4.89c-.49-2.6-.87-1.41-.87-1.41-10.33,14.28-25.85,22.45-43.25,25.22-12.14,1.93-24.52,3.26-36.69,1.57-.84-.11-1.68-.25-2.52-.4C4,906.2-19.4,897.2-21.11,895.81V935.7s35.49-8.18,82.62,42.62a26.66,26.66,0,0,1-.41,10.77c-1,4-2.76,9-6.85,10.86-3.86,1.74-8.2-1.58-9.67-5.1-.73-1.74-.82-4.09.51-5.58.49-.54,1.43-1.06,2.14-.65a1.39,1.39,0,0,1,.58,1.52,1.74,1.74,0,0,0,.6,2.31,1.7,1.7,0,0,0,2.31-.61c1.2-2.53,0-5.94-2.95-6.59s-5.55,1.47-6.57,4.14c-2.08,5.45,2.2,11.51,7.11,13.65a9.07,9.07,0,0,0,8.36-.56,14.8,14.8,0,0,0,5.63-6.63,31.83,31.83,0,0,0,3-13.36c3.38,3.82,6.81,7.93,10.29,12.38,15.25,19.52,24.9,41.48,30.93,62.81-2,8.17-6.22,18.94-18.32,30.6-25.28,24.34-65,39.37-89.08,64.46-18.18,18.93-25.62,43-20,64.54,2.21,8.39,6.69,16.78,15.77,21.69-4.56-13.28-8.41-27.37-3.46-41.18a55.1,55.1,0,0,1,10-16.53c-1.54,9.49-.18,19.48,5.22,27.61A30.82,30.82,0,0,0,19,1219.61c5.42,2.63,11.84,4.5,17.9,3.78a19.23,19.23,0,0,0,13.58-8.08,19.74,19.74,0,0,0,3-15.36c-1.23-6.07-5.38-11.86-11.25-14.13-5.66-2.19-12.39.2-14.57,6a2.51,2.51,0,0,0,1.74,3.07,2.55,2.55,0,0,0,3.08-1.74c1.28-3.42,5.87-3.78,8.71-2.39,3.92,1.91,6.45,5.94,7.39,10.1,1.86,8.3-4,17-12.61,17.59a29.13,29.13,0,0,1-14.27-3.09,25.88,25.88,0,0,1-10.2-8.4c-5.31-7.57-6.66-17.11-4.86-26.07a48.84,48.84,0,0,1,2.1-7.38c2.64-2.59,5.41-5.11,8.23-7.57a357.67,357.67,0,0,1,39.37-29.81c13.31-8.73,27.74-16.6,38.89-27A108.45,108.45,0,0,0,113,1088.05c5.76,39.09,1.31,70.08,1.31,70.08a234.46,234.46,0,0,0,13.45-60c.54,9.81-.12,19.68,1.62,29.4,1,5.53,2.76,11.24,6.12,15.81,3.22,4.37,7.75,8.05,13.32,8.63C158.83,1153,164.91,1142.55,163.89,1133.6Zm-39.42-108.39a45.46,45.46,0,0,1-1.45,7.2,176.18,176.18,0,0,0-19.61-39.32c2.18,1.15,4.33,2.36,6.42,3.67,4.48,2.83,8.73,6.3,11.48,10.9C124.48,1012.94,125.13,1019.17,124.47,1025.21Z" transform="translate(133.61)"/><path class="cls-12" d="M96,928.49s20.59-21.67,40.77,21.35C136.79,949.84,91,957,96,928.49Z" transform="translate(133.61)"/><path class="cls-12" d="M68.55,926s-27.92-10.68,4-45.85C72.58,880.12,96.8,919.68,68.55,926Z" transform="translate(133.61)"/><path class="cls-12" d="M127.43,1066s20.59-21.68,40.78,21.34C168.21,1087.35,122.37,1094.5,127.43,1066Z" transform="translate(133.61)"/><path class="cls-12" d="M69.58,1105.4s-24.23,16-35-29.89C34.58,1075.51,80.21,1079.31,69.58,1105.4Z" transform="translate(133.61)"/><path class="cls-12" d="M88.1,1113.74s17,4.43.89,28.68C89,1142.42,72.14,1119.84,88.1,1113.74Z" transform="translate(133.61)"/><path class="cls-11" d="M116,757.89a15.8,15.8,0,0,0-.82-3.9c-.71-2.06-1-1.1-1-1.1-10.55,11.92-27.21,19.16-46.31,22.16-6.09,1-12.25,1.82-18.43,2.39h0C30.19,779,4,771.52-9,767.29l-.76-.41.48.31c-4.79-1.56-7.72-2.66-7.72-2.66v7.3L-19.43,794c30.94,8,67.18-1.21,67.18-1.21l.09,0a143.16,143.16,0,0,0,34.06-8.86c5.13-2.07,10-4.42,14.82-6.89C107.07,771.62,116.67,767.14,116,757.89Z" transform="translate(133.61)"/><path class="cls-12" d="M88.37,771.2s-21.47.43-9.69-31.6C78.68,739.6,105.47,759.4,88.37,771.2Z" transform="translate(133.61)"/><path class="cls-12" d="M112.58,769.62s-1.8-21.4,30.92-11.69C143.5,757.93,125.45,785.93,112.58,769.62Z" transform="translate(133.61)"/><path class="cls-12" d="M61.49,787.29S81.8,771,94.24,810.47C94.24,810.47,53.82,811.31,61.49,787.29Z" transform="translate(133.61)"/><path class="cls-11" d="M117.35,1378.32a16,16,0,0,0-.81-3.9c-.71-2.06-1.06-1.09-1.06-1.09-10.54,11.91-27.21,19.16-46.31,22.16-6.09,1-12.24,1.81-18.43,2.39h0C31.59,1399.41,5.4,1392-7.6,1387.72l-.76-.41.47.32c-4.78-1.57-7.71-2.67-7.71-2.67v7.31L-18,1414.4c30.93,8,67.18-1.22,67.18-1.22l.08,0a142.91,142.91,0,0,0,34.06-8.86c5.14-2.06,10-4.42,14.82-6.88C108.48,1392.06,118.07,1387.57,117.35,1378.32Z" transform="translate(133.61)"/><path class="cls-12" d="M89.77,1391.64s-21.46.43-9.69-31.61C80.08,1360,106.88,1379.84,89.77,1391.64Z" transform="translate(133.61)"/><path class="cls-12" d="M114,1390.06s-1.8-21.4,30.93-11.7C144.91,1378.36,126.86,1406.37,114,1390.06Z" transform="translate(133.61)"/><path class="cls-12" d="M62.9,1407.73s20.31-16.33,32.74,23.18C95.64,1430.91,55.22,1431.75,62.9,1407.73Z" transform="translate(133.61)"/><path class="cls-12" d="M47.49,1757.46s22.65,1.55,7.64,35.19C55.13,1792.65,28.51,1768.67,47.49,1757.46Z" transform="translate(133.61)"/><path class="cls-11" d="M164.64,1752.08c-.62-5.41-4.26-12.73-10.87-11.25a8.61,8.61,0,0,0-6.11,6.13,12.28,12.28,0,0,0,2,9.63c1.52,2.37,5.32.17,3.78-2.21-1.22-1.9-2.18-4.29-1.44-6.56.49-1.46,2-3,3.63-2.79,1.87.18,3.14,2.25,3.79,3.81a13.71,13.71,0,0,1,1,5.46,13.47,13.47,0,0,1-3.73,9.44,9,9,0,0,1-9.94,1.5c-9.16-4.08-12.08-15.75-13-24.76-1.06-10.18-.14-20.46-1.45-30.61a59.78,59.78,0,0,0-2.88-12.48,196,196,0,0,0-3.28-37.85c4-10.87,6.62-22.54,1.56-33.54-5.23-11.36-17.6-17.21-28.26-22.36l-1.17-.56a234,234,0,0,0-39.68-41.19,101.53,101.53,0,0,0,25.56-8.41,140.3,140.3,0,0,0,13.82-7.81c9.7-6.1,18.65-11.2,18.65-22.74a26.57,26.57,0,0,0-.46-4.89c-.49-2.6-.87-1.42-.87-1.42-10.33,14.29-25.85,22.45-43.25,25.22-12.14,1.93-24.52,3.27-36.69,1.58-.84-.12-1.68-.25-2.52-.4-28-18.34-51.43-27.34-53.14-28.73v39.89s35.49-8.18,82.62,42.61a26.53,26.53,0,0,1-.41,10.78c-1,4-2.76,9-6.85,10.86-3.86,1.74-8.2-1.58-9.67-5.11-.73-1.73-.82-4.09.51-5.57.49-.54,1.43-1.07,2.14-.65a1.37,1.37,0,0,1,.58,1.52,1.74,1.74,0,0,0,.6,2.31,1.7,1.7,0,0,0,2.31-.61c1.2-2.53-.05-5.94-3-6.59s-5.55,1.47-6.57,4.14c-2.08,5.45,2.2,11.51,7.12,13.64a9,9,0,0,0,8.35-.55,14.8,14.8,0,0,0,5.63-6.63A31.72,31.72,0,0,0,66,1601q5.07,5.73,10.29,12.39c15.26,19.52,24.9,41.48,30.93,62.81-2,8.17-6.21,18.93-18.32,30.6-25.28,24.34-65,39.36-89.08,64.46-18.17,18.93-25.62,43-20,64.54,2.21,8.39,6.69,16.77,15.77,21.68-4.56-13.28-8.41-27.37-3.46-41.17a55.1,55.1,0,0,1,10-16.53c-1.54,9.49-.18,19.48,5.22,27.61a30.82,30.82,0,0,0,12.24,10.74c5.42,2.63,11.84,4.49,17.9,3.77a19.21,19.21,0,0,0,13.58-8.08,19.67,19.67,0,0,0,3-15.35c-1.23-6.07-5.38-11.86-11.25-14.13-5.66-2.19-12.38.2-14.57,6a2.51,2.51,0,0,0,1.74,3.07,2.55,2.55,0,0,0,3.08-1.74c1.28-3.42,5.87-3.78,8.71-2.39,3.92,1.91,6.45,5.94,7.39,10.1,1.86,8.3-3.95,17-12.61,17.58a29.12,29.12,0,0,1-14.27-3.08,26,26,0,0,1-10.2-8.41c-5.31-7.56-6.66-17.11-4.86-26.06a48.84,48.84,0,0,1,2.1-7.38c2.64-2.59,5.42-5.11,8.23-7.58a357.6,357.6,0,0,1,39.37-29.8c13.31-8.73,27.74-16.6,38.89-27a108.44,108.44,0,0,0,17.74-21.12c5.77,39.09,1.31,70.08,1.31,70.08a234.55,234.55,0,0,0,13.45-60c.54,9.81-.12,19.68,1.62,29.4,1,5.52,2.76,11.24,6.12,15.8,3.22,4.38,7.75,8.06,13.32,8.64C159.57,1771.49,165.65,1761,164.64,1752.08Zm-39.43-108.4a46.71,46.71,0,0,1-1.44,7.21,176.63,176.63,0,0,0-19.62-39.32c2.18,1.15,4.33,2.36,6.42,3.67,4.48,2.83,8.73,6.3,11.49,10.89C125.22,1631.42,125.87,1637.65,125.21,1643.68Z" transform="translate(133.61)"/><path class="cls-12" d="M96.76,1547s20.59-21.67,40.77,21.35C137.53,1568.32,91.7,1575.46,96.76,1547Z" transform="translate(133.61)"/><path class="cls-12" d="M69.29,1544.45s-27.92-10.68,4-45.85C73.32,1498.6,97.54,1538.16,69.29,1544.45Z" transform="translate(133.61)"/><path class="cls-12" d="M128.17,1684.49s20.59-21.68,40.78,21.34C169,1705.83,123.12,1713,128.17,1684.49Z" transform="translate(133.61)"/><path class="cls-12" d="M70.32,1723.88s-24.23,16-35-29.89C35.32,1694,81,1697.79,70.32,1723.88Z" transform="translate(133.61)"/><path class="cls-12" d="M88.84,1732.22s17,4.42.89,28.67C89.73,1760.89,72.88,1738.31,88.84,1732.22Z" transform="translate(133.61)"/><path class="cls-11" d="M117.35,1996.44a16,16,0,0,0-.81-3.9c-.71-2.06-1.06-1.1-1.06-1.1-10.54,11.91-27.21,19.16-46.31,22.16-6.09,1-12.24,1.82-18.43,2.39h0c-19.14,1.53-45.33-5.93-58.33-10.16l-.76-.41.47.32c-4.78-1.56-7.71-2.66-7.71-2.66v7.3L-18,2032.51c30.93,8,67.18-1.21,67.18-1.21l.08-.06a142,142,0,0,0,34.06-8.86c5.14-2.06,10-4.41,14.82-6.88C108.48,2010.17,118.07,2005.68,117.35,1996.44Z" transform="translate(133.61)"/><path class="cls-12" d="M89.77,2009.75s-21.46.43-9.69-31.6C80.08,1978.15,106.88,1998,89.77,2009.75Z" transform="translate(133.61)"/><path class="cls-12" d="M114,2008.17s-1.8-21.4,30.93-11.7C144.91,1996.47,126.86,2024.48,114,2008.17Z" transform="translate(133.61)"/><path class="cls-12" d="M62.9,2025.84s20.31-16.33,32.74,23.18C95.64,2049,55.22,2049.86,62.9,2025.84Z" transform="translate(133.61)"/><path class="cls-12" d="M46.58,2371.6s22.65,1.54,7.63,35.19C54.21,2406.79,27.6,2382.8,46.58,2371.6Z" transform="translate(133.61)"/><path class="cls-11" d="M163.72,2366.21c-.61-5.41-4.25-12.73-10.86-11.24a8.58,8.58,0,0,0-6.11,6.12,12.28,12.28,0,0,0,2,9.63c1.52,2.37,5.32.17,3.78-2.21-1.22-1.89-2.18-4.29-1.44-6.55.48-1.47,2-3,3.63-2.8,1.87.18,3.14,2.25,3.78,3.81a14.42,14.42,0,0,1-2.74,14.9,9,9,0,0,1-9.94,1.5c-9.16-4.08-12.08-15.75-13-24.76-1.06-10.18-.14-20.46-1.45-30.61a59.92,59.92,0,0,0-2.88-12.48,195.8,195.8,0,0,0-3.29-37.85c4-10.87,6.62-22.54,1.56-33.54-5.23-11.36-17.6-17.21-28.25-22.36l-1.18-.55A233.34,233.34,0,0,0,57.62,2176a101.71,101.71,0,0,0,25.55-8.4A143.44,143.44,0,0,0,97,2159.81c9.7-6.11,18.65-11.21,18.65-22.75a26.57,26.57,0,0,0-.46-4.89c-.5-2.6-.87-1.41-.87-1.41C104,2145,88.47,2153.21,71.06,2156c-12.13,1.94-24.51,3.27-36.68,1.58-.85-.11-1.68-.25-2.52-.4-28-18.34-51.43-27.34-53.14-28.73v39.89s35.49-8.18,82.62,42.62a26.66,26.66,0,0,1-.41,10.77c-1,4-2.76,9-6.85,10.86-3.87,1.74-8.2-1.58-9.67-5.1-.73-1.74-.82-4.09.51-5.58.49-.54,1.43-1.06,2.14-.65a1.39,1.39,0,0,1,.58,1.52,1.74,1.74,0,0,0,.6,2.31,1.7,1.7,0,0,0,2.31-.61c1.2-2.53,0-5.94-2.95-6.59s-5.55,1.47-6.57,4.14c-2.08,5.45,2.2,11.51,7.11,13.65a9.07,9.07,0,0,0,8.36-.56,14.8,14.8,0,0,0,5.63-6.63,31.83,31.83,0,0,0,3-13.36c3.38,3.82,6.81,7.93,10.29,12.38,15.25,19.52,24.9,41.48,30.92,62.81-2,8.17-6.21,18.94-18.32,30.6-25.27,24.34-65,39.37-89.07,64.46-18.18,18.93-25.62,43-20,64.54,2.2,8.39,6.68,16.78,15.77,21.69-4.56-13.28-8.41-27.37-3.46-41.18a55.1,55.1,0,0,1,10-16.53c-1.54,9.49-.18,19.48,5.22,27.61a30.82,30.82,0,0,0,12.24,10.74c5.41,2.63,11.84,4.5,17.89,3.78a19.23,19.23,0,0,0,13.59-8.08,19.74,19.74,0,0,0,3-15.36c-1.23-6.07-5.38-11.86-11.25-14.13-5.66-2.19-12.39.2-14.58,6a2.52,2.52,0,0,0,1.75,3.07,2.55,2.55,0,0,0,3.08-1.74c1.28-3.42,5.87-3.78,8.71-2.39,3.92,1.91,6.45,5.94,7.39,10.1,1.86,8.3-4,17-12.61,17.59A29.11,29.11,0,0,1,21.51,2448a25.91,25.91,0,0,1-10.21-8.4c-5.3-7.57-6.65-17.11-4.86-26.07a51.28,51.28,0,0,1,2.1-7.38c2.65-2.59,5.42-5.11,8.24-7.57a357.67,357.67,0,0,1,39.37-29.81c13.31-8.73,27.74-16.6,38.89-27a108.45,108.45,0,0,0,17.74-21.13c5.76,39.09,1.31,70.08,1.31,70.08a234.55,234.55,0,0,0,13.45-60c.54,9.81-.12,19.68,1.62,29.4,1,5.53,2.76,11.24,6.12,15.81,3.22,4.37,7.75,8,13.32,8.63C158.66,2385.62,164.74,2375.16,163.72,2366.21ZM124.3,2257.82a45.69,45.69,0,0,1-1.45,7.2,176.6,176.6,0,0,0-19.61-39.32c2.18,1.15,4.33,2.36,6.42,3.67,4.48,2.83,8.73,6.3,11.48,10.9C124.31,2245.55,125,2251.78,124.3,2257.82Z" transform="translate(133.61)"/><path class="cls-12" d="M95.84,2161.1s20.6-21.67,40.78,21.35C136.62,2182.45,90.79,2189.59,95.84,2161.1Z" transform="translate(133.61)"/><path class="cls-12" d="M68.38,2158.58s-27.92-10.68,4-45.85C72.41,2112.73,96.63,2152.29,68.38,2158.58Z" transform="translate(133.61)"/><path class="cls-12" d="M127.26,2298.62S147.85,2276.94,168,2320C168,2320,122.2,2327.11,127.26,2298.62Z" transform="translate(133.61)"/><path class="cls-12" d="M69.41,2338s-24.24,16-35-29.89C34.41,2308.12,80,2311.92,69.41,2338Z" transform="translate(133.61)"/><path class="cls-12" d="M87.93,2346.35s17,4.43.89,28.68C88.82,2375,72,2352.45,87.93,2346.35Z" transform="translate(133.61)"/></g></svg>