<svg id="Layer_1" data-name="Layer 1" xmlns="http://www.w3.org/2000/svg" xmlns:xlink="http://www.w3.org/1999/xlink" viewBox="0 0 335.53 2510.24"><defs><style>.cls-1{fill:none;}.cls-2{clip-path:url(#clip-path);}.cls-3{fill:#cb862a;}.cls-4{fill:#7c433e;}.cls-5{fill:#9b6027;}.cls-6{clip-path:url(#clip-path-2);}.cls-7{fill:#603835;}.cls-8{clip-path:url(#clip-path-3);}.cls-9{clip-path:url(#clip-path-4);}.cls-10{clip-path:url(#clip-path-5);}.cls-11{fill:#307f4c;}.cls-12{fill:#6b9660;}</style><clipPath id="clip-path" transform="translate(0 0)"><rect class="cls-1" width="201.92" height="2510.24" transform="translate(201.92 2510.24) rotate(-180)"/></clipPath><clipPath id="clip-path-2" transform="translate(0 0)"><path class="cls-1" d="M85,261.27H201.92V223.72H58.73a2,2,0,0,0-1.53,3.2Z"/></clipPath><clipPath id="clip-path-3" transform="translate(0 0)"><path class="cls-1" d="M85,870H201.92V832.44H58.73a2,2,0,0,0-1.53,3.2Z"/></clipPath><clipPath id="clip-path-4" transform="translate(0 0)"><path class="cls-1" d="M85,1488.47H201.92v-37.55H58.73a2,2,0,0,0-1.53,3.19Z"/></clipPath><clipPath id="clip-path-5" transform="translate(0 0)"><path class="cls-1" d="M85,2102.6H201.92v-37.55H58.73a2,2,0,0,0-1.53,3.2Z"/></clipPath></defs><g class="cls-2"><path class="cls-3" d="M201.92,233.18H87.82V133.72c-3.28-27.78-15.76-38.66-15.76-38.66H87.82V79.86h114.1Z" transform="translate(0 0)"/><path class="cls-4" d="M201.92,96H65.15S25.61,97,41.65,61.91c11.6-25.36-1.59-31.4-9.77-32.8A14.64,14.64,0,0,1,22.53,55a15.65,15.65,0,0,1-1.69-.1h0S-3.49,53.8.43,23.86,35.4.64,35.4.64,62.53,2.52,64.77,27.46,157.1,54.92,157.1,54.92h44.82Z" transform="translate(0 0)"/><rect class="cls-3" x="87.68" y="260.42" width="114.24" height="408.49" transform="translate(289.6 929.33) rotate(-180)"/><path class="cls-5" d="M85,261.27H201.92V223.72H58.73a2,2,0,0,0-1.53,3.2Z" transform="translate(0 0)"/><path class="cls-5" d="M78.1,260.42H194a7.92,7.92,0,0,1,7.92,7.92v0a7.92,7.92,0,0,1-7.92,7.92H78.1a0,0,0,0,1,0,0V260.42A0,0,0,0,1,78.1,260.42Z" transform="translate(280.02 536.69) rotate(-180)"/><g class="cls-6"><path class="cls-7" d="M335.53,261.25l-277.94,0V240.2A21,21,0,0,1,75,249.34a21.06,21.06,0,0,1,34.74,0,21.06,21.06,0,0,1,34.74,0,21.07,21.07,0,0,1,34.75,0,21.06,21.06,0,0,1,34.74,0c.32-.47.69-.91,1.05-1.35a1.71,1.71,0,0,0,.11-.14c.37-.45.77-.88,1.19-1.31l.27-.27c.42-.42.86-.82,1.31-1.19l.19-.16a21.09,21.09,0,0,1,6.84-3.7l.29-.09c.58-.18,1.17-.33,1.78-.46l.34-.07a20.73,20.73,0,0,1,19.86,6.78,22.14,22.14,0,0,1,1.52,1.95,21.06,21.06,0,0,1,33.22-2,22.29,22.29,0,0,1,1.52,2,21.06,21.06,0,0,1,34.74,0,21.06,21.06,0,0,1,17.38-9.15Z" transform="translate(0 0)"/></g><path class="cls-5" d="M126.43,339.2h75.49a0,0,0,0,1,0,0V512.88A54.63,54.63,0,0,1,147.3,567.5H126.43a0,0,0,0,1,0,0V339.2A0,0,0,0,1,126.43,339.2Z" transform="translate(328.35 906.7) rotate(-180)"/><path class="cls-7" d="M138.48,349.74h63.44a0,0,0,0,1,0,0V506A45.91,45.91,0,0,1,156,551.91H138.48a0,0,0,0,1,0,0V349.74a0,0,0,0,1,0,0Z" transform="translate(340.4 901.65) rotate(-180)"/><path class="cls-3" d="M201.92,832H87.82V732.57c-3.28-27.78-15.76-38.66-15.76-38.66H87.82v-15.2h114.1Z" transform="translate(0 0)"/><path class="cls-4" d="M201.92,695.85H65.15s-39.54.93-23.5-34.13c11.6-25.37-1.59-31.41-9.77-32.81a14.64,14.64,0,0,1-9.35,25.91,15.64,15.64,0,0,1-1.69-.11h0S-3.49,653.6.43,623.67s35-23.22,35-23.22,27.13,1.87,29.37,26.81,92.33,27.46,92.33,27.46h44.82Z" transform="translate(0 0)"/><rect class="cls-3" x="87.68" y="869.14" width="114.24" height="408.49" transform="translate(289.6 2146.77) rotate(-180)"/><path class="cls-5" d="M85,870H201.92V832.44H58.73a2,2,0,0,0-1.53,3.2Z" transform="translate(0 0)"/><path class="cls-5" d="M78.1,869.14H194a7.92,7.92,0,0,1,7.92,7.92v0A7.92,7.92,0,0,1,194,885H78.1a0,0,0,0,1,0,0V869.14a0,0,0,0,1,0,0Z" transform="translate(280.02 1754.12) rotate(-180)"/><g class="cls-8"><path class="cls-7" d="M335.53,870,57.59,870V848.91A21.06,21.06,0,0,1,75,858.06a21.06,21.06,0,0,1,34.74,0,21.06,21.06,0,0,1,34.74,0,21.07,21.07,0,0,1,34.75,0,21.07,21.07,0,0,1,34.74,0c.32-.47.69-.9,1.05-1.34l.11-.14c.37-.45.77-.89,1.19-1.31l.27-.27c.42-.42.86-.82,1.31-1.2l.19-.15a21.09,21.09,0,0,1,6.84-3.7l.29-.09c.58-.18,1.17-.33,1.78-.46l.34-.07a20.73,20.73,0,0,1,19.86,6.78,22.14,22.14,0,0,1,1.52,1.95,21.06,21.06,0,0,1,34.74,0,21.06,21.06,0,0,1,34.74,0,21.06,21.06,0,0,1,17.38-9.15Z" transform="translate(0 0)"/></g><path class="cls-5" d="M126.43,947.92h75.49a0,0,0,0,1,0,0V1121.6a54.63,54.63,0,0,1-54.63,54.63H126.43a0,0,0,0,1,0,0V947.92A0,0,0,0,1,126.43,947.92Z" transform="translate(328.35 2124.14) rotate(-180)"/><path class="cls-7" d="M138.48,958.46h63.44a0,0,0,0,1,0,0v156.26A45.91,45.91,0,0,1,156,1160.63H138.48a0,0,0,0,1,0,0V958.46A0,0,0,0,1,138.48,958.46Z" transform="translate(340.4 2119.08) rotate(-180)"/><path class="cls-3" d="M201.92,1453.9H87.82v-99.46c-3.28-27.79-15.76-38.67-15.76-38.67H87.82v-15.2h114.1Z" transform="translate(0 0)"/><path class="cls-4" d="M201.92,1316.76H65.15s-39.54.93-23.5-34.13c11.6-25.37-1.59-31.41-9.77-32.81a14.64,14.64,0,0,1-9.35,25.9,15.65,15.65,0,0,1-1.69-.1h0s-24.34-1.12-20.42-31.05,35-23.22,35-23.22,27.13,1.87,29.37,26.81,92.33,27.46,92.33,27.46h44.82Z" transform="translate(0 0)"/><rect class="cls-3" x="87.68" y="1487.62" width="114.24" height="408.49" transform="translate(289.6 3383.72) rotate(-180)"/><path class="cls-5" d="M85,1488.47H201.92v-37.55H58.73a2,2,0,0,0-1.53,3.19Z" transform="translate(0 0)"/><path class="cls-5" d="M78.1,1487.62H194a7.92,7.92,0,0,1,7.92,7.92v0a7.92,7.92,0,0,1-7.92,7.92H78.1a0,0,0,0,1,0,0v-15.85a0,0,0,0,1,0,0Z" transform="translate(280.02 2991.08) rotate(180)"/><g class="cls-9"><path class="cls-7" d="M335.53,1488.45l-277.94,0v-21.08A21.06,21.06,0,0,1,75,1476.54a21.06,21.06,0,0,1,34.74,0,21.06,21.06,0,0,1,34.74,0,21.07,21.07,0,0,1,34.75,0,21.06,21.06,0,0,1,34.74,0c.32-.47.69-.9,1.05-1.34a1.71,1.71,0,0,1,.11-.14,16.35,16.35,0,0,1,1.19-1.31l.27-.27c.42-.42.86-.82,1.31-1.2l.19-.15a21.09,21.09,0,0,1,6.84-3.7l.29-.1c.58-.17,1.17-.33,1.78-.45l.34-.07a20.73,20.73,0,0,1,19.86,6.78,22.14,22.14,0,0,1,1.52,2,21,21,0,0,1,33.22-2,22.14,22.14,0,0,1,1.52,2,21.06,21.06,0,0,1,34.74,0,21,21,0,0,1,17.38-9.15Z" transform="translate(0 0)"/></g><path class="cls-5" d="M126.43,1566.4h75.49a0,0,0,0,1,0,0v173.68a54.63,54.63,0,0,1-54.63,54.63H126.43a0,0,0,0,1,0,0V1566.4A0,0,0,0,1,126.43,1566.4Z" transform="translate(328.35 3361.09) rotate(-180)"/><path class="cls-7" d="M138.48,1576.93h63.44a0,0,0,0,1,0,0V1733.2A45.91,45.91,0,0,1,156,1779.1H138.48a0,0,0,0,1,0,0V1576.93A0,0,0,0,1,138.48,1576.93Z" transform="translate(340.4 3356.04) rotate(-180)"/><path class="cls-3" d="M201.92,2066.55H87.82v-99.46c-3.28-27.78-15.76-38.66-15.76-38.66H87.82v-15.2h114.1Z" transform="translate(0 0)"/><path class="cls-4" d="M201.92,1929.41H65.15s-39.54.94-23.5-34.13c11.6-25.36-1.59-31.4-9.77-32.8a14.64,14.64,0,0,1-9.35,25.9,15.65,15.65,0,0,1-1.69-.1h0s-24.34-1.12-20.42-31.06,35-23.22,35-23.22,27.13,1.88,29.37,26.82,92.33,27.46,92.33,27.46h44.82Z" transform="translate(0 0)"/><rect class="cls-3" x="87.68" y="2101.75" width="114.24" height="408.49" transform="translate(289.6 4611.99) rotate(-180)"/><path class="cls-5" d="M85,2102.6H201.92v-37.55H58.73a2,2,0,0,0-1.53,3.2Z" transform="translate(0 0)"/><path class="cls-5" d="M78.1,2101.75H194a7.92,7.92,0,0,1,7.92,7.92v0a7.92,7.92,0,0,1-7.92,7.92H78.1a0,0,0,0,1,0,0v-15.85A0,0,0,0,1,78.1,2101.75Z" transform="translate(280.02 4219.34) rotate(180)"/><g class="cls-10"><path class="cls-7" d="M335.53,2102.58l-277.94,0v-21.08A21.06,21.06,0,0,1,75,2090.67a21.06,21.06,0,0,1,34.74,0,21.06,21.06,0,0,1,34.74,0,21.07,21.07,0,0,1,34.75,0,21.07,21.07,0,0,1,34.74,0c.32-.47.69-.9,1.05-1.34l.11-.14c.37-.45.77-.89,1.19-1.31l.27-.27c.42-.42.86-.82,1.31-1.2l.19-.15a21.09,21.09,0,0,1,6.84-3.7l.29-.09c.58-.18,1.17-.33,1.78-.46l.34-.07a20.73,20.73,0,0,1,19.86,6.78,22.14,22.14,0,0,1,1.52,2,21.06,21.06,0,0,1,34.74,0,21.06,21.06,0,0,1,34.74,0,21.06,21.06,0,0,1,17.38-9.15Z" transform="translate(0 0)"/></g><path class="cls-5" d="M126.43,2180.53h75.49a0,0,0,0,1,0,0v173.68a54.63,54.63,0,0,1-54.63,54.63H126.43a0,0,0,0,1,0,0v-228.3A0,0,0,0,1,126.43,2180.53Z" transform="translate(328.35 4589.36) rotate(-180)"/><path class="cls-7" d="M138.48,2191.07h63.44a0,0,0,0,1,0,0v156.26A45.91,45.91,0,0,1,156,2393.24H138.48a0,0,0,0,1,0,0V2191.07a0,0,0,0,1,0,0Z" transform="translate(340.4 4584.3) rotate(-180)"/><path class="cls-11" d="M85.63,153.28a16,16,0,0,1,.81-3.89c.71-2.06,1.06-1.1,1.06-1.1,10.54,11.91,27.21,19.16,46.31,22.16,6.09,1,12.25,1.82,18.43,2.39h0c19.13,1.53,45.32-5.93,58.32-10.16l.77-.41-.48.32c4.79-1.56,7.71-2.67,7.71-2.67v7.31L221,189.36c-30.93,8-67.18-1.22-67.18-1.22l-.08,0a142.09,142.09,0,0,1-34.06-8.86c-5.13-2.06-10-4.41-14.82-6.88C94.5,167,84.91,162.53,85.63,153.28Z" transform="translate(0 0)"/><path class="cls-12" d="M113.21,166.6s21.47.43,9.69-31.6C122.9,135,96.1,154.8,113.21,166.6Z" transform="translate(0 0)"/><path class="cls-12" d="M89,165s1.8-21.4-30.92-11.7C58.08,153.32,76.12,181.33,89,165Z" transform="translate(0 0)"/><path class="cls-12" d="M140.08,182.69s-20.3-16.33-32.74,23.18C107.34,205.87,147.76,206.71,140.08,182.69Z" transform="translate(0 0)"/><path class="cls-12" d="M155.61,529.3S133,530.85,148,564.49C148,564.49,174.59,540.51,155.61,529.3Z" transform="translate(0 0)"/><path class="cls-11" d="M53.59,542.28c5.56-.58,10.1-4.26,13.32-8.64,3.36-4.56,5.13-10.28,6.12-15.8,1.74-9.72,1.08-19.6,1.61-29.4a235,235,0,0,0,13.46,60s-4.46-31,1.31-70.08a108.44,108.44,0,0,0,17.74,21.12c11.14,10.38,25.58,18.26,38.89,27a357.47,357.47,0,0,1,39.36,29.8c2.82,2.47,5.6,5,8.24,7.58a49.68,49.68,0,0,1,2.1,7.38c1.79,9,.45,18.5-4.86,26.06a26,26,0,0,1-10.2,8.41,29.24,29.24,0,0,1-14.27,3.08c-8.67-.63-14.47-9.29-12.61-17.58.93-4.16,3.47-8.19,7.39-10.11,2.84-1.38,7.43-1,8.71,2.4a2.55,2.55,0,0,0,3.07,1.74,2.52,2.52,0,0,0,1.75-3.07c-2.19-5.83-8.91-8.22-14.57-6-5.88,2.27-10,8.06-11.26,14.13a19.67,19.67,0,0,0,3,15.35,19.21,19.21,0,0,0,13.58,8.08c6.06.72,12.48-1.14,17.89-3.77a30.83,30.83,0,0,0,12.24-10.74c5.4-8.13,6.77-18.12,5.22-27.61a55.18,55.18,0,0,1,10,16.52c5,13.81,1.1,27.9-3.45,41.18,9.08-4.91,13.56-13.29,15.76-21.69,5.66-21.54-1.78-45.6-20-64.53-24.09-25.1-63.79-40.13-89.07-64.47C102.06,466.93,97.85,456.17,95.85,448c6-21.34,15.67-43.29,30.93-62.81q5.22-6.68,10.28-12.39a31.88,31.88,0,0,0,3,13.37,14.67,14.67,0,0,0,5.63,6.63,9.08,9.08,0,0,0,8.35.55c4.91-2.13,9.19-8.19,7.11-13.65-1-2.66-3.57-4.81-6.57-4.14s-4.14,4.07-2.94,6.6a1.69,1.69,0,0,0,2.3.6,1.73,1.73,0,0,0,.61-2.3,1.39,1.39,0,0,1,.57-1.53c.71-.41,1.65.12,2.15.66,1.33,1.48,1.23,3.84.51,5.57-1.48,3.53-5.81,6.85-9.67,5.11-4.1-1.84-5.86-6.83-6.86-10.86a26.72,26.72,0,0,1-.41-10.78C188,317.84,223.47,326,223.47,326V286.13c-1.71,1.39-25.11,10.39-53.14,28.73-.84.15-1.68.28-2.52.4-12.17,1.68-24.56.35-36.69-1.58-17.41-2.77-32.92-10.93-43.25-25.22,0,0-.38-1.18-.88,1.42a27,27,0,0,0-.45,4.89c0,11.54,8.95,16.64,18.65,22.74A141.19,141.19,0,0,0,119,325.32a101.51,101.51,0,0,0,25.56,8.4,233.73,233.73,0,0,0-39.68,41.2l-1.18.56c-10.65,5.15-23,11-28.25,22.36-5.06,11-2.43,22.67,1.56,33.53a196.23,196.23,0,0,0-3.28,37.86,59.23,59.23,0,0,0-2.89,12.47c-1.31,10.16-.39,20.44-1.44,30.61-.94,9-3.85,20.69-13,24.77a9,9,0,0,1-9.94-1.5,14.42,14.42,0,0,1-2.74-14.9c.64-1.57,1.91-3.63,3.79-3.81,1.65-.16,3.14,1.33,3.62,2.79.75,2.26-.22,4.66-1.44,6.56-1.53,2.38,2.27,4.57,3.79,2.21a12.37,12.37,0,0,0,2-9.63,8.59,8.59,0,0,0-6.12-6.13c-6.6-1.48-10.25,5.84-10.86,11.25C37.45,532.86,43.53,543.33,53.59,542.28ZM81,398c2.76-4.6,7-8.06,11.49-10.89,2.08-1.32,4.23-2.52,6.42-3.67a176.41,176.41,0,0,0-19.62,39.32,44.46,44.46,0,0,1-1.44-7.21C77.23,409.49,77.87,403.26,81,398Z" transform="translate(0 0)"/><path class="cls-12" d="M106.34,318.81s-20.59-21.68-40.78,21.35C65.56,340.16,111.4,347.3,106.34,318.81Z" transform="translate(0 0)"/><path class="cls-12" d="M133.8,316.29s27.93-10.68-4-45.85C129.77,270.44,105.56,310,133.8,316.29Z" transform="translate(0 0)"/><path class="cls-12" d="M74.93,456.32s-20.6-21.67-40.78,21.35C34.15,477.67,80,484.81,74.93,456.32Z" transform="translate(0 0)"/><path class="cls-12" d="M132.78,495.71s24.23,16,35-29.88C167.77,465.83,122.14,469.63,132.78,495.71Z" transform="translate(0 0)"/><path class="cls-12" d="M114.26,504.06s-17,4.42-.9,28.67C113.36,532.73,130.21,510.15,114.26,504.06Z" transform="translate(0 0)"/><path class="cls-12" d="M155.17,1139s-22.65,1.54-7.63,35.19C147.54,1174.18,174.15,1150.19,155.17,1139Z" transform="translate(0 0)"/><path class="cls-11" d="M53.15,1152c5.57-.58,10.1-4.26,13.32-8.63,3.36-4.57,5.13-10.28,6.12-15.81,1.74-9.72,1.08-19.59,1.62-29.4a234.46,234.46,0,0,0,13.45,60s-4.45-31,1.31-70.08a108.45,108.45,0,0,0,17.74,21.13c11.15,10.38,25.58,18.25,38.89,27A357.67,357.67,0,0,1,185,1166c2.82,2.46,5.59,5,8.24,7.57a51.28,51.28,0,0,1,2.1,7.38c1.79,9,.44,18.5-4.86,26.07a25.91,25.91,0,0,1-10.21,8.4,29.13,29.13,0,0,1-14.27,3.09c-8.66-.63-14.47-9.29-12.61-17.59.94-4.16,3.47-8.19,7.39-10.1,2.84-1.39,7.43-1,8.71,2.39a2.55,2.55,0,0,0,3.08,1.74,2.52,2.52,0,0,0,1.75-3.07c-2.19-5.83-8.92-8.22-14.58-6-5.87,2.27-10,8.06-11.25,14.13a19.74,19.74,0,0,0,3,15.36,19.23,19.23,0,0,0,13.58,8.08c6.06.72,12.49-1.15,17.9-3.78a30.82,30.82,0,0,0,12.24-10.74c5.4-8.13,6.76-18.12,5.22-27.61a55.1,55.1,0,0,1,10,16.53c4.95,13.81,1.1,27.9-3.46,41.18,9.08-4.91,13.57-13.3,15.77-21.69,5.66-21.55-1.78-45.61-20-64.54-24.1-25.09-63.8-40.12-89.07-64.46-12.11-11.66-16.32-22.43-18.33-30.6,6-21.33,15.68-43.29,30.93-62.81,3.48-4.45,6.91-8.56,10.29-12.38a31.83,31.83,0,0,0,3,13.36,14.8,14.8,0,0,0,5.63,6.63,9.07,9.07,0,0,0,8.36.56c4.91-2.14,9.19-8.2,7.11-13.65-1-2.67-3.57-4.82-6.57-4.14s-4.15,4.06-3,6.59a1.7,1.7,0,0,0,2.31.61,1.74,1.74,0,0,0,.6-2.31,1.39,1.39,0,0,1,.58-1.52c.71-.41,1.65.11,2.14.65,1.33,1.49,1.24,3.84.51,5.58-1.47,3.52-5.8,6.84-9.67,5.1-4.09-1.84-5.85-6.82-6.85-10.86a26.66,26.66,0,0,1-.41-10.77C187.54,927.52,223,935.7,223,935.7V895.81c-1.71,1.39-25.1,10.39-53.14,28.73-.84.15-1.68.29-2.52.4-12.17,1.69-24.55.36-36.68-1.57-17.41-2.77-32.93-10.94-43.26-25.22,0,0-.37-1.19-.87,1.41a26.57,26.57,0,0,0-.46,4.89c0,11.54,9,16.64,18.65,22.75A143.44,143.44,0,0,0,118.58,935a101.71,101.71,0,0,0,25.55,8.4,233.34,233.34,0,0,0-39.67,41.2l-1.18.55c-10.65,5.15-23,11-28.25,22.36-5.07,11-2.44,22.67,1.56,33.54a195.8,195.8,0,0,0-3.29,37.85,59.92,59.92,0,0,0-2.88,12.48C69.11,1101.54,70,1111.82,69,1122c-.93,9-3.85,20.68-13,24.76a9,9,0,0,1-9.94-1.5,14.42,14.42,0,0,1-2.74-14.9c.64-1.56,1.91-3.63,3.78-3.81,1.66-.16,3.15,1.33,3.63,2.8.74,2.26-.22,4.66-1.44,6.55-1.54,2.38,2.26,4.58,3.78,2.21a12.28,12.28,0,0,0,2-9.63,8.58,8.58,0,0,0-6.11-6.12c-6.61-1.49-10.25,5.83-10.86,11.24C37,1142.55,43.09,1153,53.15,1152Zm27.46-144.3c2.75-4.6,7-8.07,11.48-10.9,2.09-1.31,4.24-2.52,6.42-3.67a176.6,176.6,0,0,0-19.61,39.32,45.46,45.46,0,0,1-1.45-7.2C76.79,1019.17,77.44,1012.94,80.61,1007.66Z" transform="translate(0 0)"/><path class="cls-12" d="M105.91,928.49s-20.6-21.67-40.78,21.35C65.13,949.84,111,957,105.91,928.49Z" transform="translate(0 0)"/><path class="cls-12" d="M133.37,926s27.92-10.68-4-45.85C129.34,880.12,105.12,919.68,133.37,926Z" transform="translate(0 0)"/><path class="cls-12" d="M74.49,1066s-20.59-21.68-40.78,21.34C33.71,1087.35,79.55,1094.5,74.49,1066Z" transform="translate(0 0)"/><path class="cls-12" d="M132.34,1105.4s24.23,16,35-29.89C167.34,1075.51,121.71,1079.31,132.34,1105.4Z" transform="translate(0 0)"/><path class="cls-12" d="M113.82,1113.74s-17,4.43-.89,28.68C112.93,1142.42,129.78,1119.84,113.82,1113.74Z" transform="translate(0 0)"/><path class="cls-11" d="M86,757.89a15.8,15.8,0,0,1,.82-3.9c.71-2.06,1-1.1,1-1.1,10.55,11.92,27.22,19.16,46.32,22.16,6.08,1,12.24,1.82,18.42,2.39h0c19.13,1.53,45.33-5.92,58.33-10.15l.76-.41-.48.31c4.79-1.56,7.72-2.66,7.72-2.66v7.3L221.35,794c-30.94,8-67.18-1.21-67.18-1.21l-.08,0A143.12,143.12,0,0,1,120,783.84c-5.13-2.07-10-4.42-14.82-6.89C94.85,771.62,85.25,767.14,86,757.89Z" transform="translate(0 0)"/><path class="cls-12" d="M113.55,771.2s21.47.43,9.69-31.6C123.24,739.6,96.45,759.4,113.55,771.2Z" transform="translate(0 0)"/><path class="cls-12" d="M89.34,769.62s1.8-21.4-30.92-11.69C58.42,757.93,76.47,785.93,89.34,769.62Z" transform="translate(0 0)"/><path class="cls-12" d="M140.43,787.29S120.12,771,107.69,810.47C107.69,810.47,148.1,811.31,140.43,787.29Z" transform="translate(0 0)"/><path class="cls-11" d="M84.57,1378.32a16,16,0,0,1,.81-3.9c.71-2.06,1.06-1.09,1.06-1.09,10.54,11.91,27.21,19.16,46.31,22.16,6.09,1,12.24,1.81,18.43,2.39h0c19.14,1.53,45.33-5.93,58.33-10.16l.76-.41-.47.32c4.78-1.57,7.71-2.67,7.71-2.67v7.31l2.42,22.13c-30.93,8-67.18-1.22-67.18-1.22l-.08,0a143,143,0,0,1-34.06-8.86c-5.13-2.06-10-4.42-14.82-6.88C93.44,1392.06,83.85,1387.57,84.57,1378.32Z" transform="translate(0 0)"/><path class="cls-12" d="M112.15,1391.64s21.46.43,9.69-31.61C121.84,1360,95,1379.84,112.15,1391.64Z" transform="translate(0 0)"/><path class="cls-12" d="M87.94,1390.06s1.8-21.4-30.92-11.7C57,1378.36,75.06,1406.37,87.94,1390.06Z" transform="translate(0 0)"/><path class="cls-12" d="M139,1407.73s-20.31-16.33-32.74,23.18C106.28,1430.91,146.7,1431.75,139,1407.73Z" transform="translate(0 0)"/><path class="cls-12" d="M154.43,1757.46s-22.65,1.55-7.63,35.19C146.8,1792.65,173.41,1768.67,154.43,1757.46Z" transform="translate(0 0)"/><path class="cls-11" d="M52.41,1770.44c5.57-.58,10.1-4.26,13.32-8.64,3.36-4.56,5.13-10.28,6.12-15.8,1.74-9.72,1.08-19.59,1.62-29.4a234.55,234.55,0,0,0,13.45,60s-4.45-31,1.31-70.08A108.44,108.44,0,0,0,106,1727.65c11.15,10.39,25.58,18.26,38.89,27a357.6,357.6,0,0,1,39.37,29.8c2.82,2.47,5.59,5,8.23,7.58a48.84,48.84,0,0,1,2.1,7.38c1.8,8.95.45,18.5-4.86,26.06a26,26,0,0,1-10.2,8.41,29.12,29.12,0,0,1-14.27,3.08c-8.66-.62-14.47-9.28-12.61-17.58.94-4.16,3.47-8.19,7.39-10.1,2.84-1.39,7.43-1,8.71,2.39a2.55,2.55,0,0,0,3.08,1.74,2.51,2.51,0,0,0,1.74-3.07c-2.18-5.83-8.91-8.22-14.57-6-5.87,2.27-10,8.06-11.25,14.13a19.71,19.71,0,0,0,3,15.35,19.23,19.23,0,0,0,13.58,8.08c6.06.72,12.48-1.14,17.9-3.77a30.82,30.82,0,0,0,12.24-10.74c5.4-8.13,6.76-18.12,5.22-27.61a55.1,55.1,0,0,1,10,16.53c4.95,13.8,1.1,27.89-3.46,41.17,9.08-4.91,13.56-13.29,15.77-21.68,5.66-21.55-1.78-45.61-20-64.54-24.1-25.1-63.8-40.12-89.08-64.46-12.1-11.67-16.31-22.43-18.32-30.6,6-21.33,15.68-43.29,30.93-62.81q5.22-6.67,10.29-12.39a31.87,31.87,0,0,0,3,13.37,14.8,14.8,0,0,0,5.63,6.63,9.07,9.07,0,0,0,8.36.55c4.91-2.13,9.19-8.19,7.11-13.64-1-2.67-3.57-4.82-6.57-4.14s-4.15,4.06-2.95,6.59a1.7,1.7,0,0,0,2.31.61,1.74,1.74,0,0,0,.6-2.31,1.38,1.38,0,0,1,.58-1.52c.71-.42,1.65.11,2.14.65,1.33,1.48,1.24,3.84.51,5.57-1.47,3.53-5.8,6.85-9.67,5.11-4.09-1.84-5.86-6.83-6.85-10.86a26.71,26.71,0,0,1-.41-10.78c47.13-50.79,82.62-42.61,82.62-42.61v-39.89c-1.71,1.39-25.1,10.39-53.14,28.73-.84.15-1.68.28-2.52.4-12.17,1.69-24.55.35-36.68-1.58-17.41-2.77-32.93-10.93-43.26-25.22,0,0-.37-1.18-.87,1.42a26.57,26.57,0,0,0-.46,4.89c0,11.54,9,16.64,18.65,22.74a139.31,139.31,0,0,0,13.83,7.81,101.33,101.33,0,0,0,25.55,8.41,234,234,0,0,0-39.68,41.19l-1.17.56c-10.65,5.15-23,11-28.26,22.36-5.06,11-2.43,22.67,1.57,33.54a195,195,0,0,0-3.29,37.85,59.78,59.78,0,0,0-2.88,12.48c-1.31,10.15-.39,20.43-1.45,30.61-.93,9-3.85,20.68-13,24.76a9,9,0,0,1-9.94-1.5,14.42,14.42,0,0,1-2.74-14.9c.64-1.56,1.91-3.63,3.78-3.81,1.65-.16,3.14,1.33,3.63,2.79.74,2.27-.22,4.66-1.44,6.56-1.54,2.38,2.26,4.58,3.78,2.21a12.28,12.28,0,0,0,2-9.63,8.61,8.61,0,0,0-6.11-6.13c-6.61-1.48-10.25,5.84-10.86,11.25C36.27,1761,42.35,1771.49,52.41,1770.44Zm27.46-144.31c2.75-4.59,7-8.06,11.48-10.89,2.09-1.31,4.24-2.52,6.42-3.67a176.6,176.6,0,0,0-19.61,39.32,45.58,45.58,0,0,1-1.45-7.21C76.05,1637.65,76.7,1631.42,79.87,1626.13Z" transform="translate(0 0)"/><path class="cls-12" d="M105.17,1547s-20.6-21.67-40.78,21.35C64.39,1568.32,110.22,1575.46,105.17,1547Z" transform="translate(0 0)"/><path class="cls-12" d="M132.63,1544.45s27.92-10.68-4-45.85C128.6,1498.6,104.38,1538.16,132.63,1544.45Z" transform="translate(0 0)"/><path class="cls-12" d="M73.75,1684.49S53.16,1662.81,33,1705.83C33,1705.83,78.81,1713,73.75,1684.49Z" transform="translate(0 0)"/><path class="cls-12" d="M131.6,1723.88s24.23,16,35-29.89C166.6,1694,121,1697.79,131.6,1723.88Z" transform="translate(0 0)"/><path class="cls-12" d="M113.08,1732.22s-17,4.42-.89,28.67C112.19,1760.89,129,1738.31,113.08,1732.22Z" transform="translate(0 0)"/><path class="cls-11" d="M84.57,1996.44a16,16,0,0,1,.81-3.9c.71-2.06,1.06-1.1,1.06-1.1,10.54,11.91,27.21,19.16,46.31,22.16,6.09,1,12.24,1.82,18.43,2.39h0c19.14,1.53,45.33-5.93,58.33-10.16l.76-.41-.47.32c4.78-1.56,7.71-2.66,7.71-2.66v7.3l2.42,22.13c-30.93,8-67.18-1.21-67.18-1.21l-.08-.06a142.09,142.09,0,0,1-34.06-8.86c-5.13-2.06-10-4.41-14.82-6.88C93.44,2010.17,83.85,2005.68,84.57,1996.44Z" transform="translate(0 0)"/><path class="cls-12" d="M112.15,2009.75s21.46.43,9.69-31.6C121.84,1978.15,95,1998,112.15,2009.75Z" transform="translate(0 0)"/><path class="cls-12" d="M87.94,2008.17s1.8-21.4-30.92-11.7C57,1996.47,75.06,2024.48,87.94,2008.17Z" transform="translate(0 0)"/><path class="cls-12" d="M139,2025.84s-20.31-16.33-32.74,23.18C106.28,2049,146.7,2049.86,139,2025.84Z" transform="translate(0 0)"/><path class="cls-12" d="M155.34,2371.6s-22.65,1.54-7.63,35.19C147.71,2406.79,174.32,2382.8,155.34,2371.6Z" transform="translate(0 0)"/><path class="cls-11" d="M53.33,2384.57c5.56-.58,10.09-4.26,13.31-8.63,3.36-4.57,5.14-10.28,6.12-15.81,1.75-9.72,1.08-19.59,1.62-29.4a235,235,0,0,0,13.45,60s-4.45-31,1.31-70.08a108.45,108.45,0,0,0,17.74,21.13c11.15,10.38,25.58,18.25,38.9,27a358.49,358.49,0,0,1,39.36,29.81c2.82,2.46,5.59,5,8.24,7.57a51.28,51.28,0,0,1,2.1,7.38c1.79,9,.45,18.5-4.86,26.07a25.91,25.91,0,0,1-10.21,8.4,29.1,29.1,0,0,1-14.26,3.09c-8.67-.63-14.48-9.29-12.61-17.59.93-4.16,3.46-8.19,7.38-10.1,2.84-1.39,7.43-1,8.72,2.39a2.5,2.5,0,0,0,4.82-1.33c-2.19-5.83-8.92-8.22-14.57-6-5.88,2.27-10,8.06-11.26,14.13a19.7,19.7,0,0,0,3,15.36,19.19,19.19,0,0,0,13.58,8.08c6,.72,12.48-1.15,17.89-3.78a30.82,30.82,0,0,0,12.24-10.74c5.4-8.13,6.76-18.12,5.22-27.61a55.1,55.1,0,0,1,10,16.53c5,13.81,1.1,27.9-3.46,41.18,9.09-4.91,13.57-13.3,15.77-21.69,5.66-21.55-1.78-45.61-20-64.54-24.1-25.09-63.8-40.12-89.07-64.46-12.11-11.66-16.32-22.43-18.32-30.6,6-21.33,15.67-43.29,30.92-62.81,3.48-4.45,6.91-8.56,10.29-12.38a31.83,31.83,0,0,0,3,13.36,14.8,14.8,0,0,0,5.63,6.63,9.07,9.07,0,0,0,8.36.56c4.91-2.14,9.19-8.2,7.11-13.65-1-2.67-3.57-4.82-6.57-4.14s-4.15,4.06-2.95,6.59a1.7,1.7,0,0,0,2.31.61,1.74,1.74,0,0,0,.6-2.31,1.39,1.39,0,0,1,.58-1.52c.71-.41,1.65.11,2.14.65,1.33,1.49,1.24,3.84.52,5.58-1.48,3.52-5.81,6.84-9.68,5.1-4.09-1.84-5.85-6.82-6.85-10.86a26.66,26.66,0,0,1-.41-10.77c47.13-50.8,82.62-42.62,82.62-42.62v-39.89c-1.71,1.39-25.1,10.39-53.14,28.73-.83.15-1.67.29-2.51.4-12.18,1.69-24.56.36-36.69-1.58-17.41-2.76-32.93-10.93-43.25-25.21,0,0-.38-1.19-.88,1.41a26.57,26.57,0,0,0-.46,4.89c0,11.54,9,16.64,18.65,22.75a143.44,143.44,0,0,0,13.83,7.81,101.65,101.65,0,0,0,25.56,8.4,233,233,0,0,0-39.68,41.2l-1.18.55c-10.65,5.15-23,11-28.25,22.36-5.06,11-2.43,22.67,1.56,33.54a195.8,195.8,0,0,0-3.29,37.85A59.92,59.92,0,0,0,70.59,2324c-1.31,10.15-.39,20.43-1.45,30.61-.93,9-3.85,20.68-13,24.76a9,9,0,0,1-9.94-1.5,14.42,14.42,0,0,1-2.74-14.9c.64-1.56,1.91-3.63,3.79-3.81,1.65-.16,3.14,1.33,3.62,2.8.75,2.26-.22,4.66-1.44,6.55-1.54,2.38,2.26,4.58,3.79,2.21a12.31,12.31,0,0,0,2-9.63,8.58,8.58,0,0,0-6.11-6.12c-6.6-1.49-10.25,5.83-10.86,11.24C37.18,2375.16,43.26,2385.62,53.33,2384.57Zm27.45-144.3c2.75-4.6,7-8.07,11.49-10.9,2.08-1.31,4.23-2.52,6.42-3.67A176.2,176.2,0,0,0,79.07,2265a45.69,45.69,0,0,1-1.45-7.2C77,2251.78,77.61,2245.55,80.78,2240.27Z" transform="translate(0 0)"/><path class="cls-12" d="M106.08,2161.1s-20.6-21.67-40.78,21.35C65.3,2182.45,111.13,2189.59,106.08,2161.1Z" transform="translate(0 0)"/><path class="cls-12" d="M133.54,2158.58s27.93-10.68-4-45.85C129.51,2112.73,105.29,2152.29,133.54,2158.58Z" transform="translate(0 0)"/><path class="cls-12" d="M74.66,2298.62S54.07,2276.94,33.88,2320C33.88,2320,79.72,2327.11,74.66,2298.62Z" transform="translate(0 0)"/><path class="cls-12" d="M132.51,2338s24.24,16,35-29.89C167.51,2308.12,121.88,2311.92,132.51,2338Z" transform="translate(0 0)"/><path class="cls-12" d="M114,2346.35s-17,4.43-.89,28.68C113.1,2375,130,2352.45,114,2346.35Z" transform="translate(0 0)"/></g></svg>