<svg width="201" height="2510" viewBox="0 0 201 2510" fill="none" xmlns="http://www.w3.org/2000/svg">
<path d="M201.92 233.18H87.8202V133.72C84.5402 105.93 72.0602 95.06 72.0602 95.06H87.8202V79.86H201.92V233.18Z" fill="#CB862A"/>
<path d="M201.92 96.04H65.1402C65.1402 96.04 25.6002 96.97 41.6402 61.91C53.2402 36.55 40.0602 30.51 31.8802 29.11C35.1102 31.8 37.1702 35.84 37.1702 40.37C37.1702 48.46 30.6202 55.01 22.5302 55.01C21.9602 55.01 21.4002 54.97 20.8402 54.91L20.8502 54.92C20.8502 54.92 -3.48982 53.8 0.430176 23.87C4.35018 -6.05998 35.4002 0.650015 35.4002 0.650015C35.4002 0.650015 62.5402 2.52001 64.7802 27.47C67.0202 52.41 157.1 54.93 157.1 54.93H201.93V96.04H201.92Z" fill="#7C433E"/>
<path d="M87.6802 260.42H201.92V668.91H87.6802V260.42Z" fill="#CB862A"/>
<path d="M85.0002 261.27H201.92V223.72H58.7302C57.0802 223.72 56.1702 225.63 57.2002 226.92L85.0002 261.27Z" fill="#9B6027"/>
<path d="M86.0302 276.27H201.93V260.42H86.0302C81.6502 260.42 78.1102 263.97 78.1102 268.34C78.1002 272.72 81.6502 276.27 86.0302 276.27Z" fill="#9B6027"/>
<mask id="mask0_470_6" style="mask-type:luminance" maskUnits="userSpaceOnUse" x="56" y="223" width="146" height="39">
<path d="M85.0002 261.27H201.92V223.72H58.7302C57.0802 223.72 56.1702 225.63 57.2002 226.92L85.0002 261.27Z" fill="white"/>
</mask>
<g mask="url(#mask0_470_6)">
<path d="M335.53 261.25L57.5903 261.27L57.5803 240.19C64.7903 240.19 71.1503 243.82 74.9503 249.34C78.7503 243.81 85.1103 240.19 92.3203 240.19C99.5303 240.19 105.89 243.82 109.69 249.34C113.49 243.81 119.85 240.19 127.06 240.19C134.27 240.19 140.63 243.82 144.43 249.34C148.23 243.81 154.59 240.19 161.8 240.19C169.01 240.19 175.37 243.82 179.17 249.34C182.97 243.81 189.33 240.19 196.54 240.19C203.75 240.19 210.11 243.82 213.91 249.34C214.23 248.87 214.6 248.44 214.96 247.99C215 247.95 215.03 247.9 215.07 247.85C215.45 247.39 215.85 246.96 216.26 246.54C216.35 246.45 216.44 246.36 216.53 246.27C216.95 245.85 217.39 245.46 217.84 245.08C217.9 245.03 217.97 244.98 218.03 244.93C220.04 243.3 222.34 242.03 224.87 241.23C224.97 241.2 225.06 241.17 225.16 241.14C225.74 240.96 226.34 240.81 226.94 240.68C227.05 240.66 227.17 240.64 227.29 240.61C228.59 240.36 229.92 240.19 231.29 240.19C237.61 240.19 243.28 242.98 247.14 247.39C247.68 248.01 248.19 248.66 248.66 249.34C252.46 243.81 258.82 240.19 266.03 240.19C272.35 240.19 278.02 242.98 281.88 247.39C282.42 248.01 282.93 248.66 283.4 249.34C287.2 243.81 293.56 240.19 300.77 240.19C307.98 240.19 314.34 243.82 318.14 249.34C321.94 243.81 328.3 240.19 335.51 240.19L335.53 261.25Z" fill="#603835"/>
</g>
<path d="M126.43 567.5H201.92V339.2H181.05C150.88 339.2 126.42 363.66 126.42 393.83V567.5H126.43Z" fill="#9B6027"/>
<path d="M138.48 551.91H201.92V349.74H184.38C159.03 349.74 138.47 370.29 138.47 395.65V551.91H138.48Z" fill="#603835"/>
<path d="M201.92 832.03H87.8202V732.57C84.5402 704.78 72.0602 693.91 72.0602 693.91H87.8202V678.71H201.92V832.03Z" fill="#CB862A"/>
<path d="M201.92 695.85H65.1402C65.1402 695.85 25.6002 696.78 41.6402 661.72C53.2402 636.36 40.0602 630.32 31.8802 628.92C35.1102 631.61 37.1702 635.65 37.1702 640.18C37.1702 648.27 30.6202 654.82 22.5302 654.82C21.9602 654.82 21.4002 654.78 20.8402 654.72L20.8502 654.73C20.8502 654.73 -3.48982 653.61 0.430176 623.68C4.35018 593.75 35.4002 600.46 35.4002 600.46C35.4002 600.46 62.5402 602.33 64.7802 627.28C67.0202 652.22 157.1 654.74 157.1 654.74H201.93V695.85H201.92Z" fill="#7C433E"/>
<path d="M87.6802 869.14H201.92V1277.63H87.6802V869.14Z" fill="#CB862A"/>
<path d="M85.0002 869.99H201.92V832.44H58.7302C57.0802 832.44 56.1702 834.35 57.2002 835.64L85.0002 869.99Z" fill="#9B6027"/>
<path d="M86.0302 884.99H201.93V869.14H86.0302C81.6502 869.14 78.1102 872.69 78.1102 877.06C78.1002 881.44 81.6502 884.99 86.0302 884.99Z" fill="#9B6027"/>
<mask id="mask1_470_6" style="mask-type:luminance" maskUnits="userSpaceOnUse" x="56" y="832" width="146" height="38">
<path d="M85.0002 869.99H201.92V832.44H58.7302C57.0802 832.44 56.1702 834.35 57.2002 835.64L85.0002 869.99Z" fill="white"/>
</mask>
<g mask="url(#mask1_470_6)">
<path d="M335.53 869.97L57.5903 869.99L57.5803 848.91C64.7903 848.91 71.1503 852.54 74.9503 858.06C78.7503 852.53 85.1103 848.91 92.3203 848.91C99.5303 848.91 105.89 852.54 109.69 858.06C113.49 852.53 119.85 848.91 127.06 848.91C134.27 848.91 140.63 852.54 144.43 858.06C148.23 852.53 154.59 848.91 161.8 848.91C169.01 848.91 175.37 852.54 179.17 858.06C182.97 852.53 189.33 848.91 196.54 848.91C203.75 848.91 210.11 852.54 213.91 858.06C214.23 857.59 214.6 857.16 214.96 856.71C215 856.67 215.03 856.62 215.07 856.57C215.45 856.11 215.85 855.68 216.26 855.26C216.35 855.17 216.44 855.08 216.53 854.99C216.95 854.57 217.39 854.18 217.84 853.8C217.9 853.75 217.97 853.7 218.03 853.65C220.04 852.02 222.34 850.75 224.87 849.95C224.97 849.92 225.06 849.89 225.16 849.86C225.74 849.68 226.34 849.53 226.94 849.4C227.05 849.38 227.17 849.36 227.29 849.33C228.59 849.08 229.92 848.91 231.29 848.91C237.61 848.91 243.28 851.7 247.14 856.11C247.68 856.73 248.19 857.38 248.66 858.06C252.46 852.53 258.82 848.91 266.03 848.91C272.35 848.91 278.02 851.7 281.88 856.11C282.42 856.73 282.93 857.38 283.4 858.06C287.2 852.53 293.56 848.91 300.77 848.91C307.98 848.91 314.34 852.54 318.14 858.06C321.94 852.53 328.3 848.91 335.51 848.91L335.53 869.97Z" fill="#603835"/>
</g>
<path d="M126.43 1176.22H201.92V947.92H181.05C150.88 947.92 126.42 972.38 126.42 1002.55V1176.22H126.43Z" fill="#9B6027"/>
<path d="M138.48 1160.63H201.92V958.46H184.38C159.03 958.46 138.47 979.01 138.47 1004.37V1160.63H138.48Z" fill="#603835"/>
<path d="M201.92 1453.9H87.8202V1354.44C84.5402 1326.65 72.0602 1315.78 72.0602 1315.78H87.8202V1300.58H201.92V1453.9Z" fill="#CB862A"/>
<path d="M201.92 1316.76H65.1402C65.1402 1316.76 25.6002 1317.69 41.6402 1282.63C53.2402 1257.27 40.0602 1251.23 31.8802 1249.83C35.1102 1252.52 37.1702 1256.56 37.1702 1261.09C37.1702 1269.18 30.6202 1275.73 22.5302 1275.73C21.9602 1275.73 21.4002 1275.69 20.8402 1275.63L20.8502 1275.64C20.8502 1275.64 -3.48982 1274.52 0.430176 1244.59C4.35018 1214.66 35.4002 1221.37 35.4002 1221.37C35.4002 1221.37 62.5402 1223.24 64.7802 1248.19C67.0202 1273.13 157.1 1275.65 157.1 1275.65H201.93V1316.76H201.92Z" fill="#7C433E"/>
<path d="M87.6802 1487.62H201.92V1896.11H87.6802V1487.62Z" fill="#CB862A"/>
<path d="M85.0002 1488.47H201.92V1450.92H58.7302C57.0802 1450.92 56.1702 1452.83 57.2002 1454.12L85.0002 1488.47Z" fill="#9B6027"/>
<path d="M86.0302 1503.46H201.93V1487.61H86.0302C81.6502 1487.61 78.1102 1491.16 78.1102 1495.53C78.1002 1499.92 81.6502 1503.46 86.0302 1503.46Z" fill="#9B6027"/>
<mask id="mask2_470_6" style="mask-type:luminance" maskUnits="userSpaceOnUse" x="56" y="1450" width="146" height="39">
<path d="M85.0002 1488.47H201.92V1450.92H58.7302C57.0802 1450.92 56.1702 1452.83 57.2002 1454.12L85.0002 1488.47Z" fill="white"/>
</mask>
<g mask="url(#mask2_470_6)">
<path d="M335.53 1488.45L57.5903 1488.47L57.5803 1467.39C64.7903 1467.39 71.1503 1471.02 74.9503 1476.54C78.7503 1471.01 85.1103 1467.39 92.3203 1467.39C99.5303 1467.39 105.89 1471.02 109.69 1476.54C113.49 1471.01 119.85 1467.39 127.06 1467.39C134.27 1467.39 140.63 1471.02 144.43 1476.54C148.23 1471.01 154.59 1467.39 161.8 1467.39C169.01 1467.39 175.37 1471.02 179.17 1476.54C182.97 1471.01 189.33 1467.39 196.54 1467.39C203.75 1467.39 210.11 1471.02 213.91 1476.54C214.23 1476.07 214.6 1475.64 214.96 1475.19C215 1475.15 215.03 1475.1 215.07 1475.05C215.45 1474.59 215.85 1474.16 216.26 1473.74C216.35 1473.65 216.44 1473.56 216.53 1473.47C216.95 1473.05 217.39 1472.66 217.84 1472.28C217.9 1472.23 217.97 1472.18 218.03 1472.13C220.04 1470.5 222.34 1469.23 224.87 1468.43C224.97 1468.4 225.06 1468.37 225.16 1468.34C225.74 1468.16 226.34 1468.01 226.94 1467.88C227.05 1467.86 227.17 1467.84 227.29 1467.81C228.59 1467.56 229.92 1467.39 231.29 1467.39C237.61 1467.39 243.28 1470.18 247.14 1474.59C247.68 1475.21 248.19 1475.86 248.66 1476.54C252.46 1471.01 258.82 1467.39 266.03 1467.39C272.35 1467.39 278.02 1470.18 281.88 1474.59C282.42 1475.21 282.93 1475.86 283.4 1476.54C287.2 1471.01 293.56 1467.39 300.77 1467.39C307.98 1467.39 314.34 1471.02 318.14 1476.54C321.94 1471.01 328.3 1467.39 335.51 1467.39L335.53 1488.45Z" fill="#603835"/>
</g>
<path d="M126.43 1794.7H201.92V1566.4H181.05C150.88 1566.4 126.42 1590.86 126.42 1621.03V1794.7H126.43Z" fill="#9B6027"/>
<path d="M138.48 1779.1H201.92V1576.93H184.38C159.03 1576.93 138.47 1597.48 138.47 1622.84V1779.1H138.48Z" fill="#603835"/>
<path d="M201.92 2066.55H87.8202V1967.09C84.5402 1939.3 72.0602 1928.43 72.0602 1928.43H87.8202V1913.23H201.92V2066.55Z" fill="#CB862A"/>
<path d="M201.92 1929.41H65.1402C65.1402 1929.41 25.6002 1930.34 41.6402 1895.28C53.2402 1869.92 40.0602 1863.88 31.8802 1862.48C35.1102 1865.17 37.1702 1869.21 37.1702 1873.74C37.1702 1881.83 30.6202 1888.38 22.5302 1888.38C21.9602 1888.38 21.4002 1888.34 20.8402 1888.28L20.8502 1888.29C20.8502 1888.29 -3.48982 1887.17 0.430176 1857.24C4.35018 1827.31 35.4002 1834.02 35.4002 1834.02C35.4002 1834.02 62.5402 1835.89 64.7802 1860.84C67.0202 1885.78 157.1 1888.3 157.1 1888.3H201.93V1929.41H201.92Z" fill="#7C433E"/>
<path d="M87.6802 2101.75H201.92V2510.24H87.6802V2101.75Z" fill="#CB862A"/>
<path d="M85.0002 2102.6H201.92V2065.05H58.7302C57.0802 2065.05 56.1702 2066.96 57.2002 2068.25L85.0002 2102.6Z" fill="#9B6027"/>
<path d="M86.0302 2117.6H201.93V2101.75H86.0302C81.6502 2101.75 78.1102 2105.3 78.1102 2109.67C78.1002 2114.05 81.6502 2117.6 86.0302 2117.6Z" fill="#9B6027"/>
<mask id="mask3_470_6" style="mask-type:luminance" maskUnits="userSpaceOnUse" x="56" y="2065" width="146" height="38">
<path d="M85.0002 2102.6H201.92V2065.05H58.7302C57.0802 2065.05 56.1702 2066.96 57.2002 2068.25L85.0002 2102.6Z" fill="white"/>
</mask>
<g mask="url(#mask3_470_6)">
<path d="M335.53 2102.58L57.5903 2102.6L57.5803 2081.52C64.7903 2081.52 71.1503 2085.15 74.9503 2090.67C78.7503 2085.14 85.1103 2081.52 92.3203 2081.52C99.5303 2081.52 105.89 2085.15 109.69 2090.67C113.49 2085.14 119.85 2081.52 127.06 2081.52C134.27 2081.52 140.63 2085.15 144.43 2090.67C148.23 2085.14 154.59 2081.52 161.8 2081.52C169.01 2081.52 175.37 2085.15 179.17 2090.67C182.97 2085.14 189.33 2081.52 196.54 2081.52C203.75 2081.52 210.11 2085.15 213.91 2090.67C214.23 2090.2 214.6 2089.77 214.96 2089.32C215 2089.28 215.03 2089.23 215.07 2089.18C215.45 2088.72 215.85 2088.29 216.26 2087.87C216.35 2087.78 216.44 2087.69 216.53 2087.6C216.95 2087.18 217.39 2086.79 217.84 2086.41C217.9 2086.36 217.97 2086.31 218.03 2086.26C220.04 2084.63 222.34 2083.36 224.87 2082.56C224.97 2082.53 225.06 2082.5 225.16 2082.47C225.74 2082.29 226.34 2082.14 226.94 2082.01C227.05 2081.99 227.17 2081.97 227.29 2081.94C228.59 2081.69 229.92 2081.52 231.29 2081.52C237.61 2081.52 243.28 2084.31 247.14 2088.72C247.68 2089.34 248.19 2089.99 248.66 2090.67C252.46 2085.14 258.82 2081.52 266.03 2081.52C272.35 2081.52 278.02 2084.31 281.88 2088.72C282.42 2089.34 282.93 2089.99 283.4 2090.67C287.2 2085.14 293.56 2081.52 300.77 2081.52C307.98 2081.52 314.34 2085.15 318.14 2090.67C321.94 2085.14 328.3 2081.52 335.51 2081.52L335.53 2102.58Z" fill="#603835"/>
</g>
<path d="M126.43 2408.83H201.92V2180.53H181.05C150.88 2180.53 126.42 2204.99 126.42 2235.16V2408.83H126.43Z" fill="#9B6027"/>
<path d="M138.48 2393.24H201.92V2191.07H184.38C159.03 2191.07 138.47 2211.62 138.47 2236.98V2393.24H138.48Z" fill="#603835"/>
<path d="M85.63 153.28C85.63 153.28 85.73 151.44 86.44 149.38C87.15 147.32 87.5 148.29 87.5 148.29C98.05 160.2 114.71 167.45 133.81 170.45C139.9 171.41 146.05 172.26 152.24 172.84C152.25 172.84 152.25 172.84 152.26 172.84C171.39 174.37 197.59 166.91 210.59 162.68L211.35 162.27C211.2 162.38 211.03 162.48 210.87 162.59C215.66 161.03 218.58 159.93 218.58 159.93V167.23L221 189.36C190.06 197.33 153.82 188.15 153.82 188.15C153.82 188.15 153.79 188.13 153.74 188.1C141.83 186.49 130.27 183.5 119.68 179.24C114.55 177.18 109.65 174.82 104.86 172.36C94.51 167.02 84.91 162.53 85.63 153.28Z" fill="#307F4C"/>
<path d="M113.21 166.6C113.21 166.6 134.68 167.03 122.9 134.99C122.9 135 96.1099 154.8 113.21 166.6Z" fill="#6B9660"/>
<path d="M88.9999 165.02C88.9999 165.02 90.7999 143.62 58.0799 153.33C58.0799 153.32 76.1299 181.33 88.9999 165.02Z" fill="#6B9660"/>
<path d="M140.09 182.69C140.09 182.69 119.78 166.36 107.35 205.87C107.35 205.87 147.76 206.71 140.09 182.69Z" fill="#6B9660"/>
<path d="M155.61 529.3C155.61 529.3 132.96 530.84 147.98 564.49C147.97 564.49 174.59 540.51 155.61 529.3Z" fill="#6B9660"/>
<path d="M38.46 523.92C39.07 518.51 42.72 511.19 49.32 512.68C52.26 513.34 54.68 515.92 55.43 518.8C56.29 522.12 55.27 525.62 53.46 528.43C51.94 530.79 48.14 528.6 49.67 526.22C50.89 524.33 51.86 521.93 51.11 519.67C50.63 518.2 49.14 516.72 47.49 516.88C45.61 517.06 44.35 519.12 43.7 520.69C42.96 522.47 42.7 524.27 42.72 526.16C42.76 529.59 43.96 533.19 46.44 535.59C49.02 538.09 52.94 538.62 56.38 537.09C65.55 533.01 68.46 521.34 69.4 512.33C70.45 502.15 69.53 491.88 70.85 481.72C71.39 477.52 72.29 473.27 73.73 469.24C73.65 451.64 75.65 438.33 77.01 431.39C73.02 420.52 70.39 408.85 75.45 397.85C80.68 386.49 93.05 380.64 103.7 375.49C104.09 375.3 104.49 375.12 104.88 374.93C116.79 358.85 130.62 345.17 144.56 333.73C135.72 332.07 127.1 329.25 119 325.33C114.23 323.02 109.66 320.34 105.17 317.52C95.47 311.41 86.52 306.32 86.52 294.77C86.52 294.77 86.48 292.48 86.98 289.88C87.48 287.28 87.85 288.47 87.85 288.47C98.18 302.75 113.69 310.92 131.1 313.69C143.23 315.62 155.62 316.95 167.79 315.27C168.63 315.15 169.47 315.02 170.31 314.87C198.34 296.53 221.74 287.53 223.45 286.14V326.03C223.45 326.03 187.96 317.85 140.83 368.65C140.2 372.24 140.41 376.05 141.24 379.42C142.24 383.46 144 388.45 148.09 390.29C151.95 392.03 156.29 388.71 157.76 385.18C158.48 383.45 158.58 381.09 157.25 379.61C156.76 379.06 155.82 378.54 155.11 378.95C154.65 379.22 154.31 380.01 154.53 380.47C154.92 381.29 154.76 382.29 153.93 382.78C153.2 383.21 152.02 383 151.62 382.18C150.42 379.65 151.67 376.24 154.57 375.58C157.57 374.9 160.12 377.05 161.14 379.72C163.22 385.17 158.94 391.23 154.03 393.37C151.27 394.57 148.27 394.34 145.68 392.82C143.12 391.32 141.28 388.84 140.05 386.19C138.12 382.05 137.05 377.42 137.06 372.82C133.68 376.64 130.25 380.75 126.77 385.21C111.51 404.73 101.87 426.69 95.84 448.02C97.84 456.19 102.05 466.96 114.16 478.62C139.44 502.96 179.14 517.99 203.23 543.08C221.41 562.01 228.85 586.07 223.19 607.62C220.99 616.01 216.51 624.4 207.42 629.31C211.98 616.03 215.83 601.94 210.88 588.13C208.79 582.3 205.22 576.81 200.84 571.61C202.38 581.1 201.02 591.09 195.62 599.22C192.55 603.84 188.37 607.54 183.38 609.96C177.97 612.58 171.54 614.45 165.49 613.73C159.92 613.07 155.17 610.21 151.91 605.65C148.74 601.22 147.81 595.59 148.89 590.29C150.12 584.22 154.27 578.43 160.14 576.16C165.8 573.97 172.52 576.36 174.71 582.19C175.18 583.45 174.18 584.93 172.96 585.27C171.56 585.66 170.36 584.79 169.88 583.52C168.6 580.1 164.01 579.74 161.17 581.13C157.25 583.04 154.72 587.07 153.78 591.23C151.92 599.53 157.72 608.19 166.39 608.81C171.23 609.16 176.31 607.8 180.66 605.72C184.71 603.79 188.27 601.01 190.86 597.32C196.17 589.76 197.51 580.21 195.72 571.26C195.22 568.75 194.5 566.28 193.62 563.88C190.98 561.29 188.2 558.76 185.38 556.3C173.24 545.69 160.07 535.71 146.01 526.49C132.7 517.76 118.26 509.89 107.12 499.51C98.8 491.76 93.09 484.25 89.38 478.39C83.62 517.48 88.07 548.47 88.07 548.47C80.06 526.61 76.19 506.16 74.62 488.46C74.08 498.27 74.75 508.14 73.01 517.86C72.02 523.38 70.25 529.1 66.89 533.66C63.67 538.03 59.14 541.72 53.57 542.3C43.53 543.33 37.45 532.86 38.46 523.92ZM77.89 415.52C78.16 417.96 78.68 420.36 79.33 422.72C84.34 408.36 91.09 395.28 98.95 383.4C96.76 384.55 94.61 385.76 92.53 387.07C88.05 389.9 83.8 393.36 81.04 397.96C77.88 403.26 77.23 409.49 77.89 415.52Z" fill="#307F4C"/>
<path d="M106.34 318.81C106.34 318.81 85.7501 297.14 65.5601 340.16C65.5701 340.16 111.4 347.3 106.34 318.81Z" fill="#6B9660"/>
<path d="M133.81 316.29C133.81 316.29 161.74 305.61 129.78 270.44C129.78 270.44 105.56 310 133.81 316.29Z" fill="#6B9660"/>
<path d="M74.9299 456.32C74.9299 456.32 54.3399 434.65 34.1499 477.67C34.1499 477.67 79.9799 484.81 74.9299 456.32Z" fill="#6B9660"/>
<path d="M132.78 495.71C132.78 495.71 157.01 511.67 167.78 465.83C167.78 465.83 122.15 469.63 132.78 495.71Z" fill="#6B9660"/>
<path d="M114.26 504.06C114.26 504.06 97.2899 508.48 113.37 532.73C113.37 532.73 130.22 510.15 114.26 504.06Z" fill="#6B9660"/>
<path d="M155.17 1138.99C155.17 1138.99 132.52 1140.53 147.54 1174.18C147.54 1174.18 174.16 1150.19 155.17 1138.99Z" fill="#6B9660"/>
<path d="M38.03 1133.6C38.64 1128.19 42.29 1120.87 48.89 1122.36C51.83 1123.02 54.25 1125.6 55 1128.48C55.86 1131.8 54.84 1135.3 53.03 1138.11C51.51 1140.47 47.71 1138.28 49.24 1135.9C50.46 1134.01 51.43 1131.61 50.68 1129.35C50.2 1127.88 48.71 1126.4 47.06 1126.56C45.18 1126.74 43.92 1128.8 43.27 1130.37C42.53 1132.15 42.27 1133.95 42.29 1135.84C42.33 1139.27 43.53 1142.87 46.01 1145.27C48.59 1147.77 52.51 1148.3 55.95 1146.77C65.12 1142.69 68.03 1131.02 68.97 1122.01C70.02 1111.83 69.1 1101.56 70.42 1091.4C70.96 1087.2 71.86 1082.95 73.3 1078.92C73.22 1061.32 75.22 1048.01 76.58 1041.07C72.59 1030.2 69.96 1018.53 75.02 1007.53C80.25 996.17 92.62 990.32 103.27 985.17C103.66 984.98 104.06 984.8 104.45 984.61C116.36 968.53 130.19 954.85 144.13 943.41C135.29 941.75 126.67 938.93 118.57 935.01C113.8 932.7 109.23 930.02 104.74 927.2C95.04 921.09 86.09 916 86.09 904.45C86.09 904.45 86.05 902.16 86.55 899.56C87.05 896.96 87.42 898.15 87.42 898.15C97.75 912.43 113.26 920.6 130.67 923.37C142.8 925.3 155.19 926.63 167.36 924.95C168.2 924.83 169.04 924.7 169.88 924.55C197.91 906.21 221.31 897.21 223.02 895.82V935.71C223.02 935.71 187.53 927.53 140.4 978.33C139.77 981.92 139.98 985.73 140.81 989.1C141.81 993.14 143.57 998.13 147.66 999.97C151.52 1001.71 155.86 998.39 157.33 994.86C158.05 993.13 158.15 990.77 156.82 989.29C156.33 988.74 155.39 988.22 154.68 988.63C154.22 988.9 153.88 989.69 154.1 990.15C154.49 990.97 154.33 991.97 153.5 992.46C152.77 992.89 151.59 992.68 151.19 991.86C149.99 989.33 151.24 985.92 154.14 985.26C157.14 984.58 159.69 986.73 160.71 989.4C162.79 994.85 158.51 1000.91 153.6 1003.05C150.84 1004.25 147.84 1004.02 145.25 1002.5C142.69 1001 140.85 998.52 139.62 995.87C137.69 991.73 136.62 987.1 136.63 982.5C133.25 986.32 129.82 990.43 126.34 994.89C111.08 1014.41 101.44 1036.37 95.41 1057.7C97.41 1065.87 101.62 1076.64 113.73 1088.3C139.01 1112.64 178.71 1127.67 202.8 1152.76C220.98 1171.69 228.42 1195.75 222.76 1217.3C220.56 1225.69 216.08 1234.08 206.99 1238.99C211.55 1225.71 215.4 1211.62 210.45 1197.81C208.36 1191.98 204.79 1186.49 200.41 1181.29C201.95 1190.78 200.59 1200.77 195.19 1208.9C192.12 1213.52 187.94 1217.22 182.95 1219.64C177.54 1222.26 171.11 1224.13 165.06 1223.41C159.49 1222.75 154.74 1219.89 151.48 1215.33C148.31 1210.9 147.38 1205.27 148.46 1199.97C149.69 1193.9 153.84 1188.11 159.71 1185.84C165.37 1183.65 172.09 1186.04 174.28 1191.87C174.75 1193.13 173.75 1194.61 172.53 1194.95C171.13 1195.34 169.93 1194.47 169.45 1193.2C168.17 1189.78 163.58 1189.42 160.74 1190.81C156.82 1192.72 154.29 1196.75 153.35 1200.91C151.49 1209.21 157.29 1217.87 165.96 1218.49C170.8 1218.84 175.88 1217.48 180.23 1215.4C184.28 1213.47 187.84 1210.69 190.43 1207C195.74 1199.44 197.08 1189.89 195.29 1180.94C194.79 1178.43 194.07 1175.96 193.19 1173.56C190.55 1170.97 187.77 1168.44 184.95 1165.98C172.81 1155.37 159.64 1145.39 145.58 1136.17C132.27 1127.44 117.83 1119.57 106.69 1109.19C98.37 1101.44 92.66 1093.93 88.95 1088.07C83.19 1127.16 87.64 1158.15 87.64 1158.15C79.63 1136.29 75.76 1115.84 74.19 1098.14C73.65 1107.95 74.32 1117.82 72.58 1127.54C71.59 1133.06 69.82 1138.78 66.46 1143.34C63.24 1147.71 58.71 1151.4 53.14 1151.98C43.1 1153.02 37.02 1142.55 38.03 1133.6ZM77.46 1025.21C77.73 1027.65 78.25 1030.05 78.9 1032.41C83.91 1018.05 90.66 1004.97 98.52 993.09C96.33 994.24 94.18 995.45 92.1 996.76C87.62 999.59 83.37 1003.05 80.61 1007.65C77.44 1012.94 76.79 1019.17 77.46 1025.21Z" fill="#307F4C"/>
<path d="M105.91 928.49C105.91 928.49 85.3202 906.82 65.1302 949.84C65.1302 949.84 110.96 956.98 105.91 928.49Z" fill="#6B9660"/>
<path d="M133.37 925.97C133.37 925.97 161.3 915.29 129.34 880.12C129.34 880.12 105.13 919.68 133.37 925.97Z" fill="#6B9660"/>
<path d="M74.49 1066.01C74.49 1066.01 53.9 1044.34 33.71 1087.36C33.72 1087.35 79.55 1094.5 74.49 1066.01Z" fill="#6B9660"/>
<path d="M132.34 1105.4C132.34 1105.4 156.57 1121.36 167.34 1075.52C167.34 1075.51 121.71 1079.31 132.34 1105.4Z" fill="#6B9660"/>
<path d="M113.83 1113.74C113.83 1113.74 96.8599 1118.16 112.94 1142.41C112.93 1142.42 129.78 1119.84 113.83 1113.74Z" fill="#6B9660"/>
<path d="M85.9801 757.89C85.9801 757.89 86.0801 756.05 86.7901 753.99C87.5001 751.93 87.8501 752.9 87.8501 752.9C98.4001 764.81 115.06 772.06 134.16 775.06C140.25 776.02 146.4 776.87 152.59 777.45C152.6 777.45 152.6 777.45 152.61 777.45C171.74 778.98 197.94 771.52 210.94 767.29L211.7 766.88C211.55 766.99 211.38 767.09 211.22 767.2C216.01 765.64 218.93 764.54 218.93 764.54V771.84L221.35 793.97C190.41 801.94 154.17 792.76 154.17 792.76C154.17 792.76 154.14 792.74 154.09 792.71C142.18 791.1 130.62 788.11 120.03 783.85C114.9 781.79 110 779.43 105.21 776.97C94.8501 771.62 85.2601 767.14 85.9801 757.89Z" fill="#307F4C"/>
<path d="M113.56 771.2C113.56 771.2 135.03 771.63 123.25 739.59C123.25 739.6 96.45 759.4 113.56 771.2Z" fill="#6B9660"/>
<path d="M89.35 769.62C89.35 769.62 91.15 748.22 58.43 757.93C58.43 757.93 76.47 785.93 89.35 769.62Z" fill="#6B9660"/>
<path d="M140.43 787.29C140.43 787.29 120.12 770.96 107.69 810.47C107.69 810.47 148.11 811.31 140.43 787.29Z" fill="#6B9660"/>
<path d="M84.5699 1378.32C84.5699 1378.32 84.6699 1376.48 85.3799 1374.42C86.0899 1372.36 86.4399 1373.33 86.4399 1373.33C96.9899 1385.24 113.65 1392.49 132.75 1395.49C138.84 1396.45 144.99 1397.3 151.18 1397.88C151.19 1397.88 151.19 1397.88 151.2 1397.88C170.33 1399.41 196.53 1391.95 209.53 1387.72L210.29 1387.31C210.14 1387.42 209.97 1387.52 209.81 1387.63C214.6 1386.07 217.52 1384.96 217.52 1384.96V1392.26L219.94 1414.39C189 1422.36 152.76 1413.18 152.76 1413.18C152.76 1413.18 152.73 1413.16 152.68 1413.13C140.77 1411.52 129.21 1408.53 118.62 1404.27C113.49 1402.21 108.59 1399.85 103.8 1397.39C93.4499 1392.06 83.8499 1387.57 84.5699 1378.32Z" fill="#307F4C"/>
<path d="M112.15 1391.64C112.15 1391.64 133.62 1392.07 121.84 1360.03C121.84 1360.03 95.0499 1379.84 112.15 1391.64Z" fill="#6B9660"/>
<path d="M87.9398 1390.06C87.9398 1390.06 89.7398 1368.66 57.0198 1378.37C57.0198 1378.36 75.0598 1406.37 87.9398 1390.06Z" fill="#6B9660"/>
<path d="M139.02 1407.73C139.02 1407.73 118.71 1391.4 106.28 1430.91C106.28 1430.91 146.7 1431.75 139.02 1407.73Z" fill="#6B9660"/>
<path d="M154.43 1757.46C154.43 1757.46 131.78 1759 146.8 1792.65C146.8 1792.65 173.42 1768.67 154.43 1757.46Z" fill="#6B9660"/>
<path d="M37.2901 1752.08C37.9001 1746.67 41.55 1739.35 48.15 1740.84C51.09 1741.5 53.5101 1744.08 54.2601 1746.96C55.1201 1750.28 54.1001 1753.78 52.2901 1756.59C50.7701 1758.95 46.97 1756.76 48.5 1754.38C49.72 1752.49 50.69 1750.09 49.94 1747.83C49.46 1746.36 47.9701 1744.88 46.3201 1745.04C44.4401 1745.22 43.18 1747.28 42.53 1748.85C41.79 1750.63 41.53 1752.43 41.55 1754.32C41.59 1757.75 42.79 1761.35 45.27 1763.75C47.85 1766.25 51.77 1766.78 55.21 1765.25C64.38 1761.17 67.2901 1749.5 68.2301 1740.49C69.2801 1730.31 68.36 1720.04 69.68 1709.88C70.22 1705.68 71.12 1701.43 72.56 1697.4C72.48 1679.8 74.48 1666.49 75.84 1659.55C71.85 1648.68 69.22 1637.01 74.28 1626.01C79.51 1614.65 91.8801 1608.8 102.53 1603.65C102.92 1603.46 103.32 1603.28 103.71 1603.09C115.62 1587.01 129.45 1573.33 143.39 1561.89C134.55 1560.23 125.93 1557.41 117.83 1553.49C113.06 1551.18 108.49 1548.5 104 1545.68C94.3001 1539.57 85.3501 1534.48 85.3501 1522.94C85.3501 1522.94 85.31 1520.65 85.81 1518.05C86.31 1515.45 86.68 1516.64 86.68 1516.64C97.01 1530.92 112.52 1539.09 129.93 1541.86C142.06 1543.79 154.45 1545.12 166.62 1543.44C167.46 1543.32 168.3 1543.19 169.14 1543.04C197.17 1524.7 220.57 1515.7 222.28 1514.31V1554.2C222.28 1554.2 186.79 1546.02 139.66 1596.82C139.03 1600.41 139.24 1604.22 140.07 1607.59C141.07 1611.63 142.83 1616.62 146.92 1618.46C150.78 1620.2 155.12 1616.88 156.59 1613.35C157.31 1611.62 157.41 1609.26 156.08 1607.78C155.59 1607.23 154.65 1606.71 153.94 1607.12C153.48 1607.39 153.14 1608.18 153.36 1608.64C153.75 1609.46 153.59 1610.46 152.76 1610.95C152.03 1611.38 150.85 1611.17 150.45 1610.35C149.25 1607.82 150.5 1604.41 153.4 1603.75C156.4 1603.07 158.95 1605.22 159.97 1607.89C162.05 1613.34 157.77 1619.4 152.86 1621.54C150.1 1622.74 147.1 1622.51 144.51 1620.99C141.95 1619.49 140.11 1617.01 138.88 1614.36C136.95 1610.22 135.88 1605.59 135.89 1600.99C132.51 1604.81 129.08 1608.92 125.6 1613.38C110.34 1632.9 100.7 1654.86 94.67 1676.19C96.67 1684.36 100.88 1695.13 112.99 1706.79C138.27 1731.13 177.97 1746.16 202.06 1771.25C220.24 1790.18 227.68 1814.24 222.02 1835.79C219.82 1844.18 215.34 1852.57 206.25 1857.48C210.81 1844.2 214.66 1830.11 209.71 1816.3C207.62 1810.47 204.05 1804.98 199.67 1799.78C201.21 1809.27 199.85 1819.26 194.45 1827.39C191.38 1832.01 187.2 1835.71 182.21 1838.13C176.8 1840.75 170.37 1842.62 164.32 1841.9C158.75 1841.24 154 1838.38 150.74 1833.82C147.57 1829.39 146.64 1823.76 147.72 1818.46C148.95 1812.39 153.1 1806.6 158.97 1804.33C164.63 1802.14 171.35 1804.53 173.54 1810.36C174.01 1811.62 173.01 1813.1 171.79 1813.44C170.39 1813.83 169.19 1812.96 168.71 1811.69C167.43 1808.27 162.84 1807.91 160 1809.3C156.08 1811.21 153.55 1815.24 152.61 1819.4C150.75 1827.7 156.55 1836.36 165.22 1836.98C170.06 1837.33 175.14 1835.97 179.49 1833.89C183.54 1831.96 187.1 1829.18 189.69 1825.49C195 1817.93 196.34 1808.38 194.55 1799.43C194.05 1796.92 193.33 1794.45 192.45 1792.05C189.81 1789.46 187.03 1786.93 184.21 1784.47C172.07 1773.86 158.9 1763.88 144.84 1754.66C131.53 1745.93 117.09 1738.06 105.95 1727.68C97.6301 1719.93 91.92 1712.42 88.21 1706.56C82.45 1745.65 86.9 1776.64 86.9 1776.64C78.89 1754.78 75.0201 1734.33 73.4501 1716.63C72.9101 1726.44 73.58 1736.31 71.84 1746.03C70.85 1751.55 69.08 1757.27 65.72 1761.83C62.5 1766.2 57.97 1769.89 52.4 1770.47C42.36 1771.49 36.2801 1761.02 37.2901 1752.08ZM76.72 1643.68C76.99 1646.12 77.51 1648.52 78.16 1650.88C83.17 1636.52 89.9201 1623.44 97.7801 1611.56C95.5901 1612.71 93.44 1613.92 91.36 1615.23C86.88 1618.06 82.63 1621.52 79.87 1626.12C76.7 1631.42 76.05 1637.65 76.72 1643.68Z" fill="#307F4C"/>
<path d="M105.17 1546.97C105.17 1546.97 84.5802 1525.3 64.3902 1568.32C64.3902 1568.32 110.22 1575.46 105.17 1546.97Z" fill="#6B9660"/>
<path d="M132.63 1544.45C132.63 1544.45 160.56 1533.77 128.6 1498.6C128.6 1498.6 104.39 1538.16 132.63 1544.45Z" fill="#6B9660"/>
<path d="M73.75 1684.49C73.75 1684.49 53.16 1662.82 32.97 1705.84C32.98 1705.83 78.81 1712.98 73.75 1684.49Z" fill="#6B9660"/>
<path d="M131.6 1723.88C131.6 1723.88 155.83 1739.84 166.6 1694C166.6 1693.99 120.97 1697.79 131.6 1723.88Z" fill="#6B9660"/>
<path d="M113.09 1732.22C113.09 1732.22 96.1199 1736.64 112.2 1760.89C112.19 1760.89 129.04 1738.31 113.09 1732.22Z" fill="#6B9660"/>
<path d="M84.5699 1996.44C84.5699 1996.44 84.6699 1994.6 85.3799 1992.54C86.0899 1990.48 86.4399 1991.45 86.4399 1991.45C96.9899 2003.36 113.65 2010.61 132.75 2013.61C138.84 2014.57 144.99 2015.42 151.18 2016C151.19 2016 151.19 2016 151.2 2016C170.33 2017.53 196.53 2010.07 209.53 2005.84L210.29 2005.43C210.14 2005.54 209.97 2005.64 209.81 2005.75C214.6 2004.19 217.52 2003.08 217.52 2003.08V2010.38L219.94 2032.51C189 2040.48 152.76 2031.3 152.76 2031.3C152.76 2031.3 152.73 2031.28 152.68 2031.25C140.77 2029.64 129.21 2026.65 118.62 2022.39C113.49 2020.33 108.59 2017.97 103.8 2015.51C93.4499 2010.17 83.8499 2005.68 84.5699 1996.44Z" fill="#307F4C"/>
<path d="M112.15 2009.75C112.15 2009.75 133.62 2010.18 121.84 1978.14C121.84 1978.15 95.0499 1997.95 112.15 2009.75Z" fill="#6B9660"/>
<path d="M87.9398 2008.17C87.9398 2008.17 89.7398 1986.77 57.0198 1996.48C57.0198 1996.47 75.0598 2024.48 87.9398 2008.17Z" fill="#6B9660"/>
<path d="M139.02 2025.84C139.02 2025.84 118.71 2009.51 106.28 2049.02C106.28 2049.02 146.7 2049.86 139.02 2025.84Z" fill="#6B9660"/>
<path d="M155.35 2371.6C155.35 2371.6 132.7 2373.14 147.72 2406.79C147.71 2406.79 174.33 2382.8 155.35 2371.6Z" fill="#6B9660"/>
<path d="M38.2 2366.21C38.81 2360.8 42.46 2353.48 49.06 2354.97C52 2355.63 54.42 2358.21 55.17 2361.09C56.03 2364.41 55.01 2367.91 53.2 2370.72C51.68 2373.08 47.88 2370.89 49.41 2368.51C50.63 2366.62 51.6 2364.22 50.85 2361.96C50.37 2360.49 48.88 2359.01 47.23 2359.17C45.35 2359.35 44.09 2361.41 43.44 2362.98C42.7 2364.76 42.4399 2366.56 42.4599 2368.45C42.4999 2371.88 43.6999 2375.48 46.1799 2377.88C48.7599 2380.38 52.6799 2380.91 56.1199 2379.38C65.2899 2375.3 68.1999 2363.63 69.1399 2354.62C70.1899 2344.44 69.27 2334.17 70.59 2324.01C71.13 2319.81 72.03 2315.56 73.47 2311.53C73.39 2293.93 75.39 2280.62 76.75 2273.68C72.76 2262.81 70.13 2251.14 75.19 2240.14C80.42 2228.78 92.79 2222.93 103.44 2217.78C103.83 2217.59 104.23 2217.41 104.62 2217.22C116.53 2201.14 130.36 2187.46 144.3 2176.02C135.46 2174.36 126.84 2171.54 118.74 2167.62C113.97 2165.31 109.4 2162.63 104.91 2159.81C95.21 2153.7 86.2599 2148.61 86.2599 2137.06C86.2599 2137.06 86.22 2134.77 86.72 2132.17C87.22 2129.57 87.59 2130.76 87.59 2130.76C97.92 2145.04 113.43 2153.21 130.84 2155.98C142.97 2157.91 155.36 2159.24 167.53 2157.56C168.37 2157.44 169.21 2157.31 170.05 2157.16C198.08 2138.82 221.48 2129.82 223.19 2128.43V2168.32C223.19 2168.32 187.7 2160.14 140.57 2210.94C139.94 2214.53 140.15 2218.34 140.98 2221.71C141.98 2225.75 143.74 2230.74 147.83 2232.58C151.69 2234.32 156.03 2231 157.5 2227.47C158.22 2225.74 158.32 2223.38 156.99 2221.9C156.5 2221.35 155.56 2220.83 154.85 2221.24C154.39 2221.51 154.05 2222.3 154.27 2222.76C154.66 2223.58 154.5 2224.58 153.67 2225.07C152.94 2225.5 151.76 2225.29 151.36 2224.47C150.16 2221.94 151.41 2218.53 154.31 2217.87C157.31 2217.19 159.86 2219.34 160.88 2222.01C162.96 2227.46 158.68 2233.52 153.77 2235.66C151.01 2236.86 148.01 2236.63 145.42 2235.11C142.86 2233.61 141.02 2231.13 139.79 2228.48C137.86 2224.34 136.79 2219.71 136.8 2215.11C133.42 2218.93 129.99 2223.05 126.51 2227.5C111.25 2247.02 101.61 2268.98 95.58 2290.31C97.58 2298.48 101.79 2309.25 113.9 2320.91C139.18 2345.25 178.88 2360.28 202.97 2385.37C221.15 2404.3 228.59 2428.36 222.93 2449.91C220.73 2458.3 216.25 2466.69 207.16 2471.6C211.72 2458.32 215.57 2444.23 210.62 2430.42C208.53 2424.59 204.96 2419.1 200.58 2413.9C202.12 2423.39 200.76 2433.38 195.36 2441.51C192.29 2446.13 188.11 2449.83 183.12 2452.25C177.71 2454.87 171.28 2456.74 165.23 2456.02C159.66 2455.36 154.91 2452.5 151.65 2447.94C148.48 2443.51 147.55 2437.88 148.63 2432.58C149.86 2426.51 154.01 2420.72 159.88 2418.45C165.54 2416.26 172.26 2418.65 174.45 2424.48C174.92 2425.74 173.92 2427.22 172.7 2427.56C171.3 2427.95 170.1 2427.08 169.62 2425.81C168.34 2422.39 163.75 2422.03 160.91 2423.42C156.99 2425.33 154.46 2429.36 153.52 2433.52C151.66 2441.82 157.46 2450.48 166.13 2451.1C170.97 2451.45 176.05 2450.09 180.4 2448.01C184.45 2446.08 188.01 2443.3 190.6 2439.61C195.91 2432.05 197.25 2422.5 195.46 2413.55C194.96 2411.04 194.24 2408.57 193.36 2406.17C190.72 2403.58 187.94 2401.05 185.12 2398.59C172.98 2387.98 159.81 2378 145.75 2368.78C132.44 2360.05 118 2352.18 106.86 2341.8C98.54 2334.05 92.8299 2326.54 89.1199 2320.68C83.3599 2359.77 87.81 2390.76 87.81 2390.76C79.8 2368.9 75.9299 2348.45 74.3599 2330.75C73.8199 2340.56 74.49 2350.43 72.75 2360.15C71.76 2365.67 69.99 2371.39 66.63 2375.95C63.41 2380.32 58.88 2384.01 53.31 2384.59C43.27 2385.62 37.19 2375.16 38.2 2366.21ZM77.63 2257.82C77.9 2260.26 78.42 2262.66 79.07 2265.02C84.08 2250.66 90.83 2237.58 98.69 2225.7C96.5 2226.85 94.35 2228.06 92.27 2229.37C87.79 2232.2 83.54 2235.66 80.78 2240.26C77.61 2245.55 76.97 2251.78 77.63 2257.82Z" fill="#307F4C"/>
<path d="M106.08 2161.1C106.08 2161.1 85.4899 2139.43 65.2999 2182.45C65.2999 2182.45 111.14 2189.59 106.08 2161.1Z" fill="#6B9660"/>
<path d="M133.54 2158.58C133.54 2158.58 161.47 2147.9 129.51 2112.73C129.51 2112.73 105.3 2152.29 133.54 2158.58Z" fill="#6B9660"/>
<path d="M74.6699 2298.62C74.6699 2298.62 54.0799 2276.95 33.8899 2319.97C33.8899 2319.96 79.7199 2327.11 74.6699 2298.62Z" fill="#6B9660"/>
<path d="M132.52 2338.01C132.52 2338.01 156.75 2353.97 167.52 2308.13C167.51 2308.12 121.88 2311.92 132.52 2338.01Z" fill="#6B9660"/>
<path d="M114 2346.35C114 2346.35 97.0299 2350.77 113.11 2375.02C113.1 2375.03 129.95 2352.45 114 2346.35Z" fill="#6B9660"/>
</svg>
