<svg id="Layer_1" data-name="Layer 1" xmlns="http://www.w3.org/2000/svg" xmlns:xlink="http://www.w3.org/1999/xlink" viewBox="0 0 381.79 392.33"><defs><style>.cls-1{fill:#9b6027;}.cls-2{fill:#cb862a;}.cls-3{fill:#7c433e;}.cls-4{fill:#603835;}.cls-5{fill:#a7cc60;}</style></defs><path class="cls-1" d="M311,296.93h-7.18V292H78.36v4.94H70.81s7.55,4.69,7.55,17.07v27.9H303.79V309.52C305.28,300.48,311,296.93,311,296.93Z" transform="translate(0 -0.78)"/><path class="cls-1" d="M285.63,191.67v-3.15H96.16v3.15H89s5.69,3.54,7.19,12.58v83.23H285.63V204.25c1.49-9,7.18-12.58,7.18-12.58Z" transform="translate(0 -0.78)"/><path class="cls-1" d="M264.76,125.06h-6.61v-13H123.62v13H117s5.21,3.54,6.59,12.58v40.15H258.15v-40C259.49,128.62,264.76,125.06,264.76,125.06Z" transform="translate(0 -0.78)"/><path class="cls-2" d="M368.66,295.89s-4.05-17.11-16.49-15.79-13.07,10.43-13.07,10.43-2.69,15.38,13.22,13.73a6.13,6.13,0,0,0,1.15-.14h.08a6.22,6.22,0,1,0-4.2-11.61c1-1.51,2.87-2.8,6.64-2.06,9.59,1.89,1.85,41.29-1.62,44.55l16.22-6.07,4.89-19.37Z" transform="translate(0 -0.78)"/><path class="cls-2" d="M12.79,296.69s4.05-17.11,16.49-15.79,13.07,10.43,13.07,10.43S45,306.71,29.13,305.06a6.13,6.13,0,0,1-1.15-.14H27.9a6.22,6.22,0,0,1,1.42-12.27,6.07,6.07,0,0,1,2.78.67c-1-1.51-2.87-2.81-6.64-2.06-9.59,1.88-1.85,41.29,1.63,44.54l-16.23-6.07L6,310.34Z" transform="translate(0 -0.78)"/><path class="cls-3" d="M253.26,55.48C248.88,46.29,238.53,51,238.53,51s-7.15,4.41-11.75-3.25,1.24-15.93,7.7-13.3a4.13,4.13,0,0,1,.89.48,3.82,3.82,0,0,0-1.84-.48,4,4,0,0,0,0,8,3.45,3.45,0,0,0,.72-.08l-.06.08s12.58-2,7-13.92c-4.44-9.54-15.09-4.12-16.78-3-1.87,1.24-2.74,2.11-3.82,2.85-4.2,2.89-13.94,6.95-29.74-1.1V97.5h48.59s5.46-9.18-1.4-17.66a10.66,10.66,0,0,1-2.14-4.26c-1-4.51-1.6-15,7.84-16a7.1,7.1,0,0,1,4.71,1.64A4,4,0,0,0,247,61a4,4,0,1,0,0,8,3.89,3.89,0,0,0,1.91-.51.3.3,0,0,1,0,.1S257.79,65,253.26,55.48Z" transform="translate(0 -0.78)"/><path class="cls-3" d="M161.16,28.35c-1.08-.74-1.95-1.61-3.82-2.85-1.69-1.13-12.34-6.55-16.78,3-5.54,11.92,7,13.92,7,13.92l-.07-.08a3.55,3.55,0,0,0,.73.08,4,4,0,0,0,0-8,3.89,3.89,0,0,0-1.85.48,4.47,4.47,0,0,1,.9-.48c6.46-2.63,12.29,5.64,7.69,13.3S143.26,51,143.26,51s-10.36-4.67-14.74,4.52C124,65,132.88,68.53,132.88,68.53l0-.1a3.86,3.86,0,0,0,1.91.51,4,4,0,1,0,0-8,3.91,3.91,0,0,0-1.46.28A7.08,7.08,0,0,1,138,59.59c9.44,1,8.85,11.48,7.84,16a10.55,10.55,0,0,1-2.15,4.26c-6.86,8.48-1.39,17.66-1.39,17.66h48.58V27.25C175.1,35.3,165.36,31.24,161.16,28.35Z" transform="translate(0 -0.78)"/><rect class="cls-1" x="129.14" y="90.57" width="123.52" height="17.83" rx="4.17"/><path class="cls-3" d="M368.4,295.88l0,0Z" transform="translate(0 -0.78)"/><path class="cls-3" d="M368.51,295.89c.21.26,1.49,2.46-1,15.94-6.9,37.64-46.78,30-46.78,30C242,321.1,199.29,322.72,190.89,323.32c-8.39-.6-51.14-2.22-129.85,18.48,0,0-39.89,7.67-46.78-30-2.47-13.48-1.19-15.68-1-15.94-.9,1-25,28-6,67.61,19.26,40.36,56,31,102.72,20.87,41.11-8.87,73.65-9.59,80.94-9.63s39.84.76,80.94,9.63c46.78,10.09,83.47,19.49,102.73-20.87C393.47,323.89,369.41,296.88,368.51,295.89Z" transform="translate(0 -0.78)"/><path class="cls-3" d="M13.19,295.91l0,0Z" transform="translate(0 -0.78)"/><path class="cls-3" d="M319.24,162.3c-1.61-12.27-14.33-9.52-14.33-9.52s-11.13.77-12,11S255,175,255,175H126.75s-36.91-1-37.83-11.25-12-11-12-11S64.16,150,62.55,162.3,70.92,175,70.92,175h0a5.12,5.12,0,0,0,.69,0,6,6,0,0,0,3.83-10.61c3.35.57,8.76,3.05,4,13.44-6.57,14.37,9.63,14,9.63,14H292.71s16.21.38,9.64-14c-4.76-10.39.64-12.87,4-13.44a6,6,0,0,0,3.83,10.61,5.32,5.32,0,0,0,.69,0h0S320.84,174.57,319.24,162.3Z" transform="translate(0 -0.78)"/><path class="cls-3" d="M294.35,91.3c-1.49-14.1-13.22-10.94-13.22-10.94S270.87,81.25,270,93s-34.9,12.93-34.9,12.93H146.67s-34.06-1.19-34.9-12.93-11.11-12.63-11.11-12.63S88.92,77.2,87.44,91.3s7.72,14.62,7.72,14.62h0a4.48,4.48,0,0,0,.64,0c3,0,5.53-3.08,5.53-6.89a7.64,7.64,0,0,0-2-5.3c3.1.66,8.08,3.5,3.69,15.44-6.06,16.51,8.89,16.07,8.89,16.07h158s14.95.44,8.88-16.07c-4.38-11.94.6-14.78,3.69-15.44a7.63,7.63,0,0,0-2,5.3c0,3.81,2.47,6.89,5.53,6.89a4.48,4.48,0,0,0,.64,0h0S295.83,105.39,294.35,91.3Z" transform="translate(0 -0.78)"/><path class="cls-3" d="M338.06,265.49c-1.71-13.07-15.26-10.14-15.26-10.14s-11.85.82-12.82,11.7-40.29,12-40.29,12H112.1s-39.31-1.1-40.29-12S59,255.35,59,255.35s-13.55-2.93-15.26,10.14S52.64,279,52.64,279h0a6,6,0,0,0,.74.05,6.39,6.39,0,0,0,4.08-11.31c3.57.62,9.32,3.25,4.26,14.32C54.72,297.39,72,297,72,297H309.81s17.26.41,10.26-14.89c-5.06-11.07.69-13.7,4.26-14.32a6.39,6.39,0,0,0,4.08,11.31,6,6,0,0,0,.74-.05h0S339.76,278.55,338.06,265.49Z" transform="translate(0 -0.78)"/><path class="cls-2" d="M190.89,37h0a27.59,27.59,0,0,1,27.59,27.59v27a0,0,0,0,1,0,0H163.31a0,0,0,0,1,0,0v-27A27.59,27.59,0,0,1,190.89,37Z"/><path class="cls-4" d="M190.89,46.37h0a19.86,19.86,0,0,1,19.86,19.86v26a0,0,0,0,1,0,0H171a0,0,0,0,1,0,0v-26a19.86,19.86,0,0,1,19.86-19.86Z"/><polygon class="cls-2" points="143.11 101.9 143.11 122.22 154.1 133.57 154.1 125.03 228.02 125.03 228.02 133.57 238.68 122.22 238.68 101.9 143.11 101.9"/><polygon class="cls-4" points="228.15 131.39 154.23 130.93 145.55 121.53 236.24 121.53 228.15 131.39"/><path class="cls-4" d="M148.3,135.59h0a15,15,0,0,1,15,15v23.75a0,0,0,0,1,0,0h-30a0,0,0,0,1,0,0V150.57A15,15,0,0,1,148.3,135.59Z"/><path class="cls-4" d="M233.49,135.66h0a15,15,0,0,1,15,15v23.75a0,0,0,0,1,0,0h-30a0,0,0,0,1,0,0V150.64A15,15,0,0,1,233.49,135.66Z"/><rect class="cls-2" x="153.93" y="124.51" width="73.92" height="49.74"/><path class="cls-1" d="M190.06,128.18h1.66A17.82,17.82,0,0,1,209.54,146v28.25a0,0,0,0,1,0,0h-37.3a0,0,0,0,1,0,0V146A17.82,17.82,0,0,1,190.06,128.18Z"/><path class="cls-4" d="M190.89,131.85h0a15,15,0,0,1,15,15v23.75a0,0,0,0,1,0,0h-30a0,0,0,0,1,0,0V146.83A15,15,0,0,1,190.89,131.85Z"/><polygon class="cls-2" points="111.87 183.97 111.87 204.29 124.21 220.13 130.06 207.1 252.3 207.1 257.82 220.13 269.92 204.29 269.92 183.97 111.87 183.97"/><polygon class="cls-4" points="257.82 215.08 124.21 215.08 115.91 203.6 265.88 203.6 257.82 215.08"/><rect class="cls-2" x="124.09" y="206.81" width="133.61" height="71.45"/><rect class="cls-4" x="139.07" y="220.82" width="103.64" height="57.45"/><rect class="cls-4" x="93.56" y="301.73" width="43.26" height="14.62"/><rect class="cls-4" x="144.08" y="301.86" width="43.26" height="14.62"/><rect class="cls-4" x="194.52" y="301.73" width="43.26" height="14.62"/><rect class="cls-4" x="244.97" y="301.73" width="43.26" height="14.62"/><circle class="cls-5" cx="190.89" cy="12.76" r="12.76"/><path class="cls-1" d="M190.89,26.18c-5.8-15.35-24.28-9.74-24.28-9.74a7.16,7.16,0,0,1,5.79,1.87,13.6,13.6,0,0,1,3,4.66,16.69,16.69,0,0,0,2.81,4.76c2.39,2.55,9.6,6,12.66,5.68,3.07.33,10.28-3.13,12.67-5.68A16.92,16.92,0,0,0,206.37,23a13.6,13.6,0,0,1,3-4.66,7.15,7.15,0,0,1,5.78-1.87S196.7,10.83,190.89,26.18Z" transform="translate(0 -0.78)"/><path class="cls-4" d="M111.87,197.31h158v-6.79a6.79,6.79,0,0,0-5.6,2.94,6.8,6.8,0,0,0-11.2,0,6.78,6.78,0,0,0-11.19,0,6.79,6.79,0,0,0-11.2,0,6.78,6.78,0,0,0-11.19,0,4.58,4.58,0,0,0-.34-.43l0,0a5.11,5.11,0,0,0-.39-.42l-.08-.09c-.14-.13-.28-.26-.43-.38l-.06,0a6.63,6.63,0,0,0-2.2-1.2l-.09,0-.58-.14-.11,0a6.07,6.07,0,0,0-1.29-.14,6.76,6.76,0,0,0-5.1,2.32,5.91,5.91,0,0,0-.49.63,6.79,6.79,0,0,0-10.71-.63,7.57,7.57,0,0,0-.49.63,6.79,6.79,0,0,0-11.19,0,6.79,6.79,0,0,0-5.6-2.94,7,7,0,0,0-1.67.21h0a6.91,6.91,0,0,0-.77.25h0a7,7,0,0,0-1.43.77h0c-.2.15-.39.3-.58.47l-.09.08-.46.46-.09.1c-.16.19-.32.39-.46.59h0a6.79,6.79,0,0,0-11.2,0,6.78,6.78,0,0,0-11.19,0,6.79,6.79,0,0,0-11.2,0,6.78,6.78,0,0,0-11.19,0,6.8,6.8,0,0,0-11.2,0,6.76,6.76,0,0,0-5.59-2.94,7.2,7.2,0,0,0-1.32.12" transform="translate(0 -0.78)"/><path class="cls-4" d="M238.7,108.66a6.2,6.2,0,0,0-4.79,2.32c-.16.2-.31.41-.45.62a6.25,6.25,0,0,0-5.25-2.94,6.15,6.15,0,0,0-4.78,2.31,5.64,5.64,0,0,0-.46.63,6.14,6.14,0,0,0-10.49,0,6.23,6.23,0,0,0-5.24-2.95,5.76,5.76,0,0,0-1.56.22h0c-.25.07-.48.15-.72.24h0a5.93,5.93,0,0,0-1.34.76h0a6,6,0,0,0-.54.46l-.09.09c-.15.14-.29.3-.43.46l-.08.1a6.36,6.36,0,0,0-.43.59h0a6.13,6.13,0,0,0-10.48,0,6.14,6.14,0,0,0-10.49,0,6.14,6.14,0,0,0-10.49,0,6.14,6.14,0,0,0-10.48,0,6.14,6.14,0,0,0-10.49,0,6.09,6.09,0,0,0-6.47-2.82v6.66h95.57" transform="translate(0 -0.78)"/><image width="3356" height="3356" transform="translate(149.01 208.97) scale(0.02)" xlink:href="../Logo%20UMN%20ECO%20(1).png"/></svg>