<svg id="Layer_1" data-name="Layer 1" xmlns="http://www.w3.org/2000/svg" viewBox="0 0 75.71 73.14"><defs><style>.cls-1{fill:#284c3f;}.cls-2{fill:#b7d47f;}</style></defs><path class="cls-1" d="M74.09,40.63,48.33,14.41a5.64,5.64,0,0,0-4.21-1.69l-22.21.73a5.64,5.64,0,0,0-5.44,5.35L15.35,41A5.64,5.64,0,0,0,17,45.23L42.73,71.45a5.64,5.64,0,0,0,8,.07L74,48.6A5.63,5.63,0,0,0,74.09,40.63ZM26.38,28.39a4.89,4.89,0,1,1,4.89-4.89A4.89,4.89,0,0,1,26.38,28.39Z"/><path class="cls-1" d="M20.74,31c-5,0-11.26-3.36-15.28-8.29A23.57,23.57,0,0,1,.15,11.28c-.56-4.08.49-7.44,3-9.45s6-2.38,9.85-1A23.74,23.74,0,0,1,23.09,8.28c4.33,5.3,6.29,11.56,5.12,16.32a1.5,1.5,0,1,1-2.91-.72c.93-3.8-.85-9.18-4.54-13.7A20.58,20.58,0,0,0,12,3.64c-2.86-1-5.33-.82-7,.51S2.71,7.86,3.12,10.87A20.68,20.68,0,0,0,7.78,20.8c4,4.87,9.68,7.29,13.23,7.18h0a1.5,1.5,0,0,1,.05,3Z"/><path class="cls-2" d="M45.52,32.4l-3,4.81-5.65-3.32L40,29.27s1.44-1.51,3.56.37A8.09,8.09,0,0,1,45.52,32.4Z"/><path class="cls-2" d="M46.24,36.69h5.89l3.15-5.19-1.81,1-1.55-2.79a4.13,4.13,0,0,0-2.1-1.29H42.36a5.41,5.41,0,0,1,2.73,2.23c.94,1.64,2.78,5,2.78,5Z"/><path class="cls-2" d="M53,45.1l-2.7-5L56,36.89l2.46,5s.59,2-2.1,2.9A7.9,7.9,0,0,1,53,45.1Z"/><path class="cls-2" d="M48.85,44l-2.74,5.21,3.13,5.2V52.39l3.18-.07a4.11,4.11,0,0,0,2.12-1.26L58,44.46a5.37,5.37,0,0,1-3.23,1.38c-1.9.07-5.72.14-5.72.14Z"/><path class="cls-2" d="M44.21,45.78v6.54H39.39s-2-.13-2.73-1.07-3.77-7-3.77-7a4.57,4.57,0,0,0,3.51,1.49C38.75,45.72,44.21,45.78,44.21,45.78Z"/><path class="cls-2" d="M37.76,45.33l2.32-3.73,1.69.92L38.8,37l-6.16,0,1.75,1.33-1.75,3.38s-.75,1.56,1.41,3C34.05,44.71,34.81,45.37,37.76,45.33Z"/></svg>