<svg id="Layer_1" data-name="Layer 1" xmlns="http://www.w3.org/2000/svg" viewBox="0 0 134.41 197.35"><defs><style>.cls-1{fill:#284c3f;}.cls-2{fill:#137241;}.cls-3{fill:#d3caae;}.cls-4{fill:#b5ac94;}</style></defs><path class="cls-1" d="M131,50.36S101,28.92,75,66.05c0,0-5.55,7.27-7.47,15.12h-4S81.08-1.69,131,50.36Z" transform="translate(0 0)"/><path class="cls-2" d="M134.41,81.17S118.62,49.52,80,69.65c0,0-7.95,3.74-13.09,9.59l-3.4-1.79S115.52,14.55,134.41,81.17Z" transform="translate(0 0)"/><path class="cls-2" d="M0,66.45s22.42-25.71,53.78,2.1c0,0,6.54,5.35,9.95,12l3.61-.86S33.76,9,0,66.45Z" transform="translate(0 0)"/><path class="cls-1" d="M3.5,23.62s33-16.57,53,24.1c0,0,4.37,8,5,16.09l4,.61S60.83-20.16,3.5,23.62Z" transform="translate(0 0)"/><path class="cls-1" d="M38.47,14.71s18.1-18.88,25.25,19.8A73.21,73.21,0,0,1,65.08,50l2,.3S71.08-32.91,38.47,14.71Z" transform="translate(0 0)"/><path class="cls-2" d="M125.31,20.6S86.25,7.55,71,56c0,0-3.47,9.63-2.88,18.67L63.84,76S54.9-18.7,125.31,20.6Z" transform="translate(0 0)"/><path class="cls-2" d="M10.08,33.17S44.82,20.7,59.78,63.5c0,0,3.37,8.5,3.08,16.58l3.86,1.09S72.29-3.36,10.08,33.17Z" transform="translate(0 0)"/><rect class="cls-3" x="60.61" y="75.95" width="9.65" height="121.4" rx="4.83" transform="translate(130.88 273.3) rotate(-180)"/><path class="cls-4" d="M64.89,76h0a4.83,4.83,0,0,0-4.83,4.83V192.53a4.82,4.82,0,0,0,4.83,4.82h0" transform="translate(0 0)"/></svg>