<svg id="Layer_1" data-name="Layer 1" xmlns="http://www.w3.org/2000/svg" viewBox="0 0 84.18 68.98"><defs><style>.cls-1{fill:#5e9172;}.cls-2{fill:#284c3f;}.cls-3{fill:#7c4b23;}</style></defs><path class="cls-1" d="M49.18,17.22C49.6,5,33.09,0,33.09,0c1.4,22.8,11.66,21.25,14.83,20.21,1.36,2.2,8.6,11.57,24.26-6.87C72.18,13.34,56.27,7.58,49.18,17.22Z"/><path class="cls-2" d="M37.31,5.89s2.07,9.18,10.09,13.84l.84-1S41.93,16.5,37.31,5.89Z"/><path class="cls-2" d="M63.72,14.74S56.65,20.93,47.41,20l-.06-1.32S53.74,20.59,63.72,14.74Z"/><path class="cls-2" d="M49.39,17S38,37,53,68.51L41.76,63.37S40.57,21.2,49.39,17Z"/><path class="cls-3" d="M59,53.23a31.18,31.18,0,0,0-6,1.62c-4.66-3.5-11.16-6.35-20.13-6.63C8.33,47.45,0,69,0,69H84.18S77.45,50,59,53.23Z"/></svg>