<svg id="Layer_1" data-name="Layer 1" xmlns="http://www.w3.org/2000/svg" xmlns:xlink="http://www.w3.org/1999/xlink" viewBox="0 0 287.96 1455.16"><defs><style>.cls-1{fill:none;}.cls-2{fill:#1d9acc;}.cls-3{clip-path:url(#clip-path);}.cls-4{fill:#63bbdf;}.cls-5{fill:#dceeec;}.cls-5,.cls-6,.cls-7{opacity:0.74;}.cls-6{fill:#deeded;}.cls-7{fill:#e0eedd;}</style><clipPath id="clip-path" transform="translate(24.8 28.85)"><path class="cls-1" d="M43.11,47.06C49,50.75,54.74,54.53,60.43,58.45q4.23,2.91,8.38,5.92c1.4,1,2.79,2,4.18,3.08s5,3.83,1.52,1.12a261.59,261.59,0,0,1,32.21,29.49c2.26,2.5,4.4,5.08,6.55,7.66,4.26,5.1-2.82-4.28.86,1.17.91,1.35,1.88,2.65,2.78,4,3.47,5.18,7.74,11.3,9.59,17.31-2-6.6.68,2.46,1.19,4.22s.94,3.46,1.32,5.21c.11.49,1.55,6.16.47,1.91-1-4.08.07,1.24.11,2q.14,2.23.12,4.47c0,1.51-.15,3-.17,4.5-.09,5.58,1.17-4.53,0,.55-.6,2.52-1.07,5.05-1.88,7.53-.28.87-1.12,2.27-1.15,3.17.13-4.14,2.37-5.15.86-2.13-2.17,4.34-4.42,8.59-7,12.74-2.94,4.77-6.11,9.41-9.38,14q-2.52,3.51-5.12,6.95c-.89,1.18-1.76,2.38-2.69,3.53,4.06-5.06.44-.6-.49.57C87.12,217,70.38,235.6,54.09,254.6c-19.31,22.5-36.94,46-45.16,75-10,35.21-4.07,71.66,12,104.06C29,450,40,464.64,52.36,478c5.54,6,11.29,11.76,16.7,17.86,1.28,1.45,2.51,3,3.79,4.4,4.85,5.47-1.44-2.28,1.07,1.28s5.06,7.05,7.51,10.63c4.32,6.32,8.47,12.76,12.28,19.4q2.52,4.41,4.84,9c.74,1.46,1.47,2.94,2.17,4.43,1.13,2.4,2.16,5,.56,1a132,132,0,0,1,6,18.64c.35,1.49.68,3,1,4.51.08.41,1.42,6.32.46,2.12s.16,1.67.21,2.19c.17,1.88.3,3.77.38,5.65.14,3.23.14,6.46,0,9.69-.08,2-.2,4-.37,6,0,.14-.6,6.82-.21,2.79s-.46,2.85-.47,3q-.47,2.71-1,5.41-1.27,6.24-2.94,12.38c-.62,2.28-1.43,4.47-2.09,6.72-1.31,4.46,2.88-5.8.68-1.63-.48.91-.89,1.85-1.36,2.76a107.55,107.55,0,0,1-7.18,11.75c-1.33,1.9-3,3.71-4.15,5.7,4-6.84-.59.69-2,2.43-3.47,4.25-7.06,8.43-10.66,12.58-7.8,9-15.7,17.91-23.2,27.15-18.28,22.49-34.16,46.08-43.82,73.61-5.51,15.71-7.79,32.38-9.45,48.89a192.38,192.38,0,0,0,.13,42.64c3.15,25.81,11.61,50,24.22,72.7C37,944.42,57.09,960.83,73.27,978c4,4.25,7.85,8.65,11.69,13.06,1.28,1.46,2.81,4.54-.71-1,.61,1,1.39,1.85,2,2.78,1.3,1.85,2.4,3.79,3.59,5.72.43.7,1.82,4.11.24.21.58,1.42,1.11,2.86,1.62,4.31a100.1,100.1,0,0,1,3.3,11.76c.37,1.77.69,3.53,1,5.31-.92-5.51-.15-.8,0,.65a102.14,102.14,0,0,1,.25,11.47c-.07,2.07-.27,4.12-.4,6.19-.3,4.79,0,.35.16-.57q-.85,5.61-2.17,11.14a164.6,164.6,0,0,1-6.57,20.8c-.32.82-3,7.27-.63,1.72-.56,1.29-1.12,2.57-1.7,3.85-1.58,3.51-3.25,7-5,10.44-3.27,6.55-6.73,13-10.27,19.4-20.25,36.7-42.82,75.42-50.83,117.12-9.78,50.9,4,99.89,26,145.8,7.48,15.66,15.94,30.82,24.87,45.69,6.81,11.33,23,16.53,34.58,9.07,11.39-7.35,16.35-22.45,9.06-34.58-9.12-15.19-17.75-30.68-25.35-46.7q-2.31-4.89-4.51-9.85c-.55-1.25-2.41-5.71-.32-.66-.64-1.55-1.28-3.11-1.9-4.67-2.57-6.46-4.94-13-7-19.63-1.8-5.74-3.41-11.55-4.75-17.41-.6-2.62-1.15-5.24-1.65-7.88-.46-2.46-1-12.3-.76-3.9-.32-9.87-1.62-19.43-1-29.37.13-2.18.36-4.35.55-6.53.59-6.75-1.08,5.78.11-.94.8-4.56,1.65-9.09,2.77-13.58a207.63,207.63,0,0,1,8-24.84c.76-2,1.55-3.87,2.32-5.8,1.74-4.36-2.17,5-.84,2,.42-1,.82-1.94,1.24-2.9,1.87-4.29,3.81-8.55,5.78-12.79,4.86-10.46,9.94-20.75,15.5-30.85,14.68-26.66,30.6-53.13,39.21-82.55,9.25-31.55,8.94-68.84-8-97.93C120.12,949.93,99.58,933,82.72,915c-3.62-3.86-7.08-7.84-10.5-11.88-2.84-3.34,1.49,1.81,1.4,1.85a30.36,30.36,0,0,1-2.2-3.09,72.42,72.42,0,0,1-3.75-6.58c-2.37-4.56-4.66-9.16-6.77-13.85-.26-.58-2.31-5.31-.56-1.21s-.24-.67-.48-1.27c-1.14-2.91-2.19-5.86-3.16-8.83a142.63,142.63,0,0,1-4.12-15.73c-.35-1.71-2.88-10.83-.78-3.54-1-3.31-.81-7.56-1-11a186.86,186.86,0,0,1,0-20.36c.2-3.76.5-7.52.87-11.27q.36-3.59.82-7.16c-.6,4.53.42-2.43.57-3.31a147.46,147.46,0,0,1,4.48-19.57q1.38-4.53,3.08-9l.67-1.76q1.59-3.91-.38.85s2.22-4.86,2.32-5.08a208.44,208.44,0,0,1,20-32.78c1.06-1.45,2.14-2.88,3.21-4.32,2.7-3.61-.32.3-.68.87a78.83,78.83,0,0,1,6.1-7.59c3.84-4.67,7.77-9.26,11.73-13.83,7.51-8.67,15.18-17.23,22.36-26.19s14.44-18.07,19.63-28.32c6.26-12.35,9.75-25.65,11.87-39.29,5-32.44,1-62.64-13-92.38-6.41-13.61-14.63-26.3-23.3-38.56-10.35-14.62-22.49-27.18-34.54-40.33-2.62-2.85-5.15-5.78-7.65-8.74-4.75-5.66,2.35,3.94-1.67-2.26-.89-1.37-1.85-2.7-2.75-4.07a157.45,157.45,0,0,1-13-23.8c2.09,4.86-.75-2.22-.91-2.66q-.77-2.16-1.47-4.35-1.73-5.37-2.94-10.88c-.48-2.16-.79-4.36-1.25-6.53,1,4.86.13,1.42,0,.2-.34-4.35-.64-8.67-.56-13,.06-3.62.31-7.23.72-10.82-.71,6.17.29-1,.47-1.92.29-1.44.61-2.88.95-4.3a114.23,114.23,0,0,1,3.54-11.79c.39-1.11,2.21-5.8.39-1.43.9-2.16,1.92-4.27,3-6.37a164.47,164.47,0,0,1,13.59-22c3.73-5.23-3.92,4.87.67-.88q2.44-3.06,5-6.07C98.3,280,114.78,262,130.3,243.11c15.13-18.4,31.65-37.75,41.44-59.72,12.84-28.85,9.76-59.73-4.82-87.39s-38.85-49.55-63.43-68.41C92.25,19,80.59,11,68.62,3.41,57.42-3.66,40.27.69,34,12.48c-6.58,12.46-2.88,27,9.07,34.58Z"/></clipPath></defs><path class="cls-2" d="M43.11,47.06C49,50.75,54.74,54.53,60.43,58.45q4.23,2.91,8.38,5.92c1.4,1,2.79,2,4.18,3.08s5,3.83,1.52,1.12a261.59,261.59,0,0,1,32.21,29.49c2.26,2.5,4.4,5.08,6.55,7.66,4.26,5.1-2.82-4.28.86,1.17.91,1.35,1.88,2.65,2.78,4,3.47,5.18,7.74,11.3,9.59,17.31-2-6.6.68,2.46,1.19,4.22s.94,3.46,1.32,5.21c.11.49,1.55,6.16.47,1.91-1-4.08.07,1.24.11,2q.14,2.23.12,4.47c0,1.51-.15,3-.17,4.5-.09,5.58,1.17-4.53,0,.55-.6,2.52-1.07,5.05-1.88,7.53-.28.87-1.12,2.27-1.15,3.17.13-4.14,2.37-5.15.86-2.13-2.17,4.34-4.42,8.59-7,12.74-2.94,4.77-6.11,9.41-9.38,14q-2.52,3.51-5.12,6.95c-.89,1.18-1.76,2.38-2.69,3.53,4.06-5.06.44-.6-.49.57C87.12,217,70.38,235.6,54.09,254.6c-19.31,22.5-36.94,46-45.16,75-10,35.21-4.07,71.66,12,104.06C29,450,40,464.64,52.36,478c5.54,6,11.29,11.76,16.7,17.86,1.28,1.45,2.51,3,3.79,4.4,4.85,5.47-1.44-2.28,1.07,1.28s5.06,7.05,7.51,10.63c4.32,6.32,8.47,12.76,12.28,19.4q2.52,4.41,4.84,9c.74,1.46,1.47,2.94,2.17,4.43,1.13,2.4,2.16,5,.56,1a132,132,0,0,1,6,18.64c.35,1.49.68,3,1,4.51.08.41,1.42,6.32.46,2.12s.16,1.67.21,2.19c.17,1.88.3,3.77.38,5.65.14,3.23.14,6.46,0,9.69-.08,2-.2,4-.37,6,0,.14-.6,6.82-.21,2.79s-.46,2.85-.47,3q-.47,2.71-1,5.41-1.27,6.24-2.94,12.38c-.62,2.28-1.43,4.47-2.09,6.72-1.31,4.46,2.88-5.8.68-1.63-.48.91-.89,1.85-1.36,2.76a107.55,107.55,0,0,1-7.18,11.75c-1.33,1.9-3,3.71-4.15,5.7,4-6.84-.59.69-2,2.43-3.47,4.25-7.06,8.43-10.66,12.58-7.8,9-15.7,17.91-23.2,27.15-18.28,22.49-34.16,46.08-43.82,73.61-5.51,15.71-7.79,32.38-9.45,48.89a192.38,192.38,0,0,0,.13,42.64c3.15,25.81,11.61,50,24.22,72.7C37,944.42,57.09,960.83,73.27,978c4,4.25,7.85,8.65,11.69,13.06,1.28,1.46,2.81,4.54-.71-1,.61,1,1.39,1.85,2,2.78,1.3,1.85,2.4,3.79,3.59,5.72.43.7,1.82,4.11.24.21.58,1.42,1.11,2.86,1.62,4.31a100.1,100.1,0,0,1,3.3,11.76c.37,1.77.69,3.53,1,5.31-.92-5.51-.15-.8,0,.65a102.14,102.14,0,0,1,.25,11.47c-.07,2.07-.27,4.12-.4,6.19-.3,4.79,0,.35.16-.57q-.85,5.61-2.17,11.14a164.6,164.6,0,0,1-6.57,20.8c-.32.82-3,7.27-.63,1.72-.56,1.29-1.12,2.57-1.7,3.85-1.58,3.51-3.25,7-5,10.44-3.27,6.55-6.73,13-10.27,19.4-20.25,36.7-42.82,75.42-50.83,117.12-9.78,50.9,4,99.89,26,145.8,7.48,15.66,15.94,30.82,24.87,45.69,6.81,11.33,23,16.53,34.58,9.07,11.39-7.35,16.35-22.45,9.06-34.58-9.12-15.19-17.75-30.68-25.35-46.7q-2.31-4.89-4.51-9.85c-.55-1.25-2.41-5.71-.32-.66-.64-1.55-1.28-3.11-1.9-4.67-2.57-6.46-4.94-13-7-19.63-1.8-5.74-3.41-11.55-4.75-17.41-.6-2.62-1.15-5.24-1.65-7.88-.46-2.46-1-12.3-.76-3.9-.32-9.87-1.62-19.43-1-29.37.13-2.18.36-4.35.55-6.53.59-6.75-1.08,5.78.11-.94.8-4.56,1.65-9.09,2.77-13.58a207.63,207.63,0,0,1,8-24.84c.76-2,1.55-3.87,2.32-5.8,1.74-4.36-2.17,5-.84,2,.42-1,.82-1.94,1.24-2.9,1.87-4.29,3.81-8.55,5.78-12.79,4.86-10.46,9.94-20.75,15.5-30.85,14.68-26.66,30.6-53.13,39.21-82.55,9.25-31.55,8.94-68.84-8-97.93C120.12,949.93,99.58,933,82.72,915c-3.62-3.86-7.08-7.84-10.5-11.88-2.84-3.34,1.49,1.81,1.4,1.85a30.36,30.36,0,0,1-2.2-3.09,72.42,72.42,0,0,1-3.75-6.58c-2.37-4.56-4.66-9.16-6.77-13.85-.26-.58-2.31-5.31-.56-1.21s-.24-.67-.48-1.27c-1.14-2.91-2.19-5.86-3.16-8.83a142.63,142.63,0,0,1-4.12-15.73c-.35-1.71-2.88-10.83-.78-3.54-1-3.31-.81-7.56-1-11a186.86,186.86,0,0,1,0-20.36c.2-3.76.5-7.52.87-11.27q.36-3.59.82-7.16c-.6,4.53.42-2.43.57-3.31a147.46,147.46,0,0,1,4.48-19.57q1.38-4.53,3.08-9l.67-1.76q1.59-3.91-.38.85s2.22-4.86,2.32-5.08a208.44,208.44,0,0,1,20-32.78c1.06-1.45,2.14-2.88,3.21-4.32,2.7-3.61-.32.3-.68.87a78.83,78.83,0,0,1,6.1-7.59c3.84-4.67,7.77-9.26,11.73-13.83,7.51-8.67,15.18-17.23,22.36-26.19s14.44-18.07,19.63-28.32c6.26-12.35,9.75-25.65,11.87-39.29,5-32.44,1-62.64-13-92.38-6.41-13.61-14.63-26.3-23.3-38.56-10.35-14.62-22.49-27.18-34.54-40.33-2.62-2.85-5.15-5.78-7.65-8.74-4.75-5.66,2.35,3.94-1.67-2.26-.89-1.37-1.85-2.7-2.75-4.07a157.45,157.45,0,0,1-13-23.8c2.09,4.86-.75-2.22-.91-2.66q-.77-2.16-1.47-4.35-1.73-5.37-2.94-10.88c-.48-2.16-.79-4.36-1.25-6.53,1,4.86.13,1.42,0,.2-.34-4.35-.64-8.67-.56-13,.06-3.62.31-7.23.72-10.82-.71,6.17.29-1,.47-1.92.29-1.44.61-2.88.95-4.3a114.23,114.23,0,0,1,3.54-11.79c.39-1.11,2.21-5.8.39-1.43.9-2.16,1.92-4.27,3-6.37a164.47,164.47,0,0,1,13.59-22c3.73-5.23-3.92,4.87.67-.88q2.44-3.06,5-6.07C98.3,280,114.78,262,130.3,243.11c15.13-18.4,31.65-37.75,41.44-59.72,12.84-28.85,9.76-59.73-4.82-87.39s-38.85-49.55-63.43-68.41C92.25,19,80.59,11,68.62,3.41,57.42-3.66,40.27.69,34,12.48c-6.58,12.46-2.88,27,9.07,34.58Z" transform="translate(24.8 28.85)"/><g class="cls-3"><path class="cls-4" d="M46.74,36.36S193.12,106,123.79,186.8C72.12,247,49.89,266.22,24.43,311.85c-2.95,5.27-10.34,24-11.62,31.18-3.5,19.74-12.92,72.43,84.38,178,0,0,70.62,81.6-22,151,0,0-88.18,84.9-58.31,206,0,0,8.78,45,64.73,95.41s.92,124.33.92,124.33S12.81,1202.37,24.73,1266.3s57.79,154.41,57.79,154.41H-12.87L-24.8,42.18Z" transform="translate(24.8 28.85)"/><path class="cls-4" d="M255.83-24.24,60.06-28.85V6.72s87.08,51.5,101.53,96.15c0,0,33.7,53.84-11.7,102.9,0,0-29.15,43-60,73.9,0,0-48.9,37.3-47.79,81.55,0,0-2.14,47.85,57.55,104.67,0,0,58.48,54.47,55.72,135.64,0,0,1.81,39.22-65.48,109.38S45.33,859.33,45.33,859.33s6.88,60,53,83.4c0,0,58.47,46.69,39.9,111.44s-57.1,121.07-57.1,121.07-23.51,34.69-21,92,69.88,159.09,69.88,159.09H263.17Z" transform="translate(24.8 28.85)"/></g><path class="cls-5" d="M80,677.31c-6.89,9.27-14.76,17.75-22.62,26.21,4-4,8.92-7,13.17-10.75,6.39-5.63,11.08-12.89,16.38-19.56A31.24,31.24,0,0,1,89.76,670c1.92-1.85,4.25-3.28,5.93-5.36,1.81-2.25,2.71-5.08,4.15-7.58a22.14,22.14,0,0,1-3.94,4.75,28.07,28.07,0,0,1-3.59,2.94,44.3,44.3,0,0,0-4.21,3A33.38,33.38,0,0,0,84,672c-1.26,1.54-2.44,3.16-3.62,4.76Z" transform="translate(24.8 28.85)"/><path class="cls-2" d="M75.52,298a110.87,110.87,0,0,0-27.33,42.23C45,349,43,358.64,45,367.83c1.42,6.56,4.83,12.56,6.31,19.12,1-11.15-3.26-22.23-2.6-33.41s6.24-21.6,12.43-31,13.16-18.49,17.27-29L72,302.32" transform="translate(24.8 28.85)"/><path class="cls-5" d="M47.6,757.88a111.36,111.36,0,0,0-17.42,67.88c1.39,19.36,3.29,29.21,7.38,49.82-7.09-17.06-1.47-27-2-44.38-.58-19.05-.62-38.76,6.9-56.27,4.27-9.92,12.42-21.75,14.92-32.61-3.28,7.62-11.21,17.54-14.49,25.16" transform="translate(24.8 28.85)"/><path class="cls-5" d="M40.63,873.71a34,34,0,0,0,6,19.88,111.25,111.25,0,0,1,6.12,11.07c2.05,3.87,4,7.41,7.35,10.27a37.61,37.61,0,0,1-5.47-10.37c-1.11-3.27-1.77-6.69-3-9.93-1.73-4.63-4.53-8.77-6.87-13.12s-4.25-9.16-3.95-14.09l.43,11.78" transform="translate(24.8 28.85)"/><path class="cls-6" d="M42.32,726.49q1.71-2.18,3.33-4.41,3.48-4.83,6.52-10c.19-.31,1.62-2.33.94-2.75s-1.85.88-2.19,1.15a22.37,22.37,0,0,0-6.21,7.63A42.89,42.89,0,0,0,42.32,726.49Z" transform="translate(24.8 28.85)"/><path class="cls-5" d="M85.3,969.94l12.27,13.11a23.23,23.23,0,0,1,4.25,5.59c1.32,2.78,1.49,6,2.7,8.8,1.74,4.09,5.52,7.14,6.78,11.4,1.5,5.07-1,10.39-1.46,15.66-.74,7.61.4,23.59-3.82,30,2-.61,5.15-10.13,5.7-12.12,1.38-5,.11-10.42.88-15.58.68-4.65,3-9,3.18-13.71a30.62,30.62,0,0,0-1.22-8.32c-1.49-6.13-3.07-12.44-6.86-17.47a46.59,46.59,0,0,0-5.85-6.07l-26.7-24.51a17.4,17.4,0,0,0-4-3c-1.12-.53-3.28-1.22-4.49-.91a20.21,20.21,0,0,0,2.86,2c1.4,1.09,2.76,2.24,4.08,3.42,2.66,2.37,5.17,4.89,7.63,7.46C82.61,967.07,84,968.51,85.3,969.94Z" transform="translate(24.8 28.85)"/><path class="cls-5" d="M78.25,956.3a44.85,44.85,0,0,0,6,7.05c3.65,3.25,8.44,5.37,11,9.5.13-2.39-2.3-4-4-5.65-2.84-2.85-4.16-7.2-7.64-9.24-1.58-.93-3.43-1.26-5.11-2s-3.31-2.09-3.47-3.92" transform="translate(24.8 28.85)"/><path class="cls-5" d="M100.39,1073.15a68.94,68.94,0,0,0-2.17,10.13c1.6-1.64,1.61-4.21,2.2-6.42.93-3.46,3.4-6.28,4.12-9.81.24-1.16.73-3.66-.63-4.43-1.08-.62-1.47,2.86-1.67,3.61Z" transform="translate(24.8 28.85)"/><path class="cls-6" d="M129.91,587.14c.47,10.76-4.09,21.05-5.73,31.69a62.46,62.46,0,0,1-1.41,8.07c-1.14,3.88-3.4,7.32-5.63,10.7l-12.72,19.26a116.49,116.49,0,0,0,16.7-18.38c2.93-4,5.64-8.27,6.86-13.07,1.08-4.25,1-8.71,1.56-13,1.57-11.07,8-21.6,6.47-32.68-1-7.38-5.49-13.78-9.82-19.85-1.67-2.35-2.29-5.48-4-7.83s-5.73-12.72-7.64-14.67c.19,2.63,3.79,13.28,4.74,15.74,1,2.69,2.8,5.47,4,8.1,2.3,5.17,3.49,11.05,5,16.51A41.52,41.52,0,0,1,129.91,587.14Z" transform="translate(24.8 28.85)"/><path class="cls-5" d="M111.21,533.29l-3.75-8.5a31.18,31.18,0,0,0-3.67-6.74,28.62,28.62,0,0,0-5.74-5.13c-.41-.3-2.5-2.21-2.92-2s.17,1.53.33,1.82a65.31,65.31,0,0,0,4.88,6.75c1.67,2.23,3.36,4.45,5.08,6.64,1,1.22,1.91,2.42,2.87,3.62S110.66,532,111.21,533.29Z" transform="translate(24.8 28.85)"/><path class="cls-6" d="M73.63,449.3c6,5.68,12.83,10.54,18.68,16.41s10.86,13.05,12.11,21.25C99.73,475,87.7,467.88,78,459.47a92.8,92.8,0,0,1-16.18-18.25,95.16,95.16,0,0,1-11-22.07A53,53,0,0,1,48.86,413c-.22-1.06-.7-2.73-.34-3.77a15.12,15.12,0,0,1,1.16,3.23q.81,2.29,1.73,4.54a95.12,95.12,0,0,0,4.08,8.6,93,93,0,0,0,10.7,15.83A91.08,91.08,0,0,0,73.63,449.3Z" transform="translate(24.8 28.85)"/><path class="cls-6" d="M119.64,505.55c.21-2-1-3.9-2.21-5.55-.83-1.12-7.62-10.78-8.87-9.24-.68.83,1.54,4.51,2,5.34a25.39,25.39,0,0,0,3.62,5A24.87,24.87,0,0,0,119.64,505.55Z" transform="translate(24.8 28.85)"/><path class="cls-5" d="M34.52,306.58c-15.07,16.15-18.14,39.88-19.17,61.94a55,55,0,0,0,.17,9.94c1.16,8.57,6.05,16.11,10.82,23.33A125.32,125.32,0,0,1,19,381.25c-1.08-4.1-2-8.33-1.56-12.55.6-6.34,4-12.07,5.3-18.3.9-4.3.79-8.76,1.61-13.08,2.57-13.64,14.1-24.86,14.37-38.74a96.59,96.59,0,0,0-7.34,14" transform="translate(24.8 28.85)"/><path class="cls-5" d="M44.73,285.72c.94-1.11,2.22-2.21,3.66-2,.13,3-2.3,5.35-4.34,7.23-.42.39-2.43,2.77-2.81,2.48-.68-.52.3-2.61.54-3.11A21.26,21.26,0,0,1,44.73,285.72Z" transform="translate(24.8 28.85)"/><path class="cls-5" d="M163.61,125a22.26,22.26,0,0,0,.15,5.29c.55,2.37,2.23,4.34,3,6.65,1.38,4.13-.29,8.56-1,12.85-1.15,7.33.68,14.92-.89,22.17A37.65,37.65,0,0,1,160,183.3c-9.57,15.76-24.64,28.19-32.25,44.93,3.2-15.49,13-28.77,21.15-42.43s15.11-29.39,11.82-44.86a86.12,86.12,0,0,1-1.89-8.62c-.36-3.34.14-6.7.05-10.06-.2-7.88-3.51-16.34-7.68-23.05-.26.92,2.57,3.51,3.19,4.3,1.25,1.58,2.44,3.2,3.54,4.88a35.82,35.82,0,0,1,4.88,10.35A23.85,23.85,0,0,1,163.61,125Z" transform="translate(24.8 28.85)"/><path class="cls-5" d="M116.73,243.76c-2,2.31-4.45,4.56-7.48,5.11a9.82,9.82,0,0,1,2.9-4.58c3.34-3.41,7.25-6.29,9.89-10.33a10.68,10.68,0,0,1,2-2.8c.31-.22,1.24-.84,1.4-.27.07.29-.59,1.19-.73,1.46q-.44.81-.9,1.62-.94,1.64-2,3.21A58.66,58.66,0,0,1,116.73,243.76Z" transform="translate(24.8 28.85)"/><path class="cls-5" d="M168.66,148.8a12.75,12.75,0,0,0,0,11.42,21.86,21.86,0,0,0,1.53-12.89A4,4,0,0,0,168,150" transform="translate(24.8 28.85)"/><path class="cls-5" d="M58.87,1194.06c-4.2,5.58-8.89,11-11.49,17.45-3.49,8.71-2.85,18.53-1,27.73s4.81,18.18,5.87,27.5c.52,4.62.58,9.28,1.36,13.86,1.36,7.94,4.88,15.32,8.36,22.58l-8.5-51c-.89-5.35-1.78-10.74-1.59-16.15.3-8.24,3.09-16.16,6.06-23.85q5.58-14.51,12.13-28.6,3.3-7.11,6.82-14.09c2.1-4.15,4.8-8.56,4.85-13.36,0-1.09-.42-5.67-2-6.14-1.12-.32-1.7,1.76-2,2.49-2,5.44-3,11.25-4.72,16.77-2.55,7.93-7.12,15-11.92,21.8C60.35,1192.06,59.62,1193.06,58.87,1194.06Z" transform="translate(24.8 28.85)"/><path class="cls-5" d="M101.52,1128.81l-10.66,21.56a56,56,0,0,0-3.66,8.55,3.13,3.13,0,0,0-2.78,1.74c.79-2.44,1.71-5.6,1.45-8.18-.09-.82-.64-1.34-.47-2.17a13.43,13.43,0,0,1,1.63-3.23,68.5,68.5,0,0,1,8.59-12.3q1.41-1.62,2.93-3.15C99.34,1130.84,101,1129.79,101.52,1128.81Z" transform="translate(24.8 28.85)"/><path class="cls-7" d="M69.84,1330a51.19,51.19,0,0,0-3-11.09,61.57,61.57,0,0,0-2.48-6.28c-.39-.81-2.7-5.53-3-2.59-.24,2,.84,4.78,1.52,6.68a45.93,45.93,0,0,0,2.89,6.4C67,1325.47,68.43,1327.74,69.84,1330Z" transform="translate(24.8 28.85)"/><path class="cls-5" d="M131.27,1062.37a27.51,27.51,0,0,0,6-14.51,49.87,49.87,0,0,0,.18-5.33q0-8.46-.42-16.91c-.08-1.69-.23-4-1.76-5a34.3,34.3,0,0,1,.75,7c-.12,2-.49,4-.62,6a167.15,167.15,0,0,1-2,18.55q-.45,2.64-1,5.25c-.18.87-.37,1.74-.57,2.6A7.82,7.82,0,0,1,131.27,1062.37Z" transform="translate(24.8 28.85)"/></svg>