<svg id="Layer_1" data-name="Layer 1" xmlns="http://www.w3.org/2000/svg" viewBox="0 0 52.1 85.78"><defs><style>.cls-1{fill:#5e9172;}.cls-2{fill:#78aa96;}.cls-3{fill:#345352;}.cls-4{fill:#b7d47f;}.cls-5{fill:#284c3f;}</style></defs><polygon class="cls-1" points="8.28 82.78 3.41 23.38 48.69 23.38 42.36 82.78 8.28 82.78"/><rect class="cls-2" y="13.16" width="52.1" height="10.22" rx="0.96"/><path class="cls-3" d="M5.23,13.16H46.86S40.53,5.61,26.41,5.25,5.23,13.16,5.23,13.16Z"/><path class="cls-2" d="M31.6,7.07a1.17,1.17,0,0,1-1.1-1.22V3.75a1.24,1.24,0,0,0-1.17-1.3H22.77a1.24,1.24,0,0,0-1.18,1.3v2.1a1.11,1.11,0,1,1-2.2,0V3.75A3.58,3.58,0,0,1,22.77,0h6.56a3.58,3.58,0,0,1,3.38,3.75v2.1A1.17,1.17,0,0,1,31.6,7.07Z"/><circle class="cls-3" cx="42.5" cy="76.41" r="9.37"/><circle class="cls-4" cx="42.5" cy="76.41" r="4.92"/><path class="cls-5" d="M26,38.67l-2.62,4.26-5-2.94,2.73-4.09s1.27-1.33,3.15.33A7.14,7.14,0,0,1,26,38.67Z"/><path class="cls-5" d="M26.68,42.47h5.21l2.79-4.59-1.61.86L31.7,36.27a3.59,3.59,0,0,0-1.86-1.14h-6.6a4.78,4.78,0,0,1,2.42,2c.83,1.46,2.46,4.42,2.46,4.42Z"/><path class="cls-5" d="M32.68,49.91l-2.39-4.39,5.05-2.87,2.18,4.4s.52,1.77-1.86,2.57A7.16,7.16,0,0,1,32.68,49.91Z"/><path class="cls-5" d="M29,49l-2.43,4.61,2.77,4.6V56.36l2.82-.06A3.63,3.63,0,0,0,34,55.18l3.07-5.84a4.72,4.72,0,0,1-2.86,1.22c-1.67.07-5.06.13-5.06.13Z"/><path class="cls-5" d="M24.88,50.51v5.78H20.62a4,4,0,0,1-2.42-.94c-.66-.83-3.33-6.21-3.33-6.21A4,4,0,0,0,18,50.46C20.06,50.46,24.88,50.51,24.88,50.51Z"/><path class="cls-5" d="M19.18,50.11l2.05-3.3,1.5.81L20.09,42.7l-5.45,0,1.55,1.18-1.55,3S14,48.29,15.9,49.56C15.9,49.56,16.57,50.15,19.18,50.11Z"/><rect class="cls-3" x="8.28" y="82.78" width="4.48" height="3"/></svg>