<svg id="Layer_1" data-name="Layer 1" xmlns="http://www.w3.org/2000/svg" viewBox="0 0 111.35 191.7"><defs><style>.cls-1{fill:#688955;}.cls-2{fill:#b8d481;}.cls-3{fill:#a7cc60;}</style></defs><path class="cls-1" d="M101.74,172.42c-6.69-4.61-14.66-3.85-22.15-4.27-3.39-.2-7-.79-9.75-3.45-5.27-5.21-4-14.86-7.53-21.75-3.92-7.67-12.33-9.79-19.25-13.46-3.11-1.65-6.28-4-7.64-7.68-1.7-4.57,0-9.59,2.27-13.4S42.91,101.16,44,96.6c1.68-7.13-1.7-15.22-6.45-20.83s-10.76-9.44-16.25-14c-3.45-2.86-7-6.49-7.71-11.21a13.92,13.92,0,0,1,.94-7.21c2.66-6.74,9-11,10.35-18.33,1.39-7.7-3.2-15.55-7.52-22.19a57.89,57.89,0,0,0,25,8.81c4.31.42,8.71.33,12.88,2,5.64,2.29,10.4,8,12.24,14.56s.81,13.84-1,20.23c-1.27,4.41-2.9,9.15-1.5,13.78,1.07,3.54,3.74,6.22,6.51,8.22,5.79,4.15,12.43,6.1,18.32,10s11.32,11,10.74,18.52c-.65,8.63-8.34,13-13.45,18.9-1.55,1.79,4.48,2.34,4.18,4.93-.41,3.64-1.43,7.31.71,10.27,4,5.49,10.19,4.38,16,6.49Z" transform="translate(0 -2.83)"/><path class="cls-2" d="M93,192.27c-5.87-2.12-11.81.32-17.59,1.71-2.62.63-5.5,1-8-.5-4.9-2.92-5.57-10.89-9.42-15.55-4.28-5.2-11.05-4.94-16.94-6.27-2.65-.6-5.46-1.75-7.12-4.34-2.07-3.25-1.63-7.62-.54-11.18s2.74-7,2.79-10.85c.07-6-3.87-11.7-8.44-15.07s-9.79-5-14.75-7.38c-3.11-1.48-6.41-3.56-7.77-7.14a12,12,0,0,1-.51-6c.89-6,5-10.8,4.78-17C9.24,86.35,4.42,81.16,0,76.88a42,42,0,0,0,20.57,1.23c3.36-.66,6.69-1.75,10.16-1.36,4.68.52,9.26,3.92,11.78,8.75s3,10.82,2.65,16.32c-.22,3.81-.66,8,1.19,11.3a11.85,11.85,0,0,0,6.36,5c5.1,2,10.5,2,15.65,3.74S78.84,128,79.68,134.15c1,7-4.15,12.27-7.05,18.13a11,11,0,0,0-1.36,5.94c.3,3,2.32,5.51,4.45,7.37a23.41,23.41,0,0,0,13.48,5.88Z" transform="translate(0 -2.83)"/><path class="cls-3" d="M110.92,140.84c-3.72-2.56-8.15-2.14-12.32-2.38a8,8,0,0,1-5.43-1.92c-2.93-2.89-2.23-8.27-4.19-12.1C86.8,120.17,82.12,119,78.27,117A8.5,8.5,0,0,1,74,112.68c-1-2.55,0-5.34,1.26-7.46s2.9-4,3.5-6.58c.94-4-1-8.46-3.59-11.59s-6-5.25-9-7.79c-1.92-1.59-3.88-3.61-4.29-6.24a7.64,7.64,0,0,1,.52-4c1.48-3.75,5-6.1,5.76-10.2.77-4.28-1.78-8.65-4.19-12.35a32.15,32.15,0,0,0,13.94,4.9c2.4.24,4.85.19,7.17,1.13a12.42,12.42,0,0,1,6.81,8.1c1,3.75.45,7.71-.57,11.26-.7,2.46-1.61,5.09-.83,7.67a9.1,9.1,0,0,0,3.62,4.57c3.22,2.31,6.92,3.4,10.2,5.58s6.29,6.12,6,10.31c-.37,4.8-4.65,7.24-7.49,10.51a6.89,6.89,0,0,0-1.81,3.63c-.23,2,.79,4.09,2,5.74a18.46,18.46,0,0,0,8.39,6.55Z" transform="translate(0 -2.83)"/></svg>