<svg id="Layer_1" data-name="Layer 1" xmlns="http://www.w3.org/2000/svg" viewBox="0 0 111.35 191.7"><defs><style>.cls-1{fill:#688955;}.cls-2{fill:#b8d481;}.cls-3{fill:#a7cc60;}</style></defs><path class="cls-1" d="M9.61,169.6c6.69-4.62,14.65-3.85,22.15-4.28,3.39-.19,7.05-.79,9.75-3.45,5.27-5.2,4-14.86,7.53-21.75,3.92-7.66,12.33-9.79,19.25-13.46,3.11-1.65,6.28-4,7.63-7.67,1.71-4.58,0-9.59-2.27-13.41s-5.21-7.25-6.28-11.81c-1.68-7.12,1.7-15.22,6.45-20.83s10.75-9.44,16.25-14c3.44-2.85,7-6.49,7.71-11.21a13.93,13.93,0,0,0-.94-7.21c-2.66-6.74-9-11-10.35-18.33C85.1,14.5,89.69,6.65,94,0A57.8,57.8,0,0,1,69,8.81c-4.31.43-8.71.33-12.89,2-5.63,2.29-10.39,8-12.23,14.56s-.82,13.84,1,20.22c1.27,4.42,2.9,9.15,1.5,13.78-1.07,3.54-3.74,6.23-6.52,8.22-5.78,4.15-12.42,6.1-18.31,10s-11.32,11-10.75,18.52c.66,8.63,8.35,13,13.46,18.9,1.54,1.79-4.48,2.34-4.18,4.94.41,3.64,1.43,7.3-.72,10.26-4,5.49-10.19,4.38-15.95,6.49Z" transform="translate(0)"/><path class="cls-2" d="M18.33,189.45c5.88-2.13,11.82.31,17.6,1.7,2.61.63,5.5,1,8-.49,4.9-2.92,5.57-10.89,9.42-15.56,4.28-5.19,11-4.94,16.94-6.27,2.65-.59,5.46-1.75,7.12-4.34,2.07-3.24,1.63-7.62.54-11.18s-2.74-7-2.79-10.84c-.07-6.05,3.87-11.71,8.44-15.07s9.79-5,14.75-7.39c3.11-1.48,6.41-3.55,7.77-7.14a11.94,11.94,0,0,0,.51-6c-.89-6-5-10.79-4.78-17,.25-6.44,5.07-11.62,9.49-15.91a42,42,0,0,1-20.57,1.23c-3.36-.65-6.69-1.74-10.16-1.36-4.68.53-9.26,3.93-11.78,8.76S65.87,93.5,66.19,99c.21,3.8.66,7.94-1.19,11.3a11.79,11.79,0,0,1-6.36,5c-5.11,2-10.5,2-15.65,3.75s-10.48,6.13-11.32,12.25c-1,7,4.15,12.26,7,18.13a11,11,0,0,1,1.36,5.93c-.3,3-2.32,5.51-4.45,7.37a23.41,23.41,0,0,1-13.48,5.88Z" transform="translate(0)"/><path class="cls-3" d="M.43,138c3.72-2.57,8.15-2.14,12.32-2.38a8.06,8.06,0,0,0,5.43-1.92c2.93-2.9,2.23-8.27,4.19-12.11,2.18-4.26,6.86-5.44,10.71-7.49a8.5,8.5,0,0,0,4.25-4.27c1-2.54,0-5.33-1.26-7.46s-2.9-4-3.5-6.57c-.94-4,.94-8.47,3.59-11.59s6-5.26,9-7.79c1.92-1.59,3.88-3.62,4.29-6.24a7.74,7.74,0,0,0-.52-4c-1.48-3.76-5-6.11-5.76-10.21C42.44,51.7,45,47.33,47.4,43.63a32.17,32.17,0,0,1-13.94,4.91c-2.4.23-4.85.18-7.17,1.13a12.35,12.35,0,0,0-6.81,8.1c-1.05,3.75-.45,7.7.57,11.25.7,2.46,1.61,5.1.83,7.67a9.18,9.18,0,0,1-3.62,4.58c-3.22,2.31-6.92,3.39-10.2,5.57S.77,93,1.08,97.15c.37,4.8,4.65,7.24,7.49,10.52a6.74,6.74,0,0,1,1.8,3.63c.24,2-.78,4.08-2,5.73A18.39,18.39,0,0,1,0,123.58Z" transform="translate(0)"/></svg>