<svg id="Layer_1" data-name="Layer 1" xmlns="http://www.w3.org/2000/svg" viewBox="0 0 1450.03 680"><defs><style>.cls-1{fill:#bab8b9;}</style></defs><path class="cls-1" d="M1442,366a6.46,6.46,0,0,0-3.88-5.73v-8a8.48,8.48,0,0,0-16.95,0v8a6.46,6.46,0,0,0-3.88,5.73l-.17.13V351.37a41.13,41.13,0,0,0-.66-7.24V307.37a20.07,20.07,0,0,0-9.16-16.81h1.1v-.22a6.48,6.48,0,0,0-3.89-5.92v-8a8.48,8.48,0,0,0-17,0v8a6.48,6.48,0,0,0-3.89,5.92v.22h1.1a20.08,20.08,0,0,0-9.15,16.81v3.23h-9.46V300.14a6.53,6.53,0,0,0-6.57-6.49H1356V276.47a26.68,26.68,0,0,0-16.4-24.54v-2.48A6.53,6.53,0,0,0,1333,243h-1.35V227.83a17.26,17.26,0,0,0-34.52,0V243h-1.36a6.54,6.54,0,0,0-6.57,6.49v2.48a26.68,26.68,0,0,0-16.4,24.54v17.18h-2.76a6.53,6.53,0,0,0-6.57,6.49V310.6h-11a20.08,20.08,0,0,0-9.11-16.09h1.09v-.22a6.48,6.48,0,0,0-3.89-5.92v-8a8.48,8.48,0,0,0-17,0v8a6.48,6.48,0,0,0-3.89,5.92v.22h1.1a20.19,20.19,0,0,0-8.57,12.06V212.29a24.92,24.92,0,0,0-9.87-19.87,8.06,8.06,0,0,0-4.75-7.11V175.4a10.38,10.38,0,0,0-20.76,0v9.91a8,8,0,0,0-4.75,7.11l-.21.15v-18.3a51.09,51.09,0,0,0-.81-9V119.73A25,25,0,0,0,1160,98.89h1.34v-.28a8,8,0,0,0-4.76-7.33V81.36a10.38,10.38,0,0,0-20.76,0v9.92a8,8,0,0,0-4.76,7.33v.28h1.35a25,25,0,0,0-11.21,20.84v4H1109.6v-13a8,8,0,0,0-8-8h-4.36V81.42A33.05,33.05,0,0,0,1077.12,51V47.93a8,8,0,0,0-8-8h-1.66V21.13a21.13,21.13,0,0,0-42.26,0V39.89h-1.66a8,8,0,0,0-8,8V51a33.05,33.05,0,0,0-20.08,30.41v21.3H992a8,8,0,0,0-8,8v13H970.54a24.94,24.94,0,0,0-11.16-19.94h1.35v-.28A8,8,0,0,0,956,96.19V86.27a10.38,10.38,0,0,0-20.75,0v9.92a8,8,0,0,0-4.76,7.33v.28h1.34a25,25,0,0,0-11.2,20.84v46.91h.07c0,.9-.07,1.81-.07,2.72v17l-.5-.38a8,8,0,0,0-4.6-5.69v-9.91a10.38,10.38,0,1,0-20.75,0v9.91a8,8,0,0,0-4.59,5.69,25,25,0,0,0-10,20V578.09H570.83V210.93a25,25,0,0,0-10-20,8,8,0,0,0-4.6-5.69v-9.91a10.38,10.38,0,1,0-20.75,0v9.91a8,8,0,0,0-4.59,5.69l-.5.38v-17c0-.91,0-1.82-.08-2.72h.08V124.64a25,25,0,0,0-11.21-20.84h1.35v-.28a8,8,0,0,0-4.76-7.33V86.27a10.38,10.38,0,0,0-20.76,0v9.92a8,8,0,0,0-4.76,7.33v.28h1.34a25,25,0,0,0-11.16,19.94H467v-13a8,8,0,0,0-8-8h-3.38V81.42A33.07,33.07,0,0,0,435.49,51V47.93a8,8,0,0,0-8-8h-1.66V21.13a21.14,21.14,0,0,0-42.27,0V39.89h-1.66a8,8,0,0,0-8,8V51a33.07,33.07,0,0,0-20.08,30.41v21.3h-4.35a8,8,0,0,0-8,8v13H329.76v-4a25,25,0,0,0-11.2-20.84h1.34v-.28a8,8,0,0,0-4.76-7.33V81.36a10.38,10.38,0,0,0-20.75,0v9.92a8,8,0,0,0-4.77,7.33v.28H291a25,25,0,0,0-11.21,20.84v45.56a51.09,51.09,0,0,0-.81,9v18.3l-.21-.15a8,8,0,0,0-4.75-7.11V175.4a10.38,10.38,0,1,0-20.75,0v9.91a8,8,0,0,0-4.75,7.11,24.92,24.92,0,0,0-9.87,19.87V364.88l-.34.25V351.37q0-1.1-.06-2.19h.06V311.34a20.06,20.06,0,0,0-9.15-16.82h1.1v-.22a6.48,6.48,0,0,0-3.89-5.92v-8a8.48,8.48,0,0,0-17,0v8a6.48,6.48,0,0,0-3.89,5.92v.22h1.1a20.12,20.12,0,0,0-9.12,16.09H186.53V300.14a6.53,6.53,0,0,0-6.57-6.49H177.2V276.47a26.68,26.68,0,0,0-16.4-24.54v-2.48a6.53,6.53,0,0,0-6.57-6.49h-1.35V227.83a17.27,17.27,0,0,0-34.53,0V243H117a6.53,6.53,0,0,0-6.57,6.49v2.48A26.68,26.68,0,0,0,94,276.47v17.18H90.47a6.53,6.53,0,0,0-6.56,6.49V310.6H74.45v-3.23a20.07,20.07,0,0,0-9.16-16.81h1.1v-.22a6.48,6.48,0,0,0-3.89-5.92v-8a8.48,8.48,0,0,0-17,0v8a6.48,6.48,0,0,0-3.89,5.92v.22h1.1a20.08,20.08,0,0,0-9.15,16.81v36.76a40.2,40.2,0,0,0-.67,7.24v14.77l-.16-.13a6.49,6.49,0,0,0-3.89-5.73v-8a8.48,8.48,0,0,0-17,0v8A6.5,6.5,0,0,0,8.06,366,20.05,20.05,0,0,0,0,382V680H1450V382A20.05,20.05,0,0,0,1442,366Z"/></svg>