<svg id="Layer_1" data-name="Layer 1" xmlns="http://www.w3.org/2000/svg" viewBox="0 0 101.05 104.41"><defs><style>.cls-1{fill:#5e9172;}.cls-2{fill:#284c3f;}.cls-3{fill:#b7d47f;}</style></defs><polygon class="cls-1" points="93.7 21.13 56.81 16.47 49.45 15.54 41.99 74.54 48.07 83.91 48.27 83.94 85.17 88.6 85.37 88.63 93.59 81.06 101.05 22.06 93.7 21.13"/><polygon class="cls-2" points="88.7 20.5 84.22 19.93 85.85 7.03 67.91 4.76 66.28 17.67 61.8 17.1 63.72 1.96 66.24 0 88.66 2.83 90.61 5.36 88.7 20.5"/><circle class="cls-3" cx="70.99" cy="52.54" r="19.6"/><path class="cls-2" d="M72,43l-3.77,4.7-5.53-4.27,3.88-4.47s1.71-1.4,3.71.87A8.63,8.63,0,0,1,72,43Z"/><path class="cls-2" d="M72.77,47.68l6.23.79,4-5.07L81,44.18,79.71,41a4.34,4.34,0,0,0-2-1.65l-7.88-1a5.75,5.75,0,0,1,2.58,2.71c.78,1.87,2.28,5.65,2.28,5.65Z"/><path class="cls-2" d="M78.22,57.4,76,51.79l6.46-2.66,1.94,5.59s.36,2.19-2.61,2.79A8.6,8.6,0,0,1,78.22,57.4Z"/><path class="cls-2" d="M74,55.72l-3.6,5.14L73,66.78l.26-2.18,3.38.36A4.4,4.4,0,0,0,79,63.9l4.55-6.51a5.74,5.74,0,0,1-3.61,1c-2-.17-6.06-.61-6.06-.61Z"/><path class="cls-2" d="M68.81,56.94l-.88,6.91-5.09-.64s-2.08-.41-2.74-1.49-3.05-7.93-3.05-7.93a4.86,4.86,0,0,0,3.51,2.05C63.05,56.15,68.81,56.94,68.81,56.94Z"/><path class="cls-2" d="M62.71,55.41l2.95-3.64L67.32,53l-2.4-6.28-6.52-.77,1.68,1.64-2.31,3.33s-1,1.55,1.1,3.36C58.87,54.25,59.58,55.05,62.71,55.41Z"/><polygon class="cls-2" points="36.93 42.03 6.14 49.05 0 50.45 11.44 98.83 19.04 104.41 19.22 104.37 50.01 97.35 50.18 97.31 54.5 89 43.07 40.63 36.93 42.03"/><polygon class="cls-2" points="32.76 42.98 29.02 43.83 26.52 33.25 11.55 36.67 14.05 47.25 10.31 48.1 7.38 35.69 8.81 33.42 27.52 29.16 29.82 30.57 32.76 42.98"/><ellipse class="cls-3" cx="28.07" cy="73.2" rx="16.66" ry="16.37"/><path class="cls-2" d="M26,65.42l-1.62,4.77-5.67-1.75,1.78-4.62s1-1.6,3.22-.39A7.12,7.12,0,0,1,26,65.42Z"/><path class="cls-2" d="M28.07,68.88l5.19-1.19L35,62.56l-1.4,1.21-1.94-2.11A3.68,3.68,0,0,0,29.52,61l-6.58,1.5a4.92,4.92,0,0,1,2.86,1.37c1.17,1.24,3.49,3.77,3.49,3.77Z"/><path class="cls-2" d="M35.28,74.92l-3.4-3.77,4.36-4L39.44,71s.93,1.61-1.26,2.94A7.46,7.46,0,0,1,35.28,74.92Z"/><path class="cls-2" d="M31.37,74.83,30,79.9l3.83,3.89L33.41,82l2.8-.7a3.68,3.68,0,0,0,1.61-1.52l1.71-6.42A4.88,4.88,0,0,1,37,75.21c-1.65.44-5,1.27-5,1.27Z"/><path class="cls-2" d="M27.63,77.28,29,83l-4.25,1a4.2,4.2,0,0,1-2.62-.38c-.85-.66-4.77-5.33-4.77-5.33a4.15,4.15,0,0,0,3.4.59C22.81,78.33,27.63,77.28,27.63,77.28Z"/><path class="cls-2" d="M22.32,77.84l1.28-3.7,1.68.46-3.77-4.23-5.43,1.29,1.83.8-.86,3.28s-.34,1.5,1.87,2.31C18.92,78.05,19.72,78.47,22.32,77.84Z"/></svg>