<svg id="Layer_1" data-name="Layer 1" xmlns="http://www.w3.org/2000/svg" viewBox="0 0 175.06 228.85"><defs><style>.cls-1{fill:#78aa96;}.cls-2{fill:#5e9172;}.cls-3{fill:#284c3f;}</style></defs><path class="cls-1" d="M6,86.9,17.21,206.75a7.48,7.48,0,0,0-.16,1,7.67,7.67,0,0,0,.49,2.52v.1h0c3.83,10.4,30.15,18.45,62.1,18.45,34.59,0,62.63-9.43,62.63-21.06L153.39,86.9Z"/><ellipse class="cls-2" cx="79.69" cy="64.92" rx="79.69" ry="26.3"/><ellipse class="cls-2" cx="79.69" cy="66.25" rx="79.69" ry="26.3"/><ellipse class="cls-2" cx="79.69" cy="67.58" rx="79.69" ry="26.3"/><ellipse class="cls-2" cx="79.69" cy="68.91" rx="79.69" ry="26.3"/><ellipse class="cls-2" cx="79.69" cy="70.24" rx="79.69" ry="26.3"/><ellipse class="cls-2" cx="79.69" cy="71.57" rx="79.69" ry="26.3"/><ellipse class="cls-2" cx="79.69" cy="72.9" rx="79.69" ry="26.3"/><ellipse class="cls-2" cx="79.69" cy="74.24" rx="79.69" ry="26.3"/><ellipse class="cls-2" cx="79.69" cy="75.57" rx="79.69" ry="26.3"/><ellipse class="cls-2" cx="79.69" cy="76.9" rx="79.69" ry="26.3"/><ellipse class="cls-3" cx="78.33" cy="64.92" rx="74.16" ry="24.48"/><ellipse class="cls-2" cx="95.38" cy="38.62" rx="79.69" ry="26.3"/><ellipse class="cls-2" cx="95.38" cy="37.25" rx="79.69" ry="26.3"/><ellipse class="cls-2" cx="95.38" cy="35.88" rx="79.69" ry="26.3"/><ellipse class="cls-2" cx="95.38" cy="34.51" rx="79.69" ry="26.3"/><ellipse class="cls-2" cx="95.38" cy="33.14" rx="79.69" ry="26.3"/><ellipse class="cls-2" cx="95.38" cy="31.78" rx="79.69" ry="26.3"/><ellipse class="cls-2" cx="95.38" cy="30.41" rx="79.69" ry="26.3"/><ellipse class="cls-2" cx="95.38" cy="29.04" rx="79.69" ry="26.3"/><ellipse class="cls-2" cx="95.38" cy="27.67" rx="79.69" ry="26.3"/><ellipse class="cls-2" cx="95.38" cy="26.3" rx="79.69" ry="26.3"/><ellipse class="cls-1" cx="95.38" cy="26.3" rx="74.16" ry="24.48"/><path class="cls-2" d="M70,5.87V17.79c0,.72,1.18,1.3,2.64,1.3s2.64-.58,2.64-1.3V12.12h40.21v5.67c0,.72,1.18,1.3,2.64,1.3s2.65-.58,2.65-1.3V5.87Z"/><path class="cls-3" d="M79.65,140.39l-7.48,12.2-14.31-8.42,7.81-11.7s3.63-3.81,9,.95A20.2,20.2,0,0,1,79.65,140.39Z"/><path class="cls-3" d="M81.5,151.26H96.41l8-13.14-4.6,2.46-3.91-7.07a10.43,10.43,0,0,0-5.33-3.26H71.66a13.71,13.71,0,0,1,6.91,5.63c2.39,4.16,7.06,12.64,7.06,12.64Z"/><path class="cls-3" d="M98.68,172.55,91.84,160l14.43-8.21,6.24,12.61s1.49,5.05-5.32,7.34A20.19,20.19,0,0,1,98.68,172.55Z"/><path class="cls-3" d="M88.1,169.86l-6.94,13.19,7.92,13.18,0-5.22,8.07-.17a10.35,10.35,0,0,0,5.36-3.2l8.79-16.71a13.62,13.62,0,0,1-8.19,3.49c-4.8.19-14.48.37-14.48.37Z"/><path class="cls-3" d="M76.34,174.27v16.55H64.14s-5-.33-6.9-2.69-9.55-17.78-9.55-17.78a11.54,11.54,0,0,0,8.89,3.78C62.54,174.13,76.34,174.27,76.34,174.27Z"/><path class="cls-3" d="M60,173.14l5.86-9.46L70.18,166l-7.53-14.09L47,152.05l4.45,3.37L47,164s-1.89,3.94,3.6,7.59C50.64,171.56,52.56,173.23,60,173.14Z"/></svg>