<svg id="Layer_1" data-name="Layer 1" xmlns="http://www.w3.org/2000/svg" viewBox="0 0 131.35 129.32"><defs><style>.cls-1{fill:#5e9172;}.cls-2{fill:#284c3f;}.cls-3{fill:#78aa96;}</style></defs><path class="cls-1" d="M27.35,7.47s4,16.55,13.1,22.13,23,5.4,23,5.4l9.54.85s14.21-.71,13-24.09L71.37,9l-23-3.38Z" transform="translate(0 0)"/><path class="cls-2" d="M27.93,7.73c4.39-.34,8.5.94,12.93.84A3.61,3.61,0,0,1,43.23,9c.31.33.13.74-.09,1.1-1.45,2.22-4.62,3.95-6.06,6.18-.2.31-.31.73.16.91a1.81,1.81,0,0,0,.67.09c2,0,4-.29,6-.3,4.68,0,8.82,1.64,12.91,3a65.3,65.3,0,0,0,23,3.45,5.83,5.83,0,0,0,1.82-.29c1.45-.59.93-1.91.1-2.83a19.22,19.22,0,0,0-2.94-2.59c-.87-.62-1.89-1.34-1.56-2.13a2.68,2.68,0,0,1,1.31-1A18.88,18.88,0,0,1,83.29,13,8,8,0,0,0,85,12.57c1.5-.71,1-2.1.28-3.16L82.83,5.54a14.56,14.56,0,0,0-4-4.61A1.76,1.76,0,0,0,78.07.6a2.51,2.51,0,0,0-1.19.19C73.78,1.87,71.18,3.6,67.63,4a20,20,0,0,1-7.16-.77C57.7,2.46,55.14,1.46,52.34.77a20.74,20.74,0,0,0-8.9-.48,21.87,21.87,0,0,0-5.93,2.46A109.21,109.21,0,0,1,27.35,7.47Z" transform="translate(0 0)"/><path class="cls-1" d="M30.26,31.77s-16.77,6-20.52,18.85L0,83.92V99.31l8.48,13.51s37.07,16,75.4,10.37l22.62-12.25V66.56a25,25,0,0,0-5.08-15.1l-5.15-6.81L80.21,34.28,43.67,28Z" transform="translate(0 0)"/><path class="cls-3" d="M119.66,34.41s-2.1,11.46-7,15.58-12.22,4-12.22,4l-5.08.62S87.84,53.23,88.47,36l7.79-1.19,12.22-2.5Z" transform="translate(0 0)"/><path class="cls-2" d="M119.36,34.53c-2.34-.15-4.53.42-6.89.37a2.24,2.24,0,0,0-1.26.21c-.16.14-.07.33.05.48.77,1,2.46,1.76,3.23,2.75.1.13.16.32-.09.4a1.29,1.29,0,0,1-.35,0c-1.07,0-2.13-.13-3.2-.14A24.85,24.85,0,0,0,104,40,41.4,41.4,0,0,1,91.72,41.5a4.14,4.14,0,0,1-1-.13c-.77-.26-.49-.85,0-1.25A9.7,9.7,0,0,1,92.26,39c.47-.28,1-.6.83-.94a1.33,1.33,0,0,0-.69-.46,11.92,11.92,0,0,0-2.51-.7,4.37,4.37,0,0,1-.93-.2c-.79-.31-.5-.93-.14-1.4l1.31-1.71a7.06,7.06,0,0,1,2.15-2,.91.91,0,0,1,.39-.15,1.66,1.66,0,0,1,.63.08c1.65.48,3,1.25,4.92,1.42a12.66,12.66,0,0,0,3.81-.35c1.48-.33,2.84-.77,4.34-1.08a13.42,13.42,0,0,1,4.73-.21,13.18,13.18,0,0,1,3.16,1.09c1.71.76,3.51,1.45,5.4,2.09Z" transform="translate(0 0)"/><path class="cls-3" d="M117.29,53.81A29.28,29.28,0,0,1,126.85,71l4.5,28.56,0,12.9-4,10.75s-17.31,10.92-35.18,3.6L81.64,115l0-37.19a30.7,30.7,0,0,1,2.39-12.31l2.41-5.36,7.5-7.6,17.06-2.8Z" transform="translate(0 0)"/><path class="cls-2" d="M38.84,30.35A58.78,58.78,0,0,0,78.77,34a.62.62,0,0,0-.33-1.2,57.44,57.44,0,0,1-39-3.51c-.72-.35-1.35.73-.63,1.08Z" transform="translate(0 0)"/><path class="cls-2" d="M92.39,54.41a25.5,25.5,0,0,0,20.31-2.25.63.63,0,0,0-.63-1.08A24.26,24.26,0,0,1,92.72,53.2c-.77-.24-1.1,1-.33,1.21Z" transform="translate(0 0)"/><path class="cls-2" d="M52,66.05l-4.32,7-8.25-4.85L44,61.49s2.09-2.2,5.19.55A11.6,11.6,0,0,1,52,66.05Z" transform="translate(0 0)"/><path class="cls-2" d="M53.9,72.32h8.59l4.6-7.58-2.65,1.42-2.26-4.07a6,6,0,0,0-3.07-1.88H48.23a7.85,7.85,0,0,1,4,3.24c1.38,2.4,4.07,7.29,4.07,7.29Z" transform="translate(0 0)"/><path class="cls-2" d="M63,84.59,59,77.35l8.32-4.74,3.59,7.27s.87,2.91-3.06,4.24A11.59,11.59,0,0,1,63,84.59Z" transform="translate(0 0)"/><path class="cls-2" d="M56.87,83l-4,7.61,4.57,7.59,0-3,4.65-.1a5.94,5.94,0,0,0,3.1-1.84l5.06-9.63a7.88,7.88,0,0,1-4.72,2c-2.77.11-8.34.21-8.34.21Z" transform="translate(0 0)"/><path class="cls-2" d="M50.1,85.59v9.53h-7s-2.89-.19-4-1.55-5.51-10.25-5.51-10.25A6.65,6.65,0,0,0,38.7,85.5C42.14,85.5,50.1,85.59,50.1,85.59Z" transform="translate(0 0)"/><path class="cls-2" d="M41.55,84.55l3.38-5.45,2.47,1.34-4.34-8.12-9,.07,2.56,2-2.56,4.92S33,81.53,36.13,83.64C36.13,83.64,37.24,84.6,41.55,84.55Z" transform="translate(0 0)"/><path class="cls-2" d="M108.33,80.91l-3.48,5.66L98.2,82.66l3.63-5.43s1.69-1.77,4.19.44A9.44,9.44,0,0,1,108.33,80.91Z" transform="translate(0 0)"/><path class="cls-2" d="M109.85,86h6.93l3.71-6.11L118.35,81l-1.82-3.28a4.82,4.82,0,0,0-2.47-1.51h-8.77a6.33,6.33,0,0,1,3.2,2.61c1.12,1.94,3.28,5.87,3.28,5.87Z" transform="translate(0 0)"/><path class="cls-2" d="M117.17,95.85,114,90l6.7-3.81,2.9,5.85s.7,2.35-2.47,3.41A9.42,9.42,0,0,1,117.17,95.85Z" transform="translate(0 0)"/><path class="cls-2" d="M112.25,94.6,109,100.73l3.68,6.12,0-2.43,3.75-.08a4.81,4.81,0,0,0,2.49-1.48L123,95.1a6.4,6.4,0,0,1-3.81,1.62c-2.23.08-6.72.17-6.72.17Z" transform="translate(0 0)"/><path class="cls-2" d="M106.79,96.65v7.69h-5.67s-2.32-.16-3.2-1.26-4.44-8.25-4.44-8.25a5.37,5.37,0,0,0,4.13,1.75C100.38,96.58,106.79,96.65,106.79,96.65Z" transform="translate(0 0)"/><path class="cls-2" d="M99.9,95.81l2.73-4.39,2,1.08L101.12,86,93.87,86l2.06,1.56-2.06,4s-.88,1.83,1.67,3.53C95.54,95.08,96.43,95.86,99.9,95.81Z" transform="translate(0 0)"/></svg>