<svg id="Layer_1" data-name="Layer 1" xmlns="http://www.w3.org/2000/svg" viewBox="0 0 131.35 68.74"><defs><style>.cls-1{fill:#5e9172;}.cls-2{fill:#78aa96;}.cls-3{fill:#b7d47f;}.cls-4{fill:#345352;}</style></defs><polygon class="cls-1" points="93.98 3.34 93.98 49.15 0 49.15 0 40.84 14.59 41.17 31.72 3.34 93.98 3.34"/><path class="cls-2" d="M29.4,1.32,28.67,0H22.31l-19,41.18H15.57L29.75,8A7.61,7.61,0,0,0,29.4,1.32Z"/><path class="cls-3" d="M57,40.07a1.22,1.22,0,0,1-.52-.11,1.3,1.3,0,0,1-.68-1.72L67.77,11a1.32,1.32,0,0,1,1.73-.67,1.31,1.31,0,0,1,.67,1.72l-12,27.23A1.32,1.32,0,0,1,57,40.07Z"/><path class="cls-3" d="M72.16,40.07a1.23,1.23,0,0,1-.53-.11A1.31,1.31,0,0,1,71,38.24L82.92,11a1.31,1.31,0,1,1,2.39,1.05l-12,27.23A1.29,1.29,0,0,1,72.16,40.07Z"/><path class="cls-3" d="M44.12,39.4a1.39,1.39,0,0,1-.52-.11,1.32,1.32,0,0,1-.67-1.73l12-27.23a1.31,1.31,0,1,1,2.39,1.05l-12,27.23A1.31,1.31,0,0,1,44.12,39.4Z"/><path class="cls-3" d="M30.36,39a1.22,1.22,0,0,1-.52-.11,1.3,1.3,0,0,1-.68-1.72l12-27.23A1.31,1.31,0,0,1,43.52,11l-12,27.23A1.3,1.3,0,0,1,30.36,39Z"/><polygon class="cls-2" points="93.98 14.21 118.12 14.21 131.35 41.18 131.35 51.11 127.66 57.85 12 58.36 3.35 49.15 93.98 49.15 93.98 14.21"/><circle class="cls-4" cx="109.64" cy="58.36" r="10.38"/><circle class="cls-4" cx="59.97" cy="58.36" r="10.38"/><circle class="cls-4" cx="38.59" cy="58.36" r="10.38"/><polygon class="cls-4" points="120.8 19.68 100.05 19.68 100.05 41.18 131.35 41.18 120.8 19.68"/><circle class="cls-3" cx="109.64" cy="58.36" r="4.58"/><circle class="cls-3" cx="59.97" cy="58.36" r="4.58"/><circle class="cls-3" cx="38.59" cy="58.36" r="4.58"/></svg>